<svg width="284" height="126" viewBox="0 0 284 126" fill="none" xmlns="http://www.w3.org/2000/svg">
<mask id="mask0_483_2915" style="mask-type:alpha" maskUnits="userSpaceOnUse" x="0" y="0" width="284" height="126">
<path fill-rule="evenodd" clip-rule="evenodd" d="M284 0H0V119.589C8.38759 119.86 16.7747 120.154 25.1605 120.448C39.4911 120.951 53.8181 121.454 68.1384 121.837C140.083 123.757 212.034 125.088 284 125.831V0Z" fill="#D9D9D9"/>
</mask>
<g mask="url(#mask0_483_2915)">
<path d="M62.8286 77.3259C59.4586 73.2659 63.8586 64.7359 64.1586 60.0059C64.5086 54.5459 63.2386 49.3859 61.0986 44.3959L55.2086 48.9359C61.6486 54.1859 69.5686 54.4759 77.3686 52.4059C82.2286 51.1159 86.8486 48.9759 91.7886 48.0159C97.7386 46.8559 102.809 48.2459 108.569 49.4059C112.109 50.1159 115.929 50.4759 119.259 48.7459C120.449 48.1259 123.099 44.9859 124.179 45.0359C127.229 45.1959 123.349 49.2359 122.699 50.1059C117.079 57.5259 118.319 70.0259 118.229 78.8259C118.179 83.6559 125.679 83.6559 125.729 78.8259C125.789 72.6559 125.819 66.3159 126.669 60.1859C127.079 57.2659 128.149 55.3259 129.989 53.0959C131.079 51.7759 132.089 50.4459 132.609 48.8059C134.789 41.9359 127.049 35.2159 120.529 38.3859C118.519 39.3659 117.179 41.6959 115.049 42.3859C112.729 43.1259 109.799 42.0359 107.549 41.4859C102.539 40.2559 97.5986 39.6559 92.4486 40.3659C82.9786 41.6659 69.3586 50.8959 60.4886 43.6559C57.0886 40.8859 52.9086 44.2559 54.5986 48.1959C57.6986 55.4159 56.3486 61.4859 54.7786 68.7859C53.6786 73.9259 54.0786 78.5059 57.5086 82.6459C60.5886 86.3659 65.8686 81.0359 62.8086 77.3459L62.8286 77.3259Z" fill="#53FF6E"/>
<path d="M151.859 80.4564C151.179 74.2764 154.849 69.2764 156.129 63.4364C156.609 61.2564 156.829 59.0164 156.529 56.7964C156.369 55.6164 156.129 54.5364 155.689 53.4164C155.489 52.9064 154.059 51.1264 154.139 50.5964C154.619 47.4064 159.829 50.4964 161.439 51.0764C163.789 51.9364 166.209 52.3864 168.699 52.5464C174.359 52.8964 180.219 51.9364 185.809 51.1464C192.099 50.2564 198.329 49.0364 204.509 47.5164C206.269 47.0864 211.769 44.8964 212.449 47.9864C212.829 49.6864 208.919 52.8864 207.999 54.1764C202.089 62.4564 204.079 72.9664 206.389 82.1464C207.569 86.8264 214.799 84.8464 213.619 80.1564C211.999 73.7464 209.839 65.7564 213.369 59.5964C216.109 54.8164 221.669 51.1564 219.589 44.8464C217.919 39.7664 212.739 38.5464 207.949 39.1364C200.489 40.0564 193.169 42.5364 185.699 43.6464C178.229 44.7564 169.939 46.3664 162.749 43.5664C157.879 41.6664 152.359 40.1564 148.189 44.4664C142.979 49.8664 149.409 53.7764 149.179 59.3164C148.879 66.7664 143.489 72.6764 144.349 80.4464C144.879 85.1864 152.379 85.2464 151.849 80.4464L151.859 80.4564Z" fill="#53FF6E"/>
<path d="M67.2086 51.3161C66.6186 52.8461 65.8786 54.2961 65.0286 55.6961C64.1786 57.0961 66.3486 58.3361 67.1886 56.9561C68.1586 55.3661 68.9486 53.7061 69.6186 51.9761C70.1986 50.4761 67.7786 49.8261 67.2086 51.3161Z" fill="#53FF6E"/>
<path d="M72.8386 50.6456C71.9586 52.9656 70.8686 55.1756 69.5886 57.3056C68.7586 58.6856 70.9187 59.9456 71.7487 58.5656C73.1287 56.2456 74.2887 53.8256 75.2487 51.3056C75.8187 49.7956 73.4086 49.1456 72.8386 50.6456Z" fill="#53FF6E"/>
<path d="M79.3386 48.7148C77.8386 51.4548 76.4186 54.2248 75.0786 57.0448C74.3886 58.4848 76.5486 59.7548 77.2386 58.3048C78.5786 55.4848 79.9986 52.7148 81.4986 49.9748C82.2686 48.5648 80.1086 47.2948 79.3386 48.7148Z" fill="#53FF6E"/>
<path d="M86.2985 46.6964C84.3085 50.6364 82.3185 54.5864 80.3285 58.5264C79.6085 59.9564 81.7585 61.2264 82.4885 59.7864C84.4785 55.8464 86.4685 51.8963 88.4585 47.9563C89.1785 46.5263 87.0285 45.2564 86.2985 46.6964Z" fill="#53FF6E"/>
<path d="M92.1586 46.615C89.9286 49.995 87.8586 53.475 85.9386 57.035C85.1786 58.455 87.3387 59.715 88.0987 58.295C90.0187 54.725 92.0887 51.255 94.3187 47.875C95.2087 46.525 93.0386 45.275 92.1586 46.615Z" fill="#53FF6E"/>
<path d="M99.0885 46.3163C96.5285 49.8663 94.0685 53.4863 91.6985 57.1663C90.8285 58.5263 92.9885 59.7763 93.8585 58.4263C96.2285 54.7463 98.6885 51.1263 101.248 47.5763C102.188 46.2663 100.018 45.0163 99.0885 46.3163Z" fill="#53FF6E"/>
<path d="M103.079 47.185C100.979 50.945 98.8187 54.6549 96.5987 58.3449C95.7687 59.7249 97.9287 60.985 98.7587 59.605C100.989 55.925 103.149 52.205 105.239 48.445C106.029 47.035 103.869 45.775 103.079 47.185Z" fill="#53FF6E"/>
<path d="M108.219 47.2649C105.749 50.9249 103.389 54.6549 101.139 58.4649C100.319 59.8549 102.479 61.1149 103.299 59.7249C105.539 55.9149 107.899 52.1849 110.379 48.5249C111.279 47.1849 109.119 45.9349 108.219 47.2649Z" fill="#53FF6E"/>
<path d="M114.289 47.1962C111.609 51.0562 109.029 54.9761 106.549 58.9761C105.699 60.3461 107.859 61.6061 108.709 60.2361C111.189 56.2461 113.769 52.3161 116.449 48.4561C117.369 47.1361 115.199 45.8762 114.289 47.1962Z" fill="#53FF6E"/>
<path d="M121.499 45.8347C117.669 50.9047 114.139 56.1547 110.909 61.6247C110.089 63.0147 112.249 64.2747 113.069 62.8847C116.309 57.4247 119.839 52.1647 123.659 47.0947C124.629 45.8147 122.459 44.5647 121.499 45.8347Z" fill="#53FF6E"/>
<path d="M117.259 64.246C119.349 61.376 121.549 58.586 123.849 55.876C124.889 54.656 123.129 52.886 122.079 54.106C119.639 56.976 117.309 59.936 115.099 62.976C114.149 64.276 116.319 65.526 117.259 64.236V64.246Z" fill="#53FF6E"/>
<path d="M154.999 48.0564L152.599 51.6864C151.709 53.0264 153.869 54.2864 154.759 52.9464L157.159 49.3164C158.049 47.9764 155.889 46.7164 154.999 48.0564Z" fill="#53FF6E"/>
<path d="M160.109 48.6049C158.939 50.7449 157.639 52.7949 156.199 54.7549C155.249 56.0549 157.419 57.3049 158.359 56.0149C159.799 54.0449 161.099 51.9949 162.269 49.8649C163.039 48.4549 160.889 47.1949 160.109 48.6049Z" fill="#53FF6E"/>
<path d="M164.689 50.0955C163.229 52.3055 161.669 54.4455 159.999 56.5055C158.999 57.7455 160.749 59.5254 161.769 58.2754C163.569 56.0454 165.269 53.7455 166.849 51.3555C167.739 50.0055 165.579 48.7555 164.689 50.0955Z" fill="#53FF6E"/>
<path d="M169.269 51.5863L164.629 58.2363C163.709 59.5563 165.869 60.8063 166.789 59.4963L171.429 52.8463C172.349 51.5263 170.189 50.2763 169.269 51.5863Z" fill="#53FF6E"/>
<path d="M173.519 52.2259L170.969 55.7159C170.569 56.2659 170.879 57.1059 171.419 57.4259C172.049 57.7959 172.729 57.5259 173.129 56.9759L175.679 53.4859C176.079 52.9359 175.769 52.0959 175.229 51.7759C174.599 51.4059 173.919 51.6759 173.519 52.2259Z" fill="#53FF6E"/>
<path d="M180.409 49.3149C179.349 50.9949 178.169 52.5749 176.849 54.0549C175.779 55.2549 177.539 57.025 178.619 55.825C180.079 54.185 181.399 52.4349 182.569 50.5849C183.429 49.2149 181.269 47.965 180.409 49.325V49.3149Z" fill="#53FF6E"/>
<path d="M186.539 49.106C184.789 51.156 182.989 53.166 181.149 55.136C180.049 56.316 181.819 58.086 182.919 56.906C184.759 54.936 186.549 52.926 188.309 50.876C189.349 49.656 187.589 47.886 186.539 49.106Z" fill="#53FF6E"/>
<path d="M191.989 48.9459C190.489 51.1159 188.689 53.0359 186.659 54.7259C185.419 55.7559 187.199 57.5159 188.429 56.4959C190.629 54.6759 192.519 52.5659 194.149 50.2159C195.069 48.8859 192.899 47.6359 191.989 48.9559V48.9459Z" fill="#53FF6E"/>
<path d="M198.239 47.9458C195.639 50.7558 192.989 53.5158 190.299 56.2258C189.169 57.3658 190.929 59.1358 192.069 57.9958C194.759 55.2758 197.409 52.5157 200.009 49.7157C201.099 48.5357 199.339 46.7658 198.239 47.9458Z" fill="#53FF6E"/>
<rect x="174" y="5" width="50" height="18" fill="white"/>
<path d="M206.439 45.6947C201.729 50.1047 197.209 54.7046 192.869 59.4746C191.789 60.6646 193.549 62.4346 194.639 61.2446C198.979 56.4646 203.499 51.8746 208.209 47.4646C209.389 46.3646 207.619 44.5947 206.439 45.6947Z" fill="#53FF6E"/>
<path d="M212.929 45.4756C208.279 50.4256 203.619 55.3856 198.969 60.3356C197.869 61.5056 199.629 63.2756 200.739 62.1056L214.698 47.2456C215.798 46.0756 214.039 44.3056 212.929 45.4756Z" fill="#53FF6E"/>
<path d="M13.0284 17.1157L20.4184 6.03571L13.5684 3.1457C12.6584 7.0657 9.4584 9.66573 7.3184 12.9257C5.1784 16.1857 4.61841 19.5557 4.44841 23.2957C3.92841 34.4257 3.81841 45.5957 3.49841 56.7357C2.87841 78.8257 2.2584 100.916 1.6284 123.006C1.4884 127.836 8.9884 127.826 9.1284 123.006C9.7284 101.576 10.3384 80.1457 10.9384 58.7157C11.2384 48.1657 11.5284 37.6157 11.8284 27.0657C11.9784 21.8457 12.3784 18.3757 15.6784 14.2357C17.9284 11.4057 19.9684 8.7357 20.7984 5.1457C21.7684 0.9457 16.3084 -1.28425 13.9484 2.25575L6.55841 13.3357C3.86841 17.3657 10.3684 21.1257 13.0384 17.1257L13.0284 17.1157Z" fill="#20BEFF"/>
<path d="M13.7884 8.68668C12.1084 47.0667 11.3784 85.4767 11.5884 123.887H19.0884C18.8584 108.527 18.3984 93.1667 17.7084 77.8267C17.4884 72.9667 10.5584 73.0367 10.2084 77.8267C9.29839 90.1367 9.0584 102.457 9.4684 114.797H16.9684C16.9084 113.167 16.8384 111.537 16.7784 109.897C16.6184 105.727 10.5884 104.737 9.40838 108.897C8.39838 112.467 8.05839 115.907 8.47839 119.607C9.00839 124.287 16.2584 124.517 15.9784 119.607C14.9484 101.527 15.3984 83.4067 17.4784 65.4167C19.5584 47.4267 22.2384 30.5367 19.1384 12.5067C18.5284 8.96669 12.4384 8.88669 11.9084 12.5067C8.98838 32.2267 9.01839 52.0666 9.23839 71.9566H16.7384C16.0284 58.7266 16.6384 45.5167 18.7284 32.4367L11.3584 31.4367C11.8484 62.1567 11.7684 92.8867 11.0984 123.617C10.9984 128.447 18.4984 128.447 18.5984 123.617C19.2584 92.8967 19.3484 62.1667 18.8584 31.4367C18.7984 27.3867 12.1884 26.1167 11.4884 30.4367C9.28838 44.1967 8.47839 58.0366 9.22839 71.9566C9.48839 76.7466 16.7784 76.8166 16.7284 71.9566C16.5184 52.7866 16.3184 33.5167 19.1284 14.5067H11.8984C14.9784 32.4267 11.6984 49.5467 9.74839 67.3567C7.84839 84.7167 7.46839 102.187 8.45839 119.627H15.9584C15.6084 116.567 15.7784 113.877 16.6184 110.917L9.24839 109.917C9.30839 111.547 9.3784 113.177 9.4384 114.817C9.6284 119.627 17.0984 119.657 16.9384 114.817C16.5284 102.477 16.7684 90.1567 17.6784 77.8467H10.1784C10.8684 93.1967 11.3284 108.547 11.5584 123.907C11.6284 128.727 19.0884 128.747 19.0584 123.907C18.8484 85.4967 19.5784 47.0866 21.2584 8.70664C21.4684 3.87664 13.9684 3.88664 13.7584 8.70664L13.7884 8.68668Z" fill="#20BEFF"/>
<path d="M18.1584 7.64648L223.748 7.94653C228.578 7.94653 228.578 0.456533 223.748 0.446533L18.1584 0.146484C13.3284 0.146484 13.3284 7.63648 18.1584 7.64648Z" fill="#20BEFF"/>
<path d="M221.238 5.86664C221.328 30.5566 221.418 55.2466 221.508 79.9266C221.528 84.7566 229.028 84.7566 229.008 79.9266C228.918 55.2366 228.828 30.5466 228.738 5.86664C228.718 1.03664 221.218 1.03664 221.238 5.86664Z" fill="#20BEFF"/>
<path d="M62.1984 82.0968C64.1984 95.4268 64.6084 108.887 63.6084 122.317C63.2484 127.197 70.5484 126.997 71.1084 122.317C72.3284 112.087 72.8684 101.837 72.7284 91.5368C72.6584 86.7168 65.1584 86.6968 65.2284 91.5368C65.3684 101.837 64.8384 112.087 63.6084 122.317H71.1084C72.1584 108.177 71.5384 94.1168 69.4384 80.1068C68.7284 75.3468 61.4984 77.3668 62.2084 82.0968H62.1984Z" fill="#20BEFF"/>
<path d="M67.7385 83.9071C137.269 77.5571 206.909 84.9972 276.459 86.8272C281.289 86.9572 281.289 79.4572 276.459 79.3272C206.909 77.4972 137.269 70.0571 67.7385 76.4071C62.9685 76.8471 62.9285 84.3471 67.7385 83.9071Z" fill="#20BEFF"/>
<path d="M272.378 84.9158C273.968 99.5558 275.058 114.236 275.658 128.946H283.158C282.208 119.116 281.708 109.256 281.758 99.3758C281.788 94.7158 282.628 89.6658 282.198 85.0558C281.958 82.5258 281.208 80.4258 278.428 79.8958C276.628 79.5558 275.248 80.1758 274.198 81.6158L273.838 82.1158C270.988 86.0258 277.498 89.7658 280.318 85.9058L280.678 85.4058L276.448 87.1258L277.148 87.2558L274.908 85.5358C274.278 84.1758 274.548 88.2558 274.528 88.8758C274.448 90.7858 274.388 92.6958 274.338 94.6058C274.248 98.4258 274.248 102.246 274.318 106.076C274.458 113.726 274.938 121.356 275.668 128.966C276.128 133.676 283.368 133.866 283.168 128.966C282.578 114.256 281.488 99.5758 279.888 84.9358C279.368 80.1858 271.868 80.1358 272.388 84.9358L272.378 84.9158Z" fill="#20BEFF"/>
<path d="M35.7083 95.6764L67.7184 84.4864C72.2484 82.9064 70.2983 75.6564 65.7283 77.2564L33.7184 88.4464C29.1884 90.0264 31.1383 97.2764 35.7083 95.6764Z" fill="#20BEFF"/>
<path d="M31.5183 92.0971C31.5183 104.997 31.5183 117.887 31.5183 130.787C31.5183 135.617 39.0183 135.617 39.0183 130.787C39.0183 117.887 39.0183 104.997 39.0183 92.0971C39.0183 87.2671 31.5183 87.2671 31.5183 92.0971Z" fill="#20BEFF"/>
<path d="M68.5284 79.3769C66.8684 85.3969 66.8384 91.2969 68.3984 97.3469C69.0684 99.9569 72.7984 101.147 74.6684 98.9969C79.2284 93.7469 82.2384 87.7669 83.3584 80.8769C84.1184 76.1969 77.5784 74.1769 76.1284 78.8869C72.5084 90.6469 70.3684 102.727 69.6384 115.007C69.4284 118.557 75.1384 120.347 76.6284 116.897C80.7184 107.437 83.6284 97.7169 85.1684 87.5269C85.7584 83.6269 80.5284 80.6069 78.3184 84.6369C71.9384 96.2369 68.8484 109.117 69.4084 122.357C69.5584 125.937 74.5284 127.637 76.3984 124.247C83.2284 111.887 89.7084 99.3269 90.7484 84.9969C91.0284 81.1169 85.6084 80.1269 83.7584 83.1069C79.2784 90.3269 75.9884 98.2569 74.3384 106.607C73.2184 112.297 70.8084 121.627 77.0884 125.097C78.9484 126.127 81.0584 125.467 82.2184 123.747C88.8884 113.847 93.2784 102.737 95.1184 90.9369C95.7484 86.8869 90.6784 84.2469 88.2684 88.0469C81.2284 99.1469 78.1084 112.137 79.4884 125.227C79.8784 128.887 84.3084 130.377 86.4784 127.117C93.8484 116.027 97.8884 103.377 98.5184 90.0769C98.6884 86.4269 93.1984 84.8769 91.5284 88.1869C85.2984 100.587 83.3684 114.077 85.7684 127.737C86.3784 131.187 90.9784 131.037 92.6184 128.637C99.7184 118.277 103.288 106.137 103.028 93.5869C102.958 89.9669 97.8884 88.3569 96.0384 91.6969C90.4984 101.727 88.9384 112.927 91.4584 124.097C92.2384 127.537 96.5484 127.397 98.3084 124.997C105.048 115.807 108.468 104.887 108.378 93.5069C108.348 90.0769 102.928 88.0269 101.388 91.6169C98.5084 98.3169 96.5384 105.177 95.7784 112.447C95.2084 117.917 95.2184 123.307 100.118 126.707C101.828 127.897 104.218 126.957 105.248 125.357C111.798 115.177 115.318 103.677 115.748 91.5969C115.908 87.0469 109.858 86.9469 108.378 90.5969C105.588 97.4869 103.898 104.697 103.428 112.127C103.158 116.427 102.198 125.177 108.408 126.007C113.898 126.737 116.968 118.957 118.578 115.057C121.278 108.547 122.248 101.557 121.608 94.5569C121.288 91.0869 116.558 89.1569 114.618 92.6669C111.608 98.1269 101.258 125.337 114.218 125.757C120.198 125.947 123.198 118.187 125.018 113.677C127.838 106.707 128.918 99.2469 128.438 91.7669C128.208 88.2269 123.358 86.4469 121.448 89.8769C116.108 99.4669 114.658 110.267 117.278 120.917C118.098 124.257 122.388 124.327 124.128 121.817C130.318 112.867 135.388 98.0269 129.798 87.5969C124.208 77.1669 112.688 82.0169 110.098 91.6269C108.998 95.7169 109.498 101.257 114.888 101.387C119.528 101.497 122.788 96.8169 123.448 92.7069C124.948 83.3069 110.528 76.7169 107.208 86.7969C104.008 96.5069 118.288 100.667 121.358 90.5469C124.728 79.4569 111.528 73.8469 106.208 84.2469C104.478 87.6169 102.938 93.5069 107.278 95.7069C111.388 97.7869 115.798 94.0769 116.788 90.1769C119.438 79.7369 105.208 75.3669 99.5784 83.3969C91.8184 94.4769 113.858 99.4569 112.368 86.2269C111.018 74.2569 93.3584 77.4669 93.6584 88.7569C93.7184 90.8769 95.3384 92.3769 97.4084 92.5069C105.088 92.9769 107.778 83.1469 101.878 78.8069C96.3684 74.7569 84.7884 79.3569 89.2384 87.0069C92.7884 93.0969 102.368 89.0169 101.218 82.2969C99.6684 73.1969 88.4384 75.5569 85.2084 81.9269C84.4984 83.3169 84.4884 85.3669 85.7984 86.4669C88.8284 89.0369 92.6484 88.7369 94.7784 85.1969C95.8684 83.3869 95.1084 81.1769 93.4284 80.0669C90.1484 77.8969 86.6784 77.4269 82.8684 78.2169C78.3984 79.1469 79.9784 85.1469 83.8684 85.5869C101.578 87.5869 119.378 88.2669 137.188 87.6469V80.1469C133.418 80.3269 129.998 79.8769 126.398 78.7369L127.298 85.5869C130.528 83.8969 133.738 84.1369 136.828 86.0369L138.718 79.0469C131.478 78.8569 125.598 83.2769 123.398 90.0969C122.308 93.4869 126.148 95.5969 128.908 94.3269C135.578 91.2569 140.868 86.4969 144.848 80.3469C146.648 77.5669 143.668 73.9769 140.618 74.8369C135.128 76.3869 132.088 80.7369 130.368 85.9669C129.038 90.0169 126.888 97.7869 132.048 100.117C141.718 104.477 152.128 81.1669 140.158 80.9369C131.988 80.7769 120.358 102.737 130.308 105.987C135.458 107.667 140.418 102.017 142.408 97.9769C144.998 92.7269 144.778 87.0669 142.448 81.8169C141.518 79.7269 137.988 79.3169 136.558 81.0569C130.138 88.8769 126.548 97.8869 125.958 107.997L130.708 104.377C129.878 104.247 129.058 104.127 128.228 103.997C125.738 103.617 123.638 104.977 123.478 107.617C123.188 112.307 122.908 116.987 122.618 121.677C122.418 124.897 126.868 126.657 129.018 124.327C134.498 118.387 138.428 111.547 140.758 103.807C142.078 99.4269 136.308 97.7569 133.908 100.917C127.618 109.197 124.198 118.837 123.468 129.177C123.228 132.557 127.658 133.947 129.868 131.827C139.298 122.797 145.918 111.487 149.178 98.8469C150.268 94.6169 144.668 92.4869 142.328 95.9569C136.138 105.137 133.078 115.787 133.398 126.857C133.468 129.427 135.728 130.947 138.148 130.477C143.558 129.407 145.598 124.117 147.488 119.527C150.268 112.767 152.238 105.787 153.508 98.5869C154.208 94.6369 148.848 91.7369 146.658 95.6969C141.468 105.097 138.918 115.407 139.258 126.147C139.358 129.247 143.378 131.287 145.658 128.797C152.308 121.527 156.688 112.777 158.208 103.017C158.808 99.1669 153.438 96.0069 151.358 100.127C147.698 107.357 145.898 114.957 146.118 123.067C146.208 126.407 150.108 127.897 152.518 125.717C159.568 119.357 164.438 111.237 166.818 102.057C167.848 98.0869 161.868 95.2169 159.968 99.1669C155.968 107.467 154.068 116.277 154.538 125.487C154.698 128.577 158.618 130.637 160.938 128.137C168.208 120.347 173.528 111.307 176.838 101.177C178.208 96.9969 172.218 94.8369 169.988 98.2869C165.298 105.527 162.738 113.507 162.118 122.097C161.878 125.407 166.348 126.957 168.518 124.747C174.978 118.187 179.738 110.547 182.928 101.917C184.618 97.3469 177.458 95.5169 175.698 99.9269C172.818 107.147 170.808 114.567 169.638 122.247C169.208 125.087 172.168 128.607 175.148 126.477C179.558 123.327 183.018 119.397 185.118 114.357C186.818 110.277 188.958 103.287 185.228 99.7569C177.248 92.1869 163.848 111.837 160.368 117.117C158.028 120.677 163.348 124.757 166.258 121.657C170.948 116.657 176.478 108.447 175.528 101.197C174.638 94.4669 166.918 94.5969 162.598 97.9469C158.278 101.297 152.348 110.327 155.488 115.767C159.228 122.247 168.188 116.317 171.598 112.747C176.198 107.927 179.108 100.757 178.078 94.0369C176.938 86.5369 169.758 86.1469 165.198 91.2369C161.528 95.3369 154.838 105.057 158.058 110.827C161.798 117.517 170.188 111.097 173.288 107.187C177.508 101.867 177.728 92.6169 170.558 89.5669C163.388 86.5169 157.578 94.1269 156.118 100.507C155.678 102.427 156.698 104.627 158.738 105.117C168.258 107.397 178.208 91.8369 170.188 84.8469C166.758 81.8569 161.738 82.2069 158.148 84.7269C153.448 88.0369 152.638 93.9869 152.828 99.3169C152.908 101.547 155.198 103.837 157.578 102.937C162.088 101.227 166.888 98.7769 168.348 93.7769C169.468 89.9469 167.818 85.1469 164.238 83.1669C156.498 78.8969 144.218 92.8369 149.008 99.8269C154.848 108.357 166.848 96.4569 163.248 88.5469C159.018 79.2369 144.498 83.8969 147.878 93.8669L148.258 90.9769C145.748 95.0469 149.678 99.8269 154.208 98.2369C158.198 96.8369 160.908 90.8169 160.558 86.8669C160.148 82.2369 155.868 79.1169 151.308 80.4069C145.868 81.9469 144.398 87.6269 144.858 92.6169C145.088 95.0869 147.068 96.8269 149.608 96.2369C158.408 94.1869 158.648 81.1569 149.268 79.8469C139.528 78.4869 136.968 90.5869 143.958 95.7269C145.288 96.7069 147.408 96.2269 148.498 95.1369C152.348 91.3369 154.338 84.4869 148.668 81.1069C144.588 78.6769 139.658 81.2969 139.208 85.8969C138.758 90.4969 142.568 94.4569 147.118 94.2969C154.448 94.0369 156.568 86.3769 161.398 82.4769L155.128 78.8269C154.578 81.6569 155.508 84.3169 158.378 85.4969C161.578 86.8069 164.498 84.8969 166.488 82.4869L160.598 77.9469C154.628 86.1469 167.958 94.0669 172.378 84.9069C174.458 80.6069 168.308 76.8669 165.898 81.1169C164.778 83.0969 164.308 84.8069 164.448 87.0769C164.628 89.9869 167.478 91.6569 170.088 90.3169C172.698 88.9769 174.748 87.3769 176.658 85.2669C179.888 81.6969 174.848 76.5869 171.358 79.9669C168.668 82.5769 167.438 85.5269 167.378 89.2669C167.328 91.7669 169.808 93.4469 172.128 92.8869C176.638 91.7869 180.038 89.1969 182.348 85.1769C184.658 81.1569 178.298 77.2169 175.868 81.3869C174.028 84.5669 172.808 87.7869 172.218 91.4269C171.628 95.0669 175.568 97.7769 178.488 95.0769C182.598 91.2669 185.428 86.8469 187.408 81.6269C188.928 77.6369 182.548 75.0369 180.558 78.7369C177.918 83.6369 175.898 88.7369 174.528 94.1369C173.538 98.0669 177.988 99.9669 180.798 97.7869C184.878 94.6169 187.468 90.2769 188.388 85.1869C189.148 80.9569 184.038 78.7669 181.538 82.2969C177.848 87.4869 176.048 93.2969 175.908 99.6369C175.828 103.117 179.958 104.287 182.308 102.287C187.908 97.5469 191.768 91.5969 194.078 84.6469C195.508 80.3469 189.558 78.5269 187.228 81.7569C182.798 87.8969 179.978 94.7869 178.858 102.277C178.348 105.707 182.278 108.877 185.128 105.927C189.848 101.037 193.258 95.4969 195.638 89.1369C196.718 86.2369 193.568 84.0269 191.028 84.5269C189.268 84.8769 187.498 85.2169 185.738 85.5669C181.408 86.4169 182.698 92.7169 186.738 92.9369L188.238 93.3669L186.518 89.1369C183.908 99.9669 181.298 110.787 178.688 121.617C177.708 125.697 183.348 128.247 185.538 124.507C190.038 116.857 193.588 108.787 196.218 100.307C197.448 96.3369 191.138 93.4869 189.368 97.4169C185.108 106.877 181.478 116.567 178.558 126.527C177.568 129.907 182.418 133.207 184.828 130.177C191.088 122.297 196.638 113.997 201.388 105.127L194.908 101.337C191.358 108.467 188.728 115.877 187.108 123.677C186.228 127.947 191.488 130.027 193.958 126.567C198.338 120.437 202.078 113.987 205.208 107.137L198.728 103.347C195.848 110.087 193.508 116.947 191.818 124.087C191.018 127.457 195.538 130.787 198.088 127.737C203.088 121.747 207.638 115.437 211.678 108.757L205.198 104.967C202.448 110.817 200.318 116.807 198.888 123.117C198.078 126.687 202.418 129.497 205.158 126.767C209.758 122.167 213.428 116.957 216.118 111.037L209.268 108.147C208.288 112.667 207.308 117.197 206.338 121.717C205.578 125.257 209.868 128.157 212.608 125.367C217.448 120.447 221.788 115.147 225.718 109.477L218.868 106.587C217.088 111.947 215.828 117.377 215.068 122.977C214.608 126.357 218.468 129.637 221.338 126.627C226.728 120.957 231.028 114.607 234.158 107.437C236.048 103.107 230.328 99.4769 227.678 103.647C223.938 109.557 221.258 115.917 219.678 122.727C218.898 126.077 223.418 129.467 225.948 126.377C230.758 120.507 235.568 114.627 240.388 108.757L234.498 104.217C231.168 109.927 229.408 115.967 229.058 122.557C228.878 125.907 233.228 127.357 235.458 125.207C240.698 120.157 245.318 114.617 249.428 108.607L242.948 104.817C240.738 109.597 238.958 114.477 237.678 119.587C236.748 123.297 241.188 125.747 243.948 123.237C247.848 119.687 250.458 115.427 252.008 110.397C253.298 106.207 247.408 104.037 245.158 107.507C240.838 114.147 235.748 120.037 229.858 125.327L236.128 126.977C235.098 124.027 234.078 121.087 233.048 118.137C232.098 115.397 228.968 114.537 226.778 116.487C224.168 118.817 223.708 122.417 225.618 125.347C226.708 127.017 228.948 127.797 230.748 126.697C235.138 124.007 241.698 115.207 236.398 110.287C231.138 105.397 223.498 114.147 223.818 119.447C224.358 128.327 233.638 125.757 238.658 122.677C245.688 118.367 250.668 111.857 253.538 104.197C254.478 101.707 252.118 99.6669 249.918 99.4469C243.508 98.8069 243.048 104.177 242.498 109.037C241.658 116.467 240.178 123.787 238.298 131.017C237.158 135.407 242.698 137.127 245.148 133.907C251.358 125.787 255.958 116.777 259.048 107.037C260.408 102.757 254.518 100.847 252.198 104.147C247.288 111.117 244.088 118.947 242.738 127.367C242.178 130.887 246.118 133.837 249.008 131.017C256.538 123.657 261.728 114.537 264.138 104.277C265.168 99.9069 259.768 98.1169 257.288 101.387C252.398 107.817 250.048 115.397 250.238 123.457C250.318 126.657 254.308 128.467 256.638 126.107C261.858 120.817 264.688 114.567 265.568 107.227C266.048 103.217 260.428 102.577 258.578 105.337C254.468 111.457 252.628 118.497 253.298 125.847C253.568 128.787 257.378 131.167 259.698 128.497C264.998 122.397 268.578 115.387 270.098 107.437C270.728 104.137 266.438 100.627 263.828 103.787C258.458 110.307 256.458 118.027 258.088 126.327C258.608 128.967 262.608 130.107 264.358 127.977C269.268 121.997 271.758 115.097 271.268 107.317C271.048 103.797 266.158 101.967 264.278 105.427C260.988 111.477 260.948 117.837 263.998 123.997C265.258 126.547 269.158 126.337 270.478 123.997C273.358 118.887 274.648 113.457 274.138 107.607C273.778 103.447 268.148 102.457 266.768 106.607C264.778 112.637 264.578 118.687 265.948 124.877C266.778 128.637 272.148 128.247 273.178 124.877C274.818 119.537 275.018 114.377 274.098 108.887C273.478 105.227 267.618 105.397 266.868 108.887C265.548 115.027 265.408 120.947 266.278 127.157C266.728 130.327 271.798 130.797 273.128 128.057C275.188 123.837 276.268 119.587 276.368 114.897C276.468 110.207 269.238 110.147 268.868 114.897C268.538 119.067 269.348 122.667 270.988 126.477C272.518 130.017 278.008 128.057 277.978 124.587C277.868 114.327 276.288 104.247 273.218 94.4569C272.348 91.6869 267.738 90.4169 266.368 93.5569C264.888 96.9469 265.128 100.147 267.878 102.817C269.388 104.287 271.648 104.187 273.178 102.817C277.958 98.5569 277.308 88.7169 269.988 87.5869C262.768 86.4769 258.868 94.9869 262.968 100.287C263.728 101.277 265.478 101.617 266.618 101.247C273.558 98.9969 273.548 88.2869 266.298 86.3269C262.768 85.3669 258.978 87.3969 257.068 90.3269C254.208 94.7269 255.658 99.2069 258.278 103.297C259.698 105.517 262.228 105.567 264.168 104.057C269.058 100.237 270.828 93.6269 268.558 87.8569C267.448 85.0469 264.638 84.3869 262.288 86.2069C258.968 88.7769 255.508 92.0869 255.498 96.6269C255.488 100.197 257.808 104.077 261.398 105.017C270.778 107.497 274.118 94.0969 272.078 87.5869L269.458 92.1969C272.498 91.1069 274.478 88.8469 274.198 85.4969C274.028 83.4969 272.618 81.7169 270.448 81.7469C252.158 81.9869 233.648 82.2969 215.628 78.6969C208.528 77.2769 200.448 74.7469 193.748 78.8469C188.858 81.8369 185.998 87.6769 187.978 93.2269C188.728 95.3269 191.358 96.9469 193.488 95.4669C197.808 92.4769 200.288 87.9969 199.598 82.6469C199.128 79.0469 194.808 77.4369 192.608 80.7569C188.578 86.8269 187.738 94.2269 190.488 100.987C191.618 103.777 194.388 104.477 196.758 102.637C202.178 98.4269 204.988 92.2969 205.098 85.4769C205.158 81.6569 200.028 80.5069 198.108 83.5869C194.258 89.7569 192.398 96.6069 192.588 103.877C192.658 106.477 195.818 108.867 198.228 107.117C204.768 102.377 209.208 95.7969 210.558 87.7769C211.188 84.0169 207.268 81.6569 204.288 84.1269C199.098 88.4469 191.498 100.137 199.888 105.507C209.788 111.847 215.418 94.4669 215.638 87.7669C215.738 84.6369 211.388 82.6669 209.238 85.1169C204.828 90.1369 198.048 104.957 207.558 108.847C217.358 112.867 221.708 94.5969 221.708 88.3769C221.708 84.6969 216.558 83.2169 214.718 86.4869C211.198 92.7469 209.658 99.5669 210.388 106.727C210.688 109.647 214.448 112.067 216.788 109.377C221.478 103.997 224.798 97.9869 226.718 91.1069C227.698 87.5969 223.018 84.6469 220.448 87.4569C215.328 93.0569 213.458 99.9669 214.898 107.397C215.478 110.377 219.208 110.747 221.168 109.047C227.308 103.747 230.648 96.4669 231.068 88.4069C231.258 84.7969 225.688 83.1569 224.078 86.5169C220.818 93.3069 219.448 100.407 220.398 107.917C220.788 111.007 224.268 113.027 226.798 110.567C232.048 105.457 235.778 99.4969 238.238 92.6069C239.708 88.5069 233.538 86.1969 231.388 89.7169C228.988 93.6369 227.938 97.8369 228.368 102.417C228.668 105.587 232.278 107.447 234.768 105.067C238.658 101.347 241.278 96.9469 242.758 91.7669C243.918 87.6969 238.018 85.1569 235.908 88.8769C232.578 94.7569 231.668 100.947 232.988 107.557C233.428 109.777 236.618 111.177 238.498 109.797C243.688 105.997 247.178 101.067 248.558 94.7269C249.438 90.6669 243.938 88.0569 241.708 91.8369C239.158 96.1469 238.518 100.417 239.218 105.337C239.708 108.727 244.538 108.707 246.068 106.237C249.528 100.677 251.448 94.8269 252.308 88.3469C252.818 84.4469 247.078 83.5469 245.318 86.4569C241.238 93.1969 241.098 100.817 244.548 107.837C245.808 110.397 249.698 110.157 251.028 107.837C253.428 103.647 255.408 99.2869 257.048 94.7469L249.818 92.7569C249.078 97.5169 252.568 101.867 257.668 101.137C262.768 100.407 264.518 94.5369 262.118 90.3969C259.368 85.6569 252.958 85.5569 249.298 89.3269C244.998 93.7669 246.708 100.217 250.618 104.187C252.358 105.957 255.228 105.447 256.508 103.427C259.718 98.3369 260.008 86.4969 251.618 86.1669C243.228 85.8369 241.098 97.5469 243.718 103.397C246.748 110.167 254.998 108.947 255.718 101.417C256.478 93.4069 249.688 85.5969 242.968 82.3169C240.248 80.9869 237.648 82.6469 237.328 85.5569C236.798 90.4269 238.908 96.2169 244.248 97.2669C249.238 98.2469 253.178 94.9669 253.768 90.1469C254.358 85.3269 246.838 85.4069 246.268 90.1469C245.358 89.9269 244.858 89.2969 244.768 88.2669C244.638 87.3569 244.658 86.4569 244.818 85.5669L239.178 88.8069C244.258 91.2869 245.908 94.5469 248.098 99.3769L248.208 101.097L250.878 101.047C251.128 100.597 249.938 97.2769 250.168 96.2969L251.158 94.0769C250.568 93.3169 250.528 93.5669 251.038 94.8369C251.308 96.8669 251.188 97.8169 250.028 99.6569L255.918 98.8969C255.088 98.3269 254.608 97.5669 254.488 96.6169C253.708 95.1169 254.558 94.4969 257.048 94.7569C257.778 90.0269 251.488 88.1569 249.818 92.7669C248.388 96.7169 246.638 100.427 244.558 104.067H251.038C248.768 99.4469 249.178 94.6169 251.808 90.2569L244.818 88.3669C244.148 93.4769 242.318 98.1069 239.608 102.467L246.458 103.367C246.048 100.507 246.748 98.0869 248.188 95.6469L241.338 92.7569C240.398 97.0869 238.348 100.697 234.728 103.347L240.238 105.587C239.318 100.967 240.088 96.7669 242.408 92.6869L235.558 89.7969C234.418 93.8069 232.518 96.9069 229.498 99.7869L235.898 102.437C235.588 99.0969 236.138 96.3969 237.898 93.5169L231.048 90.6269C229.028 96.2869 225.838 101.097 221.538 105.277L227.938 107.927C227.158 101.777 227.898 95.9269 230.588 90.3169L223.598 88.4269C223.278 94.6069 220.538 99.7469 215.888 103.767L222.158 105.417C221.248 100.717 222.568 96.2969 225.788 92.7769L219.518 89.1269C217.948 94.7269 215.348 99.6869 211.518 104.087L217.918 106.737C217.318 100.847 218.308 95.4569 221.218 90.2769L214.228 88.3869C214.228 90.8669 213.978 93.2369 213.148 95.5869C212.698 96.8569 212.128 98.0669 211.418 99.2169C210.548 99.8269 210.298 100.547 210.668 101.397C210.928 102.637 210.878 102.447 210.508 100.827C210.468 99.5569 210.618 98.3069 210.948 97.0769C211.588 94.5269 212.848 92.3969 214.568 90.4269L208.168 87.7769C208.088 90.4069 207.648 92.9069 206.488 95.3069C205.998 96.3269 204.528 99.4869 203.948 98.4469C202.368 95.5969 207.878 90.8969 209.628 89.4469L203.358 85.7969C202.338 91.8369 199.488 97.0169 194.468 100.657L200.108 103.897C199.948 97.8569 201.408 92.5169 204.608 87.3969L197.618 85.5069C197.548 90.5069 195.388 94.3269 191.478 97.3569L197.748 99.0069C195.698 93.9469 196.098 89.0969 199.108 84.5569L192.118 82.6669C192.458 85.2869 192.048 87.3969 189.718 89.0069L195.228 91.2469C192.058 82.3669 206.648 84.4469 210.858 85.3469C217.158 86.6869 223.498 87.6769 229.908 88.3069C243.388 89.6369 256.958 89.4469 270.478 89.2669L266.728 85.5169L267.498 84.9869C265.638 85.6469 264.238 87.5469 264.878 89.5969C265.518 91.6469 266.038 95.4969 263.688 96.5369C262.088 97.2369 264.478 94.2569 264.808 93.8869C265.608 92.9869 266.688 92.2469 267.628 91.5269L261.358 89.8769C262.778 93.4869 261.948 96.3969 258.898 98.7869L264.788 99.5469C263.648 97.7769 262.348 95.9169 263.758 93.9969C264.488 93.0069 263.978 94.2669 264.648 94.0469L268.298 95.0069C268.988 94.7669 269.178 94.9269 268.888 95.4869C269.018 96.3969 268.688 97.0769 267.908 97.5369H273.208L272.868 97.3669L266.018 96.4669C268.908 105.657 270.408 114.967 270.508 124.607L277.498 122.717C276.378 120.127 276.188 117.677 276.398 114.917H268.898C268.828 118.297 268.158 121.257 266.678 124.297L273.528 125.197C272.848 120.377 273.098 115.667 274.118 110.917H266.888C267.588 115.047 267.198 118.917 265.968 122.917H273.198C272.108 118.007 272.448 113.397 274.018 108.637L266.648 107.637C267.048 112.277 266.308 116.167 264.008 120.247H270.488C268.678 116.597 268.828 112.817 270.768 109.247L263.778 107.357C264.138 113.027 262.698 118.287 259.058 122.717L265.328 124.367C264.248 118.897 265.578 113.437 269.138 109.127L262.868 105.477C261.588 112.147 258.868 118.087 254.398 123.237L260.798 125.887C260.238 119.737 261.608 114.297 265.058 109.167L258.068 107.277C257.428 112.547 255.028 117.107 251.328 120.847L257.728 123.497C257.558 116.627 259.598 110.667 263.748 105.217L256.898 102.327C254.768 111.397 250.358 119.247 243.698 125.757L249.968 129.407C251.228 121.547 254.078 114.497 258.668 107.977L251.818 105.087C248.908 114.227 244.488 122.547 238.668 130.167L245.518 133.057C247.968 123.647 249.578 114.107 250.438 104.427L249.338 107.077L249.898 106.997L246.278 102.247C244.678 106.497 242.148 110.257 238.778 113.307C237.188 114.737 235.448 115.957 233.578 116.987C230.218 118.827 232.678 116.707 234.488 115.937L231.598 116.317L232.728 116.607L230.488 114.887C231.508 116.647 228.068 119.587 226.938 120.277L232.068 121.627V121.857C229.968 121.307 227.878 120.757 225.788 120.207C226.818 123.157 227.838 126.097 228.868 129.047C229.818 131.767 232.958 132.657 235.138 130.697C241.498 124.977 246.948 118.517 251.608 111.357L244.758 108.467C243.568 112.337 241.608 115.277 238.628 117.997L244.898 121.647C246.018 117.157 247.468 112.877 249.408 108.667C251.348 104.457 245.688 100.857 242.928 104.877C239.178 110.367 234.918 115.347 230.138 119.957L236.538 122.607C236.818 117.327 238.288 112.617 240.958 108.047C243.038 104.487 237.838 100.127 235.068 103.507C230.258 109.377 225.448 115.257 220.628 121.127L226.898 124.777C228.348 118.547 230.718 112.887 234.138 107.487L227.658 103.697C224.778 110.287 220.968 116.147 216.008 121.367L222.278 125.017C223.038 119.417 224.288 113.987 226.078 108.627C227.488 104.377 221.518 102.427 219.228 105.737C215.658 110.887 211.678 115.637 207.288 120.107L213.558 123.757C214.538 119.237 215.518 114.707 216.488 110.187C217.328 106.277 211.488 103.217 209.638 107.297C207.198 112.667 204.038 117.337 199.858 121.517L206.128 125.167C207.418 119.507 209.218 114.067 211.688 108.807C213.708 104.497 207.758 100.827 205.208 105.017C201.498 111.147 197.388 116.967 192.788 122.477L199.058 126.127C200.588 119.647 202.588 113.307 205.208 107.177C207.068 102.827 200.758 98.9569 198.728 103.387C195.598 110.237 191.858 116.697 187.478 122.817L194.328 125.707C195.808 118.537 198.098 111.717 201.368 105.157C203.508 100.867 197.188 97.0869 194.888 101.367C190.438 109.657 185.348 117.527 179.498 124.897L185.768 128.547C188.498 119.207 191.818 110.097 195.818 101.227L188.968 98.3369C186.518 106.217 183.218 113.637 179.048 120.747L185.898 123.637C188.508 112.807 191.118 101.987 193.728 91.1569C194.108 89.5869 193.488 87.7169 192.008 86.9269C190.238 85.9869 188.708 85.5769 186.718 85.4669L187.718 92.8369C189.478 92.4869 191.248 92.1469 193.008 91.7969L188.398 87.1869C186.488 92.3069 183.608 96.7469 179.818 100.667L186.088 104.317C187.128 97.3969 189.608 91.2669 193.698 85.5869L186.848 82.6969C184.938 88.4569 181.628 93.1269 177.008 97.0269L183.408 99.6769C183.518 94.5769 185.068 90.2569 188.018 86.1169L181.168 83.2269C180.438 87.2469 178.728 90.0069 175.508 92.5169L181.778 96.1669C182.988 91.3769 184.708 86.9069 187.048 82.5569L180.198 79.6669C178.668 83.6869 176.348 86.8969 173.208 89.8069L179.478 93.4569C179.978 90.4369 180.838 87.8569 182.378 85.2069L175.898 81.4169C174.498 83.8369 172.848 85.0269 170.158 85.6769L174.908 89.2969C174.768 87.6169 175.368 86.2769 176.698 85.3069L171.398 80.0069C169.878 81.6869 168.348 82.8569 166.338 83.8869L171.978 87.1269L172.398 84.9569L165.918 81.1669L167.088 81.7769C169.578 78.3669 163.918 73.9569 161.198 77.2369C159.868 78.1769 160.078 78.7069 161.828 78.8469L162.208 81.7369L162.378 80.8769C163.118 77.0469 159.038 74.8569 156.108 77.2269C154.078 78.8669 152.718 80.8769 151.208 82.9669C148.988 86.0569 145.878 87.2469 143.208 89.8869L147.748 89.2969C143.888 86.4569 152.508 87.9169 147.618 89.0569L152.368 92.6769C152.248 91.7669 152.198 90.8469 152.238 89.9269C153.158 87.5669 153.408 87.0269 153.008 88.2969C152.678 89.0969 152.108 91.0969 151.308 91.3169L154.198 91.6969L153.338 91.2669L155.058 93.5069L154.698 92.6269L154.318 95.5169C154.458 95.2869 155.778 91.7669 155.128 91.9269L156.118 93.7169C156.488 94.8769 156.888 94.6569 157.328 93.0569C157.658 92.7469 160.508 88.3269 161.238 91.1569C161.838 93.4969 157.028 95.2369 155.608 95.7769L160.358 99.3969C160.278 97.0169 160.048 90.3369 163.718 90.3369C168.078 90.3369 163.148 98.5269 160.768 97.9569L163.388 102.567C163.808 100.747 166.318 93.5869 168.648 97.8569C169.588 99.5769 168.398 101.347 167.378 102.667C166.868 103.357 166.278 103.967 165.598 104.497C163.858 104.937 163.468 105.647 164.418 106.637C164.728 108.997 166.648 102.647 166.918 102.117C167.668 100.617 168.548 99.1569 169.548 97.8169L171.088 95.9669C170.548 93.9569 170.448 93.9469 170.778 95.9669C170.548 97.4269 170.688 98.8769 170.298 100.357C169.538 103.247 167.998 105.927 165.848 108.017C164.788 109.047 163.558 109.967 162.238 110.627C162.638 111.817 162.918 111.577 163.078 109.907L163.958 108.047C164.678 106.747 165.728 104.817 167.068 104.017C169.348 102.677 167.858 104.557 167.358 105.867C165.808 109.947 163.988 113.237 160.988 116.437L166.878 120.977C168.798 118.057 170.888 115.297 173.268 112.737C175.518 110.317 178.598 108.457 180.728 106.017L179.728 105.017C179.708 106.137 179.568 107.237 179.288 108.317C178.938 109.887 178.378 111.407 177.658 112.847C176.198 115.757 174.028 118.187 171.388 120.077L176.898 124.307C178.058 116.617 180.068 109.207 182.958 101.987L175.728 99.9969C172.988 107.407 168.778 113.897 163.248 119.517L169.648 122.167C170.178 114.887 172.538 108.257 176.498 102.147L169.648 99.2569C166.738 108.147 162.048 116.067 155.668 122.907L162.068 125.557C161.668 117.687 163.048 110.137 166.478 103.017L159.628 100.127C157.548 108.177 153.418 114.907 147.258 120.477L153.658 123.127C153.478 116.357 154.808 110.027 157.868 103.977L151.018 101.087C149.688 109.617 146.238 117.167 140.398 123.557L146.798 126.207C146.498 116.727 148.588 107.847 153.178 99.5369L146.328 96.6469C145.478 101.437 144.368 106.147 142.838 110.767C141.808 113.907 140.018 122.537 136.198 123.297L140.948 126.917C140.668 117.067 143.348 107.967 148.858 99.8069L142.008 96.9169C139.058 108.367 133.168 118.407 124.628 126.587L131.028 129.237C131.668 120.157 134.948 111.987 140.448 104.757L133.598 101.867C131.638 108.367 128.398 114.087 123.788 119.077L130.188 121.727C130.478 117.037 130.758 112.357 131.048 107.667L126.298 111.287C127.128 111.417 127.948 111.537 128.778 111.667C131.268 112.047 133.368 110.697 133.528 108.047C133.998 100.057 136.848 92.6069 141.928 86.4069L136.038 85.6469C137.128 88.0969 137.158 90.8169 136.318 93.3369C135.698 95.1869 133.768 98.9869 131.378 98.6669L134.028 99.7669C133.618 99.4169 136.918 92.8069 137.378 92.0669C137.998 91.0369 138.708 90.0769 139.498 89.1769L138.218 87.2069C139.108 87.3269 134.688 92.5869 134.718 92.5069C133.208 93.3569 133.758 93.9969 136.348 94.4369C136.378 93.7669 136.458 93.0969 136.598 92.4369C136.808 91.1569 137.098 89.8869 137.488 88.6469C138.398 85.7869 139.558 83.0069 142.678 82.1269L138.448 76.6169C135.128 81.7269 130.708 85.3669 125.198 87.9069L130.708 92.1369C131.898 88.4469 134.988 86.4869 138.798 86.5869C142.608 86.6869 143.778 81.4869 140.688 79.5969C135.278 76.2769 129.178 76.2169 123.588 79.1469C120.598 80.7169 121.558 85.0669 124.488 85.9969C128.678 87.3369 132.878 87.8869 137.278 87.6769C142.078 87.4469 142.118 80.0069 137.278 80.1769C119.468 80.8069 101.668 80.1169 83.9584 78.1169L84.9584 85.4869C86.8284 85.0969 88.1984 85.5569 89.7384 86.5769L88.3884 81.4469L89.2584 80.7169L91.9084 81.8169L91.1784 81.1969L91.7684 85.7369C92.5984 83.1569 94.5084 82.9169 97.4884 85.0369L101.238 88.7869C101.158 85.6969 103.258 86.3269 105.198 86.4169C106.288 87.0869 107.438 87.1569 108.638 86.6369C109.758 87.3269 109.958 88.0269 109.238 88.7469L111.888 89.8469C112.408 90.2669 112.398 88.7769 112.588 88.5369L113.768 86.3869C114.508 86.6969 114.708 87.1869 114.348 87.8369C113.978 88.5069 114.198 88.9569 114.988 89.1869C115.778 89.4869 116.088 90.0569 115.918 90.9069C116.228 91.6569 116.108 92.3169 115.568 92.8969C114.748 93.6869 114.938 94.1069 116.138 94.1569L117.238 96.8069C117.038 94.7769 117.918 88.5069 121.348 89.1669C124.298 89.7369 124.488 95.4269 124.498 97.5969C124.558 105.037 121.918 112.017 117.738 118.067L124.588 118.967C122.448 110.247 123.628 101.547 127.998 93.6969L121.008 91.8069C121.278 96.0569 121.118 100.237 120.178 104.407C119.678 106.627 119.018 108.827 118.178 110.937C117.568 112.467 115.308 115.327 115.148 116.927C114.348 117.697 114.618 118.287 115.958 118.697C115.898 117.577 115.868 116.467 115.898 115.347C115.948 113.167 116.168 111.007 116.588 108.867C117.438 104.477 119.008 100.397 121.168 96.4869L114.178 94.5969C114.568 98.8869 114.428 103.077 113.368 107.267C112.838 109.377 110.608 118.257 107.968 118.747L110.858 119.127C109.788 118.637 111.428 107.677 111.688 106.157C112.508 101.497 113.898 97.0169 115.668 92.6369L108.298 91.6369C107.908 102.447 104.668 112.527 98.8184 121.617L103.948 120.267C101.528 118.587 103.568 110.347 103.988 108.167C104.838 103.797 106.158 99.5269 107.908 95.4369L100.918 93.5469C100.998 103.717 97.8784 113.067 91.8784 121.257L98.7284 122.157C96.6584 112.957 97.9984 103.797 102.548 95.5369L95.5584 93.6469C95.7884 104.987 92.5784 115.567 86.1784 124.917L93.0284 125.817C90.9984 114.267 92.7684 102.517 98.0284 92.0469L91.0384 90.1569C90.4684 102.167 86.6684 113.407 80.0184 123.407L87.0084 125.297C85.7584 113.407 88.3484 102.007 94.7584 91.9069L87.9084 89.0169C86.1484 100.247 82.1184 110.607 75.7584 120.037L80.8884 118.687C78.6484 117.447 82.3384 105.137 82.9784 102.927C84.6384 97.2469 87.1384 91.9769 90.2484 86.9669L83.2584 85.0769C82.3284 97.9769 76.0684 109.427 69.9384 120.537L76.9284 122.427C76.4184 110.477 79.0384 98.9869 84.8084 88.4869L77.9584 85.5969C76.5184 95.1069 73.9884 104.347 70.1784 113.177L77.1684 115.067C77.8584 103.427 79.9684 92.0769 83.3984 80.9369L76.1684 78.9469C75.2584 84.5269 73.1384 89.4669 69.4084 93.7569L75.6784 95.4069C74.4384 90.5969 74.4984 86.2069 75.8084 81.4269C77.1184 76.6469 69.8584 74.7769 68.5784 79.4369L68.5284 79.3769Z" fill="#20BEFF"/>
<path d="M38.4884 102.627C41.8784 97.7368 45.9184 93.4268 50.5384 89.6768C51.7884 88.6668 50.0084 86.9067 48.7684 87.9067C43.9784 91.7967 39.8484 96.2968 36.3284 101.367C35.4084 102.697 37.5784 103.947 38.4884 102.627Z" fill="#20BEFF"/>
<path d="M39.0484 113.677C47.3884 102.357 56.6184 91.7868 66.6984 81.9868C67.8584 80.8668 66.0884 79.0968 64.9284 80.2168C54.6884 90.1668 45.3484 100.917 36.8784 112.407C35.9184 113.707 38.0884 114.947 39.0384 113.667L39.0484 113.677Z" fill="#20BEFF"/>
<path d="M39.7785 123.717C48.2485 113.957 57.0985 104.557 66.3385 95.527C67.4885 94.397 65.7185 92.637 64.5685 93.757C55.3285 102.787 46.4785 112.187 38.0085 121.947C36.9585 123.157 38.7185 124.937 39.7785 123.717Z" fill="#20BEFF"/>
<path d="M47.7684 127.247C54.7584 119.317 61.7585 111.387 68.7485 103.467C69.8085 102.267 68.0484 100.487 66.9784 101.697C59.9884 109.627 52.9885 117.557 45.9985 125.477C44.9385 126.677 46.6984 128.457 47.7684 127.247Z" fill="#20BEFF"/>
<path d="M56.7883 129.197C60.2383 123.997 63.8783 118.947 67.7483 114.047C68.7383 112.797 66.9783 111.017 65.9783 112.277C61.9783 117.337 58.1983 122.557 54.6283 127.927C53.7383 129.267 55.8983 130.527 56.7883 129.187V129.197Z" fill="#20BEFF"/>
<path d="M124.449 46.3756L125.779 44.6256C126.179 44.1056 125.879 43.2055 125.329 42.9155C124.669 42.5655 124.039 42.8056 123.619 43.3656L122.289 45.1156C121.889 45.6356 122.189 46.5356 122.739 46.8256C123.399 47.1756 124.029 46.9356 124.449 46.3756Z" fill="#53FF6E"/>
<path d="M208.949 44.0054C208.149 44.3754 207.379 44.8153 206.659 45.3353C206.109 45.7253 205.849 46.4254 206.209 47.0454C206.529 47.5854 207.369 47.8854 207.919 47.4954C208.639 46.9854 209.399 46.5354 210.209 46.1654C210.819 45.8854 210.979 44.9953 210.659 44.4553C210.289 43.8253 209.569 43.7254 208.949 44.0054Z" fill="#53FF6E"/>
<path d="M229.978 87.3961C230.538 86.0061 231.438 85.2961 232.668 85.2561C234.598 85.2961 235.408 86.7961 235.088 89.7661C234.268 91.1361 231.968 91.7561 230.808 90.3461L233.458 83.9461C231.158 83.7061 229.068 85.3061 227.978 87.2161C226.758 89.3661 225.978 92.3561 227.608 94.4761C229.568 97.0061 233.288 96.4061 235.368 94.3661C237.158 92.6161 237.798 90.1461 237.258 87.7261C236.718 85.3061 233.758 84.3161 231.748 85.4861C230.228 86.3661 228.828 87.5161 227.728 88.8961C226.508 90.4261 226.118 92.7261 227.728 94.1961C229.088 95.4461 231.728 95.8361 233.028 94.1961C233.448 93.6661 233.898 93.1761 234.398 92.7261C234.508 92.6261 234.628 92.5261 234.748 92.4261C234.438 92.6661 234.388 92.7061 234.608 92.5461C234.918 92.3661 235.208 92.1461 235.528 91.9661L230.018 89.7261C229.968 89.1261 229.958 89.0361 229.978 89.4461C229.958 89.8661 229.968 89.7661 230.018 89.1661C229.898 89.5561 229.938 89.4761 230.138 88.9561C229.968 89.2261 229.978 89.2361 230.168 88.9861C230.368 88.7461 230.368 88.7461 230.148 88.9861C229.848 89.2561 229.918 89.2061 230.338 88.8461C229.978 89.0361 230.058 89.0061 230.568 88.7561C230.948 88.6661 231.328 88.6561 231.708 88.7161L233.358 89.6761L234.068 92.1561L234.118 91.9261C234.188 91.7561 234.238 91.5261 234.288 91.3461C234.328 91.2161 234.408 90.6961 234.318 91.2161C234.238 91.6861 234.338 91.1861 234.448 90.9961C234.468 90.9561 234.718 90.6161 234.698 90.5961C234.738 90.6661 234.148 91.2361 234.548 90.8461L234.128 91.1761C233.568 91.3761 233.418 91.4261 233.698 91.3461C234.068 91.2561 232.708 91.3661 233.448 91.4461C234.898 91.5961 236.358 90.3761 236.878 89.1361C237.498 87.6661 237.088 86.2361 236.098 85.0361C234.758 83.4161 232.228 83.2561 230.478 84.1961C228.728 85.1361 227.608 87.2961 228.138 89.3461C228.668 91.3961 230.608 92.7361 232.658 92.7361C234.828 92.7361 236.508 91.3661 237.198 89.3661C237.838 87.5061 236.468 85.1861 234.578 84.7561C232.488 84.2761 230.648 85.3861 229.968 87.3761L229.978 87.3961Z" fill="#20BEFF"/>
<path d="M212.598 122.716C212.398 122.976 211.378 123.546 211.088 123.686C211.078 123.686 210.698 123.386 210.728 123.356C210.608 123.506 210.638 124.356 210.578 124.616C210.408 125.366 210.098 126.116 209.818 126.826C208.508 130.286 213.728 133.286 216.088 130.476C217.358 128.966 218.628 127.446 219.898 125.936L213.628 122.286C212.938 125.476 212.698 128.676 213.108 131.926C213.358 133.936 214.648 135.676 216.858 135.676C218.688 135.676 220.858 133.946 220.608 131.926C220.288 129.346 220.308 126.826 220.858 124.286C221.588 120.936 217.178 117.556 214.588 120.636C213.318 122.146 212.048 123.666 210.778 125.176L217.048 128.826C218.508 124.976 219.028 120.216 215.238 117.516C212.098 115.286 208.408 115.946 206.128 118.936C204.898 120.546 205.878 123.136 207.478 124.066C209.408 125.196 211.368 124.336 212.608 122.716H212.598Z" fill="#20BEFF"/>
</g>
</svg>
