<svg width="156" height="79" viewBox="0 0 156 79" fill="none" xmlns="http://www.w3.org/2000/svg">
<g clip-path="url(#clip0_840_91055)">
<path d="M56.5676 62.4778C62.551 59.552 69.0304 56.2505 75.8945 57.2208C82.7586 58.1912 89.9637 62.15 96.4758 64.781C100.958 66.5948 103.762 59.6295 99.2785 57.8256C91.6506 54.7442 83.3437 50.1252 75.0203 49.591C67.367 49.0937 60.2606 52.3332 53.5426 55.6073C49.2134 57.7167 52.2074 64.5936 56.5676 62.4778Z" fill="#3A3A3A"/>
<path d="M58.0728 58.3263C57.574 46.5198 46.6196 38.0508 36.5391 33.902C31.1016 31.6616 25.2203 30.3525 19.399 29.6106C15.6152 29.136 8.6329 27.2555 6.86152 32.0106C5.09014 36.7656 12.1154 39.3772 13.8086 34.8554L14.0143 34.3113L11.0668 36.6068C14.5088 35.7361 19.5628 37.1218 22.9857 37.7585C26.9064 38.4865 30.7262 39.5721 34.3925 41.1441C41.94 44.3787 50.2756 50.4711 50.6581 59.3854C50.8651 64.204 58.2869 63.1236 58.0841 58.3348L58.0728 58.3263Z" fill="#3A3A3A"/>
<path d="M90.0731 26.4113C102.28 8.33966 129.407 9.87185 148.169 13.8891C152.896 14.9046 154.141 7.50872 149.424 6.49489C128.166 1.94238 98.0537 1.27247 84.3272 21.6017C81.6453 25.5687 87.3747 30.4161 90.0813 26.4229L90.0731 26.4113Z" fill="#3A3A3A"/>
<path d="M90.0458 23.6312C89.6707 13.5044 80.9403 7.35366 71.8791 5.07841C60.2009 2.14668 47.5372 2.01624 35.5713 2.67202C30.7552 2.93822 31.7467 10.3724 36.543 10.1088C45.8156 9.60323 55.1052 9.92239 64.2977 11.2728C72.1333 12.4274 82.2491 14.9783 82.5991 24.6041C82.7748 29.422 90.2077 28.4206 90.0359 23.6325L90.0458 23.6312Z" fill="#3A3A3A"/>
</g>
<defs>
<clipPath id="clip0_840_91055">
<rect width="156" height="79" fill="white"/>
</clipPath>
</defs>
</svg>
