<svg width="156" height="79" viewBox="0 0 156 79" fill="none" xmlns="http://www.w3.org/2000/svg">
<g clip-path="url(#clip0_840_91066)">
<path d="M56.2957 62.5723C61.9057 58.9823 67.9657 54.9623 74.8957 55.1423C81.8257 55.3223 89.4358 58.4323 96.2058 60.3023C100.866 61.5923 102.856 54.3523 98.1958 53.0723C90.2658 50.8823 81.4857 47.2423 73.1557 47.6623C65.4957 48.0423 58.8058 52.0723 52.5058 56.0923C48.4458 58.6823 52.2057 65.1723 56.2957 62.5723Z" fill="#3A3A3A"/>
<path d="M58.5457 59.7728C59.7057 48.0128 50.0457 38.0928 40.6457 32.5728C35.5757 29.5928 29.9357 27.4728 24.2757 25.9228C20.5957 24.9228 13.9457 22.0828 11.5257 26.5428C9.1057 31.0028 15.6958 34.5728 18.0058 30.3328L18.2857 29.8228L15.0457 31.6828C18.5757 31.3028 23.3857 33.3828 26.6857 34.4928C30.4657 35.7628 34.0958 37.3728 37.5058 39.4428C44.5258 43.7028 51.9257 50.9028 51.0557 59.7828C50.5857 64.5828 58.0857 64.5528 58.5557 59.7828L58.5457 59.7728Z" fill="#3A3A3A"/>
<path d="M86.7957 28.7727C95.8057 8.91265 122.806 5.88266 141.976 6.70266C146.806 6.91266 146.796 -0.587338 141.976 -0.797338C120.256 -1.72734 90.4558 2.65265 80.3258 24.9927C78.3458 29.3527 84.8057 33.1727 86.8057 28.7827L86.7957 28.7727Z" fill="#3A3A3A"/>
<path d="M88.4557 25.8525C89.3957 15.7625 81.5357 8.53255 72.8457 5.10255C61.6457 0.682549 49.1057 -1.08745 37.1557 -1.98745C32.3457 -2.34745 32.3657 5.15255 37.1557 5.51255C46.4157 6.21255 55.5857 7.73255 64.5257 10.2626C72.1457 12.4226 81.8457 16.2625 80.9457 25.8525C80.4957 30.6525 87.9957 30.6225 88.4457 25.8525H88.4557Z" fill="#3A3A3A"/>
</g>
<defs>
<clipPath id="clip0_840_91066">
<rect width="156" height="79" fill="white"/>
</clipPath>
</defs>
</svg>
