<svg width="156" height="79" viewBox="0 0 156 79" fill="none" xmlns="http://www.w3.org/2000/svg">
<g clip-path="url(#clip0_840_91038)">
<path d="M57.5676 61.4739C63.551 58.5481 70.0304 55.2466 76.8945 56.2169C83.7586 57.1873 90.9637 61.1461 97.4758 63.7771C101.958 65.5909 104.762 58.6256 100.279 56.8217C92.6506 53.7403 84.3437 49.1213 76.0203 48.5871C68.367 48.0897 61.2606 51.3293 54.5426 54.6034C50.2134 56.7128 53.2074 63.5897 57.5676 61.4739Z" fill="#3A3A3A"/>
<path d="M57.675 56.6182C53.2355 45.6668 40.0713 41.3741 29.1827 40.8563C23.3085 40.5746 17.3294 41.3192 11.5976 42.5779C7.87452 43.4031 0.666501 43.9798 0.597051 49.0536C0.527601 54.1274 8.02192 54.2248 8.09624 49.397L8.107 48.8153L6.10295 51.9682C9.05174 49.9909 14.2774 49.5966 17.7151 49.0454C21.6523 48.4128 25.6147 48.1508 29.5961 48.3985C37.7918 48.907 47.6905 51.8421 51.0481 60.1088C52.8632 64.5771 59.4897 61.0643 57.6885 56.6225L57.675 56.6182Z" fill="#3A3A3A"/>
<path d="M90.0443 24.8916C106.378 10.4409 132.262 18.6986 149.426 27.274C153.75 29.4377 156.803 22.5872 152.489 20.4275C133.041 10.7107 104.05 2.54216 85.6814 18.7995C82.0939 21.9711 86.4312 28.0957 90.0493 24.9048L90.0443 24.8916Z" fill="#3A3A3A"/>
<path d="M91.0458 22.6273C90.6707 12.5005 81.9403 6.34975 72.8791 4.0745C61.2009 1.14278 48.5372 1.01234 36.5713 1.66812C31.7552 1.93431 32.7467 9.36851 37.543 9.10491C46.8156 8.59932 56.1052 8.91848 65.2977 10.2689C73.1333 11.4235 83.2491 13.9744 83.5991 23.6002C83.7748 28.4181 91.2077 27.4167 91.0359 22.6286L91.0458 22.6273Z" fill="#3A3A3A"/>
</g>
<defs>
<clipPath id="clip0_840_91038">
<rect width="156" height="79" fill="white"/>
</clipPath>
</defs>
</svg>
