<svg width="364" height="371" viewBox="0 0 364 371" fill="none" xmlns="http://www.w3.org/2000/svg">
<mask id="mask0_652_610" style="mask-type:alpha" maskUnits="userSpaceOnUse" x="0" y="0" width="364" height="371">
<path fill-rule="evenodd" clip-rule="evenodd" d="M364 368.374L297.68 368.763C227.22 369.173 156.77 369.583 86.3101 370.003L0 370.505V6.18472C9.05371 5.96206 18.1074 5.73941 27.1614 5.5148L31.291 5.41323C118.901 3.23941 206.524 1.06558 294.16 0.993312C317.44 0.977687 340.72 1.12417 364 1.47964V368.374Z" fill="#D9D9D9"/>
</mask>
<g mask="url(#mask0_652_610)">
<path d="M1.10009 1.0636C0.0800869 27.2936 0.200082 53.5536 1.47008 79.7736C1.62008 82.9736 6.63008 82.9936 6.47008 79.7736C5.20008 53.5536 5.08009 27.2936 6.10009 1.0636C6.23009 -2.1564 1.23009 -2.1464 1.10009 1.0636Z" fill="#20BEFF"/>
<path d="M29.82 1.55383C30.72 22.9238 31.36 44.3139 31.71 65.7039C31.76 68.9139 36.76 68.9239 36.71 65.7039C36.35 44.3139 35.72 22.9338 34.82 1.55383C34.68 -1.65617 29.68 -1.66617 29.82 1.55383Z" fill="#20BEFF"/>
<path d="M36.1801 67.6623C96.1101 68.0623 156.04 67.2623 215.97 67.6623C219.19 67.6823 219.19 62.6823 215.97 62.6623C156.04 62.2623 96.1101 63.0623 36.1801 62.6623C32.9601 62.6423 32.9601 67.6423 36.1801 67.6623Z" fill="#20BEFF"/>
<path d="M215.14 -10.5967L214.85 65.2133C214.84 68.4333 219.84 68.4333 219.85 65.2133L220.14 -10.5967C220.15 -13.8167 215.15 -13.8167 215.14 -10.5967Z" fill="#20BEFF"/>
<path d="M243.21 -5.22758C242.85 9.19242 242.48 23.6124 242.12 38.0424C241.77 52.0024 241.22 65.9824 242.89 79.8824C243.27 83.0424 248.27 83.0724 247.89 79.8824C246.23 65.9824 246.77 52.0024 247.12 38.0424C247.47 24.0824 247.85 9.20242 248.21 -5.22758C248.29 -8.44758 243.29 -8.44758 243.21 -5.22758Z" fill="#20BEFF"/>
<path d="M138.72 83.2431C173.87 83.0331 209.02 82.8231 244.17 82.6231C247.39 82.6031 247.39 77.6031 244.17 77.6231C209.02 77.8331 173.87 78.0431 138.72 78.2431C135.5 78.2631 135.5 83.2631 138.72 83.2431Z" fill="#20BEFF"/>
<path d="M4.13 85.8224C38.97 84.5324 73.84 84.3024 108.69 83.2124C111.9 83.1124 111.91 78.1124 108.69 78.2124C73.84 79.3024 38.97 79.5324 4.13 80.8224C0.920002 80.9424 0.910002 85.9424 4.13 85.8224Z" fill="#20BEFF"/>
<path d="M107.95 80.714C110.1 158.174 106.17 235.854 104.12 313.294C103.54 335.084 102.96 356.874 102.38 378.664C102.29 381.884 107.29 381.884 107.38 378.664C109.44 301.294 112.23 223.894 113.28 146.504C113.58 124.574 113.56 102.644 112.95 80.714C112.86 77.504 107.86 77.494 107.95 80.714Z" fill="#20BEFF"/>
<path d="M134.51 80.7124C137.72 125.222 137.25 169.912 133.09 214.342C132.79 217.542 137.79 217.522 138.09 214.342C142.25 169.912 142.72 125.222 139.51 80.7124C139.28 77.5224 134.28 77.4924 134.51 80.7124Z" fill="#20BEFF"/>
<path d="M131.07 231.913C132.5 272.083 132 312.283 129.57 352.403C129.38 355.613 134.38 355.603 134.57 352.403C137 312.283 137.5 272.083 136.07 231.913C135.96 228.703 130.96 228.693 131.07 231.913Z" fill="#20BEFF"/>
<path d="M136.17 216.583C152.89 218.083 169.99 216.332 186.74 215.882C203.71 215.432 220.68 215.142 237.65 215.032C271.59 214.812 305.54 215.293 339.46 216.433L336.96 213.933C337.22 219.263 337.48 224.603 337.74 229.933C337.9 233.133 342.9 233.153 342.74 229.933C342.48 224.603 342.22 219.263 341.96 213.933C341.89 212.553 340.87 211.483 339.46 211.433C305.54 210.293 271.59 209.812 237.65 210.032C221.01 210.142 204.37 210.412 187.74 210.852C170.66 211.302 153.22 213.103 136.17 211.583C132.97 211.293 132.99 216.303 136.17 216.583Z" fill="#20BEFF"/>
<path d="M134.75 234.673C158.1 236.543 181.24 231.143 204.6 232.183C207.82 232.323 207.81 227.323 204.6 227.183C181.25 226.143 158.11 231.543 134.75 229.673C131.54 229.413 131.56 234.413 134.75 234.673Z" fill="#20BEFF"/>
<path d="M259.67 343.022C258.9 346.062 258.87 349.112 259.54 352.182C260.21 355.252 265.04 353.992 264.36 350.852C263.89 348.672 263.95 346.512 264.49 344.352C265.28 341.232 260.46 339.902 259.67 343.022Z" fill="#20BEFF"/>
<path d="M285.79 339.792L286.7 351.942C286.94 355.132 291.94 355.162 291.7 351.942L290.79 339.792C290.55 336.602 285.55 336.572 285.79 339.792Z" fill="#20BEFF"/>
<path d="M133.83 356.454C176.12 356.844 218.42 356.264 260.69 354.694C263.9 354.574 263.91 349.574 260.69 349.694C218.42 351.264 176.13 351.844 133.83 351.454C130.61 351.424 130.61 356.424 133.83 356.454Z" fill="#20BEFF"/>
<path d="M288.88 354.893C306.59 355.083 324.29 354.793 341.99 354.023L339.58 352.183C340.37 357.903 341.15 363.623 341.9 369.353C342.31 372.493 347.32 372.543 346.9 369.353C346.09 363.183 345.25 357.013 344.4 350.853C344.26 349.823 342.98 348.973 341.99 349.013C324.3 349.783 306.59 350.073 288.88 349.883C285.66 349.853 285.66 354.853 288.88 354.883V354.893Z" fill="#20BEFF"/>
<path d="M132.89 356.863H135.81C137.12 356.863 138.37 355.713 138.31 354.363C138.25 353.013 137.21 351.863 135.81 351.863H132.89C131.58 351.863 130.33 353.013 130.39 354.363C130.45 355.713 131.49 356.863 132.89 356.863Z" fill="#20BEFF"/>
<path d="M201.6 237.135C208.03 237.135 208.05 227.135 201.6 227.135C195.15 227.135 195.15 237.135 201.6 237.135Z" fill="#20BEFF"/>
<path d="M196.35 234.154C196.13 264.654 195.91 295.164 195.69 325.664C195.64 332.104 205.64 332.104 205.69 325.664C205.91 295.164 206.13 264.654 206.35 234.154C206.4 227.714 196.4 227.714 196.35 234.154Z" fill="#20BEFF"/>
<path d="M354.47 236.523C354.25 267.023 354.03 297.533 353.81 328.033C353.76 334.473 363.76 334.473 363.81 328.033C364.03 297.533 364.25 267.023 364.47 236.523C364.52 230.083 354.52 230.083 354.47 236.523Z" fill="#20BEFF"/>
<path d="M205.11 238.333C230.79 236.573 256.53 237.663 282.22 238.483C307.86 239.303 333.5 240.123 359.14 240.953C365.58 241.163 365.57 231.163 359.14 230.953C333.5 230.133 307.86 229.313 282.22 228.483C256.58 227.653 230.79 226.573 205.11 228.333C198.72 228.773 198.68 238.773 205.11 238.333Z" fill="#20BEFF"/>
<path d="M203.06 330.833C228.74 329.073 254.48 330.163 280.17 330.983C305.81 331.803 331.45 332.623 357.09 333.453C363.53 333.663 363.52 323.663 357.09 323.453C331.45 322.633 305.81 321.813 280.17 320.983C254.53 320.153 228.74 319.073 203.06 320.833C196.67 321.273 196.63 331.273 203.06 330.833Z" fill="#20BEFF"/>
<path d="M178.98 244.774C186.44 241.374 193.51 237.314 200.2 232.584C202.81 230.744 200.31 226.404 197.68 228.264C190.98 232.994 183.92 237.054 176.46 240.454C173.54 241.784 176.07 246.094 178.98 244.774Z" fill="#20BEFF"/>
<path d="M180.74 341.804C188.2 338.404 195.27 334.344 201.96 329.614C204.57 327.774 202.07 323.434 199.44 325.294C192.74 330.024 185.68 334.084 178.22 337.484C175.3 338.814 177.83 343.124 180.74 341.804Z" fill="#20BEFF"/>
<path d="M339.51 345.845C346.97 342.445 354.04 338.385 360.73 333.655C363.34 331.815 360.84 327.475 358.21 329.335C351.51 334.065 344.45 338.125 336.99 341.525C334.07 342.855 336.6 347.165 339.51 345.845Z" fill="#20BEFF"/>
<path d="M175.64 243.644C177.69 276.184 176.95 308.794 176.07 341.364C175.98 344.584 180.98 344.584 181.07 341.364C181.95 308.794 182.68 276.184 180.64 243.644C180.44 240.444 175.44 240.424 175.64 243.644Z" fill="#20BEFF"/>
<path d="M179.41 344.584C232.78 341.274 286.24 342.404 339.59 345.574C342.8 345.764 342.79 340.764 339.59 340.574C286.24 337.414 232.78 336.274 179.41 339.584C176.21 339.784 176.19 344.784 179.41 344.584Z" fill="#20BEFF"/>
<path d="M247.05 231.984C246.44 248.054 245.82 264.135 245.25 280.215C244.72 295.205 242.93 310.865 246.75 325.565C248.04 330.515 254.91 330.115 256.39 325.565C261.1 311.065 257.3 295.924 256.83 281.104C256.33 265.354 256.67 249.545 256.65 233.785H246.65C250.02 262.845 244.45 292.114 249.14 321.104C250.05 326.734 259.02 325.304 258.96 319.774C258.8 305.844 258.64 291.904 258.49 277.974C258.34 264.424 256.87 250.115 258.99 236.685L249.17 235.354C248.63 258.634 248.1 281.905 247.56 305.185C247.41 311.625 257.41 311.625 257.56 305.185C258.1 281.905 258.63 258.634 259.17 235.354C259.3 229.864 250.25 228.354 249.35 234.024C247.17 247.804 248.31 262.084 248.47 275.984C248.64 290.584 248.8 305.184 248.97 319.774L258.79 318.445C254.25 290.415 259.92 261.925 256.65 233.785C255.93 227.565 246.64 227.175 246.65 233.785C246.66 248.915 246.41 264.075 246.77 279.205C247.11 293.565 251.3 308.904 246.74 322.904H256.38C252.66 308.594 254.78 292.854 255.31 278.244C255.86 262.824 256.45 247.404 257.04 231.984C257.29 225.544 247.29 225.554 247.04 231.984H247.05Z" fill="#20BEFF"/>
<path d="M307.17 233.984C306.56 250.054 305.94 266.135 305.37 282.215C304.84 297.205 303.05 312.865 306.87 327.565C308.16 332.515 315.03 332.115 316.51 327.565C321.22 313.065 317.42 297.924 316.95 283.104C316.45 267.354 316.79 251.545 316.77 235.785H306.77C310.14 264.845 304.57 294.114 309.26 323.104C310.17 328.734 319.14 327.304 319.08 321.774C318.92 307.844 318.76 293.904 318.61 279.974C318.46 266.424 316.99 252.115 319.11 238.685L309.29 237.354C308.75 260.634 308.22 283.905 307.68 307.185C307.53 313.625 317.53 313.625 317.68 307.185C318.22 283.905 318.75 260.634 319.29 237.354C319.42 231.864 310.37 230.354 309.47 236.024C307.29 249.804 308.43 264.084 308.59 277.984C308.76 292.584 308.92 307.184 309.09 321.774L318.91 320.445C314.37 292.415 320.04 263.925 316.77 235.785C316.05 229.565 306.76 229.175 306.77 235.785C306.78 250.915 306.53 266.075 306.89 281.205C307.23 295.565 311.42 310.904 306.86 324.904H316.5C312.78 310.594 314.9 294.854 315.43 280.244C315.98 264.824 316.57 249.404 317.16 233.984C317.41 227.544 307.41 227.554 307.16 233.984H307.17Z" fill="#20BEFF"/>
<path d="M313.27 236.155C312.66 252.225 312.04 268.305 311.47 284.385C310.95 299.015 309.11 314.394 312.84 328.734C313.16 329.974 314.88 329.874 315.25 328.734C319.84 314.614 316.01 299.715 315.55 285.265C315.05 269.515 315.39 253.705 315.37 237.945H312.87C316.2 266.655 310.6 295.635 315.23 324.265C315.46 325.675 317.7 325.315 317.69 323.935C317.53 310.005 317.37 296.065 317.22 282.135C317.06 268.215 315.67 253.644 317.86 239.844L315.4 239.515C314.86 262.795 314.33 286.064 313.79 309.344C313.75 310.954 316.25 310.954 316.29 309.344C316.83 286.064 317.36 262.795 317.9 239.515C317.93 238.145 315.67 237.765 315.44 239.185C313.31 252.605 314.54 266.615 314.69 280.145C314.86 294.745 315.02 309.345 315.19 323.935L317.65 323.604C313.05 295.214 318.68 266.435 315.38 237.955C315.2 236.395 312.88 236.305 312.88 237.955C312.89 253.085 312.64 268.244 313 283.374C313.36 298.504 317.52 313.675 312.84 328.075H315.25C311.44 313.405 313.51 297.395 314.04 282.425C314.59 267.005 315.18 251.585 315.77 236.165C315.83 234.555 313.33 234.555 313.27 236.165V236.155Z" fill="#20BEFF"/>
<path d="M198.95 239.874L199.78 239.454L198.52 237.294C192.45 241.314 186.38 245.334 180.31 249.354C178.97 250.234 180.23 252.404 181.57 251.514C187.64 247.494 193.71 243.474 199.78 239.454C201.12 238.564 199.96 236.564 198.52 237.294L197.69 237.714C196.26 238.444 197.52 240.604 198.95 239.874Z" fill="#20BEFF"/>
<path d="M198.74 245.304C195.08 248.364 191.42 251.434 187.76 254.494C184.73 257.034 181.09 259.374 179.04 262.824C178.22 264.214 180.38 265.464 181.2 264.084C183.32 260.514 187.55 257.914 190.69 255.294L200.52 247.064C201.76 246.034 199.98 244.274 198.75 245.294L198.74 245.304Z" fill="#20BEFF"/>
<path d="M197.66 256.875C190.75 261.635 184.54 267.205 179.09 273.595C178.05 274.815 179.81 276.585 180.86 275.365C186.17 269.145 192.19 263.685 198.92 259.035C200.24 258.125 198.99 255.955 197.66 256.875Z" fill="#20BEFF"/>
<path d="M199.03 266.655C193.02 272.085 186.89 277.365 180.61 282.485C179.36 283.505 181.14 285.265 182.38 284.255C188.65 279.135 194.79 273.855 200.8 268.425C202 267.345 200.22 265.575 199.03 266.655Z" fill="#20BEFF"/>
<path d="M199.7 276.785C191.59 282.205 184.12 288.395 177.3 295.375C176.18 296.525 177.94 298.295 179.07 297.145C185.74 290.315 193.03 284.245 200.96 278.945C202.29 278.055 201.04 275.885 199.7 276.785Z" fill="#20BEFF"/>
<path d="M199.54 289.463L199.68 289.403C200.18 289.193 200.39 288.473 200.25 287.993L200.2 287.803C200.03 287.203 199.29 286.683 198.66 286.933C197.14 287.533 196.04 288.973 194.84 290.043C193.07 291.623 191.25 293.143 189.39 294.613C185.95 297.323 181.97 299.533 179.31 303.073C178.34 304.363 180.51 305.603 181.47 304.333C183.83 301.193 187.58 299.183 190.65 296.773C192.01 295.713 193.35 294.623 194.66 293.503C195.97 292.383 197.78 289.943 199.33 289.333L197.79 288.463L197.84 288.653L198.41 287.243L198.27 287.303C196.79 287.933 198.07 290.083 199.53 289.463H199.54Z" fill="#20BEFF"/>
<path d="M197.04 297.653L186.65 306.343L181.73 310.463C180.55 311.453 178.74 312.443 178.07 313.843C177.63 314.753 178.18 315.613 179.15 315.723L179.32 315.743C179.8 315.803 180.46 315.323 180.53 314.823L180.55 314.693C180.77 313.123 178.36 312.443 178.14 314.033L178.12 314.163L179.33 313.243L179.16 313.223L180.24 315.103C180.91 313.703 183.42 312.303 184.6 311.313L189.52 307.193L198.82 299.413C200.06 298.383 198.28 296.623 197.05 297.643L197.04 297.653Z" fill="#20BEFF"/>
<path d="M197.54 306.565C197.54 306.565 192.7 310.655 192.26 310.995C190.24 312.575 188.12 314.005 186.07 315.545C182.64 318.115 179.56 320.895 177.4 324.635C176.59 326.035 178.75 327.295 179.56 325.895C182.76 320.345 188.27 317.185 193.22 313.405C195.08 311.985 201.18 308.195 199.71 305.305C198.98 303.875 196.82 305.135 197.55 306.565H197.54Z" fill="#20BEFF"/>
<path d="M198.75 314.364C195.78 316.144 193.32 318.794 190.61 320.954C187.31 323.584 183.86 325.994 180.3 328.264C178.95 329.124 180.2 331.294 181.56 330.424C184.85 328.334 188.03 326.114 191.11 323.724C194.19 321.334 196.78 318.464 200.01 316.524C201.39 315.694 200.13 313.534 198.75 314.364Z" fill="#20BEFF"/>
<path d="M208.58 329.015L208.67 328.915C209.03 328.525 209.17 327.875 208.87 327.405L208.78 327.265C208.4 326.685 207.69 326.485 207.07 326.815C205.01 327.915 203.27 330.775 201.72 332.505C199.7 334.755 197.69 337.005 195.67 339.255C194.6 340.445 196.36 342.225 197.44 341.025C199.24 339.015 201.05 337.005 202.85 334.985C203.7 334.035 204.55 333.095 205.4 332.145C206.25 331.195 207.25 329.555 208.33 328.975L206.62 328.525L206.71 328.665L206.91 327.155L206.82 327.255C205.72 328.425 207.49 330.205 208.59 329.025L208.58 329.015Z" fill="#20BEFF"/>
<path d="M216.27 327.255L209.69 334.235C208.69 335.295 207.69 336.345 206.7 337.405C206.15 337.995 205.57 338.465 205.61 339.325C205.65 340.185 206.37 340.675 207.19 340.535L207.35 340.505C208.04 340.385 208.35 339.575 208.22 338.965L208.2 338.855C207.87 337.285 205.46 337.945 205.79 339.515L205.81 339.625L206.68 338.085L206.52 338.115L208.1 339.325C208.1 339.215 210.02 337.525 210.25 337.275L212.94 334.425L218.02 329.035C219.12 327.865 217.36 326.095 216.25 327.265L216.27 327.255Z" fill="#20BEFF"/>
<path d="M227.92 327.074C225.64 329.214 223.36 331.354 221.09 333.504C219.23 335.274 216.56 337.124 215.26 339.354C215.05 339.714 215.01 340.254 215.26 340.614L215.42 340.834C215.77 341.334 216.24 341.504 216.83 341.404L217.06 341.364C218.64 341.114 217.97 338.704 216.4 338.954L216.17 338.994L217.58 339.564L217.42 339.344V340.604C218.07 339.484 219.42 338.534 220.35 337.644C221.42 336.624 222.49 335.594 223.57 334.584C225.6 332.654 227.64 330.744 229.68 328.834C230.86 327.734 229.09 325.964 227.91 327.064L227.92 327.074Z" fill="#20BEFF"/>
<path d="M238.89 327.914C234.93 331.284 231.3 334.974 228.01 338.984C227 340.214 228.75 341.994 229.78 340.754C233.08 336.744 236.71 333.054 240.66 329.684C241.89 328.644 240.11 326.874 238.89 327.914Z" fill="#20BEFF"/>
<path d="M248.71 328.134C244.99 332.124 241.5 336.294 238.22 340.644C237.44 341.674 238.93 342.953 239.93 342.353L240.65 341.914C242.03 341.084 240.77 338.924 239.39 339.754L238.67 340.194L240.38 341.904C243.54 337.724 246.91 333.724 250.48 329.894C251.58 328.714 249.81 326.944 248.71 328.124V328.134Z" fill="#20BEFF"/>
<path d="M259.3 328.035C255.29 332.245 251.27 336.455 247.26 340.665C246.15 341.825 247.92 343.605 249.03 342.435C253.04 338.225 257.06 334.015 261.07 329.805C262.18 328.645 260.41 326.865 259.3 328.035Z" fill="#20BEFF"/>
<path d="M270.53 326.924C266.28 331.264 262.04 335.614 257.79 339.954C256.66 341.104 258.43 342.874 259.56 341.724C263.81 337.384 268.05 333.034 272.3 328.694C273.43 327.544 271.66 325.774 270.53 326.924Z" fill="#20BEFF"/>
<path d="M276.97 328.534C272.96 331.624 269.51 335.214 266.62 339.354C265.7 340.674 267.86 341.924 268.78 340.614C271.41 336.844 274.59 333.494 278.23 330.684C279.49 329.714 278.24 327.544 276.97 328.524V328.534Z" fill="#20BEFF"/>
<path d="M287.95 328.165C283.81 331.695 279.95 335.515 276.38 339.615C275.33 340.825 277.09 342.595 278.15 341.385C281.72 337.285 285.58 333.465 289.72 329.935C290.95 328.885 289.17 327.125 287.95 328.165Z" fill="#20BEFF"/>
<path d="M295.14 330.164C291.89 333.024 288.63 335.884 285.38 338.744C284.17 339.804 285.94 341.574 287.15 340.514L296.91 331.934C298.12 330.874 296.35 329.104 295.14 330.164Z" fill="#20BEFF"/>
<path d="M303.59 329.004C300.33 332.324 297.08 335.654 293.82 338.974C292.69 340.124 294.46 341.894 295.59 340.744C298.85 337.424 302.1 334.094 305.36 330.774C306.49 329.624 304.72 327.854 303.59 329.004Z" fill="#20BEFF"/>
<path d="M312.37 330.373C309.62 333.203 306.88 336.023 304.13 338.853C303.01 340.003 304.77 341.773 305.9 340.623C308.65 337.793 311.39 334.973 314.14 332.143C315.26 330.993 313.5 329.223 312.37 330.373Z" fill="#20BEFF"/>
<path d="M322.9 329.393C319.42 332.863 315.94 336.323 312.46 339.793C311.32 340.933 313.09 342.703 314.23 341.563C317.71 338.093 321.19 334.633 324.67 331.163C325.81 330.023 324.04 328.253 322.9 329.393Z" fill="#20BEFF"/>
<path d="M331.88 328.785C328.06 332.455 324.24 336.125 320.42 339.795C319.26 340.915 321.03 342.675 322.19 341.565C326.01 337.895 329.83 334.225 333.65 330.555C334.81 329.435 333.04 327.675 331.88 328.785Z" fill="#20BEFF"/>
<path d="M339.15 331.473C336.66 333.273 334.21 335.124 331.82 337.054C330.05 338.474 326.8 340.254 326.44 342.684C326.2 344.254 328.61 344.933 328.85 343.343C329.12 341.513 332.92 339.344 334.29 338.254C336.3 336.654 338.34 335.123 340.42 333.623C341.71 332.693 340.47 330.524 339.16 331.464L339.15 331.473Z" fill="#20BEFF"/>
<path d="M347.31 330.704C343.18 334.634 339.05 338.574 334.91 342.504C333.74 343.614 335.51 345.384 336.68 344.274C340.81 340.344 344.94 336.404 349.08 332.474C350.25 331.364 348.48 329.594 347.31 330.704Z" fill="#20BEFF"/>
<path d="M9.53991 3.63336C7.40991 6.12336 5.2699 8.61332 3.1399 11.0933C2.0999 12.3133 3.85991 14.0833 4.90991 12.8633L11.3099 5.40338C12.3499 4.18338 10.5899 2.41336 9.53991 3.63336Z" fill="#20BEFF"/>
<path d="M15.2099 3.64515C10.0899 9.85515 5.37993 16.3652 1.09993 23.1852C0.239931 24.5552 2.39993 25.8052 3.25993 24.4452C7.42993 17.8052 11.9899 11.4552 16.9799 5.40516C17.9999 4.17516 16.2399 2.39514 15.2099 3.63514V3.64515Z" fill="#20BEFF"/>
<path d="M23.08 2.25496C15.58 12.345 8.29997 22.595 1.24997 33.005C0.339972 34.345 2.50998 35.595 3.40998 34.265C10.47 23.855 17.74 13.605 25.24 3.51497C26.2 2.22497 24.03 0.974959 23.08 2.25496Z" fill="#20BEFF"/>
<path d="M30.88 2.08456C26.54 10.5046 21.43 18.4946 15.43 25.8346C10.3 32.1146 4.58003 37.8345 0.880035 45.1445C0.160035 46.5745 2.31004 47.8445 3.04004 46.4045C7.17004 38.2445 13.88 31.9545 19.43 24.7945C24.64 18.0845 29.14 10.8944 33.03 3.34445C33.77 1.91445 31.61 0.654558 30.87 2.08456H30.88Z" fill="#20BEFF"/>
<path d="M30.38 16.6041C21.39 29.7241 10.89 41.7041 0.660007 53.8641C-0.369993 55.0841 1.39001 56.8641 2.43001 55.6341C12.79 43.3141 23.42 31.1641 32.54 17.8741C33.45 16.5441 31.29 15.2941 30.38 16.6141V16.6041Z" fill="#20BEFF"/>
<path d="M32.25 28.874C21.85 40.804 11.46 52.7341 1.06001 64.6641C0.010011 65.8741 1.77002 67.6441 2.83002 66.4341C13.23 54.5041 23.62 42.5741 34.02 30.6441C35.07 29.4341 33.31 27.664 32.25 28.874Z" fill="#20BEFF"/>
<path d="M32.5701 40.0635C21.2301 49.8435 11.1201 60.8134 2.24009 72.8734C1.29009 74.1734 3.45009 75.4234 4.40009 74.1334C13.1501 62.2534 23.1701 51.4635 34.3401 41.8335C35.5601 40.7835 33.7901 39.0235 32.5701 40.0635Z" fill="#20BEFF"/>
<path d="M32.6001 51.0234C23.8101 60.6534 14.8501 70.1234 5.72006 79.4334C4.59006 80.5834 6.36007 82.3535 7.49007 81.2035C16.6101 71.8935 25.5701 62.4234 34.3701 52.7934C35.4501 51.6034 33.6901 49.8334 32.6001 51.0234Z" fill="#20BEFF"/>
<path d="M31.7199 59.9448C26.0099 67.7348 20.2999 75.5248 14.5899 83.3148C13.6399 84.6148 15.8099 85.8648 16.7499 84.5748C22.4599 76.7848 28.1699 68.9948 33.8799 61.2048C34.8299 59.9048 32.6599 58.6548 31.7199 59.9448Z" fill="#20BEFF"/>
<path d="M34.63 65.1351C30.96 69.5951 27.46 74.1751 24.12 78.8851C23.19 80.2051 25.36 81.4552 26.28 80.1452C29.49 75.6052 32.87 71.1952 36.4 66.9052C37.42 65.6752 35.66 63.8951 34.63 65.1351Z" fill="#20BEFF"/>
<path d="M46.1199 65.3343C41.4099 69.6743 37.2199 74.4743 33.5399 79.7043C32.6099 81.0243 34.7799 82.2743 35.6999 80.9643C39.2699 75.9043 43.3399 71.2842 47.8899 67.0942C49.0799 66.0042 47.2999 64.2343 46.1199 65.3243V65.3343Z" fill="#20BEFF"/>
<path d="M53.4199 66.7637C50.2099 70.7237 47.3899 74.9337 44.9799 79.4237C44.2199 80.8437 46.3799 82.1037 47.1399 80.6837C49.4499 76.3837 52.1199 72.3237 55.1899 68.5337C56.1899 67.2937 54.4399 65.5137 53.4199 66.7637Z" fill="#20BEFF"/>
<path d="M59.5799 68.2546L53.0599 78.5847C52.1999 79.9447 54.3599 81.2046 55.2199 79.8446C57.3899 76.4046 59.5599 72.9547 61.7399 69.5147C62.5999 68.1547 60.4399 66.8946 59.5799 68.2546Z" fill="#20BEFF"/>
<path d="M73.1099 66.1146C70.4099 64.6546 68.7099 68.3847 67.4199 70.1947C64.4699 74.3147 61.5799 78.4746 58.7099 82.6446C57.7999 83.9746 59.9599 85.2246 60.8699 83.9046C61.6999 82.6846 71.4899 68.0746 71.8499 68.2746C73.2699 69.0446 74.5299 66.8846 73.1099 66.1146Z" fill="#20BEFF"/>
<path d="M77.9199 66.8738C75.3999 70.8438 72.8799 74.8238 70.3599 78.7938C69.8799 79.5538 70.4999 80.7538 71.4399 80.6738L72.1699 80.6138C73.7599 80.4838 73.7799 77.9838 72.1699 78.1138L71.4399 78.1738L72.5199 80.0538C75.0399 76.0838 77.5599 72.1038 80.0799 68.1338C80.9399 66.7738 78.7799 65.5138 77.9199 66.8738Z" fill="#20BEFF"/>
<path d="M87.4201 65.794C84.5101 70.564 81.3401 75.164 77.8801 79.564C76.9001 80.814 78.6501 82.594 79.6501 81.334C83.2401 76.764 86.5501 72.024 89.5801 67.064C90.4201 65.684 88.2601 64.434 87.4201 65.804V65.794Z" fill="#20BEFF"/>
<path d="M95.1799 66.9444C92.4399 70.6144 89.8699 74.3944 87.4499 78.2744C86.5999 79.6444 88.7599 80.9044 89.6099 79.5344C92.0199 75.6444 94.5999 71.8644 97.3399 68.2044C98.2999 66.9144 96.1299 65.6644 95.1799 66.9444Z" fill="#20BEFF"/>
<path d="M104.78 66.7348L96.1101 77.1648C95.0901 78.3948 96.8501 80.1748 97.8801 78.9348C100.77 75.4548 103.66 71.9848 106.55 68.5048C107.57 67.2748 105.81 65.4948 104.78 66.7348Z" fill="#20BEFF"/>
<path d="M110.4 65.7047C107.16 69.7647 103.92 73.8146 100.69 77.8746C99.6999 79.1246 101.45 80.9046 102.46 79.6446C105.7 75.5846 108.94 71.5346 112.17 67.4746C113.16 66.2246 111.41 64.4447 110.4 65.7047Z" fill="#20BEFF"/>
<path d="M116.44 67.885C111.95 71.815 108.08 76.305 104.82 81.295C103.94 82.645 106.1 83.905 106.98 82.555C110.12 77.735 113.87 73.445 118.2 69.655C119.41 68.595 117.64 66.835 116.43 67.885H116.44Z" fill="#20BEFF"/>
<path d="M125.25 66.9549C119.54 72.4249 114.14 78.1948 109.04 84.2348C108.01 85.4548 109.77 87.2349 110.81 86.0049C115.91 79.9549 121.31 74.1948 127.02 68.7248C128.18 67.6048 126.41 65.8449 125.25 66.9549Z" fill="#20BEFF"/>
<path d="M135.51 66.7148C127.14 74.8448 119 83.1948 111.1 91.7748C110.01 92.9548 111.77 94.7248 112.87 93.5448C120.77 84.9648 128.91 76.6047 137.28 68.4847C138.44 67.3647 136.67 65.5948 135.51 66.7148Z" fill="#20BEFF"/>
<path d="M145.18 70.3849L145.39 70.4649C146.08 70.7349 146.69 70.1648 146.93 69.5948L147.05 69.3249C147.32 68.6749 146.75 67.9849 146.18 67.7849C144.75 67.3049 143.78 68.5749 142.79 69.4249C139.35 72.3649 135.95 75.3448 132.57 78.3548C125.81 84.3748 119.17 90.5149 112.62 96.7649C111.45 97.8749 113.22 99.6449 114.39 98.5349C119.53 93.6249 124.73 88.7849 130.01 84.0149C132.41 81.8449 134.82 79.6949 137.24 77.5649C138.17 76.7449 144.83 69.9749 145.52 70.2049L144.65 68.6649L144.53 68.9349L146.07 68.0649L145.86 67.9848C144.36 67.4048 143.71 69.8149 145.2 70.3949L145.18 70.3849Z" fill="#20BEFF"/>
<path d="M150.95 66.3334L151.24 66.5133L150.62 65.4333C150.58 66.2633 148.48 67.9333 147.93 68.5433C147 69.5733 146.07 70.5933 145.14 71.6233C143.28 73.6733 141.42 75.7333 139.56 77.7833C138.48 78.9733 140.25 80.7433 141.33 79.5533C143.77 76.8533 146.21 74.1634 148.65 71.4634C150.14 69.8134 152.99 67.8233 153.12 65.4333C153.14 64.9833 152.86 64.5833 152.5 64.3533L152.21 64.1733C150.85 63.3033 149.6 65.4634 150.95 66.3334Z" fill="#20BEFF"/>
<path d="M161.13 65.8431C157.09 69.8431 153.04 73.8531 149 77.8531C147.85 78.9831 149.62 80.7531 150.77 79.6231C154.81 75.6231 158.86 71.6131 162.9 67.6131C164.05 66.4831 162.28 64.7131 161.13 65.8431Z" fill="#20BEFF"/>
<path d="M168.97 67.0741C165.12 70.7741 161.47 74.6541 158 78.7041C156.96 79.9241 158.72 81.694 159.77 80.474C163.24 76.424 166.9 72.544 170.74 68.844C171.9 67.724 170.13 65.9641 168.97 67.0741Z" fill="#20BEFF"/>
<path d="M178.77 67.1333C175.26 70.8933 171.75 74.6533 168.25 78.4133C167.15 79.5933 168.92 81.3633 170.02 80.1833C173.53 76.4233 177.04 72.6633 180.54 68.9033C181.64 67.7233 179.87 65.9533 178.77 67.1333Z" fill="#20BEFF"/>
<path d="M187.26 66.674C183.35 70.694 179.56 74.824 175.88 79.064C174.83 80.274 176.59 82.054 177.65 80.834C181.32 76.594 185.12 72.464 189.03 68.444C190.15 67.294 188.39 65.524 187.26 66.674Z" fill="#20BEFF"/>
<path d="M198.26 65.9748C194.82 69.8048 191.38 73.6448 187.93 77.4748C186.86 78.6648 188.62 80.4448 189.7 79.2448C193.14 75.4148 196.58 71.5748 200.03 67.7448C201.1 66.5548 199.34 64.7748 198.26 65.9748Z" fill="#20BEFF"/>
<path d="M206.4 65.5651C202.22 69.5551 198.03 73.5551 193.85 77.5451C192.68 78.6551 194.45 80.4251 195.62 79.3151C199.8 75.3251 203.99 71.3251 208.17 67.3351C209.34 66.2251 207.57 64.4551 206.4 65.5651Z" fill="#20BEFF"/>
<path d="M212.63 65.5534C208.58 69.9634 204.69 74.5034 200.96 79.1934C199.97 80.4434 201.73 82.2234 202.73 80.9634C206.46 76.2734 210.35 71.7334 214.4 67.3234C215.49 66.1434 213.72 64.3634 212.63 65.5534Z" fill="#20BEFF"/>
<path d="M217.02 66.5244C214.09 70.4944 211.27 74.5444 208.58 78.6844C207.7 80.0344 209.86 81.2944 210.74 79.9444C213.44 75.8144 216.25 71.7544 219.18 67.7844C220.14 66.4844 217.97 65.2444 217.02 66.5244Z" fill="#20BEFF"/>
<path d="M241.93 37.6944C231.4 51.9244 220.88 66.1644 210.35 80.3944C209.39 81.6844 211.56 82.9344 212.51 81.6544C223.04 67.4244 233.56 53.1844 244.09 38.9544C245.05 37.6644 242.88 36.4144 241.93 37.6944Z" fill="#20BEFF"/>
<path d="M245.54 48.8937C242.95 50.3437 241.42 52.9438 239.57 55.2138C237.46 57.8138 235.31 60.3937 233.13 62.9437C228.57 68.2737 223.87 73.4738 219.05 78.5738C217.95 79.7438 219.71 81.5136 220.82 80.3436C225.22 75.6936 229.52 70.9537 233.71 66.1037C235.7 63.7937 237.67 61.4637 239.6 59.1137C241.66 56.6137 243.95 52.6437 246.8 51.0537C248.21 50.2737 246.95 48.1137 245.54 48.8937Z" fill="#20BEFF"/>
<path d="M244.43 59.6035C238.11 66.5135 231.78 73.4335 225.46 80.3435C224.38 81.5335 226.14 83.3035 227.23 82.1135C233.55 75.2035 239.88 68.2835 246.2 61.3735C247.28 60.1835 245.52 58.4135 244.43 59.6035Z" fill="#20BEFF"/>
<path d="M242.72 70.4236C240.9 73.4436 238.69 76.1336 236.1 78.5136C234.91 79.6036 236.68 81.3636 237.87 80.2836C240.62 77.7636 242.96 74.8736 244.88 71.6836C245.71 70.3036 243.55 69.0436 242.72 70.4236Z" fill="#20BEFF"/>
<path d="M242.73 24.8743C235.18 37.1343 226.49 48.5544 216.68 59.0844C215.58 60.2644 217.35 62.0343 218.45 60.8543C228.4 50.1643 237.23 38.5743 244.89 26.1343C245.74 24.7643 243.57 23.5043 242.73 24.8743Z" fill="#20BEFF"/>
<path d="M243.1 15.7942C234.06 26.2342 225.01 36.6741 215.97 47.1041C214.92 48.3141 216.68 50.0941 217.74 48.8741C226.78 38.4341 235.83 27.9942 244.87 17.5642C245.92 16.3542 244.16 14.5742 243.1 15.7942Z" fill="#20BEFF"/>
<path d="M241.88 7.9639C233.77 17.2539 225.03 25.9139 215.67 33.9239C214.45 34.9739 216.22 36.7339 217.44 35.6939C226.81 27.6739 235.54 19.0138 243.65 9.73379C244.7 8.52379 242.94 6.7539 241.88 7.9639Z" fill="#20BEFF"/>
<path d="M244.33 -2.44513C235.96 6.83487 227.23 15.7649 218.13 24.3349C216.96 25.4449 218.73 27.2048 219.9 26.1048C229 17.5348 237.73 8.61489 246.1 -0.675109C247.17 -1.86511 245.41 -3.64513 244.33 -2.44513Z" fill="#20BEFF"/>
<path d="M236.06 -3.28646C228.8 3.20354 221.87 10.0335 215.26 17.1935C214.17 18.3735 215.93 20.1435 217.03 18.9635C223.64 11.8035 230.57 4.98344 237.83 -1.51656C239.03 -2.59656 237.26 -4.35646 236.06 -3.28646Z" fill="#20BEFF"/>
<path d="M230.37 -4.7767C225.32 -1.6067 220.82 2.24335 216.93 6.77335C215.89 7.99335 217.65 9.76337 218.7 8.54337C222.45 4.17337 226.75 0.443337 231.63 -2.61666C232.99 -3.46666 231.74 -5.6367 230.37 -4.7767Z" fill="#20BEFF"/>
<path d="M135.53 85.7536L136.26 84.2736C136.85 83.0736 135.28 81.6236 134.3 82.7636C127.14 90.9836 119.61 98.8636 111.72 106.404C110.55 107.514 112.32 109.284 113.49 108.174C121.38 100.644 128.9 92.7636 136.07 84.5336L134.11 83.0236L133.38 84.5036C132.67 85.9436 134.82 87.2136 135.54 85.7636L135.53 85.7536Z" fill="#20BEFF"/>
<path d="M134.78 92.8444C126.06 101.144 117.67 109.764 109.61 118.704C108.54 119.894 110.3 121.674 111.38 120.474C119.44 111.524 127.82 102.904 136.55 94.6144C137.72 93.5044 135.95 91.7344 134.78 92.8444Z" fill="#20BEFF"/>
<path d="M134.98 100.074C126.58 109.454 118.17 118.824 109.77 128.204C108.7 129.394 110.46 131.174 111.54 129.974C119.94 120.594 128.35 111.224 136.75 101.844C137.82 100.654 136.06 98.8744 134.98 100.074Z" fill="#20BEFF"/>
<path d="M137.34 105.934C128.25 115.924 119.17 125.924 110.08 135.914C109 137.104 110.76 138.874 111.85 137.684C120.94 127.694 130.02 117.694 139.11 107.704C140.19 106.514 138.43 104.744 137.34 105.934Z" fill="#20BEFF"/>
<path d="M138.56 114.924C128.32 124.704 118.58 134.964 109.34 145.684C108.29 146.894 110.06 148.674 111.11 147.454C120.35 136.734 130.1 126.474 140.33 116.694C141.5 115.584 139.73 113.814 138.56 114.924Z" fill="#20BEFF"/>
<path d="M137.01 125.055C127.45 133.175 118.75 142.154 110.95 151.974C109.96 153.224 111.72 155.004 112.72 153.744C120.52 143.924 129.21 134.945 138.78 126.825C140.01 125.785 138.23 124.025 137.01 125.055Z" fill="#20BEFF"/>
<path d="M136.91 133.923C127.88 143.313 118.66 152.523 109.26 161.553C108.1 162.673 109.87 164.433 111.03 163.323C120.43 154.293 129.65 145.083 138.68 135.693C139.8 134.533 138.03 132.763 136.91 133.923Z" fill="#20BEFF"/>
<path d="M134.78 143.465C130.5 148.705 125.94 153.685 120.99 158.305C116.89 162.135 111.87 165.375 108.8 170.145C107.93 171.505 110.09 172.755 110.96 171.405C114.17 166.415 119.8 162.925 124.04 158.855C128.5 154.575 132.64 150.015 136.55 145.225C137.56 143.985 135.8 142.205 134.78 143.455V143.465Z" fill="#20BEFF"/>
<path d="M135.37 151.855L109.5 178.545C108.38 179.705 110.15 181.475 111.27 180.315L137.14 153.625C138.26 152.465 136.49 150.695 135.37 151.855Z" fill="#20BEFF"/>
<path d="M139.26 156.235C129.27 166.325 119.27 176.415 109.28 186.505C108.15 187.645 109.91 189.415 111.05 188.275C121.04 178.185 131.04 168.095 141.03 158.005C142.16 156.865 140.4 155.095 139.26 156.235Z" fill="#20BEFF"/>
<path d="M136.81 166.133C127.45 175.733 118.08 185.333 108.72 194.933C108.04 195.633 108.47 197.203 109.6 197.063L110.72 196.923C112.3 196.733 112.32 194.223 110.72 194.423L109.6 194.563L110.48 196.693C119.84 187.093 129.21 177.493 138.57 167.893C139.69 166.743 137.93 164.973 136.8 166.123L136.81 166.133Z" fill="#20BEFF"/>
<path d="M135.26 173.525C126.72 183.145 117.96 192.565 108.99 201.785C107.87 202.935 109.63 204.705 110.76 203.555C119.74 194.335 128.49 184.925 137.03 175.295C138.09 174.095 136.33 172.325 135.26 173.525Z" fill="#20BEFF"/>
<path d="M136.15 179.045C126.96 190.445 116.91 201.105 107.01 211.885C105.92 213.065 107.69 214.845 108.78 213.655C118.68 202.875 128.73 192.215 137.92 180.815C138.92 179.575 137.16 177.795 136.15 179.045Z" fill="#20BEFF"/>
<path d="M135.79 188.084C125.7 198.054 116.55 208.844 108.33 220.404C107.4 221.714 109.56 222.964 110.49 221.664C118.58 210.274 127.61 199.663 137.56 189.843C138.71 188.713 136.94 186.944 135.79 188.074V188.084Z" fill="#20BEFF"/>
<path d="M135.31 197.734C125.53 207.334 116.26 217.404 107.49 227.934C106.47 229.164 108.23 230.944 109.26 229.704C118.03 219.174 127.3 209.104 137.08 199.504C138.23 198.374 136.46 196.604 135.31 197.734Z" fill="#20BEFF"/>
<path d="M135.22 207.365C129.92 212.885 124.63 218.405 119.33 223.915C115.1 228.325 109.9 232.605 107.21 238.195C106.51 239.635 108.67 240.905 109.37 239.455C112.2 233.585 117.96 228.955 122.43 224.305C127.28 219.245 132.14 214.185 136.99 209.135C138.1 207.975 136.34 206.205 135.22 207.365Z" fill="#20BEFF"/>
<path d="M136.86 213.283C126.08 223.203 116.18 233.963 107.17 245.513C106.19 246.763 107.95 248.553 108.94 247.283C117.94 235.733 127.85 224.973 138.63 215.053C139.82 213.963 138.04 212.193 136.86 213.283Z" fill="#20BEFF"/>
<path d="M144.61 215.993C131.99 228.423 119.37 240.854 106.74 253.284C105.59 254.414 107.36 256.184 108.51 255.054C121.13 242.624 133.75 230.194 146.38 217.764C147.53 216.634 145.76 214.863 144.61 215.993Z" fill="#20BEFF"/>
<path d="M132.87 233.153C124.89 243.863 116.25 254.023 106.97 263.623C105.85 264.783 107.62 266.553 108.74 265.393C118.17 255.633 126.93 245.293 135.03 234.413C135.99 233.123 133.82 231.873 132.87 233.153Z" fill="#20BEFF"/>
<path d="M133.17 242.715C125.36 252.385 117.34 261.895 109.13 271.235C108.07 272.435 109.83 274.215 110.9 273.005C119.11 263.665 127.13 254.165 134.94 244.485C135.94 243.245 134.18 241.465 133.17 242.715Z" fill="#20BEFF"/>
<path d="M131.2 253.263C123 263.583 114.8 273.903 106.6 284.223C105.61 285.473 107.37 287.253 108.37 285.993C116.57 275.673 124.77 265.353 132.97 255.033C133.96 253.783 132.2 252.003 131.2 253.263Z" fill="#20BEFF"/>
<path d="M130.73 263.645C122.57 272.675 114.76 282.005 107.3 291.625C106.42 292.755 107.47 294.185 108.81 293.585L109.41 293.325C110.88 292.675 109.61 290.515 108.15 291.165L107.55 291.425L109.06 293.385C116.52 283.765 124.32 274.435 132.49 265.405C133.57 264.215 131.8 262.445 130.72 263.635L130.73 263.645Z" fill="#20BEFF"/>
<path d="M133.47 272.395C127.22 278.315 122.07 285.335 116.67 292.015C114 295.315 109.68 299.095 107.89 302.875C107.31 304.105 106.89 304.695 107.75 305.855C108.7 307.135 110.87 305.885 109.91 304.595C109.28 303.735 121.72 289.735 122.83 288.355C126.79 283.455 130.65 278.505 135.24 274.165C136.41 273.055 134.64 271.295 133.47 272.395Z" fill="#20BEFF"/>
<path d="M133.75 282.664C124.8 294.144 115.56 305.404 106.04 316.414C104.99 317.624 106.75 319.404 107.81 318.184C117.33 307.164 126.57 295.914 135.52 284.434C136.5 283.184 134.74 281.394 133.75 282.664Z" fill="#20BEFF"/>
<path d="M132.8 293.464C124.21 305.054 115.48 316.554 106.62 327.944C105.64 329.204 107.4 330.984 108.39 329.714C117.38 318.154 126.24 306.494 134.96 294.734C135.92 293.444 133.75 292.194 132.8 293.474V293.464Z" fill="#20BEFF"/>
<path d="M134.09 305.634C128.34 309.844 123.93 316.974 119.46 322.474C114.1 329.064 108.82 335.704 103.59 342.404C102.61 343.654 104.37 345.434 105.36 344.174C110.2 337.974 115.09 331.824 120.04 325.714C122.42 322.784 124.81 319.864 127.21 316.954C129.61 314.044 132.17 310.134 135.35 307.804C136.64 306.864 135.39 304.694 134.09 305.644V305.634Z" fill="#20BEFF"/>
<path d="M131.71 319.423L132.18 318.523C132.81 317.313 131.22 315.923 130.22 317.013C121.17 326.793 114.02 338.193 106.49 349.143C105.58 350.473 107.74 351.723 108.65 350.403C116.06 339.633 123.09 328.403 131.99 318.783L130.03 317.273L129.56 318.173C128.81 319.593 130.97 320.863 131.72 319.433L131.71 319.423Z" fill="#20BEFF"/>
<path d="M130.49 327.365C122.17 339.895 113.28 352.005 103.81 363.685C102.81 364.925 104.56 366.705 105.58 365.455C115.18 353.605 124.21 341.335 132.65 328.635C133.54 327.295 131.38 326.035 130.49 327.375V327.365Z" fill="#20BEFF"/>
<path d="M132.24 339.923C122.61 350.723 113.71 362.123 105.57 374.093C104.66 375.423 106.83 376.683 107.73 375.353C115.75 363.563 124.52 352.333 134.01 341.693C135.08 340.493 133.32 338.723 132.24 339.923Z" fill="#20BEFF"/>
<path d="M130.68 351.234C125.08 358.354 119.79 365.694 114.82 373.254C113.93 374.604 116.1 375.854 116.98 374.514C121.84 367.124 126.99 359.954 132.45 352.994C133.43 351.744 131.68 349.964 130.68 351.224V351.234Z" fill="#20BEFF"/>
<path d="M138.02 355.104C133.59 361.364 128.85 367.374 123.82 373.154C122.77 374.364 124.53 376.134 125.59 374.924C130.77 368.984 135.63 362.794 140.18 356.364C141.11 355.044 138.94 353.794 138.02 355.104Z" fill="#20BEFF"/>
<path d="M148.15 354.715C144.48 360.275 140.82 365.835 137.15 371.395C136.26 372.745 138.43 373.995 139.31 372.655C142.98 367.095 146.64 361.535 150.31 355.975C151.2 354.625 149.03 353.375 148.15 354.715Z" fill="#20BEFF"/>
<path d="M154.5 355.575L143.69 371.335C142.78 372.665 144.94 373.915 145.85 372.595L156.66 356.835C157.57 355.505 155.41 354.255 154.5 355.575Z" fill="#20BEFF"/>
<path d="M166.34 353.474C162.15 359.684 157.59 365.594 152.63 371.204C151.57 372.404 153.33 374.184 154.4 372.974C159.5 367.204 164.2 361.124 168.5 354.744C169.4 353.404 167.24 352.154 166.34 353.484V353.474Z" fill="#20BEFF"/>
<path d="M171.2 356.324C167.52 361.484 163.84 366.644 160.16 371.804C159.22 373.114 161.39 374.364 162.32 373.064C166 367.904 169.68 362.744 173.36 357.584C174.3 356.274 172.13 355.024 171.2 356.324Z" fill="#20BEFF"/>
<path d="M179.23 354.664C174.98 361.154 171 367.794 167.27 374.594C166.5 376.004 168.65 377.264 169.43 375.854C173.15 369.054 177.14 362.414 181.39 355.924C182.27 354.574 180.11 353.324 179.23 354.664Z" fill="#20BEFF"/>
<path d="M188.93 354.654C185.74 359.834 182.42 364.934 178.97 369.944C178.06 371.274 180.22 372.524 181.13 371.204C184.58 366.194 187.9 361.094 191.09 355.914C191.94 354.544 189.77 353.284 188.93 354.654Z" fill="#20BEFF"/>
<path d="M198.44 353.975C193.77 360.075 189.43 366.395 185.42 372.945C184.58 374.325 186.74 375.575 187.58 374.205C191.59 367.655 195.93 361.335 200.6 355.235C201.58 353.955 199.41 352.715 198.44 353.975Z" fill="#20BEFF"/>
<path d="M204.33 355.554C201.11 361.874 197.71 368.084 194.1 374.194C193.28 375.584 195.44 376.844 196.26 375.454C199.86 369.344 203.27 363.134 206.49 356.814C207.22 355.384 205.06 354.114 204.33 355.554Z" fill="#20BEFF"/>
<path d="M215.45 351.565C210.98 358.545 206.22 365.325 201.17 371.905C200.19 373.185 202.36 374.425 203.33 373.165C208.38 366.585 213.14 359.815 217.61 352.825C218.48 351.465 216.32 350.215 215.45 351.565Z" fill="#20BEFF"/>
<path d="M221.21 352.943C216.35 359.723 211.97 366.783 208.05 374.153C207.29 375.573 209.45 376.833 210.21 375.413C214.13 368.053 218.51 360.983 223.37 354.203C224.31 352.893 222.14 351.643 221.21 352.943Z" fill="#20BEFF"/>
<path d="M227.71 354.405C223.65 360.735 219.58 367.075 215.52 373.405C214.65 374.765 216.81 376.015 217.68 374.665C221.74 368.335 225.81 361.995 229.87 355.665C230.74 354.305 228.58 353.055 227.71 354.405Z" fill="#20BEFF"/>
<path d="M238.32 353.064C233.6 361.444 228.67 369.704 223.51 377.824C222.65 379.184 224.81 380.444 225.67 379.084C230.82 370.964 235.76 362.714 240.48 354.324C241.27 352.924 239.11 351.654 238.32 353.064Z" fill="#20BEFF"/>
<path d="M245.18 355.155C240.67 361.545 236.47 368.135 232.59 374.935C231.79 376.335 233.95 377.595 234.75 376.195C238.64 369.405 242.83 362.815 247.34 356.415C248.27 355.095 246.1 353.845 245.18 355.155Z" fill="#20BEFF"/>
<path d="M254.6 352.085C249.31 359.705 244.4 367.555 239.88 375.645C239.09 377.055 241.25 378.315 242.04 376.905C246.57 368.815 251.47 360.965 256.76 353.345C257.68 352.025 255.51 350.765 254.6 352.085Z" fill="#20BEFF"/>
<path d="M260.57 353.713C256.43 360.783 252.3 367.863 248.16 374.933C247.35 376.323 249.51 377.583 250.32 376.193C254.46 369.123 258.59 362.043 262.73 354.973C263.54 353.583 261.38 352.323 260.57 353.713Z" fill="#20BEFF"/>
<path d="M276.78 341.554C269.25 351.084 262.61 361.184 256.89 371.904C256.13 373.324 258.29 374.584 259.05 373.164C264.67 362.644 271.16 352.684 278.55 343.324C279.54 342.074 277.78 340.294 276.78 341.554Z" fill="#20BEFF"/>
<path d="M269.3 341.464C266.25 344.644 263.2 347.824 260.15 350.994C259.04 352.154 260.8 353.924 261.92 352.764C264.97 349.584 268.02 346.404 271.07 343.234C272.18 342.074 270.42 340.304 269.3 341.464Z" fill="#20BEFF"/>
<path d="M282.54 340.635C275.2 349.915 268.49 359.625 262.45 369.795C261.63 371.185 263.79 372.445 264.61 371.055C270.54 361.065 277.1 351.505 284.31 342.395C285.3 341.145 283.54 339.365 282.54 340.625V340.635Z" fill="#20BEFF"/>
<path d="M289.25 342.325C281.63 350.515 275.75 360.415 269.39 369.585C268.47 370.915 270.64 372.165 271.55 370.845C277.78 361.855 283.55 352.115 291.01 344.095C292.1 342.915 290.34 341.145 289.24 342.325H289.25Z" fill="#20BEFF"/>
<path d="M287.84 353.103C283.77 359.823 279.4 366.333 274.73 372.653C273.77 373.943 275.94 375.193 276.89 373.913C281.56 367.593 285.93 361.083 290 354.363C290.84 352.983 288.68 351.723 287.84 353.103Z" fill="#20BEFF"/>
<path d="M296.55 353.575C291.76 359.945 287.32 366.545 283.22 373.375C282.39 374.755 284.55 376.015 285.38 374.635C289.48 367.805 293.92 361.205 298.71 354.835C299.68 353.545 297.51 352.305 296.55 353.575Z" fill="#20BEFF"/>
<path d="M307.08 353.904C301.49 360.194 296.51 366.934 292.15 374.144C291.32 375.524 293.48 376.784 294.31 375.404C298.56 368.384 303.4 361.804 308.85 355.674C309.92 354.474 308.15 352.704 307.08 353.904Z" fill="#20BEFF"/>
<path d="M315.52 353.494C311.63 358.954 307.74 364.404 303.86 369.864C302.92 371.174 305.09 372.424 306.02 371.124C309.91 365.664 313.8 360.214 317.68 354.754C318.62 353.444 316.45 352.194 315.52 353.494Z" fill="#20BEFF"/>
<path d="M324.92 353.534C320.51 359.764 316.1 366.003 311.7 372.233C310.77 373.553 312.94 374.804 313.86 373.494C318.27 367.264 322.68 361.024 327.08 354.794C328.01 353.474 325.84 352.224 324.92 353.534Z" fill="#20BEFF"/>
<path d="M334.64 353.135C330.27 359.785 325.9 366.425 321.52 373.075C320.63 374.425 322.8 375.675 323.68 374.335C328.05 367.685 332.42 361.045 336.8 354.395C337.69 353.045 335.52 351.795 334.64 353.135Z" fill="#20BEFF"/>
<path d="M339.4 354.754C335.24 360.724 331.09 366.694 326.93 372.664C326.01 373.984 328.17 375.234 329.09 373.924C333.25 367.954 337.4 361.984 341.56 356.014C342.48 354.694 340.32 353.444 339.4 354.754Z" fill="#20BEFF"/>
<path d="M340.16 363.305C338.41 367.005 336.32 370.495 333.89 373.795C332.93 375.085 335.1 376.335 336.05 375.055C338.49 371.765 340.57 368.275 342.32 364.565C343 363.115 340.85 361.845 340.16 363.305Z" fill="#20BEFF"/>
<path d="M156.03 214.925C150.22 219.765 144.94 225.145 140.2 231.055C139.2 232.295 140.96 234.075 141.97 232.825C146.7 226.925 151.98 221.545 157.8 216.695C159.04 215.665 157.26 213.905 156.03 214.925Z" fill="#20BEFF"/>
<path d="M166.93 214.524C160.17 219.814 154.36 226.024 149.48 233.074C148.56 234.404 150.73 235.654 151.64 234.334C156.4 227.454 162.11 221.444 168.69 216.284C169.96 215.294 168.18 213.534 166.92 214.514L166.93 214.524Z" fill="#20BEFF"/>
<path d="M175.51 213.395C169.67 219.005 164.55 225.215 160.14 232.005C159.26 233.355 161.43 234.615 162.3 233.265C166.59 226.645 171.59 220.625 177.27 215.155C178.43 214.035 176.66 212.275 175.5 213.385L175.51 213.395Z" fill="#20BEFF"/>
<path d="M189.41 212.273C185.98 212.633 184.05 216.044 181.95 218.464C178.79 222.104 175.63 225.743 172.46 229.393C171.41 230.603 173.17 232.383 174.23 231.163C176.67 228.353 179.12 225.533 181.56 222.723C182.71 221.403 183.86 220.073 185.01 218.753C186.08 217.523 187.62 214.973 189.41 214.783C190.99 214.613 191.01 212.113 189.41 212.283V212.273Z" fill="#20BEFF"/>
<path d="M194.39 214.745C190.34 219.655 186.3 224.575 182.25 229.485C181.23 230.715 182.99 232.495 184.02 231.255C188.07 226.345 192.11 221.425 196.16 216.515C197.18 215.285 195.42 213.505 194.39 214.745Z" fill="#20BEFF"/>
<path d="M203.98 211.875C198.65 216.765 193.96 222.225 189.9 228.215C188.99 229.555 191.16 230.805 192.06 229.475C196 223.655 200.57 218.395 205.75 213.645C206.94 212.555 205.17 210.795 203.98 211.875Z" fill="#20BEFF"/>
<path d="M209.64 214.115C206.16 218.865 202.21 223.215 197.84 227.165C196.64 228.245 198.42 230.015 199.61 228.935C204.14 224.835 208.19 220.305 211.8 215.375C212.75 214.075 210.58 212.825 209.64 214.115Z" fill="#20BEFF"/>
<path d="M218.52 213.184C213.71 218.364 208.89 223.544 204.08 228.734C202.99 229.914 204.75 231.684 205.85 230.504C210.66 225.324 215.48 220.144 220.29 214.954C221.38 213.774 219.62 212.004 218.52 213.184Z" fill="#20BEFF"/>
<path d="M224.59 215.354C219.64 219.824 215.17 224.724 211.12 230.024C210.14 231.304 212.31 232.544 213.28 231.284C217.2 226.164 221.57 221.444 226.36 217.124C227.56 216.044 225.78 214.284 224.59 215.354Z" fill="#20BEFF"/>
<path d="M232.5 213.145C226.27 218.875 220.4 224.945 214.88 231.365C213.84 232.575 215.6 234.355 216.65 233.135C222.17 226.715 228.04 220.645 234.27 214.915C235.46 213.825 233.69 212.055 232.5 213.145Z" fill="#20BEFF"/>
<path d="M226.27 212.754L223.18 216.664C222.76 217.194 222.66 217.914 223.18 218.434C223.61 218.864 224.53 218.964 224.95 218.434L228.04 214.524C228.46 213.994 228.56 213.274 228.04 212.754C227.61 212.324 226.69 212.224 226.27 212.754Z" fill="#20BEFF"/>
<path d="M241.44 211.964L229.81 225.634C228.77 226.854 230.53 228.634 231.58 227.404L243.21 213.734C244.25 212.514 242.49 210.734 241.44 211.964Z" fill="#20BEFF"/>
<path d="M248.36 212.275C243.94 217.205 239.53 222.135 235.11 227.065C234.04 228.265 235.8 230.035 236.88 228.835C241.3 223.905 245.71 218.975 250.13 214.045C251.2 212.845 249.44 211.075 248.36 212.275Z" fill="#20BEFF"/>
<path d="M257.92 211.714C251.52 217.444 245.73 223.723 240.49 230.533C239.51 231.803 241.68 233.053 242.65 231.793C247.75 225.163 253.45 219.063 259.69 213.483C260.89 212.403 259.12 210.644 257.92 211.714Z" fill="#20BEFF"/>
<path d="M267.78 211.814C261.92 216.994 256.4 222.514 251.22 228.364C250.16 229.564 251.92 231.344 252.99 230.134C258.17 224.274 263.69 218.754 269.55 213.584C270.76 212.514 268.98 210.754 267.78 211.814Z" fill="#20BEFF"/>
<path d="M275.72 213.934L260.06 229.034C258.9 230.154 260.67 231.924 261.83 230.804L277.49 215.704C278.65 214.584 276.88 212.814 275.72 213.934Z" fill="#20BEFF"/>
<path d="M283.75 213.385C277.65 219.235 271.75 225.265 266.03 231.485C264.94 232.665 266.71 234.445 267.8 233.255C273.52 227.035 279.42 221.005 285.52 215.155C286.68 214.035 284.91 212.275 283.75 213.385Z" fill="#20BEFF"/>
<path d="M296.71 212.723C291.79 217.673 286.88 222.623 281.96 227.563C280.82 228.703 282.59 230.473 283.73 229.333C288.65 224.383 293.56 219.433 298.48 214.493C299.62 213.353 297.85 211.583 296.71 212.723Z" fill="#20BEFF"/>
<path d="M304.89 214.674C298.8 219.864 292.97 225.314 287.38 231.044C286.26 232.194 288.02 233.964 289.15 232.814C294.73 227.084 300.57 221.624 306.66 216.444C307.89 215.404 306.11 213.634 304.89 214.674Z" fill="#20BEFF"/>
<path d="M315.31 214.154C309.45 218.924 303.91 224.034 298.69 229.494C297.58 230.654 299.34 232.424 300.46 231.264C305.68 225.804 311.22 220.694 317.08 215.924C318.33 214.904 316.55 213.154 315.31 214.154Z" fill="#20BEFF"/>
<path d="M321.29 215.885C316.45 219.995 311.61 224.105 306.77 228.215C305.54 229.255 307.32 231.015 308.54 229.985C313.38 225.875 318.22 221.765 323.06 217.655C324.29 216.615 322.51 214.855 321.29 215.885Z" fill="#20BEFF"/>
<path d="M329.95 215.614C323.65 220.714 317.87 226.354 312.63 232.544C311.6 233.764 313.36 235.544 314.4 234.314C319.64 228.134 325.42 222.484 331.72 217.384C332.97 216.374 331.19 214.614 329.95 215.614Z" fill="#20BEFF"/>
<path d="M338.68 215.734C332.35 220.954 326.01 226.184 319.68 231.404C318.44 232.424 320.22 234.184 321.45 233.174L340.45 217.504C341.69 216.484 339.91 214.724 338.68 215.734Z" fill="#20BEFF"/>
<path d="M338.55 223.434C335.13 226.444 332.15 229.844 329.58 233.594C328.67 234.924 330.83 236.174 331.74 234.854C334.19 231.274 337.06 228.064 340.32 225.194C341.53 224.134 339.76 222.364 338.55 223.424V223.434Z" fill="#20BEFF"/>
</g>
</svg>
