<svg width="94" height="67" viewBox="0 0 94 67" fill="none" xmlns="http://www.w3.org/2000/svg">
<path d="M22.8886 19.8661C39.6886 19.3661 56.4986 19.2861 73.3086 19.6461C78.1386 19.7461 78.1386 12.2461 73.3086 12.1461C56.4986 11.7861 39.6886 11.8661 22.8886 12.3661C18.0686 12.5061 18.0486 20.0061 22.8886 19.8661Z" fill="#20BEFF"/>
<path d="M22.2184 51.2258C38.4684 50.3158 54.7485 51.3458 70.9985 52.0158C75.8285 52.2158 75.8185 44.7158 70.9985 44.5158C54.7585 43.8458 38.4784 42.8158 22.2184 43.7258C17.4184 43.9958 17.3884 51.4958 22.2184 51.2258Z" fill="#20BEFF"/>
<path d="M17.8886 15.8466C18.8686 26.2766 18.9686 36.7166 18.2686 47.1666C17.9486 51.9866 25.4486 51.9666 25.7686 47.1666C26.4686 36.7066 26.3686 26.2766 25.3886 15.8466C24.9386 11.0866 17.4386 11.0366 17.8886 15.8466Z" fill="#20BEFF"/>
<path d="M69.5585 16.5067C68.5785 26.9067 67.7285 37.2667 68.9685 47.6867C69.5285 52.4167 77.0385 52.4767 76.4685 47.6867C75.2285 37.2767 76.0785 26.9067 77.0585 16.5067C77.5085 11.7067 70.0085 11.7367 69.5585 16.5067Z" fill="#20BEFF"/>
<path d="M28.8285 24.9853L30.2984 25.5853L28.9484 20.4553C27.0584 24.0253 25.2484 27.5353 23.9284 31.3653C22.6084 35.1953 27.6184 37.4353 30.1984 35.0153C33.6984 31.7153 35.2984 27.3653 38.0684 23.5453C40.8384 19.7253 34.4684 16.0053 31.5884 19.7553C26.9284 25.8453 23.7084 32.6553 22.4184 40.2453C21.9484 43.0253 25.0284 46.6953 27.9284 44.4753C34.0484 39.8053 37.9284 31.5153 41.9484 25.1053L35.4684 21.3153C31.8384 27.3953 29.1184 33.8153 27.4484 40.6953C26.5584 44.3553 30.9684 46.9353 33.7184 44.3453C38.9184 39.4453 42.8084 33.8353 45.2584 27.1053C46.4984 23.6953 41.3084 20.5353 38.9884 23.4553C34.7084 28.8753 31.5884 34.6753 30.2184 41.4853C29.5284 44.9453 33.7584 48.0453 36.4884 45.1353C40.1984 41.1753 42.8885 36.7753 44.2085 31.4853C45.2685 27.2353 39.7284 25.1353 37.3584 28.5953C34.3184 33.0353 32.7584 37.8153 32.8884 43.2053C32.9784 46.7253 36.8084 47.7953 39.2884 45.8553C44.3284 41.9253 47.6285 36.7953 50.7085 31.2753C53.1285 26.9553 47.0584 23.7253 44.2284 27.4853C40.6184 32.2953 38.6084 37.5153 38.0584 43.4953C37.7384 46.9853 42.2485 48.0953 44.4585 46.1453C48.6585 42.4553 52.0784 38.1853 54.3684 33.0753L47.5185 30.1853C45.8285 34.2753 44.3984 38.4053 43.1984 42.6653C42.3484 45.6853 45.9285 48.7453 48.7085 46.8953C53.7685 43.5353 56.7184 37.2853 60.0284 32.3553L53.1784 29.4653C51.3684 33.9253 49.8384 38.4553 48.6084 43.1153C47.6984 46.5553 52.3284 49.6853 54.8784 46.7653C57.8884 43.3053 60.6484 39.6953 63.1584 35.8553L56.3084 32.9653C54.7984 36.7253 53.6784 40.2253 53.2884 44.2553C53.0184 46.9853 56.7184 49.0753 58.9284 47.4953C63.1184 44.4953 66.6084 41.0753 69.2984 36.6653L62.4484 33.7753C61.2084 37.6353 57.1284 45.1053 62.6184 47.5053C64.3684 48.2653 66.7784 48.1453 67.7484 46.1553C68.8084 43.9853 69.7284 41.7853 70.5284 39.5053C71.9284 35.4753 65.6884 32.9053 63.6784 36.6153C62.8484 38.1353 62.2384 39.6053 61.8384 41.2953C60.7184 45.9853 67.8384 47.9753 69.0684 43.2853C71.0684 35.6853 72.4984 26.1553 66.2984 20.1553C64.8884 18.7953 62.3884 18.6353 60.9984 20.1553C58.6884 22.6753 55.7284 26.8453 57.5284 30.4153C59.3284 33.9853 63.9685 33.3253 66.4585 30.9653C68.9485 28.6053 71.6785 23.8053 69.8985 20.4853C67.9285 16.7853 63.2384 18.0253 60.3584 19.7253C57.4784 21.4253 54.4684 24.8953 55.1584 28.5553C55.8484 32.2153 59.8885 33.6553 63.0785 32.2353C66.8485 30.5553 68.5285 25.0753 67.5785 21.2853C66.4785 16.8753 61.6184 16.1053 57.7184 16.9853C53.0784 18.0353 38.4284 27.4253 45.4084 33.1753C51.2184 37.9653 62.4284 29.1353 61.0484 22.3453C59.3984 14.2153 44.8884 16.3553 44.0884 24.0453C43.2484 32.1253 56.0384 33.7753 56.3084 25.2953C56.6184 15.2253 41.5784 15.8253 37.1584 22.0253C34.9584 25.1053 35.7784 29.4453 39.9984 29.9953C44.7184 30.6153 48.2985 26.2653 48.6485 22.0353C48.8385 19.6753 46.0885 17.6853 43.8985 18.4153C40.9585 19.4053 38.8684 20.6753 37.3184 23.4353C34.9584 27.6553 41.4384 31.4353 43.7984 27.2253L45.8884 25.6553L41.1384 22.0353C40.8784 22.4553 40.4984 22.6053 39.9884 22.4953L43.2284 24.3553L42.7584 23.6553L43.1384 26.5453C43.9884 23.9353 49.5284 25.2453 51.1584 25.0353C55.1384 24.5353 53.4484 24.5153 52.2184 25.3553C50.9884 26.1953 49.6684 26.8053 48.0684 26.7753L50.7184 27.8753L50.1684 27.3653L51.2685 30.0153C51.3085 27.7553 59.2185 23.4353 62.4585 24.6853L60.2184 22.9653C60.3984 23.8153 60.2484 24.5653 59.7584 25.2353L62.4084 26.3353C62.3584 27.6953 62.6984 27.8653 63.4084 26.8453C64.0784 26.1053 64.9184 25.6553 65.9484 25.5053L63.2984 24.4053L64.0084 25.0253L62.9084 22.3753C62.6984 23.5653 62.1485 24.5753 61.2685 25.4053L63.9184 26.5053L63.4184 25.8753L64.5185 28.5253C64.7485 27.3053 65.3484 26.2853 66.3084 25.4653H61.0084C64.9684 29.2953 63.0884 36.6153 61.8584 41.3053L69.0884 43.2953C69.2384 42.2553 69.5984 41.2953 70.1784 40.4053L63.3285 37.5153C62.7485 39.1853 62.0884 40.7753 61.3084 42.3753L66.4384 41.0253L65.6984 40.7053L67.4184 42.9453C66.9984 41.7853 69.2984 37.0753 69.7184 35.7753C71.0384 31.6553 65.0384 29.3253 62.8684 32.8853C60.8584 36.1853 58.3284 38.7753 55.1884 41.0253L60.8285 44.2653C61.1485 41.0053 62.3685 37.9853 63.5785 34.9653C65.2285 30.8553 58.9284 28.6953 56.7284 32.0753C54.5284 35.4553 52.2184 38.4853 49.6284 41.4653L55.8985 45.1153C57.1385 40.4553 58.6584 35.9353 60.4684 31.4653C62.1484 27.3353 55.8484 25.2553 53.6184 28.5753C51.1784 32.2053 48.6784 37.9753 44.9884 40.4253L50.4984 44.6553C51.6984 40.3953 53.1284 36.2653 54.8184 32.1753C56.5084 28.0853 49.6984 25.4153 47.9684 29.2853C45.9184 33.8653 42.9884 37.5353 39.2284 40.8353L45.6284 43.4853C46.0584 38.8453 48.0085 34.9353 50.7685 31.2553L44.2884 27.4653C41.4984 32.4553 38.6084 36.9653 34.0384 40.5253L40.4384 43.1753C40.3384 39.0253 41.5484 35.7453 43.8784 32.3453L37.0284 29.4553C36.0084 33.5453 34.1184 36.7253 31.2384 39.7953L37.5084 43.4453C38.6084 37.9653 40.8784 33.1053 44.3484 28.7253L38.0785 25.0753C36.0785 30.5553 32.6884 35.0353 28.4684 39.0053L34.7384 42.6553C36.2684 36.3753 38.6984 30.6153 42.0084 25.0653C44.4884 20.9053 38.0884 17.2053 35.5284 21.2753C33.6784 24.2153 31.8184 27.1453 29.9084 30.0553C28.2484 32.5953 26.6384 36.0853 24.1984 37.9453L29.7085 42.1753C30.9085 35.1553 33.8084 29.1153 38.1284 23.4853L31.6485 19.6953C29.2685 22.9753 27.9384 26.8353 24.9484 29.6453L31.2184 33.2953C32.3184 30.0953 33.9084 27.1553 35.4884 24.1753C36.5284 22.2153 35.8184 20.3153 34.1384 19.0453C32.4584 17.7753 30.8984 17.4753 28.8784 17.4253C24.0484 17.3053 24.0484 24.8053 28.8784 24.9253L28.8285 24.9853Z" fill="#20BEFF"/>
<path d="M23.7584 17.7262C21.7684 19.5762 21.4884 22.8063 22.9184 25.0763C24.3484 27.3463 26.8984 28.6063 29.4584 28.7663C32.4284 28.9563 35.0684 26.9063 35.2984 23.8863C35.5084 21.2063 33.3984 19.0062 31.1184 17.9562C29.4084 17.1762 28.0184 17.4262 26.5784 18.5462C24.6084 20.0762 24.1784 23.1863 25.3484 25.3163C26.6084 27.6263 29.2184 28.5062 31.6984 27.9862C33.6184 27.5862 34.9184 25.2162 34.3184 23.3762C33.6584 21.3462 31.7684 20.3263 29.7084 20.7563C30.7784 20.5263 31.8084 21.0762 32.1084 22.1662C32.2684 22.7362 32.1983 23.2462 31.9083 23.7062C31.5783 24.0762 31.5784 24.1262 31.8884 23.8562L27.3484 24.4463C27.7284 24.6263 28.0984 24.8162 28.4484 25.0562C28.1484 24.8162 28.0984 24.7862 28.2884 24.9662C28.4884 25.1662 28.4384 25.1062 28.1484 24.7762C27.6384 23.7862 27.7683 22.8362 28.5283 21.9262C28.8783 21.5162 29.2983 21.3062 29.7783 21.3062C30.1083 21.2862 30.0984 21.2762 29.7484 21.2962C29.3184 21.2662 29.3784 21.2763 29.9084 21.3263C29.7784 21.4363 29.0484 20.9562 29.6784 21.2862C29.4784 21.1862 29.2884 21.0862 29.1084 20.9662C29.4284 21.2362 29.4284 21.2262 29.1184 20.9362C29.3784 21.3162 29.5083 21.5562 29.5283 22.0462C29.5283 21.6162 29.5184 21.6863 29.4784 22.2563C29.3984 22.5463 29.2684 22.8162 29.0784 23.0562C30.5184 21.7162 30.5284 19.0863 29.0784 17.7563C27.5384 16.3363 25.3083 16.3263 23.7783 17.7563L23.7584 17.7262Z" fill="#20BEFF"/>
<path d="M33.6085 35.4953C34.8085 38.1253 37.7686 39.4952 40.5586 39.4652C43.8086 39.4252 46.4286 37.3253 48.7086 35.2453C52.2786 31.9853 46.9685 26.6953 43.4085 29.9453C42.4685 30.8053 41.6485 31.4952 40.4885 31.9652C40.6685 31.8952 39.9885 31.8853 40.1685 31.9453C40.2485 31.9753 40.5885 32.8152 40.0885 31.7152C39.2485 29.8752 36.5786 29.4253 34.9586 30.3653C33.0586 31.4753 32.7685 33.6453 33.6085 35.4953Z" fill="#20BEFF"/>
<path d="M54.6684 20.9863C59.4984 20.9863 59.4984 13.4863 54.6684 13.4863C49.8384 13.4863 49.8384 20.9863 54.6684 20.9863Z" fill="#20BEFF"/>
<path d="M3.6785 6.39605C32.4985 5.00605 61.2185 6.06611 90.0585 6.76611C93.2785 6.84611 93.2785 1.84611 90.0585 1.76611C61.2285 1.06611 32.5085 0.0160519 3.6785 1.39605C0.478502 1.54605 0.458502 6.54605 3.6785 6.39605Z" fill="#53FF6E"/>
<path d="M7.62838 66.366C35.2684 66.026 62.8984 65.6859 90.5384 65.3459C93.7584 65.3059 93.7584 60.3059 90.5384 60.3459C62.8984 60.6859 35.2684 61.026 7.62838 61.366C4.40838 61.406 4.40838 66.406 7.62838 66.366Z" fill="#53FF6E"/>
<path d="M87.5584 5.69625C87.2684 24.6962 87.4284 43.6862 88.0384 62.6762C88.1384 65.8862 93.1384 65.8962 93.0384 62.6762C92.4284 43.6862 92.2684 24.6862 92.5584 5.69625C92.6084 2.47625 87.6084 2.47625 87.5584 5.69625Z" fill="#53FF6E"/>
<path d="M1.2684 4.50588C2.2184 15.0059 0.958407 25.4158 0.648407 35.9058C0.368407 45.3958 0.958368 55.1358 2.35837 64.5258C2.82837 67.6958 7.64838 66.3459 7.17838 63.1959C5.74838 53.6059 5.32836 43.6159 5.72836 33.9359C6.12836 24.2559 7.16835 14.3359 6.27835 4.49587C5.98835 1.31587 0.988351 1.28587 1.27835 4.49587L1.2684 4.50588Z" fill="#53FF6E"/>
</svg>
