<svg width="65" height="46" viewBox="0 0 65 46" fill="none" xmlns="http://www.w3.org/2000/svg">
<path d="M4.6901 8.29982C23.0201 7.38982 41.3502 6.49979 59.6802 5.64979C62.8802 5.49979 62.9002 0.499793 59.6802 0.649793C41.3502 1.49979 23.0201 2.38982 4.6901 3.29982C1.4901 3.45982 1.4701 8.45982 4.6901 8.29982Z" fill="#20BEFF"/>
<path d="M57.7901 4.29992C58.1201 17.1899 58.6801 30.0699 59.4701 42.9299C59.6701 46.1299 64.6701 46.1499 64.4701 42.9299C63.6801 30.0599 63.1201 17.1799 62.7901 4.29992C62.7101 1.08992 57.7101 1.07992 57.7901 4.29992Z" fill="#20BEFF"/>
<path d="M0.160151 5.96969C0.300151 18.2997 0.730068 30.6198 1.45007 42.9198C1.64007 46.1298 6.30007 46.1498 6.45007 42.9198L6.50012 41.7597C6.65012 38.5397 1.65012 38.5497 1.50012 41.7597L1.45007 42.9198H6.45007C5.73007 30.6098 5.29015 18.2897 5.16015 5.96969C5.12015 2.74969 0.120151 2.74969 0.160151 5.96969Z" fill="#20BEFF"/>
<path d="M5.09007 45.0488C13.9601 46.1788 23.5 44.9088 32.44 44.7788C41.75 44.6388 51.0501 44.6287 60.3601 44.7387C63.5801 44.7787 63.5801 39.7787 60.3601 39.7387C51.0501 39.6287 41.75 39.6388 32.44 39.7788C23.13 39.9188 13.9601 41.1788 5.09007 40.0488C1.91007 39.6388 1.94007 44.6488 5.09007 45.0488Z" fill="#20BEFF"/>
<path d="M9.75017 14.1691L10.5002 33.4091C10.6202 36.6191 15.6302 36.6291 15.5002 33.4091L14.7502 14.1691C14.6302 10.9591 9.62017 10.9491 9.75017 14.1691Z" fill="#20BEFF"/>
<path d="M12.2 16.3891C25.41 16.4791 38.5901 15.8692 51.7401 14.5592L49.2401 12.0592C49.0601 18.8192 49.4701 25.4692 50.3701 32.1692C50.7501 34.9692 55.3901 34.2891 55.2801 31.5091C55.0601 25.7891 54.8401 20.0591 54.6201 14.3391C54.5001 11.1291 49.5001 11.1191 49.6201 14.3391C49.8401 20.0591 50.0601 25.7891 50.2801 31.5091L55.19 30.8491C54.35 24.6091 54.0701 18.3591 54.2401 12.0691C54.2701 10.8191 53.0601 9.43908 51.7401 9.56908C38.5901 10.8791 25.41 11.4892 12.2 11.3992C8.98003 11.3792 8.98003 16.3792 12.2 16.3992V16.3891Z" fill="#20BEFF"/>
<path d="M14.2101 35.6888C27.1801 34.5288 40.1702 34.3389 53.1702 35.1189C56.3802 35.3089 56.3702 30.3089 53.1702 30.1189C40.1702 29.3389 27.1801 29.5288 14.2101 30.6888C11.0301 30.9688 11.0001 35.9788 14.2101 35.6888Z" fill="#20BEFF"/>
<path d="M20.1301 17.6798L20.5001 16.7497C21.5401 14.1297 18.01 12.9996 16.32 14.3196C14.09 16.0496 12.54 17.9998 11.33 20.5598C10.5 22.3198 11.9201 25.0597 14.1501 24.2297C17.1201 23.1297 19.1301 21.5297 20.5301 18.6397C21.4901 16.6497 19.3101 13.5697 17.1101 15.2197C14.9101 16.8697 9.29002 21.7697 13.57 24.5097C17.59 27.0797 21.7601 21.5197 22.6701 18.3297C23.3601 15.8997 20.2601 14.1797 18.4901 15.8997C15.4301 18.8797 13.5701 22.3197 12.8901 26.5397C12.5901 28.4297 14.6001 30.7797 16.5601 29.3597C20.3501 26.6297 23.5301 23.5097 26.3601 19.7897C27.9201 17.7397 24.94 15.1397 22.94 16.3697C18.93 18.8397 11.1301 27.5797 14.5601 32.6297C15.5301 34.0597 17.1901 34.1997 18.4901 33.1397C22.8101 29.6097 25.69 25.1597 27.32 19.8397C27.93 17.8297 25.4701 15.7797 23.6501 17.0197C20.9401 18.8597 9.92001 31.2497 17.69 33.0897C22.96 34.3297 30.33 22.5397 27.09 18.2597C23.03 12.8897 15.81 22.8897 19.32 27.2697C24.53 33.7597 32.19 20.0797 31.47 15.5097C31.33 14.6397 30.49 14.0197 29.72 13.7597C25.36 12.2797 17.86 20.8497 20.94 24.8697C25.48 30.8097 33.4101 20.0097 34.5501 16.2597C34.9301 15.0297 34.1001 13.4498 32.8001 13.1798C26.2801 11.8198 19.4101 20.5897 19.6101 26.7397C19.6401 27.5597 20.05 28.5297 20.85 28.8997C26.06 31.2997 33.3701 23.1897 33.7401 18.2197C34.3601 9.73967 22.07 14.7297 18.7 17.0297C16.39 18.6097 17.7801 22.2497 20.6301 21.5997C22.8001 21.0997 24.36 20.1998 26.35 19.3098C29.04 18.1098 32.2301 18.6097 35.1201 18.5997L33.8601 13.9396C29.4701 17.0796 25.29 20.2997 22.71 25.1597C21.8 26.8697 23.3701 29.7297 25.5301 28.8297C30.6701 26.6997 35.0001 23.7397 38.6801 19.5397C40.6301 17.3097 38.2201 14.4997 35.6501 15.6097C29.4301 18.2897 24.63 22.7797 21.45 28.7497C20.49 30.5497 21.7301 32.2997 23.6101 32.5097C27.5601 32.9497 31.5201 28.9997 34.4001 26.6597C37.5201 24.1297 42.0201 21.1097 42.0301 16.7497C42.0301 14.8397 39.9101 13.6497 38.2701 14.5897C33.6801 17.2197 27.5101 22.1897 26.6601 27.7997C26.5001 28.8297 26.7401 30.1197 27.8101 30.6197C31.0701 32.1597 33.6301 29.7697 36.2501 27.8297C40.0301 25.0397 43.3701 21.7797 46.3601 18.1597C47.7501 16.4797 46.4901 12.9297 43.9301 13.9797C40.2101 15.5097 37.5201 17.9197 35.3801 21.3297C33.7501 23.9397 31.4501 27.4396 33.0401 30.4496C33.4501 31.2296 34.34 31.6696 35.2 31.6896C40.17 31.7996 46.7001 22.9897 47.5501 18.6297C47.7501 17.5797 47.4301 16.3398 46.4001 15.8098C40.9001 12.9598 31.3201 24.4198 33.5501 29.6798C37.0601 37.9398 48.1401 21.4097 49.3901 18.6497C50.4701 16.2697 48.31 14.2297 45.97 15.2297C41.39 17.1797 38.1901 22.8297 38.1301 27.7297C38.1201 28.5397 38.6001 29.5397 39.3701 29.8897C44.5501 32.2497 48.7601 25.8098 50.3901 21.6798C51.0801 19.9398 49.0101 17.9997 47.3101 18.5997C43.4301 19.9797 38.97 25.8497 40.82 30.2397C43.33 36.2097 49.4901 28.3897 50.8601 25.7797C52.1101 23.3997 48.8201 20.4497 46.9301 22.7497C45.0401 25.0497 44.3801 27.2797 44.9201 30.3697C45.1701 31.7897 46.7701 32.3297 48.0001 32.1197C50.3101 31.7197 51.8101 30.1297 52.1801 27.7897C52.4801 25.8797 51.7801 24.0297 51.5001 22.1697C51.1101 19.5697 51.08 17.0297 51.22 14.4197C51.39 11.1597 46.54 11.2797 46.22 14.4197L46.1501 15.1197L47.3901 12.9597L46.7501 13.2497C43.8301 14.5797 46.3601 18.8896 49.2701 17.5696C50.7701 16.8896 51.06 15.9897 51.22 14.4097H46.22C46.17 15.4397 47.0401 27.2197 46.6701 27.2897L49.7501 29.0397L50.47 26.2797L46.5401 23.2497C46.3501 23.6197 44.4201 27.2697 43.8901 27.1597L45.6401 28.9097C45.0601 27.1997 47.2401 23.9198 48.6401 23.4298L45.5601 20.3497C45.4601 20.5897 42.6001 25.8896 41.8901 25.5696L43.1301 27.7297C43.1801 24.3997 45.5201 20.8097 48.5001 19.5497L45.08 16.1297C43.52 19.5897 41.4701 22.6898 38.5601 25.1798C36.3101 26.0998 36.03 26.6896 37.72 26.9396C38.92 27.7096 39.5701 27.1797 39.6601 25.3297C39.9001 24.8997 43.4201 19.8997 43.8801 20.1397L42.7301 17.3196C42.3401 19.3096 37.31 26.7597 35.21 26.7097L37.3701 27.9496C37.3101 27.8396 39.47 24.2497 39.71 23.8697C41.12 21.6597 42.7901 19.8298 45.2701 18.8098L42.84 14.6297C41.06 16.7797 39.1901 18.8397 37.1101 20.7197C36.4001 21.3597 30.69 26.4698 30.34 26.3098L31.4901 29.1297C32.1601 24.7097 37.2501 20.9497 40.8101 18.9097L37.0501 16.7497C37.0501 19.6797 26.2401 27.7997 23.6301 27.5097L25.7901 31.2697C28.6101 25.9897 32.72 22.2897 38.2 19.9197L35.1701 15.9897C32.1001 19.4997 28.5501 22.1997 24.2301 23.9897L27.0501 27.6597C29.2401 23.5497 32.6801 20.8997 36.4101 18.2397C38.3301 16.8697 37.7901 13.5797 35.1501 13.5797C32.3401 13.5797 29.0001 13.1097 26.2501 13.8297C23.8101 14.4697 21.89 16.1597 19.33 16.7497L21.2601 21.3196C22.5901 20.4096 26.7901 17.5997 27.8601 18.9197C28.5501 19.7697 23.6901 24.6797 23.4101 24.5497L24.6501 26.7097C24.5701 24.2697 28.4501 17.3397 31.5101 17.9697L29.7601 14.8897C29.4301 16.3297 28.7701 17.6097 27.7901 18.7197C27.0801 19.5897 26.22 20.2397 25.2 20.6597C23.72 21.1497 23.93 21.4597 25.83 21.5997C26.62 20.5097 27.4901 19.4897 28.4301 18.5297L26.6801 16.7797C26.8601 17.9397 25.54 20.1497 24.94 21.0297L23.4001 22.7897C24.2101 22.6197 24.23 22.2898 23.46 21.8098C22.93 20.7998 22.6 20.9597 22.47 22.2697C22.19 23.1397 21.8001 23.9496 21.2701 24.6996C20.8301 25.3896 18.9501 28.1596 18.0601 28.0696L20.22 29.3098C20.01 28.9298 21.85 25.7397 22.08 25.3797C23.13 23.6897 24.58 22.3897 26.22 21.2797L22.5501 18.4597C21.1601 23.0097 18.6801 26.5497 15.0101 29.5497L18.94 30.0598C17.55 28.0198 24.4101 21.3297 25.5301 20.6397L22.1101 17.2197C19.8201 20.2297 17.1701 22.7897 14.1101 24.9997L17.7801 27.8196C18.3301 24.4296 19.63 21.7797 22.1 19.3797L17.9201 16.9496C16.4401 18.1496 16.3001 19.1597 17.5001 19.9897C18.1501 21.2297 18.88 21.0597 19.71 19.4897L16.2901 16.0696C15.7601 17.6596 14.6301 18.7597 12.9001 19.3697L15.72 23.0397C16.76 20.8397 18.0201 19.2898 19.9201 17.8098L15.7401 15.3797L15.3701 16.3098C14.1801 19.2998 19.02 20.5997 20.19 17.6397L20.1301 17.6798Z" fill="#20BEFF"/>
</svg>
