<svg width="223" height="177" viewBox="0 0 223 177" fill="none" xmlns="http://www.w3.org/2000/svg">
<path d="M22.4999 12.5003C78.4499 9.45031 134.54 11.0603 190.53 11.8303C196.97 11.9203 196.97 1.92033 190.53 1.83033C134.54 1.05033 78.4499 -0.549689 22.4999 2.50031C16.0999 2.85031 16.0599 12.8503 22.4999 12.5003Z" fill="#20BEFF"/>
<path d="M22.4999 98.68C78.4499 95.63 134.54 97.24 190.53 98.01C196.97 98.1 196.97 88.1 190.53 88.01C134.54 87.23 78.4499 85.63 22.4999 88.68C16.0999 89.03 16.0599 99.03 22.4999 98.68Z" fill="#20BEFF"/>
<path d="M17.07 7.49992C17.58 36.2499 16.9001 64.9999 15.0301 93.6899C14.6101 100.12 24.6101 100.09 25.0301 93.6899C26.9001 64.9999 27.58 36.2499 27.07 7.49992C26.96 1.06992 16.96 1.04992 17.07 7.49992Z" fill="#20BEFF"/>
<path d="M187.57 7.49992C188.08 35.6199 187.4 63.7299 185.53 91.7899C185.1 98.2099 195.1 98.1899 195.53 91.7899C197.4 63.7299 198.08 35.6099 197.57 7.49992C197.45 1.06992 187.45 1.04992 187.57 7.49992Z" fill="#20BEFF"/>
<path d="M119.64 97.3507C119.48 102.671 119.32 107.991 119.16 113.321C118.97 119.761 128.97 119.751 129.16 113.321C129.32 108.001 129.48 102.681 129.64 97.3507C129.83 90.9107 119.83 90.9207 119.64 97.3507Z" fill="#20BEFF"/>
<path d="M88.7 94.5704C88.88 101.06 88.82 107.54 88.52 114.02C88.37 117.24 93.37 117.23 93.52 114.02C93.82 107.54 93.88 101.06 93.7 94.5704C93.61 91.3604 88.61 91.3504 88.7 94.5704Z" fill="#20BEFF"/>
<path d="M4.43998 121.85C67.23 118.71 130.13 118.55 192.93 121.38C196.15 121.52 196.14 116.52 192.93 116.38C130.13 113.56 67.22 113.71 4.43998 116.85C1.23998 117.01 1.21998 122.01 4.43998 121.85Z" fill="#20BEFF"/>
<path d="M192.99 121.451C196.54 124.121 200.69 124.401 204.77 125.811C209.63 127.481 213.62 130.801 218.71 131.921C221.85 132.611 223.18 127.791 220.04 127.101C215.47 126.091 211.83 123.201 207.53 121.511C203.49 119.921 199.08 119.811 195.51 117.141C192.94 115.211 190.44 119.541 192.99 121.461V121.451Z" fill="#20BEFF"/>
<path d="M25.5699 135.23C28.2299 138.25 31.12 141.04 34.24 143.58C36.71 145.6 40.27 142.08 37.78 140.04C34.66 137.5 31.77 134.71 29.11 131.69C26.98 129.27 23.4599 132.82 25.5699 135.23Z" fill="#20BEFF"/>
<path d="M26.28 135.171C49.05 136.971 72.3 134.421 95.13 134.221C118.72 134.021 142.31 134.491 165.87 135.571C169.09 135.721 169.08 130.721 165.87 130.571C142.31 129.491 118.72 129.021 95.13 129.221C71.54 129.421 49.05 131.971 26.28 130.171C23.07 129.921 23.09 134.921 26.28 135.171Z" fill="#20BEFF"/>
<path d="M37.7901 146.091C80.4101 143.531 122.88 144.611 165.52 145.901C168.74 146.001 168.74 141.001 165.52 140.901C122.88 139.611 80.4101 138.531 37.7901 141.091C34.5901 141.281 34.5701 146.281 37.7901 146.091Z" fill="#20BEFF"/>
<path d="M94.85 93.8706C94.85 96.7606 94.85 99.6606 94.85 102.551C94.85 104.161 97.35 104.161 97.35 102.551C97.35 99.6606 97.35 96.7606 97.35 93.8706C97.35 92.2606 94.85 92.2606 94.85 93.8706Z" fill="#20BEFF"/>
<path d="M100.14 93.8798C99.76 97.4698 99.7099 101.04 99.9899 104.64C100.12 106.23 102.62 106.25 102.49 104.64C102.21 101.04 102.26 97.4698 102.64 93.8798C102.81 92.2798 100.31 92.2898 100.14 93.8798Z" fill="#20BEFF"/>
<path d="M105.59 93.5307L104.9 112.631C104.84 114.241 107.34 114.241 107.4 112.631L108.09 93.5307C108.15 91.9207 105.65 91.9207 105.59 93.5307Z" fill="#20BEFF"/>
<path d="M109.76 93.5301C110.26 99.3201 110.26 105.09 109.76 110.89C109.62 112.49 112.13 112.48 112.26 110.89C112.75 105.1 112.75 99.3201 112.26 93.5301C112.12 91.9401 109.62 91.9201 109.76 93.5301Z" fill="#20BEFF"/>
<path d="M114.6 93.1805C114.24 97.6905 114.14 102.2 114.3 106.72C114.36 108.32 116.86 108.33 116.8 106.72C116.63 102.2 116.73 97.6905 117.1 93.1805C117.23 91.5805 114.73 91.5805 114.6 93.1805Z" fill="#20BEFF"/>
<path d="M36.43 136.511L40.38 141.261C41.41 142.501 43.17 140.721 42.15 139.491L38.1999 134.741C37.1699 133.501 35.41 135.281 36.43 136.511Z" fill="#20BEFF"/>
<path d="M40.6501 135.77C42.2901 137.55 43.6501 139.52 44.7701 141.67C45.5101 143.1 47.6701 141.84 46.9301 140.41C45.7201 138.08 44.2001 135.94 42.4201 134C41.3301 132.81 39.5701 134.58 40.6501 135.77Z" fill="#20BEFF"/>
<path d="M47.42 134.8L51.29 141.02C52.14 142.38 54.2999 141.13 53.4499 139.76C52.1599 137.69 50.8699 135.62 49.5799 133.54C48.7299 132.18 46.57 133.43 47.42 134.8Z" fill="#20BEFF"/>
<path d="M53.42 134.401L56.8299 142.061C57.4799 143.531 59.6399 142.261 58.9899 140.801L55.5799 133.141C54.9299 131.671 52.77 132.941 53.42 134.401Z" fill="#20BEFF"/>
<path d="M58.22 133.04C59.35 135.55 60.3 138.13 61.11 140.76C61.58 142.29 64 141.64 63.52 140.1C62.64 137.26 61.59 134.5 60.37 131.78C59.71 130.31 57.56 131.58 58.21 133.04H58.22Z" fill="#20BEFF"/>
<path d="M62.23 133.1C63.13 135.31 64.0399 137.52 64.9399 139.72C65.5399 141.19 67.96 140.55 67.35 139.06C66.45 136.85 65.54 134.64 64.64 132.44C64.04 130.97 61.62 131.61 62.23 133.1Z" fill="#20BEFF"/>
<path d="M66.9 133.391C67.92 135.721 68.93 138.041 69.95 140.371C70.59 141.841 72.75 140.571 72.11 139.111L69.0601 132.131C68.4201 130.661 66.26 131.931 66.9 133.391Z" fill="#20BEFF"/>
<path d="M71.98 133.09C72.74 135.36 73.7 137.55 74.88 139.64C75.67 141.04 77.83 139.78 77.04 138.38C75.97 136.47 75.08 134.5 74.39 132.43C73.88 130.91 71.47 131.56 71.98 133.09Z" fill="#20BEFF"/>
<path d="M76.63 133.39C77.59 135.65 78.34 138 78.9 140.39C79.27 141.96 81.68 141.29 81.31 139.73C80.69 137.11 79.84 134.6 78.79 132.13C78.16 130.65 76.01 131.93 76.63 133.39Z" fill="#20BEFF"/>
<path d="M81.62 132.76C81.77 135.26 82.25 137.68 83.1 140.03C83.65 141.53 86.06 140.88 85.51 139.37C84.73 137.23 84.25 135.04 84.12 132.77C84.02 131.17 81.52 131.16 81.62 132.77V132.76Z" fill="#20BEFF"/>
<path d="M84.88 133.07C85.79 135.62 86.7099 138.17 87.6199 140.72C88.1599 142.22 90.57 141.58 90.03 140.06C89.12 137.51 88.2 134.96 87.29 132.41C86.75 130.91 84.34 131.55 84.88 133.07Z" fill="#20BEFF"/>
<path d="M89.7601 132.72C90.5401 134.93 91.32 137.14 92.1 139.35C92.63 140.86 95.0501 140.21 94.5101 138.69C93.7301 136.48 92.9501 134.27 92.1701 132.06C91.6401 130.55 89.2201 131.2 89.7601 132.72Z" fill="#20BEFF"/>
<path d="M95.5699 131.36L97.68 139.69C98.08 141.25 100.49 140.59 100.09 139.03L97.9799 130.7C97.5799 129.14 95.1699 129.8 95.5699 131.36Z" fill="#20BEFF"/>
<path d="M102.12 132.42C102.39 135.65 103.07 138.76 104.24 141.79C104.81 143.28 107.23 142.63 106.65 141.13C105.57 138.32 104.87 135.43 104.62 132.43C104.49 130.84 101.99 130.82 102.12 132.43V132.42Z" fill="#20BEFF"/>
<path d="M107.4 132.75C107.86 135.36 108.52 137.91 109.4 140.42C109.93 141.93 112.35 141.28 111.81 139.76C110.93 137.26 110.27 134.71 109.81 132.09C109.53 130.51 107.12 131.18 107.4 132.75Z" fill="#20BEFF"/>
<path d="M112.21 132.76C111.96 135.88 112.54 138.86 113.81 141.71C114.46 143.18 116.62 141.91 115.97 140.45C114.88 138.01 114.5 135.42 114.72 132.77C114.85 131.17 112.35 131.17 112.22 132.77L112.21 132.76Z" fill="#20BEFF"/>
<path d="M118.08 133.811L118.7 140.761C118.84 142.351 121.34 142.361 121.2 140.761L120.58 133.811C120.44 132.221 117.94 132.211 118.08 133.811Z" fill="#20BEFF"/>
<path d="M122.2 133.811L122.91 140.751C123.07 142.341 125.57 142.351 125.41 140.751L124.7 133.811C124.54 132.221 122.04 132.211 122.2 133.811Z" fill="#20BEFF"/>
<path d="M126.52 135.17C126.82 137.29 127.23 139.38 127.76 141.46C128.16 143.02 130.57 142.36 130.17 140.8C129.64 138.73 129.23 136.63 128.93 134.51C128.71 132.92 126.3 133.6 126.52 135.17Z" fill="#20BEFF"/>
<path d="M132.37 134.14C132.82 136.33 133.04 138.52 133.06 140.75C133.07 142.36 135.57 142.36 135.56 140.75C135.54 138.3 135.28 135.88 134.78 133.48C134.46 131.91 132.05 132.57 132.37 134.14Z" fill="#20BEFF"/>
<path d="M137.88 132.07C138.07 135.01 138.54 137.9 139.3 140.74C139.72 142.29 142.13 141.63 141.71 140.08C141.01 137.45 140.56 134.79 140.38 132.07C140.28 130.47 137.77 130.46 137.88 132.07Z" fill="#20BEFF"/>
<path d="M143.46 131.72C143.46 134.84 143.46 137.97 143.46 141.09C143.46 142.7 145.96 142.7 145.96 141.09C145.96 137.97 145.96 134.84 145.96 131.72C145.96 130.11 143.46 130.11 143.46 131.72Z" fill="#20BEFF"/>
<path d="M147.31 132.07C147.14 134.86 147.21 137.63 147.53 140.41C147.71 141.99 150.21 142.01 150.03 140.41C149.71 137.63 149.64 134.86 149.81 132.07C149.91 130.46 147.41 130.47 147.31 132.07Z" fill="#20BEFF"/>
<path d="M151.09 132.76C151.02 135.47 151.36 138.14 152.1 140.75C152.54 142.3 154.95 141.64 154.51 140.09C153.83 137.68 153.53 135.26 153.59 132.76C153.63 131.15 151.13 131.15 151.09 132.76Z" fill="#20BEFF"/>
<path d="M155.25 133.8C155.34 136.27 155.68 138.7 156.29 141.09C156.68 142.65 159.1 141.99 158.7 140.43C158.15 138.25 157.83 136.05 157.75 133.8C157.69 132.2 155.19 132.19 155.25 133.8Z" fill="#20BEFF"/>
<path d="M160.5 133.8C160.44 136.4 160.72 138.96 161.34 141.48C161.72 143.04 164.14 142.38 163.75 140.82C163.18 138.51 162.94 136.19 163 133.81C163.04 132.2 160.54 132.2 160.5 133.81V133.8Z" fill="#20BEFF"/>
<path d="M165.29 135.541L165.69 141.091C165.81 142.691 168.31 142.701 168.19 141.091L167.79 135.541C167.67 133.941 165.17 133.931 165.29 135.541Z" fill="#20BEFF"/>
<path d="M26.48 141.28C29.41 144.47 32.7501 147.21 36.4301 149.5C37.8001 150.35 39.06 148.19 37.69 147.34C34.18 145.17 31.04 142.56 28.25 139.52C27.16 138.33 25.39 140.1 26.48 141.29V141.28Z" fill="#20BEFF"/>
<path d="M25.03 144.47L33.4 152.06C34.59 153.14 36.36 151.38 35.17 150.29C32.38 147.76 29.59 145.23 26.8 142.7C25.61 141.62 23.84 143.38 25.03 144.47Z" fill="#20BEFF"/>
<path d="M24.4799 148.37C26.6399 151.31 29.0399 154.05 31.6899 156.56C32.8599 157.67 34.6299 155.9 33.4599 154.79C30.9599 152.43 28.68 149.88 26.64 147.11C25.7 145.83 23.5299 147.07 24.4799 148.37Z" fill="#20BEFF"/>
<path d="M24.65 154.201C27.09 157.191 29.79 159.941 32.75 162.431C33.97 163.461 35.75 161.701 34.52 160.661C31.57 158.171 28.87 155.421 26.42 152.431C25.4 151.181 23.64 152.961 24.65 154.201Z" fill="#20BEFF"/>
<path d="M25 160.821C27.98 163.281 30.73 165.971 33.25 168.901C34.3 170.121 36.06 168.351 35.02 167.131C32.5 164.201 29.75 161.51 26.77 159.05C25.54 158.03 23.76 159.791 25 160.821Z" fill="#20BEFF"/>
<path d="M25.7099 167.05C27.6999 168.88 29.69 170.71 31.68 172.54C32.86 173.63 34.6399 171.86 33.4499 170.77C31.4599 168.94 29.4699 167.11 27.4799 165.28C26.2999 164.19 24.5199 165.96 25.7099 167.05Z" fill="#20BEFF"/>
<path d="M194.36 127.42C201.92 129.11 209.32 131.3 216.58 133.99C218.09 134.55 218.74 132.14 217.24 131.58C209.98 128.88 202.58 126.69 195.02 125.01C193.45 124.66 192.78 127.07 194.36 127.42Z" fill="#20BEFF"/>
<path d="M196.08 132.67C203.06 134.93 210.13 136.87 217.29 138.49C218.86 138.84 219.53 136.43 217.95 136.08C210.79 134.46 203.73 132.52 196.74 130.26C195.21 129.76 194.55 132.18 196.08 132.67Z" fill="#20BEFF"/>
<path d="M196.09 138.23C203.5 139.74 210.8 141.67 217.99 144.01C219.52 144.51 220.18 142.1 218.65 141.6C211.45 139.26 204.16 137.34 196.75 135.82C195.18 135.5 194.51 137.91 196.09 138.23Z" fill="#20BEFF"/>
<path d="M197.14 143.02C204.26 144.53 211.31 146.28 218.31 148.26C219.86 148.7 220.52 146.29 218.97 145.85C211.97 143.86 204.92 142.12 197.8 140.61C196.23 140.28 195.56 142.69 197.14 143.02Z" fill="#20BEFF"/>
<path d="M197.16 148.12C203.61 149.02 209.95 150.36 216.21 152.16C217.76 152.61 218.42 150.19 216.87 149.75C210.61 147.95 204.27 146.61 197.82 145.71C196.25 145.49 195.57 147.9 197.16 148.12Z" fill="#20BEFF"/>
<path d="M196.79 153.05C204.16 153.88 211.33 155.47 218.37 157.78C219.9 158.28 220.56 155.87 219.03 155.37C211.77 152.99 204.38 151.4 196.78 150.55C195.18 150.37 195.2 152.87 196.78 153.05H196.79Z" fill="#20BEFF"/>
<path d="M196.77 157.041C203.92 157.951 210.87 159.621 217.66 162.001C219.18 162.531 219.84 160.121 218.32 159.591C211.3 157.131 204.14 155.481 196.76 154.541C195.17 154.341 195.18 156.841 196.76 157.041H196.77Z" fill="#20BEFF"/>
<path d="M196.16 160.831C203.09 162.611 210.02 164.391 216.96 166.181C218.52 166.581 219.18 164.171 217.62 163.771L196.82 158.421C195.26 158.021 194.6 160.431 196.16 160.831Z" fill="#20BEFF"/>
<path d="M195.35 165.81C203.99 166.05 211.77 169.39 219.52 172.92C220.97 173.58 222.25 171.43 220.78 170.76C212.63 167.05 204.43 163.56 195.35 163.31C193.74 163.27 193.74 165.77 195.35 165.81Z" fill="#20BEFF"/>
<path d="M195.84 169.13C202.97 171.46 210.1 173.8 217.23 176.13C218.76 176.63 219.42 174.22 217.89 173.72C210.76 171.39 203.63 169.05 196.5 166.72C194.97 166.22 194.31 168.63 195.84 169.13Z" fill="#20BEFF"/>
<path fill-rule="evenodd" clip-rule="evenodd" d="M205.332 176.543L198.315 174.748C198.334 175.33 198.353 175.912 198.372 176.495L193.37 176.46C192.759 157.359 191.848 138.276 190.63 119.21C190.42 115.99 195.43 116.01 195.63 119.21C196.756 136.841 197.62 154.487 198.227 172.148C200.183 172.648 202.139 173.148 204.096 173.648C206.745 174.324 209.394 175.001 212.04 175.68C212.57 175.816 212.844 176.184 212.913 176.595L205.332 176.543ZM222.712 176.663L217.712 176.629L217.03 129.63C216.98 126.41 221.98 126.42 222.03 129.63L222.712 176.663ZM166.819 176.276L171.819 176.31C171.689 173.02 171.557 169.728 171.425 166.436L171.422 166.36C171.26 162.336 171.099 158.311 170.94 154.289C170.872 152.591 170.86 150.843 170.848 149.074V149.074C170.81 143.562 170.771 137.844 169.03 132.779C167.99 129.759 163.16 131.059 164.21 134.109V134.099C165.936 139.113 165.941 145.002 165.945 150.6V150.6C165.947 152.527 165.948 154.419 166.02 156.229L166.055 157.094C166.312 163.49 166.569 169.88 166.819 176.276ZM29.6578 175.323C29.4495 175.244 29.2423 175.161 29.0363 175.075L29.045 175.319L24.047 175.284C23.5458 160.993 23.0379 146.701 22.53 132.409C22.42 129.189 27.42 129.199 27.53 132.409C27.9943 145.703 28.4652 158.997 28.9374 172.29C30.4096 172.998 31.949 173.532 33.58 173.899L33.5902 173.902C33.4168 163.891 33.4134 153.884 33.58 143.87C33.63 140.65 38.63 140.65 38.58 143.87C38.4135 154.377 38.4273 164.884 38.6212 175.386L29.6578 175.323ZM5.08741 175.153L0.0890918 175.118C0.98108 156.711 1.21183 138.295 0.790027 119.87C0.720027 116.65 5.72003 116.66 5.79003 119.87C6.21209 138.307 5.98079 156.734 5.08741 175.153Z" fill="#20BEFF"/>
</svg>
