<svg width="78" height="63" viewBox="0 0 78 63" fill="none" xmlns="http://www.w3.org/2000/svg">
<path d="M20.0492 15.8932L19.7193 15.8733L22.2193 18.3733C22.1293 12.2033 28.5193 8.38334 33.8693 8.36334C37.2093 8.34334 40.6292 8.78325 43.0992 11.1533C45.2192 13.1733 45.9293 15.9133 46.6393 18.6833C46.8993 19.7033 47.9792 20.5632 49.0492 20.5232C47.5092 20.5832 49.7293 21.8432 50.0093 22.0132C51.0893 22.6432 52.8592 22.3533 53.4292 21.1133C57.7692 11.7033 48.9293 1.11323 39.4093 0.133235C27.1693 -1.12677 17.2392 6.65332 16.7892 19.0933C16.6992 21.4733 19.4893 22.1033 21.0593 20.8633C24.3993 18.2133 27.0193 15.0733 29.0893 11.3533L24.5193 9.42327C23.6893 11.8333 22.7393 14.1433 21.6293 16.4433C20.5193 18.7433 23.6793 21.8533 25.5593 19.4733L31.4993 11.9233L27.5693 8.89324C25.3793 11.9632 23.5192 14.9333 22.1692 18.4533C21.2792 20.7833 24.7592 22.7132 26.3492 20.8832C29.6392 17.1132 32.5692 13.1333 35.1792 8.86334C36.6192 6.50334 33.0993 3.60331 31.2493 5.83331C28.0593 9.70331 25.9393 13.8533 24.9093 18.7833C24.4293 21.0733 27.2993 23.1833 29.0893 21.2133C31.7593 18.2733 34.3593 15.2833 36.9093 12.2433C38.9393 9.81334 35.5993 6.3233 33.3693 8.7033C30.6893 11.5833 28.7893 14.6533 27.3393 18.3033C26.3393 20.8233 29.8393 22.2133 31.5193 20.7333C34.7193 17.9133 37.3592 14.6933 39.9292 11.3133C41.6992 8.99329 37.9793 6.39326 35.9993 8.28326C33.3893 10.7733 31.7593 13.5633 30.8693 17.0533C30.2193 19.5733 33.1992 21.0833 35.0492 19.4833C37.3992 17.4533 39.3193 15.1433 41.2193 12.7033C43.1193 10.2633 40.0392 6.83326 37.6792 9.16326C35.5592 11.2733 32.7193 14.6033 33.0193 17.8233C33.1593 19.3033 34.0693 20.1433 35.5193 20.3233C39.0893 20.7533 42.7393 14.4832 44.4593 12.0232C46.1793 9.56325 42.4793 6.99334 40.5293 8.99334C38.0893 11.5033 34.2392 15.4833 35.8592 19.2033C36.2092 20.0033 37.2093 20.4133 38.0193 20.4433C41.3193 20.5533 44.2193 16.0033 46.0793 13.8233C48.1393 11.4033 44.8792 8.01326 42.5392 10.2833C40.1992 12.5533 38.2393 15.2432 38.6893 18.5132C38.8893 19.9632 40.5793 20.4332 41.7693 20.2632C43.6793 19.9932 45.2293 18.3532 46.4993 17.0232L42.5693 13.9933C41.7093 15.3533 41.5993 15.5933 41.2793 17.1633C40.8093 19.4433 42.9493 20.8533 44.9493 19.9833C46.4393 19.3333 46.7792 19.0433 48.0492 18.0333L44.1193 15.0034L43.1293 17.2033C41.8193 20.1133 46.1193 22.6533 47.4493 19.7233L48.4393 17.5232C49.6293 14.8832 46.7693 12.7033 44.5093 14.4933L42.4192 15.6533L46.0893 18.4733L46.8793 16.4933C48.3993 14.0933 44.9093 11.4133 42.9493 13.4633C42.2793 14.3233 41.4392 14.9733 40.4292 15.4133L43.5093 17.1633C44.1293 15.8633 44.9793 14.7433 46.0793 13.8033L42.5392 10.2632C42.0592 10.8232 38.6393 15.4433 38.0193 15.4233L40.1792 16.6633C40.3792 17.1333 43.5393 13.0532 44.0693 12.5132L40.1393 9.48333C39.8193 9.94333 36.1193 15.3833 35.5093 15.3033L38.0093 17.8033C37.8493 16.0633 40.0893 13.7833 41.2093 12.6833L37.6692 9.14324C35.7692 11.5832 33.8493 13.8933 31.4993 15.9233L35.6792 18.3533C36.3592 15.6833 37.5293 13.6933 39.5293 11.7833L35.5992 8.75335C33.2792 11.8034 30.8493 14.6233 27.9693 17.1633L32.1493 19.5933C33.2793 16.7533 34.8093 14.4233 36.8893 12.1933L33.3492 8.65325C30.7992 11.6933 28.1993 14.6833 25.5293 17.6233L29.7093 20.0533C30.5593 16.0033 32.1093 12.5233 34.7593 9.31329L30.8293 6.28326C28.4393 10.2033 25.7993 13.8333 22.7793 17.2933L26.9593 19.7233C28.1393 16.6533 29.9592 14.0133 31.8592 11.3533C33.4892 9.06333 29.6892 6.0933 27.9292 8.3233L21.9892 15.8733L25.9192 18.9033C27.2192 16.2233 28.3393 13.5133 29.3093 10.6933C30.2793 7.87329 26.0992 6.31324 24.7392 8.76324C22.8492 12.1732 20.5392 14.8432 17.4892 17.2632L21.7593 19.0333C22.0693 10.5033 27.9193 5.27331 36.2793 4.96331C42.4693 4.73331 52.5493 11.0032 49.0893 18.5232L52.5093 17.6233C50.8893 16.6833 51.4193 15.3533 49.0193 15.4533L51.4292 17.2933C48.9092 7.43327 42.5793 2.56323 32.1493 3.38323C24.6293 3.97323 17.0593 10.1033 17.1893 18.3233C17.2093 19.7433 18.3193 20.7333 19.6893 20.8233L20.0193 20.8433C23.2293 21.0633 23.2193 16.0633 20.0193 15.8433L20.0492 15.8932Z" fill="#53FF6E"/>
<path d="M47.6394 6.84325C52.4594 5.06325 56.4594 4.44328 61.3194 6.62328C66.8194 9.10328 68.9294 12.9033 69.1394 18.8733C69.2494 22.0833 74.2494 22.0933 74.1394 18.8733C73.8894 11.7933 72.1593 6.89323 65.8493 3.32323C59.3393 -0.366771 53.2594 -0.536819 46.3194 2.02318C43.3294 3.13318 44.6194 7.96325 47.6494 6.84325H47.6394Z" fill="#53FF6E"/>
<path d="M12.2289 20.0933C13.9189 16.4733 17.2489 14.1132 21.2889 14.0232C24.4989 13.9532 24.5089 8.95319 21.2889 9.02319C15.6089 9.15319 10.339 12.3832 7.90898 17.5732C6.54898 20.4732 10.8589 23.0133 12.2289 20.0933Z" fill="#53FF6E"/>
<path d="M5.93917 20.1835C7.38917 16.4335 8.91919 12.8134 12.5892 10.7634C15.8292 8.95343 21.3892 6.85343 24.7692 8.76343C27.5692 10.3534 30.0991 6.03348 27.2891 4.44348C22.2391 1.59348 16.2692 3.52349 11.3292 5.83349C5.70918 8.45349 3.25915 13.3035 1.10915 18.8635C-0.0508497 21.8635 4.77916 23.1635 5.92916 20.1935L5.93917 20.1835Z" fill="#53FF6E"/>
<path d="M0.329049 20.1839C-2.78095 42.8739 16.6491 59.434 37.7091 61.984C48.1891 63.254 58.759 60.714 65.549 52.214C72.339 43.714 77.5691 32.314 77.7191 20.854C77.7591 17.634 72.7591 17.634 72.7191 20.854C72.5891 30.574 68.5691 39.5939 62.9591 47.4039C57.3491 55.2139 48.759 58.0439 39.249 57.1539C21.239 55.4839 2.41905 41.4139 5.13905 21.5139C5.56905 18.3639 0.749039 17.0039 0.319039 20.1839H0.329049Z" fill="#20BEFF"/>
<path d="M3.56913 23.8037C27.1691 22.5637 50.7892 22.2737 74.4092 22.9337C77.6292 23.0237 77.6292 18.0237 74.4092 17.9337C50.7892 17.2737 27.1691 17.5637 3.56913 18.8037C0.369127 18.9737 0.349127 23.9737 3.56913 23.8037Z" fill="#20BEFF"/>
<path d="M5.23914 32.204C6.77914 30.264 8.19917 28.2341 9.45917 26.1041C10.2792 24.7141 8.11914 23.4541 7.29914 24.8441C6.14914 26.7941 4.87918 28.664 3.46918 30.444C2.47918 31.694 4.23914 33.4741 5.23914 32.2141V32.204Z" fill="#20BEFF"/>
<path d="M7.569 37.6737C8.949 34.6337 10.829 31.9137 12.739 29.2037C13.669 27.8837 11.499 26.6337 10.579 27.9437C8.65901 30.6537 6.77903 33.3837 5.40903 36.4137C4.74903 37.8637 6.899 39.1437 7.569 37.6737Z" fill="#20BEFF"/>
<path d="M9.24878 43.6835C11.1888 41.1135 12.8088 38.3735 14.1288 35.4435C14.7788 33.9835 12.6288 32.7135 11.9688 34.1835C10.6488 37.1135 9.02881 39.8635 7.08881 42.4235C6.11881 43.7135 8.28878 44.9535 9.24878 43.6835Z" fill="#20BEFF"/>
<path d="M11.9593 47.7239C13.0793 46.5939 13.7092 45.1839 14.4292 43.7839C15.2592 42.1639 16.0992 40.5339 16.9292 38.9139C17.6592 37.4839 15.5093 36.2239 14.7693 37.6539C14.0293 39.0839 13.2992 40.5139 12.5592 41.9539C11.8592 43.3139 11.2693 44.8639 10.1893 45.9539C9.10925 47.0439 10.8193 48.8639 11.9593 47.7239Z" fill="#20BEFF"/>
<path d="M17.319 49.8335C18.309 47.7435 19.4191 45.7234 20.6491 43.7734C21.5091 42.4134 19.349 41.1534 18.489 42.5134C17.259 44.4634 16.1491 46.4835 15.1591 48.5735C14.4791 50.0235 16.629 51.2935 17.319 49.8335Z" fill="#20BEFF"/>
<path d="M19.9392 54.1942L22.9492 48.2142C23.6692 46.7842 21.5192 45.5142 20.7892 46.9542L17.7792 52.9342C17.0592 54.3642 19.2092 55.6342 19.9392 54.1942Z" fill="#20BEFF"/>
<path d="M23.6092 56.0033C24.3092 54.0933 25.1192 52.2432 26.0392 50.4232C26.7592 48.9932 24.6092 47.7232 23.8792 49.1632C22.8692 51.1732 21.9692 53.2332 21.1992 55.3432C20.6392 56.8532 23.0592 57.5033 23.6092 56.0033Z" fill="#20BEFF"/>
<path d="M26.619 57.1942L28.359 53.6142C29.059 52.1742 26.8991 50.9042 26.1991 52.3542L24.4591 55.9341C23.7591 57.3741 25.919 58.6442 26.619 57.1942Z" fill="#20BEFF"/>
</svg>
