<svg width="284" height="102" viewBox="0 0 284 102" fill="none" xmlns="http://www.w3.org/2000/svg">
<path d="M200.96 7.40028C214.82 8.72028 228.65 10.4302 242.3 13.2202C248.93 14.5802 255.52 16.1903 262.01 18.1503C266.97 19.6503 278.04 21.3002 277.67 28.1002C277.5 31.3202 282.5 31.3102 282.67 28.1002C282.96 22.6902 279.65 19.3603 274.93 17.2903C267.33 13.9603 258.92 11.9003 250.86 10.0003C234.46 6.13026 217.7 4.00029 200.95 2.41029C197.75 2.10029 197.77 7.11029 200.95 7.41029L200.96 7.40028Z" fill="#20BEFF"/>
<path d="M278.06 29.4202C277.7 32.5902 277.48 35.7601 277.39 38.9501C277.3 42.1401 282.21 42.1401 282.39 38.9501C282.55 36.1301 282.79 33.3302 283.1 30.5202H278.1C278.13 32.1602 278.16 33.8101 278.05 35.4501C277.96 36.8401 278.23 39.0502 277.78 40.3502L282.6 41.6802C283.21 37.6502 283.65 33.7402 283.25 29.6702C282.94 26.5002 277.94 26.4602 278.25 29.6702C278.61 33.2802 278.32 36.7802 277.78 40.3602C277.3 43.4902 281.54 44.8001 282.6 41.6901C283.15 40.1001 282.84 38.0402 282.97 36.3502C283.12 34.4102 283.13 32.4802 283.09 30.5302C283.03 27.2402 278.44 27.4002 278.09 30.5302C277.78 33.3302 277.54 36.1401 277.38 38.9601H282.38C282.47 35.7701 282.69 32.6002 283.05 29.4302C283.41 26.2602 278.41 26.2602 278.05 29.4302L278.06 29.4202Z" fill="#20BEFF"/>
<path d="M94.7101 6.43002C121.27 5.45002 147.86 4.66 174.43 5.66C177.65 5.78 177.64 0.779997 174.43 0.659997C147.85 -0.340003 121.27 0.450017 94.7101 1.43002C91.5001 1.55002 91.4901 6.55002 94.7101 6.43002Z" fill="#20BEFF"/>
<path d="M5.68014 25.0899C6.20014 20.3199 12.7201 19.21 16.4201 18.03C22.6901 16.03 28.9702 14.2199 35.3902 12.7299C38.5202 11.9999 37.2001 7.17998 34.0601 7.90998C25.9301 9.78998 17.6902 11.94 9.89016 14.92C4.96016 16.8 1.28014 19.6099 0.680138 25.0999C0.330138 28.2899 5.33014 28.2699 5.68014 25.0999V25.0899Z" fill="#20BEFF"/>
<path d="M0.630092 27.8798C1.89009 31.1798 2.70006 34.4498 2.97006 37.9898C3.26006 41.8898 9.68011 43.4498 10.3401 38.9898C10.8201 35.7298 10.7401 32.9398 9.5801 29.8298L4.07009 34.0599C13.9401 41.1499 26.1601 42.0997 37.9201 42.6897C42.7401 42.9297 42.7301 35.4297 37.9201 35.1897C27.4001 34.6597 16.6801 33.9298 7.85006 27.5898C5.26006 25.7298 1.23011 28.8397 2.34011 31.8197C2.99011 33.5697 3.38006 35.0998 3.10006 36.9998L10.4701 37.9998C10.1601 33.7998 9.36008 29.8398 7.87008 25.8998C6.17008 21.4298 -1.0799 23.3698 0.640102 27.8898L0.630092 27.8798Z" fill="#20BEFF"/>
<path d="M4.63997 35.8897C14.73 42.6397 26.18 46.3797 38.28 47.1297C41.85 47.3497 42.79 43.0296 40.93 40.7296L40.12 39.7296C37.09 35.9696 31.81 41.3097 34.82 45.0297L35.63 46.0297L38.28 39.6297C27.47 38.9497 17.4199 35.4297 8.41994 29.4097C4.39994 26.7197 0.639961 33.2097 4.62996 35.8897H4.63997Z" fill="#20BEFF"/>
<path d="M5.83001 41.4101C18.49 48.0901 32.55 49.8301 46.59 51.2801C63.1 52.9901 79.66 54.19 96.22 55.32C128.24 57.5 160.57 60.07 192.3 53.74C197.03 52.8 195.03 45.57 190.31 46.51C159.94 52.56 128.83 50.03 98.18 47.95C82.59 46.89 67.01 45.79 51.46 44.27C37.25 42.88 22.48 41.7101 9.63 34.9301C5.36 32.6801 1.57002 39.1501 5.84002 41.4101H5.83001Z" fill="#20BEFF"/>
<path d="M35.5515 42.7648C85.0058 49.2165 134.6 51.0922 184.392 51.9992C189.202 52.0919 189.202 44.3623 184.392 44.2695C134.6 43.3523 85.0058 41.4869 35.5515 35.0352C30.7913 34.4168 30.8411 42.1465 35.5515 42.7648Z" fill="#20BEFF"/>
<path d="M156.01 57.4894C197.42 56.2394 240.7 57.8194 280.25 43.5194C284.75 41.8894 282.81 34.6394 278.26 36.2894C239.31 50.3694 196.8 48.7594 156.01 49.9894C151.19 50.1394 151.17 57.6394 156.01 57.4894Z" fill="#20BEFF"/>
<path d="M172.59 51.4597C208.83 51.2197 245.95 49.0597 280.55 37.4397C285.1 35.9097 283.15 28.6697 278.56 30.2097C244.55 41.6297 208.21 43.7297 172.59 43.9597C167.77 43.9897 167.75 51.4897 172.59 51.4597Z" fill="#20BEFF"/>
<path d="M7.84017 30.7204C7.28017 27.5704 6.71014 24.5004 7.87014 21.4204C8.86014 18.8004 4.43013 16.8904 3.30013 19.4904C0.730131 25.4104 3.96014 31.9304 8.81014 35.5004C11.1901 37.2504 13.6702 33.5703 11.8402 31.5703C10.2202 29.8003 8.59011 28.0204 6.97011 26.2504L3.94015 30.1804C5.12015 31.0104 6.14014 31.9504 7.12014 33.0104L10.6601 29.4704C9.06012 28.2204 7.40014 27.0204 7.62014 24.7804C7.94014 21.5804 2.94014 21.6004 2.62014 24.7804C2.27014 28.3204 4.49015 30.9504 7.13015 33.0004C9.61015 34.9304 12.9101 31.8904 10.6701 29.4604C9.40013 28.0904 8.01012 26.9204 6.48012 25.8504C4.07012 24.1604 1.61016 27.7704 3.45016 29.7804C5.07016 31.5504 6.70015 33.3304 8.32015 35.1004L11.3501 31.1704C8.96012 29.4104 6.28016 25.1204 7.64016 22.0004L3.07015 20.0703C1.59015 23.9803 2.33012 28.0304 3.04012 32.0304C3.60012 35.1904 8.42013 33.8503 7.86013 30.7003L7.84017 30.7204Z" fill="#20BEFF"/>
<path fill-rule="evenodd" clip-rule="evenodd" d="M123.811 101.311C124.323 85.2492 124.083 69.1825 123.09 53.1307L123.1 53.1407C122.8 48.3107 130.3 48.3507 130.6 53.1407C131.592 69.1839 131.833 85.2568 131.321 101.321C128.817 101.317 126.314 101.314 123.811 101.311Z" fill="#20BEFF"/>
<path fill-rule="evenodd" clip-rule="evenodd" d="M144.251 101.341C144.629 85.2701 144.677 69.2036 144.39 53.13C144.33 49.91 149.33 49.92 149.39 53.13C149.677 69.2056 149.629 85.2812 149.251 101.351C147.584 101.348 145.918 101.344 144.251 101.341Z" fill="#20BEFF"/>
</svg>
