<svg width="279" height="313" viewBox="0 0 279 313" fill="none" xmlns="http://www.w3.org/2000/svg">
<mask id="mask0_401_31" style="mask-type:alpha" maskUnits="userSpaceOnUse" x="0" y="0" width="279" height="313">
<path fill-rule="evenodd" clip-rule="evenodd" d="M279 0H0V312.961C54.4099 312.601 108.817 312.328 163.23 312.11C201.819 311.956 240.409 311.829 279 311.721V0Z" fill="#D9D9D9"/>
</mask>
<g mask="url(#mask0_401_31)">
<path d="M31.58 7.37004C32.11 86.24 32.65 165.12 33.18 243.99C33.33 266.46 33.48 288.93 33.64 311.41C33.68 317.84 43.68 317.86 43.64 311.41C43.11 232.59 42.57 153.77 42.04 74.96C41.89 52.43 41.73 29.9 41.58 7.37004C41.54 0.940042 31.54 0.920042 31.58 7.37004Z" fill="#20BEFF"/>
<path d="M265.91 7.37004C266.44 86.24 266.98 165.12 267.51 243.99C267.66 266.46 267.81 288.93 267.97 311.41C268.01 317.84 278.01 317.86 277.97 311.41C277.44 232.59 276.9 153.77 276.37 74.96C276.22 52.43 276.06 29.9 275.91 7.37004C275.87 0.940042 265.87 0.920042 265.91 7.37004Z" fill="#20BEFF"/>
<path d="M38.22 11.7999C47.69 9.82991 58.26 11.0199 67.9 11.0799C77.54 11.1399 86.45 11.1899 95.73 11.2599C114.95 11.3899 134.16 11.5499 153.38 11.7199C191.81 12.0699 230.25 12.4899 268.68 12.9999C275.12 13.0799 275.12 3.07991 268.68 2.99991C229.58 2.48991 190.49 2.0499 151.39 1.6999C132.17 1.5299 112.96 1.37991 93.74 1.24991C83.8 1.17991 73.86 1.11991 63.92 1.05991C54.51 1.00991 44.82 0.229911 35.56 2.15991C29.26 3.46991 31.93 13.1099 38.22 11.7999Z" fill="#20BEFF"/>
<path d="M38.22 56.9396C47.69 54.9696 58.26 56.1596 67.9 56.2196C77.54 56.2796 86.45 56.3295 95.73 56.3995C114.95 56.5295 134.16 56.6895 153.38 56.8595C191.81 57.2095 230.25 57.6296 268.68 58.1396C275.12 58.2196 275.12 48.2196 268.68 48.1396C229.58 47.6296 190.49 47.1896 151.39 46.8396C132.17 46.6696 112.96 46.5196 93.74 46.3896C83.8 46.3196 73.86 46.2596 63.92 46.1996C54.51 46.1496 44.82 45.3695 35.56 47.2995C29.26 48.6095 31.93 58.2496 38.22 56.9396Z" fill="#20BEFF"/>
<path d="M38.22 101.069C47.69 99.0995 58.26 100.289 67.9 100.349C77.54 100.409 86.45 100.459 95.73 100.529C114.95 100.659 134.16 100.819 153.38 100.989C191.81 101.339 230.25 101.759 268.68 102.269C275.12 102.349 275.12 92.3494 268.68 92.2694C229.58 91.7594 190.49 91.3195 151.39 90.9695C132.17 90.7995 112.96 90.6494 93.74 90.5194C83.8 90.4494 73.86 90.3894 63.92 90.3294C54.51 90.2794 44.82 89.4994 35.56 91.4294C29.26 92.7394 31.93 102.379 38.22 101.069Z" fill="#20BEFF"/>
<path d="M38.22 144.21C47.69 142.24 58.26 143.43 67.9 143.49C77.54 143.55 86.45 143.6 95.73 143.67C114.95 143.8 134.16 143.96 153.38 144.13C191.81 144.48 230.25 144.9 268.68 145.41C275.12 145.49 275.12 135.49 268.68 135.41C229.58 134.9 190.49 134.46 151.39 134.11C132.17 133.94 112.96 133.79 93.74 133.66C83.8 133.59 73.86 133.53 63.92 133.47C54.51 133.42 44.82 132.64 35.56 134.57C29.26 135.88 31.93 145.52 38.22 144.21Z" fill="#20BEFF"/>
<path d="M40.22 189.34C49.69 187.37 60.26 188.56 69.9 188.62C79.54 188.68 88.45 188.73 97.73 188.8C116.95 188.93 136.16 189.09 155.38 189.26C193.81 189.61 232.25 190.03 270.68 190.54C277.12 190.62 277.12 180.62 270.68 180.54C231.58 180.03 192.49 179.59 153.39 179.24C134.17 179.07 114.96 178.92 95.74 178.79C85.8 178.72 75.86 178.66 65.92 178.6C56.51 178.55 46.82 177.77 37.56 179.7C31.26 181.01 33.93 190.65 40.22 189.34Z" fill="#20BEFF"/>
<path d="M40.22 233.48C49.69 231.51 60.26 232.7 69.9 232.76C79.54 232.82 88.45 232.87 97.73 232.94C116.95 233.07 136.16 233.23 155.38 233.4C193.81 233.75 232.25 234.17 270.68 234.68C277.12 234.76 277.12 224.76 270.68 224.68C231.58 224.17 192.49 223.73 153.39 223.38C134.17 223.21 114.96 223.06 95.74 222.93C85.8 222.86 75.86 222.8 65.92 222.74C56.51 222.69 46.82 221.91 37.56 223.84C31.26 225.15 33.93 234.79 40.22 233.48Z" fill="#20BEFF"/>
<path d="M41.22 277.49C50.69 275.52 61.26 276.71 70.9 276.77C80.18 276.82 89.45 276.88 98.73 276.95C117.95 277.08 137.16 277.24 156.38 277.41C194.81 277.76 233.25 278.18 271.68 278.69C278.12 278.77 278.12 268.77 271.68 268.69C232.58 268.18 193.49 267.74 154.39 267.39C135.17 267.22 115.96 267.07 96.74 266.94C86.8 266.87 76.86 266.81 66.92 266.75C57.51 266.7 47.82 265.92 38.56 267.85C32.26 269.16 34.93 278.8 41.22 277.49Z" fill="#20BEFF"/>
<path d="M50.44 278.61L49.69 275.66L40.05 278.32C43.38 290.73 46.31 303.23 48.86 315.82C50 321.47 58.58 319.99 58.68 314.49C58.85 304.99 56.64 295.94 52.28 287.52C49.88 282.89 43.17 285.36 42.96 290.04C42.51 300.38 44.56 310.22 48.71 319.67C50.77 324.37 58.07 321.79 58.03 317.15C57.92 306.39 57.32 295.52 51.69 286.04C48.97 281.46 42.88 283.87 42.37 288.56C41.34 298.1 43.1 307.26 47.03 315.97C49.28 320.94 55.9599 317.83 56.3499 313.45C57.0599 305.4 56.03 297.46 53.32 289.85C51.68 285.24 45.22 284.97 43.68 289.85C40.68 299.31 40.95 309.39 44.64 318.62C46.23 322.6 53.4 324.08 54.28 318.62C56.49 304.92 57.55 291.05 53.45 277.59C52.06 273.05 44.98 272.62 43.81 277.59C40.57 291.33 40.72 305.34 44.3 319C45.47 323.47 53.16 324.05 53.94 319C56.12 304.9 56.83 290.75 55.83 276.51C55.45 271.17 47.37 269.38 46.01 275.18C42.68 289.41 45.04 304.18 52.93 316.52C55.06 319.84 61.25 319.81 62.07 315.33C64.26 303.38 64.15 291.5 61.69 279.59C60.52 273.95 51.96 275.41 51.87 280.92C51.67 292.54 53.56 303.98 57.58 314.89C59.07 318.93 66.4899 320.3 67.2199 314.89C68.8599 302.74 68.39 290.79 65.52 278.85C64.09 272.91 56.36 274.99 55.7 280.18C54.12 292.64 56.93 305.13 63.46 315.84C65.51 319.21 71.8499 319.09 72.5999 314.65C74.6499 302.53 74.09 290.46 70.62 278.65C69.34 274.3 61.7499 273.5 60.9799 278.65C59.17 290.74 61.48 302.66 68.4 312.84C70.55 316.01 76.7799 316.24 77.5399 311.65C79.3099 300.91 78.4399 290.27 74.3499 280.14C72.3099 275.08 64.78 275.51 64.53 281.47C64.19 289.73 65.09 298.05 67.45 305.99C69.37 312.43 71.75 319.37 77.76 323.04C80.35 324.62 84.4999 323.22 85.0999 320.05C87.8099 305.9 86.1799 292.03 80.4099 278.85C78.7499 275.06 71.9 275.92 71.27 280.04C70.01 288.31 70.23 296.61 72.71 304.66C74.33 309.9 77.1 319.23 84.15 318.61C91.69 317.94 91.58 307.66 91.51 302.05C91.4 293.46 89.17 285.26 85.39 277.59C83.48 273.73 77.22 274.75 76.25 278.78C74.54 285.92 74.42 293.39 76.56 300.47C78.27 306.13 80.98 312.2 87.19 313.8C89.87 314.49 92.53 312.93 93.34 310.31C95.69 302.74 95.55 294.6 92.63 287.2C90.51 281.82 85.05 273.27 78.27 278.29C69.15 285.05 76.2499 313.71 89.4699 309.03C96.3299 306.6 95.5 297.13 94.06 291.54C92.62 285.95 88.78 278.3 82.27 277.06C74.83 275.65 70.8399 282.31 72.1599 288.88C73.4799 295.45 78.57 300.76 85 303.16C87.75 304.19 90.19 301.98 91.15 299.67C95.43 289.35 91.27 277.84 82.42 271.51C80.33 270.01 76.7 271.04 75.58 273.3C72.84 278.85 74.6199 286.38 81.4799 287.48C88.34 288.58 93.8099 282.06 90.5399 275.81C87.5199 270.05 78.72 269.94 76.45 276.37C75.55 278.92 76.19 281.98 77.51 284.26C78.34 285.68 79.46 286.76 80.76 287.75C81.69 288.46 84.15 289.36 84.58 290.51C87.37 288.89 90.15 287.27 92.94 285.65C88.33 280.76 83.41 276.26 78.11 272.12C73.17 268.26 66.0899 274.87 71.0399 279.19C73.5299 281.37 76.1 283.16 79.12 284.55C84.39 286.98 88.77 281.19 85.18 276.7C84.34 275.65 83.4999 274.6 82.6599 273.55L79.12 282.09C86.48 282.42 92.6099 286.46 96.1599 292.85C98.8299 297.67 107.47 294.35 105.3 289C103.75 285.18 101.83 281.94 99.11 278.84C96.68 276.08 91.52 277.48 90.75 281.05C87.83 294.57 89.47 308.01 95.43 320.47C97.3 324.39 103.59 323.27 104.57 319.28C107.87 305.85 107.81 292.11 104.37 278.72C103.17 274.03 90.3687 275.5 94.7299 278.72C99.0912 281.94 93.47 304.69 99.8 316.32C101.82 320.02 107.97 319.3 108.94 315.13C111.76 302.93 111.26 290.45 107.18 278.59C105.33 273.2 97.74 274.22 97.36 279.92C96.47 293.16 98.91 305.94 104.14 318.1C105.49 321.24 109.87 321.03 111.99 319.11C116.58 314.97 116.87 308.81 116.78 303C116.67 295.78 115.56 288.59 113.71 281.62C112.18 275.82 104.46 277.62 103.89 282.95C102.69 294.08 105.13 305.04 110.66 314.75C112.68 318.3 118.95 317.86 119.8 313.56C122.18 301.45 121.94 289.33 118.92 277.35C117.5 271.7 109.39 273.19 109.1 278.68C108.53 289.31 110.81 299.53 115.51 309.05C117.49 313.06 123.49 311.75 124.65 307.86C127.33 298.82 127.08 289.32 123.73 280.49C122.13 276.28 115.21 275.22 114.09 280.49C111.77 291.41 113.08 302.08 117.87 312.15C119.64 315.88 126.3 315.12 127.01 310.96C128.47 302.34 128.2 293.58 125.37 285.24C123.37 279.36 118.49 270.41 110.8 273.93C103.11 277.45 105.95 289.92 107.81 296C109.42 301.27 114.57 312.54 121.5 305.73C126.7 300.62 123.89 289.11 121.63 283.26C119.53 277.82 113.23 268.21 106.93 275.36C102.59 280.29 104.92 290.32 106.88 295.82C109.16 302.24 113.55 310.2 119.69 313.7C123.14 315.67 127.13 314.83 129.05 311.23C130.86 307.84 130.15 302.87 129.98 299.16C129.55 289.97 127.61 281.49 121.83 274.17C118.78 270.31 113.77 274.01 113.29 277.71C112.27 285.6 112.84 293.66 115.14 301.29C116.74 306.6 119.91 317.69 126.93 317.66C134.3 317.63 134.84 308.37 135.23 303.06C135.85 294.57 134.75 286.03 132.36 277.88C130.66 272.09 123.23 273.89 122.54 279.21C121.05 290.68 123.4 302.05 128.92 312.18C131 315.99 136.95 315.06 138.06 310.99C141.03 300.05 140.57 288.63 136.44 278.06C134.32 272.64 127.34 273.74 126.62 279.39C125.1 291.4 127.27 303.17 132.44 314.07C133.99 317.34 139.52 317.33 141.07 314.07C146.74 302.17 146.88 289.42 141.7 277.33C139.57 272.37 132.67 275.45 132.38 279.85C131.68 290.58 134 300.95 138.92 310.49C141.03 314.59 146.71 313.08 148.06 309.3C151.72 299 150.98 288.37 146.72 278.4C144.6 273.43 137.69 276.52 137.4 280.92C136.68 291.86 138.31 302.69 142.27 312.92C144.09 317.62 150.1 317.67 151.91 312.92C156.45 301.02 155.64 288.32 150.41 276.8C148.35 272.27 140.82 274.55 141.09 279.32C141.53 287.11 142.64 294.87 144.68 302.4C146.2 308.04 147.8 314.63 154.19 316.29C156.62 316.92 159.86 315.49 160.34 312.8C162.27 302.03 161.96 291.36 159.2 280.76C157.71 275.02 149.86 276.7 149.38 282.09C148.44 292.7 150 303.25 154 313.11C155.68 317.25 162.45 318.43 163.64 313.11C166.47 300.49 165.09 288.04 159.84 276.26C157.56 271.14 151.06 274.55 150.52 278.78C148.99 290.75 152.14 302.91 159.22 312.68C161.87 316.34 166.72 315.6 168.36 311.49C172.99 299.87 170.43 287.15 162.71 277.56C159.69 273.8 154.56 277.3 154.17 281.1C153.13 291.39 156.5 301.07 163.04 308.97C165.58 312.04 170.34 310.04 171.4 306.76C175.09 295.34 171.58 285.87 166.12 275.83C163.26 270.56 156.03 274.38 156.98 279.68C158.78 289.78 161.96 299.41 166.3 308.71C168.1 312.56 174.59 311.57 175.44 307.52C177.23 298.98 175.66 290.29 170.29 283.31C167.96 280.29 162.07 279.8 161.15 284.5C159.62 292.33 159.47 300.17 161.04 308.01C162.03 312.94 164.21 322.35 171.36 320.49C177.59 318.87 178.75 308.5 179.48 303.33C180.59 295.46 179.99 287.59 177.89 279.94C176.63 275.32 169.36 275.04 168.25 279.94C165.6 291.67 167.01 303.3 172.28 314.1C173.81 317.24 179.47 317.51 180.91 314.1C185.57 303.08 185.27 291.36 179.48 280.79C177.38 276.95 171.5 277.94 170.34 281.98C166.98 293.76 169.32 308.82 178.67 317.48C182.84 321.34 189.25 320.22 190.74 314.33C192.51 307.34 190.62 298.15 189.56 291.15C188.75 285.79 188.42 276.66 181.8 275.19C175.68 273.84 173.48 279.91 173.68 284.78C174.15 296.03 176.61 308.45 186.99 314.66C189.66 316.26 193.63 314.82 194.33 311.67C196.66 301.25 196.37 285.9 188.74 277.4C185.24 273.5 178.98 273.71 177 279.03C175.22 283.82 177.21 290.95 178.3 295.74C179.72 302.03 185.65 324.69 196.22 316.84C200.49 313.67 200.45 306.39 200.43 301.57C200.41 294.83 199 288.17 196.42 281.96C194.35 276.98 186.8 277.27 186.6 283.29C186.23 294.6 188.69 305.47 193.62 315.63C195.62 319.75 201.51 318.21 202.76 314.44C206.64 302.73 204.37 290.62 201.79 278.89C200.58 273.39 191.8 274.6 191.97 280.22C192.32 291.68 194.62 302.83 199.03 313.42C200.81 317.68 207.25 318.62 208.67 313.42C211.72 302.3 210.07 288.85 202.41 279.81C199.12 275.93 193.28 275.29 190.76 280.41C188.6 284.79 188.66 291.65 189.56 296.34C190.46 301.03 193.47 306.25 198.34 307.46C204.27 308.93 207.54 303.75 206.85 298.43C206.16 293.11 203.11 287.36 198.61 284.45C194.11 281.54 188.11 283.22 186.61 288.67C185.73 291.88 188.2 294.91 191.43 295C195.24 295.11 198.47 292.64 199.04 288.73C199.68 284.41 196.28 280.21 194.26 276.73L189.94 284.25C196.88 284.88 203.82 285.51 210.76 286.14L205.76 281.14C203.92 295.77 205.25 310.51 209.54 324.61C210.85 328.91 218.44 329.81 219.18 324.61C221.24 310.21 221.54 295.85 219.76 281.41C218.99 275.15 210.12 274.82 209.76 281.41C209.05 294.27 210.95 307.05 215.41 319.14C216.97 323.35 223.99 324.4 225.05 319.14C227.52 306.91 227.43 294.67 224.72 282.49C223.41 276.6 215.44 278.57 214.9 283.82C213.9 293.45 215.26 303.07 218.92 312.04C219.84 314.3 222.34 316.65 225.07 315.53C231.19 313.03 232.01 307.55 232.41 301.51C232.94 293.58 232.08 285.65 230.26 277.92C229.16 273.25 218.992 273.06 218.012 277.92C215.622 289.74 219.73 301.33 225.04 312.15C227.16 316.47 232.7 314.51 234.18 310.96C238.46 300.68 237.54 289.26 232.28 279.52C230.32 275.89 223.98 276.47 223.14 280.71C220.9 292.03 223.86 303.04 231.56 311.65C234.2 314.6 238.81 312.81 239.92 309.44C242.86 300.52 240.95 291.47 238.63 282.64C237.46 278.19 229.72 277.57 228.99 282.64C227.46 293.24 229.38 303.56 235.35 312.55C237.66 316.03 243.33 315.69 244.49 311.36C247.23 301.07 247.08 290.52 243.97 280.33C242.32 274.93 234.32 275.97 234.15 281.66C233.82 292.72 235.52 303.62 239.26 314.03C240.85 318.45 247.58 319.1 248.9 314.03C251.91 302.46 251.96 290.64 249.08 279.04C247.97 274.57 240.12 273.99 239.44 279.04C238.03 289.52 239.56 299.42 244.42 308.85C246.04 312 251.51 312.23 253.05 308.85C257.57 298.96 257.57 288.65 253.03 278.76C250.71 273.71 244.23 276.99 243.71 281.28C242.91 287.9 243.97 313.46 256.02 310.1C261.12 308.68 261.7 301.51 261.96 297.22C262.34 290.82 260.78 284.69 258.05 278.94C256.23 275.12 249.75 276.05 248.91 280.13C247.52 286.87 246.06 313.44 258.99 310.46C264.63 309.16 265.24 301.42 265.62 296.8C266.17 290.18 265.01 283.5 262.51 277.37C260.83 273.25 254.04 272.03 252.87 277.37C250.47 288.31 251.99 299.2 257.4 309.02C259.45 312.74 265.52 311.98 266.54 307.83C268.87 298.28 268.92 288.64 266.72 279.06C265.61 274.23 258.26 274.36 257.08 279.06C255.34 285.98 256.23 292.68 259.73 298.9C261.86 302.68 267.72 301.79 268.87 297.71C270.76 291.01 270.76 284.3 268.87 277.6C267.4 272.38 258.44 273.15 259.05 278.93C259.84 286.37 260.63 293.81 261.41 301.26C261.58 302.88 261.75 304.5 261.92 306.11L262.23 309.02C262.23 310.66 262.57 310.35 263.23 308.07C263.05 307.64 253.78 308.72 252.8 308.78C246.28 309.23 246.46 318.08 252.8 318.78C258.55 319.41 263.55 316.54 266.54 311.72C267.84 309.63 267.19 305.93 264.75 304.88C259.91 302.8 255.14 301.74 249.85 302.19C244 302.68 243.35 309.85 248.52 312.01C252.33 313.6 256.31 313.62 260.16 312.14C263.39 310.9 265.45 306.49 262.37 303.78C258.04 299.97 253.18 297.44 247.45 296.53C243.69 295.93 240.38 298.69 241.3 302.68C243.45 311.97 256.52 311.29 259.73 303.13C263.22 294.26 255.73 281.82 245.79 282.14C236.48 282.45 231.63 293.75 232.98 301.86C234.54 311.24 247.74 313.65 251.46 304.3C255.18 294.95 244.22 286.67 235.71 291.25C227.95 295.43 226.7 308.27 235.72 311.87C239.98 313.57 244.63 312.04 247.61 308.68C251.38 304.41 251.47 298.15 249.71 292.98C245.94 281.85 233.35 284.9 230.27 294.8C228.7 299.85 229.82 305.58 234.19 308.84C238.25 311.87 244.16 311.99 247.65 307.98C249.2 306.19 250.09 303.76 250.03 301.38C250.02 300.79 249.86 299.67 249.67 299.02C249.41 298.15 246.9 294.98 248.29 296.8C246.76 294.79 245.86 292.95 242.89 292.89C240.61 292.85 238.8 294.07 237.66 295.97C234.33 301.49 242.97 306.53 246.29 301.02L246.59 300.52L243.6 302.82L242.14 302.94L238.65 299.45C238.77 299.79 239.08 301.1 239.35 301.19C239.96 302.46 240.24 302.58 240.2 301.57C240.37 301.11 240.28 300.71 239.92 300.37C239.92 299.3 239.5 298.59 239.98 297.37C240.17 296.63 240.56 296.01 241.17 295.52L240.29 296.25C240.52 297.15 241.29 303.25 239.39 302.47C239.25 302.41 239.34 301.27 239.43 301.11C240.19 299.8 240.95 300.52 241.9 299.97C242.15 299.83 241.69 300.79 242.24 300.29C242.87 299.72 242.7 298.48 242.88 297.75C243.25 296.25 243.55 293.83 244.91 292.81C248.83 289.85 250.51 298.13 250.94 299.99L244.79 306.14C248.82 306.78 252.2 308.1 255.29 310.82L257.5 302.46C255.11 303.38 253.54 303.32 251.18 302.33L249.85 312.15C253.27 311.86 256.5 312.1 259.7 313.47L257.91 306.63C256.64 308.68 255.06 308.98 252.8 308.74V318.74C259.48 318.28 272 320.1 272.35 310.57C272.53 305.64 271.31 300.3 270.79 295.38C270.21 289.88 269.63 284.38 269.04 278.88L259.22 280.21C260.64 285.25 260.64 289.96 259.22 295L268.36 293.81C266.16 289.9 265.63 286.03 266.72 281.68H257.08C258.88 289.51 258.8 297.32 256.9 305.13L266.04 303.94C261.95 296.52 260.7 288.29 262.52 280H252.88C254.42 283.77 255.53 287.63 255.73 291.72C255.81 293.39 255.79 295.1 255.64 296.77C255.53 298 255.33 299.22 255.04 300.43C254.37 302.28 254.41 302.57 255.15 301.3L259 300.8C260.21 301.12 258.71 297.44 258.66 297.24C258.29 295.71 258.05 294.17 257.92 292.6C257.64 289.28 257.9 286.03 258.57 282.77C255.52 283.17 252.48 283.57 249.43 283.96C250.92 287.1 251.82 290.46 252.01 293.94C252.1 295.65 252.04 297.4 251.78 299.09C251.63 300.05 250.4 302.39 251.17 301.72L254.71 300.26L253.77 300.18L257.31 301.64C255.04 299.73 254.34 295.06 253.83 292.24C253.17 288.59 253.3 284.91 253.73 281.25C250.62 282.09 247.52 282.93 244.41 283.77C247.32 290.11 247.34 297.42 244.43 303.76H253.06C249.55 296.95 248.06 289.29 249.08 281.66H239.44C241.9 291.55 241.83 301.48 239.26 311.34H248.9C245.43 301.69 243.84 291.87 244.15 281.62L234.33 282.95C236.95 291.5 237.16 300.01 234.85 308.66L243.99 307.47C239.6 300.86 237.49 293.2 238.64 285.26H229C230.87 292.4 232.67 299.51 230.29 306.75L238.65 304.54C233.45 298.73 231.29 290.99 232.8 283.33C229.75 283.73 226.71 284.13 223.66 284.52C227.77 292.11 227.84 300.35 224.56 308.25C227.61 307.85 230.65 307.45 233.7 307.06C229.63 298.76 228.46 289.59 230.29 280.53H220.65C221.77 285.28 222.47 290.03 222.58 294.92C222.63 297.1 222.6 299.28 222.44 301.46C222.35 302.71 221.27 306.32 222.44 305.84L228.59 309.33C225.21 301.04 224.01 292.68 224.93 283.77L215.11 285.1C217.42 295.48 217.55 306.01 215.44 316.43H225.08C220.89 305.09 219.12 293.43 219.79 281.36H209.79C211.45 294.83 211.49 308.46 209.57 321.91H219.21C215.15 308.57 214.05 294.92 215.78 281.09C216.14 278.24 213.19 276.31 210.78 276.09C203.84 275.46 196.9 274.83 189.96 274.2C186.07 273.85 183.88 278.67 185.64 281.72C186.26 282.79 189.35 286.62 188.82 287.88L191.12 284.89L191.45 284.94L196.27 291.27C193.27 291.92 192.68 292.86 194.5 294.1C194.99 294.71 195.41 295.37 195.76 296.06C196.09 296.69 197.43 299.15 197.09 299.8L200.08 297.5C200.91 297.21 199.71 295.62 199.51 294.91C199.19 293.81 199.14 292.68 199.13 291.54C199.12 290.4 199.18 289.2 199.29 288.03C199.4 286.86 200.59 284.82 198.92 285.81L195.07 286.31C195.7 286.48 197.13 289.85 197.45 290.52C198.49 292.67 199.22 294.99 199.69 297.33C200.59 301.82 200.26 306.3 199.06 310.69H208.7C204.62 300.91 202.32 290.75 202 280.15L192.18 281.48C194.39 291.51 196.47 301.7 193.15 311.71L202.29 310.52C198.12 301.93 196.32 292.74 196.63 283.22L186.81 284.55C188.61 288.89 189.93 293.38 190.32 298.09C190.51 300.35 190.52 302.66 190.34 304.92C190.26 306.18 190.11 307.43 189.87 308.68C193 309.19 194.03 308.69 192.96 307.18C192.88 305.48 191.01 302.92 190.4 301.27C189.61 299.12 188.94 296.92 188.37 294.7C187.8 292.48 187.33 290.23 187.01 287.96C186.84 286.7 186.71 285.43 186.62 284.16C186.84 282.25 186.66 281.91 186.09 283.14L182.55 284.6C181.04 283.61 180.9 283.91 182.12 285.51C182.68 286.59 183.16 287.71 183.55 288.87C184.28 290.93 184.87 293.08 185.22 295.25C185.97 299.83 185.72 304.45 184.71 308.96L192.05 305.97C188.16 303.64 186.29 299.84 185.18 295.56C184.66 293.56 184.31 291.52 184.08 289.48C183.95 288.35 183.86 287.21 183.78 286.07L183.7 284.72C183.98 282.6 183.13 282.7 181.15 285.04L177.61 283.58C178.93 284.72 178.99 288.32 179.29 289.95C179.79 292.68 180.18 295.41 180.46 298.17C180.72 300.73 180.89 303.3 180.98 305.87C181.03 307.16 181.07 311.27 181.05 311.29L184.59 309.83C185.98 309.86 184.74 309.48 184.17 308.6C183.47 307.51 182.74 306.49 182.11 305.35C180.95 303.25 180.1 301.01 179.54 298.67C178.4 293.96 178.66 289.23 179.98 284.59C176.93 284.99 173.89 285.39 170.84 285.78C174.75 292.92 175.48 301.42 172.27 309H180.9C176.85 300.69 175.84 291.55 177.88 282.55H168.24C169.6 287.51 170.24 292.46 170.02 297.61C169.91 300.08 169.61 302.51 169.08 304.92C168.86 305.92 168.16 310.85 167.5 311.3L171.35 310.8C172.43 311.05 170.79 305.91 170.67 305.31C170.31 303.46 170.06 301.59 169.94 299.7C169.67 295.47 169.97 291.27 170.78 287.11L161.64 288.3C165.38 293.16 167.06 298.71 165.79 304.8L174.93 303.61C170.96 295.11 168.26 286.2 166.61 276.97L157.47 280.82C161.72 288.63 164.64 295.11 161.75 304.04L170.11 301.83C165.2 295.9 163.4 288.61 164.17 281.03L155.63 284.57C161.2 291.5 161.93 300.69 158.71 308.77L167.85 307.58C161.64 299.02 159.18 289.21 160.51 278.73C157.4 279.57 154.3 280.41 151.19 281.25C155.29 290.43 156.17 300.61 153.98 310.39H163.62C159.91 301.24 158.49 291.87 159.36 282.03L149.54 283.36C151.83 292.16 152.28 301.11 150.68 310.08L156.83 306.59C154.74 306.05 153.41 296.22 153.01 294.32C151.95 289.34 151.36 284.33 151.07 279.26L141.75 281.78C145.89 290.9 145.78 300.92 142.24 310.19H151.88C148.2 300.7 146.7 291.01 147.37 280.85C144.26 281.69 141.16 282.53 138.05 283.37C141.26 290.88 141.09 298.95 138.39 306.56C141.44 306.16 144.48 305.76 147.53 305.37C143.39 297.33 141.77 288.78 142.36 279.78C139.25 280.62 136.15 281.46 133.04 282.3C136.69 290.82 136.38 300.61 132.41 308.95H141.04C136.61 299.62 135.29 289.52 136.58 279.32L126.76 280.65C130.28 289.66 130.92 298.91 128.38 308.27L137.52 307.08C132.79 298.4 131.24 288.93 132.51 279.16L122.69 280.49C124.17 285.53 125.14 290.61 125.33 295.87C125.43 298.55 125.38 301.24 125.13 303.91C125.02 305.13 124.48 306.71 124.62 307.9C124.87 310.12 128.98 310.06 128.65 307.72C128.37 305.71 126.29 303.04 125.57 301.06C124.69 298.62 123.99 296.11 123.51 293.56C122.51 288.3 122.58 282.96 123.26 277.68L114.72 281.22C117.69 284.98 119.01 289.78 119.59 294.46C120.07 298.3 121.11 304.38 119.63 307.95L121.93 304.96L121.01 305.52L124.86 305.02C121.43 304.31 117.92 296.74 116.8 293.92C115.96 291.82 115.32 289.57 114.99 287.34C114.84 286.3 114.76 285.25 114.73 284.2C114.71 283.5 114.71 282.79 114.73 282.09C114.86 281.2 114.69 281.26 114.2 282.25L110.35 282.75C109.99 282.16 110.06 282.3 110.57 283.17C111.01 283.92 111.41 284.68 111.77 285.47C112.42 286.92 112.89 288.45 113.28 289.99C113.67 291.53 113.94 293.05 114.04 294.65C114.16 296.58 113.03 298.1 115.4 297.77L119.25 298.27C120.23 298.9 118.28 295.8 117.97 294.98C117.36 293.31 116.88 291.58 116.54 289.84C116.22 288.23 116.6 285.6 115.99 284.09C116.51 281.69 115.83 281.61 113.98 283.85C114.41 284.53 114.76 285.25 115.01 286.02C117.94 292.96 118.58 300.87 117.33 308.24L126.47 307.05C122.89 299.53 121.97 291.24 123.7 283.1H114.06C116.83 290.4 117.2 297.66 114.98 305.15L124.12 303.96C120.18 295.98 118.6 287.5 119.07 278.64L109.25 279.97C111.82 290.16 112.16 300.54 110.13 310.86C113.18 310.46 116.22 310.06 119.27 309.67C114.55 301.37 112.85 292.38 113.87 282.91L104.05 284.24C105.36 289.18 106.3 294.16 106.62 299.27C106.85 302.94 107.94 309.26 104.91 312L112.76 313.01C108.25 302.51 106.58 291.25 107.35 279.88L97.53 281.21C101.03 291.4 101.72 301.92 99.2899 312.43L108.43 311.24C103.4 302.01 101.97 291.58 104.37 281.35H94.7299C97.7199 293.02 97.8 304.9 94.93 316.6L104.07 315.41C99.32 305.49 98.08 294.43 100.39 283.69L92.03 285.9C93.55 287.64 94.78 289.5 95.65 291.65L104.79 287.8C99.5199 278.29 89.92 272.57 79.11 272.08C74.35 271.87 73.08 277.5 75.57 280.62C76.41 281.67 77.25 282.72 78.09 283.77L84.15 275.92C81.91 274.89 79.9599 273.76 78.0999 272.13L71.03 279.2C76.33 283.34 81.25 287.83 85.86 292.73C89.14 296.22 95.9899 292.62 94.2199 287.87C93.3699 285.6 92.3299 283.96 90.4799 282.38C89.9499 281.92 84.3799 278.06 84.2199 278.37L77.38 280.16C82.86 284.08 83.98 291.09 81.51 297.03L87.6599 293.54C85.4499 292.72 83.6 291.06 82.59 288.91C82.25 288.17 82.22 285.46 81.3 286.68C80.56 287.66 81.93 288.52 82.57 289.62C83.97 291.99 84.75 294.79 84.94 297.53C85.02 298.72 84.06 301.66 85.95 299.43C87.42 297.7 86.24 297.67 85.37 295.5C84.26 292.74 84.85 290.15 84.38 287.41L84.7199 285.89L81.26 286.8C81.19 287.09 82.96 289.95 83.18 290.5C85.49 296.08 85.45 301.97 83.68 307.68L89.83 304.19C86.94 303.44 85.8099 296.95 85.3499 294.44C84.5499 290.1 84.85 285.74 85.87 281.47C82.82 281.87 79.7799 282.27 76.7299 282.66C78.87 286.99 80.4 291.62 81.08 296.41C81.43 298.86 81.5399 301.35 81.4799 303.82C81.4499 304.99 81.38 306.16 81.27 307.32C80.28 309.56 80.87 310.16 83.02 309.1C85.24 309.37 85.6599 308.73 84.2899 307.2C83.7399 306.05 83.27 304.86 82.86 303.65C82.11 301.51 81.51 299.29 81.09 297.06C80.21 292.35 80.17 287.46 80.89 282.73C77.84 283.13 74.8 283.53 71.75 283.92C76.36 294.44 77.59 306.15 75.43 317.41L82.77 314.42C78.54 311.84 77.19 304.31 76.12 299.86C74.66 293.81 74.24 287.69 74.5 281.49L64.68 282.82C68.07 291.23 69.35 300.03 67.87 309.02L77.01 307.83C71.71 300.02 69.1899 290.76 70.5999 281.34H60.96C63.9 291.35 64.68 301.71 62.94 312.03L72.08 310.84C66.38 301.48 64.31 291.08 65.69 280.23L55.87 281.56C58.29 291.63 58.96 302 57.57 312.28H67.21C63.48 302.15 61.6699 291.77 61.8499 280.97L52.03 282.3C54.11 292.36 54.26 302.61 52.41 312.72L61.55 311.53C55.09 301.44 52.9 289.59 55.64 277.9L45.82 276.57C46.76 289.87 46.33 303.21 44.29 316.4H53.93C50.8 304.47 50.61 292.31 53.44 280.3H43.8C47.37 292 46.56 304.09 44.63 316.02H54.27C51.17 308.28 50.78 300.54 53.31 292.56H43.67C46.12 299.43 46.98 306.24 46.34 313.51L55.6599 310.99C52.4499 303.88 51.53 296.34 52.36 288.63L43.04 291.15C47.76 299.09 47.93 308.23 48.02 317.22L57.34 314.7C53.91 306.89 52.58 298.61 52.95 290.12C49.84 290.96 46.74 291.8 43.63 292.64C47.2 299.52 48.81 306.83 48.67 314.56L58.49 313.23C55.95 300.64 53.01 288.13 49.68 275.73C48.01 269.52 38.45 272.14 40.04 278.39L40.79 281.34C42.38 287.57 52.02 284.93 50.43 278.68L50.44 278.61Z" fill="#20BEFF"/>
<path d="M15.6399 28.5396C23.1299 21.9596 29.9699 14.7596 36.1499 6.93962C38.1199 4.43962 34.6099 0.879616 32.6099 3.39962C26.4299 11.2296 19.5999 18.4296 12.0999 24.9996C9.67988 27.1296 13.2199 30.6496 15.6399 28.5396Z" fill="#20BEFF"/>
<path d="M16.7299 317.67C22.6099 242.02 13.9898 166.31 15.7998 90.6097C16.3098 69.1197 19.1299 47.3797 16.7599 25.9397C16.4099 22.7797 11.4099 22.7397 11.7599 25.9397C13.8399 44.8197 11.6599 63.8097 11.0199 82.7197C10.3799 101.63 10.4498 120.25 10.8298 139C11.5998 176.87 13.6599 214.72 13.8499 252.6C13.9599 274.31 13.4099 296.02 11.7299 317.67C11.4799 320.88 16.4799 320.86 16.7299 317.67Z" fill="#20BEFF"/>
<path d="M171.47 277.21C168.51 277.32 166.95 279.39 167.47 282.26C167.6 282.98 168.39 283.23 169.01 283.13C172.14 282.64 173.26 278.54 170.16 276.94C166.16 274.88 163.71 279.42 163.61 282.64C163.59 283.29 164.2 283.93 164.86 283.89C167.74 283.72 174.59 279.96 171.52 276.24C168.1 272.1 163.21 279.32 162.85 282.24C162.75 283.08 163.73 283.63 164.43 283.45C166.94 282.8 169.46 282.16 171.97 281.51C174.62 280.83 179.37 278.8 181.93 280.46C184.49 282.12 185.21 284.22 188.64 284.97C192.07 285.72 196.09 285.07 199.67 284.75C204.89 284.28 210.11 283.82 215.33 283.35C216.75 283.22 217 281.4 215.66 280.89C213.59 280.11 211.59 279.59 209.41 279.27L209.08 281.73C215.17 281.5 221.12 280.68 227.05 279.25C228.49 278.9 228.06 276.9 226.72 276.79C224.44 276.62 222.7 277.08 220.79 278.35C219.72 279.06 220.18 280.57 221.42 280.68C225.77 281.06 229.77 280.61 233.92 279.29L232.96 277.01C231.34 278.22 229.71 279.43 228.09 280.64C227.15 281.34 227.38 282.96 228.72 282.97C232.94 283 236.75 282.18 240.61 280.51L239.35 278.35L236.85 279.88C235.65 280.61 236.42 282.54 237.81 282.16C240.27 281.5 242.32 280.62 244.5 279.3C245.53 278.67 245.14 276.93 243.87 276.97C239.77 277.09 235.76 277.54 231.74 278.32C230.31 278.6 230.71 280.73 232.07 280.78C233.9 280.84 235.45 280.68 237.22 280.28C238.59 279.97 238.3 277.77 236.89 277.82C234.27 277.92 232.66 278.6 230.79 280.44C230.24 280.98 230.33 282.03 231.04 282.4C233.78 283.83 236.19 284.32 239.27 283.91C240.84 283.7 240.86 281.2 239.27 281.41C236.69 281.75 234.66 281.48 232.3 280.24L232.55 282.2L236.88 280.31L236.55 277.85C235.08 278.28 233.58 278.42 232.07 278.26L232.4 280.72C236.2 279.98 240 279.57 243.87 279.46L243.24 277.13C241.3 278.32 239.35 279.16 237.15 279.74L238.11 282.02L240.61 280.49C242.02 279.63 240.79 277.71 239.35 278.33C235.91 279.82 232.44 280.48 228.72 280.45L229.35 282.78C230.97 281.57 232.6 280.36 234.22 279.15C235.27 278.37 234.72 276.4 233.26 276.87C229.34 278.12 225.52 278.53 221.43 278.17L222.06 280.5C223.42 279.36 224.98 278.95 226.72 279.28L226.39 276.82C220.69 278.19 214.94 278.99 209.08 279.21C207.75 279.26 207.29 281.46 208.75 281.67C210.94 281.99 212.94 282.5 215 283.29L215.33 280.83C210.11 281.3 204.89 281.76 199.67 282.23C194.45 282.7 189.13 283.84 184.9 280.08C182.71 278.14 181.89 276.88 178.67 277.26C173.71 277.84 168.6 279.77 163.76 281.02L165.34 282.23C170.52 278.33 170.36 278.05 164.85 281.38L166.1 282.63L168.33 280.71L169.87 281.58L171.46 279.69C173.06 279.63 173.07 277.13 171.46 277.19L171.47 277.21Z" fill="#20BEFF"/>
<path d="M17.87 32.9395C24.22 27.6795 30.22 22.0295 35.85 16.0095C36.95 14.8395 35.18 13.0595 34.08 14.2395C28.44 20.2695 22.45 25.9095 16.1 31.1695C14.86 32.1995 16.64 33.9595 17.87 32.9395Z" fill="#20BEFF"/>
<path d="M17.3798 41.5601C23.3198 35.0301 29.8598 29.1801 37.0498 24.0601C38.3498 23.1301 37.0998 20.9601 35.7898 21.9001C28.4298 27.1501 21.6898 33.1001 15.6098 39.7901C14.5298 40.9801 16.2898 42.7501 17.3798 41.5601Z" fill="#20BEFF"/>
<path d="M17.63 49.6302C23.75 43.1902 30.16 37.0601 36.86 31.2301C38.08 30.1701 36.3 28.4102 35.09 29.4602C28.39 35.2902 21.98 41.4201 15.86 47.8601C14.75 49.0301 16.52 50.8002 17.63 49.6302Z" fill="#20BEFF"/>
<path d="M15.6098 58.6097C22.4398 52.2897 29.2698 45.9797 36.0998 39.6597C37.2798 38.5697 35.5098 36.7997 34.3298 37.8897C27.4998 44.2097 20.6698 50.5197 13.8398 56.8397C12.6598 57.9297 14.4298 59.6997 15.6098 58.6097Z" fill="#20BEFF"/>
<path d="M13.86 65.1597C17.49 64.4597 20.14 61.0997 22.76 58.7197C26.34 55.4697 29.93 52.2197 33.51 48.9797C34.7 47.8997 32.93 46.1297 31.74 47.2097C28.87 49.8097 26.01 52.4097 23.14 55.0097C20.27 57.6097 16.9 62.0397 13.19 62.7597C11.61 63.0597 12.28 65.4697 13.85 65.1697L13.86 65.1597Z" fill="#20BEFF"/>
<path d="M14.8298 75.7396C21.1798 68.9096 27.9198 62.4996 35.0498 56.4896C36.2798 55.4496 34.5098 53.6896 33.2798 54.7196C26.1498 60.7296 19.4098 67.1496 13.0598 73.9696C11.9698 75.1496 13.7298 76.9196 14.8298 75.7396Z" fill="#20BEFF"/>
<path d="M15.7499 81.2395C22.4599 75.0995 29.18 68.9695 35.89 62.8295C37.08 61.7395 35.3099 59.9795 34.1199 61.0595C27.4099 67.1995 20.69 73.3295 13.98 79.4695C12.79 80.5595 14.5599 82.3195 15.7499 81.2395Z" fill="#20BEFF"/>
<path d="M15.64 92.1198C23.02 84.1898 30.7799 76.6498 38.9299 69.4998C40.1399 68.4398 38.37 66.6698 37.16 67.7298C29.02 74.8798 21.2599 82.4198 13.8699 90.3498C12.7699 91.5298 14.54 93.2998 15.64 92.1198Z" fill="#20BEFF"/>
<path d="M16.0899 100.86C23.3099 93.8102 30.7599 87.0202 38.4299 80.4702C39.6599 79.4202 37.8799 77.6602 36.6599 78.7002C28.9799 85.2502 21.54 92.0402 14.32 99.0902C13.17 100.22 14.9299 101.98 16.0899 100.86Z" fill="#20BEFF"/>
<path d="M12.6599 112.13C20.1899 106.24 27.1399 99.72 33.4899 92.58C34.5599 91.38 32.7899 89.61 31.7199 90.81C25.3599 97.95 18.4199 104.47 10.8899 110.36C9.61988 111.35 11.3999 113.11 12.6599 112.13Z" fill="#20BEFF"/>
<path d="M16.0398 119.17C22.8598 112.68 29.6398 106.15 36.3598 99.5604C37.5098 98.4304 35.7398 96.6604 34.5898 97.7904C27.8698 104.38 21.0898 110.92 14.2698 117.4C13.0998 118.51 14.8698 120.28 16.0398 119.17Z" fill="#20BEFF"/>
<path d="M14.6599 129.29C22.1199 122.82 29.5099 116.29 36.8399 109.67C38.0399 108.59 36.2599 106.83 35.0699 107.9C27.7399 114.51 20.3499 121.05 12.8899 127.52C11.6699 128.58 13.4499 130.34 14.6599 129.29Z" fill="#20BEFF"/>
<path d="M15.5598 137.53C21.7598 132.25 27.8799 126.88 33.9199 121.41C35.1199 120.33 33.3398 118.56 32.1498 119.64C26.1098 125.11 19.9899 130.48 13.7899 135.76C12.5599 136.8 14.3398 138.57 15.5598 137.53Z" fill="#20BEFF"/>
<path d="M15.9899 148.46C21.5299 142.65 27.3799 137.18 33.5399 132.04C34.7799 131.01 32.9999 129.25 31.7699 130.27C25.6099 135.41 19.7599 140.89 14.2199 146.69C13.1099 147.85 14.8799 149.63 15.9899 148.46Z" fill="#20BEFF"/>
<path d="M16.2699 157.469C21.8799 151.129 27.9999 145.319 34.6399 140.059C35.8999 139.059 34.1199 137.299 32.8699 138.289C26.2299 143.549 20.1099 149.349 14.4999 155.699C13.4399 156.899 15.1999 158.679 16.2699 157.469Z" fill="#20BEFF"/>
<path d="M16.9598 167.77C22.3998 161.6 28.0299 155.62 33.8499 149.82C34.9899 148.68 33.2198 146.92 32.0798 148.05C26.2598 153.85 20.6199 159.84 15.1899 166C14.1299 167.2 15.8898 168.98 16.9598 167.77Z" fill="#20BEFF"/>
<path d="M17.2399 177.71C22.4099 171.73 27.7299 165.89 33.1999 160.18C34.3099 159.02 32.5499 157.25 31.4299 158.41C25.9599 164.12 20.6399 169.96 15.4699 175.94C14.4199 177.15 16.1799 178.93 17.2399 177.71Z" fill="#20BEFF"/>
<path d="M18.5898 184.57C23.8698 178.39 29.4998 172.55 35.4698 167.04C36.6598 165.95 34.8798 164.18 33.6998 165.27C27.7298 170.78 22.0998 176.62 16.8198 182.8C15.7798 184.02 17.5398 185.79 18.5898 184.57Z" fill="#20BEFF"/>
<path d="M17.7298 195.68C22.5398 189.21 28.0398 183.36 34.1498 178.11C35.3698 177.06 33.5998 175.3 32.3798 176.34C26.0998 181.74 20.5198 187.78 15.5698 194.42C14.6098 195.71 16.7798 196.96 17.7298 195.68Z" fill="#20BEFF"/>
<path d="M17.4199 207.68L25.6699 197.45L29.7999 192.34C31.0799 190.75 32.8299 187.6 34.9699 187.1C36.5299 186.73 35.8699 184.32 34.3099 184.69C30.6099 185.57 28.2199 190.36 25.9799 193.13C22.5399 197.39 19.0999 201.65 15.6599 205.91C14.6599 207.15 16.4199 208.93 17.4299 207.68H17.4199Z" fill="#20BEFF"/>
<path d="M17.4099 218.31L37.2099 193.58C38.2099 192.34 36.4499 190.56 35.4399 191.81C28.8399 200.05 22.2399 208.29 15.6399 216.54C14.6399 217.78 16.3999 219.56 17.4099 218.31Z" fill="#20BEFF"/>
<path d="M17.8199 228.32C23.9699 219.3 30.7399 210.77 38.1199 202.73C39.2099 201.55 37.4399 199.77 36.3499 200.96C28.8199 209.16 21.9299 217.86 15.6599 227.05C14.7499 228.38 16.9199 229.63 17.8199 228.31V228.32Z" fill="#20BEFF"/>
<path d="M18.4099 238.09C24.6099 231.13 30.8099 224.16 37.0099 217.2C38.0799 216 36.3099 214.23 35.2399 215.43C29.0399 222.39 22.8399 229.36 16.6399 236.32C15.5699 237.52 17.3399 239.29 18.4099 238.09Z" fill="#20BEFF"/>
<path d="M17.9598 250.05C20.8598 246.6 23.8098 243.21 26.8398 239.88C28.1898 238.4 29.5498 236.94 30.9298 235.49C31.5698 234.81 34.9998 230.26 35.9098 230.23L34.6598 228.98V229.26C35.0898 228.84 35.5098 228.43 35.9198 228.01L35.7098 228.03C34.1198 228.15 34.0998 230.66 35.7098 230.53L35.9198 230.51C36.5698 230.46 37.1998 229.98 37.1698 229.26V228.98C37.1298 228.32 36.6098 227.71 35.9098 227.73C34.6998 227.77 34.1698 228.57 33.3298 229.41C31.3898 231.36 29.4998 233.36 27.6198 235.37C23.6898 239.57 19.8998 243.89 16.1898 248.29C15.1598 249.51 16.9198 251.29 17.9598 250.06V250.05Z" fill="#20BEFF"/>
<path d="M19.0098 257.49C24.2998 251.16 30.0698 245.29 36.2998 239.89C37.5198 238.84 35.7398 237.07 34.5298 238.12C28.2898 243.52 22.5298 249.39 17.2398 255.72C16.2198 256.95 17.9698 258.72 19.0098 257.49Z" fill="#20BEFF"/>
<path d="M19.1898 266.81C23.8498 260.79 29.1198 255.36 34.9998 250.53C36.2398 249.51 34.4698 247.75 33.2298 248.76C27.3598 253.6 22.0798 259.03 17.4198 265.04C16.4498 266.3 18.1998 268.08 19.1898 266.81Z" fill="#20BEFF"/>
<path d="M19.8099 274.829C24.9099 269.059 30.0099 263.299 35.1099 257.529C36.1699 256.329 34.4099 254.549 33.3399 255.759C28.2399 261.529 23.14 267.289 18.04 273.059C16.98 274.259 18.7399 276.039 19.8099 274.829Z" fill="#20BEFF"/>
<path d="M18.8999 284.48C24.8299 277.57 30.7599 270.65 36.6799 263.74C37.7199 262.52 35.9599 260.75 34.9099 261.97C28.9799 268.88 23.0499 275.8 17.1299 282.71C16.0899 283.93 17.8499 285.7 18.8999 284.48Z" fill="#20BEFF"/>
<path d="M19.6899 291.66C25.8599 285.29 32.0299 278.92 38.1999 272.55C39.3199 271.39 37.5499 269.62 36.4299 270.78C30.2599 277.15 24.0899 283.52 17.9199 289.89C16.7999 291.05 18.5699 292.82 19.6899 291.66Z" fill="#20BEFF"/>
<path d="M18.6498 302.54C24.4098 295.2 30.6498 288.3 37.3798 281.83C38.5398 280.71 36.7698 278.95 35.6098 280.06C28.8898 286.53 22.6498 293.43 16.8798 300.77C15.8998 302.02 17.6498 303.8 18.6498 302.54Z" fill="#20BEFF"/>
<path d="M17.88 313.26C23.01 306.35 28.84 300.08 35.32 294.42C36.53 293.36 34.76 291.6 33.55 292.65C26.9 298.45 20.97 304.91 15.72 311.99C14.76 313.28 16.93 314.53 17.88 313.25V313.26Z" fill="#20BEFF"/>
<path d="M23.6899 315.9C27.4799 310.52 32.1499 305.92 37.5799 302.21C38.8999 301.31 37.6499 299.14 36.3199 300.05C30.5199 304.02 25.5799 308.89 21.5399 314.64C20.6099 315.96 22.7799 317.21 23.6999 315.9H23.6899Z" fill="#20BEFF"/>
<path d="M32.0599 316.9L34.8099 312.77C35.7099 311.43 33.5399 310.17 32.6499 311.51L29.8999 315.64C28.9999 316.98 31.1699 318.24 32.0599 316.9Z" fill="#20BEFF"/>
</g>
</svg>
