<svg width="237" height="126" viewBox="0 0 237 126" fill="none" xmlns="http://www.w3.org/2000/svg">
<path d="M3.71017 5.14651C42.0202 5.34651 80.3302 5.4265 118.64 5.4465C137.8 5.4565 156.95 5.4565 176.11 5.4465C185.24 5.4465 194.38 5.4465 203.51 5.4465C207.93 5.4465 212.36 5.4465 216.78 5.4465C219.31 5.4465 221.83 5.4465 224.36 5.4465C224.92 5.4465 230.58 5.17649 230.48 5.06649L230.09 2.03653L229.84 2.43649C228.12 5.16649 232.44 7.67651 234.16 4.95651L234.41 4.55648C235.03 3.57648 234.74 2.34652 234.02 1.52652C232.03 -0.743484 227.04 0.446499 224.36 0.446499C219.94 0.446499 215.51 0.446499 211.09 0.446499C201.41 0.446499 191.73 0.446499 182.05 0.446499C162.23 0.446499 142.42 0.446499 122.6 0.446499C82.9702 0.426499 43.3302 0.346511 3.70016 0.146511C0.480156 0.126511 0.480156 5.12651 3.70016 5.14651H3.71017Z" fill="#FF46A0"/>
<path d="M4.78023 124.727C80.8602 125.127 156.94 125.037 233.01 125.017C236.23 125.017 236.23 120.017 233.01 120.017C156.93 120.037 80.8502 120.127 4.78023 119.727C1.56023 119.707 1.56023 124.707 4.78023 124.727Z" fill="#FF46A0"/>
<path d="M0.560074 3.3468C1.75007 42.9568 2.13008 82.5968 1.69008 122.227C1.65008 125.447 6.65008 125.447 6.69008 122.227C7.13008 82.5968 6.75007 42.9668 5.56007 3.3468C5.46007 0.136798 0.460074 0.126798 0.560074 3.3468Z" fill="#FF46A0"/>
<path d="M229.76 3.3468C230.95 42.9568 231.33 82.5968 230.89 122.227C230.85 125.447 235.85 125.447 235.89 122.227C236.33 82.5968 235.95 42.9668 234.76 3.3468C234.66 0.136798 229.66 0.126798 229.76 3.3468Z" fill="#FF46A0"/>
<path d="M16.33 16.5964C18.15 46.8964 18.37 77.2464 16.98 107.566C16.69 113.996 26.69 113.986 26.98 107.566C28.37 77.2464 28.15 46.8864 26.33 16.5964C25.94 10.2064 15.94 10.1564 16.33 16.5964Z" fill="#20BEFF"/>
<path d="M208.9 16.5964C210.72 46.8964 210.94 77.2464 209.55 107.566C209.26 113.996 219.26 113.986 219.55 107.566C220.94 77.2464 220.72 46.8864 218.9 16.5964C218.51 10.2064 208.51 10.1564 208.9 16.5964Z" fill="#20BEFF"/>
<path d="M22.2799 21.0658C85.7799 23.1158 149.33 23.2858 212.84 21.5658C219.26 21.3958 219.29 11.3958 212.84 11.5658C149.33 13.2858 85.7799 13.1158 22.2799 11.0658C15.8399 10.8558 15.8499 20.8558 22.2799 21.0658Z" fill="#20BEFF"/>
<path d="M24.13 112.726C87.63 114.776 151.18 114.946 214.69 113.226C221.11 113.056 221.14 103.056 214.69 103.226C151.18 104.946 87.63 104.776 24.13 102.726C17.69 102.516 17.7 112.516 24.13 112.726Z" fill="#20BEFF"/>
<path d="M22.2602 22.2767C21.2302 26.2767 20.7002 30.4167 20.7702 34.5467C20.9002 42.4967 32.1102 48.6767 37.8402 41.6167C39.7902 39.2167 41.4902 36.9667 42.7102 34.1367C44.8502 29.1867 44.1803 23.4067 39.1203 20.4567C34.5803 17.7967 28.0003 19.2667 25.4403 24.0467C20.9603 32.4067 18.5602 41.0467 17.9002 50.4867C17.6002 54.8167 21.2203 59.0268 25.2403 60.1268C29.7703 61.3668 33.9402 59.1767 36.5302 55.5267C40.7802 49.5567 45.0302 43.5967 49.2802 37.6267C43.5202 34.2667 37.7702 30.8967 32.0102 27.5367C26.6302 37.5367 22.4302 48.1267 19.6502 59.1467C16.8702 70.1667 31.9703 76.6268 37.9303 66.8568C41.4903 61.0168 45.0503 55.1767 48.6103 49.3267C42.8503 45.9667 37.1002 42.5967 31.3402 39.2367C25.6202 49.2867 21.3402 60.1167 18.7902 71.4067C16.2402 82.6967 30.6902 88.5068 37.0702 79.1168C40.5902 73.9368 43.2203 68.4267 45.4403 62.5767C49.4203 52.0867 31.6302 44.4467 27.1602 54.8667C23.3902 63.6667 20.4502 72.4967 18.7702 81.9367C16.5102 94.6267 33.5503 99.3768 38.0603 87.2568C40.5103 80.6568 42.9602 74.0467 45.4102 67.4467C49.3102 56.9367 31.6002 49.3068 27.1302 59.7368C22.6602 70.1668 18.0702 81.3967 18.1602 93.4167C18.2302 102.177 29.0003 106.477 35.2303 100.487C40.4303 95.4868 44.8602 89.7167 48.3402 83.3967C50.7302 79.0567 49.7902 73.5068 45.7602 70.4968C42.1702 67.8168 35.7402 67.3067 32.6302 71.2767C27.2402 78.1667 23.2402 85.3067 20.6302 93.6967C18.0202 102.087 28.0702 109.917 35.3202 104.987C42.3602 100.207 48.7003 94.7167 54.1203 88.1567C57.5603 83.9967 58.1903 78.0867 54.1203 74.0167C50.3103 70.2067 43.7803 70.1567 39.9803 74.0167C34.9103 79.1567 30.6202 84.9967 27.3902 91.4467C23.7902 98.6467 29.8503 109.177 38.6803 106.137C45.6103 103.747 50.8902 99.6967 54.9002 93.5667C59.6402 86.3167 51.7703 76.3168 43.6103 78.8768C36.6303 81.0668 30.3502 84.8868 25.7102 90.6068C21.0702 96.3268 22.2703 105.217 30.1203 107.317C39.1803 109.737 48.3003 106.267 57.1903 104.587C66.1003 102.907 75.0502 101.817 84.0902 101.177V81.1767C71.9402 82.2867 59.8002 83.3968 47.6502 84.5068C35.5002 85.6168 34.5602 104.237 47.6502 104.507C60.7402 104.777 72.2503 106.687 84.2403 110.197L86.9002 90.5567C77.3702 91.0567 67.7802 90.8167 58.3302 89.3867V108.677C68.9202 105.347 81.3703 107.367 92.2503 108.287C104.19 109.297 116.08 110.807 127.97 112.307C132.83 112.917 137.27 108.027 137.79 103.637C138.38 98.6467 135.49 94.1567 130.63 92.6667C111.63 86.8167 91.3303 86.8667 72.6203 79.9467L77.0302 96.6567C81.6102 91.9767 90.0903 90.9967 96.2903 90.1867C103.91 89.1967 111.66 89.1468 119.33 89.0068V69.0068C102.27 71.1168 85.3602 74.0268 68.6302 77.9868L76.3402 96.2667C91.4402 87.8367 107.32 81.4367 124.02 76.9567C133.32 74.4667 133.77 59.9267 124.02 57.6667C112.34 54.9667 100.02 58.0467 88.5503 60.5867C76.8003 63.1867 65.2302 66.4867 53.6602 69.7867L61.3703 88.0667C74.8003 80.9667 88.6503 74.8868 102.98 69.8568C107.66 68.2168 110.91 63.9967 110.14 58.8867C109.48 54.4967 105.31 49.5667 100.32 50.2167C78.7102 53.0067 59.7503 62.5967 41.4303 73.9667C30.5203 80.7367 40.4002 97.8268 51.5202 91.2368C67.9102 81.5268 84.3102 71.8168 100.7 62.1068C107.89 57.8468 106.83 45.8567 98.3103 43.8267C87.9103 41.3467 77.1603 46.2567 67.4203 49.5667C57.5803 52.9067 47.8302 56.5267 38.0902 60.1467L45.8003 78.4267C57.9203 69.5967 71.1302 62.9267 85.5202 58.7067L77.8103 40.4267C61.5903 48.0167 45.9603 56.7467 30.9803 66.5667C34.3403 72.3267 37.7102 78.0767 41.0702 83.8367C56.5502 73.3667 72.0303 62.8967 87.5003 52.4367C94.0203 48.0267 93.8103 39.6167 87.5003 35.1667C79.6803 29.6567 70.2202 32.4167 61.8202 34.7767C52.4202 37.4167 43.0203 40.0667 33.6203 42.7067L41.3302 60.9868C52.0302 52.7768 63.8602 47.3467 77.0802 44.7167L71.7602 25.4267C58.0402 30.5467 44.9302 36.9467 32.6302 44.9167C28.4702 47.6167 26.4902 52.7367 28.5402 57.4067C30.3502 61.5267 35.6602 65.0967 40.3402 63.1967C55.1902 57.1567 68.6102 49.3567 81.2102 39.4567C87.1502 34.7967 83.5903 24.2967 76.8003 22.7467C64.6703 19.9767 52.8302 22.0667 40.8902 24.7767L48.6002 43.0567C52.2802 41.4567 55.9502 39.8667 59.6302 38.2667C67.5002 34.8467 65.2203 21.6567 57.2403 19.9867C54.3403 19.3767 51.9902 19.2667 49.0802 19.6967C48.1002 19.7967 47.1403 19.9667 46.1803 20.1867C45.4903 20.2667 45.8403 20.3267 47.2303 20.3567L50.8202 23.9467L51.1703 25.8467L49.8003 30.8967L50.3202 29.9267L39.0302 34.5267C56.4802 38.9867 73.9402 43.2367 91.8402 45.4367C109.74 47.6367 127.58 47.3367 145.47 47.0467C158.48 46.8367 158.18 28.0167 145.47 27.0467C119.41 25.0667 93.4702 21.9267 67.5402 18.7567V38.7567C100.95 41.7467 134.39 44.6867 167.95 45.1267V25.1267C151.8 25.8067 135.63 26.0867 119.46 25.9767C120.35 32.5267 121.23 39.0767 122.12 45.6167C132.39 41.5167 143.01 38.7267 153.97 37.2267C164.93 35.7267 162.53 16.5967 151.31 17.5867C139.03 18.6667 126.72 19.3467 114.39 19.6367L117.05 39.2767C121.65 38.2667 126.24 37.2467 130.84 36.2367L125.52 16.9467C110.85 21.1067 96.7002 27.0067 83.4002 34.4767C77.7902 37.6267 76.8602 45.7167 81.3802 50.1867C87.9102 56.6467 97.8803 53.8067 106.04 53.0767C115.05 52.2667 124.06 51.4567 133.08 50.6467C132.19 44.0967 131.31 37.5467 130.42 31.0067C119.36 35.4167 108.29 39.8267 97.2303 44.2367C85.3303 48.9767 89.7203 65.8067 102.55 63.5267C117.31 60.8967 132.08 58.2767 146.84 55.6467L141.52 36.3567C131.59 39.6767 121.66 42.9867 111.73 46.3067C99.2903 50.4667 104.51 67.5367 117.05 65.5967C133.23 63.0867 149.46 60.9068 165.84 62.7468C164.95 56.1968 164.07 49.6467 163.18 43.1067C149.16 46.9767 135.13 50.8467 121.11 54.7167C110.63 57.6067 112.24 75.6268 123.77 74.3568C136.78 72.9268 149.79 71.6368 162.84 73.2568L160.18 53.6167C143.81 57.6967 127.44 61.8767 111.85 68.4467C107.26 70.3767 103.88 74.0767 104.69 79.4167C105.42 84.2467 109.44 88.1267 114.51 88.0867C121.59 88.0367 128.68 87.9867 135.76 87.9467C138.98 87.9267 142.2 87.9068 145.42 87.8768C147.55 87.8668 150.18 87.2367 151.77 88.4667L148.18 84.8768L148.95 85.8967L154.93 71.2067C141.63 75.1467 128.33 79.0767 115.03 83.0167C109.85 84.5467 106.6 90.0367 108.05 95.3167C109.63 101.077 114.98 103.057 120.35 102.297C133.28 100.477 146.78 98.5467 159.82 100.397V81.1068C149.2 84.4568 138.37 86.8767 127.34 88.3967C116.31 89.9167 118.83 108.617 130 108.037C140.52 107.497 151.28 106.877 161.76 108.337V89.0467C155.1 90.0767 148.4 90.6668 141.67 90.9968C128.89 91.6168 128.72 111.217 141.67 110.997C150.89 110.837 160.11 110.677 169.33 110.517L166.67 90.8768C163.41 91.4868 160.15 92.0967 156.89 92.7067C152.06 93.6067 149.05 99.1467 149.73 103.677C150.51 108.857 154.46 111.897 159.55 112.347C168.89 113.177 177.96 112.667 187.23 111.377C196.5 110.087 196.62 93.7367 187.23 92.0867C181.96 91.1567 178.15 91.6367 173.32 93.9467C169.38 95.8367 167.62 101.237 168.72 105.237C169.95 109.717 173.94 112.207 178.36 112.577C185.75 113.197 192.42 111.557 199.16 108.657C203.8 106.657 205.64 98.9567 202.75 94.9767C197.97 88.4067 187.86 85.5767 181.98 92.8167C178.89 96.6167 177.4 103.347 181.98 106.957C188.69 112.247 198.26 116.087 206.13 110.737C214.56 105.017 212.38 91.8567 202.48 89.2767C197.93 88.0867 193.74 90.1368 191.19 93.8768C182.98 105.897 200.35 116.997 210.77 110.927C222.75 103.957 214.79 84.6268 201.36 88.4868C195.7 90.1168 191.44 97.8267 195.38 103.177C198.71 107.697 203.26 110.377 209.06 109.067C213.92 107.977 217.69 104.327 218.81 99.4367C220.07 93.9067 217.49 87.9968 212.84 84.8768C208.3 81.8268 203.37 81.7867 198.17 82.7967C193.91 83.6267 190.83 88.2967 190.83 92.4367C190.83 97.1367 194.02 100.467 198.17 102.077C205.96 105.107 213.68 98.0367 213.43 90.2667C213.23 84.0767 208.13 78.9067 203.1 75.9167C192.81 69.7867 180.61 71.6967 171.49 78.7667C166.43 82.6867 168.35 91.7267 173.51 94.4767C180.3 98.0767 189.26 99.9667 196.31 95.8167C203.36 91.6667 206.07 82.1067 200.46 75.5267C190.1 63.3867 169.61 70.5067 159.55 79.1667C153.56 84.3267 157.28 93.7668 163.96 95.8768C179.52 100.807 203.28 91.1767 202.27 72.1767C201.74 62.2167 192.72 57.2167 183.93 55.9267C174.13 54.4967 164.46 56.5067 155.87 61.4067C148.68 65.5167 149.74 77.8267 158.26 79.6867C175.51 83.4467 191.9 76.8768 202.51 63.0068C206.73 57.4868 201.91 50.2067 196.53 48.3167C184.57 44.1067 168.08 47.6267 160.89 58.8167C156.4 65.7967 158.08 75.1068 165.92 78.7568C172.27 81.7168 179.95 79.1667 185.96 76.4667C196.1 71.9067 213.59 56.8867 201.98 45.2767C196.92 40.2167 188.57 41.1367 182.19 42.2667C175.32 43.4867 168.69 46.3967 163.08 50.5167C159.45 53.1767 157.22 57.2167 158.48 61.8067C159.58 65.7967 163.8 69.4967 168.12 69.1467C183.43 67.9067 197.32 61.9467 208.48 51.3267C212.62 47.3867 211.91 41.2167 208.48 37.1867C203.82 31.7067 196 31.2867 189.32 31.2167C182.18 31.1367 174.97 32.1967 168.1 34.0767C157.31 37.0167 159.35 53.8867 170.76 53.7167C182.17 53.5467 193.21 50.3767 202.83 44.2067C210.22 39.4667 208.71 28.6367 200.44 25.9267C191.01 22.8367 180.78 22.8767 171.41 26.1467C160.73 29.8667 162.59 45.1067 174.07 45.7867C183.13 46.3267 191.93 44.0467 199.74 39.4567C207.55 34.8667 205.27 23.9467 197.35 21.1767C189.43 18.4067 181.67 18.2667 173.62 19.7367C168.3 20.7067 165.3 27.1567 166.64 32.0367C168.23 37.8067 173.57 39.7567 178.94 39.0167C181.45 38.6667 183.96 38.3267 186.46 37.9767C191.31 37.3067 194.28 31.3567 193.62 27.0067C192.82 21.6667 188.89 19.0167 183.8 18.3367C175.51 17.2367 167.2 16.3967 158.86 15.8367V35.8367C173.97 35.6467 189.07 36.6267 203.99 39.0767C201.54 35.8667 199.1 32.6467 196.65 29.4367C196.71 31.1167 196.78 32.7967 196.84 34.4667C197.19 43.7567 210.83 48.8867 215.47 39.5167C216.16 38.1267 216.85 36.7367 217.54 35.3467L200.27 25.2567C190.89 44.5167 188.84 66.4868 195.44 86.9868C198.45 96.3168 211.85 96.6568 214.73 86.9868C218.48 74.3668 219.88 61.1067 218.68 47.9967C218.19 42.6167 214.44 37.9967 208.68 37.9967C203.65 37.9967 198.18 42.5867 198.68 47.9967C199.74 59.4967 198.74 70.5967 195.45 81.6667H214.74C209.82 66.4067 210.48 49.8767 217.55 35.3467C219.91 30.4967 218.87 24.5367 213.96 21.6667C209.54 19.0767 202.69 20.3967 200.28 25.2567C199.59 26.6467 198.9 28.0367 198.21 29.4267C204.42 31.1067 210.63 32.7867 216.84 34.4767C216.78 32.7967 216.71 31.1167 216.65 29.4467C216.5 25.4367 213.68 20.5267 209.31 19.8067C192.61 17.0667 175.79 15.6367 158.87 15.8567C145.89 16.0167 146.13 34.9867 158.87 35.8567C167.21 36.4267 175.52 37.2567 183.81 38.3567C182.92 31.8067 182.04 25.2567 181.15 18.7167C178.64 19.0667 176.13 19.4067 173.63 19.7567L178.95 39.0467C183.5 38.2167 187.75 38.9867 192.04 40.4867C191.24 34.3967 190.45 28.3067 189.65 22.2067C184.71 25.1167 179.78 26.1467 174.08 25.8067C174.97 32.3567 175.85 38.9067 176.74 45.4467C183.03 43.2567 188.8 43.1467 195.14 45.2267C194.34 39.1367 193.55 33.0467 192.75 26.9467C185.99 31.2767 178.82 33.6067 170.77 33.7267L173.43 53.3667C177.51 52.2567 181.53 51.4667 185.76 51.2767C187.85 51.1867 189.93 51.2067 192.02 51.2967C192.77 51.3867 193.52 51.4267 194.28 51.4167C196.03 51.8567 196.06 51.8367 194.36 51.3367V37.1967C187.22 43.9867 178.02 48.3567 168.14 49.1567C169.82 55.3667 171.5 61.5767 173.19 67.7867C176.11 65.6367 179.15 63.7567 182.64 62.7067C184.21 62.2367 185.9 61.7667 187.52 61.5567C188.3 61.5067 189.07 61.4567 189.85 61.4267C192.07 61.5567 192.08 61.4068 189.87 60.9868L186.28 57.3967L186.94 58.2967L185.57 53.2467C186.15 51.8467 186.18 51.4867 185.66 52.1567C185.02 52.8967 184.34 53.6067 183.63 54.2867C182.43 55.4167 181.23 56.3267 179.81 57.1767C178.2 58.1367 174.18 60.5167 172.44 59.9567L176.85 62.5267L175.85 61.6667L178.42 66.0767C176.74 69.9567 176.8 70.8767 178.59 68.8467C179.14 68.5367 179.69 68.2167 180.23 67.8867C181.21 67.3767 182.28 66.9967 183.38 66.7667C186.16 66.2067 188.54 66.6367 191.21 67.5767C189.22 62.6767 187.23 57.7867 185.23 52.8867C180.39 59.2167 171.17 62.0368 163.56 60.3768C164.36 66.4668 165.15 72.5567 165.95 78.6567C169.19 76.8067 172.61 75.5867 176.37 75.3867C178.64 75.2667 185.55 77.8468 182.35 73.5068C182.74 72.0568 182.56 72.1368 181.79 73.7368C181.33 74.0568 180.91 74.4368 180.55 74.8768C179.77 75.5368 178.68 76.1367 177.73 76.5167C174.86 77.6867 172.14 77.4767 169.26 76.5667L173.67 93.2767C175.71 91.5267 178.16 90.3468 180.78 89.7568C181.95 89.4968 183.04 89.3567 184.26 89.3467C189.96 89.3067 182.91 90.6467 183.45 84.6967L184.82 79.6467C185.88 77.4467 189.18 78.9368 186.11 78.1068C185.22 77.8668 184.4 77.6067 183.59 77.1767L185.61 92.8867C186.64 92.0867 188.83 91.9867 190.18 92.1667C189.94 92.1367 192.69 92.9667 192.44 92.8367C193.37 93.6367 193.72 93.8367 193.49 93.4167C194.96 95.1167 194.94 94.4268 193.42 91.3668L194.79 86.3167L194.17 87.2867L197.76 83.6967L196.72 84.1367L204.43 83.1268L203.46 82.7468V102.037C205.1 101.997 204.07 101.517 200.38 100.607L199.01 95.5567L199.19 95.2267L201.76 90.8167L205.38 89.2867L210.43 90.6567L209.59 90.2267L213.18 93.8167L212.61 93.0467C210.62 97.9467 208.63 102.837 206.63 107.737L207.47 107.497H202.15L202.95 107.767L198.54 105.197L198.07 104.677L196.7 99.6268L196.85 98.8067L199.42 94.3967L199.59 94.0667L204.64 92.6967C202.9 92.8167 203.08 92.9167 205.18 93.0167L208.77 96.6068L208.89 97.0267L207.88 104.737L208.42 103.947L197.13 108.547L198.06 108.787C196.07 107.257 194.08 105.727 192.08 104.187L191.83 103.667V98.3467L191.47 99.3467L194.04 94.9367L192.96 95.7967L197.37 93.2267C197.12 93.2967 196.3 92.9667 196.08 92.7967V106.937L195.6 107.257L190.55 108.627L188.43 107.827L184.84 104.237L185.44 105.057L189.03 91.3768C185.6 92.8568 181.96 92.8767 178.32 92.5667C180 98.7767 181.68 104.987 183.37 111.197L181.87 111.357V92.0667C174.48 93.0967 166.92 92.9867 159.5 92.3167C160.39 98.8667 161.27 105.417 162.16 111.957C165.42 111.347 168.68 110.737 171.94 110.127C183.12 108.037 180.4 90.2968 169.28 90.4868C160.06 90.6468 150.84 90.8067 141.62 90.9667V110.967C150.14 110.557 158.6 109.607 167.03 108.307C176.51 106.837 176.65 90.3567 167.03 89.0167C154.64 87.2967 142.42 87.3668 129.96 88.0068L132.62 107.647C143.65 106.137 154.48 103.707 165.1 100.357C169.32 99.0268 172.44 95.2267 172.44 90.7167C172.44 86.7167 169.37 81.6767 165.1 81.0767C148.18 78.6767 131.8 80.6067 115 82.9767L120.32 102.267C133.62 98.3267 146.92 94.3967 160.22 90.4567C165.8 88.8067 170.23 81.1067 166.2 75.7667C159.98 67.5267 152.04 67.7968 142.5 67.8568C133.16 67.9168 123.82 67.9867 114.48 68.0467L117.14 87.6867C132.73 81.1167 149.09 76.9468 165.47 72.8568C170.25 71.6668 173.35 66.6367 172.63 61.8867C171.83 56.5867 167.9 53.8467 162.81 53.2167C149.76 51.5967 136.74 52.8867 123.74 54.3167L126.4 73.9567C140.42 70.0867 154.45 66.2167 168.47 62.3467C173.23 61.0367 176.36 56.2267 175.63 51.3767C174.84 46.1167 170.9 43.2767 165.81 42.7067C147.68 40.6667 129.6 43.4867 111.71 46.2667L117.03 65.5567C126.96 62.2367 136.89 58.9267 146.82 55.6067C159.16 51.4867 154.09 34.0867 141.5 36.3167C126.74 38.9467 111.97 41.5667 97.2102 44.1967L102.53 63.4868C113.59 59.0768 124.66 54.6667 135.72 50.2567C140.34 48.4167 143.68 44.5567 142.88 39.2867C142.2 34.7567 138.08 30.1667 133.06 30.6167C125.66 31.2767 118.25 31.9467 110.85 32.6067C107.31 32.9267 103.77 33.2467 100.23 33.5567C98.3003 33.7267 96.3703 33.9167 94.4403 34.0767L92.5102 34.2467C91.2002 34.3867 90.9703 34.3567 91.8503 34.1767L96.2602 36.7467L95.5102 36.0067L93.4903 51.7167C105.35 45.0567 117.74 39.9167 130.83 36.2067C143.92 32.4967 138.05 14.1567 125.51 16.9167L111.72 19.9567C100.69 22.3867 103.15 39.8567 114.38 39.5967C126.71 39.3067 139.01 38.6267 151.3 37.5467C150.41 30.9967 149.53 24.4467 148.64 17.9067C137.68 19.4067 127.07 22.2067 116.79 26.2967C112.17 28.1367 108.83 31.9967 109.63 37.2667C110.36 42.1467 114.37 45.9067 119.45 45.9367C135.62 46.0467 151.78 45.7667 167.94 45.0867C180.75 44.5467 180.87 25.2567 167.94 25.0867C134.38 24.6467 100.94 21.7067 67.5302 18.7167C62.1402 18.2367 57.5302 23.6567 57.5302 28.7167C57.5302 34.6667 62.1402 38.0567 67.5302 38.7167C93.4602 41.8867 119.41 45.0267 145.46 47.0067V27.0067C128.22 27.2867 110.92 27.5667 93.7702 25.6267C77.0402 23.7367 60.6202 19.3567 44.3402 15.1967C40.1602 14.1267 35.1703 15.8667 33.0503 19.7967C29.7203 25.9467 31.0902 33.6167 37.1302 37.5867C39.5702 39.1967 42.2602 40.0167 45.2002 40.1367C46.8202 40.1967 48.4402 39.9567 50.0402 39.6967C50.9302 39.5567 54.2803 39.7367 51.9203 39.2367L49.5302 20.9567C45.8502 22.5567 42.1803 24.1467 38.5003 25.7467C34.0003 27.7067 32.6102 34.1567 34.4102 38.2367C36.4602 42.8967 41.2302 45.1567 46.2102 44.0267C54.4802 42.1467 63.0303 40.0667 71.4803 41.9967L67.0702 25.2867C57.4002 32.8867 46.4102 39.2467 35.0202 43.8867L42.7303 62.1667C53.5503 55.1467 64.9902 49.1967 77.0802 44.6967C89.1702 40.1967 84.5102 22.8767 71.7602 25.4067C57.0802 28.3267 43.1103 34.5867 31.2303 43.6967C27.2803 46.7267 24.9602 51.2367 27.1402 56.1867C29.1102 60.6767 34.0403 63.3567 38.9403 61.9767C46.5203 59.8467 54.1003 57.7167 61.6803 55.5767C65.2403 54.5767 68.7903 53.5167 72.3703 52.5767C74.5103 52.0167 75.7802 51.2767 77.4002 52.4167V35.1467C61.9202 45.6167 46.4402 56.0867 30.9702 66.5467C20.3902 73.6967 30.2303 90.9267 41.0603 83.8167C56.0403 73.9967 71.6702 65.2667 87.8902 57.6767C98.2402 52.8367 90.9103 36.2567 80.1803 39.3967C64.2203 44.0767 49.1303 51.3467 35.6803 61.1367C31.6603 64.0667 29.4502 68.7668 31.5902 73.6268C33.4402 77.8468 38.6402 81.1767 43.3902 79.4167C51.9502 76.2367 60.5202 73.0567 69.1502 70.0567C73.3202 68.6167 77.5002 67.2068 81.7002 65.8768C84.8102 64.8868 89.7003 62.3167 92.9803 63.0967L90.5902 44.8167C74.2002 54.5267 57.8002 64.2367 41.4102 73.9467C44.7702 79.7067 48.1403 85.4567 51.5003 91.2167C66.4303 81.9467 82.5403 72.4867 100.3 70.1967L97.6402 50.5567C81.7002 56.1467 66.1803 62.8867 51.2503 70.7767C41.1803 76.0967 48.1102 92.1467 58.9602 89.0567C69.8102 85.9667 79.6702 83.1567 90.1502 80.7067C98.8002 78.6867 109.81 74.8967 118.69 76.9467V57.6567C100.4 62.5567 82.7603 69.7568 66.2303 78.9868C56.1303 84.6268 63.0703 99.8367 73.9403 97.2667C88.9103 93.7267 104.05 90.8868 119.33 88.9968C124.69 88.3368 129.33 84.8768 129.33 78.9968C129.33 73.6568 124.75 68.8968 119.33 68.9968C101.32 69.3268 76.5202 68.5768 62.8902 82.5068C57.3002 88.2168 60.3603 96.6567 67.3003 99.2167C86.0103 106.137 106.31 106.087 125.31 111.937C126.2 105.387 127.08 98.8367 127.97 92.2967C115.44 90.7167 102.91 89.1268 90.3202 88.1168C77.7302 87.1068 64.9102 85.6468 53.0202 89.3768C44.4602 92.0668 42.6002 107.087 53.0202 108.667C64.2902 110.367 75.5202 111.147 86.9102 110.547C98.3002 109.947 100.7 94.1667 89.5702 90.9067C75.9602 86.9167 61.8402 84.7968 47.6602 84.4968V104.497C59.8102 103.387 71.9503 102.277 84.1003 101.167C89.4803 100.677 94.1003 96.9267 94.1003 91.1667C94.1003 86.0467 89.5203 80.7867 84.1003 81.1667C75.2102 81.7967 66.3602 82.8367 57.5702 84.2867C53.4602 84.9667 49.3602 85.7468 45.2902 86.6268C42.2802 87.2768 38.5002 88.8367 35.4502 88.0167L39.8603 104.727C42.3703 101.627 45.0803 99.3467 48.9303 98.1367L37.6402 83.4467C36.5802 85.0667 35.2103 86.1967 33.3703 86.8267L44.6602 101.517C47.1702 96.4867 50.1703 92.1368 54.1203 88.1268L39.9803 73.9868C35.6603 79.2168 30.8503 83.8767 25.2303 87.6867C30.1303 91.4467 35.0203 95.2167 39.9203 98.9767C41.4303 94.1267 43.6202 89.4068 46.7702 85.3768L31.0603 73.2568C28.3403 78.2068 25.1502 82.3867 21.0802 86.3067C26.7702 88.6667 32.4602 91.0168 38.1502 93.3768C38.0802 85.0668 41.1602 77.3267 44.3902 69.7867L26.1103 62.0767C23.6603 68.6767 21.2102 75.2867 18.7602 81.8867C25.1902 83.6567 31.6203 85.4267 38.0503 87.2067C39.4003 79.6067 41.3803 72.0267 44.4303 64.9067C38.3403 62.3367 32.2502 59.7667 26.1502 57.1967C24.5602 61.3967 22.3102 65.2467 19.7902 68.9567C25.8802 71.5267 31.9702 74.0967 38.0702 76.6667C40.2602 66.9667 43.6802 57.9167 48.6002 49.2767C54.9802 38.0667 38.0302 28.1867 31.3302 39.1867C27.7702 45.0267 24.2102 50.8667 20.6502 56.7167L38.9303 64.4267C41.3003 55.0267 44.6702 46.1367 49.2702 37.5967C55.4702 26.0867 39.3803 17.1467 32.0003 27.5067C27.7503 33.4767 23.5003 39.4367 19.2503 45.4067C25.4603 47.0867 31.6702 48.7667 37.8802 50.4567C38.2802 44.6867 39.9603 39.2067 42.6903 34.1067C36.9303 30.7467 31.1803 27.3767 25.4203 24.0167C24.9503 25.1067 24.4403 26.4967 23.6703 27.4467C29.3603 29.8067 35.0503 32.1567 40.7403 34.5167C40.7003 32.0167 40.8902 29.9767 41.5102 27.5567C44.7102 15.0867 25.4202 9.7567 22.2202 22.2367L22.2602 22.2767Z" fill="#20BEFF"/>
</svg>
