<svg width="79" height="67" viewBox="0 0 79 67" fill="none" xmlns="http://www.w3.org/2000/svg">
<rect x="4" y="4" width="73" height="58" fill="white"/>
<path d="M19.9684 19.7564C34.0084 19.2564 48.0584 19.1864 62.1084 19.5364C66.9384 19.6564 66.9384 12.1564 62.1084 12.0364C48.0584 11.6864 34.0084 11.7564 19.9684 12.2564C15.1584 12.4264 15.1284 19.9264 19.9684 19.7564Z" fill="#20BEFF"/>
<path d="M19.4083 51.1155C32.9883 50.2255 46.5983 51.2355 60.1683 51.9055C64.9883 52.1455 64.9783 44.6455 60.1683 44.4055C46.5983 43.7355 32.9883 42.7255 19.4083 43.6155C14.6183 43.9355 14.5783 51.4355 19.4083 51.1155Z" fill="#20BEFF"/>
<path d="M15.1685 15.7367C15.9885 26.1767 16.0685 36.6067 15.4885 47.0567C15.2185 51.8767 22.7185 51.8667 22.9885 47.0567C23.5685 36.6067 23.4885 26.1667 22.6685 15.7367C22.2985 10.9567 14.7885 10.9167 15.1685 15.7367Z" fill="#20BEFF"/>
<path d="M58.3585 16.3969C57.5385 26.7969 56.8285 37.1669 57.8685 47.5769C58.3385 52.3369 65.8485 52.3869 65.3685 47.5769C64.3285 37.1669 65.0385 26.7969 65.8585 16.3969C66.2385 11.5869 58.7385 11.6069 58.3585 16.3969Z" fill="#20BEFF"/>
<path d="M25.6885 15.8869C22.8285 18.8069 21.3585 22.0469 21.1285 26.1269C20.9485 29.3669 25.3585 31.0769 27.5285 28.7769C29.6985 26.4769 31.2385 24.2869 32.4585 21.4969C34.3485 17.1869 28.3385 13.3669 25.9785 17.7069C23.6185 22.0469 21.6085 26.7269 20.0785 31.5269C18.9685 34.9969 23.8985 38.0369 26.3485 35.1769C29.6085 31.3769 31.9985 27.3069 33.5485 22.5469C34.9085 18.3869 28.9085 16.1769 26.6985 19.6569C22.6885 25.9469 20.0285 32.7569 18.9685 40.1469C18.4585 43.6669 22.3085 46.6169 25.2385 43.7969C30.2785 38.9469 33.1985 31.1469 36.4185 25.0169L29.9385 21.2269C26.8485 27.4169 24.5485 33.8269 23.1685 40.6069C22.4785 43.9969 26.7685 47.2669 29.4385 44.2569C33.9385 39.1669 37.2385 33.5269 39.2385 27.0169C40.5285 22.8069 34.6585 20.6869 32.3885 24.1269C28.8985 29.4069 26.5385 35.1469 25.4885 41.3969C24.9585 44.5969 29.1885 48.3569 31.7585 45.0469C34.9785 40.8969 37.2685 36.5669 38.3685 31.3969C39.2185 27.3669 33.7185 24.6669 31.5185 28.5069C28.8985 33.0669 27.5885 37.8569 27.6985 43.1169C27.7685 46.4269 31.7185 47.9869 34.0985 45.7669C38.4985 41.6669 41.2185 36.5769 43.7385 31.1869C45.7585 26.8669 39.8585 23.2369 37.2585 27.3969C34.1585 32.3669 32.4885 37.5769 32.0185 43.4069C31.7585 46.6769 36.2785 48.3169 38.4185 46.0569C42.3285 41.9269 45.1685 37.4069 47.1785 32.0869L39.9485 30.0969C38.5285 34.2069 37.3385 38.3469 36.3385 42.5769C35.4285 46.4669 39.7585 48.4869 42.6085 46.2269C46.7485 42.9369 49.0085 36.7769 51.5285 32.2769L44.6785 29.3869C43.1585 33.8769 41.8885 38.4069 40.8585 43.0369C39.9085 47.3369 45.2485 49.3169 47.7085 45.9269C50.1685 42.5369 52.2085 39.3169 54.1385 35.7769L47.2885 32.8869C46.0285 36.6369 45.0585 40.2269 44.7385 44.1769C44.4485 47.6969 48.8985 48.7469 51.1385 46.8269C54.5185 43.9269 57.2485 40.5569 59.2685 36.5769L52.4185 33.6869C51.3485 37.6769 47.7585 44.7669 52.8385 47.4169C55.1785 48.6369 57.4085 47.4669 58.3485 45.1769C59.1185 43.2869 59.7785 41.3869 60.3485 39.4269C61.4985 35.4569 55.2885 32.5869 53.4985 36.5369C52.7885 38.0869 52.2285 39.5369 51.8985 41.2169C50.9585 45.9169 58.0885 47.9469 59.1285 43.2069C60.8085 35.5669 62.1485 26.4369 56.6485 20.0769C54.8985 18.0569 52.1085 19.0769 50.7585 20.8369C48.8685 23.3069 46.7985 27.2269 48.3485 30.3369C49.8085 33.2669 53.3685 33.4669 55.7985 31.7069C59.9685 28.6869 63.1585 16.5169 54.5685 18.0869C49.3985 19.0269 41.8585 28.4169 48.8485 32.1469C56.0185 35.9769 60.5285 23.4869 56.7685 18.7269C51.2185 11.7069 40.1385 21.3469 37.5685 26.5969C36.2285 29.3369 36.6885 32.9669 39.9685 34.0669C43.2485 35.1669 47.4185 32.6569 49.5385 30.4469C54.3285 25.4469 52.9185 16.7969 44.9185 17.2069C38.4785 17.5369 33.3985 26.0869 40.0885 30.2469C47.2985 34.7269 50.9885 23.1269 45.1285 18.8669C39.2685 14.6069 26.6785 20.4469 30.9885 28.0669C31.6185 29.1769 32.9385 29.9769 34.2285 29.9269C38.9385 29.7169 41.5985 26.4569 42.0685 21.9669C42.3085 19.7069 39.4485 17.4969 37.3185 18.3469C34.6485 19.4169 32.7085 20.6869 31.4585 23.3669C29.4285 27.7169 35.8885 31.5269 37.9385 27.1569L39.3185 25.5869L34.5685 21.9669L34.2285 22.4269L37.4685 24.2869L37.0685 23.5869L37.4485 26.4769C39.0985 24.2469 41.3585 23.8069 44.2385 25.1569C43.3685 26.1369 42.2785 26.6569 40.9685 26.7069L44.2085 28.5669L43.6985 27.7069L44.0785 30.5969C44.6785 28.6969 49.2385 22.9969 51.9285 24.2469L50.2085 22.0069C50.4185 23.0569 50.5885 24.1069 50.7385 25.1669L53.3885 26.2669C55.1585 27.9369 53.7885 25.6669 55.9185 25.4369L53.2685 24.3369L53.8685 24.9569L52.7685 22.3069C52.7685 23.8669 51.6385 25.4569 50.5085 26.4069L53.1585 25.3069L52.0185 25.3269L55.2585 27.1869C55.4985 27.5469 57.0685 24.8669 57.2485 24.6269L51.3585 25.3869C54.6885 29.2469 52.8785 36.8069 51.9085 41.2269L59.1385 43.2169C59.2685 42.2169 59.5485 41.2469 59.9885 40.3269L53.1385 37.4369C52.5685 39.3969 51.9085 41.2969 51.1385 43.1869L56.6485 40.9469L56.0285 40.6269L57.7485 42.8669C57.2985 41.3869 59.2585 37.2169 59.6685 35.6969C60.7385 31.6969 54.7885 28.9269 52.8185 32.8069C51.0485 36.2869 48.8185 38.9969 45.8585 41.5369L52.2585 44.1869C52.5185 40.9569 53.5185 37.9369 54.5385 34.8869C55.8885 30.8469 49.7085 28.2869 47.6885 31.9969C45.6685 35.7069 43.6285 38.8869 41.2585 42.1469L48.1085 45.0369C49.1385 40.4069 50.4085 35.8769 51.9285 31.3869C53.2985 27.3369 47.1385 24.8269 45.0785 28.4969C42.8685 32.4369 40.9285 38.0769 37.3285 40.9269L43.5985 44.5769C44.5985 40.3469 45.7885 36.2069 47.2085 32.0969C48.7985 27.4869 41.6585 25.6569 39.9785 30.1069C38.4385 34.1869 36.1385 37.6069 33.1485 40.7669L39.5485 43.4169C39.9085 38.8969 41.3685 35.0269 43.7585 31.1869L37.2785 27.3969C35.0285 32.2069 32.7385 36.7869 28.8085 40.4569L35.2085 43.1069C35.1285 39.0969 35.9985 35.7769 37.9985 32.2769L31.1485 29.3869C30.3385 33.2269 28.8985 36.6069 26.4685 39.7269L32.7385 43.3769C33.6885 37.7069 35.7085 32.6869 38.8785 27.8969L32.0285 25.0069C30.4185 30.2569 27.7885 34.8269 24.1585 38.9369L30.4285 42.5869C31.6785 36.4369 33.6385 30.6169 36.4385 24.9969C38.5785 20.7069 32.2185 16.9169 29.9585 21.2069C27.1185 26.6269 24.3985 34.1969 19.9585 38.4669L26.2285 42.1169C27.2085 35.3069 29.4985 29.2269 33.1985 23.4269L26.3485 20.5369C25.1985 24.0469 23.4785 27.0569 21.0685 29.8569L27.3385 33.5069C28.6785 29.3069 30.3785 25.3569 32.4885 21.4869L26.0085 17.6969C25.0485 19.8969 23.8985 21.7069 22.2485 23.4569L28.6485 26.1069C28.7685 23.9869 29.5385 22.6769 31.0085 21.1769C34.3885 17.7269 29.0885 12.4169 25.7085 15.8769L25.6885 15.8869Z" fill="#20BEFF"/>
<path d="M46.5285 20.877C51.3585 20.877 51.3585 13.377 46.5285 13.377C41.6985 13.377 41.6985 20.877 46.5285 20.877Z" fill="#20BEFF"/>
<path d="M3.90848 6.28669C28.0085 4.89669 51.9785 5.95669 76.0985 6.65669C79.3185 6.74669 79.3185 1.74669 76.0985 1.65669C51.9885 0.95669 28.0085 -0.0933053 3.90848 1.28669C0.708482 1.46669 0.688482 6.47669 3.90848 6.28669Z" fill="#53FF6E"/>
<path d="M7.21838 66.2567C30.3084 65.9167 53.4084 65.5767 76.4984 65.2367C79.7084 65.1867 79.7184 60.1867 76.4984 60.2367C53.4084 60.5767 30.3084 60.9167 7.21838 61.2567C4.00838 61.3067 3.99838 66.3067 7.21838 66.2567Z" fill="#53FF6E"/>
<path d="M73.5983 5.58687C73.3583 24.5869 73.4884 43.5769 73.9984 62.5669C74.0884 65.7769 79.0884 65.7869 78.9984 62.5669C78.4884 43.5769 78.3583 24.5769 78.5983 5.58687C78.6383 2.36687 73.6383 2.36687 73.5983 5.58687Z" fill="#53FF6E"/>
<path d="M1.48848 4.3961C2.25848 14.5561 1.30849 24.6561 0.998493 34.8161C0.708493 44.4161 1.1385 54.2161 2.3185 63.7561C2.7085 66.9061 7.7185 66.9461 7.3185 63.7561C6.1385 54.2161 5.70849 44.4161 5.99849 34.8161C6.30849 24.6561 7.25848 14.5561 6.48848 4.3961C6.24848 1.2061 1.24848 1.1861 1.48848 4.3961Z" fill="#53FF6E"/>
</svg>
