<svg width="84" height="48" viewBox="0 0 84 48" fill="none" xmlns="http://www.w3.org/2000/svg">
<path d="M2.5 45.5V12L17 3H81.5V45.5H2.5Z" fill="white"/>
<path d="M14.0002 2.27391C14.1737 16.4258 14.4797 30.5778 14.898 44.7297C14.9898 47.7521 20.0906 47.7615 19.9988 44.7297C19.5703 30.5778 19.2745 16.4258 19.101 2.27391C19.0602 -0.75797 13.9594 -0.75797 14.0002 2.27391Z" fill="#53FF6E"/>
<path d="M17.7816 5.00096C37.9816 5.51096 58.1817 5.83096 78.3917 5.97096L77.7317 1.06095L77.1516 1.30095C74.2216 2.52096 78.0302 7.24001 81.0002 6.00001L79.0617 5.88095C81.5117 4.86094 84.0402 1.02 81.0002 1C60.8002 0.860001 37.9916 0.51095 17.7916 0.000949822C14.5716 -0.0790503 14.5716 4.92096 17.7916 5.00096H17.7816Z" fill="#53FF6E"/>
<path d="M78.2159 4.19949C77.7661 18.078 78.016 31.9475 78.9956 45.8078C79.1955 48.722 84.2035 48.7402 83.9936 45.8078C83.024 31.9475 82.5502 16.3795 83 2.50098C83.1 -0.431369 78.3158 1.26714 78.2159 4.19949Z" fill="#53FF6E"/>
<path d="M0.215884 11.769C-0.233935 22.9322 0.015994 34.088 0.9956 45.2366C1.19552 47.5805 6.2035 47.5952 5.99359 45.2366C5.02398 34.088 4.76405 22.9322 5.21387 11.769C5.31383 9.41034 0.315844 9.41034 0.215884 11.769Z" fill="#53FF6E"/>
<path d="M47.0003 5.18238C47.185 18.3941 47.3807 31.6059 47.5654 44.8177C47.6089 47.7275 53.0432 47.7275 52.9997 44.8177C52.815 31.6059 52.6193 18.3941 52.4346 5.18238C52.3911 2.27254 46.9568 2.27254 47.0003 5.18238Z" fill="#53FF6E"/>
<path d="M4.85355 13.5766C9.08003 10.9096 13.1582 8.05762 17.1093 5.04021C19.7363 3.03508 17.1055 -1.48681 14.4997 0.498849C10.8982 3.25346 5.35562 7.56563 1.49988 9.99903C-1.286 11.7608 2.0359 15.3481 4.85355 13.5669V13.5766Z" fill="#53FF6E"/>
<path d="M13.8314 10.0403C9.56139 13.8003 5.28138 17.5503 1.01137 21.3103C-0.198627 22.3703 1.57133 24.1403 2.78133 23.0803L15.6014 11.8103C16.8114 10.7503 15.0414 8.98031 13.8314 10.0403Z" fill="#53FF6E"/>
<path d="M13.6013 17.5004C10.1013 20.2804 6.61131 23.0704 3.11131 25.8504C1.8513 26.8504 3.63133 28.6104 4.88133 27.6204L15.3713 19.2704C16.6313 18.2704 14.8513 16.5104 13.6013 17.5004Z" fill="#53FF6E"/>
<path d="M14.4011 24.0413C10.1511 26.7413 6.16113 29.8114 2.46112 33.2214C1.27112 34.3114 3.05114 36.0813 4.23114 34.9913C7.78115 31.7213 11.5912 28.7913 15.6712 26.2013C17.0212 25.3413 15.7711 23.1813 14.4111 24.0413H14.4011Z" fill="#53FF6E"/>
<path d="M15.4009 31.1899L2.49302 39.9329C1.33394 40.7151 2.43156 42.601 3.59941 41.8101C7.90203 38.8987 12.2046 35.9786 16.5072 33.0671C17.6663 32.2849 16.5687 30.399 15.4009 31.1899Z" fill="#53FF6E"/>
<path d="M15.476 38.1934C11.9379 40.6733 8.28066 42.9862 4.50438 45.1323C3.33917 45.792 4.40232 47.5167 5.57603 46.8491C9.35232 44.703 13.0096 42.3901 16.5477 39.9102C17.6279 39.1551 16.5732 37.4224 15.476 38.1934Z" fill="#53FF6E"/>
<path fill-rule="evenodd" clip-rule="evenodd" d="M81.0001 43.9805H3.30127V47.013C29.2008 47.2765 55.0985 47.5762 81.0001 47.9065V43.9805Z" fill="#53FF6E"/>
</svg>
