<svg width="152" height="70" viewBox="0 0 152 70" fill="none" xmlns="http://www.w3.org/2000/svg">
<path d="M115.291 21.0266C116.071 34.7666 116.641 48.5067 117.021 62.2667C117.111 65.4767 122.111 65.4867 122.021 62.2667C121.641 48.5167 121.061 34.7666 120.291 21.0266C120.111 17.8266 115.111 17.8066 115.291 21.0266Z" fill="#53FF6E"/>
<path d="M118.941 23.7265C127.831 23.9265 136.811 21.2865 145.541 23.8565C148.631 24.7665 149.951 19.9465 146.871 19.0365C137.641 16.3165 128.341 18.9465 118.941 18.7265C115.721 18.6565 115.721 23.6565 118.941 23.7265Z" fill="#53FF6E"/>
<path d="M144.491 22.4263C145.171 35.3563 145.811 48.2963 146.431 61.2263L148.271 58.8163C143.531 60.2563 138.821 60.9263 133.871 60.9363C129.361 60.9363 125.101 60.7963 120.751 62.1263C117.681 63.0663 118.991 67.8963 122.081 66.9463C127.131 65.3963 132.181 66.1563 137.361 65.8663C141.531 65.6363 145.601 64.8363 149.601 63.6263C150.611 63.3163 151.491 62.3263 151.441 61.2163C150.821 48.2863 150.181 35.3463 149.501 22.4163C149.331 19.2163 144.331 19.1963 144.501 22.4163L144.491 22.4263Z" fill="#53FF6E"/>
<path d="M105.211 30.1668L111.111 26.7368C112.731 25.7968 114.681 24.1568 116.491 23.6868C119.601 22.8768 118.281 18.0568 115.161 18.8668C113.111 19.3968 111.181 20.9168 109.381 21.9668L102.691 25.8468C99.9108 27.4568 102.421 31.7868 105.211 30.1668Z" fill="#53FF6E"/>
<path d="M101.631 28.7071C101.861 40.4371 102.181 52.1672 102.591 63.8972C102.701 67.1072 107.701 67.1172 107.591 63.8972C107.171 52.1672 106.851 40.4471 106.631 28.7071C106.571 25.4971 101.571 25.4871 101.631 28.7071Z" fill="#53FF6E"/>
<path d="M144.141 63.277L144.201 64.777C144.281 66.837 146.941 68.217 148.471 66.547C148.921 66.057 149.321 65.5369 149.661 64.9569L145.091 64.357C145.211 64.897 145.341 65.447 145.461 65.987C146.021 68.437 149.641 68.297 150.281 65.987C150.551 65.017 150.821 64.047 151.091 63.077L146.181 62.417C146.211 63.537 146.241 64.657 146.261 65.777C146.341 69.047 150.951 68.937 151.261 65.777C151.531 62.997 151.671 60.207 151.691 57.417C151.711 54.197 146.711 54.197 146.691 57.417C146.671 60.217 146.531 62.997 146.261 65.777H151.261C151.231 64.657 151.201 63.537 151.181 62.417C151.111 59.627 147.031 58.9869 146.271 61.7569C146.001 62.7269 145.731 63.697 145.461 64.667H150.281C150.161 64.127 150.031 63.5769 149.911 63.0369C149.421 60.9069 146.391 60.637 145.341 62.437C145.251 62.667 145.111 62.857 144.931 63.017L149.201 64.7869L149.141 63.2869C149.021 60.0769 144.021 60.0669 144.141 63.2869V63.277Z" fill="#53FF6E"/>
<path d="M61.4909 2.83687C61.4909 23.5869 61.2809 44.3469 60.8809 65.0869C60.8209 68.3069 65.8209 68.3069 65.8809 65.0869C66.2809 44.3369 66.4909 23.5869 66.4909 2.83687C66.4909 -0.383125 61.4909 -0.383125 61.4909 2.83687Z" fill="#53FF6E"/>
<path d="M96.8109 4.04684C96.6509 24.1268 96.4909 44.2068 96.3309 64.2868C96.3009 67.5068 101.301 67.5068 101.331 64.2868C101.491 44.2068 101.651 24.1268 101.811 4.04684C101.841 0.826836 96.8409 0.826836 96.8109 4.04684Z" fill="#53FF6E"/>
<path d="M64.961 5.38672C75.681 4.37672 86.7609 5.59673 97.5009 5.98673C100.721 6.10673 100.711 1.10673 97.5009 0.986727C86.7509 0.596727 75.681 -0.613279 64.961 0.386721C61.781 0.686721 61.751 5.68672 64.961 5.38672Z" fill="#53FF6E"/>
<path d="M79.401 5.26656C79.261 25.4566 78.211 45.8666 80.241 65.9966C80.561 69.1666 85.561 69.1966 85.241 65.9966C83.221 45.8766 84.261 25.4666 84.401 5.26656C84.421 2.04656 79.421 2.04656 79.401 5.26656Z" fill="#53FF6E"/>
<path d="M64.381 36.7969C75.161 37.1969 85.9409 37.1769 96.7209 36.7369C99.9309 36.6069 99.9409 31.6069 96.7209 31.7369C85.9409 32.1769 75.161 32.1969 64.381 31.7969C61.161 31.6769 61.171 36.6769 64.381 36.7969Z" fill="#53FF6E"/>
<path d="M49.4909 15.2169C49.7409 31.7069 50.0009 48.1969 50.2509 64.6969C50.3009 67.9069 55.3009 67.9169 55.2509 64.6969C55.0009 48.2069 54.7409 31.7169 54.4909 15.2169C54.4409 12.0069 49.4409 11.9969 49.4909 15.2169Z" fill="#53FF6E"/>
<path d="M53.9908 15.9167C58.0908 12.4067 61.6908 8.44674 64.9108 4.11674C66.8308 1.52674 62.4908 -0.963264 60.5908 1.59674C57.6408 5.57674 54.2108 9.15674 50.4508 12.3867C48.0008 14.4867 51.5508 18.0067 53.9908 15.9267V15.9167Z" fill="#53FF6E"/>
<path d="M20.531 15.7763L20.571 44.2763C20.571 47.4963 25.571 47.4963 25.571 44.2763L25.531 15.7763C25.531 12.5563 20.531 12.5563 20.531 15.7763Z" fill="#53FF6E"/>
<path d="M23.5708 17.827C30.0208 17.107 36.4308 16.9669 42.9008 17.4169L40.4008 14.9169C39.5308 24.5569 39.1408 34.1969 39.2308 43.8669C39.2608 47.0869 44.2608 47.0869 44.2308 43.8669C44.1508 34.1969 44.5408 24.5469 45.4008 14.9169C45.5308 13.5069 44.1508 12.5069 42.9008 12.4169C36.4308 11.9669 30.0208 12.0969 23.5708 12.8269C20.4108 13.1869 20.3708 18.187 23.5708 17.827Z" fill="#53FF6E"/>
<path d="M16.6008 49.0669C24.2008 47.4669 31.8808 46.6069 39.6508 46.6269C40.5508 46.6269 43.1908 46.2669 43.7408 46.6869C44.2908 47.1069 43.5608 52.0469 43.5408 52.6269C43.4108 56.5869 43.2808 60.5469 43.1408 64.4969C43.0308 67.7169 48.0308 67.7069 48.1408 64.4969C48.3308 58.9169 48.7808 53.2569 48.7008 47.6769C48.6608 44.6269 47.9908 42.5469 44.7408 41.8569C40.3008 40.9069 34.9308 41.6169 30.4608 41.9869C25.3508 42.4069 20.2808 43.1969 15.2608 44.2469C12.1108 44.9069 13.4408 49.7269 16.5908 49.0669H16.6008Z" fill="#53FF6E"/>
<path d="M12.8008 46.9072C12.8708 52.6972 12.9408 58.4972 13.0108 64.2872C13.0508 67.5072 18.0508 67.5072 18.0108 64.2872C17.9408 58.4972 17.8708 52.6972 17.8008 46.9072C17.7608 43.6872 12.7608 43.6872 12.8008 46.9072Z" fill="#53FF6E"/>
<path d="M13.1109 24.4367C16.6109 22.3867 20.0509 20.2367 23.4309 17.9867C26.1009 16.2167 23.6009 11.8767 20.9109 13.6667C17.5309 15.9167 14.0909 18.0667 10.5909 20.1167C7.82093 21.7467 10.3309 26.0667 13.1109 24.4367Z" fill="#53FF6E"/>
<path d="M9.6608 23.4664C9.1108 30.6664 8.87081 37.8664 8.95081 45.0864C8.99081 48.3064 13.9908 48.3064 13.9508 45.0864C13.8708 37.8664 14.1008 30.6664 14.6608 23.4664C14.9108 20.2564 9.9108 20.2764 9.6608 23.4664Z" fill="#53FF6E"/>
<path d="M3.84089 52.4168C7.45089 50.8668 11.2309 49.8268 15.0909 49.1668C18.2609 48.6268 16.9109 43.8068 13.7609 44.3468C9.4309 45.0868 5.34089 46.3768 1.31089 48.0968C-1.63911 49.3668 0.910879 53.6668 3.83088 52.4168H3.84089Z" fill="#53FF6E"/>
<path d="M0.460896 50.7472C0.580896 55.3272 0.55089 59.9072 0.36089 64.4872C0.23089 67.7072 5.23089 67.6972 5.36089 64.4872C5.55089 59.9072 5.5809 55.3272 5.4609 50.7472C5.3709 47.5372 0.370896 47.5272 0.460896 50.7472Z" fill="#53FF6E"/>
<path d="M13.7109 29.1366L24.0508 24.1366C25.5008 23.4366 24.2308 21.2766 22.7908 21.9766C19.3408 23.6466 15.8909 25.3166 12.4509 26.9766C11.0009 27.6766 12.2709 29.8366 13.7109 29.1366Z" fill="#53FF6E"/>
<path d="M12.6808 32.0763C15.9008 31.5063 18.9708 30.5363 21.9608 29.2063C23.4308 28.5563 22.1608 26.3963 20.7008 27.0463C17.9208 28.2863 15.0208 29.1363 12.0208 29.6663C10.4408 29.9463 11.1108 32.3563 12.6808 32.0763Z" fill="#53FF6E"/>
<path d="M11.6108 38.1966L22.0808 34.0166C23.5608 33.4266 22.9108 31.0066 21.4208 31.6066L10.9508 35.7866C9.47081 36.3766 10.1208 38.7966 11.6108 38.1966Z" fill="#53FF6E"/>
<path d="M12.6408 41.9865C15.5508 40.7465 18.5908 39.9565 21.7208 39.5265C23.3108 39.3065 22.6308 36.9065 21.0608 37.1165C17.6908 37.5765 14.5108 38.4965 11.3808 39.8265C9.9008 40.4565 11.1808 42.6065 12.6408 41.9865Z" fill="#53FF6E"/>
<path d="M2.56092 56.1168C6.60092 55.6468 10.5309 54.8168 14.3909 53.5368C15.9109 53.0368 15.2609 50.6168 13.7309 51.1268C10.0909 52.3268 6.37092 53.1768 2.56092 53.6168C0.98092 53.7968 0.96092 56.2968 2.56092 56.1168Z" fill="#53FF6E"/>
<path d="M2.9408 62.0463C7.0008 60.3663 11.1608 59.0463 15.4508 58.0763C17.0208 57.7263 16.3508 55.3063 14.7908 55.6663C10.5008 56.6363 6.3408 57.9563 2.2808 59.6363C0.810798 60.2463 1.4608 62.6663 2.9408 62.0463Z" fill="#53FF6E"/>
<path d="M5.36093 67.2764L13.3009 65.2164C14.8609 64.8164 14.201 62.3964 12.641 62.8064L4.70096 64.8664C3.14096 65.2664 3.80093 67.6864 5.36093 67.2764Z" fill="#53FF6E"/>
<path d="M52.6808 25.7864C56.1708 23.3464 59.6707 20.9164 63.1607 18.4764C64.4707 17.5664 63.2208 15.3964 61.9008 16.3164L51.4208 23.6264C50.1108 24.5364 51.3608 26.7064 52.6808 25.7864Z" fill="#53FF6E"/>
<path d="M53.0908 32.5062L63.5308 24.7962C64.8108 23.8462 63.5708 21.6762 62.2708 22.6362L51.8308 30.3462C50.5508 31.2962 51.7908 33.4662 53.0908 32.5062Z" fill="#53FF6E"/>
<path d="M54.0508 39.2963C56.1708 37.3763 58.5308 35.8163 61.1108 34.5863C62.5608 33.8963 61.3007 31.7362 59.8507 32.4262C57.0807 33.7462 54.5607 35.4563 52.2907 37.5263C51.1007 38.6063 52.8708 40.3763 54.0608 39.2963H54.0508Z" fill="#53FF6E"/>
<path d="M54.0608 48.3872C57.3608 45.4972 60.9808 43.0972 64.9008 41.1272C66.3408 40.4072 65.0708 38.2472 63.6408 38.9672C59.5308 41.0372 55.7608 43.5972 52.3008 46.6172C51.0908 47.6772 52.8608 49.4372 54.0708 48.3872H54.0608Z" fill="#53FF6E"/>
<path d="M55.2009 56.2563L63.8809 50.6063C65.2209 49.7363 63.9709 47.5663 62.6209 48.4463L53.9409 54.0963C52.6009 54.9663 53.8509 57.1363 55.2009 56.2563Z" fill="#53FF6E"/>
<path d="M53.4509 65.3268C56.4509 63.0368 59.7009 61.1468 63.2009 59.7168C64.6709 59.1168 64.0308 56.6968 62.5408 57.3068C58.8308 58.8168 55.3808 60.7368 52.1908 63.1668C50.9308 64.1268 52.1709 66.2968 53.4509 65.3268Z" fill="#53FF6E"/>
<path d="M57.3408 69.3066C58.9508 69.3066 58.9508 66.8066 57.3408 66.8066C55.7308 66.8066 55.7308 69.3066 57.3408 69.3066Z" fill="#53FF6E"/>
<path d="M106.121 35.3063L115.941 31.2363C117.401 30.6263 116.761 28.2063 115.281 28.8263L105.461 32.8963C104.001 33.5063 104.641 35.9263 106.121 35.3063Z" fill="#53FF6E"/>
<path d="M106.141 42.2965C110.011 40.2565 113.961 38.3965 118.001 36.7265C119.471 36.1265 118.821 33.7065 117.341 34.3165C113.101 36.0665 108.941 37.9965 104.881 40.1365C103.461 40.8865 104.721 43.0465 106.141 42.2965Z" fill="#53FF6E"/>
<path d="M107.201 48.9669C110.871 47.0769 114.691 45.7069 118.721 44.8069C120.291 44.4569 119.631 42.0469 118.061 42.3969C113.831 43.3469 109.791 44.8269 105.941 46.8169C104.511 47.5569 105.771 49.7169 107.201 48.9769V48.9669Z" fill="#53FF6E"/>
<path d="M106.831 56.2468C109.961 54.6768 113.211 53.5468 116.631 52.8168C118.201 52.4768 117.541 50.0668 115.971 50.4068C112.341 51.1868 108.891 52.4268 105.571 54.0868C104.131 54.8068 105.401 56.9668 106.831 56.2468Z" fill="#53FF6E"/>
<path d="M106.821 63.8965C110.121 62.4965 113.511 61.3965 116.991 60.5365C118.551 60.1465 117.891 57.7365 116.331 58.1265C112.641 59.0465 109.071 60.2565 105.561 61.7465C104.081 62.3765 105.361 64.5265 106.821 63.9065V63.8965Z" fill="#53FF6E"/>
<path d="M111.421 68.2568H114.561C116.171 68.2568 116.171 65.7568 114.561 65.7568H111.421C109.811 65.7568 109.811 68.2568 111.421 68.2568Z" fill="#53FF6E"/>
<path d="M113.471 69.3065L120.951 67.3965C124.071 66.5965 122.741 61.7766 119.621 62.5766L112.141 64.4866C109.021 65.2866 110.351 70.1065 113.471 69.3065Z" fill="#53FF6E"/>
</svg>
