<svg width="90" height="74" viewBox="0 0 90 74" fill="none" xmlns="http://www.w3.org/2000/svg">
<path d="M38.562 54.6957C41.2421 50.842 43.5279 46.7907 45.3378 42.3935C46.9506 38.4657 47.7162 31.5241 51.3362 29.1773C54.9561 26.8305 60.9081 26.9787 64.8645 27.0528C70.016 27.1393 74.564 28.2263 77.4066 33.2534C81.4442 40.4173 77.9635 44.8021 72.8121 49.1869C69.0529 52.386 65.665 55.9679 62.5092 59.834C58.9937 64.1447 55.7102 68.5543 49.5958 67.0597C45.2681 65.9975 35.8238 60.5257 39.7222 54.7946C41.915 51.5708 36.8797 48.4829 34.7101 51.6819C26.7161 63.4654 45.2102 75.1747 54.7473 73.359C62.0916 71.9633 65.8971 64.5894 70.7817 59.3893C75.3878 54.4981 83.7416 50.4468 85.0874 43.0482C86.2129 36.8724 83.0454 29.0044 78.5437 25.1507C73.3111 20.6794 66.1408 20.5559 59.7711 21.1241C53.8539 21.6429 47.1593 22.5322 43.9687 28.6215C42.4372 31.5489 41.9035 35.0073 40.7664 38.1199C38.9913 42.9741 36.462 47.4083 33.5614 51.5831C31.3338 54.7822 36.3691 57.8578 38.5736 54.6957H38.562Z" fill="#3A3A3A"/>
<path d="M35.0584 55.7582C32.6335 58.6237 34.3508 63.3791 38.0403 63.6385C41.3238 63.8732 44.3287 60.5382 44.3519 57.0922C44.3751 53.3249 40.8016 50.5582 37.5413 52.3862C34.6176 54.0166 33.3762 58.5867 35.7082 61.3287C37.7038 63.6755 41.173 63.5026 43.4586 61.7487C46.1156 59.723 47.2758 55.4864 44.7581 52.7444C42.5072 50.2864 38.69 50.6816 36.5784 53.1025C34.6292 55.3382 33.5038 60.0565 36.3464 62.0328C39.3514 64.1202 43.737 61.2423 44.6652 57.9073C45.2337 55.8323 44.6189 53.436 42.8553 52.2503C41.2194 51.1633 38.8641 51.3857 37.5878 52.9667C36.5668 54.2265 36.4276 56.0917 37.5878 57.3392C38.632 58.4508 40.6625 58.6114 41.6951 57.3392C41.0569 58.1297 38.9569 57.6727 39.0962 56.4005C39.1542 55.8446 39.5718 55.8693 39.0032 56.2028C39.0381 56.1904 38.3652 56.7833 38.516 56.5857C38.6785 56.5239 38.6088 56.5487 38.2955 56.6475C38.632 56.6105 38.9568 56.6351 39.2817 56.7093L40.3259 57.8209C40.4071 58.6237 40.4535 58.7473 40.4535 58.1915C40.4419 58.4385 40.4652 58.3643 40.5348 57.9691C40.6741 57.4627 40.5464 57.8456 40.7552 57.4133C40.6044 57.5615 40.6508 57.4997 40.906 57.228C40.848 57.2898 40.7669 57.3145 40.6857 57.3145C40.7785 57.1416 40.9177 57.2033 41.1149 57.2527C40.6277 57.1169 40.7321 57.2527 40.3724 56.6475C40.3144 56.5487 40.4651 56.3511 40.4535 56.3387C40.2795 56.6722 40.2331 56.7463 40.3143 56.561C40.5 56.4869 40.4304 56.5486 40.1056 56.7339C39.8967 56.8327 39.711 56.9316 39.7226 56.9316C39.9082 56.9316 39.8387 56.9316 39.5138 56.9316C39.6414 56.9316 39.7574 56.981 39.8618 57.0798C39.9778 57.2774 40.1635 57.722 40.2795 57.8209C40.2795 57.8826 40.2447 57.9444 40.1983 57.9814C40.3724 57.6603 40.4071 57.5986 40.3027 57.7962C39.9082 57.7962 39.537 58.0432 39.0962 57.7591C38.9221 57.6479 38.4115 56.8328 38.574 56.8451C38.6552 56.8451 38.2839 57.5615 38.2491 57.475C38.2491 57.4503 38.3884 57.5121 38.3884 57.5121C38.8525 57.5368 39.2237 57.7468 39.479 58.1667C39.8038 58.7843 39.6878 59.4389 39.1541 60.143C40.1983 58.9078 40.3027 56.9933 39.1541 55.7705C38.0867 54.6342 36.1028 54.523 35.047 55.7705L35.0584 55.7582Z" fill="#3A3A3A"/>
<path d="M45.9759 27.4724C39.8963 22.013 46.0456 11.4153 46.208 4.49843L40.8013 6.05475C42.3792 9.05618 44.1428 11.8847 46.1732 14.5527C48.4124 17.4923 51.8003 20.1726 53.1462 23.7175C54.4921 27.2624 60.1307 25.7679 58.7384 22.0747C57.5086 18.8263 55.6871 16.5042 53.4362 13.9721C50.4428 10.6001 47.9483 6.98108 45.8134 2.92975C44.3747 0.187697 40.4881 1.49698 40.4068 4.48607C40.1748 13.651 33.5035 24.3104 41.8688 31.8202C44.7113 34.3646 48.8301 30.0169 45.9759 27.4477V27.4724Z" fill="#3A3A3A"/>
<path d="M74.0768 23.5459C77.2675 16.6907 82.2334 11.1819 81.8389 3.07925L76.4322 4.63556C80.5046 13.8252 87.6517 22.3972 80.8759 32.5996C78.7179 35.8481 83.7417 38.936 85.8881 35.7122C89.1599 30.784 90.1694 24.8799 89.102 18.9758C87.9069 12.3924 84.0666 7.42707 81.4444 1.51065C80.2146 -1.26847 75.8985 0.102575 76.0377 3.06696C76.3626 9.78623 71.7216 14.7268 69.0763 20.4086C67.4288 23.9535 72.4293 27.0908 74.0885 23.5212L74.0768 23.5459Z" fill="#3A3A3A"/>
<path d="M34.9655 51.6947C33.8865 52.9298 33.26 54.4984 33.2716 56.1906C33.2832 57.8828 34.5943 59.3526 36.1722 59.2785C37.7501 59.2044 39.096 57.9198 39.0728 56.1906C39.0728 56.0424 39.0728 55.8942 39.0844 55.746L38.9799 56.5612C39.0147 56.2648 39.0844 55.9807 39.1888 55.6966L38.8987 56.4377C39.0148 56.1536 39.154 55.9065 39.328 55.6719L38.8755 56.3018C38.9335 56.2277 38.9916 56.1536 39.0612 56.0795C40.0938 54.8937 40.2446 52.8681 39.0612 51.707C37.8778 50.546 36.0677 50.4472 34.9539 51.707L34.9655 51.6947Z" fill="#3A3A3A"/>
<path d="M33.7007 50.7064C32.3665 52.4604 31.5079 54.6219 31.7863 56.9317C31.8907 57.7839 32.0415 58.4757 32.6333 59.1179C33.1322 59.6491 33.9676 60.0566 34.6869 60.0196C36.0908 59.9578 37.7963 58.6486 37.5875 56.9317C37.5411 56.5858 37.541 56.2647 37.541 55.9188C37.5294 55.3013 37.3786 56.3758 37.5759 55.7335C37.6223 55.573 37.9124 54.943 37.6107 55.5112C37.6803 55.3754 38.2257 54.5108 37.808 55.0666C38.7594 53.8067 39.0494 51.9046 37.808 50.6941C36.7522 49.669 34.7217 49.3478 33.7007 50.6941V50.7064Z" fill="#3A3A3A"/>
<path d="M48.6098 56.3139C58.4486 54.1648 68.357 52.4602 78.335 51.2497C80.1681 51.0274 80.1913 47.9395 78.335 48.1618C68.0901 49.4093 57.938 51.1262 47.8324 53.3372C46.0108 53.7324 46.7766 56.7092 48.5982 56.3139H48.6098Z" fill="#3A3A3A"/>
<path d="M48.9001 59.7496C58.9245 59.1073 68.8793 58.6627 78.6601 61.5159C80.4584 62.047 81.2358 59.0703 79.4259 58.5392C69.3783 55.5995 59.2029 56.0071 48.8885 56.6617C47.0321 56.7852 47.0205 59.8731 48.8885 59.7496H48.9001Z" fill="#3A3A3A"/>
<path d="M49.538 63.6892C58.2746 65.4555 66.4542 68.6546 74.1814 73.3606C75.8057 74.3487 77.2676 71.6808 75.6433 70.6926C67.7073 65.8632 59.2839 62.5282 50.3037 60.7125C48.4821 60.342 47.6932 63.3187 49.538 63.6892Z" fill="#3A3A3A"/>
<path d="M32.1924 54.5614C21.6923 56.8341 11.2966 59.5762 1.01695 62.7876C-0.769812 63.3434 -0.00401792 66.3325 1.78274 65.7643C12.074 62.5529 22.4581 59.8108 32.9582 57.5381C34.7914 57.1429 34.014 54.1662 32.1924 54.5614Z" fill="#3A3A3A"/>
<path d="M35.3597 58.0932C28.6768 60.2671 22.0867 62.7003 15.5662 65.3806C13.8491 66.0847 14.5917 69.0738 16.332 68.3574C22.8525 65.6771 29.4426 63.2438 36.1255 61.0699C37.9007 60.4894 37.1465 57.5127 35.3597 58.0932Z" fill="#3A3A3A"/>
<path d="M35.1047 51.1759C28.0505 49.7555 20.9847 48.3351 13.9305 46.9147C12.1089 46.5441 11.3199 49.5208 13.1647 49.8914C20.2189 51.3118 27.2847 52.7323 34.3389 54.1527C36.1605 54.5232 36.9495 51.5465 35.1047 51.1759Z" fill="#3A3A3A"/>
<ellipse cx="67.0769" cy="39.5555" rx="2.82723" ry="4.21374" fill="#3A3A3A"/>
<ellipse cx="51.2443" cy="39.5555" rx="2.82723" ry="4.21374" fill="#3A3A3A"/>
<path d="M70.7786 44.7871V47.7262" stroke="#20BEFF" stroke-width="3.60394" stroke-linecap="round"/>
</svg>
