<svg width="124" height="93" viewBox="0 0 124 93" fill="none" xmlns="http://www.w3.org/2000/svg">
<path d="M50.26 38.9501C47.67 39.3901 45.0201 42.9501 45.5501 45.6601C46.2701 49.3101 50.24 46.0701 51.57 44.7501C53.15 43.1901 57.66 38.1101 56 35.6401C53.88 32.4901 51.13 38.4001 50.75 39.7901C50.12 42.0401 49.92 46.6601 53.49 45.8401C57.06 45.0201 59.96 40.1101 60.83 36.8601C61.45 34.5301 60.69 30.9601 57.58 32.9901C54.03 35.3001 51.9901 41.4601 50.9301 45.3101C50.7501 45.9701 51.1601 46.6501 51.8001 46.8501C54.5801 47.6901 57.44 43.4801 58.88 41.6001C59.87 40.3101 63.21 36.4901 61.14 34.6901C57.61 31.6301 50.8 44.5501 51.4 47.3301C51.49 47.7501 51.87 48.0901 52.27 48.2001C54.58 48.8301 56.4 46.1401 57.82 44.6501C60.15 42.2101 62.22 39.5501 64.1 36.7601C64.77 35.7601 63.66 34.7601 62.69 34.9201C58.65 35.5801 56.58 42.3301 55.33 45.6201C54.76 47.1201 57.17 47.7802 57.74 46.2802C58.53 44.2102 60.64 37.7701 63.36 37.3301L61.95 35.4901C60.39 37.8101 58.6901 40.0201 56.8001 42.0801C56.1201 42.8301 54.04 44.2501 53.74 45.1601C53.66 46.9301 53.81 47.0601 54.2 45.5701C54.49 44.8201 54.8101 44.1001 55.1801 43.3901C55.7501 42.2501 56.39 41.1601 57.11 40.1101C56.98 40.3001 59.78 36.3201 58.36 37.9601C57.65 38.7801 54.05 44.9001 52.47 44.4301L53.34 45.9701C54.24 42.6901 55.6001 39.6101 57.5601 36.8201L58.63 35.4101L58.5501 35.7201C58.8801 36.1101 57.64 38.3101 57.47 38.6201C56.89 39.7301 55.11 42.7001 53.74 42.8901C51.34 43.2201 54.03 39.1301 54.09 38.2301C54.3 34.9201 53.15 38.2301 52.86 38.8101C52.57 39.3901 52.21 39.9802 51.84 40.5302C51.37 41.2202 48.9 44.6701 47.74 44.7001C48.66 44.6701 49.0501 41.6701 50.9201 41.3601C52.5001 41.0901 51.83 38.6801 50.26 38.9501Z" fill="white"/>
<path d="M57.8101 36.2909C57.3201 34.7909 57.3901 33.2909 56.1601 32.0709C54.7601 30.6709 52.62 30.2709 50.86 31.1809C48.39 32.4609 46.31 36.2109 45.69 38.8509C44.69 43.1309 49.42 45.4609 52.72 43.2609C55.24 41.5809 57.35 38.4709 58.59 35.7609C60.12 32.4209 59.36 28.4409 55.49 27.2309C52.29 26.2409 49.38 28.0709 47.2 30.2609C45.24 32.2209 42.56 35.4909 43.44 38.4609C44.69 42.6809 49.75 42.3809 52.22 39.6009C55.41 36.0009 50.1301 30.6809 46.9201 34.3009C46.8201 34.5909 46.6401 34.7409 46.3901 34.7509L48.2801 34.2409L48.45 34.2909L50.1 35.2509L49.7801 35.0009L50.74 36.6509L50.59 36.2809V38.2709C50.3 38.5909 50.34 38.4709 50.71 37.9009L51.0201 37.3809C51.2801 36.9609 51.55 36.5809 51.87 36.2109C52.26 35.7609 52.6901 35.3109 53.1501 34.9309C54.1301 34.1109 53.5001 34.6509 53.5501 34.3909C52.5801 34.3909 52.06 33.6709 51.98 32.2309C51.85 32.5109 51.7101 32.7809 51.5601 33.0509C51.2701 33.5909 50.95 34.1209 50.6 34.6309C50.31 35.0509 50.0201 35.4409 49.6801 35.8209C49.4801 36.0509 49.2701 36.2809 49.0601 36.5009C48.3301 37.0809 48.52 37.1409 49.62 36.6809L52.2701 37.7809L51.99 37.5309L53.09 40.1809C52.97 40.5809 52.9801 40.5609 53.1301 40.1409C53.3101 39.7409 53.52 39.3508 53.74 38.9708C53.94 38.6308 54.4901 37.7109 54.6401 37.6409L52.75 38.1509L53.1601 38.2009L51.2701 37.6909L51.61 37.9409L50.2601 36.5909C50.1701 35.9209 50.1701 35.9609 50.2601 36.7109C50.2701 37.2509 50.38 37.7709 50.57 38.2609C52.06 42.8309 59.3001 40.8709 57.8001 36.2709L57.8101 36.2909Z" fill="white"/>
<path d="M45.3199 17.1604C44.7999 16.5704 44.3199 15.6804 44.0699 14.8504C43.5199 13.0804 41.8199 11.8804 39.9599 12.1604C38.2499 12.4204 36.5499 13.9604 36.7099 15.8404C36.7499 16.3204 36.7899 16.8004 36.8299 17.2804C36.9899 19.1304 38.1399 20.7304 40.0799 20.9604C41.7699 21.1604 43.8699 20.1404 44.1899 18.2704C44.5999 15.9004 44.36 13.5804 43.01 11.5304C41.9 9.84042 39.69 9.13038 37.88 10.1804C36.2 11.1704 35.42 13.6104 36.53 15.3104C36.69 15.5304 36.8299 15.7604 36.9399 16.0104C36.8299 15.8104 36.82 15.8204 36.9 16.0704C36.96 16.3304 36.97 16.3304 36.91 16.0704C36.89 16.5404 36.8999 16.6104 36.9399 16.2804L44.31 17.2804C44.27 16.8004 44.2299 16.3204 44.1899 15.8404L36.8199 16.8404C37.4799 18.9704 38.53 20.7804 40 22.4504C41.34 23.9704 43.94 23.8204 45.3 22.4504C46.81 20.9404 46.64 18.6704 45.3 17.1504L45.3199 17.1604Z" fill="white"/>
<path d="M70.18 24.1995C72.05 21.4395 73.4799 18.4495 74.5999 15.3195C75.2799 13.4095 73.8299 11.2195 71.9799 10.7095C69.8999 10.1395 68.0499 11.4095 67.3699 13.3295C66.4699 15.8595 65.2099 18.1995 63.7099 20.4195C62.5699 22.0995 63.39 24.5795 65.06 25.5495C66.91 26.6295 69.0499 25.8895 70.1899 24.1995H70.18Z" fill="white"/>
<path d="M74.2 25.4411C74.68 23.5611 74.94 21.611 74.96 19.671C74.98 17.731 73.22 15.831 71.21 15.921C69.2 16.011 67.48 17.571 67.46 19.671C67.46 20.021 67.4501 20.3611 67.4301 20.7011C67.4201 20.9311 67.4 21.1611 67.38 21.3911C67.33 21.7911 67.33 21.8511 67.37 21.5811C67.42 21.1511 67.27 22.1611 67.24 22.2711C67.16 22.6711 67.07 23.0611 66.97 23.4511C66.48 25.3511 67.59 27.6111 69.59 28.0611C71.59 28.5111 73.68 27.4711 74.2 25.4411Z" fill="white"/>
<path d="M51.5899 31.7007C53.5799 30.1107 56.2499 29.8808 58.6099 30.5808C63.2499 31.9608 65.2299 24.7207 60.5999 23.3507C55.4799 21.8307 50.38 23.1208 46.28 26.4008C44.7 27.6708 44.96 30.3807 46.28 31.7007C47.84 33.2607 49.9999 32.9707 51.5799 31.7007H51.5899Z" fill="white"/>
<path d="M49.65 30.6806C51.22 29.4006 53.5401 28.7207 55.5601 29.0207C57.5801 29.3207 59.59 28.5207 60.17 26.4007C60.66 24.6307 59.57 22.0906 57.55 21.7906C52.62 21.0506 48.22 22.2206 44.34 25.3806C42.77 26.6606 43.01 29.3506 44.34 30.6806C45.89 32.2306 48.07 31.9606 49.64 30.6806H49.65Z" fill="white"/>
<path d="M54.37 30.1709C54.79 29.8809 55.43 29.6109 55.78 29.2509L56.43 29.0009L55.16 28.4108C54.72 28.6208 54.26 31.0409 54.17 31.5309C53.75 33.8109 54.3999 36.2708 56.3499 37.6608C61.4599 41.3108 65.23 34.4409 64.93 30.0909C64.77 27.6909 62.66 25.7908 60.18 26.4708C53.13 28.4208 54.06 41.7708 62.16 40.2308C65.48 39.6008 68.3999 35.9409 69.3299 32.8609C70.4099 29.3009 69.51 25.7809 67.05 23.0509C64.59 20.3209 59.64 23.1809 60.78 26.7009C61.98 30.4209 60.5299 34.2608 57.0999 36.1608L61.64 42.0509C65.36 38.2109 69.13 32.4909 67.13 26.9309C65.27 21.7909 59.1299 20.1108 55.0699 23.7908C51.4899 27.0408 56.8 32.3309 60.37 29.0909C59.85 29.5609 60.0899 31.1009 59.7099 32.0309C58.9799 33.8109 57.6599 35.3708 56.3399 36.7308C53.3699 39.8008 57.14 44.7009 60.88 42.6209C67.12 39.1609 70.21 31.5009 68.01 24.6909L61.74 28.3409C62.69 29.3909 62.31 30.6809 61.56 31.7409C60.4 33.3909 60.46 31.6209 62.92 34.0009L62.9399 33.6809C63.1299 32.6209 62.88 32.6209 62.17 33.6909L57.42 30.0709C57.54 30.6509 57.5099 31.2209 57.3199 31.7809C59.9599 33.8309 61.4599 33.8809 61.8199 31.9309C62.1699 31.2209 62.4 30.3409 62.55 29.5709C62.96 27.4609 62.58 25.2209 61.12 23.5909C58.2 20.3309 53.7 21.5309 50.56 23.6709C46.6 26.3709 50.3399 32.8809 54.3499 30.1509L54.37 30.1709Z" fill="white"/>
<path d="M40.6 48.6999C42.22 46.1999 43.84 43.7099 45.46 41.2099C47.74 37.6999 42.28 33.3199 39.57 36.6699C38.08 38.5099 36.7301 40.3699 35.5201 42.4099C33.0601 46.5799 39.49 50.3199 42 46.1999L45.88 39.8299C48.4 35.6899 41.9801 31.9799 39.4001 36.0399C37.3201 39.3199 35.4701 42.5999 34.6601 46.4299C33.8501 50.2599 38.0601 52.5099 40.9301 50.0799C42.7201 48.5599 44.33 46.9499 45.84 45.1499L39.95 40.6099C38.62 43.0599 37.46 45.4599 36.96 48.2099C36.3 51.8499 40.34 54.4999 43.23 51.8599C45.22 50.0399 46.9 48.0499 48.47 45.8499C50.92 42.4099 45.31 38.0299 42.58 41.3099C40.78 43.4699 39.29 45.7599 39.19 48.6399C39.15 49.8299 39.9101 51.3799 41.0501 51.8799C45.2701 53.7399 48.5901 50.8399 50.4001 47.0199C51.9801 43.6799 48.7301 40.0499 45.2701 41.8899C39.8701 44.7499 40.15 55.7299 47.74 54.4999C53.16 53.6299 58.23 43.1599 51.35 40.7499C45.33 38.6499 40.76 48.2199 45.45 51.9699C51.5 56.8099 57.3001 45.6599 58.5101 41.1999C59.5601 37.3399 55 35.2799 52.24 37.5499C50.86 38.6899 50.12 39.9899 49.74 41.7199C49.4 43.2799 49.95 45.1699 51.46 45.9499C56.18 48.3899 59.4101 43.4499 61.8001 40.0199C64.0201 36.8199 59.7501 33.1299 56.6701 34.8899C53.5901 36.6499 52.4101 39.0399 52.0501 42.3399C51.7801 44.7899 54.6601 46.5699 56.8001 45.9599C58.2401 45.5499 59.49 45.0099 60.74 44.1799L55.61 39.0499L55.4101 39.4499C52.1501 42.9999 57.44 48.3199 60.71 44.7499C61.27 44.1399 61.72 43.5899 62.08 42.8399C63.58 39.7299 60.33 35.4599 56.95 37.7099C56.33 38.2399 55.6101 38.5799 54.8001 38.7399L59.5501 42.3599L60.46 41.3899L55.33 36.2599C54.96 36.7899 53.5901 39.1899 52.9001 39.3999L55.7901 39.7799L55.25 39.4999L56.97 43.7299L57.5401 42.8699L51.2701 39.2199C50.9001 40.5699 50.48 41.7899 49.75 42.9899C49.53 43.3499 47.87 45.6099 48.09 45.5799L50.74 46.6799C51.51 48.2599 50.68 48.5699 48.23 47.6099L47.13 44.9599C47.2 45.9099 46.86 46.5699 46.12 46.9599L48.7701 48.0599C48.9601 48.1199 49.0501 48.2199 49.0401 48.3799L43.9101 43.2499C43.7501 43.5799 43.09 45.1599 42.63 45.3499L45.5201 45.7299L44.83 45.4199L46.69 48.6599C46.95 47.8999 47.34 47.2299 47.88 46.6299L41.99 42.0899C40.79 43.7699 39.4501 45.1999 37.9301 46.5799L44.2 50.2299C44.59 48.0799 45.4001 46.3299 46.4301 44.4199C48.3701 40.8399 43.3901 36.4799 40.5401 39.8799C39.0301 41.6799 37.42 43.2899 35.63 44.8099L41.9001 48.4599C42.5801 45.2399 44.13 42.6199 45.88 39.8599L39.4001 36.0699L35.5201 42.4399L42 46.2299C42.88 44.7299 43.77 43.3599 44.87 41.9999L38.98 37.4599C37.36 39.9599 35.74 42.4499 34.12 44.9499C31.49 49.0099 37.98 52.7799 40.6 48.7399V48.6999Z" fill="white"/>
<path d="M44.1099 54.3209C45.9599 53.9009 47.8199 53.5509 49.6999 53.3309C51.7099 53.0909 53.4499 51.7809 53.4499 49.5809C53.4499 47.7409 51.7199 45.5909 49.6999 45.8309C47.1499 46.1309 44.62 46.5309 42.12 47.0909C40.14 47.5409 38.98 49.8209 39.5 51.7009C40.06 53.7309 42.1299 54.7709 44.1099 54.3209Z" fill="white"/>
<path d="M46.81 55.5812L50.68 54.3412C52.55 53.7412 53.94 51.7111 53.3 49.7311C52.7 47.8611 50.6899 46.4712 48.6899 47.1112L44.8199 48.3511C42.9499 48.9511 41.5599 50.9812 42.1999 52.9612C42.7999 54.8312 44.81 56.2212 46.81 55.5812Z" fill="white"/>
<path d="M43.0101 45.4402C44.6201 41.9602 46.22 38.4802 47.83 35.0002C48.68 33.1602 48.35 30.9602 46.48 29.8702C44.86 28.9202 42.2 29.3702 41.35 31.2202C39.74 34.7002 38.1401 38.1802 36.5301 41.6602C35.6801 43.5002 36.0101 45.7002 37.8801 46.7902C39.5001 47.7402 42.1601 47.2902 43.0101 45.4402Z" fill="white"/>
<path d="M45.84 39.1907C46.13 37.1407 46.69 35.2607 47.62 33.5507C48.55 31.8407 48.06 29.4707 46.27 28.4207C44.48 27.3707 42.11 27.9807 41.14 29.7707C39.88 32.1007 38.98 34.5807 38.61 37.2007C38.33 39.2007 39.1 41.2307 41.23 41.8107C42.99 42.2907 45.56 41.2107 45.84 39.1907Z" fill="white"/>
<path d="M66.13 50.7502L65.8901 45.4202C65.7301 41.9302 60.6801 40.0303 58.9001 43.5303C57.2801 46.7103 55.93 51.4802 60.32 53.1002C63.9 54.4202 66.7401 51.5402 67.4201 48.2502C68.2801 44.1102 62.92 41.7002 60.57 45.3602C58.62 48.4102 57.2401 53.8602 60.5501 56.5402C64.3801 59.6402 68.73 55.0402 70.59 51.9102C72.71 48.3502 67.51 44.0402 64.7 47.3702C62.43 50.0702 60.02 54.9502 62.57 58.2602C65.67 62.2702 69.68 58.1502 71.96 55.7502L65.5601 53.1002C65.2301 55.6102 65.08 58.1002 65.13 60.6302C65.21 65.4502 72.71 65.4702 72.63 60.6302C72.59 58.1002 72.7301 55.6102 73.0601 53.1002C73.5001 49.7902 68.7201 48.2703 66.6601 50.4503C66.1401 51.0003 65.61 51.5502 65.09 52.1002C63.67 53.2902 64.1501 53.3902 66.5201 52.3802L69.1401 55.0002C68.9101 54.2502 69.5801 53.1902 70.0101 52.6802L64.12 48.1403C63.76 48.7403 63.08 49.9702 62.33 50.2302L65.22 50.6102C65.92 51.8702 66.26 51.9102 66.23 50.7402C66.4 50.1602 66.6701 49.6402 67.0401 49.1702L60.19 46.2803C59.68 47.7403 60.3801 47.6203 62.3101 45.8903L64.5501 47.6102C64.8701 48.5602 65.14 48.4703 65.38 47.3403L58.3901 45.4503L58.63 50.7803C58.85 55.5903 66.35 55.6103 66.13 50.7803V50.7502Z" fill="white"/>
<path d="M63.58 57.3797C64.48 62.1897 65.2801 67.0197 65.9301 71.8797C66.4301 75.6397 72.4001 77.4597 73.3001 72.8797C73.8501 70.0597 73.85 67.5897 73.32 64.7697C72.52 60.5697 65.9 61.5997 65.95 65.7697C65.99 68.9297 66.44 71.9998 67.36 75.0298C68.76 79.6298 76 77.6697 74.59 73.0397C73.85 70.6197 73.47 68.2997 73.44 65.7797L66.07 66.7797C66.34 68.2297 66.3401 69.4597 66.0501 70.8997L73.4201 71.8997C72.6801 66.3797 71.8301 60.8797 70.8001 55.4097C69.9101 50.6697 62.68 52.6797 63.57 57.3997L63.58 57.3797Z" fill="white"/>
<path d="M73.57 80.711C73.9 78.591 74.11 76.491 74.07 74.341C74.03 72.381 72.37 70.501 70.32 70.591C68.27 70.681 66.53 72.241 66.57 74.341C66.59 75.171 66.57 76.001 66.53 76.831C66.51 77.241 66.4601 77.661 66.4301 78.071C66.3701 78.791 66.47 77.9409 66.34 78.7209C66.04 80.6509 66.83 82.851 68.96 83.331C70.75 83.741 73.25 82.781 73.57 80.711Z" fill="white"/>
<path d="M58.83 78.59C61.41 73.91 64 69.2199 66.58 64.5399C68.91 60.3099 62.44 56.5199 60.1 60.7499C57.52 65.4299 54.93 70.1199 52.35 74.7999C50.02 79.0299 56.49 82.82 58.83 78.59Z" fill="white"/>
<path d="M70.66 58.9113C68.85 63.5813 69.5 75.8013 77.64 72.6013C82.01 70.8813 87.79 59.3913 80.63 57.7113C73.96 56.1513 72.29 68.7013 75.48 72.4213C80.35 78.1013 88.84 69.6613 88.76 64.2113C88.73 62.3813 87.58 61.2513 86.01 60.5913C78.6 57.5013 74.11 74.8813 82.4399 75.0913C86.25 75.1913 90.23 69.6413 90.79 66.3013C91.5 62.0813 87.13 59.6713 83.47 61.0213C80.01 62.3013 77.41 66.3813 77.33 70.0613C77.25 74.2113 81.96 76.7013 85.03 73.5413C88.37 70.1113 84.8801 65.5613 80.9301 65.1713C76.9801 64.7813 73.02 66.1413 70.91 69.5313C69.7 71.4713 70.79 74.5713 73.15 75.0413C79.63 76.3213 86.07 75.9513 92.25 73.5613C96.71 71.8413 94.77 64.5913 90.26 66.3313C85.35 68.2213 80.34 68.8413 75.14 67.8113L77.38 73.3213C77.71 72.7813 78.32 72.9813 78.78 72.7313C79.04 72.6813 79.31 72.6513 79.58 72.6613C80.46 72.7313 80.24 72.3913 78.9399 71.6613L79.9 68.0113L80.61 67.6313L83.5 68.0113L83.03 67.7313L84.89 70.9713C84.83 70.1913 85.25 69.6313 85.34 68.9313C85.43 68.6913 85.57 68.4813 85.77 68.3113C86.54 67.6313 85.9201 67.2613 83.9201 67.2013L83.54 64.3113C83.36 65.0113 82.1501 67.5713 81.4301 67.7213L84.32 68.1013L83.86 67.8013L85.58 70.0413C85.4 69.5213 85.6901 69.0513 85.6701 68.5513C85.7101 68.2713 85.78 68.0013 85.89 67.7513C86.34 66.8313 85.71 66.8613 84 67.8313L81.25 64.2113C81.04 64.8113 80.72 65.3413 80.27 65.7913C78.7 66.5913 79.09 67.3813 81.45 68.1713C80.95 68.3713 82.98 63.7013 81.52 64.5613L78.63 64.9413L79.02 65.0913L76.4 62.4713C76.71 63.9213 73.31 66.2813 75.86 65.6313C77.56 65.1913 76.92 65.2613 77.1 63.7013C77.22 62.7013 77.52 61.8413 77.88 60.9013C79.63 56.4013 72.38 54.4513 70.65 58.9113H70.66Z" fill="white"/>
<path d="M89.6601 60.2394C87.6801 63.2794 86.83 67.1495 89.72 69.9495C92.61 72.7495 96.58 71.3195 98.6 68.2595C100.38 65.5595 102.06 61.1094 99.39 58.4394C97.94 56.9894 95.5701 56.9594 93.9101 57.9994C92.3301 58.9794 91.5501 60.8395 91.1801 62.5895C90.5101 65.7195 90.3001 69.7294 92.7801 72.1594C95.9301 75.2394 100.49 73.1295 102.37 69.7795C103.92 67.0195 104.81 62.4194 102.32 59.9294C100.76 58.3694 98.1301 58.5195 96.5401 59.8995C95.0801 61.1695 94.43 63.1494 94 64.9894C93.17 68.5194 92.64 74.7994 97.64 75.3594C102.64 75.9194 104.22 69.4595 102.98 65.7795C102.15 63.3295 98.65 61.8195 96.71 64.1295C95.22 65.8995 94.13 67.8095 93.63 70.0795C92.6 74.7795 99.83 76.7895 100.86 72.0695C101.08 71.0895 101.35 70.2094 102.01 69.4294L95.74 67.7795C95.85 68.1095 95.97 68.8195 95.95 68.8395L97.6 67.8795L97.13 68.0695H99.12L98.71 67.9394L100.36 68.8995L100.08 68.5594L101.04 70.2095C100.64 69.1095 101.04 65.8295 101.82 65.1995L99.1701 66.2994L99.6501 66.3295L97 65.2294L97.26 65.5494L96.3001 63.8995C96.4101 64.3795 96.2901 64.8795 96.1501 65.3395C96.1 65.5795 96.02 65.7894 95.89 65.9994C95.59 66.4194 95.63 66.4595 96.02 66.1295L97.9101 66.6395C98.5501 66.9495 98.19 67.4795 98.25 66.0095C98.26 65.6395 98.28 65.2994 98.34 64.9394C98.44 64.2794 98.9401 63.8194 98.1501 64.2494L95.26 64.6295L95.74 64.7294L93.5 63.0095L93.77 63.3694L93.26 61.4794C93.34 62.0494 93.1601 62.5094 92.9301 63.0594C92.7401 63.4594 92.5401 63.8494 92.3101 64.2194C91.7601 64.9694 91.8401 64.9695 92.5501 64.1995H94.5401C95.0701 64.2895 95.1 65.3095 95.39 65.2795C95.47 65.2795 96.14 64.0594 96.1501 64.0494C98.8001 59.9994 92.3101 56.2295 89.6701 60.2595L89.6601 60.2394Z" fill="white"/>
<path d="M94.1 75.2402C94.38 78.2302 94.45 81.2103 94.32 84.2103C94.11 89.0403 101.61 89.0303 101.82 84.2103C101.95 81.2103 101.88 78.2302 101.6 75.2402C101.41 73.2202 100.01 71.4902 97.85 71.4902C95.97 71.4902 93.91 73.2102 94.1 75.2402Z" fill="white"/>
<path d="M96.4 59.1298C95.57 61.8498 97.13 64.6298 99.99 65.1998C103.21 65.8498 105.55 63.0998 106.56 60.3698C107.03 59.1098 106.45 57.6498 105.6 56.7198C101.89 52.6898 95.0399 56.3998 91.1899 58.5498L96.8299 61.7898C96.1499 56.2198 92.1699 55.3698 87.2199 55.8898C80.8599 56.5598 74.8399 54.0998 68.4599 55.6298C63.7699 56.7598 65.7599 63.9898 70.4499 62.8598C74.0099 61.9998 77.43 62.7898 81 63.2298C82.67 63.4298 84.33 63.6298 86.02 63.5498C86.83 63.5098 89.77 62.7398 90.29 63.3498L89.1899 60.6998L89.3199 61.7798C89.6599 64.5398 92.2599 66.5298 94.9599 65.0198C97.1399 63.7998 99.7399 62.3798 102.34 62.4798L99.6899 61.3798L100.28 62.0198L99.3199 58.3698L99.0799 58.3398L101.97 57.9598L101.24 57.7498L103.48 59.4698L103.05 58.8498L103.43 61.7398L103.62 61.1098C105.02 56.4798 97.79 54.4998 96.39 59.1198L96.4 59.1298Z" fill="white"/>
<path d="M70.61 58.5803C75.9 58.8203 81.19 59.0502 86.48 59.2902C91.39 59.5102 96.53 59.3002 101.31 60.5402C106.09 61.7802 107.98 54.5202 103.3 53.3102C92.99 50.6502 81.19 51.5603 70.6 51.0903C65.77 50.8803 65.78 58.3803 70.6 58.5903L70.61 58.5803Z" fill="white"/>
<path d="M95.9799 59.9799C100.82 60.4899 105.44 62.7099 107.6 67.2299C109.76 71.7499 116.15 67.7799 114.08 63.4399C110.74 56.4499 103.32 53.2499 95.9799 52.4799C91.1899 51.9699 91.2199 59.4799 95.9799 59.9799Z" fill="white"/>
<path d="M34.2098 44.4519C36.5198 41.3319 38.4899 38.0519 40.0499 34.4919C41.4399 31.3119 42.0999 25.6918 45.2199 23.7918C48.3399 21.8918 53.4699 22.0119 56.8799 22.0719C61.3199 22.1419 65.2398 23.0219 67.6898 27.0919C71.1698 32.8919 68.1699 36.4419 63.7299 39.9919C60.4899 42.5819 57.5699 45.4819 54.8499 48.6119C51.8199 52.1019 48.9899 55.6719 43.7199 54.4619C39.9899 53.6019 31.8498 49.1719 35.2098 44.5319C37.0998 41.9219 32.7599 39.4219 30.8899 42.0119C23.9999 51.5519 39.9399 61.0319 48.1599 59.5619C54.4899 58.4319 57.7699 52.4619 61.9799 48.2519C65.9499 44.2919 73.1499 41.0119 74.3099 35.0219C75.2799 30.0219 72.5499 23.6519 68.6699 20.5319C64.1599 16.9119 57.9799 16.8119 52.4899 17.2719C47.3899 17.6919 41.6199 18.4119 38.8699 23.3419C37.5499 25.7119 37.0899 28.5119 36.1099 31.0319C34.5799 34.9619 32.3999 38.5519 29.8999 41.9319C27.9799 44.5219 32.3199 47.0119 34.2199 44.4519H34.2098Z" fill="#3A3A3A"/>
<path d="M31.1899 45.3104C29.0999 47.6304 30.58 51.4805 33.76 51.6905C36.59 51.8805 39.1799 49.1805 39.1999 46.3905C39.2199 43.3405 36.1399 41.1005 33.3299 42.5805C30.8099 43.9005 29.74 47.6005 31.75 49.8205C33.47 51.7205 36.46 51.5804 38.43 50.1604C40.72 48.5204 41.72 45.0904 39.55 42.8704C37.61 40.8804 34.32 41.2004 32.5 43.1604C30.82 44.9704 29.85 48.7905 32.3 50.3905C34.89 52.0805 38.6699 49.7504 39.4699 47.0504C39.9599 45.3704 39.43 43.4304 37.91 42.4704C36.5 41.5904 34.4699 41.7704 33.3699 43.0504C32.4899 44.0704 32.3699 45.5805 33.3699 46.5905C34.2699 47.4905 36.02 47.6205 36.91 46.5905C36.36 47.2305 34.55 46.8605 34.67 45.8305C34.72 45.3805 35.0799 45.4004 34.5899 45.6704C34.6199 45.6604 34.04 46.1404 34.17 45.9804C34.31 45.9304 34.2499 45.9505 33.9799 46.0305C34.2699 46.0005 34.5499 46.0205 34.8299 46.0805L35.7299 46.9804C35.7999 47.6304 35.8399 47.7305 35.8399 47.2805C35.8299 47.4805 35.85 47.4204 35.91 47.1004C36.03 46.6904 35.9199 47.0005 36.0999 46.6505C35.9699 46.7705 36.0099 46.7204 36.2299 46.5004C36.1799 46.5504 36.11 46.5705 36.04 46.5705C36.12 46.4305 36.24 46.4805 36.41 46.5205C35.99 46.4105 36.08 46.5205 35.77 46.0305C35.72 45.9505 35.8499 45.7905 35.8399 45.7805C35.6899 46.0505 35.6499 46.1105 35.7199 45.9605C35.8799 45.9005 35.82 45.9504 35.54 46.1004C35.36 46.1804 35.1999 46.2605 35.2099 46.2605C35.3699 46.2605 35.31 46.2605 35.03 46.2605C35.14 46.2605 35.2399 46.3005 35.3299 46.3805C35.4299 46.5405 35.5899 46.9004 35.6899 46.9804C35.6899 47.0304 35.6599 47.0804 35.6199 47.1104C35.7699 46.8504 35.7999 46.8005 35.7099 46.9605C35.3699 46.9605 35.05 47.1604 34.67 46.9304C34.52 46.8404 34.0799 46.1805 34.2199 46.1905C34.2899 46.1905 33.9699 46.7705 33.9399 46.7005C33.9399 46.6805 34.06 46.7304 34.06 46.7304C34.46 46.7504 34.7799 46.9205 34.9999 47.2605C35.2799 47.7605 35.1799 48.2904 34.7199 48.8604C35.6199 47.8604 35.7099 46.3105 34.7199 45.3205C33.7999 44.4005 32.09 44.3105 31.18 45.3205L31.1899 45.3104Z" fill="#3A3A3A"/>
<path d="M40.5999 22.4114C35.3599 17.9914 40.66 9.41145 40.8 3.81145L36.1399 5.07146C37.4999 7.50146 39.0199 9.79147 40.7699 11.9515C42.6999 14.3315 45.6199 16.5015 46.7799 19.3715C47.9399 22.2415 52.7999 21.0314 51.5999 18.0414C50.5399 15.4114 48.9699 13.5314 47.0299 11.4814C44.4499 8.75143 42.2999 5.82143 40.4599 2.54143C39.2199 0.321433 35.87 1.38144 35.8 3.80144C35.6 11.2214 29.85 19.8514 37.06 25.9314C39.51 27.9914 43.0599 24.4715 40.5999 22.3915V22.4114Z" fill="#3A3A3A"/>
<path d="M64.8198 19.231C67.5698 13.681 71.8499 9.22096 71.5099 2.66096L66.8499 3.92097C70.3599 11.361 76.5199 18.301 70.6799 26.561C68.8199 29.191 73.1499 31.691 74.9999 29.081C77.8199 25.091 78.6899 20.311 77.7699 15.531C76.7399 10.201 73.4299 6.18101 71.1699 1.39101C70.1099 -0.858995 66.3899 0.251015 66.5099 2.65101C66.7899 8.09101 62.7899 12.091 60.5099 16.691C59.0899 19.561 63.3998 22.101 64.8298 19.211L64.8198 19.231Z" fill="#3A3A3A"/>
<path d="M64.8699 43.861C67.8099 49.671 71.2999 53.491 77.9799 54.431C86.4699 55.621 95.4299 52.521 103.64 55.741C108.09 57.491 112.03 61.101 112.91 65.991C113.65 70.091 111.22 73.631 111.09 77.651C110.88 83.901 115.36 88.621 120.14 91.961L121.4 87.301C112.45 88.221 112.49 81.431 112.44 74.711C112.41 70.271 111.69 66.361 108.76 62.941C106.66 60.491 103.14 64.041 105.22 66.481C109.56 71.551 106.24 79.711 108.62 85.671C110.81 91.171 115.83 92.881 121.4 92.311C123.89 92.051 124.78 89.131 122.66 87.651C118.31 84.621 115.2 80.791 116.58 75.211C117.28 72.381 118.23 69.821 118.04 66.861C117.68 61.311 114.26 56.271 109.69 53.271C104.06 49.581 97.4299 49.071 90.8899 49.381C87.2099 49.561 83.5 50.011 79.81 49.661C74.19 49.121 71.6199 46.161 69.1899 41.361C67.7399 38.491 63.4199 41.021 64.8699 43.881V43.861Z" fill="#3A3A3A"/>
<path d="M103.67 64.8902C103.84 67.8402 99.8299 71.0302 99.2699 74.1402C99.0299 75.5102 99.0399 76.8401 99.1199 78.2301C99.2699 79.3401 99.3899 80.4502 99.4799 81.5702C99.1599 85.4602 97.3699 86.6902 94.0999 85.2702L92.6099 88.9402C95.7599 88.0702 97.7299 85.5502 98.0399 82.2802C98.5499 76.8602 92.7299 72.8101 93.5499 67.6001C94.0499 64.4501 89.2299 63.1002 88.7299 66.2702C88.2999 69.0102 88.5599 71.0601 89.6699 73.6601C90.6299 75.9001 95.9099 82.8301 91.2799 84.1101C89.6699 84.5501 89.0399 86.3702 89.7899 87.7802C92.8299 93.5202 101.3 91.2701 103.72 86.0401C105.42 82.3601 103.36 78.5401 104.2 74.7901C105.04 71.0401 108.93 69.2902 108.68 64.8802C108.49 61.6802 103.49 61.6602 103.68 64.8802L103.67 64.8902Z" fill="#3A3A3A"/>
<path d="M69.4799 68.4717C70.3099 71.2717 70.9299 74.0617 71.0999 76.9817C71.1399 77.6017 71.6299 82.0617 70.8799 82.5117C66.5399 85.1217 69.1099 79.0117 69.2099 78.1617C69.3999 76.6217 69.2099 75.1517 68.8899 73.6517C67.1599 65.7817 63.2499 57.8717 59.5199 50.7817C58.0199 47.9317 53.6999 50.4617 55.1999 53.3017C58.6599 59.8817 63.2199 67.9017 64.0999 75.4117C64.6599 80.1317 60.3299 85.9217 66.2099 89.0317C69.7299 90.8917 73.5199 89.0317 75.0799 85.6117C77.5899 80.1317 75.91 72.6117 74.29 67.1317C73.38 64.0517 68.5499 65.3617 69.4699 68.4617L69.4799 68.4717Z" fill="#3A3A3A"/>
<path d="M55.78 56.6405C57.26 59.6605 57.6999 62.9804 56.7199 66.2404C55.8599 69.1304 53.6899 71.0505 52.1999 73.5705C50.7099 76.0905 49.2899 80.3305 51.0799 83.0905C55.9199 90.5605 63.08 75.8604 66.28 74.2304C69.15 72.7704 66.6199 68.4604 63.7599 69.9104C61.8699 70.8704 60.4999 72.2005 59.2199 73.8805C57.9399 75.5605 56.1499 80.1205 53.6099 79.8305L55.77 81.0705C54.04 78.6905 57.1 75.3504 58.43 73.4804C59.91 71.4004 61.0999 69.3505 61.7099 66.8405C62.7799 62.4205 62.0599 58.1404 60.0899 54.1004C58.6799 51.2104 54.36 53.7404 55.77 56.6204L55.78 56.6405Z" fill="#3A3A3A"/>
<path d="M75.5699 79.4905C82.1599 80.5005 88.3699 79.6705 94.4599 76.9605C97.3999 75.6605 94.8499 71.3505 91.9399 72.6405C87.1999 74.7405 82.02 75.4405 76.9 74.6605C73.75 74.1805 72.3999 79.0005 75.5699 79.4805V79.4905Z" fill="#3A3A3A"/>
<path d="M31.1099 42.0202C30.1799 43.0202 29.64 44.2902 29.65 45.6602C29.66 47.0302 30.79 48.2202 32.15 48.1602C33.51 48.1002 34.67 47.0602 34.65 45.6602C34.65 45.5402 34.65 45.4202 34.66 45.3002L34.5699 45.9602C34.5999 45.7202 34.66 45.4902 34.75 45.2602L34.5 45.8602C34.6 45.6302 34.7199 45.4302 34.8699 45.2402L34.4799 45.7502C34.5299 45.6902 34.58 45.6302 34.64 45.5702C35.53 44.6102 35.66 42.9702 34.64 42.0302C33.62 41.0902 32.0599 41.0102 31.0999 42.0302L31.1099 42.0202Z" fill="#3A3A3A"/>
<path d="M30.02 41.2215C28.87 42.6415 28.13 44.3915 28.37 46.2615C28.46 46.9515 28.5899 47.5116 29.0999 48.0316C29.5299 48.4616 30.25 48.7915 30.87 48.7615C32.08 48.7115 33.55 47.6515 33.37 46.2615C33.33 45.9815 33.3299 45.7215 33.3299 45.4415C33.3199 44.9415 33.1899 45.8115 33.3599 45.2915C33.3999 45.1615 33.65 44.6515 33.39 45.1115C33.45 45.0015 33.92 44.3015 33.56 44.7515C34.38 43.7315 34.63 42.1916 33.56 41.2116C32.65 40.3816 30.9 40.1216 30.02 41.2116V41.2215Z" fill="#3A3A3A"/>
<path d="M42.8699 45.7616C51.3499 44.0216 59.8899 42.6416 68.4899 41.6616C70.0699 41.4816 70.0899 38.9816 68.4899 39.1616C59.6599 40.1716 50.9099 41.5616 42.1999 43.3516C40.6299 43.6716 41.2899 46.0816 42.8599 45.7616H42.8699Z" fill="#3A3A3A"/>
<path d="M43.12 48.5401C51.76 48.0201 60.34 47.6601 68.77 49.9701C70.32 50.4001 70.99 47.9902 69.43 47.5602C60.77 45.1802 51.9999 45.5101 43.1099 46.0401C41.5099 46.1401 41.4999 48.6401 43.1099 48.5401H43.12Z" fill="#3A3A3A"/>
<path d="M43.67 51.7307C51.2 53.1607 58.25 55.7507 64.91 59.5607C66.31 60.3607 67.57 58.2007 66.17 57.4007C59.33 53.4907 52.0699 50.7907 44.3299 49.3207C42.7599 49.0207 42.08 51.4307 43.67 51.7307Z" fill="#3A3A3A"/>
<path d="M28.7199 44.3417C19.6699 46.1817 10.7099 48.4017 1.84989 51.0017C0.309892 51.4517 0.969926 53.8716 2.50993 53.4116C11.3799 50.8116 20.3299 48.5917 29.3799 46.7517C30.9599 46.4317 30.2899 44.0217 28.7199 44.3417Z" fill="#3A3A3A"/>
<path d="M31.4499 47.2011C25.6899 48.9611 20.01 50.931 14.39 53.101C12.91 53.671 13.55 56.0911 15.05 55.5111C20.67 53.3411 26.3499 51.3711 32.1099 49.6111C33.6399 49.1411 32.9899 46.7311 31.4499 47.2011Z" fill="#3A3A3A"/>
<path d="M31.2299 41.6007C25.1499 40.4507 19.0599 39.3008 12.9799 38.1508C11.4099 37.8508 10.7299 40.2608 12.3199 40.5608C18.3999 41.7108 24.4899 42.8608 30.5699 44.0108C32.1399 44.3108 32.8199 41.9007 31.2299 41.6007Z" fill="#3A3A3A"/>
</svg>
