<svg width="202" height="183" viewBox="0 0 202 183" fill="none" xmlns="http://www.w3.org/2000/svg">
<path d="M121 5L72.5 3L75.5 49.5L159 33.5C159.5 23.5 153.5 26.5 150 19.5C147.2 13.9 129.5 7.5 121 5Z" fill="white"/>
<path d="M25.7378 159.914C24.1378 143.904 22.2178 127.874 21.0278 111.824C20.4278 103.714 20.0878 95.1144 22.1678 87.1844C24.7178 77.4544 35.3478 77.3144 43.7378 77.9344C48.2878 78.2744 52.1278 78.7944 53.2878 83.7944C54.1378 87.4844 54.4278 91.2445 54.4578 95.0245C54.5178 102.535 54.0078 110.084 53.7778 117.584C53.3278 132.314 52.9678 147.055 52.4378 161.785C52.3178 165.005 57.3178 164.995 57.4378 161.785C58.1078 143.585 58.4878 125.374 59.1178 107.174C59.4178 98.4644 60.2378 89.3445 57.7178 80.8545C55.6078 73.7245 50.4678 73.4144 43.7378 72.9344C36.6778 72.4244 28.0578 72.5245 22.2778 77.2845C15.9778 82.4745 15.7778 92.9744 15.6378 100.454C15.4578 109.994 16.7178 119.545 17.6578 129.025L20.7378 159.924C21.0578 163.094 26.0578 163.124 25.7378 159.924V159.914Z" fill="#20BEFF"/>
<path d="M6.38775 165.205C34.8478 164.355 63.3078 164.565 91.7578 163.915C106.268 163.585 120.768 162.955 135.258 162.215C149.418 161.485 163.788 161.245 177.878 159.585C181.038 159.215 181.068 154.205 177.878 154.585C163.788 156.245 149.428 156.485 135.258 157.215C120.768 157.965 106.268 158.585 91.7578 158.915C63.2978 159.565 34.8378 159.365 6.38775 160.205C3.17775 160.305 3.16775 165.305 6.38775 165.205Z" fill="#20BEFF"/>
<path d="M57.3478 116.554C86.5278 117.644 115.718 116.974 144.818 114.544C147.998 114.274 148.028 109.274 144.818 109.544C115.718 111.974 86.5278 112.654 57.3478 111.554C54.1278 111.434 54.1378 116.434 57.3478 116.554Z" fill="#20BEFF"/>
<path d="M145.008 159.315C143.318 142.225 145.828 124.135 150.438 107.635C154.578 92.7748 166.018 80.5248 181.568 77.7748C184.788 77.2048 189.638 76.5448 192.808 77.9948C199.278 80.9448 195.398 87.3848 192.998 91.7148C189.508 97.9948 186.198 104.225 183.718 110.985C178.338 125.595 176.348 141.275 177.608 156.765C177.868 159.955 182.868 159.975 182.608 156.765C181.358 141.365 183.388 125.955 188.858 111.485C191.538 104.375 195.498 98.1248 198.868 91.3748C201.138 86.8348 203.068 81.0748 199.478 76.6548C192.358 67.8848 175.568 73.1047 167.528 77.5447C156.528 83.6047 148.948 94.3347 145.628 106.315C140.948 123.205 138.288 141.845 140.018 159.325C140.328 162.495 145.338 162.525 145.018 159.325L145.008 159.315Z" fill="#20BEFF"/>
<path d="M128.828 102.664C134.628 105.924 138.848 111.064 143.008 116.144C145.048 118.634 148.568 115.084 146.548 112.604C142.108 107.184 137.538 101.824 131.358 98.3439C128.548 96.7639 126.028 101.084 128.838 102.664H128.828Z" fill="#20BEFF"/>
<path d="M134.198 99.4336C139.468 88.2236 145.958 80.3436 158.228 76.4236C170.288 72.5736 182.878 73.7936 194.558 78.3036C197.558 79.4636 198.858 74.6336 195.888 73.4836C182.918 68.4736 168.458 67.4036 155.228 72.1636C141.998 76.9236 135.458 85.0437 129.878 96.9037C128.518 99.8037 132.828 102.344 134.198 99.4236V99.4336Z" fill="#20BEFF"/>
<path d="M59.2378 104.855C71.1978 103.445 83.1978 102.395 95.2178 101.785C101.068 101.485 106.928 101.285 112.778 101.185C118.228 101.095 125.838 99.905 130.268 103.785C132.678 105.895 136.228 102.375 133.808 100.245C130.138 97.025 125.888 96.235 121.108 96.115C114.448 95.935 107.728 96.255 101.078 96.515C87.0877 97.065 73.1378 98.205 59.2378 99.845C56.0778 100.215 56.0478 105.225 59.2378 104.845V104.855Z" fill="#20BEFF"/>
<path d="M40.7278 73.2045C32.8578 59.1345 25.4478 43.3345 35.9378 28.4445C44.4078 16.4245 59.5378 7.54451 74.0778 5.54451C81.9678 4.45451 90.2178 5.41454 98.1378 5.70454C106.688 6.02454 115.758 5.6045 124.158 7.4145C131.098 8.9145 137.378 12.4046 143.108 16.5046C146.018 18.5846 148.818 20.8245 151.508 23.1945C155.098 26.3545 156.578 29.4846 156.988 34.2846C157.668 42.2446 157.388 50.5345 155.468 58.3045C154.518 62.1645 153.148 65.9046 151.178 69.3746C149.888 71.6446 147.728 73.6046 147.418 76.2546C147.308 77.1446 147.978 77.9545 148.658 78.4145L149.088 78.7146C149.748 79.1646 150.958 79.2046 151.608 78.7146L151.958 78.4545C154.508 76.5445 152.018 72.2046 149.438 74.1346L149.088 74.3946H151.608L151.178 74.0946L152.418 76.2546C152.418 76.2546 154.738 73.2045 155.118 72.5745C156.048 71.0045 156.858 69.3645 157.578 67.6845C159.128 64.0945 160.238 60.3646 160.968 56.5246C162.438 48.7346 162.668 40.5845 161.868 32.7045C161.068 24.8245 156.188 20.3546 150.068 15.5246C143.948 10.6946 137.508 6.43462 130.158 3.90462C121.448 0.904617 111.958 1.22459 102.868 0.874588C93.2778 0.514588 83.2978 -0.685378 73.7478 0.534622C58.3578 2.50462 42.5078 11.6645 33.0778 23.9545C20.0878 40.8845 27.0678 58.9746 36.4278 75.7246C37.9978 78.5346 42.3178 76.0145 40.7478 73.2045H40.7278Z" fill="#20BEFF"/>
<path d="M31.7778 74.0337C26.7678 69.4237 21.6878 64.5537 21.4878 57.2737C21.2878 49.9937 24.8878 43.4936 28.3878 37.7036C34.6178 27.3936 43.5278 17.0537 54.6978 12.0337C57.6278 10.7137 55.0878 6.40363 52.1778 7.71363C39.0178 13.6236 28.4578 26.5336 21.8678 39.0736C18.4678 45.5336 15.5378 52.9537 16.7578 60.3837C17.9378 67.6037 23.0678 72.7936 28.2378 77.5536C30.5978 79.7336 34.1478 76.2037 31.7778 74.0137V74.0337Z" fill="#20BEFF"/>
<path d="M24.8378 74.6041C18.2878 75.0241 10.4978 78.1741 5.51775 82.5241C0.0477543 87.3041 -0.262219 94.7141 0.107781 101.474C1.19778 121.344 2.66776 141.204 3.95776 161.054C4.16776 164.244 9.16776 164.274 8.95776 161.054C7.92776 145.034 6.88778 129.024 5.85778 113.004C5.42778 106.284 3.7978 98.294 5.6278 91.674C7.5978 84.534 18.0078 80.0441 24.8578 79.6041C28.0578 79.3941 28.0778 74.3941 24.8578 74.6041H24.8378Z" fill="#20BEFF"/>
<path d="M26.7078 45.2355C23.4678 50.9355 20.6078 56.8054 18.0778 62.8454C17.4578 64.3254 19.8778 64.9755 20.4878 63.5055C22.9378 57.6655 25.7378 51.9955 28.8678 46.4855C29.6678 45.0855 27.5078 43.8254 26.7078 45.2254V45.2355Z" fill="#20BEFF"/>
<path d="M28.2178 51.2556C25.5478 56.6956 22.8878 62.1255 20.2178 67.5655C19.5078 69.0055 21.6678 70.2755 22.3778 68.8255C25.0478 63.3855 27.7078 57.9556 30.3778 52.5156C31.0878 51.0756 28.9278 49.8056 28.2178 51.2556Z" fill="#20BEFF"/>
<path d="M29.5478 59.5739C27.4578 63.8139 25.6478 68.164 24.1078 72.634C23.5778 74.154 25.9978 74.8139 26.5178 73.2939C27.9878 69.0339 29.7178 64.8839 31.7078 60.8339C32.4178 59.3939 30.2578 58.1239 29.5478 59.5739Z" fill="#20BEFF"/>
<path d="M31.7978 65.324L28.2577 75.844C27.7477 77.374 30.1578 78.024 30.6678 76.504C31.8478 72.994 33.0278 69.494 34.2078 65.984C34.7178 64.454 32.3078 63.804 31.7978 65.324Z" fill="#20BEFF"/>
<path d="M17.5978 81.3047C12.7578 86.6347 6.03777 89.6847 1.06777 94.8847C-0.0422309 96.0447 1.71779 97.8148 2.83779 96.6548C7.80779 91.4548 14.5278 88.4047 19.3678 83.0747C20.4478 81.8847 18.6878 80.1147 17.5978 81.3047Z" fill="#20BEFF"/>
<path d="M16.9378 88.7549C12.0078 91.7049 7.35777 95.0449 2.95777 98.7449C1.72777 99.7849 3.49779 101.545 4.72779 100.515C8.95779 96.9549 13.4578 93.7648 18.1978 90.9148C19.5778 90.0848 18.3178 87.9249 16.9378 88.7549Z" fill="#20BEFF"/>
<path d="M15.7378 93.5049C11.2878 97.3249 6.83777 101.155 2.39777 104.975C1.17777 106.025 2.94779 107.785 4.16779 106.745C8.61779 102.925 13.0678 99.0949 17.5078 95.2749C18.7278 94.2249 16.9578 92.4649 15.7378 93.5049Z" fill="#20BEFF"/>
<path d="M16.6478 100.475C12.2178 103.475 7.99778 106.755 3.98778 110.315C2.78778 111.385 4.55774 113.145 5.75774 112.085C9.59774 108.665 13.6478 105.515 17.9078 102.635C19.2378 101.735 17.9878 99.5748 16.6478 100.475Z" fill="#20BEFF"/>
<path d="M15.8878 106.684C11.8178 109.854 7.96777 113.274 4.33777 116.944C3.20777 118.084 4.96779 119.854 6.10779 118.714C9.73779 115.044 13.5878 111.624 17.6578 108.454C18.9278 107.464 17.1478 105.704 15.8878 106.684Z" fill="#20BEFF"/>
<path d="M16.9178 111.716C12.1078 116.096 7.28775 120.466 2.47775 124.846C1.28775 125.926 3.05777 127.696 4.24777 126.616C9.05777 122.236 13.8778 117.866 18.6878 113.486C19.8778 112.406 18.1078 110.636 16.9178 111.716Z" fill="#20BEFF"/>
<path d="M16.1178 117.944C11.6078 121.874 7.18779 125.894 2.84779 130.004C1.67779 131.114 3.44781 132.874 4.61781 131.774C8.95781 127.664 13.3778 123.644 17.8878 119.714C19.0978 118.654 17.3278 116.894 16.1178 117.944Z" fill="#20BEFF"/>
<path d="M17.3778 123.455C13.0078 127.025 8.64775 130.595 4.27776 134.165C3.02776 135.185 4.80777 136.945 6.04777 135.935C10.4178 132.365 14.7778 128.795 19.1477 125.225C20.3977 124.205 18.6178 122.445 17.3778 123.455Z" fill="#20BEFF"/>
<path d="M19.1378 127.475C14.7378 132.365 8.54781 135.175 4.67781 140.595C3.73781 141.905 5.90779 143.155 6.83779 141.855C10.5478 136.655 16.6678 133.945 20.9078 129.235C21.9778 128.045 20.2178 126.265 19.1378 127.465V127.475Z" fill="#20BEFF"/>
<path d="M17.7178 134.615C12.5478 138.615 7.86783 143.145 3.68783 148.175C2.66783 149.405 4.42779 151.185 5.45779 149.945C9.63779 144.915 14.3178 140.395 19.4878 136.385C20.7578 135.405 18.9778 133.645 17.7178 134.615Z" fill="#20BEFF"/>
<path d="M17.4378 141.074C13.7178 144.884 9.92781 148.604 6.04781 152.244C4.87781 153.344 6.64777 155.114 7.81777 154.014C11.6978 150.374 15.4878 146.644 19.2078 142.844C20.3378 141.694 18.5678 139.924 17.4378 141.074Z" fill="#20BEFF"/>
<path d="M16.4878 147.315C13.8978 151.305 9.21779 153.275 6.32779 157.035C5.34779 158.305 7.51782 159.555 8.48782 158.295C11.3878 154.525 16.0178 152.625 18.6478 148.575C19.5278 147.225 17.3678 145.965 16.4878 147.315Z" fill="#20BEFF"/>
<path d="M19.4078 149.065C16.0578 152.235 12.7578 155.455 9.5278 158.735C8.3978 159.885 10.1678 161.655 11.2978 160.505C14.5378 157.225 17.8278 153.995 21.1778 150.835C22.3478 149.725 20.5778 147.965 19.4078 149.065Z" fill="#20BEFF"/>
<path d="M20.8277 152.975C18.0377 155.305 15.6578 158.035 13.7078 161.105C12.8378 162.465 14.9978 163.725 15.8678 162.365C17.7178 159.475 19.9678 156.945 22.5978 154.745C23.8378 153.715 22.0577 151.955 20.8277 152.975Z" fill="#20BEFF"/>
<path d="M20.1178 144.514L16.8778 147.794C15.7478 148.944 17.5177 150.704 18.6477 149.564L21.8877 146.284C23.0177 145.134 21.2478 143.374 20.1178 144.514Z" fill="#20BEFF"/>
<path d="M138.168 104.935C140.008 94.945 142.208 84.195 151.258 78.195C152.588 77.305 151.338 75.1451 149.998 76.0351C140.338 82.4451 137.738 93.5251 135.758 104.275C135.468 105.845 137.878 106.525 138.168 104.935Z" fill="#20BEFF"/>
<path d="M141.278 107.975C145.028 95.2351 149.338 81.6351 161.538 74.5751C162.928 73.7651 161.668 71.605 160.278 72.415C147.498 79.805 142.808 93.925 138.868 107.305C138.408 108.855 140.828 109.515 141.278 107.965V107.975Z" fill="#20BEFF"/>
<path d="M143.898 111.754C148.618 96.8738 156.038 81.8737 169.158 72.7037C170.468 71.7837 169.218 69.6237 167.898 70.5437C154.208 80.1137 146.428 95.5237 141.488 111.084C140.998 112.624 143.408 113.274 143.898 111.744V111.754Z" fill="#20BEFF"/>
<path d="M166.798 82.0744C169.348 79.0044 172.208 76.2144 175.388 73.8044C176.648 72.8444 175.408 70.6745 174.128 71.6445C170.768 74.1945 167.728 77.0644 165.038 80.3044C164.018 81.5344 165.778 83.3144 166.808 82.0744H166.798Z" fill="#20BEFF"/>
<path d="M61.8678 115.085L62.3277 125.115C62.3977 126.715 64.8977 126.725 64.8277 125.115L64.3678 115.085C64.2978 113.485 61.7978 113.475 61.8678 115.085Z" fill="#20BEFF"/>
<path d="M67.4278 114.825L67.1378 129.865C67.1078 131.475 69.6078 131.475 69.6378 129.865L69.9278 114.825C69.9578 113.215 67.4578 113.215 67.4278 114.825Z" fill="#20BEFF"/>
<path d="M73.2078 114.075C72.9378 123.145 73.3878 132.145 74.5578 141.145C74.7578 142.715 77.2678 142.735 77.0578 141.145C75.8878 132.145 75.4378 123.145 75.7078 114.075C75.7578 112.465 73.2578 112.465 73.2078 114.075Z" fill="#20BEFF"/>
<path d="M80.7078 113.825C80.6278 121.865 80.2678 129.895 79.6078 137.905C79.4778 139.505 81.9778 139.495 82.1078 137.905C82.7678 129.885 83.1378 121.865 83.2078 113.825C83.2278 112.215 80.7278 112.215 80.7078 113.825Z" fill="#20BEFF"/>
<path fill-rule="evenodd" clip-rule="evenodd" d="M43.7564 182.296C43.7193 182.296 43.6822 182.295 43.6452 182.295C43.4468 182.293 43.2484 182.291 43.0499 182.289C44.2932 175.741 45.7941 169.255 47.5578 162.825C48.1502 160.672 51.0237 160.562 52.08 162.066C53.2557 161.27 54.9261 161.99 55.6014 163.278C56.2523 162.347 57.1522 162.093 57.97 162.283C59.4794 162.403 60.9943 163.754 60.3478 165.415C59.2578 168.215 58.1678 171.017 57.0777 173.82C57.045 173.904 57.0123 173.988 56.9796 174.072C56.2167 176.483 55.5414 178.937 54.8713 181.372C54.7765 181.717 54.6818 182.061 54.587 182.404C54.3032 182.402 54.0195 182.399 53.7357 182.396C53.4443 182.394 53.1529 182.391 52.8615 182.388C52.65 182.386 52.4386 182.384 52.2271 182.382C51.4585 182.374 50.69 182.367 49.9214 182.359C49.8999 182.359 49.8784 182.359 49.8569 182.358C49.7121 182.357 49.5674 182.355 49.4227 182.354C49.3107 182.353 49.1988 182.352 49.0868 182.351C49.0553 182.35 49.0238 182.35 48.9923 182.35C48.9527 182.349 48.9131 182.349 48.8735 182.349C48.8521 182.348 48.8306 182.348 48.8091 182.348C48.5755 182.346 48.3418 182.343 48.1082 182.341C47.9033 182.339 47.6983 182.337 47.4934 182.335C47.369 182.333 47.2447 182.332 47.1203 182.331C46.859 182.328 46.5977 182.325 46.3364 182.323C46.0398 182.32 45.7433 182.317 45.4468 182.314C45.2356 182.311 45.0243 182.309 44.8131 182.307C44.4609 182.303 44.1086 182.3 43.7564 182.296Z" fill="#20BEFF"/>
</svg>
