<svg width="171" height="188" viewBox="0 0 171 188" fill="none" xmlns="http://www.w3.org/2000/svg">
<path d="M126 11.5L75.5 3.5L91 71L136.5 76.5L139.5 55.5L150.5 36L148 27L126 11.5Z" fill="white"/>
<path d="M40.0699 74.7302C37.2399 67.4002 34.7399 59.9502 32.6599 52.3702C31.6599 48.7302 30.7599 45.0703 29.9499 41.3903C29.1399 37.7103 27.3599 32.5503 28.3599 28.6303C29.9599 22.3803 39.5099 18.2303 44.5699 15.2603C51.0999 11.4203 57.9699 8.36022 65.4299 6.91022C73.1999 5.40022 81.1699 5.71028 89.0199 6.28028C97.5799 6.90028 106.2 7.64024 114.5 9.93024C121.8 11.9402 128.75 15.0402 135.24 18.9402C141.27 22.5602 149.56 28.0103 147.69 36.2003C146.11 43.1103 139.91 48.3102 137.6 55.0602C135.1 62.3902 135.42 70.3502 135.77 77.9702C135.92 81.1702 140.92 81.1902 140.77 77.9702C140.36 69.1202 139.97 59.8403 144.49 51.8803C147.88 45.9203 153.23 40.5902 153 33.2502C152.79 26.5202 147.67 21.4003 142.53 17.7103C135.94 12.9803 128.42 9.30026 120.77 6.64026C112.32 3.71026 103.49 2.50022 94.6199 1.72022C85.7499 0.940217 76.6599 0.250227 67.7399 1.48023C59.7399 2.58023 52.1899 5.31024 45.1199 9.18024C38.7299 12.6702 30.4399 16.7002 25.9199 22.6202C21.0199 29.0302 23.9099 37.4602 25.5399 44.5502C27.9899 55.2802 31.2799 65.7902 35.2399 76.0502C36.3899 79.0202 41.2199 77.7302 40.0599 74.7202L40.0699 74.7302Z" fill="#FF46A0"/>
<path d="M52.5 158.5L49 146L136 154.5L52.5 158.5Z" fill="white"/>
<path d="M31.8799 74.4895C30.7599 65.5995 26.4799 58.0395 23.6699 49.6595C20.8599 41.2795 20.1999 30.1495 29.4999 25.6195C32.3899 24.2095 29.8599 19.8995 26.9799 21.2995C19.1999 25.0795 16.0399 33.8195 16.8299 42.0595C17.9299 53.5295 25.4499 63.0995 26.8799 74.4795C27.2799 77.6295 32.2799 77.6695 31.8799 74.4795V74.4895Z" fill="#FF46A0"/>
<path d="M16.5499 158.509C15.7799 143.359 14.9999 128.209 14.2299 113.059C13.8399 105.479 12.5099 97.1593 14.1699 89.6693C15.9999 81.4093 21.6199 77.9293 29.6799 76.9693C47.1599 74.8893 42.76 104.839 43.31 115.279C44.09 129.929 47.8399 144.689 50.3699 159.119C50.9199 162.279 55.74 160.939 55.19 157.789C53.49 148.119 51.7799 138.449 50.0999 128.779C48.4399 119.219 48.38 110.149 48.31 100.509C48.25 93.3194 47.5199 85.9194 44.0999 79.4594C40.3899 72.4594 35.6 71.1493 28 72.1693C21.44 73.0493 15.8 75.2693 12.21 81.1093C8.46998 87.1893 8.33996 94.4894 8.62996 101.399C9.41996 120.439 10.5699 139.479 11.5499 158.509C11.7099 161.709 16.7099 161.729 16.5499 158.509Z" fill="#FF46A0"/>
<path d="M10.2999 163.05C60.1899 161.47 110.08 159.9 159.97 158.32C163.18 158.22 163.19 153.22 159.97 153.32C110.08 154.9 60.1899 156.47 10.2999 158.05C7.08992 158.15 7.07992 163.15 10.2999 163.05Z" fill="#FF46A0"/>
<path d="M10.8699 160.209C9.24992 145.679 7.9399 131.119 6.9699 116.529C6.4999 109.399 6.10991 102.259 5.78991 95.1194C5.54991 89.7294 8.41995 87.4994 12.5199 84.6194C15.4999 82.5294 18.5899 80.6294 21.7599 78.8494C24.5599 77.2694 22.0499 72.9494 19.2399 74.5294C13.6399 77.6894 6.30992 81.4194 2.23992 86.5394C0.049919 89.2894 0.689946 92.8194 0.829946 96.0994C1.01995 100.319 1.23991 104.539 1.47991 108.749C2.47991 125.939 3.95991 143.099 5.85991 160.209C6.20991 163.369 11.2199 163.409 10.8599 160.209H10.8699Z" fill="#FF46A0"/>
<path d="M122.45 102.091C123.07 99.2305 123.36 96.0705 124.34 93.3205C125.47 90.1505 127.07 89.5705 129.86 88.2305C134.47 86.0105 138.34 82.9905 142.45 79.9905C147.2 76.5205 152.31 75.1305 158.14 74.7905C167.92 74.2205 164.77 84.9305 162.92 90.7205C159.85 100.34 158.69 109.681 158.67 119.771C158.65 130.991 159.33 142.2 156.74 153.22C156 156.35 160.82 157.69 161.56 154.55C164.75 141 163.24 127.221 163.78 113.461C164.08 105.991 165.5 99.1505 167.74 92.0505C169.41 86.7605 171.46 80.1405 168.97 74.7505C164.42 64.9205 147 70.6905 140.56 75.2005C137.87 77.0805 135.39 79.2405 132.61 81.0005C129.83 82.7605 126.68 83.9005 123.79 85.5005C118.67 88.3405 118.73 95.6505 117.63 100.751C116.95 103.891 121.77 105.231 122.45 102.081V102.091Z" fill="#FF46A0"/>
<path d="M48.15 103.531C61.94 101.831 75.77 100.111 89.68 99.8106C103.09 99.5206 117.46 100.681 127.2 111.001C129.41 113.341 132.94 109.801 130.74 107.461C121.53 97.7106 108.32 94.9706 95.37 94.7706C79.57 94.5206 63.8 96.5906 48.15 98.5206C45 98.9106 44.96 103.911 48.15 103.521V103.531Z" fill="#FF46A0"/>
<path d="M47.3199 114.8C75.1899 115.77 103.08 115.15 130.88 112.92C134.07 112.67 134.09 107.66 130.88 107.92C103.08 110.14 75.1899 110.77 47.3199 109.8C44.0999 109.69 44.1099 114.69 47.3199 114.8Z" fill="#FF46A0"/>
<path d="M131.75 155.051C131.96 141.161 133.09 127.311 135.3 113.591C136.32 107.261 137.56 100.961 139.01 94.7211C140.65 87.6811 142.37 80.0511 149.53 76.7211C152.44 75.3611 149.91 71.0511 147.01 72.4011C134.44 78.2511 133.22 96.5311 131.12 108.471C128.42 123.861 126.99 139.431 126.75 155.051C126.7 158.271 131.7 158.271 131.75 155.051Z" fill="#FF46A0"/>
<path fill-rule="evenodd" clip-rule="evenodd" d="M122.37 160.271C124.128 163.549 125.897 166.82 127.679 170.083C128.168 171.168 128.659 172.252 129.154 173.335C129.725 174.623 130.295 175.912 130.863 177.202C131.977 180.729 133.181 184.273 134.727 187.531L144.513 187.599C144.493 187.515 144.469 187.429 144.44 187.341C141.24 177.661 138.11 167.971 135.94 157.991C135.404 155.539 132.436 155.802 131.414 157.511C131.301 157.406 131.181 157.314 131.054 157.236C129.862 155.972 127.542 156.537 126.908 158.139L126.7 157.751C125.18 154.911 120.86 157.441 122.38 160.271H122.37ZM35.279 186.843C35.8076 183.332 36.6192 179.898 37.4376 176.436L37.4376 176.436L37.4378 176.435C37.5553 175.937 37.673 175.44 37.7899 174.941C38.4999 171.931 39.17 168.881 39.31 165.781C39.3345 165.238 39.3087 164.686 39.2829 164.132C39.2351 163.105 39.187 162.072 39.46 161.091C39.83 159.741 41.2299 159.031 42.5399 159.341L42.7299 159.391C43.6788 159.619 44.4446 160.555 44.5487 161.522C44.5911 161.511 44.6341 161.5 44.6777 161.49C45.1305 161.272 45.831 161.063 46.5243 160.857L46.5245 160.857C47.6135 160.533 48.6847 160.214 48.75 159.871C49.82 156.821 54.18 158.041 53.57 161.201C53.4556 161.799 53.2794 162.322 53.0166 162.786L52.7528 163.541C52.7511 163.603 52.7469 163.667 52.74 163.731C52.0777 169.783 49.4566 175.928 46.9635 181.772L46.9635 181.772C46.2202 183.515 45.4883 185.231 44.8231 186.909C41.6417 186.887 38.4603 186.865 35.279 186.843Z" fill="#FF46A0"/>
<path d="M50.15 113.11C50.02 118.1 50.1 123.09 50.38 128.08C50.47 129.68 52.97 129.69 52.88 128.08C52.59 123.09 52.52 118.11 52.65 113.11C52.69 111.5 50.19 111.5 50.15 113.11Z" fill="#FF46A0"/>
<path d="M55.85 113.379V135.419C55.85 137.029 58.35 137.029 58.35 135.419V113.379C58.35 111.769 55.85 111.769 55.85 113.379Z" fill="#FF46A0"/>
<path d="M59.96 114.2C59.83 121.19 59.9 128.17 60.15 135.16C60.21 136.76 62.71 136.77 62.65 135.16C62.4 128.18 62.33 121.19 62.46 114.2C62.49 112.59 59.99 112.59 59.96 114.2Z" fill="#FF46A0"/>
<path d="M65.11 113.93C64.98 119.66 65.15 125.37 65.62 131.08C65.75 132.67 68.25 132.69 68.12 131.08C67.65 125.37 67.48 119.66 67.61 113.93C67.65 112.32 65.15 112.32 65.11 113.93Z" fill="#FF46A0"/>
<path d="M70.82 112.84V134.34C70.82 135.95 73.32 135.95 73.32 134.34V112.84C73.32 111.23 70.82 111.23 70.82 112.84Z" fill="#FF46A0"/>
<path d="M74.87 113.379C74.68 122.719 74.48 132.069 74.29 141.409C74.26 143.019 76.76 143.019 76.79 141.409C76.98 132.069 77.18 122.719 77.37 113.379C77.4 111.769 74.9 111.769 74.87 113.379Z" fill="#FF46A0"/>
<path d="M77.81 114.21C78.73 121.72 79.04 129.23 78.74 136.79C78.68 138.4 81.18 138.4 81.24 136.79C81.54 129.23 81.23 121.72 80.31 114.21C80.12 112.63 77.61 112.61 77.81 114.21Z" fill="#FF46A0"/>
<path d="M82.79 114.469C82.88 120.819 82.78 127.169 82.5 133.519C82.43 135.129 84.93 135.129 85 133.519C85.28 127.169 85.38 120.819 85.29 114.469C85.27 112.859 82.77 112.859 82.79 114.469Z" fill="#FF46A0"/>
<path d="M88 112.559C88.15 117.749 88.47 122.919 88.96 128.079C89.11 129.669 91.61 129.679 91.46 128.079C90.97 122.919 90.65 117.739 90.5 112.559C90.45 110.949 87.95 110.949 88 112.559Z" fill="#FF46A0"/>
<path d="M92.4 114.46C92.92 120.26 93.25 126.06 93.39 131.88C93.43 133.49 95.93 133.49 95.89 131.88C95.75 126.06 95.42 120.25 94.9 114.46C94.76 112.87 92.26 112.86 92.4 114.46Z" fill="#FF46A0"/>
<path d="M97.82 113.65C98.62 121.17 98.96 128.69 98.85 136.24C98.83 137.85 101.33 137.85 101.35 136.24C101.46 128.68 101.12 121.16 100.32 113.65C100.15 112.07 97.65 112.05 97.82 113.65Z" fill="#FF46A0"/>
<path d="M103.59 113.389C103.85 120.639 104.12 127.899 104.38 135.149C104.44 136.749 106.94 136.759 106.88 135.149C106.62 127.899 106.35 120.639 106.09 113.389C106.03 111.789 103.53 111.779 103.59 113.389Z" fill="#FF46A0"/>
<path d="M110.18 111.2C109.96 116.64 109.92 122.09 110.04 127.53C110.08 129.14 112.58 129.14 112.54 127.53C112.42 122.08 112.47 116.64 112.68 111.2C112.74 109.59 110.24 109.59 110.18 111.2Z" fill="#FF46A0"/>
<path d="M115.41 112.569C115.89 119.089 116.19 125.619 116.31 132.159C116.34 133.769 118.84 133.769 118.81 132.159C118.69 125.619 118.39 119.089 117.91 112.569C117.79 110.979 115.29 110.959 115.41 112.569Z" fill="#FF46A0"/>
<path d="M120.74 112.02C120.74 119.46 120.91 126.9 121.25 134.33C121.32 135.93 123.82 135.94 123.75 134.33C123.41 126.9 123.24 119.46 123.24 112.02C123.24 110.41 120.74 110.41 120.74 112.02Z" fill="#FF46A0"/>
<path d="M125.49 111.479C126.13 118.279 126.24 125.069 125.85 131.889C125.76 133.499 128.26 133.489 128.35 131.889C128.75 125.069 128.63 118.279 127.99 111.479C127.84 109.889 125.34 109.879 125.49 111.479Z" fill="#FF46A0"/>
<path d="M125.87 101.479L128.19 90.289C128.52 88.719 126.11 88.049 125.78 89.629C125.01 93.359 124.24 97.089 123.46 100.819C123.13 102.389 125.54 103.059 125.87 101.479Z" fill="#FF46A0"/>
<path d="M130.41 86.3603C128.67 92.4503 127.51 98.6403 126.91 104.94C126.76 106.54 129.26 106.53 129.41 104.94C129.99 98.8503 131.14 92.9003 132.82 87.0203C133.26 85.4703 130.85 84.8103 130.41 86.3603Z" fill="#FF46A0"/>
<path d="M22.7 34.9395C21.89 39.0195 21.07 43.1095 20.26 47.1895C19.95 48.7595 22.36 49.4295 22.67 47.8495C23.48 43.7695 24.3 39.6795 25.11 35.5995C25.42 34.0295 23.01 33.3595 22.7 34.9395Z" fill="#FF46A0"/>
<path d="M25.39 42.6295C25.16 46.2895 24.6401 49.8895 23.8401 53.4695C23.4901 55.0395 25.9 55.7095 26.25 54.1295C27.1 50.3395 27.64 46.5095 27.89 42.6295C27.99 41.0195 25.49 41.0295 25.39 42.6295Z" fill="#FF46A0"/>
<path d="M27.61 48.8891C27.45 52.7891 27.06 56.6591 26.42 60.5191C26.16 62.0891 28.57 62.7691 28.83 61.1791C29.51 57.1091 29.94 53.0191 30.11 48.8891C30.18 47.2791 27.67 47.2791 27.61 48.8891Z" fill="#FF46A0"/>
<path d="M30.84 58.6787C30.55 61.4887 30.27 64.2987 29.98 67.1087C29.82 68.7087 32.32 68.6987 32.48 67.1087C32.77 64.2987 33.05 61.4887 33.34 58.6787C33.5 57.0787 31 57.0887 30.84 58.6787Z" fill="#FF46A0"/>
<path d="M32.42 67.6595C32.61 69.3195 32.49 70.9095 32.01 72.5095C31.53 74.1095 33.96 74.7095 34.42 73.1695C34.96 71.3695 35.14 69.5195 34.92 67.6495C34.74 66.0695 32.24 66.0495 32.42 67.6495V67.6595Z" fill="#FF46A0"/>
<path d="M8.33001 88.0287C7.11001 92.4687 5.65 96.8187 3.95 101.089C3.35 102.579 5.76998 103.229 6.35998 101.749C8.05998 97.4786 9.51998 93.1286 10.74 88.6886C11.17 87.1386 8.76001 86.4687 8.33001 88.0287Z" fill="#FF46A0"/>
<path d="M8.09 98.9186C6.73 104.269 5.07998 109.529 3.12998 114.689C2.55998 116.199 4.97995 116.849 5.53995 115.349C7.48995 110.179 9.13997 104.929 10.5 99.5787C10.9 98.0187 8.49 97.3486 8.09 98.9186Z" fill="#FF46A0"/>
<path d="M8.68999 109.199C6.90999 114.559 5.13998 119.929 3.35998 125.289C2.84998 126.819 5.27001 127.479 5.77001 125.949C7.55001 120.589 9.31997 115.219 11.1 109.859C11.61 108.329 9.18999 107.669 8.68999 109.199Z" fill="#FF46A0"/>
<path d="M10.99 120.39L5.44999 134.78C4.86999 136.28 7.28997 136.93 7.85997 135.44C9.70997 130.64 11.55 125.85 13.4 121.05C13.98 119.55 11.56 118.9 10.99 120.39Z" fill="#FF46A0"/>
<path d="M11.17 130.709C9.38999 136.339 7.61002 141.979 5.82002 147.609C5.33002 149.149 7.74999 149.809 8.22999 148.269C10.01 142.639 11.79 136.999 13.58 131.369C14.07 129.829 11.65 129.169 11.17 130.709Z" fill="#FF46A0"/>
<path d="M10.97 142.429C9.10996 147.119 7.65001 151.919 6.58001 156.849C6.24001 158.419 8.64998 159.089 8.98998 157.509C10.06 152.579 11.52 147.779 13.38 143.089C13.97 141.589 11.56 140.939 10.97 142.429Z" fill="#FF46A0"/>
<path d="M11.26 153.929C11.15 155.209 10.81 156.469 10.26 157.629C9.58002 159.079 11.73 160.349 12.42 158.889C13.17 157.299 13.61 155.669 13.76 153.929C13.9 152.329 11.4 152.339 11.26 153.929Z" fill="#FF46A0"/>
<path d="M124.92 98.8496C126.53 98.8496 126.53 96.3496 124.92 96.3496C123.31 96.3496 123.31 98.8496 124.92 98.8496Z" fill="#FF46A0"/>
</svg>
