<svg width="53" height="51" viewBox="0 0 53 51" fill="none" xmlns="http://www.w3.org/2000/svg">
<path d="M5.78001 31.63C5.01001 20.93 9.29001 10.5099 20.09 6.96992C25.81 5.08992 32.84 3.67996 37.87 7.69996C42.14 11.12 46.06 15.7399 47.29 21.1699C49.72 31.9599 42.52 42.3299 31.95 44.7399C20.68 47.3099 9.94003 40.1699 6.17003 29.5999C5.10003 26.5899 0.260019 27.8899 1.35002 30.9299C5.97002 43.8599 18.71 52.5299 32.58 49.7199C45.68 47.0599 54.62 34.5199 52.38 21.2399C51.2 14.2299 46.58 8.33994 41.18 3.91993C35.43 -0.790065 28.73 -0.270051 21.89 1.30995C7.34003 4.66995 -0.269988 17.03 0.780012 31.63C1.01001 34.82 6.01001 34.85 5.78001 31.63Z" fill="#20BEFF"/>
<path d="M28.08 27.68C29.69 27.34 30.57 25.47 30.09 23.97C29.47 22.07 27.24 21.3901 25.56 22.3401C23.03 23.7701 22.98 27.6601 25.4 29.2001C27.82 30.7401 31.19 28.9101 31.19 26.0701C31.19 22.8401 26.8 21.3 24.83 23.85C23.87 25.09 23.85 26.93 24.73 28.22C25.71 29.66 27.24 30.1301 28.89 30.3301C30.76 30.5501 32.03 28.0401 31.05 26.5701C30.07 25.1001 28.58 24.2201 26.79 24.1501C25.48 24.0901 24.23 25.3401 24.29 26.6501C24.35 28.0501 25.39 29.0901 26.79 29.1501C27.1 29.1601 26.89 29.1501 26.7 29.1301C27.13 29.1801 26.53 29.0001 26.73 29.1301C27.01 29.3101 26.47 28.8301 26.69 29.0801C26.79 29.1901 27.02 29.5301 26.73 29.0901L28.89 25.3301C29.45 25.3901 28.96 25.33 28.83 25.3C28.73 25.28 28.63 25.2501 28.53 25.2101L28.75 25.3C28.54 25.17 28.52 25.1601 28.67 25.2601C28.79 25.3301 28.88 25.4301 28.95 25.5601C29.02 25.6901 29.1 25.98 29.02 25.67C29.31 26.82 28.13 27.71 27.06 27.47C27.26 27.53 27.25 27.5201 27.04 27.4501C26.87 27.4101 26.73 27.3201 26.61 27.1901C26.3 26.8901 26.26 26.57 26.25 26.16C26.24 25.75 26.27 25.44 26.58 25.11L26.84 24.9001C27.19 24.7801 27.27 24.74 27.08 24.79C26.95 24.82 26.98 24.82 27.19 24.79C27.37 24.74 27.55 24.7601 27.73 24.8201C28.02 24.9101 28.17 25.1301 28.39 25.3101C28.49 25.4601 28.51 25.4801 28.44 25.3701C28.35 25.2001 28.38 25.28 28.54 25.6L28.58 25.9401C28.58 25.7201 28.58 25.7201 28.56 25.9401C28.52 26.1601 28.53 26.1701 28.58 25.9501L28.46 26.2501C28.17 26.7601 27.37 27.0601 26.83 26.8701L25.73 26.23C25.16 25.49 25.06 24.7301 25.44 23.9301L26.34 23.0301L26.74 22.86C25.46 23.13 24.6 24.7101 24.99 25.9401C25.43 27.3001 26.69 27.9701 28.07 27.6901L28.08 27.68Z" fill="#20BEFF"/>
<path d="M30.04 23.6696C29.47 19.8696 28.9 16.0697 28.33 12.2597C27.85 9.08967 23.04 10.4397 23.51 13.5897C24.08 17.3897 24.65 21.1897 25.22 24.9997C25.7 28.1697 30.51 26.8196 30.04 23.6696Z" fill="#20BEFF"/>
<path d="M30.46 28.5201C33.79 27.4701 37.21 27.0801 40.67 27.5801C43.82 28.0401 45.18 23.2201 42 22.7601C37.62 22.1201 33.36 22.3601 29.13 23.7001C26.07 24.6701 27.38 29.5001 30.46 28.5201Z" fill="#20BEFF"/>
</svg>
