<svg width="112" height="103" viewBox="0 0 112 103" fill="none" xmlns="http://www.w3.org/2000/svg">
<path d="M59.2512 19.7708L59.3228 2.54108C59.3331 -0.84182 54.2155 -0.84182 54.2053 2.54108L54.1336 19.7708C54.1234 23.1537 59.241 23.1537 59.2512 19.7708Z" fill="#FF46A0"/>
<path d="M79.6907 29.8481C84.7878 25.8663 89.6802 21.6324 94.3167 17.0834C96.7015 14.7406 93.0783 11.032 90.6935 13.3643C86.3743 17.5982 81.8606 21.6009 77.1115 25.3095C74.522 27.3266 77.0705 31.8967 79.6907 29.8481Z" fill="#53FF6E"/>
<path d="M85.4429 51.3643C93.1397 51.3643 100.837 51.3643 108.533 51.3643C111.829 51.3643 111.829 46.1113 108.533 46.1113C100.837 46.1113 93.1397 46.1113 85.4429 46.1113C82.1472 46.1113 82.1472 51.3643 85.4429 51.3643Z" fill="#FF46A0"/>
<path d="M79.0766 75.7373C84.7162 76.5567 89.6393 80.2443 94.4805 83.1019C97.3361 84.7934 99.9154 80.2548 97.0598 78.5633C91.8398 75.4746 86.5278 71.5559 80.4277 70.6734C77.2036 70.2111 75.8116 75.2645 79.0664 75.7373H79.0766Z" fill="#53FF6E"/>
<path d="M53.0999 82.8506C52.7621 88.7129 52.6086 94.5857 52.6598 100.458C52.6905 103.841 57.8081 103.841 57.7773 100.458C57.7364 94.5857 57.8797 88.7129 58.2175 82.8506C58.4119 79.4782 53.2944 79.4887 53.0999 82.8506Z" fill="#FF46A0"/>
<path d="M22.2408 46.046C15.6493 46.151 9.05792 46.1195 2.47673 45.9724C-0.818984 45.8989 -0.818984 51.1519 2.47673 51.2254C9.06815 51.383 15.6493 51.404 22.2408 51.2989C25.5262 51.2464 25.5365 45.9935 22.2408 46.046Z" fill="#FF46A0"/>
<path d="M32.2099 21.4836C30.0196 21.1579 27.8191 18.9832 26.0381 17.7014C24.0321 16.2621 22.0669 14.7703 20.112 13.2469C17.4918 11.1983 14.9433 15.7578 17.5327 17.7855C19.7435 19.5085 21.9748 21.1894 24.2572 22.8178C26.2428 24.2361 28.3922 26.1902 30.8487 26.5474C34.0727 27.0202 35.4647 21.9563 32.2099 21.4836Z" fill="#53FF6E"/>
<path d="M29.6205 70.2937C22.8551 72.3844 18.2595 77.3747 13.93 82.8588C11.8728 85.4642 15.4755 89.2043 17.5533 86.5779C21.2686 81.8712 25.1375 77.1751 30.9817 75.368C34.1239 74.391 32.7831 69.3271 29.6205 70.3042V70.2937Z" fill="#53FF6E"/>
</svg>
