<svg width="82" height="63" viewBox="0 0 82 63" fill="none" xmlns="http://www.w3.org/2000/svg">
<g clip-path="url(#clip0_853_171884)">
<path d="M3.78335 53.5164C9.02335 50.8564 14.2733 48.1963 19.5133 45.5363L15.8433 42.7164C14.2733 48.4064 12.7033 54.1063 11.1333 59.7963C10.5933 61.7563 12.9733 63.9364 14.8033 62.6164C18.1733 60.1964 21.5433 57.7764 24.9033 55.3564C27.4933 53.4964 25.0033 49.1563 22.3833 51.0363C19.0133 53.4563 15.6434 55.8763 12.2834 58.2963L15.9533 61.1164C17.5233 55.4264 19.0934 49.7263 20.6634 44.0363C21.2734 41.8363 18.8833 40.2464 16.9933 41.2164C11.7533 43.8764 6.50333 46.5364 1.26333 49.1964C-1.60667 50.6564 0.923352 54.9664 3.78335 53.5164Z" fill="#3A3A3A"/>
</g>
<defs>
<clipPath id="clip0_853_171884">
<rect width="82" height="63" fill="white"/>
</clipPath>
</defs>
</svg>
