<svg width="82" height="63" viewBox="0 0 82 63" fill="none" xmlns="http://www.w3.org/2000/svg">
<g clip-path="url(#clip0_853_171884)">
<path d="M28.9234 35.0652C32.6534 31.7852 36.7133 29.1052 41.1433 26.8752L37.4734 24.0552C35.2034 30.9452 33.7933 37.9652 33.1133 45.1852C32.9333 47.0852 35.3633 48.2852 36.8733 47.3452C41.5233 44.4552 46.1733 41.5551 50.8133 38.6651C53.5433 36.9651 51.0334 32.6452 48.2934 34.3452C43.6434 37.2352 38.9934 40.1352 34.3534 43.0252L38.1133 45.1852C38.7533 38.4152 40.1734 31.8452 42.2934 25.3852C43.0234 23.1752 40.4533 21.6452 38.6233 22.5652C33.7933 24.9852 29.4333 27.9651 25.3833 31.5351C22.9633 33.6651 26.5134 37.1852 28.9234 35.0752V35.0652Z" fill="#3A3A3A"/>
<path d="M3.78335 53.5164C9.02335 50.8564 14.2733 48.1963 19.5133 45.5363L15.8433 42.7164C14.2733 48.4064 12.7033 54.1063 11.1333 59.7963C10.5933 61.7563 12.9733 63.9364 14.8033 62.6164C18.1733 60.1964 21.5433 57.7764 24.9033 55.3564C27.4933 53.4964 25.0033 49.1563 22.3833 51.0363C19.0133 53.4563 15.6434 55.8763 12.2834 58.2963L15.9533 61.1164C17.5233 55.4264 19.0934 49.7263 20.6634 44.0363C21.2734 41.8363 18.8833 40.2464 16.9933 41.2164C11.7533 43.8764 6.50333 46.5364 1.26333 49.1964C-1.60667 50.6564 0.923352 54.9664 3.78335 53.5164Z" fill="#3A3A3A"/>
</g>
<defs>
<clipPath id="clip0_853_171884">
<rect width="82" height="63" fill="white"/>
</clipPath>
</defs>
</svg>
