<svg width="317" height="269" viewBox="0 0 317 269" fill="none" xmlns="http://www.w3.org/2000/svg">
<g clip-path="url(#clip0_849_91251)">
<path d="M202.513 12.5488C219.031 20.9201 231.795 32.7235 240.805 47.9548C249.815 63.1918 254.319 81.0514 254.319 101.528C254.319 114.518 251.503 127.882 245.873 141.617C240.242 155.354 232.417 167.718 222.409 178.706L151.082 257.758C147.077 262.007 143.323 264.939 139.82 266.561C136.312 268.183 131.936 268.997 126.681 268.997C113.664 268.997 102.654 263.628 93.6441 252.886L145.45 198.186C153.708 196.191 161.089 193.691 167.599 190.693L165.723 186.198C155.211 191.198 144.071 193.691 132.311 193.691C112.79 193.691 95.7087 189.886 81.0683 182.263C66.4265 174.648 55.1653 163.906 47.2819 150.045C39.3985 136.181 35.4561 120.015 35.4561 101.525C35.4561 81.0485 39.8975 63.189 48.7833 47.952C57.6633 32.7192 70.3689 20.9172 86.8871 12.546C103.407 4.18467 122.677 -0.000244141 144.702 -0.000244141C166.726 -0.000244141 185.996 4.18467 202.513 12.5488ZM100.779 58.8191C89.763 69.561 84.2607 83.7977 84.2607 101.528C84.2607 119.258 89.763 133.937 100.779 144.8C111.789 155.665 126.431 161.098 144.703 161.098C162.975 161.098 177.299 155.607 188.437 144.612C199.572 133.627 205.144 119.265 205.144 101.528C205.144 83.7905 199.572 69.8698 188.437 59.0069C177.299 48.1412 162.723 42.7084 144.703 42.7084C126.683 42.7084 111.791 48.0815 100.779 58.8191V58.8191Z" fill="#FF46A0"/>
<path d="M311.918 161.931L211.599 205.24C209.594 206.115 207.997 207.334 206.808 208.895C205.706 210.341 205.117 212.027 205.034 213.951H271.352L301.827 201.821C309.403 198.804 314.963 192.136 316.398 184.122C317.816 176.209 316.116 168.912 312.008 162.083C311.983 162.03 311.954 161.979 311.918 161.931V161.931Z" fill="#FF46A0"/>
<path d="M311.918 265.974L211.599 222.665C209.594 221.789 207.997 220.57 206.808 219.009C205.706 217.563 205.117 215.877 205.034 213.953H271.352L301.827 226.084C309.403 229.101 314.963 235.769 316.398 243.783C317.816 251.696 316.116 258.993 312.008 265.821C311.983 265.874 311.954 265.925 311.918 265.974V265.974Z" fill="#FF46A0"/>
<path d="M4.97098 161.931L105.291 205.24C107.296 206.115 108.892 207.334 110.082 208.895C111.184 210.341 111.773 212.027 111.855 213.951H45.5372L15.063 201.821C7.48614 198.804 1.92684 192.136 0.49103 184.122C-0.926243 176.209 0.773344 168.912 4.88115 162.083C4.90682 162.03 4.93534 161.979 4.97098 161.931V161.931Z" fill="#FF46A0"/>
<path d="M4.97098 265.974L105.291 222.665C107.296 221.789 108.892 220.57 110.082 219.009C111.184 217.563 111.773 215.877 111.855 213.953H45.5372L15.063 226.084C7.48614 229.101 1.92684 235.769 0.49103 243.783C-0.926243 251.696 0.773344 258.993 4.88115 265.821C4.90682 265.874 4.93534 265.925 4.97098 265.974V265.974Z" fill="#FF46A0"/>
</g>
<defs>
<clipPath id="clip0_849_91251">
<rect width="317" height="269" fill="white"/>
</clipPath>
</defs>
</svg>
