<svg width="209" height="376" viewBox="0 0 209 376" fill="none" xmlns="http://www.w3.org/2000/svg">
<path fill-rule="evenodd" clip-rule="evenodd" d="M157.865 1.59277C159.532 1.60675 161.198 1.62073 162.864 1.63473C160.694 77.4016 160.416 153.216 162.05 228.999C162.12 232.22 157.12 232.21 157.05 228.999C155.416 153.202 155.684 77.3736 157.865 1.59277ZM140.53 1.44764C142.197 1.46157 143.864 1.47551 145.531 1.48945C146.369 14.8722 145.117 28.5292 143.9 41.7978L143.899 41.8075L143.898 41.8251L143.896 41.8432C143.442 46.7941 142.993 51.6903 142.66 56.4989C141.35 75.409 140.58 94.368 140.32 113.329C139.79 151.909 141.47 190.499 145.24 228.899C145.55 232.108 140.55 232.069 140.24 228.899C136.48 190.499 134.8 151.909 135.32 113.329C135.58 94.368 136.36 75.4188 137.66 56.4989C138.008 51.4403 138.471 46.37 138.936 41.2919L138.936 41.2896C140.15 28.0253 141.368 14.7088 140.53 1.44764ZM50.5209 0.710938C52.1875 0.724119 53.8541 0.737335 55.5206 0.750585C55.0337 71.7364 56.2583 142.728 57.4827 213.702L57.4829 213.72V213.737L57.7098 226.909C57.7698 230.13 52.7698 230.118 52.7098 226.909L52.4825 213.725C51.2578 142.726 50.0331 71.7239 50.5209 0.710938Z" fill="#20BEFF"/>
<path d="M5.40976 232.787C65.5798 226.437 125.92 235.057 186.2 233.157C189.41 233.057 189.42 228.057 186.2 228.157C125.92 230.057 65.5798 221.427 5.40976 227.787C2.23976 228.117 2.20976 233.127 5.40976 232.787Z" fill="#20BEFF"/>
<path d="M6.69991 248.127C67.0099 248.797 127.36 249.297 187.65 247.277C190.86 247.167 190.87 242.167 187.65 242.277C127.36 244.297 67.0099 243.797 6.69991 243.127C3.47991 243.087 3.47991 248.087 6.69991 248.127Z" fill="#20BEFF"/>
<path d="M4.22994 269.768C64.5399 270.438 124.89 270.938 185.18 268.918C188.39 268.808 188.4 263.808 185.18 263.918C124.89 265.938 64.5399 265.438 4.22994 264.768C1.00994 264.728 1.00994 269.728 4.22994 269.768Z" fill="#20BEFF"/>
<path d="M5.33004 286.047C65.64 286.717 125.99 287.217 186.28 285.197C189.49 285.087 189.5 280.087 186.28 280.197C125.99 282.217 65.64 281.717 5.33004 281.047C2.11004 281.007 2.11004 286.007 5.33004 286.047Z" fill="#20BEFF"/>
<path d="M2.72002 267.487L2.11992 282.027C1.98992 285.247 6.98992 285.237 7.11992 282.027L7.72002 267.487C7.85002 264.267 2.85002 264.277 2.72002 267.487Z" fill="#20BEFF"/>
<path d="M2.41985 230.827L1.81987 245.367C1.68987 248.587 6.68987 248.577 6.81987 245.367L7.41985 230.827C7.54985 227.607 2.54985 227.617 2.41985 230.827Z" fill="#20BEFF"/>
<path d="M183.61 267.458L183.85 282.058C183.9 285.268 188.9 285.278 188.85 282.058L188.61 267.458C188.56 264.248 183.56 264.238 183.61 267.458Z" fill="#20BEFF"/>
<path d="M184.32 231.417L185.15 244.777C185.35 247.977 190.35 247.997 190.15 244.777L189.32 231.417C189.12 228.217 184.12 228.197 184.32 231.417Z" fill="#20BEFF"/>
<path d="M187.14 233.079C192.97 235.369 198.91 237.229 204.99 238.689L203.24 235.609C202.7 239.589 202.15 243.579 201.61 247.559L204.69 245.809C198.99 244.979 193.48 243.569 188.08 241.569C185.06 240.449 183.75 245.279 186.75 246.389C192.15 248.389 197.67 249.799 203.36 250.629C204.55 250.799 206.24 250.349 206.44 248.879C206.98 244.899 207.53 240.909 208.07 236.929C208.25 235.629 207.78 234.199 206.32 233.849C200.23 232.399 194.29 230.529 188.47 228.239C185.47 227.059 184.17 231.899 187.14 233.059V233.079Z" fill="#20BEFF"/>
<path d="M187.04 233.718C186.27 236.648 184.54 243.698 189.76 243.518C194.06 243.368 195.93 237.858 196.21 234.368C196.39 232.198 193.36 231.088 191.94 232.598C189.17 235.548 187.61 241.088 191.12 244.158C195.36 247.858 198.59 241.918 199.58 238.438C199.97 237.078 199.1 235.798 197.83 235.358C192.8 233.638 190.29 240.498 191.97 244.308C192.87 246.348 195.18 247.298 197.29 246.658C199.93 245.858 200.96 243.298 201.41 240.818C201.67 239.368 200.75 237.498 199 237.658C195.06 238.018 193.17 243.218 196.98 245.368C200.79 247.518 204.68 243.558 204.23 239.638C204.04 237.978 202.17 236.228 200.47 237.478C198.01 239.288 196.97 242.538 198.93 245.178C199.65 246.158 201.19 246.968 202.35 246.078C203.57 245.138 204.31 244.308 204.68 242.768C205.43 239.638 200.61 238.308 199.86 241.438C199.62 242.458 199.37 243.478 199.13 244.508C198.38 247.638 203.2 248.968 203.95 245.838C204.19 244.818 204.44 243.798 204.68 242.768L199.86 241.438L199.83 241.758L203.25 242.658C202.9 242.428 202.81 242.148 203 241.798L199.24 239.638C199.42 240.648 199.34 241.648 199.01 242.648L196.6 239.488C196.54 239.798 195.89 241.668 196.52 241.868C196.24 241.778 197.02 240.348 196.51 240.178L194.76 237.098C194.59 237.688 194.43 238.278 194.18 238.838C194.04 239.148 193.28 241.208 193.75 239.898C194.22 238.588 194.41 237.248 195.47 236.118L191.2 234.348C191.13 235.238 190.94 236.068 190.54 236.868C190.4 237.238 190.2 237.568 189.94 237.858C189.43 238.248 189.47 238.448 190.05 238.448L191.2 239.938C190.7 238.558 191.49 236.398 191.85 235.018C192.67 231.908 187.85 230.578 187.03 233.688L187.04 233.718Z" fill="#20BEFF"/>
<path d="M187.01 270.489C191.84 272.509 196.67 274.529 201.5 276.549L202.83 271.729C199.61 270.589 197.34 268.789 194.46 267.189C192.46 266.079 189.48 266.509 187.8 264.999L185.37 269.179C187.52 269.959 189.67 270.749 191.81 271.529C193.79 272.249 196.49 272.759 198.25 273.879C199.58 274.719 199.17 274.139 199.43 275.839C199.58 276.849 199.42 278.019 199.4 279.039C199.36 281.709 199.27 284.379 199.16 287.039C199.02 290.289 203.88 290.199 204.16 287.039C204.52 282.969 204.32 278.999 203.7 274.979C203.25 272.119 198.85 272.919 198.79 275.639C198.71 279.369 198.63 283.089 198.56 286.819L202.32 284.659C198.02 282.099 193.43 280.789 188.43 280.619C185.68 280.529 184.94 285.089 187.77 285.529C192.19 286.219 196.52 286.989 200.69 288.679L202.02 283.859C198.1 282.699 192.92 282.059 189.39 279.979L190.63 282.139C190.37 279.739 191.04 277.029 191.31 274.629H186.31C186.26 276.679 186.45 278.629 186.83 280.639C187.25 282.869 190.33 282.929 191.4 281.239C193.31 278.209 193.75 274.989 192.82 271.539C192.19 269.219 188.56 269.099 188 271.539C187.3 274.589 185.89 283.109 190.63 284.039C195.63 285.029 195.93 276.829 195.58 273.879C195.29 271.369 191.12 270.159 190.67 273.219C190.22 276.279 189.75 283.899 194.68 283.959C199.61 284.019 199.62 276.859 199.04 273.519C198.78 272.039 196.59 271.099 195.37 272.029C191.74 274.779 192.66 279.669 194.98 283.079C195.98 284.549 198.37 284.849 199.3 283.079C200.09 281.579 200.6 280.239 200.9 278.559L195.99 277.899C195.94 279.759 195.89 281.619 195.84 283.469C195.75 286.689 200.75 286.689 200.84 283.469C200.89 281.609 200.94 279.749 200.99 277.899C201.07 275.139 196.59 274.419 196.08 277.239C195.98 278.429 195.61 279.539 194.98 280.569H199.3C198.95 280.049 197.07 276.979 197.89 276.359L194.22 274.869C194.33 275.529 193.54 280.499 195.75 279.369C195.61 279.439 195.46 274.819 195.5 274.569L190.59 273.909C190.72 275.059 191.3 278.849 190.04 279.499H192.56C191.69 278.969 192.57 273.989 192.83 272.899H188.01C188.61 275.119 188.31 276.819 187.09 278.749L191.66 279.349C191.35 277.709 191.27 276.309 191.31 274.669C191.39 271.379 186.66 271.549 186.31 274.669C185.96 277.789 184.22 282.599 187.24 284.549C188.87 285.599 191.23 285.909 193.06 286.459L200.69 288.719C203.85 289.659 204.92 285.069 202.02 283.899C197.85 282.219 193.52 281.439 189.1 280.749L188.44 285.659C192.59 285.799 196.25 286.899 199.81 289.019C201.47 290.009 203.53 288.729 203.57 286.859C203.65 283.129 203.73 279.409 203.8 275.679L198.89 276.339C199.45 279.929 199.5 283.459 199.17 287.069H204.17C204.33 283.339 204.45 279.599 204.44 275.869C204.44 273.999 204.55 272.189 203.12 270.789C201.57 269.289 198.67 268.749 196.73 268.039C193.39 266.819 190.05 265.599 186.71 264.389C184.36 263.529 182.48 266.939 184.28 268.569C186.66 270.719 189.31 270.149 191.95 271.539C193.31 272.259 194.42 273.489 195.79 274.239C197.59 275.219 199.58 275.899 201.51 276.589C204.6 277.689 205.72 272.969 202.84 271.769C198.01 269.749 193.18 267.729 188.35 265.709C185.38 264.469 184.09 269.309 187.02 270.529L187.01 270.489Z" fill="#20BEFF"/>
<path d="M182.24 249.748L182.44 249.718L179.62 248.568C179.84 248.968 179.54 250.928 179.55 251.618C179.58 253.178 179.59 254.728 179.59 256.288C179.59 259.178 179.52 262.068 179.41 264.958C179.29 268.178 184.29 268.168 184.41 264.958C184.54 261.398 184.61 257.848 184.59 254.288C184.57 251.808 185.16 248.288 183.94 246.048C183.36 244.988 182.21 244.738 181.12 244.898L180.92 244.928C177.75 245.398 179.1 250.218 182.25 249.748H182.24Z" fill="#20BEFF"/>
<path d="M11.8699 249.959L12.07 249.929L9.24993 248.779C9.46993 249.179 9.16998 251.139 9.17998 251.829C9.20998 253.389 9.22002 254.939 9.22002 256.499C9.22002 259.389 9.14997 262.279 9.03997 265.169C8.91997 268.389 13.92 268.379 14.04 265.169C14.17 261.609 14.24 258.059 14.22 254.499C14.2 252.019 14.79 248.499 13.57 246.259C12.99 245.199 11.8399 244.949 10.7499 245.109L10.55 245.139C7.37998 245.609 8.72993 250.429 11.8799 249.959H11.8699Z" fill="#20BEFF"/>
<path d="M193.16 247.179C193.37 254.819 193.13 262.429 192.44 270.029C192.15 273.229 197.15 273.209 197.44 270.029C198.13 262.419 198.38 254.809 198.16 247.179C198.07 243.969 193.07 243.959 193.16 247.179Z" fill="#20BEFF"/>
<path d="M176.11 284.879C179.42 309.479 175.46 334.309 177.41 358.989C177.66 362.179 182.66 362.199 182.41 358.989C180.42 333.849 184.3 308.629 180.93 283.549C180.5 280.379 175.68 281.729 176.11 284.879Z" fill="#20BEFF"/>
<path d="M8.96003 285.139C11.43 309.859 12.2 334.679 11.26 359.509C11.14 362.729 16.14 362.719 16.26 359.509C17.2 334.689 16.44 309.859 13.96 285.139C13.64 281.969 8.64003 281.939 8.96003 285.139Z" fill="#20BEFF"/>
<path d="M0.859878 362.848C0.859878 366.558 1.25987 370.228 1.97987 373.868C2.60987 377.018 7.42994 375.688 6.79994 372.538C6.16994 369.388 5.85988 366.118 5.85988 362.848C5.85988 359.578 0.849878 359.628 0.859878 362.848Z" fill="#20BEFF"/>
<path d="M185.42 362.568C188.18 363.638 190.99 364.548 193.9 365.128C196.62 365.678 199.57 365.648 202.06 366.968C204.9 368.478 207.43 364.157 204.58 362.647C201.98 361.267 199.32 361.037 196.47 360.537C193.13 359.947 189.91 358.968 186.75 357.738C183.59 356.508 182.45 361.407 185.42 362.557V362.568Z" fill="#20BEFF"/>
<path d="M185.2 366.969C189.34 367.009 193.46 367.299 197.55 367.929C200.7 368.409 202.05 363.589 198.88 363.109C194.34 362.419 189.79 362.009 185.2 361.969C181.98 361.939 181.98 366.939 185.2 366.969Z" fill="#20BEFF"/>
<path d="M188.07 284.188C187.8 313.698 187.61 343.259 190.91 372.629C191.27 375.789 196.27 375.829 195.91 372.629C192.61 343.259 192.8 313.698 193.07 284.188C193.1 280.968 188.1 280.968 188.07 284.188Z" fill="#20BEFF"/>
<path d="M24.4298 293.377C27.1398 316.137 28.3198 339.027 27.9698 361.947C27.9198 365.167 32.9198 365.167 32.9698 361.947C33.3198 339.027 32.1398 316.137 29.4298 293.377C29.0498 290.217 24.0498 290.187 24.4298 293.377Z" fill="#20BEFF"/>
<path d="M27.5299 296.468C72.1699 298.538 116.88 297.738 161.42 294.098C164.6 293.838 164.63 288.838 161.42 289.098C116.89 292.748 72.1699 293.538 27.5299 291.468C24.3099 291.318 24.3199 296.318 27.5299 296.468Z" fill="#20BEFF"/>
<path d="M159.25 291.808C159.23 313.978 159.57 336.138 160.28 358.298C160.38 361.508 165.38 361.518 165.28 358.298C164.57 336.138 164.23 313.978 164.25 291.808C164.25 288.588 159.25 288.588 159.25 291.808Z" fill="#20BEFF"/>
<path d="M144.49 6.20751C149.67 6.34751 154.76 6.9675 159.82 8.0775C161.39 8.4275 162.06 6.01747 160.48 5.66747C155.2 4.50747 149.89 3.84751 144.48 3.70751C142.87 3.66751 142.87 6.16751 144.48 6.20751H144.49Z" fill="#20BEFF"/>
<path d="M4.58996 363.458C34.62 364.488 64.6299 364.228 94.6499 363.048C124.73 361.858 154.86 360.408 184.92 362.878L182.51 361.038C183.19 363.068 183.54 364.958 183.58 367.098C183.65 370.308 188.65 370.318 188.58 367.098C188.53 364.488 188.15 362.188 187.33 359.708C186.95 358.578 186.08 357.968 184.92 357.868C154.86 355.388 124.73 356.848 94.6499 358.038C64.5699 359.228 34.62 359.488 4.58996 358.448C1.36996 358.338 1.37996 363.338 4.58996 363.448V363.458Z" fill="#20BEFF"/>
<path d="M143.11 12.5682C148.05 12.4382 152.99 12.3082 157.92 12.1782C159.53 12.1382 159.53 9.63821 157.92 9.67821C152.98 9.80821 148.04 9.93822 143.11 10.0682C141.5 10.1082 141.5 12.6082 143.11 12.5682Z" fill="#20BEFF"/>
<path d="M143.66 17.398C149.16 17.148 154.64 17.238 160.13 17.678C161.73 17.808 161.73 15.308 160.13 15.178C154.64 14.748 149.16 14.658 143.66 14.898C142.06 14.968 142.05 17.468 143.66 17.398Z" fill="#20BEFF"/>
<path d="M142.28 24.6475C147.14 24.4275 151.98 24.5175 156.83 24.9375C158.43 25.0775 158.42 22.5775 156.83 22.4375C151.98 22.0175 147.14 21.9275 142.28 22.1475C140.68 22.2175 140.67 24.7175 142.28 24.6475Z" fill="#20BEFF"/>
<path d="M142.92 31.1078C147.34 30.2578 151.78 29.8777 156.28 29.9277C157.89 29.9477 157.89 27.4477 156.28 27.4277C151.56 27.3777 146.9 27.8078 142.26 28.6978C140.68 28.9978 141.35 31.4078 142.92 31.1078Z" fill="#20BEFF"/>
<path d="M141.82 36.3175C147.27 35.3975 152.71 35.4375 158.15 36.4275C159.72 36.7175 160.4 34.3076 158.81 34.0176C152.91 32.9376 147.06 32.9075 141.15 33.9075C139.57 34.1775 140.24 36.5875 141.81 36.3175H141.82Z" fill="#20BEFF"/>
<path d="M140.71 42.8278C146.42 41.9678 152.15 41.5878 157.93 41.6578C159.54 41.6778 159.54 39.1778 157.93 39.1578C151.93 39.0878 145.98 39.5178 140.05 40.4178C138.46 40.6578 139.14 43.0678 140.71 42.8278Z" fill="#20BEFF"/>
<path d="M140.64 49.1284C146.03 48.6884 151.42 48.4184 156.82 48.3284C158.43 48.2984 158.43 45.7984 156.82 45.8284C151.42 45.9284 146.02 46.1884 140.64 46.6284C139.05 46.7584 139.03 49.2584 140.64 49.1284Z" fill="#20BEFF"/>
<path d="M140.37 56.3191C146.51 56.0691 152.63 56.2091 158.75 56.7491C160.35 56.8891 160.34 54.3891 158.75 54.2491C152.63 53.7091 146.51 53.5691 140.37 53.8191C138.77 53.8891 138.76 56.3891 140.37 56.3191Z" fill="#20BEFF"/>
<path d="M140.91 62.5185C147.13 62.3085 153.34 62.3484 159.56 62.6584C161.17 62.7384 161.16 60.2384 159.56 60.1584C153.34 59.8584 147.13 59.8085 140.91 60.0185C139.31 60.0685 139.3 62.5785 140.91 62.5185Z" fill="#20BEFF"/>
<path d="M139.82 66.9785H157.65C159.26 66.9785 159.26 64.4785 157.65 64.4785H139.82C138.21 64.4785 138.21 66.9785 139.82 66.9785Z" fill="#20BEFF"/>
<path d="M140.37 72.7673C145.66 72.3373 150.96 72.0472 156.27 71.8972C157.88 71.8472 157.88 69.3472 156.27 69.3972C150.96 69.5472 145.66 69.8373 140.37 70.2673C138.78 70.3973 138.76 72.8973 140.37 72.7673Z" fill="#20BEFF"/>
<path d="M137.9 78.5391L146.24 78.0192C149.15 77.8392 152.31 77.2891 155.16 78.0791C156.71 78.5091 157.38 76.0991 155.82 75.6691C150.4 74.1691 143.45 75.6891 137.9 76.0391C136.3 76.1391 136.29 78.6391 137.9 78.5391Z" fill="#20BEFF"/>
<path d="M140.36 84.3179C146.03 84.1679 151.7 84.0079 157.37 83.8579C158.98 83.8179 158.98 81.3179 157.37 81.3579C151.7 81.5079 146.03 81.6679 140.36 81.8179C138.75 81.8579 138.75 84.3579 140.36 84.3179Z" fill="#20BEFF"/>
<path d="M139 91.4876C145.77 91.0776 152.53 91.0477 159.3 91.3877C160.91 91.4677 160.9 88.9677 159.3 88.8877C152.53 88.5477 145.77 88.5776 139 88.9876C137.4 89.0876 137.39 91.5876 139 91.4876Z" fill="#20BEFF"/>
<path d="M138.17 99.018C144.1 98.408 150.04 97.978 156 97.728C157.6 97.658 157.61 95.158 156 95.228C150.04 95.478 144.1 95.908 138.17 96.518C136.59 96.678 136.57 99.178 138.17 99.018Z" fill="#20BEFF"/>
<path d="M138.73 105.428C145.51 105.178 152.27 105.268 159.04 105.708C160.65 105.808 160.64 103.308 159.04 103.208C152.27 102.768 145.51 102.678 138.73 102.928C137.13 102.988 137.12 105.488 138.73 105.428Z" fill="#20BEFF"/>
<path d="M138.25 114.988C143.82 113.578 149.44 112.918 155.18 112.998C156.79 113.018 156.79 110.518 155.18 110.498C149.21 110.418 143.37 111.118 137.59 112.578C136.03 112.968 136.69 115.388 138.25 114.988Z" fill="#20BEFF"/>
<path d="M139.36 121.088C145.69 119.908 152.04 119.228 158.47 119.048C160.08 118.998 160.08 116.498 158.47 116.548C151.82 116.738 145.24 117.458 138.69 118.678C137.11 118.978 137.78 121.388 139.35 121.088H139.36Z" fill="#20BEFF"/>
<path d="M138.99 126.477C144.48 127.127 149.97 125.157 155.39 126.477C156.95 126.857 157.62 124.447 156.05 124.067C150.37 122.687 144.71 124.647 138.98 123.977C137.39 123.787 137.4 126.287 138.98 126.477H138.99Z" fill="#20BEFF"/>
<path d="M137.9 135.809L156.28 135.089C157.88 135.029 157.89 132.529 156.28 132.589L137.9 133.309C136.3 133.369 136.29 135.869 137.9 135.809Z" fill="#20BEFF"/>
<path d="M138.74 142.237C144.47 141.557 150.22 141.067 155.99 140.777C157.59 140.697 157.6 138.197 155.99 138.277C150.22 138.567 144.47 139.057 138.74 139.737C137.16 139.927 137.14 142.427 138.74 142.237Z" fill="#20BEFF"/>
<path d="M139.6 148.928C145.43 147.208 151.32 146.568 157.37 146.978C158.98 147.088 158.97 144.588 157.37 144.478C151.09 144.058 144.97 144.738 138.93 146.518C137.39 146.968 138.05 149.388 139.59 148.928H139.6Z" fill="#20BEFF"/>
<path d="M139.2 154.458C141.95 155.448 144.85 155.048 147.73 154.938C151.4 154.798 155.07 154.658 158.74 154.518C160.34 154.458 160.35 151.958 158.74 152.018C155.56 152.138 152.38 152.258 149.2 152.388C146.21 152.508 142.73 153.078 139.87 152.048C138.35 151.498 137.7 153.918 139.21 154.458H139.2Z" fill="#20BEFF"/>
<path d="M139.79 160.858C142.52 160.728 145.31 161.188 148.03 161.438C151.27 161.728 155.22 161.568 158.17 162.998C159.61 163.698 160.88 161.548 159.43 160.838C156.68 159.498 153.74 159.448 150.73 159.178C147.14 158.848 143.4 158.188 139.79 158.358C138.19 158.428 138.18 160.938 139.79 160.858Z" fill="#20BEFF"/>
<path d="M141.78 167.819C147.01 165.979 153.79 167.079 159.29 167.129C160.9 167.139 160.9 164.639 159.29 164.629C153.56 164.579 146.6 163.479 141.12 165.409C139.61 165.939 140.26 168.359 141.78 167.819Z" fill="#20BEFF"/>
<path d="M141.21 175.709C147.03 174.979 152.87 174.499 158.74 174.259C160.34 174.199 160.35 171.699 158.74 171.759C152.88 171.999 147.04 172.479 141.21 173.209C139.63 173.409 139.62 175.909 141.21 175.709Z" fill="#20BEFF"/>
<path d="M140.65 181.939C146.33 181.689 152 181.779 157.67 182.199C159.27 182.319 159.27 179.819 157.67 179.699C152 179.279 146.33 179.189 140.65 179.439C139.05 179.509 139.04 182.009 140.65 181.939Z" fill="#20BEFF"/>
<path d="M142.36 189.007L142.18 188.817L142.38 190.327C142.1 190.767 144.92 190.577 145.31 190.547C146.81 190.457 148.32 190.357 149.82 190.227C152.61 189.997 155.39 189.697 158.17 189.347C159.74 189.147 159.76 186.647 158.17 186.847C154.32 187.327 150.47 187.717 146.6 187.967C144.87 188.077 141.3 187.387 140.22 189.057C139.91 189.527 140.05 190.177 140.42 190.567L140.6 190.757C141.71 191.927 143.47 190.157 142.37 188.987L142.36 189.007Z" fill="#20BEFF"/>
<path d="M142.39 196.867C147.8 195.867 153.24 195.277 158.74 195.077C160.34 195.017 160.35 192.517 158.74 192.577C153.02 192.777 147.36 193.407 141.73 194.457C140.15 194.747 140.82 197.157 142.39 196.867Z" fill="#20BEFF"/>
<path d="M142.13 202.338C146.8 201.098 151.49 200.838 156.26 201.628C157.83 201.888 158.51 199.478 156.92 199.218C151.7 198.358 146.57 198.568 141.46 199.928C139.91 200.338 140.57 202.758 142.12 202.338H142.13Z" fill="#20BEFF"/>
<path d="M142.24 207.217C147.88 208.477 153.4 205.877 159.01 207.037C160.58 207.367 161.25 204.957 159.67 204.627C154.03 203.457 148.49 206.057 142.9 204.807C141.33 204.457 140.66 206.867 142.24 207.217Z" fill="#20BEFF"/>
<path d="M141.78 210.638C143.1 212.588 145.37 212.168 147.52 212.178C151.09 212.198 154.67 212.228 158.24 212.248C159.85 212.258 159.85 209.758 158.24 209.748C155.79 209.728 153.35 209.718 150.9 209.698C149.88 209.698 144.53 210.258 143.93 209.378C143.04 208.048 140.87 209.298 141.77 210.638H141.78Z" fill="#20BEFF"/>
<path d="M143.41 217.897C148.3 216.807 153.2 216.448 158.19 216.768C159.8 216.868 159.79 214.368 158.19 214.268C152.97 213.938 147.84 214.358 142.75 215.488C141.18 215.838 141.84 218.247 143.41 217.897Z" fill="#20BEFF"/>
<path d="M144.76 222.468L157.92 221.558C159.52 221.448 159.53 218.948 157.92 219.058L144.76 219.968C143.16 220.078 143.15 222.578 144.76 222.468Z" fill="#20BEFF"/>
<path d="M144.6 227.018C149.26 225.658 153.89 225.868 158.43 227.598C159.94 228.168 160.59 225.758 159.09 225.188C154.17 223.318 148.98 223.138 143.93 224.608C142.39 225.058 143.04 227.468 144.59 227.018H144.6Z" fill="#20BEFF"/>
<path d="M182.6 252.387C187.27 252.287 191.93 252.317 196.59 252.467C198.2 252.517 198.2 250.017 196.59 249.967C191.93 249.807 187.26 249.787 182.6 249.887C180.99 249.917 180.99 252.417 182.6 252.387Z" fill="#20BEFF"/>
<path d="M183.97 257.239C187.99 257.069 191.99 257.239 195.98 257.839C197.55 258.069 198.23 255.659 196.64 255.429C192.43 254.809 188.23 254.559 183.97 254.739C182.37 254.809 182.36 257.309 183.97 257.239Z" fill="#20BEFF"/>
<path d="M185.14 263.378C188.03 262.928 190.92 262.968 193.8 263.488C195.37 263.768 196.05 261.358 194.46 261.078C191.11 260.478 187.84 260.448 184.47 260.968C182.89 261.218 183.56 263.628 185.13 263.378H185.14Z" fill="#20BEFF"/>
<path d="M190.01 268.268H190.56C190.88 268.268 191.22 268.127 191.44 267.897C191.66 267.667 191.82 267.328 191.81 267.018C191.8 266.708 191.69 266.358 191.44 266.138C191.19 265.918 190.89 265.768 190.56 265.768H190.01C189.69 265.768 189.35 265.908 189.13 266.138C188.91 266.368 188.75 266.708 188.76 267.018C188.77 267.328 188.88 267.677 189.13 267.897C189.38 268.117 189.68 268.268 190.01 268.268Z" fill="#20BEFF"/>
<path d="M199.69 240.677C200.91 240.097 201.79 239.277 202.55 238.177L200.22 237.547C200.34 238.967 201.23 240.568 202.93 240.108C204.63 239.648 204.59 237.788 203.53 236.758C201.54 234.828 196.48 235.288 195.94 238.498C195.4 241.708 202.05 241.328 202.48 238.498C202.76 236.688 200.7 236.027 199.29 235.807C197.35 235.507 195.46 235.938 193.77 236.888C192.37 237.678 193.63 239.837 195.03 239.047C196.08 238.457 197.22 238.138 198.43 238.208L199.14 238.297C199.59 238.577 199.9 238.448 200.06 237.888C199.51 237.918 198.6 238.718 198.05 238.108L198.42 238.988C198.4 237.948 201.61 237.597 201.84 238.797L201.97 237.838L202.72 237.537C202.62 236.287 201.11 235.857 200.39 236.907C199.86 237.667 199.24 238.118 198.42 238.508C196.97 239.198 198.23 241.347 199.68 240.667L199.69 240.677Z" fill="#20BEFF"/>
<path d="M181.32 291.099C183.28 290.509 185.24 290.399 187.24 290.829C188.81 291.159 189.48 288.749 187.9 288.419C185.47 287.899 183.04 287.969 180.65 288.689C179.11 289.149 179.77 291.569 181.31 291.099H181.32Z" fill="#20BEFF"/>
<path d="M179.31 295.168C182.24 295.058 185.17 295.088 188.09 295.268C189.7 295.368 189.69 292.868 188.09 292.768C185.16 292.588 182.24 292.558 179.31 292.668C177.71 292.728 177.7 295.228 179.31 295.168Z" fill="#20BEFF"/>
<path d="M182.05 301.729H187.81C189.42 301.729 189.42 299.229 187.81 299.229H182.05C180.44 299.229 180.44 301.729 182.05 301.729Z" fill="#20BEFF"/>
<path d="M182.68 308.099C184.38 307.719 186.07 307.579 187.81 307.639C189.42 307.699 189.42 305.199 187.81 305.139C185.85 305.069 183.92 305.259 182.01 305.689C180.44 306.039 181.1 308.449 182.67 308.099H182.68Z" fill="#20BEFF"/>
<path d="M183.3 313.189C185.35 312.059 187.57 311.949 189.75 312.749C191.26 313.309 191.91 310.889 190.41 310.339C187.62 309.309 184.63 309.598 182.03 311.028C180.62 311.808 181.88 313.969 183.29 313.189H183.3Z" fill="#20BEFF"/>
<path d="M182.96 318.747C184.83 318.117 186.69 317.897 188.65 318.077C190.25 318.227 190.24 315.727 188.65 315.577C186.49 315.377 184.35 315.637 182.3 316.337C180.78 316.847 181.43 319.267 182.96 318.747Z" fill="#20BEFF"/>
<path d="M181.23 324.498C183.26 324.368 185.23 324.518 187.2 324.988C188.76 325.368 189.43 322.958 187.86 322.578C185.68 322.048 183.46 321.848 181.22 321.998C179.62 322.108 179.61 324.608 181.22 324.498H181.23Z" fill="#20BEFF"/>
<path d="M180.41 329.478L187.54 329.208C189.14 329.148 189.15 326.648 187.54 326.708L180.41 326.978C178.81 327.038 178.8 329.538 180.41 329.478Z" fill="#20BEFF"/>
<path d="M181.57 334.339C183.48 333.879 185.35 333.959 187.23 334.529C188.77 334.999 189.43 332.589 187.89 332.119C185.59 331.419 183.24 331.369 180.9 331.929C179.34 332.299 180 334.709 181.56 334.339H181.57Z" fill="#20BEFF"/>
<path d="M182.97 338.277C185.13 337.767 187.28 337.748 189.45 338.218C191.02 338.558 191.69 336.148 190.11 335.808C187.5 335.238 184.9 335.258 182.3 335.868C180.73 336.238 181.4 338.647 182.96 338.277H182.97Z" fill="#20BEFF"/>
<path d="M183.43 343.989L189.18 343.319C190.76 343.139 190.78 340.629 189.18 340.819L183.43 341.489C181.85 341.669 181.83 344.179 183.43 343.989Z" fill="#20BEFF"/>
<path d="M182.06 348.097C184.45 347.967 186.82 348.017 189.2 348.257C190.8 348.417 190.79 345.917 189.2 345.757C186.82 345.517 184.45 345.467 182.06 345.597C180.46 345.687 180.45 348.187 182.06 348.097Z" fill="#20BEFF"/>
<path d="M180.76 355.248C183.47 354.738 186.18 354.618 188.92 354.808C190.53 354.928 190.52 352.418 188.92 352.308C185.95 352.098 183.02 352.288 180.09 352.828C178.51 353.118 179.18 355.528 180.75 355.238L180.76 355.248Z" fill="#20BEFF"/>
<path d="M182.05 358.748L189.18 359.088C190.79 359.168 190.78 356.668 189.18 356.588L182.05 356.248C180.44 356.168 180.45 358.668 182.05 358.748Z" fill="#20BEFF"/>
<path d="M181.24 344.729C182.08 344.359 183.01 344.308 183.9 344.528C185.46 344.908 186.13 342.499 184.56 342.119C182.99 341.739 181.45 341.918 179.97 342.578C179.35 342.848 179.21 343.748 179.52 344.288C179.89 344.928 180.61 345.009 181.23 344.739L181.24 344.729Z" fill="#20BEFF"/>
</svg>
