<svg width="132" height="66" viewBox="0 0 132 66" fill="none" xmlns="http://www.w3.org/2000/svg">
<mask id="mask0_832_20442" style="mask-type:alpha" maskUnits="userSpaceOnUse" x="30" y="4" width="62" height="61">
<rect x="30" y="4" width="62" height="61" fill="#D9D9D9"/>
</mask>
<g mask="url(#mask0_832_20442)">
<mask id="mask1_832_20442" style="mask-type:alpha" maskUnits="userSpaceOnUse" x="0" y="0" width="132" height="66">
<path fill-rule="evenodd" clip-rule="evenodd" d="M130.07 0.185547C87.0037 3.61523 43.7816 4.39062 0.621216 2.48242C2.96021 23.2324 4.02893 44.0879 3.82727 64.9688C24.3593 65.1445 44.8848 64.7637 65.4712 63.9492L71.2166 63.7207C91.1536 62.9199 111.109 62.1191 131.048 62.543C130.4 41.7598 130.077 20.9805 130.07 0.185547Z" fill="#D9D9D9"/>
</mask>
<g mask="url(#mask1_832_20442)">
<path d="M6.08904 64.3533C0.0190396 63.5133 -0.330965 56.7132 -1.04097 51.8632C-1.75097 47.0132 -2.4109 42.4632 -3.1009 37.7732L-7.67097 39.7033C-4.02097 46.0633 0.869084 51.1632 7.00908 55.1432C8.84908 56.3332 11.2791 54.3633 10.6791 52.3233C7.90913 42.7733 -0.880887 31.0632 6.28911 21.5132L1.62908 20.2532C2.91908 30.1832 6.44905 39.2832 12.4791 47.3032C14.0091 49.3332 16.8591 48.5932 17.1391 46.0432C18.3991 34.6032 19.3891 23.2433 17.1391 11.8533L12.569 13.7832C17.309 22.4932 19.2191 31.9533 18.3891 41.8233C18.1391 44.7833 22.4091 44.9933 23.2991 42.4833C26.5291 33.3633 27.869 23.8733 27.309 14.2133L22.6491 15.4733C28.9191 25.9833 31.0791 38.1132 28.6591 50.1332C28.0991 52.9332 31.6091 54.4332 33.2291 52.0632C38.4991 44.3432 41.0191 35.4133 40.6191 26.0733L35.959 27.3333C40.369 37.4833 43.509 48.0633 45.469 58.9433C45.949 61.6033 49.5191 61.0133 50.2891 58.9433C54.7991 46.8533 58.6291 34.5933 56.4091 21.5933L51.589 22.9232C53.319 27.7632 55.0491 32.5932 56.7791 37.4332C57.5991 39.7232 60.839 39.8832 61.599 37.4332L63.2791 32.0232L58.709 32.6232C60.669 36.5532 61.8991 40.5833 62.3991 44.9633C62.6891 47.5333 66.649 48.6232 67.309 45.6232C69.179 37.1132 70.6591 28.5532 71.7991 19.9232C72.1191 17.5132 68.0891 16.4332 67.1391 18.6632C64.4491 24.9932 66.9391 32.2932 68.0491 38.7632C68.6891 42.4532 69.309 46.1232 70.839 49.5632C72.489 53.2632 77.979 59.0433 73.699 62.7233C71.259 64.8233 74.8091 68.3532 77.2391 66.2632C82.5891 61.6532 79.6291 55.1732 76.7491 50.1132C74.3191 45.8432 73.539 41.3332 72.719 36.5632C71.939 32.0532 69.579 25.5832 71.449 21.1832L66.7891 19.9232C65.7091 28.1132 64.249 36.2332 62.479 44.2932L67.3891 44.9533C66.7891 39.6733 65.3891 34.8433 63.0091 30.0933C61.9991 28.0733 59.039 28.7533 58.439 30.6933L56.7591 36.1033H61.579C59.849 31.2633 58.1191 26.4333 56.3891 21.5933C55.2991 18.5333 51.029 19.7632 51.569 22.9232C53.619 34.9032 49.589 46.5332 45.449 57.6232H50.2691C48.2291 46.2832 44.8491 35.3832 40.2591 24.8132C39.2591 22.5032 35.499 23.7133 35.599 26.0733C35.969 34.6233 33.7191 42.4632 28.8891 49.5332L33.459 51.4633C36.139 38.1333 33.919 24.6433 26.949 12.9533C25.729 10.9133 22.1391 11.6633 22.2891 14.2133C22.8291 23.4833 21.559 32.4032 18.459 41.1532L23.3691 41.8132C24.2591 31.0932 21.9991 20.6932 16.8591 11.2532C15.4391 8.6432 11.7691 10.5132 12.2891 13.1832C14.4291 24.0832 13.309 35.1032 12.099 46.0432L16.7591 44.7832C11.2991 37.5132 7.76904 29.2932 6.58904 20.2532C6.25904 17.7432 3.48913 16.9232 1.92913 18.9932C-6.35087 30.0232 2.60902 42.6232 5.81902 53.6632L9.48906 50.8433C4.04906 47.3233 -0.18095 42.8133 -3.40095 37.1933C-4.91095 34.5533 -8.3509 36.4832 -7.9709 39.1232C-6.9809 45.9232 -6.63091 53.2632 -4.73091 59.8732C-3.39091 64.5332 -0.300965 68.5033 4.70903 69.1933C7.85903 69.6233 9.21911 64.8132 6.03911 64.3732L6.08904 64.3533Z" fill="#FF46A0"/>
<path d="M-1.14099 46.7922C-3.08099 49.6222 -3.48104 52.3122 -2.94104 55.6522C-2.55104 58.0322 0.499025 57.7521 1.62903 56.2521C2.40903 55.2121 3.18898 54.1722 3.95898 53.1322L-0.610965 51.2022C-0.840965 52.7222 -1.07102 54.2422 -1.29102 55.7722C-1.54102 57.4622 -0.210941 59.5622 1.78906 58.8522C4.21906 57.9722 5.71903 56.8322 7.00903 54.5822L2.43896 52.6522C1.80896 54.6122 1.17896 56.5622 0.558957 58.5222C-0.121043 60.6422 2.399 62.3922 4.229 61.3422C6.549 60.0122 8.15908 58.3822 9.42908 56.0322C10.9691 53.1822 6.89901 50.8522 5.10901 53.5122C3.31901 56.1722 2.55901 58.7021 2.35901 61.8721C2.20901 64.2421 5.09903 64.8922 6.62903 63.6422C9.11903 61.5922 10.579 59.3521 11.729 56.3621C12.599 54.1021 9.06907 51.9722 7.54907 53.9322C5.32907 56.8022 3.94898 59.6422 3.45898 63.2822C3.16898 65.4322 5.03903 67.1522 7.12903 66.1022C10.519 64.4022 12.5991 61.7021 13.4291 58.0021C13.9591 55.6121 11.089 53.7522 9.24902 55.5722C6.99902 57.8022 5.25902 60.2022 3.86902 63.0522C2.47902 65.9022 6.75896 68.4722 8.18896 65.5722C9.91896 62.0522 11.029 53.8522 5.08899 53.5122C-1.46101 53.1322 -0.581023 60.9122 1.32898 64.6822C2.11898 66.2322 4.90905 66.4022 5.64905 64.6822C6.84905 61.8922 6.87902 59.2622 4.99902 56.7622C3.80902 55.1722 0.969074 55.0721 0.429074 57.3621C-0.240926 60.1821 -0.630936 63.3522 1.66907 65.5422C3.46907 67.2522 5.97903 67.5322 8.00903 66.0622C13.659 61.9522 14.989 52.1122 14.189 45.7922C13.939 43.8322 11.5391 42.2522 9.91907 44.0222C6.85907 47.3622 5.84902 51.5622 7.49902 55.8522C8.30902 57.9522 11.739 58.4822 12.319 55.8522C14.339 46.6622 6.81901 39.9922 6.60901 31.1622L1.94897 32.4222C5.38897 40.1822 8.13906 48.1722 10.2891 56.3822C10.8691 58.6122 14.739 58.9122 15.109 56.3822C15.539 53.4722 15.459 51.1722 14.439 48.3522C13.739 46.4222 10.989 45.7621 9.86902 47.7521C7.61902 51.7621 2.55904 63.6222 8.01904 67.1522C14.729 71.4822 16.509 59.5122 15.269 55.5922C14.709 53.8022 12.469 53.1321 11.089 54.4921C7.97899 57.5621 5.28906 65.7722 12.2891 66.2722C18.4091 66.7122 20.699 58.7022 19.759 54.0422C19.289 51.7122 16.349 51.8822 15.189 53.4422C12.859 56.5722 9.74902 65.9522 15.619 67.3822C21.429 68.8022 23.2291 59.4322 23.0291 55.5222C22.9091 53.2122 20.439 52.4121 18.759 53.7521C15.669 56.2221 12.439 62.4322 16.209 65.8322C19.979 69.2322 24.059 65.2322 24.949 61.5722C25.729 58.3922 25.089 53.3022 20.719 53.8322C16.049 54.4022 13.319 61.8122 12.369 65.6022C11.849 67.6922 14.1291 69.5522 16.0391 68.4222C18.6791 66.8822 19.759 62.7522 16.629 60.9222C13.499 59.0922 10.439 62.0922 10.369 65.1422C10.309 67.8722 13.6391 68.2022 15.0291 66.4022C18.0391 62.4922 20.109 58.0422 20.939 53.1622C21.429 50.2722 22.489 44.3022 19.319 42.3922C16.629 40.7722 14.379 42.9322 13.259 45.2822C11.419 49.1622 10.949 53.6122 13.109 57.3822C13.959 58.8722 16.6591 59.1522 17.4291 57.3822C20.2091 50.9822 21.8291 44.4621 22.2791 37.4921C22.4391 35.0721 18.689 34.0123 17.619 36.2323C14.529 42.6523 12.919 49.3022 12.829 56.4222C12.789 59.3222 16.879 59.7122 17.739 57.0822C20.029 50.1022 21.369 42.9822 21.849 35.6622C22.029 32.8922 17.369 32.1921 16.939 35.0021C16.299 39.0921 12.229 59.9622 20.149 59.6322C23.909 59.4722 24.4791 54.3122 24.9291 51.5922C25.8591 45.9222 25.569 40.3421 24.379 34.7421C24.169 33.7621 22.999 32.8022 21.969 32.9022C14.189 33.6822 18.1791 48.2521 19.1691 52.9921C19.7191 55.6121 23.209 55.1121 23.989 52.9921C26.709 45.5921 28.6391 38.0321 29.7991 30.2421C30.2591 27.1321 25.599 25.7022 24.979 28.9122C23.399 37.0622 21.9591 45.1721 22.6591 53.5021C22.8891 56.2221 26.729 57.0022 27.569 54.1622C30.069 45.6822 31.129 37.0623 30.749 28.2323C30.629 25.5223 26.489 24.7022 25.839 27.5722C23.669 37.1122 22.9291 46.7522 23.6791 56.5122C23.8791 59.1722 27.919 60.0922 28.589 57.1722C30.609 48.4522 31.149 39.7122 30.109 30.8122C29.749 27.7022 25.039 27.5122 25.109 30.8122C25.309 40.9322 25.359 51.0022 22.059 60.6922C21.019 63.7622 25.789 65.0122 26.879 62.0222C27.649 59.9122 28.009 57.8822 28.139 55.6522C28.259 53.5822 25.259 52.2222 23.869 53.8822C21.529 56.6822 17.019 64.5222 22.729 66.3222C28.439 68.1222 31.829 60.1922 31.649 55.8222C31.559 53.5522 29.029 52.6722 27.379 54.0522C23.619 57.2122 22.339 61.6022 23.379 66.3422C23.809 68.3022 26.229 68.6022 27.559 67.4422C31.569 63.9322 33.5991 59.4022 33.7891 54.0922C33.8791 51.4022 30.479 50.9722 29.129 52.8322C26.159 56.9022 25.4491 61.5722 26.9191 66.3822C27.4991 68.2822 29.669 68.6923 31.099 67.4823C35.179 64.0323 40.939 55.3022 37.439 49.8022C33.129 43.0222 28.509 55.2822 27.969 58.3022C27.339 61.8222 27.889 71.6822 34.069 67.3922C39.769 63.4322 40.259 53.3222 39.259 47.2622C38.919 45.1722 35.589 44.8022 34.689 46.6622C31.649 52.9522 30.729 59.2622 31.769 66.1622C32.119 68.4922 35.259 68.3322 36.339 66.7622C41.309 59.5122 43.439 50.9821 42.369 42.2421C42.109 40.1221 38.839 38.4223 37.709 40.9823C35.279 46.4823 34.2691 52.0222 34.9291 58.0222C35.2091 60.5722 39.299 61.7022 39.839 58.6822C40.559 54.6322 41.1891 50.5721 41.6791 46.4921C42.0391 43.5321 42.779 41.0622 40.869 38.6422C40.379 38.0222 39.169 37.7021 38.439 38.0021C37.179 38.5121 36.439 39.0322 36.139 40.4422C35.919 41.4522 36.2591 42.7722 37.2891 43.2622L37.609 43.4122C39.299 44.2222 41.339 43.2521 41.369 41.2521C41.389 40.0021 41.4091 38.7622 41.4291 37.5122H36.4291C36.3091 46.3522 36.199 55.2022 36.079 64.0422C36.039 67.0922 39.969 67.1322 40.989 64.7022C42.399 61.3622 43.179 58.0821 43.629 54.5021C43.949 51.9621 40.099 51.2121 38.969 53.2421C36.899 56.9521 35.969 60.7822 36.189 65.0222C36.289 66.9522 38.999 68.6122 40.459 66.7922C44.139 62.1922 46.029 57.2022 46.109 51.2922C46.139 48.8422 42.649 47.8522 41.449 50.0322C39.009 54.4522 38.459 58.9922 39.879 63.8522C40.439 65.7522 43.509 66.4922 44.449 64.4522C46.689 59.6022 47.159 54.8422 45.639 49.6822C44.939 47.3022 41.529 47.3122 40.819 49.6822C39.089 55.4222 39.0191 61.0422 40.5491 66.8322C41.0091 68.5722 43.469 69.3622 44.729 67.9322C48.449 63.7022 49.769 58.8722 48.859 53.3322C48.469 50.9322 45.4291 51.2623 44.2891 52.7323C41.8091 55.9423 40.239 63.7422 45.339 65.5922C50.349 67.4122 52.039 59.6422 52.249 56.2722C52.399 53.8722 48.619 52.7522 47.589 55.0122C46.319 57.7922 44.189 65.1422 48.749 66.4022C53.769 67.7922 54.889 59.4722 54.879 56.4422C54.879 53.7422 51.639 53.3322 50.219 55.1822C47.659 58.5322 46.519 62.9822 48.449 66.9022C48.829 67.6822 49.769 68.1322 50.609 68.1422C56.279 68.1922 57.049 60.9021 56.439 56.6221C56.099 54.2121 52.979 54.5622 51.869 56.0222C49.419 59.2522 48.2991 67.9122 54.4191 68.2822C60.0991 68.6222 60.369 59.9722 59.689 56.3322C59.249 53.9622 56.279 54.2223 55.119 55.7323C52.829 58.7323 51.009 66.1323 55.849 67.9823C60.689 69.8323 63.489 62.8723 63.379 59.2323C63.309 57.0023 60.729 56.0222 59.109 57.4622C56.539 59.7522 54.909 64.8222 58.249 67.2922C62.199 70.2122 65.7791 63.9722 67.0491 61.1722C68.3191 58.3722 64.549 55.9322 62.729 58.6522C61.089 61.1122 59.4691 67.0122 63.9291 67.7722C67.8691 68.4422 70.5091 62.3922 71.6591 59.6322C72.6391 57.2622 69.089 55.4922 67.479 57.2022C65.059 59.7722 64.239 62.8423 65.389 66.2323C65.989 68.0223 68.149 68.6822 69.569 67.3322C71.759 65.2522 72.999 63.0222 73.479 60.0222C73.899 57.3522 70.4691 55.5122 68.9091 58.0922C67.4591 60.5022 67.519 62.5422 68.609 65.0622C69.209 66.4522 71.5991 66.7322 72.5391 65.5722C74.2091 63.4822 74.979 61.6522 74.739 58.9422C74.499 56.2322 70.709 55.4722 69.829 58.2822C68.839 61.4122 69.539 64.0722 72.839 65.0522C74.309 65.4922 76.129 64.2522 75.999 62.6422C75.659 58.0522 74.3091 53.9922 71.6591 50.2122C70.4091 48.4422 67.799 48.6822 67.089 50.8122C66.069 53.8622 66.439 56.6122 68.209 59.2922C69.249 60.8622 72.4691 61.0022 72.7791 58.6922C73.3591 54.3822 74.2991 45.8722 69.4191 43.6822C68.6491 43.3322 67.649 43.1222 66.899 43.6822C62.909 46.6322 64.339 52.3222 66.809 55.8922C68.009 57.6222 70.759 57.4622 71.379 55.2922C72.449 51.5722 72.229 39.5721 65.439 41.6121C59.109 43.5021 60.269 55.8922 61.699 60.3922C62.299 62.2722 65.299 63.0521 66.269 60.9921C68.799 55.6321 70.009 50.2122 69.809 44.2822C69.729 41.8622 66.409 40.8022 65.149 43.0222C61.829 48.8822 60.419 55.1822 61.089 61.8922C61.269 63.7222 63.089 65.0822 64.849 64.0522C71.299 60.3022 70.9291 49.8122 70.6791 43.3522C70.5791 40.6622 66.329 39.8022 65.769 42.6922C65.049 46.4122 65.099 49.8522 66.009 53.5222C66.739 56.4522 70.6291 55.4921 70.9191 52.8621C71.4891 47.6821 71.229 42.6522 70.269 37.5422C69.829 35.2022 65.799 35.1022 65.449 37.5422C64.409 44.8322 62.359 51.7622 59.149 58.4022L63.809 59.6622C64.379 54.4722 64.949 49.2822 65.519 44.0922C65.819 41.3722 62.129 41.0522 60.859 42.8322C58.319 46.3822 56.719 50.2222 55.999 54.5322C55.559 57.1322 59.139 59.1422 60.569 56.4622C62.829 52.2222 69.0391 38.6022 61.5291 36.4722C60.4891 36.1822 59.229 36.6621 58.709 37.6221C55.939 42.6921 54.0491 47.9822 53.0391 53.6822C52.5891 56.2322 56.389 58.4021 57.609 55.6121C60.119 49.8721 61.6891 44.0722 62.4191 37.8522C62.6691 35.7522 59.479 34.4822 58.149 36.0822C53.649 41.5022 51.229 47.5722 50.809 54.6022C50.669 56.9922 54.429 58.1221 55.469 55.8621C57.999 50.3321 59.2891 44.7021 59.2991 38.6221C59.2991 36.5521 56.4991 35.2022 55.0291 36.8522C50.0391 42.4622 48.339 49.2822 47.369 56.5622C47.029 59.1022 50.9091 59.8522 52.0291 57.8222C53.9191 54.4122 55.289 50.9922 56.219 47.2022C56.989 44.0822 52.169 42.7421 51.399 45.8721C50.569 49.2221 49.379 52.2822 47.709 55.2922L52.369 56.5522C53.159 50.7022 54.559 44.8922 58.569 40.3822L54.2991 38.6121C54.2991 43.7921 53.309 48.6222 51.149 53.3322L55.809 54.5922C56.139 48.9922 58.0991 43.9221 61.6791 39.6121L57.4091 37.8422C56.7891 43.1322 55.4091 48.2022 53.2791 53.0822L57.849 55.0122C58.779 49.7422 60.449 44.8522 63.019 40.1422L60.199 41.2922C61.329 41.6122 56.809 52.9122 56.259 53.9422L60.829 55.8721C61.489 51.9321 62.859 48.6221 65.189 45.3721L60.5291 44.1121C59.9591 49.3021 59.389 54.4922 58.819 59.6822C58.549 62.1322 62.429 63.1122 63.479 60.9422C66.879 53.9122 69.1791 46.6222 70.2791 38.8922H65.459C66.339 43.6022 66.4491 48.1322 65.9291 52.8822L70.839 52.2222C70.139 49.4122 70.039 46.8922 70.599 44.0522L65.689 43.3922C65.849 47.6122 66.719 57.2222 62.329 59.7722L66.089 61.9322C65.509 56.0722 66.559 50.7122 69.469 45.5822L64.809 44.3222C64.969 49.3822 64.109 53.9221 61.949 58.5021L66.519 59.1022C65.539 56.0222 65.139 52.9321 65.999 49.7521C66.139 49.0321 66.379 48.3522 66.709 47.7022C67.249 46.0522 67.379 46.0422 67.079 47.6722C67.329 49.6322 67.089 52.1521 66.559 54.0021L71.129 53.4022C70.709 52.7922 68.4991 48.7222 69.4291 48.0322H66.9091C69.0491 48.9922 68.199 55.6922 67.969 57.4022L72.5391 56.8022C71.3291 55.3422 71.1291 53.8022 71.9291 52.1822L67.359 52.7822C69.509 55.8322 70.739 58.9522 71.019 62.6922L74.1791 60.2822L74.6691 59.6622L69.759 59.0021L69.0291 62.1022L72.959 62.6121L73.259 60.6922L68.689 58.7622C68.339 60.9322 67.699 62.3121 66.069 63.8621L70.249 64.9622C69.499 63.4622 69.7591 62.0722 71.0491 60.7922L66.869 58.3621C66.399 59.4921 64.939 62.7522 63.629 62.9722L66.059 63.6121L67.069 61.2421L62.749 58.7222C61.859 60.7022 56.7991 66.3022 62.6691 61.0722L58.399 59.3022C58.539 64.1922 57.529 60.8722 59.459 58.3322L54.889 57.7323C55.269 59.2423 55.219 60.7423 54.729 62.2323C54.729 60.7923 55.219 59.5921 56.199 58.6221L51.629 58.0222C52.029 59.9322 51.689 61.6622 50.619 63.2122L52.7791 64.4522C51.6491 62.1622 53.1891 59.5522 54.5491 57.7822L49.889 56.5222C50.079 58.3622 49.709 60.0722 48.759 61.6522L51.189 62.2922C50.789 60.7022 51.0291 59.1422 51.9091 57.6022L47.249 56.3422C47.339 58.2722 46.699 59.9422 45.339 61.3422H47.859C45.619 60.3722 47.809 56.3622 48.609 55.3222L44.0391 54.7222C44.6391 58.4022 43.629 61.6822 41.189 64.4622L45.369 65.5622C44.049 60.5622 44.149 56.0222 45.639 51.0722H40.819C41.949 54.9022 41.819 58.3521 40.129 61.9921L44.699 62.5922C43.649 59.0022 43.969 55.8722 45.759 52.6322L41.099 51.3721C41.039 55.8521 39.7291 59.8122 36.9191 63.3422L41.189 65.1121C41.009 61.6821 41.6191 58.8422 43.2791 55.8522L38.619 54.5922C38.229 57.7022 37.3691 60.5822 36.1591 63.4622L41.069 64.1221C41.189 55.2821 41.2991 46.4322 41.4191 37.5922C41.4591 34.3722 36.4691 34.3722 36.4191 37.5922C36.3991 38.8422 36.379 40.0822 36.359 41.3322L40.119 39.1722L39.7991 39.0222L40.949 41.8422L41.059 41.3322L39.309 43.0822L39.749 42.9022L37.319 42.2622C37.509 42.5022 36.479 48.0622 36.359 48.9122C35.969 51.7622 35.509 54.6022 34.999 57.4322L39.9091 58.0922C39.3591 53.0422 39.949 48.2522 42.009 43.5822L37.349 42.3222C38.319 50.3022 36.549 57.6822 31.999 64.3122L36.569 64.9122C35.749 59.4622 36.589 54.2122 38.989 49.2722L34.4191 48.6722C35.1491 53.0822 34.479 57.1322 32.569 61.1822C32.069 61.6322 32.079 62.0322 32.599 62.4022C32.559 61.3922 32.649 60.3922 32.879 59.4022C33.289 56.9322 34.049 54.0822 35.979 52.3322L33.5491 52.9722C33.6691 53.0022 31.8191 58.7922 31.5291 59.3322C30.5191 61.2422 29.1591 62.6622 27.5291 64.0322L31.709 65.1322C30.609 61.5122 31.2191 58.4522 33.4191 55.4322L28.759 54.1722C28.619 58.2222 27.039 61.3223 23.999 63.9823L28.1791 65.0822C27.5091 61.9922 28.559 59.6222 30.899 57.6622L26.629 55.8922C26.679 57.1222 26.029 62.2821 23.449 61.3621L25.199 63.1121C24.509 61.3521 26.409 58.6521 27.379 57.4921L23.109 55.7222C22.999 57.6322 22.6691 59.0022 22.0291 60.7622L26.849 62.0922C30.279 51.9922 30.289 41.4322 30.079 30.8822H25.079C26.059 39.3322 25.659 47.6222 23.739 55.9122L28.649 56.5722C27.929 47.2422 28.559 38.0922 30.629 28.9622L25.719 28.3022C26.089 36.7022 25.099 44.8422 22.719 52.9022L27.629 53.5622C26.959 45.6722 28.269 38.0222 29.769 30.3022L24.949 28.9722C23.789 36.7622 21.859 44.3322 19.139 51.7222H23.959C23.389 48.9722 22.939 46.2122 22.739 43.4022C22.659 42.1922 22.609 40.9822 22.609 39.7722C23.309 37.8622 23.089 37.2522 21.939 37.9622L19.5291 36.1221C20.1191 38.9121 20.509 41.7122 20.509 44.5722C20.509 45.7922 20.459 47.0321 20.349 48.2421C20.239 49.3721 18.989 53.0923 20.219 52.9823C21.359 52.8823 20.7591 47.6022 20.7991 46.2222C20.8991 42.9122 21.229 39.6522 21.739 36.3822L16.829 35.7222C16.369 42.6222 15.049 49.2522 12.889 55.8122L17.7991 56.4722C17.8791 50.2422 19.2091 44.4122 21.9091 38.8022L17.249 37.5422C16.859 43.5822 15.499 49.3522 13.079 54.9022H17.399C16.479 53.2622 16.329 51.5722 16.969 49.8422C17.849 48.6922 17.639 48.0422 16.329 47.8822C16.039 48.1022 15.8291 53.2322 15.7991 53.4022C14.9391 57.3122 13.119 60.7622 10.689 63.9122L15.349 65.1722L13.499 64.1422L17.1691 66.9622C17.8591 64.2022 18.979 62.2022 20.579 59.8922C22.289 57.4222 20.149 60.6722 19.849 60.9722C19.359 62.2522 19.529 61.9022 20.359 59.9422C20.579 58.7422 21.209 57.8722 22.259 57.3222L17.989 55.5522C18.089 57.5022 17.8491 59.9722 17.1591 61.6322C17.5791 62.7622 17.7091 62.0622 17.5491 59.5422C17.9191 58.2022 18.559 57.0221 19.469 55.9921L14.899 55.3922C15.389 57.3122 14.9691 59.0121 13.6591 60.5021C13.3291 59.4021 13.639 58.5922 14.589 58.0522L10.4091 56.9522C10.9591 58.6922 10.389 60.3722 10.839 62.0922C11.289 63.8122 11.0191 59.8622 11.0391 59.5622C11.3691 56.2622 12.539 53.1822 14.149 50.3022L9.57898 49.7022C10.379 51.3822 10.599 53.1822 10.249 55.0822H15.069C12.799 46.4422 9.83899 38.0922 6.21899 29.9222C5.18899 27.6022 1.49896 28.8422 1.55896 31.1822C1.75896 39.2322 9.19897 46.5922 7.44897 54.5422H12.269C11.279 51.9722 11.4691 49.6822 13.4091 47.5722L9.13904 45.8022C9.52904 48.9022 9.49904 51.9322 8.63904 54.9522C8.24904 56.3422 7.75904 58.1222 6.88904 59.2922C5.80904 60.7322 4.26898 62.6822 5.20898 58.7022L0.639035 59.3022L1.28906 62.1722H5.60901C4.59901 57.2622 4.00899 57.5622 3.83899 63.0622L8.15906 65.5822C9.35906 63.1022 10.789 61.0621 12.749 59.1121L8.56897 56.6822C8.02897 59.1122 6.76897 60.6922 4.56897 61.7922L8.23901 64.6121C8.59901 61.9321 9.35907 59.6522 11.0491 57.4722L6.86902 55.0422C6.02902 57.2222 4.81907 58.6721 3.04907 60.1221L7.31897 61.8922C7.46897 59.5922 8.12904 57.9322 9.38904 56.0622L5.06897 53.5422C4.18897 55.1622 3.28906 56.1222 1.65906 57.0522L5.32898 59.8721C5.95898 57.9121 6.58898 55.9621 7.20898 54.0021C8.07898 51.2821 4.03904 49.6422 2.63904 52.0722L0.399044 54.0422L3.479 57.1221C3.709 55.6021 3.93906 54.0822 4.15906 52.5522C4.57906 49.7122 1.33899 48.2921 -0.411014 50.6221C-1.19101 51.6621 -1.97097 52.7021 -2.74097 53.7421L1.82898 54.3422C1.47898 52.3822 1.90903 50.7122 3.12903 49.3422C4.94903 46.6822 0.618956 44.1822 -1.19104 46.8222L-1.14099 46.7922Z" fill="#FF46A0"/>
<path d="M89.089 62.3533C83.019 61.5133 82.669 54.7132 81.959 49.8632C81.249 45.0132 80.5891 40.4632 79.8991 35.7732L75.329 37.7033C78.979 44.0633 83.8691 49.1632 90.0091 53.1432C91.8491 54.3332 94.2791 52.3633 93.6791 50.3233C90.9091 40.7733 82.1191 29.0632 89.2891 19.5132L84.6291 18.2532C85.9191 28.1832 89.4491 37.2832 95.4791 45.3032C97.0091 47.3332 99.8591 46.5932 100.139 44.0432C101.399 32.6032 102.389 21.2433 100.139 9.85329L95.569 11.7832C100.309 20.4932 102.219 29.9533 101.389 39.8233C101.139 42.7833 105.409 42.9933 106.299 40.4833C109.529 31.3633 110.869 21.8733 110.309 12.2133L105.649 13.4733C111.919 23.9833 114.079 36.1132 111.659 48.1332C111.099 50.9332 114.609 52.4332 116.229 50.0632C121.499 42.3432 124.019 33.4133 123.619 24.0733L118.959 25.3333C123.369 35.4833 126.509 46.0633 128.469 56.9433C128.949 59.6033 132.519 59.0133 133.289 56.9433C137.799 44.8533 141.629 32.5933 139.409 19.5933L134.589 20.9232C136.319 25.7632 138.049 30.5932 139.779 35.4332C140.599 37.7232 143.839 37.8832 144.599 35.4332L146.279 30.0232L141.709 30.6232C143.669 34.5532 144.899 38.5833 145.399 42.9633C145.689 45.5333 149.649 46.6232 150.309 43.6232C152.179 35.1132 153.659 26.5532 154.799 17.9232C155.119 15.5132 151.089 14.4332 150.139 16.6632C147.449 22.9932 149.939 30.2932 151.049 36.7632C151.689 40.4532 152.309 44.1232 153.839 47.5632C155.489 51.2632 160.979 57.0433 156.699 60.7233C154.259 62.8233 157.809 66.3532 160.239 64.2632C165.589 59.6532 162.629 53.1732 159.749 48.1132C157.319 43.8432 156.539 39.3332 155.719 34.5632C154.939 30.0532 152.579 23.5832 154.449 19.1832L149.789 17.9232C148.709 26.1132 147.249 34.2332 145.479 42.2932L150.389 42.9533C149.789 37.6733 148.389 32.8433 146.009 28.0933C144.999 26.0733 142.039 26.7533 141.439 28.6933L139.759 34.1033H144.579C142.849 29.2633 141.119 24.4333 139.389 19.5933C138.299 16.5333 134.029 17.7632 134.569 20.9232C136.619 32.9032 132.589 44.5332 128.449 55.6232H133.269C131.229 44.2832 127.849 33.3832 123.259 22.8132C122.259 20.5032 118.499 21.7133 118.599 24.0733C118.969 32.6233 116.719 40.4632 111.889 47.5332L116.459 49.4633C119.139 36.1333 116.919 22.6433 109.949 10.9533C108.729 8.91326 105.139 9.66327 105.289 12.2133C105.829 21.4833 104.559 30.4032 101.459 39.1532L106.369 39.8132C107.259 29.0932 104.999 18.6932 99.8591 9.25319C98.4391 6.64319 94.7691 8.51324 95.2891 11.1832C97.4291 22.0832 96.309 33.1032 95.099 44.0432L99.7591 42.7832C94.2991 35.5132 90.769 27.2932 89.589 18.2532C89.259 15.7432 86.4891 14.9232 84.9291 16.9932C76.6491 28.0232 85.609 40.6232 88.819 51.6632L92.4891 48.8433C87.0491 45.3233 82.819 40.8133 79.599 35.1933C78.089 32.5533 74.6491 34.4832 75.0291 37.1232C76.0191 43.9232 76.3691 51.2632 78.2691 57.8732C79.6091 62.5332 82.699 66.5033 87.709 67.1933C90.859 67.6233 92.2191 62.8132 89.0391 62.3732L89.089 62.3533Z" fill="#FF46A0"/>
<path d="M81.859 44.7922C79.919 47.6222 79.519 50.3122 80.059 53.6522C80.449 56.0322 83.499 55.7521 84.629 54.2521C85.409 53.2121 86.189 52.1722 86.959 51.1322L82.389 49.2022C82.159 50.7222 81.929 52.2422 81.709 53.7722C81.459 55.4622 82.7891 57.5622 84.7891 56.8522C87.2191 55.9722 88.719 54.8322 90.009 52.5822L85.439 50.6522C84.809 52.6122 84.179 54.5622 83.559 56.5222C82.879 58.6422 85.399 60.3922 87.229 59.3422C89.549 58.0122 91.1591 56.3822 92.4291 54.0322C93.9691 51.1822 89.899 48.8522 88.109 51.5122C86.319 54.1722 85.559 56.7021 85.359 59.8721C85.209 62.2421 88.099 62.8922 89.629 61.6422C92.119 59.5922 93.579 57.3521 94.729 54.3621C95.599 52.1021 92.0691 49.9722 90.5491 51.9322C88.3291 54.8022 86.949 57.6422 86.459 61.2822C86.169 63.4322 88.039 65.1522 90.129 64.1022C93.519 62.4022 95.5991 59.7021 96.4291 56.0021C96.9591 53.6121 94.089 51.7522 92.249 53.5722C89.999 55.8022 88.259 58.2022 86.869 61.0522C85.479 63.9022 89.759 66.4722 91.189 63.5722C92.919 60.0522 94.029 51.8522 88.089 51.5122C81.539 51.1322 82.419 58.9122 84.329 62.6822C85.119 64.2322 87.909 64.4022 88.649 62.6822C89.849 59.8922 89.879 57.2622 87.999 54.7622C86.809 53.1722 83.9691 53.0721 83.4291 55.3621C82.7591 58.1821 82.3691 61.3522 84.6691 63.5422C86.4691 65.2522 88.979 65.5322 91.009 64.0622C96.659 59.9522 97.989 50.1122 97.189 43.7922C96.939 41.8322 94.5391 40.2522 92.9191 42.0222C89.8591 45.3622 88.849 49.5622 90.499 53.8522C91.309 55.9522 94.739 56.4822 95.319 53.8522C97.339 44.6622 89.819 37.9922 89.609 29.1622L84.949 30.4222C88.389 38.1822 91.1391 46.1722 93.2891 54.3822C93.8691 56.6122 97.739 56.9122 98.109 54.3822C98.539 51.4722 98.459 49.1722 97.439 46.3522C96.739 44.4222 93.989 43.7621 92.869 45.7521C90.619 49.7621 85.559 61.6222 91.019 65.1522C97.729 69.4822 99.509 57.5122 98.269 53.5922C97.709 51.8022 95.469 51.1321 94.089 52.4921C90.979 55.5621 88.2891 63.7722 95.2891 64.2722C101.409 64.7122 103.699 56.7022 102.759 52.0422C102.289 49.7122 99.349 49.8822 98.189 51.4422C95.859 54.5722 92.749 63.9522 98.619 65.3822C104.429 66.8022 106.229 57.4322 106.029 53.5222C105.909 51.2122 103.439 50.4121 101.759 51.7521C98.669 54.2221 95.439 60.4322 99.209 63.8322C102.979 67.2322 107.059 63.2322 107.949 59.5722C108.729 56.3922 108.089 51.3022 103.719 51.8322C99.049 52.4022 96.319 59.8122 95.369 63.6022C94.849 65.6922 97.1291 67.5522 99.0391 66.4222C101.679 64.8822 102.759 60.7522 99.629 58.9222C96.499 57.0922 93.439 60.0922 93.369 63.1422C93.309 65.8722 96.6391 66.2022 98.0291 64.4022C101.039 60.4922 103.109 56.0422 103.939 51.1622C104.429 48.2722 105.489 42.3022 102.319 40.3922C99.629 38.7722 97.379 40.9322 96.259 43.2822C94.419 47.1622 93.949 51.6122 96.109 55.3822C96.959 56.8722 99.6591 57.1522 100.429 55.3822C103.209 48.9822 104.829 42.4621 105.279 35.4921C105.439 33.0721 101.689 32.0123 100.619 34.2323C97.529 40.6523 95.919 47.3022 95.829 54.4222C95.789 57.3222 99.879 57.7122 100.739 55.0822C103.029 48.1022 104.369 40.9822 104.849 33.6622C105.029 30.8922 100.369 30.1921 99.939 33.0021C99.299 37.0921 95.229 57.9622 103.149 57.6322C106.909 57.4722 107.479 52.3122 107.929 49.5922C108.859 43.9222 108.569 38.3421 107.379 32.7421C107.169 31.7621 105.999 30.8022 104.969 30.9022C97.189 31.6822 101.179 46.2521 102.169 50.9921C102.719 53.6121 106.209 53.1121 106.989 50.9921C109.709 43.5921 111.639 36.0321 112.799 28.2421C113.259 25.1321 108.599 23.7022 107.979 26.9122C106.399 35.0622 104.959 43.1721 105.659 51.5021C105.889 54.2221 109.729 55.0022 110.569 52.1622C113.069 43.6822 114.129 35.0623 113.749 26.2323C113.629 23.5223 109.489 22.7022 108.839 25.5722C106.669 35.1122 105.929 44.7522 106.679 54.5122C106.879 57.1722 110.919 58.0922 111.589 55.1722C113.609 46.4522 114.149 37.7122 113.109 28.8122C112.749 25.7022 108.039 25.5122 108.109 28.8122C108.309 38.9322 108.359 49.0022 105.059 58.6922C104.019 61.7622 108.789 63.0122 109.879 60.0222C110.649 57.9122 111.009 55.8822 111.139 53.6522C111.259 51.5822 108.259 50.2222 106.869 51.8822C104.529 54.6822 100.019 62.5222 105.729 64.3222C111.439 66.1222 114.829 58.1922 114.649 53.8222C114.559 51.5522 112.029 50.6722 110.379 52.0522C106.619 55.2122 105.339 59.6022 106.379 64.3422C106.809 66.3022 109.229 66.6022 110.559 65.4422C114.569 61.9322 116.599 57.4022 116.789 52.0922C116.879 49.4022 113.479 48.9722 112.129 50.8322C109.159 54.9022 108.449 59.5722 109.919 64.3822C110.499 66.2822 112.669 66.6923 114.099 65.4823C118.179 62.0323 123.939 53.3022 120.439 47.8022C116.129 41.0222 111.509 53.2822 110.969 56.3022C110.339 59.8222 110.889 69.6822 117.069 65.3922C122.769 61.4322 123.259 51.3222 122.259 45.2622C121.919 43.1722 118.589 42.8022 117.689 44.6622C114.649 50.9522 113.729 57.2622 114.769 64.1622C115.119 66.4922 118.259 66.3322 119.339 64.7622C124.309 57.5122 126.439 48.9821 125.369 40.2421C125.109 38.1221 121.839 36.4223 120.709 38.9823C118.279 44.4823 117.269 50.0222 117.929 56.0222C118.209 58.5722 122.299 59.7022 122.839 56.6822C123.559 52.6322 124.189 48.5721 124.679 44.4921C125.039 41.5321 125.779 39.0622 123.869 36.6422C123.379 36.0222 122.169 35.7021 121.439 36.0021C120.179 36.5121 119.439 37.0322 119.139 38.4422C118.919 39.4522 119.259 40.7722 120.289 41.2622L120.609 41.4122C122.299 42.2222 124.339 41.2521 124.369 39.2521C124.389 38.0021 124.409 36.7622 124.429 35.5122H119.429C119.309 44.3522 119.199 53.2022 119.079 62.0422C119.039 65.0922 122.969 65.1322 123.989 62.7022C125.399 59.3622 126.179 56.0821 126.629 52.5021C126.949 49.9621 123.099 49.2121 121.969 51.2421C119.899 54.9521 118.969 58.7822 119.189 63.0222C119.289 64.9522 121.999 66.6122 123.459 64.7922C127.139 60.1922 129.029 55.2022 129.109 49.2922C129.139 46.8422 125.649 45.8522 124.449 48.0322C122.009 52.4522 121.459 56.9922 122.879 61.8522C123.439 63.7522 126.509 64.4922 127.449 62.4522C129.689 57.6022 130.159 52.8422 128.639 47.6822C127.939 45.3022 124.529 45.3122 123.819 47.6822C122.089 53.4222 122.019 59.0422 123.549 64.8322C124.009 66.5722 126.469 67.3622 127.729 65.9322C131.449 61.7022 132.769 56.8722 131.859 51.3322C131.469 48.9322 128.429 49.2623 127.289 50.7323C124.809 53.9423 123.239 61.7422 128.339 63.5922C133.349 65.4122 135.039 57.6422 135.249 54.2722C135.399 51.8722 131.619 50.7522 130.589 53.0122C129.319 55.7922 127.189 63.1422 131.749 64.4022C136.769 65.7922 137.889 57.4722 137.879 54.4422C137.879 51.7422 134.639 51.3322 133.219 53.1822C130.659 56.5322 129.519 60.9822 131.449 64.9022C131.829 65.6822 132.769 66.1322 133.609 66.1422C139.279 66.1922 140.049 58.9021 139.439 54.6221C139.099 52.2121 135.979 52.5622 134.869 54.0222C132.419 57.2522 131.299 65.9122 137.419 66.2822C143.099 66.6222 143.369 57.9722 142.689 54.3322C142.249 51.9622 139.279 52.2223 138.119 53.7323C135.829 56.7323 134.009 64.1323 138.849 65.9823C143.689 67.8323 146.489 60.8723 146.379 57.2323C146.309 55.0023 143.729 54.0222 142.109 55.4622C139.539 57.7522 137.909 62.8222 141.249 65.2922C145.199 68.2122 148.779 61.9722 150.049 59.1722C151.319 56.3722 147.549 53.9322 145.729 56.6522C144.089 59.1122 142.469 65.0122 146.929 65.7722C150.869 66.4422 153.509 60.3922 154.659 57.6322C155.639 55.2622 152.089 53.4922 150.479 55.2022C148.059 57.7722 147.239 60.8423 148.389 64.2323C148.989 66.0223 151.149 66.6822 152.569 65.3322C154.759 63.2522 155.999 61.0222 156.479 58.0222C156.899 55.3522 153.469 53.5122 151.909 56.0922C150.459 58.5022 150.519 60.5422 151.609 63.0622C152.209 64.4522 154.599 64.7322 155.539 63.5722C157.209 61.4822 157.979 59.6522 157.739 56.9422C157.499 54.2322 153.709 53.4722 152.829 56.2822C151.839 59.4122 152.539 62.0722 155.839 63.0522C157.309 63.4922 159.129 62.2522 158.999 60.6422C158.659 56.0522 157.309 51.9922 154.659 48.2122C153.409 46.4422 150.799 46.6822 150.089 48.8122C149.069 51.8622 149.439 54.6122 151.209 57.2922C152.249 58.8622 155.469 59.0022 155.779 56.6922C156.359 52.3822 157.299 43.8722 152.419 41.6822C151.649 41.3322 150.649 41.1222 149.899 41.6822C145.909 44.6322 147.339 50.3222 149.809 53.8922C151.009 55.6222 153.759 55.4622 154.379 53.2922C155.449 49.5722 155.229 37.5721 148.439 39.6121C142.109 41.5021 143.269 53.8922 144.699 58.3922C145.299 60.2722 148.299 61.0521 149.269 58.9921C151.799 53.6321 153.009 48.2122 152.809 42.2822C152.729 39.8622 149.409 38.8022 148.149 41.0222C144.829 46.8822 143.419 53.1822 144.089 59.8922C144.269 61.7222 146.089 63.0822 147.849 62.0522C154.299 58.3022 153.929 47.8122 153.679 41.3522C153.579 38.6622 149.329 37.8022 148.769 40.6922C148.049 44.4122 148.099 47.8522 149.009 51.5222C149.739 54.4522 153.629 53.4921 153.919 50.8621C154.489 45.6821 154.229 40.6522 153.269 35.5422C152.829 33.2022 148.799 33.1022 148.449 35.5422C147.409 42.8322 145.359 49.7622 142.149 56.4022L146.809 57.6622C147.379 52.4722 147.949 47.2822 148.519 42.0922C148.819 39.3722 145.129 39.0522 143.859 40.8322C141.319 44.3822 139.719 48.2222 138.999 52.5322C138.559 55.1322 142.139 57.1422 143.569 54.4622C145.829 50.2222 152.039 36.6022 144.529 34.4722C143.489 34.1822 142.229 34.6621 141.709 35.6221C138.939 40.6921 137.049 45.9822 136.039 51.6822C135.589 54.2322 139.389 56.4021 140.609 53.6121C143.119 47.8721 144.689 42.0722 145.419 35.8522C145.669 33.7522 142.479 32.4822 141.149 34.0822C136.649 39.5022 134.229 45.5722 133.809 52.6022C133.669 54.9922 137.429 56.1221 138.469 53.8621C140.999 48.3321 142.289 42.7021 142.299 36.6221C142.299 34.5521 139.499 33.2022 138.029 34.8522C133.039 40.4622 131.339 47.2822 130.369 54.5622C130.029 57.1022 133.909 57.8522 135.029 55.8222C136.919 52.4122 138.289 48.9922 139.219 45.2022C139.989 42.0822 135.169 40.7421 134.399 43.8721C133.569 47.2221 132.379 50.2822 130.709 53.2922L135.369 54.5522C136.159 48.7022 137.559 42.8922 141.569 38.3822L137.299 36.6121C137.299 41.7921 136.309 46.6222 134.149 51.3322L138.809 52.5922C139.139 46.9922 141.099 41.9221 144.679 37.6121L140.409 35.8422C139.789 41.1322 138.409 46.2022 136.279 51.0822L140.849 53.0122C141.779 47.7422 143.449 42.8522 146.019 38.1422L143.199 39.2922C144.329 39.6122 139.809 50.9122 139.259 51.9422L143.829 53.8721C144.489 49.9321 145.859 46.6221 148.189 43.3721L143.529 42.1121C142.959 47.3021 142.389 52.4922 141.819 57.6822C141.549 60.1322 145.429 61.1122 146.479 58.9422C149.879 51.9122 152.179 44.6222 153.279 36.8922H148.459C149.339 41.6022 149.449 46.1322 148.929 50.8822L153.839 50.2222C153.139 47.4122 153.039 44.8922 153.599 42.0522L148.689 41.3922C148.849 45.6122 149.719 55.2222 145.329 57.7722L149.089 59.9322C148.509 54.0722 149.559 48.7122 152.469 43.5822L147.809 42.3222C147.969 47.3822 147.109 51.9221 144.949 56.5021L149.519 57.1022C148.539 54.0222 148.139 50.9321 148.999 47.7521C149.139 47.0321 149.379 46.3522 149.709 45.7022C150.249 44.0522 150.379 44.0422 150.079 45.6722C150.329 47.6322 150.089 50.1521 149.559 52.0021L154.129 51.4022C153.709 50.7922 151.499 46.7222 152.429 46.0322H149.909C152.049 46.9922 151.199 53.6922 150.969 55.4022L155.539 54.8022C154.329 53.3422 154.129 51.8022 154.929 50.1822L150.359 50.7822C152.509 53.8322 153.739 56.9522 154.019 60.6922L157.179 58.2822L157.669 57.6622L152.759 57.0021L152.029 60.1022L155.959 60.6121L156.259 58.6922L151.689 56.7622C151.339 58.9322 150.699 60.3121 149.069 61.8621L153.249 62.9622C152.499 61.4622 152.759 60.0722 154.049 58.7922L149.869 56.3621C149.399 57.4921 147.939 60.7522 146.629 60.9722L149.059 61.6121L150.069 59.2421L145.749 56.7222C144.859 58.7022 139.799 64.3022 145.669 59.0722L141.399 57.3022C141.539 62.1922 140.529 58.8722 142.459 56.3322L137.889 55.7323C138.269 57.2423 138.219 58.7423 137.729 60.2323C137.729 58.7923 138.219 57.5921 139.199 56.6221L134.629 56.0222C135.029 57.9322 134.689 59.6622 133.619 61.2122L135.779 62.4522C134.649 60.1622 136.189 57.5522 137.549 55.7822L132.889 54.5222C133.079 56.3622 132.709 58.0722 131.759 59.6522L134.189 60.2922C133.789 58.7022 134.029 57.1422 134.909 55.6022L130.249 54.3422C130.339 56.2722 129.699 57.9422 128.339 59.3422H130.859C128.619 58.3722 130.809 54.3622 131.609 53.3222L127.039 52.7222C127.639 56.4022 126.629 59.6822 124.189 62.4622L128.369 63.5622C127.049 58.5622 127.149 54.0222 128.639 49.0722H123.819C124.949 52.9022 124.819 56.3521 123.129 59.9921L127.699 60.5922C126.649 57.0022 126.969 53.8722 128.759 50.6322L124.099 49.3721C124.039 53.8521 122.729 57.8122 119.919 61.3422L124.189 63.1121C124.009 59.6821 124.619 56.8422 126.279 53.8522L121.619 52.5922C121.229 55.7022 120.369 58.5822 119.159 61.4622L124.069 62.1221C124.189 53.2821 124.299 44.4322 124.419 35.5922C124.459 32.3722 119.469 32.3722 119.419 35.5922C119.399 36.8422 119.379 38.0822 119.359 39.3322L123.119 37.1722L122.799 37.0222L123.949 39.8422L124.059 39.3322L122.309 41.0822L122.749 40.9022L120.319 40.2622C120.509 40.5022 119.479 46.0622 119.359 46.9122C118.969 49.7622 118.509 52.6022 117.999 55.4322L122.909 56.0922C122.359 51.0422 122.949 46.2522 125.009 41.5822L120.349 40.3222C121.319 48.3022 119.549 55.6822 114.999 62.3122L119.569 62.9122C118.749 57.4622 119.589 52.2122 121.989 47.2722L117.419 46.6722C118.149 51.0822 117.479 55.1322 115.569 59.1822C115.069 59.6322 115.079 60.0322 115.599 60.4022C115.559 59.3922 115.649 58.3922 115.879 57.4022C116.289 54.9322 117.049 52.0822 118.979 50.3322L116.549 50.9722C116.669 51.0022 114.819 56.7922 114.529 57.3322C113.519 59.2422 112.159 60.6622 110.529 62.0322L114.709 63.1322C113.609 59.5122 114.219 56.4522 116.419 53.4322L111.759 52.1722C111.619 56.2222 110.039 59.3223 106.999 61.9823L111.179 63.0822C110.509 59.9922 111.559 57.6222 113.899 55.6622L109.629 53.8922C109.679 55.1222 109.029 60.2821 106.449 59.3621L108.199 61.1121C107.509 59.3521 109.409 56.6521 110.379 55.4921L106.109 53.7222C105.999 55.6322 105.669 57.0022 105.029 58.7622L109.849 60.0922C113.279 49.9922 113.289 39.4322 113.079 28.8822H108.079C109.059 37.3322 108.659 45.6222 106.739 53.9122L111.649 54.5722C110.929 45.2422 111.559 36.0922 113.629 26.9622L108.719 26.3022C109.089 34.7022 108.099 42.8422 105.719 50.9022L110.629 51.5622C109.959 43.6722 111.269 36.0222 112.769 28.3022L107.949 26.9722C106.789 34.7622 104.859 42.3322 102.139 49.7222H106.959C106.389 46.9722 105.939 44.2122 105.739 41.4022C105.659 40.1922 105.609 38.9822 105.609 37.7722C106.309 35.8622 106.089 35.2522 104.939 35.9622L102.529 34.1221C103.119 36.9121 103.509 39.7122 103.509 42.5722C103.509 43.7922 103.459 45.0321 103.349 46.2421C103.239 47.3721 101.989 51.0923 103.219 50.9823C104.359 50.8823 103.759 45.6022 103.799 44.2222C103.899 40.9122 104.229 37.6522 104.739 34.3822L99.829 33.7222C99.369 40.6222 98.049 47.2522 95.889 53.8122L100.799 54.4722C100.879 48.2422 102.209 42.4122 104.909 36.8022L100.249 35.5422C99.859 41.5822 98.499 47.3522 96.079 52.9022H100.399C99.479 51.2622 99.329 49.5722 99.969 47.8422C100.849 46.6922 100.639 46.0422 99.329 45.8822C99.039 46.1022 98.8291 51.2322 98.7991 51.4022C97.9391 55.3122 96.119 58.7622 93.689 61.9122L98.349 63.1722L96.499 62.1422L100.169 64.9622C100.859 62.2022 101.979 60.2022 103.579 57.8922C105.289 55.4222 103.149 58.6722 102.849 58.9722C102.359 60.2522 102.529 59.9022 103.359 57.9422C103.579 56.7422 104.209 55.8722 105.259 55.3222L100.989 53.5522C101.089 55.5022 100.849 57.9722 100.159 59.6322C100.579 60.7622 100.709 60.0622 100.549 57.5422C100.919 56.2022 101.559 55.0221 102.469 53.9921L97.899 53.3922C98.389 55.3122 97.9691 57.0121 96.6591 58.5021C96.3291 57.4021 96.639 56.5922 97.589 56.0522L93.4091 54.9522C93.9591 56.6922 93.389 58.3722 93.839 60.0922C94.289 61.8122 94.0191 57.8622 94.0391 57.5622C94.3691 54.2622 95.539 51.1822 97.149 48.3022L92.579 47.7022C93.379 49.3822 93.599 51.1822 93.249 53.0822H98.069C95.799 44.4422 92.839 36.0922 89.219 27.9222C88.189 25.6022 84.499 26.8422 84.559 29.1822C84.759 37.2322 92.199 44.5922 90.449 52.5422H95.269C94.279 49.9722 94.4691 47.6822 96.4091 45.5722L92.139 43.8022C92.529 46.9022 92.499 49.9322 91.639 52.9522C91.249 54.3422 90.759 56.1222 89.889 57.2922C88.809 58.7322 87.269 60.6822 88.209 56.7022L83.639 57.3022L84.2891 60.1722H88.609C87.599 55.2622 87.009 55.5622 86.839 61.0622L91.1591 63.5822C92.3591 61.1022 93.789 59.0621 95.749 57.1121L91.569 54.6822C91.029 57.1122 89.769 58.6922 87.569 59.7922L91.239 62.6121C91.599 59.9321 92.3591 57.6522 94.0491 55.4722L89.869 53.0422C89.029 55.2222 87.8191 56.6721 86.0491 58.1221L90.319 59.8922C90.469 57.5922 91.129 55.9322 92.389 54.0622L88.069 51.5422C87.189 53.1622 86.2891 54.1222 84.6591 55.0522L88.329 57.8721C88.959 55.9121 89.589 53.9621 90.209 52.0021C91.079 49.2821 87.039 47.6422 85.639 50.0722L83.399 52.0422L86.479 55.1221C86.709 53.6021 86.9391 52.0822 87.1591 50.5522C87.5791 47.7122 84.339 46.2921 82.589 48.6221C81.809 49.6621 81.029 50.7021 80.259 51.7421L84.829 52.3422C84.479 50.3822 84.909 48.7122 86.129 47.3422C87.949 44.6822 83.619 42.1822 81.809 44.8222L81.859 44.7922Z" fill="#FF46A0"/>
<path d="M34.2012 62.3006C28.1312 61.4606 27.7812 54.6604 27.0712 49.8104C26.3612 44.9604 25.7013 40.4105 25.0113 35.7205L20.4412 37.6505C24.0912 44.0105 28.9813 49.1105 35.1213 53.0905C36.9613 54.2805 39.3913 52.3105 38.7913 50.2705C36.0213 40.7205 27.2313 29.0105 34.4013 19.4605L29.7413 18.2005C31.0313 28.1305 34.5612 37.2305 40.5912 45.2505C42.1212 47.2805 44.9713 46.5405 45.2513 43.9905C46.5113 32.5505 47.5013 21.1906 45.2513 9.80055L40.6812 11.7305C45.4212 20.4405 47.3313 29.9005 46.5013 39.7705C46.2513 42.7305 50.5213 42.9406 51.4113 40.4306C54.6413 31.3106 55.9812 21.8205 55.4212 12.1605L50.7613 13.4205C57.0313 23.9305 59.1913 36.0605 56.7713 48.0805C56.2113 50.8805 59.7212 52.3805 61.3412 50.0105C66.6112 42.2905 69.1313 33.3605 68.7313 24.0205L64.0712 25.2805C68.4812 35.4305 71.6212 46.0105 73.5812 56.8905C74.0612 59.5505 77.6313 58.9605 78.4013 56.8905C82.9113 44.8005 86.7413 32.5405 84.5213 19.5405L79.7012 20.8705C81.4312 25.7105 83.1613 30.5405 84.8913 35.3805C85.7113 37.6705 88.9512 37.8305 89.7112 35.3805L91.3913 29.9705L86.8212 30.5704C88.7812 34.5004 90.0113 38.5305 90.5113 42.9105C90.8013 45.4805 94.7612 46.5704 95.4212 43.5704C97.2912 35.0604 98.7713 26.5005 99.9113 17.8705C100.231 15.4605 96.2013 14.3805 95.2513 16.6105C92.5613 22.9405 95.0513 30.2405 96.1613 36.7105C96.8013 40.4005 97.4212 44.0705 98.9512 47.5105C100.601 51.2105 106.091 56.9905 101.811 60.6705C99.3712 62.7705 102.921 66.3005 105.351 64.2105C110.701 59.6005 107.741 53.1204 104.861 48.0604C102.431 43.7904 101.651 39.2805 100.831 34.5105C100.051 30.0005 97.6912 23.5305 99.5612 19.1305L94.9013 17.8705C93.8213 26.0605 92.3612 34.1805 90.5912 42.2405L95.5013 42.9005C94.9013 37.6205 93.5013 32.7905 91.1213 28.0405C90.1113 26.0205 87.1512 26.7005 86.5512 28.6405L84.8713 34.0506H89.6912C87.9612 29.2106 86.2313 24.3805 84.5013 19.5405C83.4113 16.4805 79.1412 17.7105 79.6812 20.8705C81.7312 32.8505 77.7012 44.4804 73.5612 55.5704H78.3813C76.3413 44.2304 72.9613 33.3305 68.3713 22.7605C67.3713 20.4505 63.6112 21.6605 63.7112 24.0205C64.0812 32.5705 61.8313 40.4105 57.0013 47.4805L61.5712 49.4105C64.2512 36.0805 62.0312 22.5905 55.0612 10.9005C53.8412 8.86053 50.2513 9.61054 50.4013 12.1605C50.9413 21.4305 49.6712 30.3505 46.5712 39.1005L51.4813 39.7605C52.3713 29.0405 50.1112 18.6405 44.9712 9.20045C43.5512 6.59045 39.8813 8.46051 40.4013 11.1305C42.5413 22.0305 41.4212 33.0505 40.2112 43.9905L44.8713 42.7305C39.4113 35.4605 35.8812 27.2405 34.7012 18.2005C34.3712 15.6905 31.6013 14.8704 30.0413 16.9404C21.7613 27.9704 30.7212 40.5705 33.9312 51.6105L37.6012 48.7905C32.1612 45.2705 27.9312 40.7605 24.7112 35.1405C23.2012 32.5005 19.7613 34.4304 20.1413 37.0704C21.1313 43.8705 21.4813 51.2104 23.3813 57.8204C24.7213 62.4804 27.8112 66.4505 32.8212 67.1405C35.9712 67.5705 37.3313 62.7604 34.1513 62.3204L34.2012 62.3006Z" fill="#FF46A0"/>
<path d="M26.9712 44.7395C25.0312 47.5695 24.6311 50.2594 25.1711 53.5994C25.5611 55.9794 28.6112 55.6994 29.7412 54.1994C30.5212 53.1594 31.3012 52.1194 32.0712 51.0794L27.5012 49.1495C27.2712 50.6695 27.0412 52.1894 26.8212 53.7194C26.5712 55.4094 27.9012 57.5095 29.9012 56.7995C32.3312 55.9195 33.8312 54.7795 35.1212 52.5295L30.5511 50.5994C29.9211 52.5594 29.2911 54.5094 28.6711 56.4694C27.9911 58.5894 30.5112 60.3395 32.3412 59.2895C34.6612 57.9595 36.2713 56.3294 37.5413 53.9794C39.0813 51.1294 35.0112 48.7994 33.2212 51.4594C31.4312 54.1194 30.6712 56.6494 30.4712 59.8194C30.3212 62.1894 33.2112 62.8394 34.7412 61.5894C37.2312 59.5394 38.6912 57.2994 39.8412 54.3094C40.7112 52.0494 37.1813 49.9195 35.6613 51.8795C33.4413 54.7495 32.0612 57.5894 31.5712 61.2294C31.2812 63.3794 33.1512 65.0995 35.2412 64.0495C38.6312 62.3495 40.7113 59.6494 41.5413 55.9494C42.0713 53.5594 39.2012 51.6995 37.3612 53.5195C35.1112 55.7495 33.3712 58.1495 31.9812 60.9995C30.5912 63.8495 34.8711 66.4195 36.3011 63.5195C38.0311 59.9995 39.1412 51.7994 33.2012 51.4594C26.6512 51.0794 27.5312 58.8595 29.4412 62.6295C30.2312 64.1795 33.0212 64.3495 33.7612 62.6295C34.9612 59.8395 34.9912 57.2094 33.1112 54.7094C31.9212 53.1194 29.0813 53.0194 28.5413 55.3094C27.8713 58.1294 27.4812 61.2995 29.7812 63.4895C31.5812 65.1995 34.0912 65.4795 36.1212 64.0095C41.7712 59.8995 43.1011 50.0595 42.3011 43.7395C42.0511 41.7795 39.6512 40.1994 38.0312 41.9694C34.9712 45.3094 33.9612 49.5095 35.6112 53.7995C36.4212 55.8995 39.8512 56.4295 40.4312 53.7995C42.4512 44.6095 34.9312 37.9394 34.7212 29.1094L30.0612 30.3695C33.5012 38.1295 36.2512 46.1194 38.4012 54.3294C38.9812 56.5594 42.8512 56.8594 43.2212 54.3294C43.6512 51.4194 43.5711 49.1195 42.5511 46.2995C41.8511 44.3695 39.1012 43.7094 37.9812 45.6994C35.7312 49.7094 30.6712 61.5694 36.1312 65.0994C42.8412 69.4294 44.6212 57.4595 43.3812 53.5395C42.8212 51.7495 40.5812 51.0794 39.2012 52.4394C36.0912 55.5094 33.4012 63.7194 40.4012 64.2194C46.5212 64.6594 48.8112 56.6495 47.8712 51.9895C47.4012 49.6595 44.4611 49.8295 43.3011 51.3895C40.9711 54.5195 37.8612 63.8994 43.7312 65.3294C49.5412 66.7494 51.3412 57.3794 51.1412 53.4694C51.0212 51.1594 48.5512 50.3594 46.8712 51.6994C43.7812 54.1694 40.5512 60.3795 44.3212 63.7795C48.0912 67.1795 52.1712 63.1795 53.0612 59.5195C53.8412 56.3395 53.2012 51.2495 48.8312 51.7795C44.1612 52.3495 41.4312 59.7595 40.4812 63.5495C39.9612 65.6395 42.2412 67.4995 44.1512 66.3695C46.7912 64.8295 47.8712 60.6995 44.7412 58.8695C41.6112 57.0395 38.5512 60.0394 38.4812 63.0894C38.4212 65.8194 41.7512 66.1494 43.1412 64.3494C46.1512 60.4394 48.2211 55.9894 49.0511 51.1094C49.5411 48.2194 50.6012 42.2494 47.4312 40.3394C44.7412 38.7194 42.4912 40.8794 41.3712 43.2294C39.5312 47.1094 39.0612 51.5594 41.2212 55.3294C42.0712 56.8194 44.7713 57.0994 45.5413 55.3294C48.3213 48.9294 49.9412 42.4094 50.3912 35.4394C50.5512 33.0194 46.8012 31.9595 45.7312 34.1795C42.6412 40.5995 41.0312 47.2495 40.9412 54.3695C40.9012 57.2695 44.9912 57.6595 45.8512 55.0295C48.1412 48.0495 49.4812 40.9294 49.9612 33.6094C50.1412 30.8394 45.4811 30.1394 45.0511 32.9494C44.4111 37.0394 40.3412 57.9094 48.2612 57.5794C52.0212 57.4194 52.5913 52.2595 53.0413 49.5395C53.9713 43.8695 53.6812 38.2894 52.4912 32.6894C52.2812 31.7094 51.1112 30.7494 50.0812 30.8494C42.3012 31.6294 46.2912 46.1994 47.2812 50.9394C47.8312 53.5594 51.3212 53.0594 52.1012 50.9394C54.8212 43.5394 56.7513 35.9794 57.9113 28.1894C58.3713 25.0794 53.7112 23.6494 53.0912 26.8594C51.5112 35.0094 50.0712 43.1194 50.7712 51.4494C51.0012 54.1694 54.8412 54.9494 55.6812 52.1094C58.1812 43.6294 59.2412 35.0095 58.8612 26.1795C58.7412 23.4695 54.6012 22.6495 53.9512 25.5195C51.7812 35.0595 51.0413 44.6994 51.7913 54.4594C51.9913 57.1194 56.0312 58.0395 56.7012 55.1195C58.7212 46.3995 59.2612 37.6595 58.2212 28.7595C57.8612 25.6495 53.1512 25.4595 53.2212 28.7595C53.4212 38.8795 53.4711 48.9495 50.1711 58.6395C49.1311 61.7095 53.9012 62.9594 54.9912 59.9694C55.7612 57.8594 56.1212 55.8294 56.2512 53.5994C56.3712 51.5294 53.3712 50.1694 51.9812 51.8294C49.6412 54.6294 45.1312 62.4695 50.8412 64.2695C56.5512 66.0695 59.9412 58.1395 59.7612 53.7695C59.6712 51.4995 57.1412 50.6195 55.4912 51.9995C51.7312 55.1595 50.4512 59.5495 51.4912 64.2895C51.9212 66.2495 54.3411 66.5495 55.6711 65.3895C59.6811 61.8795 61.7112 57.3495 61.9012 52.0395C61.9912 49.3495 58.5912 48.9195 57.2412 50.7795C54.2712 54.8495 53.5612 59.5194 55.0312 64.3294C55.6112 66.2294 57.7812 66.6395 59.2112 65.4295C63.2912 61.9795 69.0511 53.2495 65.5511 47.7495C61.2411 40.9695 56.6212 53.2295 56.0812 56.2495C55.4512 59.7695 56.0012 69.6294 62.1812 65.3394C67.8812 61.3794 68.3712 51.2694 67.3712 45.2094C67.0312 43.1194 63.7011 42.7494 62.8011 44.6094C59.7611 50.8994 58.8412 57.2094 59.8812 64.1094C60.2312 66.4394 63.3712 66.2794 64.4512 64.7094C69.4212 57.4594 71.5512 48.9294 70.4812 40.1894C70.2212 38.0694 66.9512 36.3695 65.8212 38.9295C63.3912 44.4295 62.3813 49.9694 63.0413 55.9694C63.3213 58.5194 67.4112 59.6495 67.9512 56.6295C68.6712 52.5795 69.3013 48.5194 69.7913 44.4394C70.1513 41.4794 70.8912 39.0094 68.9812 36.5894C68.4912 35.9694 67.2811 35.6494 66.5511 35.9494C65.2911 36.4594 64.5512 36.9795 64.2512 38.3895C64.0312 39.3995 64.3712 40.7194 65.4012 41.2094L65.7212 41.3594C67.4112 42.1694 69.4512 41.1994 69.4812 39.1994C69.5012 37.9494 69.5213 36.7094 69.5413 35.4594H64.5413C64.4213 44.2994 64.3112 53.1495 64.1912 61.9895C64.1512 65.0395 68.0812 65.0795 69.1012 62.6495C70.5112 59.3095 71.2912 56.0294 71.7412 52.4494C72.0612 49.9094 68.2112 49.1594 67.0812 51.1894C65.0112 54.8994 64.0811 58.7294 64.3011 62.9694C64.4011 64.8994 67.1112 66.5595 68.5712 64.7395C72.2512 60.1395 74.1412 55.1495 74.2212 49.2395C74.2512 46.7895 70.7612 45.7994 69.5612 47.9794C67.1212 52.3994 66.5712 56.9395 67.9912 61.7995C68.5512 63.6995 71.6212 64.4395 72.5612 62.3995C74.8012 57.5495 75.2712 52.7895 73.7512 47.6295C73.0512 45.2495 69.6412 45.2595 68.9312 47.6295C67.2012 53.3695 67.1313 58.9895 68.6613 64.7795C69.1213 66.5195 71.5812 67.3095 72.8412 65.8795C76.5612 61.6495 77.8812 56.8195 76.9712 51.2795C76.5812 48.8795 73.5412 49.2095 72.4012 50.6795C69.9212 53.8895 68.3512 61.6895 73.4512 63.5395C78.4612 65.3595 80.1512 57.5894 80.3612 54.2194C80.5112 51.8194 76.7312 50.6994 75.7012 52.9594C74.4312 55.7394 72.3012 63.0894 76.8612 64.3494C81.8812 65.7394 83.0012 57.4195 82.9912 54.3895C82.9912 51.6895 79.7512 51.2795 78.3312 53.1295C75.7712 56.4795 74.6312 60.9294 76.5612 64.8494C76.9412 65.6294 77.8812 66.0794 78.7212 66.0894C84.3912 66.1394 85.1611 58.8494 84.5511 54.5694C84.2111 52.1594 81.0912 52.5094 79.9812 53.9694C77.5312 57.1994 76.4113 65.8594 82.5312 66.2294C88.2112 66.5694 88.4811 57.9195 87.8011 54.2795C87.3611 51.9095 84.3912 52.1695 83.2312 53.6795C80.9412 56.6795 79.1212 64.0795 83.9612 65.9295C88.8012 67.7795 91.6012 60.8195 91.4912 57.1795C91.4212 54.9495 88.8412 53.9695 87.2212 55.4095C84.6512 57.6995 83.0212 62.7695 86.3612 65.2395C90.3112 68.1595 93.8913 61.9195 95.1613 59.1195C96.4313 56.3195 92.6612 53.8794 90.8412 56.5994C89.2012 59.0594 87.5813 64.9594 92.0413 65.7194C95.9813 66.3894 98.6212 60.3394 99.7712 57.5794C100.751 55.2094 97.2012 53.4395 95.5912 55.1495C93.1712 57.7195 92.3512 60.7895 93.5012 64.1795C94.1012 65.9695 96.2612 66.6295 97.6812 65.2795C99.8712 63.1995 101.111 60.9694 101.591 57.9694C102.011 55.2994 98.5812 53.4595 97.0212 56.0395C95.5712 58.4495 95.6312 60.4895 96.7212 63.0095C97.3212 64.3995 99.7112 64.6795 100.651 63.5195C102.321 61.4295 103.091 59.5995 102.851 56.8895C102.611 54.1795 98.8212 53.4194 97.9412 56.2294C96.9512 59.3594 97.6512 62.0195 100.951 62.9995C102.421 63.4395 104.241 62.1994 104.111 60.5894C103.771 55.9994 102.421 51.9395 99.7712 48.1595C98.5212 46.3895 95.9112 46.6295 95.2012 48.7595C94.1812 51.8095 94.5512 54.5595 96.3212 57.2395C97.3612 58.8095 100.581 58.9495 100.891 56.6395C101.471 52.3295 102.411 43.8195 97.5312 41.6295C96.7613 41.2795 95.7612 41.0695 95.0112 41.6295C91.0212 44.5795 92.4511 50.2694 94.9211 53.8394C96.1211 55.5694 98.8712 55.4095 99.4912 53.2395C100.561 49.5195 100.341 37.5194 93.5511 39.5594C87.2211 41.4494 88.3812 53.8394 89.8112 58.3394C90.4112 60.2194 93.4112 60.9994 94.3812 58.9394C96.9112 53.5794 98.1211 48.1594 97.9211 42.2294C97.8411 39.8094 94.5212 38.7494 93.2612 40.9694C89.9412 46.8294 88.5312 53.1294 89.2012 59.8394C89.3812 61.6694 91.2012 63.0295 92.9612 61.9995C99.4112 58.2495 99.0413 47.7595 98.7913 41.2995C98.6913 38.6095 94.4412 37.7495 93.8812 40.6395C93.1612 44.3595 93.2112 47.7994 94.1212 51.4694C94.8512 54.3994 98.7413 53.4394 99.0312 50.8094C99.6012 45.6294 99.3412 40.5995 98.3812 35.4895C97.9412 33.1495 93.9112 33.0495 93.5612 35.4895C92.5212 42.7795 90.4712 49.7094 87.2612 56.3494L91.9211 57.6094C92.4911 52.4194 93.0612 47.2295 93.6312 42.0395C93.9312 39.3195 90.2412 38.9995 88.9712 40.7795C86.4312 44.3295 84.8312 48.1694 84.1112 52.4794C83.6712 55.0794 87.2512 57.0895 88.6812 54.4095C90.9412 50.1695 97.1512 36.5495 89.6412 34.4195C88.6012 34.1295 87.3412 34.6094 86.8212 35.5694C84.0512 40.6394 82.1612 45.9295 81.1512 51.6295C80.7012 54.1795 84.5012 56.3494 85.7212 53.5594C88.2312 47.8194 89.8012 42.0195 90.5312 35.7995C90.7812 33.6995 87.5912 32.4295 86.2612 34.0295C81.7612 39.4495 79.3411 45.5195 78.9211 52.5495C78.7811 54.9395 82.5412 56.0694 83.5812 53.8094C86.1112 48.2794 87.4013 42.6494 87.4113 36.5694C87.4113 34.4994 84.6112 33.1495 83.1412 34.7995C78.1512 40.4095 76.4512 47.2295 75.4812 54.5095C75.1412 57.0495 79.0212 57.7995 80.1412 55.7695C82.0312 52.3595 83.4012 48.9395 84.3312 45.1495C85.1012 42.0295 80.2812 40.6894 79.5112 43.8194C78.6812 47.1694 77.4912 50.2295 75.8212 53.2395L80.4812 54.4995C81.2712 48.6495 82.6712 42.8394 86.6812 38.3294L82.4113 36.5594C82.4113 41.7394 81.4212 46.5695 79.2612 51.2795L83.9211 52.5395C84.2511 46.9395 86.2113 41.8694 89.7913 37.5594L85.5212 35.7895C84.9012 41.0795 83.5212 46.1495 81.3912 51.0295L85.9612 52.9594C86.8912 47.6894 88.5612 42.7994 91.1312 38.0894L88.3112 39.2395C89.4412 39.5595 84.9212 50.8595 84.3712 51.8895L88.9412 53.8194C89.6012 49.8794 90.9711 46.5694 93.3011 43.3194L88.6412 42.0594C88.0712 47.2494 87.5012 52.4395 86.9312 57.6295C86.6612 60.0795 90.5412 61.0595 91.5912 58.8895C94.9912 51.8595 97.2912 44.5694 98.3912 36.8394H93.5712C94.4512 41.5494 94.5613 46.0794 94.0413 50.8294L98.9512 50.1695C98.2512 47.3595 98.1512 44.8395 98.7112 41.9995L93.8011 41.3394C93.9611 45.5594 94.8312 55.1694 90.4412 57.7194L94.2012 59.8795C93.6212 54.0195 94.6712 48.6595 97.5812 43.5295L92.9211 42.2695C93.0811 47.3295 92.2212 51.8694 90.0612 56.4494L94.6312 57.0495C93.6512 53.9695 93.2512 50.8794 94.1112 47.6994C94.2512 46.9794 94.4912 46.2995 94.8212 45.6495C95.3612 43.9995 95.4912 43.9895 95.1912 45.6195C95.4412 47.5795 95.2011 50.0994 94.6711 51.9494L99.2412 51.3494C98.8212 50.7394 96.6113 46.6694 97.5413 45.9794H95.0212C97.1612 46.9394 96.3112 53.6394 96.0812 55.3494L100.651 54.7495C99.4412 53.2895 99.2413 51.7495 100.041 50.1295L95.4712 50.7294C97.6212 53.7794 98.8512 56.8995 99.1312 60.6395L102.291 58.2294L102.781 57.6094L97.8712 56.9494L97.1412 60.0495L101.071 60.5594L101.371 58.6395L96.8011 56.7094C96.4511 58.8794 95.8112 60.2594 94.1812 61.8094L98.3612 62.9095C97.6112 61.4095 97.8713 60.0195 99.1613 58.7395L94.9812 56.3094C94.5112 57.4394 93.0512 60.6995 91.7412 60.9195L94.1711 61.5594L95.1812 59.1894L90.8612 56.6695C89.9712 58.6495 84.9113 64.2495 90.7812 59.0195L86.5112 57.2495C86.6512 62.1395 85.6412 58.8195 87.5712 56.2795L83.0012 55.6795C83.3812 57.1895 83.3312 58.6895 82.8412 60.1795C82.8412 58.7395 83.3312 57.5394 84.3112 56.5694L79.7412 55.9694C80.1412 57.8794 79.8012 59.6095 78.7312 61.1595L80.8912 62.3995C79.7612 60.1095 81.3013 57.4994 82.6613 55.7294L78.0012 54.4694C78.1912 56.3094 77.8212 58.0194 76.8712 59.5994L79.3011 60.2395C78.9011 58.6495 79.1412 57.0895 80.0212 55.5495L75.3612 54.2895C75.4512 56.2195 74.8112 57.8895 73.4512 59.2895H75.9712C73.7312 58.3195 75.9212 54.3095 76.7212 53.2695L72.1512 52.6695C72.7512 56.3495 71.7411 59.6295 69.3011 62.4095L73.4812 63.5095C72.1612 58.5095 72.2612 53.9695 73.7512 49.0195H68.9312C70.0612 52.8495 69.9312 56.2994 68.2412 59.9394L72.8112 60.5395C71.7612 56.9495 72.0812 53.8194 73.8712 50.5794L69.2112 49.3194C69.1512 53.7994 67.8412 57.7595 65.0312 61.2895L69.3011 63.0594C69.1211 59.6294 69.7312 56.7895 71.3912 53.7995L66.7312 52.5395C66.3412 55.6495 65.4812 58.5295 64.2712 61.4095L69.1812 62.0694C69.3012 53.2294 69.4113 44.3795 69.5312 35.5395C69.5712 32.3195 64.5813 32.3195 64.5312 35.5395C64.5113 36.7895 64.4912 38.0295 64.4712 39.2795L68.2312 37.1195L67.9113 36.9694L69.0612 39.7895L69.1711 39.2795L67.4211 41.0295L67.8612 40.8494L65.4312 40.2094C65.6212 40.4494 64.5912 46.0094 64.4712 46.8594C64.0812 49.7094 63.6212 52.5495 63.1112 55.3795L68.0212 56.0395C67.4712 50.9895 68.0612 46.1995 70.1212 41.5295L65.4612 40.2695C66.4312 48.2495 64.6612 55.6295 60.1112 62.2595L64.6812 62.8594C63.8612 57.4094 64.7012 52.1594 67.1012 47.2194L62.5312 46.6195C63.2613 51.0295 62.5912 55.0795 60.6812 59.1295C60.1812 59.5795 60.1912 59.9794 60.7112 60.3494C60.6712 59.3394 60.7612 58.3394 60.9912 57.3494C61.4012 54.8794 62.1612 52.0295 64.0912 50.2795L61.6613 50.9195C61.7813 50.9495 59.9312 56.7395 59.6412 57.2795C58.6312 59.1895 57.2712 60.6094 55.6412 61.9794L59.8212 63.0794C58.7212 59.4594 59.3312 56.3995 61.5312 53.3795L56.8712 52.1195C56.7312 56.1695 55.1512 59.2695 52.1112 61.9295L56.2913 63.0295C55.6213 59.9395 56.6712 57.5694 59.0112 55.6094L54.7412 53.8394C54.7912 55.0694 54.1412 60.2294 51.5612 59.3094L53.3112 61.0594C52.6212 59.2994 54.5212 56.5994 55.4912 55.4394L51.2212 53.6695C51.1112 55.5795 50.7812 56.9494 50.1412 58.7094L54.9612 60.0395C58.3912 49.9395 58.4012 39.3794 58.1912 28.8294H53.1912C54.1712 37.2794 53.7712 45.5694 51.8512 53.8594L56.7612 54.5195C56.0412 45.1895 56.6712 36.0395 58.7412 26.9095L53.8312 26.2495C54.2012 34.6495 53.2112 42.7894 50.8312 50.8494L55.7412 51.5095C55.0712 43.6195 56.3812 35.9695 57.8812 28.2495L53.0612 26.9195C51.9012 34.7095 49.9712 42.2795 47.2512 49.6695H52.0712C51.5012 46.9195 51.0512 44.1594 50.8512 41.3494C50.7712 40.1394 50.7212 38.9294 50.7212 37.7194C51.4212 35.8094 51.2011 35.1995 50.0511 35.9095L47.6412 34.0694C48.2312 36.8594 48.6212 39.6595 48.6212 42.5195C48.6212 43.7395 48.5712 44.9794 48.4612 46.1894C48.3512 47.3194 47.1012 51.0395 48.3312 50.9295C49.4712 50.8295 48.8713 45.5495 48.9113 44.1695C49.0113 40.8595 49.3412 37.5994 49.8512 34.3294L44.9412 33.6695C44.4812 40.5695 43.1612 47.1995 41.0012 53.7595L45.9113 54.4195C45.9913 48.1895 47.3212 42.3595 50.0212 36.7495L45.3612 35.4895C44.9712 41.5295 43.6112 47.2994 41.1912 52.8494H45.5112C44.5912 51.2094 44.4412 49.5195 45.0812 47.7895C45.9612 46.6395 45.7512 45.9894 44.4412 45.8294C44.1512 46.0494 43.9413 51.1794 43.9113 51.3494C43.0513 55.2594 41.2311 58.7094 38.8011 61.8594L43.4612 63.1195L41.6112 62.0894L45.2812 64.9095C45.9712 62.1495 47.0912 60.1494 48.6912 57.8394C50.4012 55.3694 48.2612 58.6195 47.9612 58.9195C47.4712 60.1995 47.6412 59.8495 48.4712 57.8895C48.6912 56.6895 49.3212 55.8195 50.3712 55.2695L46.1012 53.4995C46.2012 55.4495 45.9612 57.9194 45.2712 59.5794C45.6912 60.7094 45.8213 60.0095 45.6613 57.4895C46.0313 56.1495 46.6712 54.9694 47.5812 53.9394L43.0112 53.3394C43.5012 55.2594 43.0812 56.9594 41.7712 58.4494C41.4412 57.3494 41.7512 56.5395 42.7012 55.9995L38.5212 54.8995C39.0712 56.6395 38.5012 58.3195 38.9512 60.0395C39.4012 61.7595 39.1312 57.8095 39.1512 57.5095C39.4812 54.2095 40.6512 51.1295 42.2612 48.2495L37.6912 47.6495C38.4912 49.3295 38.7112 51.1295 38.3612 53.0295H43.1812C40.9112 44.3895 37.9512 36.0395 34.3312 27.8695C33.3012 25.5495 29.6111 26.7895 29.6711 29.1295C29.8711 37.1795 37.3112 44.5395 35.5612 52.4895H40.3812C39.3912 49.9195 39.5812 47.6295 41.5212 45.5195L37.2512 43.7495C37.6412 46.8495 37.6112 49.8795 36.7512 52.8995C36.3612 54.2895 35.8712 56.0695 35.0012 57.2395C33.9212 58.6795 32.3812 60.6295 33.3212 56.6495L28.7512 57.2495L29.4012 60.1195H33.7212C32.7112 55.2095 32.1212 55.5095 31.9512 61.0095L36.2712 63.5295C37.4712 61.0495 38.9012 59.0094 40.8612 57.0594L36.6812 54.6295C36.1412 57.0595 34.8812 58.6395 32.6812 59.7395L36.3512 62.5594C36.7112 59.8794 37.4713 57.5995 39.1613 55.4195L34.9812 52.9895C34.1412 55.1695 32.9313 56.6194 31.1613 58.0694L35.4312 59.8394C35.5812 57.5394 36.2412 55.8795 37.5012 54.0095L33.1812 51.4895C32.3012 53.1095 31.4012 54.0695 29.7712 54.9995L33.4412 57.8194C34.0712 55.8594 34.7012 53.9094 35.3212 51.9494C36.1912 49.2294 32.1512 47.5895 30.7512 50.0195L28.5112 51.9895L31.5912 55.0694C31.8212 53.5494 32.0512 52.0295 32.2712 50.4995C32.6912 47.6595 29.4512 46.2394 27.7012 48.5694C26.9212 49.6094 26.1412 50.6494 25.3712 51.6894L29.9412 52.2895C29.5912 50.3295 30.0212 48.6595 31.2412 47.2895C33.0612 44.6295 28.7311 42.1295 26.9211 44.7695L26.9712 44.7395Z" fill="#FF46A0"/>
</g>
</g>
</svg>
