<svg width="132" height="66" viewBox="0 0 132 66" fill="none" xmlns="http://www.w3.org/2000/svg">
<mask id="mask0_828_211" style="mask-type:alpha" maskUnits="userSpaceOnUse" x="0" y="0" width="132" height="66">
<path fill-rule="evenodd" clip-rule="evenodd" d="M130.07 0.185689C87.0036 3.61538 43.7816 4.39077 0.621187 2.48256C2.96018 23.2326 4.0289 44.088 3.82724 64.9689C24.3592 65.1447 44.8847 64.7638 65.4712 63.9494L71.2165 63.7208C91.1535 62.9201 111.109 62.1193 131.048 62.5431C130.4 41.7599 130.077 20.9806 130.07 0.185689Z" fill="#D9D9D9"/>
</mask>
<g mask="url(#mask0_828_211)">
<path d="M34.2012 62.3006C28.1312 61.4606 27.7812 54.6604 27.0712 49.8104C26.3612 44.9604 25.7013 40.4105 25.0113 35.7205L20.4412 37.6505C24.0912 44.0105 28.9813 49.1105 35.1213 53.0905C36.9613 54.2805 39.3913 52.3105 38.7913 50.2705C36.0213 40.7205 27.2313 29.0105 34.4013 19.4605L29.7413 18.2005C31.0313 28.1305 34.5612 37.2305 40.5912 45.2505C42.1212 47.2805 44.9713 46.5405 45.2513 43.9905C46.5113 32.5505 47.5013 21.1906 45.2513 9.80055L40.6812 11.7305C45.4212 20.4405 47.3313 29.9005 46.5013 39.7705C46.2513 42.7305 50.5213 42.9406 51.4113 40.4306C54.6413 31.3106 55.9812 21.8205 55.4212 12.1605L50.7613 13.4205C57.0313 23.9305 59.1913 36.0605 56.7713 48.0805C56.2113 50.8805 59.7212 52.3805 61.3412 50.0105C66.6112 42.2905 69.1313 33.3605 68.7313 24.0205L64.0712 25.2805C68.4812 35.4305 71.6212 46.0105 73.5812 56.8905C74.0612 59.5505 77.6313 58.9605 78.4013 56.8905C82.9113 44.8005 86.7413 32.5405 84.5213 19.5405L79.7012 20.8705C81.4312 25.7105 83.1613 30.5405 84.8913 35.3805C85.7113 37.6705 88.9512 37.8305 89.7112 35.3805L91.3913 29.9705L86.8212 30.5704C88.7812 34.5004 90.0113 38.5305 90.5113 42.9105C90.8013 45.4805 94.7612 46.5704 95.4212 43.5704C97.2912 35.0604 98.7713 26.5005 99.9113 17.8705C100.231 15.4605 96.2013 14.3805 95.2513 16.6105C92.5613 22.9405 95.0513 30.2405 96.1613 36.7105C96.8013 40.4005 97.4212 44.0705 98.9512 47.5105C100.601 51.2105 106.091 56.9905 101.811 60.6705C99.3712 62.7705 102.921 66.3005 105.351 64.2105C110.701 59.6005 107.741 53.1204 104.861 48.0604C102.431 43.7904 101.651 39.2805 100.831 34.5105C100.051 30.0005 97.6912 23.5305 99.5612 19.1305L94.9013 17.8705C93.8213 26.0605 92.3612 34.1805 90.5912 42.2405L95.5013 42.9005C94.9013 37.6205 93.5013 32.7905 91.1213 28.0405C90.1113 26.0205 87.1512 26.7005 86.5512 28.6405L84.8713 34.0506H89.6912C87.9612 29.2106 86.2313 24.3805 84.5013 19.5405C83.4113 16.4805 79.1412 17.7105 79.6812 20.8705C81.7312 32.8505 77.7012 44.4804 73.5612 55.5704H78.3813C76.3413 44.2304 72.9613 33.3305 68.3713 22.7605C67.3713 20.4505 63.6112 21.6605 63.7112 24.0205C64.0812 32.5705 61.8313 40.4105 57.0013 47.4805L61.5712 49.4105C64.2512 36.0805 62.0312 22.5905 55.0612 10.9005C53.8412 8.86053 50.2513 9.61054 50.4013 12.1605C50.9413 21.4305 49.6712 30.3505 46.5712 39.1005L51.4813 39.7605C52.3713 29.0405 50.1112 18.6405 44.9712 9.20045C43.5512 6.59045 39.8813 8.46051 40.4013 11.1305C42.5413 22.0305 41.4212 33.0505 40.2112 43.9905L44.8713 42.7305C39.4113 35.4605 35.8812 27.2405 34.7012 18.2005C34.3712 15.6905 31.6013 14.8704 30.0413 16.9404C21.7613 27.9704 30.7212 40.5705 33.9312 51.6105L37.6012 48.7905C32.1612 45.2705 27.9312 40.7605 24.7112 35.1405C23.2012 32.5005 19.7613 34.4304 20.1413 37.0704C21.1313 43.8705 21.4813 51.2104 23.3813 57.8204C24.7213 62.4804 27.8112 66.4505 32.8212 67.1405C35.9712 67.5705 37.3313 62.7604 34.1513 62.3204L34.2012 62.3006Z" fill="#FF46A0"/>
<path d="M26.9712 44.7395C25.0312 47.5695 24.6311 50.2594 25.1711 53.5994C25.5611 55.9794 28.6112 55.6994 29.7412 54.1994C30.5212 53.1594 31.3012 52.1194 32.0712 51.0794L27.5012 49.1495C27.2712 50.6695 27.0412 52.1894 26.8212 53.7194C26.5712 55.4094 27.9012 57.5095 29.9012 56.7995C32.3312 55.9195 33.8312 54.7795 35.1212 52.5295L30.5511 50.5994C29.9211 52.5594 29.2911 54.5094 28.6711 56.4694C27.9911 58.5894 30.5112 60.3395 32.3412 59.2895C34.6612 57.9595 36.2713 56.3294 37.5413 53.9794C39.0813 51.1294 35.0112 48.7994 33.2212 51.4594C31.4312 54.1194 30.6712 56.6494 30.4712 59.8194C30.3212 62.1894 33.2112 62.8394 34.7412 61.5894C37.2312 59.5394 38.6912 57.2994 39.8412 54.3094C40.7112 52.0494 37.1813 49.9195 35.6613 51.8795C33.4413 54.7495 32.0612 57.5894 31.5712 61.2294C31.2812 63.3794 33.1512 65.0995 35.2412 64.0495C38.6312 62.3495 40.7113 59.6494 41.5413 55.9494C42.0713 53.5594 39.2012 51.6995 37.3612 53.5195C35.1112 55.7495 33.3712 58.1495 31.9812 60.9995C30.5912 63.8495 34.8711 66.4195 36.3011 63.5195C38.0311 59.9995 39.1412 51.7994 33.2012 51.4594C26.6512 51.0794 27.5312 58.8595 29.4412 62.6295C30.2312 64.1795 33.0212 64.3495 33.7612 62.6295C34.9612 59.8395 34.9912 57.2094 33.1112 54.7094C31.9212 53.1194 29.0813 53.0194 28.5413 55.3094C27.8713 58.1294 27.4812 61.2995 29.7812 63.4895C31.5812 65.1995 34.0912 65.4795 36.1212 64.0095C41.7712 59.8995 43.1011 50.0595 42.3011 43.7395C42.0511 41.7795 39.6512 40.1994 38.0312 41.9694C34.9712 45.3094 33.9612 49.5095 35.6112 53.7995C36.4212 55.8995 39.8512 56.4295 40.4312 53.7995C42.4512 44.6095 34.9312 37.9394 34.7212 29.1094L30.0612 30.3695C33.5012 38.1295 36.2512 46.1194 38.4012 54.3294C38.9812 56.5594 42.8512 56.8594 43.2212 54.3294C43.6512 51.4194 43.5711 49.1195 42.5511 46.2995C41.8511 44.3695 39.1012 43.7094 37.9812 45.6994C35.7312 49.7094 30.6712 61.5694 36.1312 65.0994C42.8412 69.4294 44.6212 57.4595 43.3812 53.5395C42.8212 51.7495 40.5812 51.0794 39.2012 52.4394C36.0912 55.5094 33.4012 63.7194 40.4012 64.2194C46.5212 64.6594 48.8112 56.6495 47.8712 51.9895C47.4012 49.6595 44.4611 49.8295 43.3011 51.3895C40.9711 54.5195 37.8612 63.8994 43.7312 65.3294C49.5412 66.7494 51.3412 57.3794 51.1412 53.4694C51.0212 51.1594 48.5512 50.3594 46.8712 51.6994C43.7812 54.1694 40.5512 60.3795 44.3212 63.7795C48.0912 67.1795 52.1712 63.1795 53.0612 59.5195C53.8412 56.3395 53.2012 51.2495 48.8312 51.7795C44.1612 52.3495 41.4312 59.7595 40.4812 63.5495C39.9612 65.6395 42.2412 67.4995 44.1512 66.3695C46.7912 64.8295 47.8712 60.6995 44.7412 58.8695C41.6112 57.0395 38.5512 60.0394 38.4812 63.0894C38.4212 65.8194 41.7512 66.1494 43.1412 64.3494C46.1512 60.4394 48.2211 55.9894 49.0511 51.1094C49.5411 48.2194 50.6012 42.2494 47.4312 40.3394C44.7412 38.7194 42.4912 40.8794 41.3712 43.2294C39.5312 47.1094 39.0612 51.5594 41.2212 55.3294C42.0712 56.8194 44.7713 57.0994 45.5413 55.3294C48.3213 48.9294 49.9412 42.4094 50.3912 35.4394C50.5512 33.0194 46.8012 31.9595 45.7312 34.1795C42.6412 40.5995 41.0312 47.2495 40.9412 54.3695C40.9012 57.2695 44.9912 57.6595 45.8512 55.0295C48.1412 48.0495 49.4812 40.9294 49.9612 33.6094C50.1412 30.8394 45.4811 30.1394 45.0511 32.9494C44.4111 37.0394 40.3412 57.9094 48.2612 57.5794C52.0212 57.4194 52.5913 52.2595 53.0413 49.5395C53.9713 43.8695 53.6812 38.2894 52.4912 32.6894C52.2812 31.7094 51.1112 30.7494 50.0812 30.8494C42.3012 31.6294 46.2912 46.1994 47.2812 50.9394C47.8312 53.5594 51.3212 53.0594 52.1012 50.9394C54.8212 43.5394 56.7513 35.9794 57.9113 28.1894C58.3713 25.0794 53.7112 23.6494 53.0912 26.8594C51.5112 35.0094 50.0712 43.1194 50.7712 51.4494C51.0012 54.1694 54.8412 54.9494 55.6812 52.1094C58.1812 43.6294 59.2412 35.0095 58.8612 26.1795C58.7412 23.4695 54.6012 22.6495 53.9512 25.5195C51.7812 35.0595 51.0413 44.6994 51.7913 54.4594C51.9913 57.1194 56.0312 58.0395 56.7012 55.1195C58.7212 46.3995 59.2612 37.6595 58.2212 28.7595C57.8612 25.6495 53.1512 25.4595 53.2212 28.7595C53.4212 38.8795 53.4711 48.9495 50.1711 58.6395C49.1311 61.7095 53.9012 62.9594 54.9912 59.9694C55.7612 57.8594 56.1212 55.8294 56.2512 53.5994C56.3712 51.5294 53.3712 50.1694 51.9812 51.8294C49.6412 54.6294 45.1312 62.4695 50.8412 64.2695C56.5512 66.0695 59.9412 58.1395 59.7612 53.7695C59.6712 51.4995 57.1412 50.6195 55.4912 51.9995C51.7312 55.1595 50.4512 59.5495 51.4912 64.2895C51.9212 66.2495 54.3411 66.5495 55.6711 65.3895C59.6811 61.8795 61.7112 57.3495 61.9012 52.0395C61.9912 49.3495 58.5912 48.9195 57.2412 50.7795C54.2712 54.8495 53.5612 59.5194 55.0312 64.3294C55.6112 66.2294 57.7812 66.6395 59.2112 65.4295C63.2912 61.9795 69.0511 53.2495 65.5511 47.7495C61.2411 40.9695 56.6212 53.2295 56.0812 56.2495C55.4512 59.7695 56.0012 69.6294 62.1812 65.3394C67.8812 61.3794 68.3712 51.2694 67.3712 45.2094C67.0312 43.1194 63.7011 42.7494 62.8011 44.6094C59.7611 50.8994 58.8412 57.2094 59.8812 64.1094C60.2312 66.4394 63.3712 66.2794 64.4512 64.7094C69.4212 57.4594 71.5512 48.9294 70.4812 40.1894C70.2212 38.0694 66.9512 36.3695 65.8212 38.9295C63.3912 44.4295 62.3813 49.9694 63.0413 55.9694C63.3213 58.5194 67.4112 59.6495 67.9512 56.6295C68.6712 52.5795 69.3013 48.5194 69.7913 44.4394C70.1513 41.4794 70.8912 39.0094 68.9812 36.5894C68.4912 35.9694 67.2811 35.6494 66.5511 35.9494C65.2911 36.4594 64.5512 36.9795 64.2512 38.3895C64.0312 39.3995 64.3712 40.7194 65.4012 41.2094L65.7212 41.3594C67.4112 42.1694 69.4512 41.1994 69.4812 39.1994C69.5012 37.9494 69.5213 36.7094 69.5413 35.4594H64.5413C64.4213 44.2994 64.3112 53.1495 64.1912 61.9895C64.1512 65.0395 68.0812 65.0795 69.1012 62.6495C70.5112 59.3095 71.2912 56.0294 71.7412 52.4494C72.0612 49.9094 68.2112 49.1594 67.0812 51.1894C65.0112 54.8994 64.0811 58.7294 64.3011 62.9694C64.4011 64.8994 67.1112 66.5595 68.5712 64.7395C72.2512 60.1395 74.1412 55.1495 74.2212 49.2395C74.2512 46.7895 70.7612 45.7994 69.5612 47.9794C67.1212 52.3994 66.5712 56.9395 67.9912 61.7995C68.5512 63.6995 71.6212 64.4395 72.5612 62.3995C74.8012 57.5495 75.2712 52.7895 73.7512 47.6295C73.0512 45.2495 69.6412 45.2595 68.9312 47.6295C67.2012 53.3695 67.1313 58.9895 68.6613 64.7795C69.1213 66.5195 71.5812 67.3095 72.8412 65.8795C76.5612 61.6495 77.8812 56.8195 76.9712 51.2795C76.5812 48.8795 73.5412 49.2095 72.4012 50.6795C69.9212 53.8895 68.3512 61.6895 73.4512 63.5395C78.4612 65.3595 80.1512 57.5894 80.3612 54.2194C80.5112 51.8194 76.7312 50.6994 75.7012 52.9594C74.4312 55.7394 72.3012 63.0894 76.8612 64.3494C81.8812 65.7394 83.0012 57.4195 82.9912 54.3895C82.9912 51.6895 79.7512 51.2795 78.3312 53.1295C75.7712 56.4795 74.6312 60.9294 76.5612 64.8494C76.9412 65.6294 77.8812 66.0794 78.7212 66.0894C84.3912 66.1394 85.1611 58.8494 84.5511 54.5694C84.2111 52.1594 81.0912 52.5094 79.9812 53.9694C77.5312 57.1994 76.4113 65.8594 82.5312 66.2294C88.2112 66.5694 88.4811 57.9195 87.8011 54.2795C87.3611 51.9095 84.3912 52.1695 83.2312 53.6795C80.9412 56.6795 79.1212 64.0795 83.9612 65.9295C88.8012 67.7795 91.6012 60.8195 91.4912 57.1795C91.4212 54.9495 88.8412 53.9695 87.2212 55.4095C84.6512 57.6995 83.0212 62.7695 86.3612 65.2395C90.3112 68.1595 93.8913 61.9195 95.1613 59.1195C96.4313 56.3195 92.6612 53.8794 90.8412 56.5994C89.2012 59.0594 87.5813 64.9594 92.0413 65.7194C95.9813 66.3894 98.6212 60.3394 99.7712 57.5794C100.751 55.2094 97.2012 53.4395 95.5912 55.1495C93.1712 57.7195 92.3512 60.7895 93.5012 64.1795C94.1012 65.9695 96.2612 66.6295 97.6812 65.2795C99.8712 63.1995 101.111 60.9694 101.591 57.9694C102.011 55.2994 98.5812 53.4595 97.0212 56.0395C95.5712 58.4495 95.6312 60.4895 96.7212 63.0095C97.3212 64.3995 99.7112 64.6795 100.651 63.5195C102.321 61.4295 103.091 59.5995 102.851 56.8895C102.611 54.1795 98.8212 53.4194 97.9412 56.2294C96.9512 59.3594 97.6512 62.0195 100.951 62.9995C102.421 63.4395 104.241 62.1994 104.111 60.5894C103.771 55.9994 102.421 51.9395 99.7712 48.1595C98.5212 46.3895 95.9112 46.6295 95.2012 48.7595C94.1812 51.8095 94.5512 54.5595 96.3212 57.2395C97.3612 58.8095 100.581 58.9495 100.891 56.6395C101.471 52.3295 102.411 43.8195 97.5312 41.6295C96.7613 41.2795 95.7612 41.0695 95.0112 41.6295C91.0212 44.5795 92.4511 50.2694 94.9211 53.8394C96.1211 55.5694 98.8712 55.4095 99.4912 53.2395C100.561 49.5195 100.341 37.5194 93.5511 39.5594C87.2211 41.4494 88.3812 53.8394 89.8112 58.3394C90.4112 60.2194 93.4112 60.9994 94.3812 58.9394C96.9112 53.5794 98.1211 48.1594 97.9211 42.2294C97.8411 39.8094 94.5212 38.7494 93.2612 40.9694C89.9412 46.8294 88.5312 53.1294 89.2012 59.8394C89.3812 61.6694 91.2012 63.0295 92.9612 61.9995C99.4112 58.2495 99.0413 47.7595 98.7913 41.2995C98.6913 38.6095 94.4412 37.7495 93.8812 40.6395C93.1612 44.3595 93.2112 47.7994 94.1212 51.4694C94.8512 54.3994 98.7413 53.4394 99.0312 50.8094C99.6012 45.6294 99.3412 40.5995 98.3812 35.4895C97.9412 33.1495 93.9112 33.0495 93.5612 35.4895C92.5212 42.7795 90.4712 49.7094 87.2612 56.3494L91.9211 57.6094C92.4911 52.4194 93.0612 47.2295 93.6312 42.0395C93.9312 39.3195 90.2412 38.9995 88.9712 40.7795C86.4312 44.3295 84.8312 48.1694 84.1112 52.4794C83.6712 55.0794 87.2512 57.0895 88.6812 54.4095C90.9412 50.1695 97.1512 36.5495 89.6412 34.4195C88.6012 34.1295 87.3412 34.6094 86.8212 35.5694C84.0512 40.6394 82.1612 45.9295 81.1512 51.6295C80.7012 54.1795 84.5012 56.3494 85.7212 53.5594C88.2312 47.8194 89.8012 42.0195 90.5312 35.7995C90.7812 33.6995 87.5912 32.4295 86.2612 34.0295C81.7612 39.4495 79.3411 45.5195 78.9211 52.5495C78.7811 54.9395 82.5412 56.0694 83.5812 53.8094C86.1112 48.2794 87.4013 42.6494 87.4113 36.5694C87.4113 34.4994 84.6112 33.1495 83.1412 34.7995C78.1512 40.4095 76.4512 47.2295 75.4812 54.5095C75.1412 57.0495 79.0212 57.7995 80.1412 55.7695C82.0312 52.3595 83.4012 48.9395 84.3312 45.1495C85.1012 42.0295 80.2812 40.6894 79.5112 43.8194C78.6812 47.1694 77.4912 50.2295 75.8212 53.2395L80.4812 54.4995C81.2712 48.6495 82.6712 42.8394 86.6812 38.3294L82.4113 36.5594C82.4113 41.7394 81.4212 46.5695 79.2612 51.2795L83.9211 52.5395C84.2511 46.9395 86.2113 41.8694 89.7913 37.5594L85.5212 35.7895C84.9012 41.0795 83.5212 46.1495 81.3912 51.0295L85.9612 52.9594C86.8912 47.6894 88.5612 42.7994 91.1312 38.0894L88.3112 39.2395C89.4412 39.5595 84.9212 50.8595 84.3712 51.8895L88.9412 53.8194C89.6012 49.8794 90.9711 46.5694 93.3011 43.3194L88.6412 42.0594C88.0712 47.2494 87.5012 52.4395 86.9312 57.6295C86.6612 60.0795 90.5412 61.0595 91.5912 58.8895C94.9912 51.8595 97.2912 44.5694 98.3912 36.8394H93.5712C94.4512 41.5494 94.5613 46.0794 94.0413 50.8294L98.9512 50.1695C98.2512 47.3595 98.1512 44.8395 98.7112 41.9995L93.8011 41.3394C93.9611 45.5594 94.8312 55.1694 90.4412 57.7194L94.2012 59.8795C93.6212 54.0195 94.6712 48.6595 97.5812 43.5295L92.9211 42.2695C93.0811 47.3295 92.2212 51.8694 90.0612 56.4494L94.6312 57.0495C93.6512 53.9695 93.2512 50.8794 94.1112 47.6994C94.2512 46.9794 94.4912 46.2995 94.8212 45.6495C95.3612 43.9995 95.4912 43.9895 95.1912 45.6195C95.4412 47.5795 95.2011 50.0994 94.6711 51.9494L99.2412 51.3494C98.8212 50.7394 96.6113 46.6694 97.5413 45.9794H95.0212C97.1612 46.9394 96.3112 53.6394 96.0812 55.3494L100.651 54.7495C99.4412 53.2895 99.2413 51.7495 100.041 50.1295L95.4712 50.7294C97.6212 53.7794 98.8512 56.8995 99.1312 60.6395L102.291 58.2294L102.781 57.6094L97.8712 56.9494L97.1412 60.0495L101.071 60.5594L101.371 58.6395L96.8011 56.7094C96.4511 58.8794 95.8112 60.2594 94.1812 61.8094L98.3612 62.9095C97.6112 61.4095 97.8713 60.0195 99.1613 58.7395L94.9812 56.3094C94.5112 57.4394 93.0512 60.6995 91.7412 60.9195L94.1711 61.5594L95.1812 59.1894L90.8612 56.6695C89.9712 58.6495 84.9113 64.2495 90.7812 59.0195L86.5112 57.2495C86.6512 62.1395 85.6412 58.8195 87.5712 56.2795L83.0012 55.6795C83.3812 57.1895 83.3312 58.6895 82.8412 60.1795C82.8412 58.7395 83.3312 57.5394 84.3112 56.5694L79.7412 55.9694C80.1412 57.8794 79.8012 59.6095 78.7312 61.1595L80.8912 62.3995C79.7612 60.1095 81.3013 57.4994 82.6613 55.7294L78.0012 54.4694C78.1912 56.3094 77.8212 58.0194 76.8712 59.5994L79.3011 60.2395C78.9011 58.6495 79.1412 57.0895 80.0212 55.5495L75.3612 54.2895C75.4512 56.2195 74.8112 57.8895 73.4512 59.2895H75.9712C73.7312 58.3195 75.9212 54.3095 76.7212 53.2695L72.1512 52.6695C72.7512 56.3495 71.7411 59.6295 69.3011 62.4095L73.4812 63.5095C72.1612 58.5095 72.2612 53.9695 73.7512 49.0195H68.9312C70.0612 52.8495 69.9312 56.2994 68.2412 59.9394L72.8112 60.5395C71.7612 56.9495 72.0812 53.8194 73.8712 50.5794L69.2112 49.3194C69.1512 53.7994 67.8412 57.7595 65.0312 61.2895L69.3011 63.0594C69.1211 59.6294 69.7312 56.7895 71.3912 53.7995L66.7312 52.5395C66.3412 55.6495 65.4812 58.5295 64.2712 61.4095L69.1812 62.0694C69.3012 53.2294 69.4113 44.3795 69.5312 35.5395C69.5712 32.3195 64.5813 32.3195 64.5312 35.5395C64.5113 36.7895 64.4912 38.0295 64.4712 39.2795L68.2312 37.1195L67.9113 36.9694L69.0612 39.7895L69.1711 39.2795L67.4211 41.0295L67.8612 40.8494L65.4312 40.2094C65.6212 40.4494 64.5912 46.0094 64.4712 46.8594C64.0812 49.7094 63.6212 52.5495 63.1112 55.3795L68.0212 56.0395C67.4712 50.9895 68.0612 46.1995 70.1212 41.5295L65.4612 40.2695C66.4312 48.2495 64.6612 55.6295 60.1112 62.2595L64.6812 62.8594C63.8612 57.4094 64.7012 52.1594 67.1012 47.2194L62.5312 46.6195C63.2613 51.0295 62.5912 55.0795 60.6812 59.1295C60.1812 59.5795 60.1912 59.9794 60.7112 60.3494C60.6712 59.3394 60.7612 58.3394 60.9912 57.3494C61.4012 54.8794 62.1612 52.0295 64.0912 50.2795L61.6613 50.9195C61.7813 50.9495 59.9312 56.7395 59.6412 57.2795C58.6312 59.1895 57.2712 60.6094 55.6412 61.9794L59.8212 63.0794C58.7212 59.4594 59.3312 56.3995 61.5312 53.3795L56.8712 52.1195C56.7312 56.1695 55.1512 59.2695 52.1112 61.9295L56.2913 63.0295C55.6213 59.9395 56.6712 57.5694 59.0112 55.6094L54.7412 53.8394C54.7912 55.0694 54.1412 60.2294 51.5612 59.3094L53.3112 61.0594C52.6212 59.2994 54.5212 56.5994 55.4912 55.4394L51.2212 53.6695C51.1112 55.5795 50.7812 56.9494 50.1412 58.7094L54.9612 60.0395C58.3912 49.9395 58.4012 39.3794 58.1912 28.8294H53.1912C54.1712 37.2794 53.7712 45.5694 51.8512 53.8594L56.7612 54.5195C56.0412 45.1895 56.6712 36.0395 58.7412 26.9095L53.8312 26.2495C54.2012 34.6495 53.2112 42.7894 50.8312 50.8494L55.7412 51.5095C55.0712 43.6195 56.3812 35.9695 57.8812 28.2495L53.0612 26.9195C51.9012 34.7095 49.9712 42.2795 47.2512 49.6695H52.0712C51.5012 46.9195 51.0512 44.1594 50.8512 41.3494C50.7712 40.1394 50.7212 38.9294 50.7212 37.7194C51.4212 35.8094 51.2011 35.1995 50.0511 35.9095L47.6412 34.0694C48.2312 36.8594 48.6212 39.6595 48.6212 42.5195C48.6212 43.7395 48.5712 44.9794 48.4612 46.1894C48.3512 47.3194 47.1012 51.0395 48.3312 50.9295C49.4712 50.8295 48.8713 45.5495 48.9113 44.1695C49.0113 40.8595 49.3412 37.5994 49.8512 34.3294L44.9412 33.6695C44.4812 40.5695 43.1612 47.1995 41.0012 53.7595L45.9113 54.4195C45.9913 48.1895 47.3212 42.3595 50.0212 36.7495L45.3612 35.4895C44.9712 41.5295 43.6112 47.2994 41.1912 52.8494H45.5112C44.5912 51.2094 44.4412 49.5195 45.0812 47.7895C45.9612 46.6395 45.7512 45.9894 44.4412 45.8294C44.1512 46.0494 43.9413 51.1794 43.9113 51.3494C43.0513 55.2594 41.2311 58.7094 38.8011 61.8594L43.4612 63.1195L41.6112 62.0894L45.2812 64.9095C45.9712 62.1495 47.0912 60.1494 48.6912 57.8394C50.4012 55.3694 48.2612 58.6195 47.9612 58.9195C47.4712 60.1995 47.6412 59.8495 48.4712 57.8895C48.6912 56.6895 49.3212 55.8195 50.3712 55.2695L46.1012 53.4995C46.2012 55.4495 45.9612 57.9194 45.2712 59.5794C45.6912 60.7094 45.8213 60.0095 45.6613 57.4895C46.0313 56.1495 46.6712 54.9694 47.5812 53.9394L43.0112 53.3394C43.5012 55.2594 43.0812 56.9594 41.7712 58.4494C41.4412 57.3494 41.7512 56.5395 42.7012 55.9995L38.5212 54.8995C39.0712 56.6395 38.5012 58.3195 38.9512 60.0395C39.4012 61.7595 39.1312 57.8095 39.1512 57.5095C39.4812 54.2095 40.6512 51.1295 42.2612 48.2495L37.6912 47.6495C38.4912 49.3295 38.7112 51.1295 38.3612 53.0295H43.1812C40.9112 44.3895 37.9512 36.0395 34.3312 27.8695C33.3012 25.5495 29.6111 26.7895 29.6711 29.1295C29.8711 37.1795 37.3112 44.5395 35.5612 52.4895H40.3812C39.3912 49.9195 39.5812 47.6295 41.5212 45.5195L37.2512 43.7495C37.6412 46.8495 37.6112 49.8795 36.7512 52.8995C36.3612 54.2895 35.8712 56.0695 35.0012 57.2395C33.9212 58.6795 32.3812 60.6295 33.3212 56.6495L28.7512 57.2495L29.4012 60.1195H33.7212C32.7112 55.2095 32.1212 55.5095 31.9512 61.0095L36.2712 63.5295C37.4712 61.0495 38.9012 59.0094 40.8612 57.0594L36.6812 54.6295C36.1412 57.0595 34.8812 58.6395 32.6812 59.7395L36.3512 62.5594C36.7112 59.8794 37.4713 57.5995 39.1613 55.4195L34.9812 52.9895C34.1412 55.1695 32.9313 56.6194 31.1613 58.0694L35.4312 59.8394C35.5812 57.5394 36.2412 55.8795 37.5012 54.0095L33.1812 51.4895C32.3012 53.1095 31.4012 54.0695 29.7712 54.9995L33.4412 57.8194C34.0712 55.8594 34.7012 53.9094 35.3212 51.9494C36.1912 49.2294 32.1512 47.5895 30.7512 50.0195L28.5112 51.9895L31.5912 55.0694C31.8212 53.5494 32.0512 52.0295 32.2712 50.4995C32.6912 47.6595 29.4512 46.2394 27.7012 48.5694C26.9212 49.6094 26.1412 50.6494 25.3712 51.6894L29.9412 52.2895C29.5912 50.3295 30.0212 48.6595 31.2412 47.2895C33.0612 44.6295 28.7311 42.1295 26.9211 44.7695L26.9712 44.7395Z" fill="#FF46A0"/>
</g>
</svg>
