<svg width="85" height="53" viewBox="0 0 85 53" fill="none" xmlns="http://www.w3.org/2000/svg">
<g clip-path="url(#clip0_653_4709)">
<path d="M12.3016 44.2256C12.9576 41.1639 13.2441 38.1236 13.1476 34.9951L8.30403 40.1468C15.2666 40.7726 22.1716 41.8004 29.0264 43.1499L28.7294 33.5144C23.709 35.1999 18.805 36.1214 13.5038 36.1647C9.68319 36.2024 6.64281 36.8864 4.60887 40.3607C2.70778 43.6008 5.43332 47.9589 9.15847 47.7441C11.7154 47.6052 14.3059 48.5559 16.8561 48.8475C19.4063 49.1391 22.04 49.218 24.6497 49.1675C30.4488 49.0489 36.2498 48.67 42.0496 48.5713C47.8493 48.4726 66.2165 50.6978 62.0207 39.2116C61.2445 37.0745 59.381 35.6913 57.09 35.6918C45.5743 35.6866 33.8682 36.3175 22.7019 33.0399L24.1729 42.1389C30.0317 39.087 39.1356 40.047 45.5387 40.0497C53.4127 40.0572 61.2633 40.6056 69.0769 41.5754C75.3838 42.3515 77.6923 33.8263 71.4387 31.858C66.1248 30.1909 60.8947 28.3211 55.7372 26.209L54.8293 35.3813C56.9158 34.5867 58.4187 33.3598 58.808 31.0567C59.7336 25.7057 52.2722 22.2039 49.5537 27.4901C45.9484 34.5145 55.3791 41.8575 59.3697 46.6868L62.645 38.0418C61.4721 37.9679 60.5766 38.1256 59.4791 38.5496C55.3961 40.1361 54.4143 47.5599 59.7761 48.185C62.3766 48.4851 65.0301 48.8835 67.6482 48.7828C70.2664 48.6821 73.5713 47.1696 76.1517 47.7904C79.2864 48.5442 82.4606 46.0352 82.3302 42.7777C82.2192 40.1499 83.7225 37.9625 83.046 35.162C82.4963 32.9079 81.2229 30.546 79.7969 28.7491C76.352 24.4231 71.3927 23.2253 66.479 25.7779C61.9593 28.1283 64.5678 35.1813 69.2849 35.0159C71.4139 34.9502 73.0824 35.199 75.1227 35.8264C80.9709 37.6271 82.974 29.5816 78.6893 26.5722C77.1964 25.5277 76.3111 24.3944 74.4041 23.8729C71.9625 23.2078 69.1423 23.2447 66.6333 22.9918C61.0434 22.4338 55.3172 21.6698 49.6869 22.0734C44.8354 22.423 40.6598 24.2525 36.0243 25.4459C33.2551 26.1615 30.4375 25.9582 27.6277 26.335C26.3823 26.5034 20.1342 28.6069 19.1855 27.3655L19.341 32.4131C20.4388 29.728 27.3965 30.1939 29.6807 30.2936C33.8182 30.4762 37.8462 31.3226 41.8141 32.4909L41.5171 22.8555C38.4786 23.5994 32.9032 21.5602 29.8123 21.2553C25.8485 20.8672 21.9132 20.7584 17.9248 20.8713L21.7262 29.2982C22.6033 28.5408 26.0205 29.0458 27.0921 29.0828C29.7255 29.1517 32.3547 29.4108 34.9755 29.7202C39.8763 30.3196 44.76 31.3396 49.6853 31.7581C58.2314 32.4752 63.2265 25.0978 65.1232 17.4957L56.0242 18.9667C57.6156 21.9091 59.0404 25.2868 62.3338 26.646C65.1104 27.791 68.4049 27.2393 70.4243 24.916C73.9119 20.8866 74.1777 11.3339 70.9089 7.20264C66.7345 1.92873 60.0351 3.67593 55.1568 6.72765C52.5264 8.37946 48.9714 10.2198 47.703 13.2103C46.341 16.4138 47.9685 18.9049 48.5553 22.0383C49.3104 26.0869 54.4962 26.1972 56.9794 23.9897C60.835 20.5393 67.6739 15.2061 66.1101 9.26144C64.5462 3.31679 57.3368 2.79863 52.2856 2.51409C46.964 2.21788 40.9644 3.62336 39.2119 9.4101C38.4677 11.8842 38.9716 14.6 40.5544 16.6122C42.5326 19.1224 45.0267 18.5653 47.1393 20.241L45.5709 16.7477C45.6548 17.8456 35.5345 14.7459 35.1619 14.6673C32.4725 14.0799 28.1205 15.0544 25.7249 13.9377L27.7248 20.7193C28.6212 19.291 29.0482 17.8872 29.1364 16.2037C29.1852 15.1917 29.6893 11.7445 28.2857 13.5987C27.1265 14.6149 27.4746 14.8743 29.3202 14.3772C30.4497 14.3424 31.5891 14.3072 32.7183 14.2624C34.7573 14.1996 36.8217 13.9859 38.859 14.1932L35.2758 12.843L35.9645 13.442L36.7322 5.56466C35.3406 6.50797 33.9593 7.46097 32.5677 8.40429C28.4913 11.1812 30.323 17.6978 35.3736 17.6422C37.244 17.6246 38.9373 19.6534 40.8853 19.8835C43.0241 20.1378 45.4273 19.5534 46.4618 17.4106L46.6312 17.0652C47.6841 14.8717 47.1903 12.8059 45.6649 11.0321L45.447 10.7787C43.9947 9.10262 41.1242 9.13106 39.3658 10.1857C38.5157 10.8422 37.5816 11.0511 36.5438 10.813C30.1049 10.6212 30.4429 20.6155 36.8519 20.8082C39.746 20.8991 42.1939 20.1433 44.6796 18.6661L38.5984 18.0731L38.8164 18.3265L37.85 12.2934L37.6806 12.6388L43.2571 10.1658C41.9618 10.0157 40.7445 8.82261 39.51 8.37042C37.9922 7.81691 36.6857 7.62707 35.0756 7.64668L37.8815 16.8846C39.2731 15.9413 40.6544 14.9883 42.046 14.045C44.6133 12.2951 45.3325 8.36106 42.8137 6.16761C40.6031 4.23479 38.6594 4.14462 35.8086 4.16244C32.5274 4.17352 28.6288 3.95352 25.4294 4.67241C22.856 5.25196 20.9049 6.54268 19.7897 8.98819C18.8899 10.9568 19.9169 14.4168 18.9343 15.9679C17.5609 18.1512 18.5998 21.6709 20.9341 22.7495C23.512 23.9406 25.8717 24.2181 28.6925 24.2012C31.8132 24.175 34.1452 24.8535 37.1237 25.7322C42.4645 27.2984 48.5447 27.8614 52.7826 23.5087C55.8765 20.3419 57.0114 14.9644 52.8725 12.1406C52.0241 11.5564 51.0531 11.2162 50.0919 10.8656C49.5569 10.712 49.0313 10.5382 48.5154 10.354C47.2278 9.80336 47.6101 10.5219 49.672 12.4993C51.7721 13.4451 56.0592 11.6622 57.7738 13.7304L56.2054 10.237C56.3672 11.5927 50.9895 15.9704 49.6753 17.1515L58.0994 19.1029C58.0688 18.4335 57.8994 17.8084 57.6011 17.2173C57.3579 16.1443 56.9546 16.3668 56.4105 17.8643C57.6328 16.9462 59.1649 16.0186 60.4609 15.2183L61.9025 14.2734C63.1457 13.3847 63.5077 13.4436 62.9787 14.4604C63.431 15.1768 62.74 18.3996 62.3503 18.7418L65.8437 17.1734C66.7717 17.0948 64.5695 13.8111 64.4955 13.6833C62.3848 9.79645 56.3943 11.1716 55.3965 15.1543C54.0514 20.5282 51.8684 22.0862 46.5222 21.3206C42.5429 20.7529 38.5719 20.1349 34.5766 19.6978C27.7505 18.9577 20.0071 17.6656 14.4424 22.4693C11.0312 25.4058 14.2154 31.0104 18.2438 30.8962C23.1115 30.7462 27.949 30.9172 32.7742 31.659C36.8354 32.2842 40.4125 33.4345 44.4838 32.4386C49.5481 31.202 48.6291 24.107 44.1868 22.8032C35.9684 20.3852 25.6711 18.6816 17.449 21.9865C14.2372 23.276 10.3917 25.7556 10.0384 29.5483C9.66091 33.5318 13.9233 36.1418 17.2632 37.0593C22.0562 38.3823 26.8491 36.4538 31.64 36.086C36.431 35.7182 40.4702 34.3332 45.141 32.9886C50.3472 31.4876 55.8465 32.0284 61.1731 32.4845C63.9416 32.7194 66.7145 33.0941 69.4915 33.2787C71.9177 33.444 71.6993 33.8209 73.9387 35.3927L77.5054 26.1384C74.6771 25.2651 71.9461 24.9491 68.9978 25.05L71.8037 34.2879C71.8727 34.2558 73.2126 37.476 73.2104 38.0564C73.211 39.6971 72.2804 41.3166 72.3559 43.1151L78.5344 38.1024C73.1523 36.8176 67.7214 39.146 62.1588 38.497L62.4557 48.1325L62.9739 48.0665C67.8355 48.3668 68.6708 42.3583 66.2492 39.4215C64.1497 36.8749 59.1044 32.5583 58.294 29.3117L57.9128 33.1753L58.3655 32.2809C55.2775 31.0955 52.1992 29.8998 49.1112 28.7143L49.0176 29.2475L52.3984 25.6516L51.8942 25.8472C48.3045 27.2084 46.6798 33.2514 50.9863 35.0195C56.9446 37.4672 62.9654 39.6727 69.1078 41.6044L71.4696 31.8871C62.1296 30.7342 52.7526 30.0028 43.341 30.0927C35.2895 30.1708 26.1869 29.901 18.8904 33.6976C14.8333 35.8036 16.545 41.6737 20.3614 42.7966C32.3656 46.3185 45.0431 45.7177 57.4192 45.7265L52.4885 42.2067C54.8483 39.2426 54.6708 38.0275 51.9465 38.5817C51.0157 38.5703 50.0953 38.5687 49.1648 38.5673C47.3138 38.5644 45.4631 38.5714 43.6128 38.5884C39.6022 38.6319 35.5935 38.7355 31.577 38.9093C27.9899 39.0599 24.3775 39.3613 20.7812 39.212C16.7538 39.036 12.8867 37.5644 8.86165 37.7885L13.4113 45.1718C12.3466 46.9855 15.2543 46.2156 16.4931 46.1574C18.2713 46.0726 20.0252 45.8484 21.7876 45.574C25.1828 45.0392 28.4484 44.1982 31.7063 43.1073C36.192 41.5984 36.4218 34.4479 31.4094 33.4719C23.6691 31.9596 15.8728 30.8992 8.01721 30.1909C5.31863 29.9539 3.09814 32.8937 3.17361 35.3425C3.24353 37.6115 3.07741 39.6876 2.60574 41.9132C1.259 48.2076 10.9764 50.5694 12.3231 44.2749L12.3016 44.2256Z" fill="white"/>
<path d="M46.6399 46.8897C44.5696 44.9626 43.7545 42.5366 43.6282 39.7391C43.5512 37.8906 43.6891 30.3528 48.3294 33.8615C50.112 35.2172 50.4466 38.6085 50.6285 40.6139C50.7634 42.0704 51.5796 46.4774 50.4928 47.5714C49.4059 48.6654 51.1809 50.4215 52.3164 49.286C53.452 48.1505 53.3235 46.9039 53.3279 45.423C53.3424 42.9714 53.2542 40.4329 52.8095 38.0155C52.1862 34.6731 50.3046 30.429 46.2837 30.4629C42.8529 30.4886 41.5924 33.739 41.262 36.6505C40.7494 41.1185 41.5364 45.5563 44.925 48.7034C46.0993 49.7978 47.8142 47.9841 46.6396 46.8797L46.6399 46.8897Z" fill="#3A3A3A"/>
<path d="M31.1259 21.0247C36.5082 19.7183 41.5455 15.9813 45.5963 12.3748C47.612 10.5819 47.2228 7.0422 45.3785 5.30819C43.2663 3.32231 40.3373 3.72273 38.3119 5.52597C35.5075 8.02355 31.8841 10.5664 28.1799 11.4609C25.5581 12.092 24.1146 15.2479 24.881 17.7155C25.715 20.4311 28.5041 21.6558 31.1356 21.0144L31.1259 21.0247Z" fill="white"/>
<path d="M61.2278 47.5699C58.5013 46.1032 55.6363 44.3607 54.7771 41.1556C54.3022 39.3794 54.4683 37.3033 54.7024 35.4852C55.0331 32.9038 55.093 32.2517 57.3872 30.7303C58.6951 29.0192 60.0742 28.9667 61.5343 30.5724C62.2974 31.3093 62.8346 32.1831 63.1456 33.184C63.8233 34.7239 64.1346 36.3851 64.3163 38.0603C64.6819 41.4807 64.177 44.5777 61.5707 47.0091C60.3939 48.1059 62.2176 49.8205 63.3944 48.7238C68.967 43.5296 68.0511 24.849 57.4498 26.9165C52.7954 27.8203 52.1575 33.7428 52.0369 37.6183C51.8528 43.6569 54.9486 47.0431 60.0352 49.7777C61.4595 50.5442 62.6524 48.3464 61.2281 47.5799L61.2278 47.5699Z" fill="#3A3A3A"/>
<path d="M75.2955 46.6275C69.5791 43.262 65.2183 33.2416 69.938 27.3134C75.6308 20.1747 80.6744 29.9539 81.2136 34.7896C81.6287 38.5186 81.852 42.8438 80.4399 46.3689C79.8452 47.848 82.0433 49.0508 82.6377 47.5618C84.8487 42.0411 84.7568 33.5399 82.0595 28.1504C80.0553 24.1503 75.4758 20.9898 70.9381 23.0806C66.1635 25.2787 65.3405 31.6871 65.9614 36.2502C66.6987 41.67 69.3233 46.0012 74.0923 48.8156C75.4782 49.6333 76.671 47.4356 75.2852 46.6179L75.2955 46.6275Z" fill="#3A3A3A"/>
<path d="M67.469 27.0594C60.148 29.0859 58.7819 23.7154 59.0754 17.9836C59.2982 13.5246 60.1276 3.75446 66.6883 4.97294C76.8509 6.85077 71.5464 22.0414 67.2165 26.657C66.1121 27.8315 67.9358 29.5462 69.0402 28.3716C73.5347 23.5809 76.0664 16.7797 74.4338 10.2268C73.1323 5.00445 67.6625 -0.0994784 62.0527 2.91476C56.4429 5.929 56.2678 16.4794 56.5459 21.9334C56.895 28.7159 61.9534 31.1812 68.2029 29.4479C69.7505 29.02 69.0166 26.6315 67.469 27.0594Z" fill="#3A3A3A"/>
<path d="M24.3208 5.05829C37.8261 5.02225 51.336 5.13614 64.8383 4.67999C66.4476 4.63039 66.3706 2.13158 64.7613 2.18117C51.259 2.63732 37.7491 2.52343 24.2434 2.54948C22.6327 2.5491 22.7097 5.04791 24.3205 5.04829L24.3208 5.05829Z" fill="#3A3A3A"/>
<path d="M22.0487 21.5862C27.8771 23.0673 33.9616 23.1199 39.9075 23.8671C42.6094 24.2141 45.3033 24.6213 47.9889 25.0888C49.5884 25.3696 57.1107 25.9782 57.9407 27.2632C58.7706 28.5483 60.9329 27.2911 60.0608 25.9373C59.2308 24.6523 58.0386 24.599 56.5973 24.2532C52.7774 23.3404 48.8849 22.67 45.0045 22.0693C37.6161 20.9363 29.8942 20.9942 22.6542 19.1564C21.091 18.7543 20.5059 21.1935 22.0687 21.5856L22.0487 21.5862Z" fill="#3A3A3A"/>
<path d="M12.5324 21.8488C10.6532 23.5275 9.14528 25.5649 8.08481 27.8387C7.39921 29.2905 9.59731 30.4933 10.2826 29.0315C11.268 26.9202 12.6228 25.1076 14.3558 23.5535C15.5532 22.4761 13.7298 20.7714 12.5321 21.8388L12.5324 21.8488Z" fill="#3A3A3A"/>
<path d="M4.54062 47.2371C4.25211 43.3942 3.37089 38.499 4.214 34.6912C5.0571 30.8835 6.71446 30.7724 10.4304 30.9079C12.6943 30.9983 14.9484 31.0989 17.2029 31.2095C26.5613 31.6614 35.9046 32.2739 45.2416 33.0066C46.8464 33.1372 46.7491 30.629 45.1646 30.5078C32.9491 29.5436 20.6639 28.5916 8.41 28.329C5.59671 28.2656 2.68745 27.6849 1.91428 30.8403C0.687107 35.8204 1.65574 42.2536 2.04119 47.2942C2.16045 48.8912 4.65957 48.8242 4.54001 47.2171L4.54062 47.2371Z" fill="#3A3A3A"/>
<path d="M13.8053 23.871C16.0212 22.0819 18.6319 21.091 21.5053 21.4827C23.0829 21.7042 23.6884 19.2744 22.0908 19.0535C18.5643 18.5719 15.2414 19.5047 12.4793 21.7508C11.2495 22.7492 12.5558 24.88 13.8053 23.871Z" fill="#3A3A3A"/>
<path d="M19.847 19.2927C20.1505 14.5311 18.7459 6.6106 24.8386 4.98215C26.3964 4.56396 25.6525 2.17574 24.1047 2.59362C16.5631 4.60689 17.7338 13.375 17.3482 19.3697C17.2476 20.9736 19.7461 20.8866 19.847 19.2927Z" fill="#3A3A3A"/>
<path d="M3.21833 49.1286C19.0361 50.1118 34.8633 50.4244 50.7104 50.0861C52.3202 50.0565 52.2432 47.5577 50.6334 47.5873C34.7962 47.9253 18.9588 47.603 3.14132 46.6298C1.53746 46.5291 1.62446 49.0277 3.21833 49.1286Z" fill="#3A3A3A"/>
<path d="M51.9128 50.1485L60.2542 50.3916C61.9365 50.4398 63.5438 50.6504 64.178 48.83C64.7115 47.3129 62.2726 46.7377 61.7488 48.2446C61.9693 47.6075 60.6479 47.9083 60.1772 47.8928L57.2531 47.8029L51.8355 47.6397C50.2232 47.5893 50.3102 50.0878 51.9125 50.1385L51.9128 50.1485Z" fill="#3A3A3A"/>
<path d="M80.5545 46.5152C74.7585 47.3842 68.9647 47.6728 63.1039 47.4132C61.501 47.3426 61.578 49.8414 63.1809 49.912C69.032 50.1819 74.8355 49.883 80.6315 49.0141C82.2049 48.7755 82.1479 46.2761 80.5545 46.5152Z" fill="#3A3A3A"/>
</g>
<defs>
<clipPath id="clip0_653_4709">
<rect width="82.84" height="49.01" fill="white" transform="translate(0.264771 3.28711) rotate(-1.76525)"/>
</clipPath>
</defs>
</svg>
