<svg width="13" height="66" viewBox="0 0 13 66" fill="none" xmlns="http://www.w3.org/2000/svg">
<g clip-path="url(#clip0_832_20420)">
<mask id="mask0_832_20420" style="mask-type:alpha" maskUnits="userSpaceOnUse" x="-75" y="0" width="132" height="66">
<path fill-rule="evenodd" clip-rule="evenodd" d="M55.07 0.185547C12.0037 3.61523 -31.2184 4.39062 -74.3788 2.48242C-72.0398 23.2324 -70.9711 44.0879 -71.1727 64.9688C-50.6407 65.1445 -30.1152 64.7637 -9.5288 63.9492L-3.7834 63.7207C16.1536 62.9199 36.109 62.1191 56.048 62.543C55.4 41.7598 55.077 20.9805 55.07 0.185547Z" fill="#D9D9D9"/>
</mask>
<g mask="url(#mask0_832_20420)">
<path d="M-68.911 64.3533C-74.981 63.5133 -75.331 56.7132 -76.041 51.8632C-76.751 47.0132 -77.4109 42.4632 -78.1009 37.7732L-82.671 39.7033C-79.021 46.0633 -74.1309 51.1632 -67.9909 55.1432C-66.1509 56.3332 -63.7209 54.3633 -64.3209 52.3233C-67.0909 42.7733 -75.8809 31.0632 -68.7109 21.5132L-73.3709 20.2532C-72.0809 30.1832 -68.5509 39.2832 -62.5209 47.3032C-60.9909 49.3332 -58.1409 48.5932 -57.8609 46.0432C-56.6009 34.6032 -55.6109 23.2433 -57.8609 11.8533L-62.431 13.7832C-57.691 22.4932 -55.7809 31.9533 -56.6109 41.8233C-56.8609 44.7833 -52.5909 44.9933 -51.7009 42.4833C-48.4709 33.3633 -47.131 23.8733 -47.691 14.2133L-52.3509 15.4733C-46.0809 25.9833 -43.9209 38.1132 -46.3409 50.1332C-46.9009 52.9332 -43.3909 54.4332 -41.7709 52.0632C-36.5009 44.3432 -33.9809 35.4133 -34.3809 26.0733L-39.041 27.3333C-34.631 37.4833 -31.491 48.0633 -29.531 58.9433C-29.051 61.6033 -25.4809 61.0133 -24.7109 58.9433C-20.2009 46.8533 -16.3709 34.5933 -18.5909 21.5933L-23.411 22.9232C-21.681 27.7632 -19.9509 32.5932 -18.2209 37.4332C-17.4009 39.7232 -14.161 39.8832 -13.401 37.4332L-11.7209 32.0232L-16.291 32.6232C-14.331 36.5532 -13.1009 40.5833 -12.6009 44.9633C-12.3109 47.5333 -8.351 48.6232 -7.691 45.6232C-5.821 37.1132 -4.3409 28.5532 -3.2009 19.9232C-2.8809 17.5132 -6.9109 16.4332 -7.8609 18.6632C-10.5509 24.9932 -8.0609 32.2932 -6.9509 38.7632C-6.3109 42.4532 -5.691 46.1232 -4.161 49.5632C-2.511 53.2632 2.979 59.0433 -1.301 62.7233C-3.741 64.8233 -0.190902 68.3532 2.2391 66.2632C7.5891 61.6532 4.6291 55.1732 1.7491 50.1132C-0.6809 45.8432 -1.461 41.3332 -2.281 36.5632C-3.061 32.0532 -5.421 25.5832 -3.551 21.1832L-8.2109 19.9232C-9.2909 28.1132 -10.751 36.2332 -12.521 44.2932L-7.6109 44.9533C-8.2109 39.6733 -9.6109 34.8433 -11.9909 30.0933C-13.0009 28.0733 -15.961 28.7533 -16.561 30.6933L-18.2409 36.1033H-13.421C-15.151 31.2633 -16.8809 26.4333 -18.6109 21.5933C-19.7009 18.5333 -23.971 19.7632 -23.431 22.9232C-21.381 34.9032 -25.411 46.5332 -29.551 57.6232H-24.7309C-26.7709 46.2832 -30.1509 35.3832 -34.7409 24.8132C-35.7409 22.5032 -39.501 23.7133 -39.401 26.0733C-39.031 34.6233 -41.2809 42.4632 -46.1109 49.5332L-41.541 51.4633C-38.861 38.1333 -41.081 24.6433 -48.051 12.9533C-49.271 10.9133 -52.8609 11.6633 -52.7109 14.2133C-52.1709 23.4833 -53.441 32.4032 -56.541 41.1532L-51.6309 41.8132C-50.7409 31.0932 -53.0009 20.6932 -58.1409 11.2532C-59.5609 8.6432 -63.2309 10.5132 -62.7109 13.1832C-60.5709 24.0832 -61.691 35.1032 -62.901 46.0432L-58.2409 44.7832C-63.7009 37.5132 -67.231 29.2932 -68.411 20.2532C-68.741 17.7432 -71.5109 16.9232 -73.0709 18.9932C-81.3509 30.0232 -72.391 42.6232 -69.181 53.6632L-65.5109 50.8433C-70.9509 47.3233 -75.181 42.8133 -78.4009 37.1933C-79.9109 34.5533 -83.3509 36.4832 -82.9709 39.1232C-81.9809 45.9232 -81.6309 53.2632 -79.7309 59.8732C-78.3909 64.5332 -75.301 68.5033 -70.291 69.1933C-67.141 69.6233 -65.7809 64.8132 -68.9609 64.3732L-68.911 64.3533Z" fill="#FF46A0"/>
<path d="M-76.141 46.7922C-78.081 49.6222 -78.481 52.3122 -77.941 55.6522C-77.551 58.0322 -74.501 57.7521 -73.371 56.2521C-72.591 55.2121 -71.811 54.1722 -71.041 53.1322L-75.611 51.2022C-75.841 52.7222 -76.071 54.2422 -76.291 55.7722C-76.541 57.4622 -75.2109 59.5622 -73.2109 58.8522C-70.7809 57.9722 -69.281 56.8322 -67.991 54.5822L-72.561 52.6522C-73.191 54.6122 -73.821 56.5622 -74.441 58.5222C-75.121 60.6422 -72.601 62.3922 -70.771 61.3422C-68.451 60.0122 -66.8409 58.3822 -65.5709 56.0322C-64.0309 53.1822 -68.101 50.8522 -69.891 53.5122C-71.681 56.1722 -72.441 58.7021 -72.641 61.8721C-72.791 64.2421 -69.901 64.8922 -68.371 63.6422C-65.881 61.5922 -64.421 59.3521 -63.271 56.3621C-62.401 54.1021 -65.9309 51.9722 -67.4509 53.9322C-69.6709 56.8022 -71.051 59.6422 -71.541 63.2822C-71.831 65.4322 -69.961 67.1522 -67.871 66.1022C-64.481 64.4022 -62.4009 61.7021 -61.5709 58.0021C-61.0409 55.6121 -63.911 53.7522 -65.751 55.5722C-68.001 57.8022 -69.741 60.2022 -71.131 63.0522C-72.521 65.9022 -68.241 68.4722 -66.811 65.5722C-65.081 62.0522 -63.971 53.8522 -69.911 53.5122C-76.461 53.1322 -75.581 60.9122 -73.671 64.6822C-72.881 66.2322 -70.091 66.4022 -69.351 64.6822C-68.151 61.8922 -68.121 59.2622 -70.001 56.7622C-71.191 55.1722 -74.0309 55.0721 -74.5709 57.3621C-75.2409 60.1821 -75.6309 63.3522 -73.3309 65.5422C-71.5309 67.2522 -69.021 67.5322 -66.991 66.0622C-61.341 61.9522 -60.011 52.1122 -60.811 45.7922C-61.061 43.8322 -63.4609 42.2522 -65.0809 44.0222C-68.1409 47.3622 -69.151 51.5622 -67.501 55.8522C-66.691 57.9522 -63.261 58.4822 -62.681 55.8522C-60.661 46.6622 -68.181 39.9922 -68.391 31.1622L-73.051 32.4222C-69.611 40.1822 -66.8609 48.1722 -64.7109 56.3822C-64.1309 58.6122 -60.261 58.9122 -59.891 56.3822C-59.461 53.4722 -59.541 51.1722 -60.561 48.3522C-61.261 46.4222 -64.011 45.7621 -65.131 47.7521C-67.381 51.7621 -72.441 63.6222 -66.981 67.1522C-60.271 71.4822 -58.491 59.5122 -59.731 55.5922C-60.291 53.8022 -62.531 53.1321 -63.911 54.4921C-67.021 57.5621 -69.7109 65.7722 -62.7109 66.2722C-56.5909 66.7122 -54.301 58.7022 -55.241 54.0422C-55.711 51.7122 -58.651 51.8822 -59.811 53.4422C-62.141 56.5722 -65.251 65.9522 -59.381 67.3822C-53.571 68.8022 -51.7709 59.4322 -51.9709 55.5222C-52.0909 53.2122 -54.561 52.4121 -56.241 53.7521C-59.331 56.2221 -62.561 62.4322 -58.791 65.8322C-55.021 69.2322 -50.941 65.2322 -50.051 61.5722C-49.271 58.3922 -49.911 53.3022 -54.281 53.8322C-58.951 54.4022 -61.681 61.8122 -62.631 65.6022C-63.151 67.6922 -60.8709 69.5522 -58.9609 68.4222C-56.3209 66.8822 -55.241 62.7522 -58.371 60.9222C-61.501 59.0922 -64.561 62.0922 -64.631 65.1422C-64.691 67.8722 -61.3609 68.2022 -59.9709 66.4022C-56.9609 62.4922 -54.891 58.0422 -54.061 53.1622C-53.571 50.2722 -52.511 44.3022 -55.681 42.3922C-58.371 40.7722 -60.621 42.9322 -61.741 45.2822C-63.581 49.1622 -64.051 53.6122 -61.891 57.3822C-61.041 58.8722 -58.3409 59.1522 -57.5709 57.3822C-54.7909 50.9822 -53.1709 44.4621 -52.7209 37.4921C-52.5609 35.0721 -56.311 34.0123 -57.381 36.2323C-60.471 42.6523 -62.081 49.3022 -62.171 56.4222C-62.211 59.3222 -58.121 59.7122 -57.261 57.0822C-54.971 50.1022 -53.631 42.9822 -53.151 35.6622C-52.971 32.8922 -57.631 32.1921 -58.061 35.0021C-58.701 39.0921 -62.771 59.9622 -54.851 59.6322C-51.091 59.4722 -50.5209 54.3122 -50.0709 51.5922C-49.1409 45.9222 -49.431 40.3421 -50.621 34.7421C-50.831 33.7621 -52.001 32.8022 -53.031 32.9022C-60.811 33.6822 -56.8209 48.2521 -55.8309 52.9921C-55.2809 55.6121 -51.791 55.1121 -51.011 52.9921C-48.291 45.5921 -46.3609 38.0321 -45.2009 30.2421C-44.7409 27.1321 -49.401 25.7022 -50.021 28.9122C-51.601 37.0622 -53.0409 45.1721 -52.3409 53.5021C-52.1109 56.2221 -48.271 57.0022 -47.431 54.1622C-44.931 45.6822 -43.871 37.0623 -44.251 28.2323C-44.371 25.5223 -48.511 24.7022 -49.161 27.5722C-51.331 37.1122 -52.0709 46.7522 -51.3209 56.5122C-51.1209 59.1722 -47.081 60.0922 -46.411 57.1722C-44.391 48.4522 -43.851 39.7122 -44.891 30.8122C-45.251 27.7022 -49.961 27.5122 -49.891 30.8122C-49.691 40.9322 -49.641 51.0022 -52.941 60.6922C-53.981 63.7622 -49.211 65.0122 -48.121 62.0222C-47.351 59.9122 -46.991 57.8822 -46.861 55.6522C-46.741 53.5822 -49.741 52.2222 -51.131 53.8822C-53.471 56.6822 -57.981 64.5222 -52.271 66.3222C-46.561 68.1222 -43.171 60.1922 -43.351 55.8222C-43.441 53.5522 -45.971 52.6722 -47.621 54.0522C-51.381 57.2122 -52.661 61.6022 -51.621 66.3422C-51.191 68.3022 -48.771 68.6022 -47.441 67.4422C-43.431 63.9322 -41.4009 59.4022 -41.2109 54.0922C-41.1209 51.4022 -44.521 50.9722 -45.871 52.8322C-48.841 56.9022 -49.5509 61.5722 -48.0809 66.3822C-47.5009 68.2822 -45.331 68.6923 -43.901 67.4823C-39.821 64.0323 -34.061 55.3022 -37.561 49.8022C-41.871 43.0222 -46.491 55.2822 -47.031 58.3022C-47.661 61.8222 -47.111 71.6822 -40.931 67.3922C-35.231 63.4322 -34.741 53.3222 -35.741 47.2622C-36.081 45.1722 -39.411 44.8022 -40.311 46.6622C-43.351 52.9522 -44.271 59.2622 -43.231 66.1622C-42.881 68.4922 -39.741 68.3322 -38.661 66.7622C-33.691 59.5122 -31.561 50.9821 -32.631 42.2421C-32.891 40.1221 -36.161 38.4223 -37.291 40.9823C-39.721 46.4823 -40.7309 52.0222 -40.0709 58.0222C-39.7909 60.5722 -35.701 61.7022 -35.161 58.6822C-34.441 54.6322 -33.8109 50.5721 -33.3209 46.4921C-32.9609 43.5321 -32.221 41.0622 -34.131 38.6422C-34.621 38.0222 -35.831 37.7021 -36.561 38.0021C-37.821 38.5121 -38.561 39.0322 -38.861 40.4422C-39.081 41.4522 -38.7409 42.7722 -37.7109 43.2622L-37.391 43.4122C-35.701 44.2222 -33.661 43.2521 -33.631 41.2521C-33.611 40.0021 -33.5909 38.7622 -33.5709 37.5122H-38.5709C-38.6909 46.3522 -38.801 55.2022 -38.921 64.0422C-38.961 67.0922 -35.031 67.1322 -34.011 64.7022C-32.601 61.3622 -31.821 58.0821 -31.371 54.5021C-31.051 51.9621 -34.901 51.2121 -36.031 53.2421C-38.101 56.9521 -39.031 60.7822 -38.811 65.0222C-38.711 66.9522 -36.001 68.6122 -34.541 66.7922C-30.861 62.1922 -28.971 57.2022 -28.891 51.2922C-28.861 48.8422 -32.351 47.8522 -33.551 50.0322C-35.991 54.4522 -36.541 58.9922 -35.121 63.8522C-34.561 65.7522 -31.491 66.4922 -30.551 64.4522C-28.311 59.6022 -27.841 54.8422 -29.361 49.6822C-30.061 47.3022 -33.471 47.3122 -34.181 49.6822C-35.911 55.4222 -35.9809 61.0422 -34.4509 66.8322C-33.9909 68.5722 -31.531 69.3622 -30.271 67.9322C-26.551 63.7022 -25.231 58.8722 -26.141 53.3322C-26.531 50.9322 -29.5709 51.2623 -30.7109 52.7323C-33.1909 55.9423 -34.761 63.7422 -29.661 65.5922C-24.651 67.4122 -22.961 59.6422 -22.751 56.2722C-22.601 53.8722 -26.381 52.7522 -27.411 55.0122C-28.681 57.7922 -30.811 65.1422 -26.251 66.4022C-21.231 67.7922 -20.111 59.4722 -20.121 56.4422C-20.121 53.7422 -23.361 53.3322 -24.781 55.1822C-27.341 58.5322 -28.481 62.9822 -26.551 66.9022C-26.171 67.6822 -25.231 68.1322 -24.391 68.1422C-18.721 68.1922 -17.951 60.9021 -18.561 56.6221C-18.901 54.2121 -22.021 54.5622 -23.131 56.0222C-25.581 59.2522 -26.7009 67.9122 -20.5809 68.2822C-14.9009 68.6222 -14.631 59.9722 -15.311 56.3322C-15.751 53.9622 -18.721 54.2223 -19.881 55.7323C-22.171 58.7323 -23.991 66.1323 -19.151 67.9823C-14.311 69.8323 -11.511 62.8723 -11.621 59.2323C-11.691 57.0023 -14.271 56.0222 -15.891 57.4622C-18.461 59.7522 -20.091 64.8222 -16.751 67.2922C-12.801 70.2122 -9.2209 63.9722 -7.9509 61.1722C-6.6809 58.3722 -10.451 55.9322 -12.271 58.6522C-13.911 61.1122 -15.5309 67.0122 -11.0709 67.7722C-7.1309 68.4422 -4.4909 62.3922 -3.3409 59.6322C-2.3609 57.2622 -5.911 55.4922 -7.521 57.2022C-9.941 59.7722 -10.761 62.8423 -9.611 66.2323C-9.011 68.0223 -6.851 68.6822 -5.431 67.3322C-3.241 65.2522 -2.001 63.0222 -1.521 60.0222C-1.101 57.3522 -4.5309 55.5122 -6.0909 58.0922C-7.5409 60.5022 -7.481 62.5422 -6.391 65.0622C-5.791 66.4522 -3.4009 66.7322 -2.4609 65.5722C-0.790899 63.4822 -0.0210016 61.6522 -0.261002 58.9422C-0.501002 56.2322 -4.291 55.4722 -5.171 58.2822C-6.161 61.4122 -5.461 64.0722 -2.161 65.0522C-0.691003 65.4922 1.129 64.2522 0.999001 62.6422C0.659001 58.0522 -0.690897 53.9922 -3.3409 50.2122C-4.5909 48.4422 -7.201 48.6822 -7.911 50.8122C-8.931 53.8622 -8.561 56.6122 -6.791 59.2922C-5.751 60.8622 -2.5309 61.0022 -2.2209 58.6922C-1.6409 54.3822 -0.700902 45.8722 -5.5809 43.6822C-6.3509 43.3322 -7.351 43.1222 -8.101 43.6822C-12.091 46.6322 -10.661 52.3222 -8.191 55.8922C-6.991 57.6222 -4.241 57.4622 -3.621 55.2922C-2.551 51.5722 -2.771 39.5721 -9.561 41.6121C-15.891 43.5021 -14.731 55.8922 -13.301 60.3922C-12.701 62.2722 -9.701 63.0521 -8.731 60.9921C-6.201 55.6321 -4.991 50.2122 -5.191 44.2822C-5.271 41.8622 -8.591 40.8022 -9.851 43.0222C-13.171 48.8822 -14.581 55.1822 -13.911 61.8922C-13.731 63.7222 -11.911 65.0822 -10.151 64.0522C-3.701 60.3022 -4.0709 49.8122 -4.3209 43.3522C-4.4209 40.6622 -8.671 39.8022 -9.231 42.6922C-9.951 46.4122 -9.901 49.8522 -8.991 53.5222C-8.261 56.4522 -4.3709 55.4921 -4.0809 52.8621C-3.5109 47.6821 -3.771 42.6522 -4.731 37.5422C-5.171 35.2022 -9.201 35.1022 -9.551 37.5422C-10.591 44.8322 -12.641 51.7622 -15.851 58.4022L-11.191 59.6622C-10.621 54.4722 -10.051 49.2822 -9.481 44.0922C-9.181 41.3722 -12.871 41.0522 -14.141 42.8322C-16.681 46.3822 -18.281 50.2222 -19.001 54.5322C-19.441 57.1322 -15.861 59.1422 -14.431 56.4622C-12.171 52.2222 -5.9609 38.6022 -13.4709 36.4722C-14.5109 36.1822 -15.771 36.6621 -16.291 37.6221C-19.061 42.6921 -20.9509 47.9822 -21.9609 53.6822C-22.4109 56.2322 -18.611 58.4021 -17.391 55.6121C-14.881 49.8721 -13.3109 44.0722 -12.5809 37.8522C-12.3309 35.7522 -15.521 34.4822 -16.851 36.0822C-21.351 41.5022 -23.771 47.5722 -24.191 54.6022C-24.331 56.9922 -20.571 58.1221 -19.531 55.8621C-17.001 50.3321 -15.7109 44.7021 -15.7009 38.6221C-15.7009 36.5521 -18.5009 35.2022 -19.9709 36.8522C-24.9609 42.4622 -26.661 49.2822 -27.631 56.5622C-27.971 59.1022 -24.0909 59.8522 -22.9709 57.8222C-21.0809 54.4122 -19.711 50.9922 -18.781 47.2022C-18.011 44.0822 -22.831 42.7421 -23.601 45.8721C-24.431 49.2221 -25.621 52.2822 -27.291 55.2922L-22.631 56.5522C-21.841 50.7022 -20.441 44.8922 -16.431 40.3822L-20.7009 38.6121C-20.7009 43.7921 -21.691 48.6222 -23.851 53.3322L-19.191 54.5922C-18.861 48.9922 -16.9009 43.9221 -13.3209 39.6121L-17.5909 37.8422C-18.2109 43.1322 -19.5909 48.2022 -21.7209 53.0822L-17.151 55.0122C-16.221 49.7422 -14.551 44.8522 -11.981 40.1422L-14.801 41.2922C-13.671 41.6122 -18.191 52.9122 -18.741 53.9422L-14.171 55.8721C-13.511 51.9321 -12.141 48.6221 -9.811 45.3721L-14.4709 44.1121C-15.0409 49.3021 -15.611 54.4922 -16.181 59.6822C-16.451 62.1322 -12.571 63.1122 -11.521 60.9422C-8.121 53.9122 -5.8209 46.6222 -4.7209 38.8922H-9.541C-8.661 43.6022 -8.5509 48.1322 -9.0709 52.8822L-4.161 52.2222C-4.861 49.4122 -4.961 46.8922 -4.401 44.0522L-9.311 43.3922C-9.151 47.6122 -8.28101 57.2222 -12.671 59.7722L-8.911 61.9322C-9.491 56.0722 -8.441 50.7122 -5.531 45.5822L-10.191 44.3222C-10.031 49.3822 -10.891 53.9221 -13.051 58.5021L-8.481 59.1022C-9.461 56.0222 -9.861 52.9321 -9.001 49.7521C-8.861 49.0321 -8.621 48.3522 -8.291 47.7022C-7.751 46.0522 -7.621 46.0422 -7.921 47.6722C-7.671 49.6322 -7.911 52.1521 -8.441 54.0021L-3.871 53.4022C-4.291 52.7922 -6.5009 48.7222 -5.5709 48.0322H-8.0909C-5.9509 48.9922 -6.801 55.6922 -7.031 57.4022L-2.4609 56.8022C-3.6709 55.3422 -3.8709 53.8022 -3.0709 52.1822L-7.641 52.7822C-5.491 55.8322 -4.261 58.9522 -3.981 62.6922L-0.8209 60.2822L-0.330902 59.6622L-5.241 59.0021L-5.9709 62.1022L-2.041 62.6121L-1.741 60.6922L-6.311 58.7622C-6.661 60.9322 -7.301 62.3121 -8.931 63.8621L-4.751 64.9622C-5.501 63.4622 -5.2409 62.0722 -3.9509 60.7922L-8.131 58.3621C-8.601 59.4921 -10.061 62.7522 -11.371 62.9722L-8.941 63.6121L-7.931 61.2421L-12.251 58.7222C-13.141 60.7022 -18.2009 66.3022 -12.3309 61.0722L-16.601 59.3022C-16.461 64.1922 -17.471 60.8722 -15.541 58.3322L-20.111 57.7323C-19.731 59.2423 -19.781 60.7423 -20.271 62.2323C-20.271 60.7923 -19.781 59.5921 -18.801 58.6221L-23.371 58.0222C-22.971 59.9322 -23.311 61.6622 -24.381 63.2122L-22.2209 64.4522C-23.3509 62.1622 -21.8109 59.5522 -20.4509 57.7822L-25.111 56.5222C-24.921 58.3622 -25.291 60.0722 -26.241 61.6522L-23.811 62.2922C-24.211 60.7022 -23.9709 59.1422 -23.0909 57.6022L-27.751 56.3422C-27.661 58.2722 -28.301 59.9422 -29.661 61.3422H-27.141C-29.381 60.3722 -27.191 56.3622 -26.391 55.3222L-30.9609 54.7222C-30.3609 58.4022 -31.371 61.6822 -33.811 64.4622L-29.631 65.5622C-30.951 60.5622 -30.851 56.0222 -29.361 51.0722H-34.181C-33.051 54.9022 -33.181 58.3521 -34.871 61.9921L-30.301 62.5922C-31.351 59.0022 -31.031 55.8722 -29.241 52.6322L-33.901 51.3721C-33.961 55.8521 -35.2709 59.8122 -38.0809 63.3422L-33.811 65.1121C-33.991 61.6821 -33.3809 58.8422 -31.7209 55.8522L-36.381 54.5922C-36.771 57.7022 -37.6309 60.5822 -38.8409 63.4622L-33.931 64.1221C-33.811 55.2821 -33.7009 46.4322 -33.5809 37.5922C-33.5409 34.3722 -38.5309 34.3722 -38.5809 37.5922C-38.6009 38.8422 -38.621 40.0822 -38.641 41.3322L-34.881 39.1722L-35.2009 39.0222L-34.051 41.8422L-33.941 41.3322L-35.691 43.0822L-35.251 42.9022L-37.681 42.2622C-37.491 42.5022 -38.521 48.0622 -38.641 48.9122C-39.031 51.7622 -39.491 54.6022 -40.001 57.4322L-35.0909 58.0922C-35.6409 53.0422 -35.051 48.2522 -32.991 43.5822L-37.651 42.3222C-36.681 50.3022 -38.451 57.6822 -43.001 64.3122L-38.431 64.9122C-39.251 59.4622 -38.411 54.2122 -36.011 49.2722L-40.5809 48.6722C-39.8509 53.0822 -40.521 57.1322 -42.431 61.1822C-42.931 61.6322 -42.921 62.0322 -42.401 62.4022C-42.441 61.3922 -42.351 60.3922 -42.121 59.4022C-41.711 56.9322 -40.951 54.0822 -39.021 52.3322L-41.4509 52.9722C-41.3309 53.0022 -43.1809 58.7922 -43.4709 59.3322C-44.4809 61.2422 -45.8409 62.6622 -47.4709 64.0322L-43.291 65.1322C-44.391 61.5122 -43.7809 58.4522 -41.5809 55.4322L-46.241 54.1722C-46.381 58.2222 -47.961 61.3223 -51.001 63.9823L-46.8209 65.0822C-47.4909 61.9922 -46.441 59.6222 -44.101 57.6622L-48.371 55.8922C-48.321 57.1222 -48.971 62.2821 -51.551 61.3621L-49.801 63.1121C-50.491 61.3521 -48.591 58.6521 -47.621 57.4921L-51.891 55.7222C-52.001 57.6322 -52.3309 59.0022 -52.9709 60.7622L-48.151 62.0922C-44.721 51.9922 -44.711 41.4322 -44.921 30.8822H-49.921C-48.941 39.3322 -49.341 47.6222 -51.261 55.9122L-46.351 56.5722C-47.071 47.2422 -46.441 38.0922 -44.371 28.9622L-49.281 28.3022C-48.911 36.7022 -49.901 44.8422 -52.281 52.9022L-47.371 53.5622C-48.041 45.6722 -46.731 38.0222 -45.231 30.3022L-50.051 28.9722C-51.211 36.7622 -53.141 44.3322 -55.861 51.7222H-51.041C-51.611 48.9722 -52.061 46.2122 -52.261 43.4022C-52.341 42.1922 -52.391 40.9822 -52.391 39.7722C-51.691 37.8622 -51.911 37.2522 -53.061 37.9622L-55.4709 36.1221C-54.8809 38.9121 -54.491 41.7122 -54.491 44.5722C-54.491 45.7922 -54.541 47.0321 -54.651 48.2421C-54.761 49.3721 -56.011 53.0923 -54.781 52.9823C-53.641 52.8823 -54.2409 47.6022 -54.2009 46.2222C-54.1009 42.9122 -53.771 39.6522 -53.261 36.3822L-58.171 35.7222C-58.631 42.6222 -59.951 49.2522 -62.111 55.8122L-57.2009 56.4722C-57.1209 50.2422 -55.7909 44.4122 -53.0909 38.8022L-57.751 37.5422C-58.141 43.5822 -59.501 49.3522 -61.921 54.9022H-57.601C-58.521 53.2622 -58.671 51.5722 -58.031 49.8422C-57.151 48.6922 -57.361 48.0422 -58.671 47.8822C-58.961 48.1022 -59.1709 53.2322 -59.2009 53.4022C-60.0609 57.3122 -61.881 60.7622 -64.311 63.9122L-59.651 65.1722L-61.501 64.1422L-57.8309 66.9622C-57.1409 64.2022 -56.021 62.2022 -54.421 59.8922C-52.711 57.4222 -54.851 60.6722 -55.151 60.9722C-55.641 62.2522 -55.471 61.9022 -54.641 59.9422C-54.421 58.7422 -53.791 57.8722 -52.741 57.3222L-57.011 55.5522C-56.911 57.5022 -57.1509 59.9722 -57.8409 61.6322C-57.4209 62.7622 -57.2909 62.0622 -57.4509 59.5422C-57.0809 58.2022 -56.441 57.0221 -55.531 55.9921L-60.101 55.3922C-59.611 57.3122 -60.0309 59.0121 -61.3409 60.5021C-61.6709 59.4021 -61.361 58.5922 -60.411 58.0522L-64.5909 56.9522C-64.0409 58.6922 -64.611 60.3722 -64.161 62.0922C-63.711 63.8122 -63.9809 59.8622 -63.9609 59.5622C-63.6309 56.2622 -62.461 53.1822 -60.851 50.3022L-65.421 49.7022C-64.621 51.3822 -64.401 53.1822 -64.751 55.0822H-59.931C-62.201 46.4422 -65.161 38.0922 -68.781 29.9222C-69.811 27.6022 -73.501 28.8422 -73.441 31.1822C-73.241 39.2322 -65.801 46.5922 -67.551 54.5422H-62.731C-63.721 51.9722 -63.5309 49.6822 -61.5909 47.5722L-65.861 45.8022C-65.471 48.9022 -65.501 51.9322 -66.361 54.9522C-66.751 56.3422 -67.241 58.1222 -68.111 59.2922C-69.191 60.7322 -70.731 62.6822 -69.791 58.7022L-74.361 59.3022L-73.7109 62.1722H-69.391C-70.401 57.2622 -70.991 57.5622 -71.161 63.0622L-66.8409 65.5822C-65.6409 63.1022 -64.211 61.0621 -62.251 59.1121L-66.431 56.6822C-66.971 59.1122 -68.231 60.6922 -70.431 61.7922L-66.761 64.6121C-66.401 61.9321 -65.6409 59.6522 -63.9509 57.4722L-68.131 55.0422C-68.971 57.2222 -70.1809 58.6721 -71.9509 60.1221L-67.681 61.8922C-67.531 59.5922 -66.871 57.9322 -65.611 56.0622L-69.931 53.5422C-70.811 55.1622 -71.7109 56.1222 -73.3409 57.0522L-69.671 59.8721C-69.041 57.9121 -68.411 55.9621 -67.791 54.0021C-66.921 51.2821 -70.961 49.6422 -72.361 52.0722L-74.601 54.0422L-71.521 57.1221C-71.291 55.6021 -71.0609 54.0822 -70.8409 52.5522C-70.4209 49.7122 -73.661 48.2921 -75.411 50.6221C-76.191 51.6621 -76.971 52.7021 -77.741 53.7421L-73.171 54.3422C-73.521 52.3822 -73.091 50.7122 -71.871 49.3422C-70.051 46.6822 -74.381 44.1822 -76.191 46.8222L-76.141 46.7922Z" fill="#FF46A0"/>
<path d="M14.089 62.3533C8.019 61.5133 7.669 54.7132 6.959 49.8632C6.249 45.0132 5.5891 40.4632 4.8991 35.7732L0.329006 37.7033C3.97901 44.0633 8.86911 49.1632 15.0091 53.1432C16.8491 54.3332 19.2791 52.3633 18.6791 50.3233C15.9091 40.7733 7.1191 29.0632 14.2891 19.5132L9.6291 18.2532C10.9191 28.1832 14.4491 37.2832 20.4791 45.3032C22.0091 47.3332 24.8591 46.5932 25.139 44.0432C26.399 32.6032 27.389 21.2433 25.139 9.85329L20.569 11.7832C25.309 20.4932 27.219 29.9533 26.389 39.8233C26.139 42.7833 30.409 42.9933 31.299 40.4833C34.529 31.3633 35.869 21.8733 35.309 12.2133L30.649 13.4733C36.919 23.9833 39.079 36.1132 36.659 48.1332C36.099 50.9332 39.609 52.4332 41.229 50.0632C46.499 42.3432 49.019 33.4133 48.619 24.0733L43.959 25.3333C48.369 35.4833 51.509 46.0633 53.469 56.9433C53.949 59.6033 57.519 59.0133 58.289 56.9433C62.799 44.8533 66.629 32.5933 64.409 19.5933L59.589 20.9232C61.319 25.7632 63.049 30.5932 64.779 35.4332C65.599 37.7232 68.839 37.8832 69.599 35.4332L71.279 30.0232L66.709 30.6232C68.669 34.5532 69.899 38.5833 70.399 42.9633C70.689 45.5333 74.649 46.6232 75.309 43.6232C77.179 35.1132 78.659 26.5532 79.799 17.9232C80.119 15.5132 76.089 14.4332 75.139 16.6632C72.449 22.9932 74.939 30.2932 76.049 36.7632C76.689 40.4532 77.309 44.1232 78.839 47.5632C80.489 51.2632 85.979 57.0433 81.699 60.7233C79.259 62.8233 82.809 66.3532 85.239 64.2632C90.589 59.6532 87.629 53.1732 84.749 48.1132C82.319 43.8432 81.539 39.3332 80.719 34.5632C79.939 30.0532 77.579 23.5832 79.449 19.1832L74.789 17.9232C73.709 26.1132 72.249 34.2332 70.479 42.2932L75.389 42.9533C74.789 37.6733 73.389 32.8433 71.009 28.0933C69.999 26.0733 67.039 26.7533 66.439 28.6933L64.759 34.1033H69.579C67.849 29.2633 66.119 24.4333 64.389 19.5933C63.299 16.5333 59.029 17.7632 59.569 20.9232C61.619 32.9032 57.589 44.5332 53.449 55.6232H58.269C56.229 44.2832 52.849 33.3832 48.259 22.8132C47.259 20.5032 43.499 21.7133 43.599 24.0733C43.969 32.6233 41.719 40.4632 36.889 47.5332L41.459 49.4633C44.139 36.1333 41.919 22.6433 34.949 10.9533C33.729 8.91326 30.139 9.66327 30.289 12.2133C30.829 21.4833 29.559 30.4032 26.459 39.1532L31.369 39.8132C32.259 29.0932 29.999 18.6932 24.8591 9.25319C23.4391 6.64319 19.7691 8.51324 20.2891 11.1832C22.4291 22.0832 21.309 33.1032 20.099 44.0432L24.7591 42.7832C19.2991 35.5132 15.769 27.2932 14.589 18.2532C14.259 15.7432 11.4891 14.9232 9.9291 16.9932C1.6491 28.0232 10.609 40.6232 13.819 51.6632L17.4891 48.8433C12.0491 45.3233 7.819 40.8133 4.599 35.1933C3.089 32.5533 -0.350898 34.4832 0.0291021 37.1232C1.0191 43.9232 1.3691 51.2632 3.2691 57.8732C4.6091 62.5332 7.699 66.5033 12.709 67.1933C15.859 67.6233 17.2191 62.8132 14.0391 62.3732L14.089 62.3533Z" fill="#FF46A0"/>
<path d="M6.85897 44.7922C4.91897 47.6222 4.51897 50.3122 5.05897 53.6522C5.44897 56.0322 8.49897 55.7521 9.62897 54.2521C10.409 53.2121 11.189 52.1722 11.959 51.1322L7.38897 49.2022C7.15897 50.7222 6.92897 52.2422 6.70897 53.7722C6.45897 55.4622 7.78907 57.5622 9.78907 56.8522C12.2191 55.9722 13.719 54.8322 15.009 52.5822L10.439 50.6522C9.80897 52.6122 9.17897 54.5622 8.55897 56.5222C7.87897 58.6422 10.399 60.3922 12.229 59.3422C14.549 58.0122 16.1591 56.3822 17.4291 54.0322C18.9691 51.1822 14.899 48.8522 13.109 51.5122C11.319 54.1722 10.559 56.7021 10.359 59.8721C10.209 62.2421 13.099 62.8922 14.629 61.6422C17.119 59.5922 18.579 57.3521 19.729 54.3621C20.599 52.1021 17.0691 49.9722 15.5491 51.9322C13.3291 54.8022 11.949 57.6422 11.459 61.2822C11.169 63.4322 13.039 65.1522 15.129 64.1022C18.519 62.4022 20.5991 59.7021 21.4291 56.0021C21.9591 53.6121 19.089 51.7522 17.249 53.5722C14.999 55.8022 13.259 58.2022 11.869 61.0522C10.479 63.9022 14.759 66.4722 16.189 63.5722C17.919 60.0522 19.029 51.8522 13.089 51.5122C6.53897 51.1322 7.41897 58.9122 9.32897 62.6822C10.119 64.2322 12.909 64.4022 13.649 62.6822C14.849 59.8922 14.879 57.2622 12.999 54.7622C11.809 53.1722 8.96907 53.0721 8.42907 55.3621C7.75907 58.1821 7.36907 61.3522 9.66907 63.5422C11.4691 65.2522 13.979 65.5322 16.009 64.0622C21.659 59.9522 22.989 50.1122 22.189 43.7922C21.939 41.8322 19.5391 40.2522 17.9191 42.0222C14.8591 45.3622 13.849 49.5622 15.499 53.8522C16.309 55.9522 19.739 56.4822 20.319 53.8522C22.339 44.6622 14.819 37.9922 14.609 29.1622L9.94897 30.4222C13.389 38.1822 16.1391 46.1722 18.2891 54.3822C18.8691 56.6122 22.739 56.9122 23.109 54.3822C23.539 51.4722 23.459 49.1722 22.439 46.3522C21.739 44.4222 18.989 43.7621 17.869 45.7521C15.619 49.7621 10.559 61.6222 16.019 65.1522C22.729 69.4822 24.509 57.5122 23.269 53.5922C22.709 51.8022 20.469 51.1321 19.089 52.4921C15.979 55.5621 13.2891 63.7722 20.2891 64.2722C26.409 64.7122 28.699 56.7022 27.759 52.0422C27.289 49.7122 24.349 49.8822 23.189 51.4422C20.859 54.5722 17.749 63.9522 23.619 65.3822C29.429 66.8022 31.229 57.4322 31.029 53.5222C30.909 51.2122 28.439 50.4121 26.759 51.7521C23.669 54.2221 20.439 60.4322 24.209 63.8322C27.979 67.2322 32.059 63.2322 32.949 59.5722C33.729 56.3922 33.089 51.3022 28.719 51.8322C24.049 52.4022 21.319 59.8122 20.369 63.6022C19.849 65.6922 22.1291 67.5522 24.0391 66.4222C26.679 64.8822 27.759 60.7522 24.629 58.9222C21.499 57.0922 18.439 60.0922 18.369 63.1422C18.309 65.8722 21.6391 66.2022 23.0291 64.4022C26.039 60.4922 28.109 56.0422 28.939 51.1622C29.429 48.2722 30.489 42.3022 27.319 40.3922C24.629 38.7722 22.379 40.9322 21.259 43.2822C19.419 47.1622 18.949 51.6122 21.109 55.3822C21.959 56.8722 24.6591 57.1522 25.429 55.3822C28.209 48.9822 29.829 42.4621 30.279 35.4921C30.439 33.0721 26.689 32.0123 25.619 34.2323C22.529 40.6523 20.919 47.3022 20.829 54.4222C20.789 57.3222 24.879 57.7122 25.739 55.0822C28.029 48.1022 29.369 40.9822 29.849 33.6622C30.029 30.8922 25.369 30.1921 24.939 33.0021C24.299 37.0921 20.229 57.9622 28.149 57.6322C31.909 57.4722 32.479 52.3122 32.929 49.5922C33.859 43.9222 33.569 38.3421 32.379 32.7421C32.169 31.7621 30.999 30.8022 29.969 30.9022C22.189 31.6822 26.179 46.2521 27.169 50.9921C27.719 53.6121 31.209 53.1121 31.989 50.9921C34.709 43.5921 36.639 36.0321 37.799 28.2421C38.259 25.1321 33.599 23.7022 32.979 26.9122C31.399 35.0622 29.959 43.1721 30.659 51.5021C30.889 54.2221 34.729 55.0022 35.569 52.1622C38.069 43.6822 39.129 35.0623 38.749 26.2323C38.629 23.5223 34.489 22.7022 33.839 25.5722C31.669 35.1122 30.929 44.7522 31.679 54.5122C31.879 57.1722 35.919 58.0922 36.589 55.1722C38.609 46.4522 39.149 37.7122 38.109 28.8122C37.749 25.7022 33.039 25.5122 33.109 28.8122C33.309 38.9322 33.359 49.0022 30.059 58.6922C29.019 61.7622 33.789 63.0122 34.879 60.0222C35.649 57.9122 36.009 55.8822 36.139 53.6522C36.259 51.5822 33.259 50.2222 31.869 51.8822C29.529 54.6822 25.019 62.5222 30.729 64.3222C36.439 66.1222 39.829 58.1922 39.649 53.8222C39.559 51.5522 37.029 50.6722 35.379 52.0522C31.619 55.2122 30.339 59.6022 31.379 64.3422C31.809 66.3022 34.229 66.6022 35.559 65.4422C39.569 61.9322 41.599 57.4022 41.789 52.0922C41.879 49.4022 38.479 48.9722 37.129 50.8322C34.159 54.9022 33.449 59.5722 34.919 64.3822C35.499 66.2822 37.669 66.6923 39.099 65.4823C43.179 62.0323 48.939 53.3022 45.439 47.8022C41.129 41.0222 36.509 53.2822 35.969 56.3022C35.339 59.8222 35.889 69.6822 42.069 65.3922C47.769 61.4322 48.259 51.3222 47.259 45.2622C46.919 43.1722 43.589 42.8022 42.689 44.6622C39.649 50.9522 38.729 57.2622 39.769 64.1622C40.119 66.4922 43.259 66.3322 44.339 64.7622C49.309 57.5122 51.439 48.9821 50.369 40.2421C50.109 38.1221 46.839 36.4223 45.709 38.9823C43.279 44.4823 42.269 50.0222 42.929 56.0222C43.209 58.5722 47.299 59.7022 47.839 56.6822C48.559 52.6322 49.189 48.5721 49.679 44.4921C50.039 41.5321 50.779 39.0622 48.869 36.6422C48.379 36.0222 47.169 35.7021 46.439 36.0021C45.179 36.5121 44.439 37.0322 44.139 38.4422C43.919 39.4522 44.259 40.7722 45.289 41.2622L45.609 41.4122C47.299 42.2222 49.339 41.2521 49.369 39.2521C49.389 38.0021 49.409 36.7622 49.429 35.5122H44.429C44.309 44.3522 44.199 53.2022 44.079 62.0422C44.039 65.0922 47.969 65.1322 48.989 62.7022C50.399 59.3622 51.179 56.0821 51.629 52.5021C51.949 49.9621 48.099 49.2121 46.969 51.2421C44.899 54.9521 43.969 58.7822 44.189 63.0222C44.289 64.9522 46.999 66.6122 48.459 64.7922C52.139 60.1922 54.029 55.2022 54.109 49.2922C54.139 46.8422 50.649 45.8522 49.449 48.0322C47.009 52.4522 46.459 56.9922 47.879 61.8522C48.439 63.7522 51.509 64.4922 52.449 62.4522C54.689 57.6022 55.159 52.8422 53.639 47.6822C52.939 45.3022 49.529 45.3122 48.819 47.6822C47.089 53.4222 47.019 59.0422 48.549 64.8322C49.009 66.5722 51.469 67.3622 52.729 65.9322C56.449 61.7022 57.769 56.8722 56.859 51.3322C56.469 48.9322 53.429 49.2623 52.289 50.7323C49.809 53.9423 48.239 61.7422 53.339 63.5922C58.349 65.4122 60.039 57.6422 60.249 54.2722C60.399 51.8722 56.619 50.7522 55.589 53.0122C54.319 55.7922 52.189 63.1422 56.749 64.4022C61.769 65.7922 62.889 57.4722 62.879 54.4422C62.879 51.7422 59.639 51.3322 58.219 53.1822C55.659 56.5322 54.519 60.9822 56.449 64.9022C56.829 65.6822 57.769 66.1322 58.609 66.1422C64.279 66.1922 65.049 58.9021 64.439 54.6221C64.099 52.2121 60.979 52.5622 59.869 54.0222C57.419 57.2522 56.299 65.9122 62.419 66.2822C68.099 66.6222 68.369 57.9722 67.689 54.3322C67.249 51.9622 64.279 52.2223 63.119 53.7323C60.829 56.7323 59.009 64.1323 63.849 65.9823C68.689 67.8323 71.489 60.8723 71.379 57.2323C71.309 55.0023 68.729 54.0222 67.109 55.4622C64.539 57.7522 62.909 62.8222 66.249 65.2922C70.199 68.2122 73.779 61.9722 75.049 59.1722C76.319 56.3722 72.549 53.9322 70.729 56.6522C69.089 59.1122 67.469 65.0122 71.929 65.7722C75.869 66.4422 78.509 60.3922 79.659 57.6322C80.639 55.2622 77.089 53.4922 75.479 55.2022C73.059 57.7722 72.239 60.8423 73.389 64.2323C73.989 66.0223 76.149 66.6822 77.569 65.3322C79.759 63.2522 80.999 61.0222 81.479 58.0222C81.899 55.3522 78.469 53.5122 76.909 56.0922C75.459 58.5022 75.519 60.5422 76.609 63.0622C77.209 64.4522 79.599 64.7322 80.539 63.5722C82.209 61.4822 82.979 59.6522 82.739 56.9422C82.499 54.2322 78.709 53.4722 77.829 56.2822C76.839 59.4122 77.539 62.0722 80.839 63.0522C82.309 63.4922 84.129 62.2522 83.999 60.6422C83.659 56.0522 82.309 51.9922 79.659 48.2122C78.409 46.4422 75.799 46.6822 75.089 48.8122C74.069 51.8622 74.439 54.6122 76.209 57.2922C77.249 58.8622 80.469 59.0022 80.779 56.6922C81.359 52.3822 82.299 43.8722 77.419 41.6822C76.649 41.3322 75.649 41.1222 74.899 41.6822C70.909 44.6322 72.339 50.3222 74.809 53.8922C76.009 55.6222 78.759 55.4622 79.379 53.2922C80.449 49.5722 80.229 37.5721 73.439 39.6121C67.109 41.5021 68.269 53.8922 69.699 58.3922C70.299 60.2722 73.299 61.0521 74.269 58.9921C76.799 53.6321 78.009 48.2122 77.809 42.2822C77.729 39.8622 74.409 38.8022 73.149 41.0222C69.829 46.8822 68.419 53.1822 69.089 59.8922C69.269 61.7222 71.089 63.0822 72.849 62.0522C79.299 58.3022 78.929 47.8122 78.679 41.3522C78.579 38.6622 74.329 37.8022 73.769 40.6922C73.049 44.4122 73.099 47.8522 74.009 51.5222C74.739 54.4522 78.629 53.4921 78.919 50.8621C79.489 45.6821 79.229 40.6522 78.269 35.5422C77.829 33.2022 73.799 33.1022 73.449 35.5422C72.409 42.8322 70.359 49.7622 67.149 56.4022L71.809 57.6622C72.379 52.4722 72.949 47.2822 73.519 42.0922C73.819 39.3722 70.129 39.0522 68.859 40.8322C66.319 44.3822 64.719 48.2222 63.999 52.5322C63.559 55.1322 67.139 57.1422 68.569 54.4622C70.829 50.2222 77.039 36.6022 69.529 34.4722C68.489 34.1822 67.229 34.6621 66.709 35.6221C63.939 40.6921 62.049 45.9822 61.039 51.6822C60.589 54.2322 64.389 56.4021 65.609 53.6121C68.119 47.8721 69.689 42.0722 70.419 35.8522C70.669 33.7522 67.479 32.4822 66.149 34.0822C61.649 39.5022 59.229 45.5722 58.809 52.6022C58.669 54.9922 62.429 56.1221 63.469 53.8621C65.999 48.3321 67.289 42.7021 67.299 36.6221C67.299 34.5521 64.499 33.2022 63.029 34.8522C58.039 40.4622 56.339 47.2822 55.369 54.5622C55.029 57.1022 58.909 57.8522 60.029 55.8222C61.919 52.4122 63.289 48.9922 64.219 45.2022C64.989 42.0822 60.169 40.7421 59.399 43.8721C58.569 47.2221 57.379 50.2822 55.709 53.2922L60.369 54.5522C61.159 48.7022 62.559 42.8922 66.569 38.3822L62.299 36.6121C62.299 41.7921 61.309 46.6222 59.149 51.3322L63.809 52.5922C64.139 46.9922 66.099 41.9221 69.679 37.6121L65.409 35.8422C64.789 41.1322 63.409 46.2022 61.279 51.0822L65.849 53.0122C66.779 47.7422 68.449 42.8522 71.019 38.1422L68.199 39.2922C69.329 39.6122 64.809 50.9122 64.259 51.9422L68.829 53.8721C69.489 49.9321 70.859 46.6221 73.189 43.3721L68.529 42.1121C67.959 47.3021 67.389 52.4922 66.819 57.6822C66.549 60.1322 70.429 61.1122 71.479 58.9422C74.879 51.9122 77.179 44.6222 78.279 36.8922H73.459C74.339 41.6022 74.449 46.1322 73.929 50.8822L78.839 50.2222C78.139 47.4122 78.039 44.8922 78.599 42.0522L73.689 41.3922C73.849 45.6122 74.719 55.2222 70.329 57.7722L74.089 59.9322C73.509 54.0722 74.559 48.7122 77.469 43.5822L72.809 42.3222C72.969 47.3822 72.109 51.9221 69.949 56.5021L74.519 57.1022C73.539 54.0222 73.139 50.9321 73.999 47.7521C74.139 47.0321 74.379 46.3522 74.709 45.7022C75.249 44.0522 75.379 44.0422 75.079 45.6722C75.329 47.6322 75.089 50.1521 74.559 52.0021L79.129 51.4022C78.709 50.7922 76.499 46.7222 77.429 46.0322H74.909C77.049 46.9922 76.199 53.6922 75.969 55.4022L80.539 54.8022C79.329 53.3422 79.129 51.8022 79.929 50.1822L75.359 50.7822C77.509 53.8322 78.739 56.9522 79.019 60.6922L82.179 58.2822L82.669 57.6622L77.759 57.0021L77.029 60.1022L80.959 60.6121L81.259 58.6922L76.689 56.7622C76.339 58.9322 75.699 60.3121 74.069 61.8621L78.249 62.9622C77.499 61.4622 77.759 60.0722 79.049 58.7922L74.869 56.3621C74.399 57.4921 72.939 60.7522 71.629 60.9722L74.059 61.6121L75.069 59.2421L70.749 56.7222C69.859 58.7022 64.799 64.3022 70.669 59.0722L66.399 57.3022C66.539 62.1922 65.529 58.8722 67.459 56.3322L62.889 55.7323C63.269 57.2423 63.219 58.7423 62.729 60.2323C62.729 58.7923 63.219 57.5921 64.199 56.6221L59.629 56.0222C60.029 57.9322 59.689 59.6622 58.619 61.2122L60.779 62.4522C59.649 60.1622 61.189 57.5522 62.549 55.7822L57.889 54.5222C58.079 56.3622 57.709 58.0722 56.759 59.6522L59.189 60.2922C58.789 58.7022 59.029 57.1422 59.909 55.6022L55.249 54.3422C55.339 56.2722 54.699 57.9422 53.339 59.3422H55.859C53.619 58.3722 55.809 54.3622 56.609 53.3222L52.039 52.7222C52.639 56.4022 51.629 59.6822 49.189 62.4622L53.369 63.5622C52.049 58.5622 52.149 54.0222 53.639 49.0722H48.819C49.949 52.9022 49.819 56.3521 48.129 59.9921L52.699 60.5922C51.649 57.0022 51.969 53.8722 53.759 50.6322L49.099 49.3721C49.039 53.8521 47.729 57.8122 44.919 61.3422L49.189 63.1121C49.009 59.6821 49.619 56.8422 51.279 53.8522L46.619 52.5922C46.229 55.7022 45.369 58.5822 44.159 61.4622L49.069 62.1221C49.189 53.2821 49.299 44.4322 49.419 35.5922C49.459 32.3722 44.469 32.3722 44.419 35.5922C44.399 36.8422 44.379 38.0822 44.359 39.3322L48.119 37.1722L47.799 37.0222L48.949 39.8422L49.059 39.3322L47.309 41.0822L47.749 40.9022L45.319 40.2622C45.509 40.5022 44.479 46.0622 44.359 46.9122C43.969 49.7622 43.509 52.6022 42.999 55.4322L47.909 56.0922C47.359 51.0422 47.949 46.2522 50.009 41.5822L45.349 40.3222C46.319 48.3022 44.549 55.6822 39.999 62.3122L44.569 62.9122C43.749 57.4622 44.589 52.2122 46.989 47.2722L42.419 46.6722C43.149 51.0822 42.479 55.1322 40.569 59.1822C40.069 59.6322 40.079 60.0322 40.599 60.4022C40.559 59.3922 40.649 58.3922 40.879 57.4022C41.289 54.9322 42.049 52.0822 43.979 50.3322L41.549 50.9722C41.669 51.0022 39.819 56.7922 39.529 57.3322C38.519 59.2422 37.159 60.6622 35.529 62.0322L39.709 63.1322C38.609 59.5122 39.219 56.4522 41.419 53.4322L36.759 52.1722C36.619 56.2222 35.039 59.3223 31.999 61.9823L36.179 63.0822C35.509 59.9922 36.559 57.6222 38.899 55.6622L34.629 53.8922C34.679 55.1222 34.029 60.2821 31.449 59.3621L33.199 61.1121C32.509 59.3521 34.409 56.6521 35.379 55.4921L31.109 53.7222C30.999 55.6322 30.669 57.0022 30.029 58.7622L34.849 60.0922C38.279 49.9922 38.289 39.4322 38.079 28.8822H33.079C34.059 37.3322 33.659 45.6222 31.739 53.9122L36.649 54.5722C35.929 45.2422 36.559 36.0922 38.629 26.9622L33.719 26.3022C34.089 34.7022 33.099 42.8422 30.719 50.9022L35.629 51.5622C34.959 43.6722 36.269 36.0222 37.769 28.3022L32.949 26.9722C31.789 34.7622 29.859 42.3322 27.139 49.7222H31.959C31.389 46.9722 30.939 44.2122 30.739 41.4022C30.659 40.1922 30.609 38.9822 30.609 37.7722C31.309 35.8622 31.089 35.2522 29.939 35.9622L27.529 34.1221C28.119 36.9121 28.509 39.7122 28.509 42.5722C28.509 43.7922 28.459 45.0321 28.349 46.2421C28.239 47.3721 26.989 51.0923 28.219 50.9823C29.359 50.8823 28.759 45.6022 28.799 44.2222C28.899 40.9122 29.229 37.6522 29.739 34.3822L24.829 33.7222C24.369 40.6222 23.049 47.2522 20.889 53.8122L25.799 54.4722C25.879 48.2422 27.209 42.4122 29.909 36.8022L25.249 35.5422C24.859 41.5822 23.499 47.3522 21.079 52.9022H25.399C24.479 51.2622 24.329 49.5722 24.969 47.8422C25.849 46.6922 25.639 46.0422 24.329 45.8822C24.039 46.1022 23.8291 51.2322 23.7991 51.4022C22.9391 55.3122 21.119 58.7622 18.689 61.9122L23.349 63.1722L21.499 62.1422L25.169 64.9622C25.859 62.2022 26.979 60.2022 28.579 57.8922C30.289 55.4222 28.149 58.6722 27.849 58.9722C27.359 60.2522 27.529 59.9022 28.359 57.9422C28.579 56.7422 29.209 55.8722 30.259 55.3222L25.989 53.5522C26.089 55.5022 25.849 57.9722 25.159 59.6322C25.579 60.7622 25.709 60.0622 25.549 57.5422C25.919 56.2022 26.559 55.0221 27.469 53.9921L22.899 53.3922C23.389 55.3122 22.9691 57.0121 21.6591 58.5021C21.3291 57.4021 21.639 56.5922 22.589 56.0522L18.4091 54.9522C18.9591 56.6922 18.389 58.3722 18.839 60.0922C19.289 61.8122 19.0191 57.8622 19.0391 57.5622C19.3691 54.2622 20.539 51.1822 22.149 48.3022L17.579 47.7022C18.379 49.3822 18.599 51.1822 18.249 53.0822H23.069C20.799 44.4422 17.839 36.0922 14.219 27.9222C13.189 25.6022 9.49897 26.8422 9.55897 29.1822C9.75897 37.2322 17.199 44.5922 15.449 52.5422H20.269C19.279 49.9722 19.4691 47.6822 21.4091 45.5722L17.139 43.8022C17.529 46.9022 17.499 49.9322 16.639 52.9522C16.249 54.3422 15.759 56.1222 14.889 57.2922C13.809 58.7322 12.269 60.6822 13.209 56.7022L8.63897 57.3022L9.28907 60.1722H13.609C12.599 55.2622 12.009 55.5622 11.839 61.0622L16.1591 63.5822C17.3591 61.1022 18.789 59.0621 20.749 57.1121L16.569 54.6822C16.029 57.1122 14.769 58.6922 12.569 59.7922L16.239 62.6121C16.599 59.9321 17.3591 57.6522 19.0491 55.4722L14.869 53.0422C14.029 55.2222 12.8191 56.6721 11.0491 58.1221L15.319 59.8922C15.469 57.5922 16.129 55.9322 17.389 54.0622L13.069 51.5422C12.189 53.1622 11.2891 54.1222 9.65907 55.0522L13.329 57.8721C13.959 55.9121 14.589 53.9621 15.209 52.0021C16.079 49.2821 12.039 47.6422 10.639 50.0722L8.39897 52.0422L11.479 55.1221C11.709 53.6021 11.9391 52.0822 12.1591 50.5522C12.5791 47.7122 9.33897 46.2921 7.58897 48.6221C6.80897 49.6621 6.02897 50.7021 5.25897 51.7421L9.82897 52.3422C9.47897 50.3822 9.90897 48.7122 11.129 47.3422C12.949 44.6822 8.61897 42.1822 6.80897 44.8222L6.85897 44.7922Z" fill="#FF46A0"/>
<path d="M-40.7988 62.3006C-46.8688 61.4606 -47.2188 54.6604 -47.9288 49.8104C-48.6388 44.9604 -49.2987 40.4105 -49.9887 35.7205L-54.5588 37.6505C-50.9088 44.0105 -46.0187 49.1105 -39.8787 53.0905C-38.0387 54.2805 -35.6087 52.3105 -36.2087 50.2705C-38.9787 40.7205 -47.7687 29.0105 -40.5987 19.4605L-45.2587 18.2005C-43.9687 28.1305 -40.4388 37.2305 -34.4088 45.2505C-32.8788 47.2805 -30.0287 46.5405 -29.7487 43.9905C-28.4887 32.5505 -27.4987 21.1906 -29.7487 9.80055L-34.3188 11.7305C-29.5788 20.4405 -27.6687 29.9005 -28.4987 39.7705C-28.7487 42.7305 -24.4787 42.9406 -23.5887 40.4306C-20.3587 31.3106 -19.0188 21.8205 -19.5788 12.1605L-24.2387 13.4205C-17.9687 23.9305 -15.8087 36.0605 -18.2287 48.0805C-18.7887 50.8805 -15.2788 52.3805 -13.6588 50.0105C-8.38881 42.2905 -5.86871 33.3605 -6.26871 24.0205L-10.9288 25.2805C-6.51882 35.4305 -3.37882 46.0105 -1.41882 56.8905C-0.938816 59.5505 2.63128 58.9605 3.40128 56.8905C7.91128 44.8005 11.7413 32.5405 9.52129 19.5405L4.70119 20.8705C6.43119 25.7105 8.16128 30.5405 9.89128 35.3805C10.7113 37.6705 13.9512 37.8305 14.7112 35.3805L16.3913 29.9705L11.8212 30.5704C13.7812 34.5004 15.0113 38.5305 15.5113 42.9105C15.8013 45.4805 19.7612 46.5704 20.4212 43.5704C22.2912 35.0604 23.7713 26.5005 24.9113 17.8705C25.231 15.4605 21.2013 14.3805 20.2513 16.6105C17.5613 22.9405 20.0513 30.2405 21.1613 36.7105C21.8013 40.4005 22.4212 44.0705 23.9512 47.5105C25.601 51.2105 31.091 56.9905 26.811 60.6705C24.3712 62.7705 27.921 66.3005 30.351 64.2105C35.701 59.6005 32.741 53.1204 29.861 48.0604C27.431 43.7904 26.651 39.2805 25.831 34.5105C25.051 30.0005 22.6912 23.5305 24.5612 19.1305L19.9013 17.8705C18.8213 26.0605 17.3612 34.1805 15.5912 42.2405L20.5013 42.9005C19.9013 37.6205 18.5013 32.7905 16.1213 28.0405C15.1113 26.0205 12.1512 26.7005 11.5512 28.6405L9.87128 34.0506H14.6912C12.9612 29.2106 11.2313 24.3805 9.50128 19.5405C8.41128 16.4805 4.14118 17.7105 4.68118 20.8705C6.73118 32.8505 2.70119 44.4804 -1.43881 55.5704H3.38129C1.34129 44.2304 -2.03872 33.3305 -6.62872 22.7605C-7.62872 20.4505 -11.3888 21.6605 -11.2888 24.0205C-10.9188 32.5705 -13.1687 40.4105 -17.9987 47.4805L-13.4288 49.4105C-10.7488 36.0805 -12.9688 22.5905 -19.9388 10.9005C-21.1588 8.86053 -24.7487 9.61054 -24.5987 12.1605C-24.0587 21.4305 -25.3288 30.3505 -28.4288 39.1005L-23.5187 39.7605C-22.6287 29.0405 -24.8888 18.6405 -30.0288 9.20045C-31.4488 6.59045 -35.1187 8.46051 -34.5987 11.1305C-32.4587 22.0305 -33.5788 33.0505 -34.7888 43.9905L-30.1287 42.7305C-35.5887 35.4605 -39.1188 27.2405 -40.2988 18.2005C-40.6288 15.6905 -43.3987 14.8704 -44.9587 16.9404C-53.2387 27.9704 -44.2788 40.5705 -41.0688 51.6105L-37.3988 48.7905C-42.8388 45.2705 -47.0688 40.7605 -50.2888 35.1405C-51.7988 32.5005 -55.2387 34.4304 -54.8587 37.0704C-53.8687 43.8705 -53.5187 51.2104 -51.6187 57.8204C-50.2787 62.4804 -47.1888 66.4505 -42.1788 67.1405C-39.0288 67.5705 -37.6687 62.7604 -40.8487 62.3204L-40.7988 62.3006Z" fill="#FF46A0"/>
<path d="M-48.0288 44.7395C-49.9688 47.5695 -50.3689 50.2594 -49.8289 53.5994C-49.4389 55.9794 -46.3888 55.6994 -45.2588 54.1994C-44.4788 53.1594 -43.6988 52.1194 -42.9288 51.0794L-47.4988 49.1495C-47.7288 50.6695 -47.9588 52.1894 -48.1788 53.7194C-48.4288 55.4094 -47.0988 57.5095 -45.0988 56.7995C-42.6688 55.9195 -41.1688 54.7795 -39.8788 52.5295L-44.4489 50.5994C-45.0789 52.5594 -45.7089 54.5094 -46.3289 56.4694C-47.0089 58.5894 -44.4888 60.3395 -42.6588 59.2895C-40.3388 57.9595 -38.7287 56.3294 -37.4587 53.9794C-35.9187 51.1294 -39.9888 48.7994 -41.7788 51.4594C-43.5688 54.1194 -44.3288 56.6494 -44.5288 59.8194C-44.6788 62.1894 -41.7888 62.8394 -40.2588 61.5894C-37.7688 59.5394 -36.3088 57.2994 -35.1588 54.3094C-34.2888 52.0494 -37.8187 49.9195 -39.3387 51.8795C-41.5587 54.7495 -42.9388 57.5894 -43.4288 61.2294C-43.7188 63.3794 -41.8488 65.0995 -39.7588 64.0495C-36.3688 62.3495 -34.2887 59.6494 -33.4587 55.9494C-32.9287 53.5594 -35.7988 51.6995 -37.6388 53.5195C-39.8888 55.7495 -41.6288 58.1495 -43.0188 60.9995C-44.4088 63.8495 -40.1289 66.4195 -38.6989 63.5195C-36.9689 59.9995 -35.8588 51.7994 -41.7988 51.4594C-48.3488 51.0794 -47.4688 58.8595 -45.5588 62.6295C-44.7688 64.1795 -41.9788 64.3495 -41.2388 62.6295C-40.0388 59.8395 -40.0088 57.2094 -41.8888 54.7094C-43.0788 53.1194 -45.9187 53.0194 -46.4587 55.3094C-47.1287 58.1294 -47.5188 61.2995 -45.2188 63.4895C-43.4188 65.1995 -40.9088 65.4795 -38.8788 64.0095C-33.2288 59.8995 -31.8989 50.0595 -32.6989 43.7395C-32.9489 41.7795 -35.3488 40.1994 -36.9688 41.9694C-40.0288 45.3094 -41.0388 49.5095 -39.3888 53.7995C-38.5788 55.8995 -35.1488 56.4295 -34.5688 53.7995C-32.5488 44.6095 -40.0688 37.9394 -40.2788 29.1094L-44.9388 30.3695C-41.4988 38.1295 -38.7488 46.1194 -36.5988 54.3294C-36.0188 56.5594 -32.1488 56.8594 -31.7788 54.3294C-31.3488 51.4194 -31.4289 49.1195 -32.4489 46.2995C-33.1489 44.3695 -35.8988 43.7094 -37.0188 45.6994C-39.2688 49.7094 -44.3288 61.5694 -38.8688 65.0994C-32.1588 69.4294 -30.3788 57.4595 -31.6188 53.5395C-32.1788 51.7495 -34.4188 51.0794 -35.7988 52.4394C-38.9088 55.5094 -41.5988 63.7194 -34.5988 64.2194C-28.4788 64.6594 -26.1888 56.6495 -27.1288 51.9895C-27.5988 49.6595 -30.5389 49.8295 -31.6989 51.3895C-34.0289 54.5195 -37.1388 63.8994 -31.2688 65.3294C-25.4588 66.7494 -23.6588 57.3794 -23.8588 53.4694C-23.9788 51.1594 -26.4488 50.3594 -28.1288 51.6994C-31.2188 54.1694 -34.4488 60.3795 -30.6788 63.7795C-26.9088 67.1795 -22.8288 63.1795 -21.9388 59.5195C-21.1588 56.3395 -21.7988 51.2495 -26.1688 51.7795C-30.8388 52.3495 -33.5688 59.7595 -34.5188 63.5495C-35.0388 65.6395 -32.7588 67.4995 -30.8488 66.3695C-28.2088 64.8295 -27.1288 60.6995 -30.2588 58.8695C-33.3888 57.0395 -36.4488 60.0394 -36.5188 63.0894C-36.5788 65.8194 -33.2488 66.1494 -31.8588 64.3494C-28.8488 60.4394 -26.7789 55.9894 -25.9489 51.1094C-25.4589 48.2194 -24.3988 42.2494 -27.5688 40.3394C-30.2588 38.7194 -32.5088 40.8794 -33.6288 43.2294C-35.4688 47.1094 -35.9388 51.5594 -33.7788 55.3294C-32.9288 56.8194 -30.2287 57.0994 -29.4587 55.3294C-26.6787 48.9294 -25.0588 42.4094 -24.6088 35.4394C-24.4488 33.0194 -28.1988 31.9595 -29.2688 34.1795C-32.3588 40.5995 -33.9688 47.2495 -34.0588 54.3695C-34.0988 57.2695 -30.0088 57.6595 -29.1488 55.0295C-26.8588 48.0495 -25.5188 40.9294 -25.0388 33.6094C-24.8588 30.8394 -29.5189 30.1394 -29.9489 32.9494C-30.5889 37.0394 -34.6588 57.9094 -26.7388 57.5794C-22.9788 57.4194 -22.4087 52.2595 -21.9587 49.5395C-21.0287 43.8695 -21.3188 38.2894 -22.5088 32.6894C-22.7188 31.7094 -23.8888 30.7494 -24.9188 30.8494C-32.6988 31.6294 -28.7088 46.1994 -27.7188 50.9394C-27.1688 53.5594 -23.6788 53.0594 -22.8988 50.9394C-20.1788 43.5394 -18.2487 35.9794 -17.0887 28.1894C-16.6287 25.0794 -21.2888 23.6494 -21.9088 26.8594C-23.4888 35.0094 -24.9288 43.1194 -24.2288 51.4494C-23.9988 54.1694 -20.1588 54.9494 -19.3188 52.1094C-16.8188 43.6294 -15.7588 35.0095 -16.1388 26.1795C-16.2588 23.4695 -20.3988 22.6495 -21.0488 25.5195C-23.2188 35.0595 -23.9587 44.6994 -23.2087 54.4594C-23.0087 57.1194 -18.9688 58.0395 -18.2988 55.1195C-16.2788 46.3995 -15.7388 37.6595 -16.7788 28.7595C-17.1388 25.6495 -21.8488 25.4595 -21.7788 28.7595C-21.5788 38.8795 -21.5289 48.9495 -24.8289 58.6395C-25.8689 61.7095 -21.0988 62.9594 -20.0088 59.9694C-19.2388 57.8594 -18.8788 55.8294 -18.7488 53.5994C-18.6288 51.5294 -21.6288 50.1694 -23.0188 51.8294C-25.3588 54.6294 -29.8688 62.4695 -24.1588 64.2695C-18.4488 66.0695 -15.0588 58.1395 -15.2388 53.7695C-15.3288 51.4995 -17.8588 50.6195 -19.5088 51.9995C-23.2688 55.1595 -24.5488 59.5495 -23.5088 64.2895C-23.0788 66.2495 -20.6589 66.5495 -19.3289 65.3895C-15.3189 61.8795 -13.2888 57.3495 -13.0988 52.0395C-13.0088 49.3495 -16.4088 48.9195 -17.7588 50.7795C-20.7288 54.8495 -21.4388 59.5194 -19.9688 64.3294C-19.3888 66.2294 -17.2188 66.6395 -15.7888 65.4295C-11.7088 61.9795 -5.94887 53.2495 -9.44887 47.7495C-13.7589 40.9695 -18.3788 53.2295 -18.9188 56.2495C-19.5488 59.7695 -18.9988 69.6294 -12.8188 65.3394C-7.11877 61.3794 -6.62877 51.2694 -7.62877 45.2094C-7.96877 43.1194 -11.2989 42.7494 -12.1989 44.6094C-15.2389 50.8994 -16.1588 57.2094 -15.1188 64.1094C-14.7688 66.4394 -11.6288 66.2794 -10.5488 64.7094C-5.57877 57.4594 -3.44877 48.9294 -4.51877 40.1894C-4.77877 38.0694 -8.04877 36.3695 -9.17877 38.9295C-11.6088 44.4295 -12.6187 49.9694 -11.9587 55.9694C-11.6787 58.5194 -7.58877 59.6495 -7.04877 56.6295C-6.32877 52.5795 -5.69867 48.5194 -5.20867 44.4394C-4.84867 41.4794 -4.10877 39.0094 -6.01877 36.5894C-6.50877 35.9694 -7.71887 35.6494 -8.44887 35.9494C-9.70887 36.4594 -10.4488 36.9795 -10.7488 38.3895C-10.9688 39.3995 -10.6288 40.7194 -9.59877 41.2094L-9.27877 41.3594C-7.58877 42.1694 -5.54877 41.1994 -5.51877 39.1994C-5.49877 37.9494 -5.47867 36.7094 -5.45867 35.4594H-10.4587C-10.5787 44.2994 -10.6888 53.1495 -10.8088 61.9895C-10.8488 65.0395 -6.91877 65.0795 -5.89877 62.6495C-4.48877 59.3095 -3.70877 56.0294 -3.25877 52.4494C-2.93877 49.9094 -6.78877 49.1594 -7.91877 51.1894C-9.98877 54.8994 -10.9189 58.7294 -10.6989 62.9694C-10.5989 64.8994 -7.88877 66.5595 -6.42877 64.7395C-2.74877 60.1395 -0.85877 55.1495 -0.77877 49.2395C-0.74877 46.7895 -4.23877 45.7994 -5.43877 47.9794C-7.87877 52.3994 -8.42877 56.9395 -7.00877 61.7995C-6.44877 63.6995 -3.37877 64.4395 -2.43877 62.3995C-0.198766 57.5495 0.271228 52.7895 -1.24877 47.6295C-1.94877 45.2495 -5.35877 45.2595 -6.06877 47.6295C-7.79877 53.3695 -7.86867 58.9895 -6.33867 64.7795C-5.87867 66.5195 -3.41877 67.3095 -2.15877 65.8795C1.56123 61.6495 2.88123 56.8195 1.97123 51.2795C1.58123 48.8795 -1.45877 49.2095 -2.59877 50.6795C-5.07877 53.8895 -6.64877 61.6895 -1.54877 63.5395C3.46123 65.3595 5.15123 57.5894 5.36123 54.2194C5.51123 51.8194 1.73123 50.6994 0.701233 52.9594C-0.568767 55.7394 -2.69877 63.0894 1.86123 64.3494C6.88123 65.7394 8.00123 57.4195 7.99123 54.3895C7.99123 51.6895 4.75123 51.2795 3.33123 53.1295C0.77123 56.4795 -0.368766 60.9294 1.56123 64.8494C1.94123 65.6294 2.88123 66.0794 3.72123 66.0894C9.39123 66.1394 10.1611 58.8494 9.55113 54.5694C9.21113 52.1594 6.09123 52.5094 4.98123 53.9694C2.53123 57.1994 1.41133 65.8594 7.53123 66.2294C13.2112 66.5694 13.4811 57.9195 12.8011 54.2795C12.3611 51.9095 9.39123 52.1695 8.23123 53.6795C5.94123 56.6795 4.12123 64.0795 8.96123 65.9295C13.8012 67.7795 16.6012 60.8195 16.4912 57.1795C16.4212 54.9495 13.8412 53.9695 12.2212 55.4095C9.65123 57.6995 8.02123 62.7695 11.3612 65.2395C15.3112 68.1595 18.8913 61.9195 20.1613 59.1195C21.4313 56.3195 17.6612 53.8794 15.8412 56.5994C14.2012 59.0594 12.5813 64.9594 17.0413 65.7194C20.9813 66.3894 23.6212 60.3394 24.7712 57.5794C25.751 55.2094 22.2012 53.4395 20.5912 55.1495C18.1712 57.7195 17.3512 60.7895 18.5012 64.1795C19.1012 65.9695 21.2612 66.6295 22.6812 65.2795C24.8712 63.1995 26.111 60.9694 26.591 57.9694C27.011 55.2994 23.5812 53.4595 22.0212 56.0395C20.5712 58.4495 20.6312 60.4895 21.7212 63.0095C22.3212 64.3995 24.7112 64.6795 25.651 63.5195C27.321 61.4295 28.091 59.5995 27.851 56.8895C27.611 54.1795 23.8212 53.4194 22.9412 56.2294C21.9512 59.3594 22.6512 62.0195 25.951 62.9995C27.421 63.4395 29.241 62.1994 29.111 60.5894C28.771 55.9994 27.421 51.9395 24.7712 48.1595C23.5212 46.3895 20.9112 46.6295 20.2012 48.7595C19.1812 51.8095 19.5512 54.5595 21.3212 57.2395C22.3612 58.8095 25.581 58.9495 25.891 56.6395C26.471 52.3295 27.411 43.8195 22.5312 41.6295C21.7613 41.2795 20.7612 41.0695 20.0112 41.6295C16.0212 44.5795 17.4511 50.2694 19.9211 53.8394C21.1211 55.5694 23.8712 55.4095 24.4912 53.2395C25.561 49.5195 25.341 37.5194 18.5511 39.5594C12.2211 41.4494 13.3812 53.8394 14.8112 58.3394C15.4112 60.2194 18.4112 60.9994 19.3812 58.9394C21.9112 53.5794 23.1211 48.1594 22.9211 42.2294C22.8411 39.8094 19.5212 38.7494 18.2612 40.9694C14.9412 46.8294 13.5312 53.1294 14.2012 59.8394C14.3812 61.6694 16.2012 63.0295 17.9612 61.9995C24.4112 58.2495 24.0413 47.7595 23.7913 41.2995C23.6913 38.6095 19.4412 37.7495 18.8812 40.6395C18.1612 44.3595 18.2112 47.7994 19.1212 51.4694C19.8512 54.3994 23.7413 53.4394 24.0312 50.8094C24.6012 45.6294 24.3412 40.5995 23.3812 35.4895C22.9412 33.1495 18.9112 33.0495 18.5612 35.4895C17.5212 42.7795 15.4712 49.7094 12.2612 56.3494L16.9211 57.6094C17.4911 52.4194 18.0612 47.2295 18.6312 42.0395C18.9312 39.3195 15.2412 38.9995 13.9712 40.7795C11.4312 44.3295 9.83123 48.1694 9.11123 52.4794C8.67123 55.0794 12.2512 57.0895 13.6812 54.4095C15.9412 50.1695 22.1512 36.5495 14.6412 34.4195C13.6012 34.1295 12.3412 34.6094 11.8212 35.5694C9.05123 40.6394 7.16123 45.9295 6.15123 51.6295C5.70123 54.1795 9.50123 56.3494 10.7212 53.5594C13.2312 47.8194 14.8012 42.0195 15.5312 35.7995C15.7812 33.6995 12.5912 32.4295 11.2612 34.0295C6.76123 39.4495 4.34113 45.5195 3.92113 52.5495C3.78113 54.9395 7.54123 56.0694 8.58123 53.8094C11.1112 48.2794 12.4013 42.6494 12.4113 36.5694C12.4113 34.4994 9.61123 33.1495 8.14123 34.7995C3.15123 40.4095 1.45123 47.2295 0.481232 54.5095C0.141232 57.0495 4.02123 57.7995 5.14123 55.7695C7.03123 52.3595 8.40123 48.9395 9.33123 45.1495C10.1012 42.0295 5.28123 40.6894 4.51123 43.8194C3.68123 47.1694 2.49123 50.2295 0.821228 53.2395L5.48123 54.4995C6.27123 48.6495 7.67123 42.8394 11.6812 38.3294L7.41133 36.5594C7.41133 41.7394 6.42123 46.5695 4.26123 51.2795L8.92113 52.5395C9.25113 46.9395 11.2113 41.8694 14.7913 37.5594L10.5212 35.7895C9.90123 41.0795 8.52123 46.1495 6.39123 51.0295L10.9612 52.9594C11.8912 47.6894 13.5612 42.7994 16.1312 38.0894L13.3112 39.2395C14.4412 39.5595 9.92123 50.8595 9.37123 51.8895L13.9412 53.8194C14.6012 49.8794 15.9711 46.5694 18.3011 43.3194L13.6412 42.0594C13.0712 47.2494 12.5012 52.4395 11.9312 57.6295C11.6612 60.0795 15.5412 61.0595 16.5912 58.8895C19.9912 51.8595 22.2912 44.5694 23.3912 36.8394H18.5712C19.4512 41.5494 19.5613 46.0794 19.0413 50.8294L23.9512 50.1695C23.2512 47.3595 23.1512 44.8395 23.7112 41.9995L18.8011 41.3394C18.9611 45.5594 19.8312 55.1694 15.4412 57.7194L19.2012 59.8795C18.6212 54.0195 19.6712 48.6595 22.5812 43.5295L17.9211 42.2695C18.0811 47.3295 17.2212 51.8694 15.0612 56.4494L19.6312 57.0495C18.6512 53.9695 18.2512 50.8794 19.1112 47.6994C19.2512 46.9794 19.4912 46.2995 19.8212 45.6495C20.3612 43.9995 20.4912 43.9895 20.1912 45.6195C20.4412 47.5795 20.2011 50.0994 19.6711 51.9494L24.2412 51.3494C23.8212 50.7394 21.6113 46.6694 22.5413 45.9794H20.0212C22.1612 46.9394 21.3112 53.6394 21.0812 55.3494L25.651 54.7495C24.4412 53.2895 24.2413 51.7495 25.041 50.1295L20.4712 50.7294C22.6212 53.7794 23.8512 56.8995 24.1312 60.6395L27.291 58.2294L27.781 57.6094L22.8712 56.9494L22.1412 60.0495L26.071 60.5594L26.371 58.6395L21.8011 56.7094C21.4511 58.8794 20.8112 60.2594 19.1812 61.8094L23.3612 62.9095C22.6112 61.4095 22.8713 60.0195 24.1613 58.7395L19.9812 56.3094C19.5112 57.4394 18.0512 60.6995 16.7412 60.9195L19.1711 61.5594L20.1812 59.1894L15.8612 56.6695C14.9712 58.6495 9.91133 64.2495 15.7812 59.0195L11.5112 57.2495C11.6512 62.1395 10.6412 58.8195 12.5712 56.2795L8.00123 55.6795C8.38123 57.1895 8.33123 58.6895 7.84123 60.1795C7.84123 58.7395 8.33123 57.5394 9.31123 56.5694L4.74123 55.9694C5.14123 57.8794 4.80123 59.6095 3.73123 61.1595L5.89123 62.3995C4.76123 60.1095 6.30133 57.4994 7.66133 55.7294L3.00123 54.4694C3.19123 56.3094 2.82123 58.0194 1.87123 59.5994L4.30113 60.2395C3.90113 58.6495 4.14123 57.0895 5.02123 55.5495L0.361229 54.2895C0.451229 56.2195 -0.188767 57.8895 -1.54877 59.2895H0.97123C-1.26877 58.3195 0.92123 54.3095 1.72123 53.2695L-2.84877 52.6695C-2.24877 56.3495 -3.25887 59.6295 -5.69887 62.4095L-1.51877 63.5095C-2.83877 58.5095 -2.73877 53.9695 -1.24877 49.0195H-6.06877C-4.93877 52.8495 -5.06877 56.2994 -6.75877 59.9394L-2.18877 60.5395C-3.23877 56.9495 -2.91877 53.8194 -1.12877 50.5794L-5.78877 49.3194C-5.84877 53.7994 -7.15877 57.7595 -9.96877 61.2895L-5.69887 63.0594C-5.87887 59.6294 -5.26877 56.7895 -3.60877 53.7995L-8.26877 52.5395C-8.65877 55.6495 -9.51877 58.5295 -10.7288 61.4095L-5.81877 62.0694C-5.69877 53.2294 -5.58867 44.3795 -5.46877 35.5395C-5.42877 32.3195 -10.4187 32.3195 -10.4688 35.5395C-10.4887 36.7895 -10.5088 38.0295 -10.5288 39.2795L-6.76877 37.1195L-7.08867 36.9694L-5.93877 39.7895L-5.82887 39.2795L-7.57887 41.0295L-7.13877 40.8494L-9.56877 40.2094C-9.37877 40.4494 -10.4088 46.0094 -10.5288 46.8594C-10.9188 49.7094 -11.3788 52.5495 -11.8888 55.3795L-6.97877 56.0395C-7.52877 50.9895 -6.93877 46.1995 -4.87877 41.5295L-9.53877 40.2695C-8.56877 48.2495 -10.3388 55.6295 -14.8888 62.2595L-10.3188 62.8594C-11.1388 57.4094 -10.2988 52.1594 -7.89877 47.2194L-12.4688 46.6195C-11.7387 51.0295 -12.4088 55.0795 -14.3188 59.1295C-14.8188 59.5795 -14.8088 59.9794 -14.2888 60.3494C-14.3288 59.3394 -14.2388 58.3394 -14.0088 57.3494C-13.5988 54.8794 -12.8388 52.0295 -10.9088 50.2795L-13.3387 50.9195C-13.2187 50.9495 -15.0688 56.7395 -15.3588 57.2795C-16.3688 59.1895 -17.7288 60.6094 -19.3588 61.9794L-15.1788 63.0794C-16.2788 59.4594 -15.6688 56.3995 -13.4688 53.3795L-18.1288 52.1195C-18.2688 56.1695 -19.8488 59.2695 -22.8888 61.9295L-18.7087 63.0295C-19.3787 59.9395 -18.3288 57.5694 -15.9888 55.6094L-20.2588 53.8394C-20.2088 55.0694 -20.8588 60.2294 -23.4388 59.3094L-21.6888 61.0594C-22.3788 59.2994 -20.4788 56.5994 -19.5088 55.4394L-23.7788 53.6695C-23.8888 55.5795 -24.2188 56.9494 -24.8588 58.7094L-20.0388 60.0395C-16.6088 49.9395 -16.5988 39.3794 -16.8088 28.8294H-21.8088C-20.8288 37.2794 -21.2288 45.5694 -23.1488 53.8594L-18.2388 54.5195C-18.9588 45.1895 -18.3288 36.0395 -16.2588 26.9095L-21.1688 26.2495C-20.7988 34.6495 -21.7888 42.7894 -24.1688 50.8494L-19.2588 51.5095C-19.9288 43.6195 -18.6188 35.9695 -17.1188 28.2495L-21.9388 26.9195C-23.0988 34.7095 -25.0288 42.2795 -27.7488 49.6695H-22.9288C-23.4988 46.9195 -23.9488 44.1594 -24.1488 41.3494C-24.2288 40.1394 -24.2788 38.9294 -24.2788 37.7194C-23.5788 35.8094 -23.7989 35.1995 -24.9489 35.9095L-27.3588 34.0694C-26.7688 36.8594 -26.3788 39.6595 -26.3788 42.5195C-26.3788 43.7395 -26.4288 44.9794 -26.5388 46.1894C-26.6488 47.3194 -27.8988 51.0395 -26.6688 50.9295C-25.5288 50.8295 -26.1287 45.5495 -26.0887 44.1695C-25.9887 40.8595 -25.6588 37.5994 -25.1488 34.3294L-30.0588 33.6695C-30.5188 40.5695 -31.8388 47.1995 -33.9988 53.7595L-29.0887 54.4195C-29.0087 48.1895 -27.6788 42.3595 -24.9788 36.7495L-29.6388 35.4895C-30.0288 41.5295 -31.3888 47.2994 -33.8088 52.8494H-29.4888C-30.4088 51.2094 -30.5588 49.5195 -29.9188 47.7895C-29.0388 46.6395 -29.2488 45.9894 -30.5588 45.8294C-30.8488 46.0494 -31.0587 51.1794 -31.0887 51.3494C-31.9487 55.2594 -33.7689 58.7094 -36.1989 61.8594L-31.5388 63.1195L-33.3888 62.0894L-29.7188 64.9095C-29.0288 62.1495 -27.9088 60.1494 -26.3088 57.8394C-24.5988 55.3694 -26.7388 58.6195 -27.0388 58.9195C-27.5288 60.1995 -27.3588 59.8495 -26.5288 57.8895C-26.3088 56.6895 -25.6788 55.8195 -24.6288 55.2695L-28.8988 53.4995C-28.7988 55.4495 -29.0388 57.9194 -29.7288 59.5794C-29.3088 60.7094 -29.1787 60.0095 -29.3387 57.4895C-28.9687 56.1495 -28.3288 54.9694 -27.4188 53.9394L-31.9888 53.3394C-31.4988 55.2594 -31.9188 56.9594 -33.2288 58.4494C-33.5588 57.3494 -33.2488 56.5395 -32.2988 55.9995L-36.4788 54.8995C-35.9288 56.6395 -36.4988 58.3195 -36.0488 60.0395C-35.5988 61.7595 -35.8688 57.8095 -35.8488 57.5095C-35.5188 54.2095 -34.3488 51.1295 -32.7388 48.2495L-37.3088 47.6495C-36.5088 49.3295 -36.2888 51.1295 -36.6388 53.0295H-31.8188C-34.0888 44.3895 -37.0488 36.0395 -40.6688 27.8695C-41.6988 25.5495 -45.3889 26.7895 -45.3289 29.1295C-45.1289 37.1795 -37.6888 44.5395 -39.4388 52.4895H-34.6188C-35.6088 49.9195 -35.4188 47.6295 -33.4788 45.5195L-37.7488 43.7495C-37.3588 46.8495 -37.3888 49.8795 -38.2488 52.8995C-38.6388 54.2895 -39.1288 56.0695 -39.9988 57.2395C-41.0788 58.6795 -42.6188 60.6295 -41.6788 56.6495L-46.2488 57.2495L-45.5988 60.1195H-41.2788C-42.2888 55.2095 -42.8788 55.5095 -43.0488 61.0095L-38.7288 63.5295C-37.5288 61.0495 -36.0988 59.0094 -34.1388 57.0594L-38.3188 54.6295C-38.8588 57.0595 -40.1188 58.6395 -42.3188 59.7395L-38.6488 62.5594C-38.2888 59.8794 -37.5287 57.5995 -35.8387 55.4195L-40.0188 52.9895C-40.8588 55.1695 -42.0687 56.6194 -43.8387 58.0694L-39.5688 59.8394C-39.4188 57.5394 -38.7588 55.8795 -37.4988 54.0095L-41.8188 51.4895C-42.6988 53.1095 -43.5988 54.0695 -45.2288 54.9995L-41.5588 57.8194C-40.9288 55.8594 -40.2988 53.9094 -39.6788 51.9494C-38.8088 49.2294 -42.8488 47.5895 -44.2488 50.0195L-46.4888 51.9895L-43.4088 55.0694C-43.1788 53.5494 -42.9488 52.0295 -42.7288 50.4995C-42.3088 47.6595 -45.5488 46.2394 -47.2988 48.5694C-48.0788 49.6094 -48.8588 50.6494 -49.6288 51.6894L-45.0588 52.2895C-45.4088 50.3295 -44.9788 48.6595 -43.7588 47.2895C-41.9388 44.6295 -46.2689 42.1295 -48.0789 44.7695L-48.0288 44.7395Z" fill="#FF46A0"/>
</g>
</g>
<defs>
<clipPath id="clip0_832_20420">
<rect width="13" height="66" fill="white"/>
</clipPath>
</defs>
</svg>
