<svg width="76" height="94" viewBox="0 0 76 94" fill="none" xmlns="http://www.w3.org/2000/svg">
<mask id="mask0_593_81" style="mask-type:alpha" maskUnits="userSpaceOnUse" x="0" y="0" width="76" height="94">
<rect width="76" height="94" fill="#D9D9D9"/>
</mask>
<g mask="url(#mask0_593_81)">
<mask id="mask1_593_81" style="mask-type:alpha" maskUnits="userSpaceOnUse" x="-94" y="-84" width="278" height="178">
<rect x="-94" y="-84" width="278" height="178" rx="31" fill="black"/>
</mask>
<g mask="url(#mask1_593_81)">
<path d="M32.4917 23.8159C27.6796 36.3202 31.1974 52.3162 31.8777 65.4357C32.641 80.2844 32.7074 95.7152 36.7893 110.132C39.6931 120.408 45.1689 130.8 55.5728 135.007C66.7566 139.53 79.0024 135.705 88.9749 130.019C93.621 127.375 89.4395 120.191 84.7934 122.835C74.8707 128.489 61.4966 132.33 52.4201 122.935C44.5383 114.771 42.8292 101.219 41.7175 90.4774C40.6057 79.7357 40.39 69.5926 39.859 59.1669C39.3281 48.7412 36.6731 35.9544 40.5062 26.0108C42.431 21.0225 34.4164 18.8442 32.5082 23.7993L32.4917 23.8159Z" fill="#20BEFF"/>
</g>
<path d="M15.4325 54.9025C27.6105 56.2426 39.7208 56.7816 51.9223 55.0654C56.6478 54.3836 62.055 52.8319 62.3372 47.072C62.6898 39.878 54.6024 36.7748 50.7704 32.2609C44.6108 24.9964 49.4773 14.417 44.7754 6.16513C39.2036 -3.66192 24.6511 -1.28744 23.0054 10.0678C22.065 16.5799 26.4378 22.857 21.4537 28.946C18.7031 32.3079 13.9306 33.695 10.9919 36.9864C6.97174 41.4767 5.5612 46.8134 8.75852 51.9855C9.91049 53.8428 12.7082 53.9368 13.8366 51.9855C15.9055 48.3885 17.9273 44.7681 19.9021 41.1241L14.5419 38.8671C13.4369 42.0409 12.9667 44.7681 12.8492 48.083C12.7787 50.1753 15.4588 51.915 17.269 50.622C29.8702 41.5708 12.9433 31.5791 10.6863 45.7085C10.0281 49.7992 11.6737 54.4541 16.5638 54.0309C23.9928 53.3962 28.6242 42.2525 30.1053 36.3046C30.552 34.4943 29.2355 32.543 27.2606 32.59C18.3975 32.7311 10.7804 50.8571 21.4773 49.8227C29.2355 49.0704 42.2363 27.2769 30.1994 25.6547C22.8408 24.6673 12.8727 43.6866 22.112 44.9797C29.7056 46.0376 44.2817 27.0653 35.9357 21.1643C34.9953 20.5061 33.1145 20.6707 32.3857 21.6346C27.5192 27.8881 20.5604 37.9973 21.8064 46.4373C22.6057 51.821 26.7199 54.219 31.4924 51.0922C36.2648 47.9654 41.1549 39.4549 38.1456 33.8361C35.6066 29.1106 30.9046 30.3566 27.8249 33.695C24.9097 36.8453 19.9727 45.873 24.4865 49.6581C29.5881 53.9604 38.3337 45.2618 40.5671 41.5707C42.8006 37.8797 43.4588 32.3785 37.887 31.7672C31.0927 31.0149 27.7779 39.8545 27.1431 45.0267C26.955 46.5548 28.6477 48.0359 30.0818 47.9654C36.1944 47.6833 42.8006 44.8151 44.987 38.5615C46.4681 34.3298 44.4932 29.3457 39.2976 30.0275C27.049 31.6731 28.6242 58.004 41.578 47.6128C50.7468 40.2777 42.6595 23.7739 34.5016 34.5884C25.662 46.2962 46.7032 55.465 47.338 40.6539C47.4085 38.9847 45.9274 37.8092 44.3992 37.7152C37.8635 37.2685 31.6334 44.7681 38.0516 50.0342C44.4697 55.3004 50.6058 46.1551 47.7141 40.1601C46.6797 37.9973 43.8115 38.538 42.636 40.1601C41.2019 42.1585 40.0029 44.1098 38.8274 46.2962C37.8636 48.13 38.8039 49.8697 40.5907 50.622C45.9039 52.8084 50.7233 50.0342 52.0869 44.58C52.5806 42.5817 51.1465 41.0536 49.2422 40.8655C44.7049 40.3718 41.8602 45.4028 45.1045 48.8588C49.5949 53.6783 54.6495 47.9419 55.872 43.6161C56.5303 41.2886 53.7325 38.7966 51.5461 40.3013C48.5604 42.3701 47.1969 44.0393 46.5621 47.7538C46.233 49.6816 47.3615 51.3743 49.4068 51.4684C54.2968 51.7035 60.6914 48.8353 57.0945 42.9108C54.4379 38.585 49.0542 36.9158 46.3035 32.0963C43.0592 26.3835 41.9072 19.5422 40.7787 13.1475C40.4496 11.2667 37.9576 10.4909 36.4529 11.3843C31.0222 14.6521 25.3329 29.6984 33.8904 32.6371C41.4135 35.2231 45.7157 20.3415 42.5889 15.3574C35.8181 4.54297 28.7653 23.0921 29.8467 29.0166C31.61 38.7026 40.0734 38.6085 43.6234 30.098C46.2565 23.8209 45.9744 6.37671 36.0063 6.51776C27.8954 6.63531 26.2732 22.0577 33.7728 23.8445C41.2724 25.6312 43.6234 11.925 38.6393 8.09295C30.9752 2.19201 23.9223 15.7806 28.2245 21.8461C34.5251 30.7563 44.6343 17.8024 40.285 10.1853C35.254 1.41615 21.6888 8.4221 27.7543 17.0737C28.3186 17.873 29.2355 18.6253 30.2934 18.5313C38.945 17.7554 40.5201 7.29362 31.61 5.15423C29.306 4.61351 27.5898 6.56483 27.9894 8.77475C28.3656 10.8436 28.7652 12.8889 29.1414 14.9577C29.8232 18.6723 35.489 17.0972 34.8072 13.4062C34.4311 11.3373 34.0314 9.29195 33.6553 7.2231L30.0348 10.8435C33.1616 12.9829 36.1003 15.3574 38.898 17.92C40.6612 21.9166 39.4857 24.6202 35.348 26.0543C34.149 25.4196 38.8274 16.8386 39.3917 16.4859L35.0659 14.7227C36.2179 21.2584 37.4638 27.9587 40.5436 33.9066C41.8602 36.4457 43.4353 38.9141 45.4571 40.983C45.7392 41.2651 51.8048 45.732 49.3598 45.6144L52.2044 49.329L54.4848 45.4028L50.1591 42.088L49.2187 46.7899L46.374 43.0754L42.1188 45.0032L43.882 49.329C45.034 47.1426 46.233 45.1912 47.6906 43.1929H42.6125L44.3757 43.6631L41.437 40.7244C41.437 40.5599 29.4941 42.1585 30.0113 42.135L32.95 45.0737L34.5487 39.7841C33.7023 41.2652 32.4798 42.135 30.8576 42.3701C28.8123 43.4515 28.6242 42.9578 30.2464 40.8655C31.5394 37.5036 31.8451 38.2089 31.1163 43.0049C28.5537 45.1207 29.306 38.632 29.353 38.3264C29.9173 34.6119 34.3135 28.6639 36.4999 25.8427L32.95 26.313C33.8434 26.9477 26.2497 36.1165 26.5788 35.5993C25.5679 37.1039 21.2892 43.334 25.2623 38.2089C26.2732 36.9158 32.6209 29.7924 26.2497 38.9377L21.1952 43.8042C24.0163 44.6505 26.0381 42.9108 27.2371 38.5615L24.3925 34.847C23.5931 38.1384 22.6763 41.7823 20.0902 44.1568C19.667 45.6379 18.8207 46.3432 17.5041 46.2727C16.3757 46.5783 15.2942 46.3668 14.2833 45.6615L18.7031 48.2005C18.6325 45.5204 19.1263 42.9813 20.1842 40.5598C21.2656 37.4095 16.3756 35.3877 14.824 38.3029C12.8492 41.9469 10.8274 45.5674 8.75852 49.1644H13.8366C9.53435 42.1585 28.5537 33.2953 29.7762 25.067C30.2934 21.5405 27.8014 16.1333 28.7888 12.9359C36.8761 8.21049 40.9903 8.58662 41.1314 14.0174C41.4605 15.522 41.6016 17.0737 41.5311 18.6253C41.6486 21.0468 41.484 23.4683 41.7191 25.9133C42.0482 29.2516 42.73 32.496 44.6578 35.3172C46.6796 38.2794 50.6528 39.2433 52.5571 41.8528L53.7326 49.0703C51.2876 49.3995 48.8426 49.6346 46.374 49.7521C43.2708 49.9637 40.1099 47.3589 36.9831 47.3824C29.507 47.4295 22.1355 49.6346 14.7065 48.8118C10.9449 48.3886 3.69129 52.7323 14.7065 54.6892L15.4325 54.9025Z" fill="#20BEFF"/>
<path d="M25.4784 61.7895C24.0945 68.8407 22.7245 75.8861 21.3454 82.9488C21.0993 84.1978 23.2708 84.2984 23.5217 83.0608L27.6547 61.9015C27.9008 60.6525 25.7293 60.5519 25.4784 61.7895Z" fill="#20BEFF"/>
<path d="M49.421 66.7895C50.8049 73.8407 52.1749 80.8861 53.554 87.9488C53.8001 89.1978 51.6286 89.2984 51.3777 88.0608L47.2447 66.9015C46.9986 65.6525 49.1701 65.5519 49.421 66.7895Z" fill="#20BEFF"/>
<path d="M16.3094 52.3097L2.08549 73.0883C1.6163 73.7854 3.2091 74.3874 3.69064 73.6903L17.9145 52.9117C18.3837 52.2146 16.7909 51.6126 16.3094 52.3097Z" fill="#20BEFF"/>
<path d="M66.6906 66.3097L80.9145 87.0883C81.3837 87.7854 79.7909 88.3874 79.3094 87.6903L65.0855 66.9117C64.6163 66.2146 66.2091 65.6126 66.6906 66.3097Z" fill="#20BEFF"/>
<path d="M15.3094 70.3097L1.08549 91.0883C0.616303 91.7854 2.2091 92.3874 2.69064 91.6903L16.9145 70.9117C17.3837 70.2146 15.7909 69.6126 15.3094 70.3097Z" fill="#20BEFF"/>
<path d="M53.6266 57.3454L63.8595 80.3532C64.1949 81.1237 62.5195 81.4278 62.172 80.6552L51.9391 57.6474C51.6037 56.8769 53.2791 56.5728 53.6266 57.3454Z" fill="#20BEFF"/>
</g>
</svg>
