<svg width="623" height="375" viewBox="0 0 623 375" fill="none" xmlns="http://www.w3.org/2000/svg">
<mask id="mask0_446_3060" style="mask-type:alpha" maskUnits="userSpaceOnUse" x="0" y="0" width="623" height="375">
<path fill-rule="evenodd" clip-rule="evenodd" d="M222.688 2.68049C352.478 1.68049 482.278 1.22053 612.069 0.910532L621.735 0.887695C621.772 45.56 621.811 90.2304 621.85 134.901L621.853 138.726C621.896 187.363 621.938 236.001 621.979 284.641C621.989 298.196 622.001 311.751 622.013 325.306C622.025 337.506 622.036 349.707 622.045 361.907C541.593 362.738 461.131 362.852 380.669 362.221C297.809 361.571 214.969 360.141 132.139 357.931C117.818 357.548 103.491 357.045 89.1602 356.542C60.9005 355.55 32.6273 354.557 4.36602 354.485C7.47354 263.461 6.85662 172.367 5.9885 81.3103C5.9519 77.531 5.91511 73.7515 5.87831 69.9718L5.87753 69.8919C5.67156 48.736 5.46555 27.5756 5.29372 6.42053C17.0006 7.27301 28.8262 6.88122 40.5879 6.49153C44.4974 6.36201 48.3999 6.23271 52.2886 6.14943C62.3686 5.93443 72.4486 5.71693 82.5286 5.49943C92.6086 5.28194 102.689 5.06444 112.769 4.84944C121.999 4.65257 131.09 4.45569 140.137 4.25978L140.141 4.25971L140.178 4.25889C150.878 4.02719 161.516 3.79683 172.249 3.56941C177.203 3.46442 182.16 3.35692 187.117 3.24943C192.075 3.14192 197.033 3.0344 201.989 2.92939C203.27 2.90213 204.695 2.93222 206.201 2.96403C210.327 3.05115 215.061 3.15113 219.119 2.11986C220.17 2.48948 221.356 2.69075 222.678 2.68049H222.688ZM0 374.482L0 375H38.1193C25.4122 374.683 12.7048 374.476 0 374.482Z" fill="#D9D9D9"/>
</mask>
<g mask="url(#mask0_446_3060)">
<path d="M18.9083 174.741C27.1683 191.231 25.9784 210.461 17.1984 226.521C13.2184 233.801 7.16835 239.911 4.97835 248.111C3.15835 254.911 4.60835 261.341 8.02835 267.361C11.8384 274.071 17.4983 279.571 21.0983 286.411C26.1783 296.061 23.1283 305.981 18.7383 315.201C15.0283 322.981 10.5084 330.351 9.21836 339.021C8.63836 342.931 8.69835 346.901 9.56835 350.761C10.4383 354.621 13.2184 357.541 13.8884 361.341C14.1684 362.921 16.5783 362.251 16.2983 360.681C15.6083 356.821 12.8884 353.941 11.9784 350.101C10.5784 344.221 11.4883 337.951 13.4283 332.301C16.3483 323.811 21.6784 316.351 24.4984 307.801C26.8084 300.781 27.1983 293.301 23.9583 286.491C20.7183 279.681 14.9484 273.941 10.9384 267.371C5.39836 258.311 5.70835 249.471 11.1084 240.411C15.4684 233.101 20.5383 226.771 23.4783 218.651C28.8583 203.801 28.1483 187.611 21.0683 173.481C20.3483 172.041 18.1883 173.311 18.9083 174.741Z" fill="#53FF6E"/>
<path d="M7.52843 0.56111C17.1984 17.3111 -0.0115732 34.5712 0.138427 51.6712C0.208427 59.9212 4.21842 66.6411 8.76842 73.2411C14.6184 81.7411 19.2184 90.1411 20.3784 100.581C20.5584 102.161 23.0584 102.181 22.8784 100.581C21.9184 91.9211 18.9684 83.9811 14.1784 76.7111C8.07842 67.4511 1.37843 59.2711 2.93843 47.4311C5.06843 31.3111 19.0784 15.5611 9.69842 -0.6989C8.89842 -2.0889 6.72842 -0.83889 7.53842 0.56111H7.52843Z" fill="#53FF6E"/>
<path d="M35.2683 172.77C42.8383 185.51 44.3383 200.28 40.3783 214.49C38.4483 221.42 35.3683 227.99 31.4583 234.02C27.8183 239.65 23.8283 244 23.0483 250.91C21.6583 263.09 29.4284 274.69 36.8884 283.53C42.8284 290.57 44.3983 297.8 41.4183 306.65C39.0583 313.64 34.8383 320.01 31.8383 326.75C26.9783 337.66 22.6384 353.48 32.6084 363.04C33.7684 364.15 35.5383 362.39 34.3783 361.27C22.6783 350.05 32.4083 330.75 38.2983 319.18C43.3783 309.21 49.3383 297.09 42.3783 286.4C38.7283 280.79 33.6683 276.31 30.4083 270.37C26.6583 263.56 23.9883 254.66 26.4283 247.03C28.5783 240.31 34.3683 234.77 37.5883 228.46C40.3283 223.08 42.4584 217.36 43.7184 211.46C46.6784 197.68 44.6584 183.67 37.4384 171.52C36.6184 170.14 34.4583 171.39 35.2783 172.78L35.2683 172.77Z" fill="#53FF6E"/>
<path d="M25.9184 1.69108C35.7384 19.4211 17.4684 34.5111 18.1784 52.0111C18.8884 69.5111 33.0084 79.8411 37.7384 95.4311C38.2084 96.9711 40.6184 96.3111 40.1484 94.7711C35.0484 77.9611 17.1084 64.8711 21.1484 45.7011C22.9384 37.2211 28.0784 29.6311 30.1784 21.1711C31.9684 13.9811 31.7084 7.00107 28.0684 0.431067C27.2884 -0.978933 25.1284 0.281077 25.9084 1.69108H25.9184Z" fill="#53FF6E"/>
<path d="M51.4885 168.901C62.4685 185.311 64.4085 205.661 55.4385 223.471C51.5085 231.261 45.5285 237.691 42.8985 246.201C40.2685 254.711 42.2185 261.001 45.6685 268.451C47.0385 271.401 48.9085 273.571 50.9685 276.051C53.0285 278.531 54.6685 281.431 56.7985 283.901C64.3785 292.671 60.1585 304.451 55.7885 313.621C48.6885 328.541 43.0485 345.121 50.7885 360.911C51.4985 362.351 53.6485 361.091 52.9485 359.651C48.1285 349.811 48.8385 339.321 52.1085 329.121C54.8585 320.551 60.4485 312.771 62.5185 304.051C63.9885 297.871 64.1485 288.881 60.2485 283.501C59.4085 282.341 57.8285 281.631 56.9485 280.491C56.0685 279.351 55.4885 277.741 54.5685 276.511C51.5385 272.441 48.9285 269.351 46.8785 264.601C44.8285 259.851 43.4685 255.431 44.4885 250.061C45.4185 245.151 47.7185 240.591 50.2685 236.341C54.7885 228.781 59.5685 222.201 61.8885 213.541C66.1385 197.641 62.7085 181.191 53.6385 167.641C52.7485 166.311 50.5785 167.561 51.4785 168.901H51.4885Z" fill="#53FF6E"/>
<path d="M44.2984 -0.179368C54.0284 16.6606 36.5684 34.0207 36.8884 51.2307C37.0484 59.6707 41.3884 66.5007 46.0384 73.2207C51.5484 81.1907 55.7384 89.2406 57.0584 98.9606C57.2784 100.551 59.6884 99.8706 59.4684 98.3006C58.2384 89.3106 54.6784 81.4006 49.5784 73.9606C43.2684 64.7606 37.7084 56.1907 40.0384 44.4807C43.0584 29.2907 55.3884 14.0206 46.4584 -1.42937C45.6584 -2.81937 43.4884 -1.56936 44.2984 -0.169358V-0.179368Z" fill="#53FF6E"/>
<path d="M71.5484 171.8C73.7584 174.12 73.6484 176.88 75.1184 179.5C75.5184 180.22 76.2884 180.701 76.6784 181.451C77.6984 183.391 77.9684 186.531 78.3584 188.661C79.8984 196.931 79.9085 205.52 77.4085 213.62C75.1285 221.03 71.0984 227.811 67.2384 234.481C64.3384 239.501 61.2485 244.37 60.6085 250.25C59.4885 260.55 65.7284 269.601 70.7284 278.021C73.6284 282.911 76.3384 287.881 77.6684 293.451C79.7184 302.011 77.4985 309.73 73.6985 317.43C70.3785 324.14 65.8984 330.291 64.7984 337.841C63.5984 346.091 65.9384 354.181 69.0484 361.731C69.6484 363.201 72.0684 362.551 71.4584 361.071C68.0684 352.851 65.5184 343.831 67.9084 334.971C69.8984 327.601 75.0384 321.131 77.9584 314.091C82.6884 302.701 81.2184 291.951 75.4784 281.281C70.0285 271.151 60.6485 260.391 63.4985 248.041C65.1485 240.891 70.2584 234.501 73.7084 228.111C77.1584 221.721 80.0885 215.171 81.2585 208.011C82.5485 200.131 81.8185 192.141 80.0085 184.401C79.2985 181.381 78.3784 180.241 77.0884 177.771C75.6084 174.941 75.6384 172.461 73.3184 170.021C72.2084 168.851 70.4384 170.621 71.5484 171.791V171.8Z" fill="#53FF6E"/>
<path d="M62.6884 0.96031C68.5484 11.2203 64.3084 21.6803 60.3084 31.7503C56.9184 40.2703 54.0783 48.8103 56.2983 58.0203C58.5183 67.2303 65.9783 74.4603 70.2583 83.1103C75.9983 94.7103 77.2483 108.04 73.4783 120.43C73.0083 121.97 75.4184 122.63 75.8884 121.09C79.1784 110.27 78.8683 98.6203 75.0383 87.9603C71.2083 77.3003 62.3184 69.5203 59.1084 58.8703C52.8984 38.2603 76.3283 19.8003 64.8483 -0.309709C64.0483 -1.70971 61.8884 -0.449699 62.6884 0.950301V0.96031Z" fill="#53FF6E"/>
<path d="M83.3583 -0.379781C91.9383 18.7802 73.3984 34.9703 76.5084 54.0403C77.9484 62.8403 82.8783 69.2802 87.7283 76.4502C93.0083 84.2602 96.2383 93.1903 96.8883 102.61C97.5383 112.03 93.8183 121.1 88.8483 129.07C84.6383 135.82 79.9783 141.16 80.8783 149.62C81.7783 158.08 87.2683 163.66 91.7983 170.63C97.2083 178.94 99.9083 187.64 100.098 197.54C100.198 202.85 99.8383 208.19 98.4583 213.34C96.8783 219.24 93.7383 223.97 90.4783 229.04C87.8383 233.14 84.8583 237.43 83.1383 242.01C81.5983 246.11 81.4983 250.65 80.9683 254.96C80.7683 256.55 83.2783 256.54 83.4683 254.96C84.1083 249.74 84.4183 244.89 86.7983 240.12C89.1783 235.35 92.3383 230.72 95.3183 226.21C99.8783 219.33 102.048 211.48 102.508 203.27C102.968 195.06 102.338 187.03 99.1883 179.32C97.5583 175.34 95.4784 171.56 93.0384 168.02C90.2084 163.91 86.7783 160.37 84.9483 155.64C82.9083 150.38 82.4683 144.43 85.0883 139.27C87.1683 135.17 90.3683 131.58 92.6583 127.56C96.4483 120.92 99.2383 113.61 99.4383 105.89C99.6583 97.8002 97.5083 89.5303 93.9783 82.2803C89.8583 73.8203 82.8283 67.2403 80.0183 58.1003C76.3983 46.3303 81.4483 37.0802 85.1683 26.1902C88.3383 16.8902 89.6184 7.56027 85.5084 -1.63973C84.8484 -3.10973 82.6983 -1.83978 83.3483 -0.379781H83.3583Z" fill="#53FF6E"/>
<path d="M119.228 201.9C118.278 215.82 109.348 226.9 103.518 239.07C102.828 240.51 104.978 241.78 105.678 240.33C111.738 227.69 120.738 216.36 121.728 201.9C121.838 200.29 119.338 200.3 119.228 201.9Z" fill="#53FF6E"/>
<path d="M101.748 0.760329C107.558 10.8503 103.058 22.1103 99.2283 32.0303C95.3983 41.9503 92.4883 51.9603 96.4683 62.3303C97.0383 63.8203 99.4583 63.1704 98.8783 61.6704C90.7183 40.4404 115.718 20.0403 103.908 -0.499681C103.108 -1.88968 100.948 -0.639671 101.748 0.760329Z" fill="#53FF6E"/>
<path d="M138.698 201.541C136.218 214.381 129.678 225.561 123.228 236.761C122.428 238.161 124.588 239.421 125.388 238.021C131.938 226.641 138.578 215.251 141.108 202.201C141.408 200.631 139.008 199.951 138.698 201.541Z" fill="#53FF6E"/>
<path d="M120.138 -1.10979C127.618 11.8302 118.608 25.9902 114.568 38.5302C114.068 40.0602 116.488 40.7202 116.978 39.1902C121.288 25.8302 130.248 11.4002 122.298 -2.3698C121.498 -3.7598 119.328 -2.50979 120.138 -1.10979Z" fill="#53FF6E"/>
<path d="M154.958 198.9C155.458 212.72 150.058 225.35 141.088 235.7C140.038 236.91 141.798 238.69 142.858 237.47C152.248 226.64 157.978 213.39 157.458 198.91C157.398 197.31 154.898 197.3 154.958 198.91V198.9Z" fill="#53FF6E"/>
<path d="M138.518 0.0203388C144.878 11.0703 139.018 23.3903 134.878 34.1303C134.298 35.6303 136.718 36.2804 137.288 34.7904C141.728 23.2904 147.438 10.5103 140.678 -1.24968C139.878 -2.63968 137.718 -1.38967 138.518 0.010329V0.0203388Z" fill="#53FF6E"/>
<path d="M176.109 201.88C174.809 216.27 165.389 227.58 159.659 240.36C159.009 241.82 161.159 243.09 161.819 241.62C167.759 228.34 177.259 216.82 178.609 201.87C178.749 200.27 176.249 200.28 176.109 201.87V201.88Z" fill="#53FF6E"/>
<path d="M159.198 -1.3098C167.068 12.2502 157.298 26.7102 153.268 39.8502C152.798 41.3902 155.208 42.0502 155.678 40.5102C159.968 26.5202 169.708 11.8302 161.358 -2.57976C160.548 -3.96976 158.388 -2.70981 159.198 -1.31981V-1.3098Z" fill="#53FF6E"/>
<path d="M195.138 201.331C194.218 215.281 186.388 226.921 179.368 238.541C178.538 239.921 180.698 241.181 181.528 239.801C188.808 227.741 196.688 215.781 197.638 201.331C197.748 199.721 195.248 199.731 195.138 201.331Z" fill="#53FF6E"/>
<path d="M177.579 -0.179219C184.469 12.8608 176.339 26.0108 172.299 38.5408C171.809 40.0708 174.219 40.7308 174.709 39.2008C179.029 25.8008 187.049 12.3908 179.739 -1.44924C178.989 -2.86924 176.829 -1.60923 177.579 -0.189229V-0.179219Z" fill="#53FF6E"/>
<path d="M213.448 200.9C212.438 208.28 209.588 215.08 205.878 221.51C202.758 226.92 199.158 231.92 197.258 237.93C196.768 239.47 199.188 240.13 199.668 238.59C201.838 231.73 206.358 226.1 209.668 219.79C212.698 214.02 214.968 208.02 215.858 201.55C216.078 199.98 213.668 199.3 213.448 200.89V200.9Z" fill="#53FF6E"/>
<path d="M195.968 -2.03957C202.568 10.3404 196.498 25.0604 191.198 36.7604C190.538 38.2104 192.698 39.4904 193.358 38.0204C199.068 25.4004 205.228 10.0004 198.128 -3.30959C197.368 -4.72959 195.208 -3.46958 195.968 -2.04958V-2.03957Z" fill="#53FF6E"/>
<path d="M231.808 197.71C231.718 205.67 230.088 213.76 225.958 220.65C222.768 225.97 218.758 230.56 216.938 236.61C216.478 238.15 218.888 238.81 219.348 237.27C221.558 229.93 227.308 224.58 230.308 217.62C233.038 211.3 234.228 204.57 234.298 197.71C234.318 196.1 231.818 196.1 231.798 197.71H231.808Z" fill="#53FF6E"/>
<path d="M214.358 -0.909387C220.508 12.3606 212.898 25.7306 208.698 38.3406C208.188 39.8706 210.598 40.5306 211.108 39.0006C215.608 25.5006 223.058 11.9406 216.518 -2.17941C215.838 -3.63941 213.688 -2.3694 214.358 -0.919396V-0.909387Z" fill="#53FF6E"/>
<path d="M251.228 204.23C250.528 211.81 247.058 218.76 242.838 224.99C239.658 229.68 236.158 234.13 234.578 239.66C234.138 241.21 236.548 241.87 236.988 240.32C238.938 233.51 244.018 228.31 247.488 222.28C250.738 216.63 253.128 210.76 253.728 204.23C253.878 202.63 251.378 202.64 251.228 204.23Z" fill="#53FF6E"/>
<path d="M235.028 -2.23944C242.758 11.1206 232.988 25.6606 229.088 38.6306C228.628 40.1706 231.038 40.8306 231.498 39.2906C235.648 25.4806 245.398 10.6905 237.188 -3.50946C236.378 -4.89946 234.218 -3.63945 235.028 -2.24945V-2.23944Z" fill="#53FF6E"/>
<path d="M269.938 194.48C271.908 210.86 262.968 224.77 255.408 238.51C254.638 239.92 256.788 241.18 257.568 239.77C265.328 225.65 274.458 211.3 272.438 194.47C272.248 192.89 269.748 192.87 269.938 194.47V194.48Z" fill="#53FF6E"/>
<path d="M253.418 -1.10954C260.638 11.4005 252.388 25.1905 248.238 37.2905C247.718 38.8205 250.128 39.4705 250.648 37.9505C255.078 25.0205 263.258 10.9404 255.568 -2.37956C254.768 -3.76956 252.608 -2.51955 253.408 -1.11955L253.418 -1.10954Z" fill="#53FF6E"/>
<path d="M287.148 286.211C289.688 291.811 288.798 298.011 286.908 303.661C286.398 305.191 288.808 305.841 289.318 304.321C291.448 297.961 292.148 291.181 289.318 284.941C288.658 283.481 286.498 284.751 287.158 286.201L287.148 286.211Z" fill="#53FF6E"/>
<path d="M268.798 148.28C271.498 155.56 275.978 161.72 280.198 168.17C285.248 175.9 288.598 183.76 288.948 193.11C289.298 202.46 286.928 212.22 282.618 220.75C278.678 228.56 273.168 235.37 270.348 243.74C269.828 245.27 272.248 245.92 272.758 244.4C275.948 234.94 282.648 227.32 286.548 218.19C289.928 210.29 291.778 201.72 291.448 193.11C291.138 185.05 288.868 177.65 284.758 170.73C280.178 163.01 274.358 156.11 271.198 147.61C270.648 146.11 268.228 146.76 268.788 148.27L268.798 148.28Z" fill="#53FF6E"/>
<path d="M272.788 69.3304C281.098 81.5104 286.848 94.7704 284.088 109.79C282.838 116.6 280.108 123.08 276.278 128.84C273.118 133.59 269.598 137.81 268.628 143.59C268.368 145.16 270.778 145.84 271.038 144.25C272.228 137.13 277.628 132.06 280.968 125.91C284.308 119.76 286.298 113.48 287.048 106.76C288.648 92.3704 282.878 79.6904 274.948 68.0604C274.048 66.7404 271.878 67.9904 272.788 69.3204V69.3304Z" fill="#53FF6E"/>
<path d="M271.798 -2.97967C280.028 11.2203 268.658 26.4903 265.218 40.3703C264.828 41.9303 267.238 42.6003 267.628 41.0303C271.278 26.2803 282.698 10.8303 273.948 -4.24969C273.138 -5.63969 270.978 -4.37968 271.788 -2.98968L271.798 -2.97967Z" fill="#53FF6E"/>
<path d="M290.188 -1.83974C298.508 12.6803 286.378 28.0303 283.458 42.2103C280.808 55.1003 286.998 64.2302 293.918 74.4502C302.588 87.2502 305.728 102.46 300.978 117.43C298.808 124.26 294.808 129.42 290.958 135.3C287.958 139.88 285.968 144.91 287.418 150.41C288.748 155.45 292.198 159.57 295.278 163.64C299.648 169.41 303.038 175.59 304.968 182.6C308.818 196.63 306.748 211.2 299.678 223.82C294.218 233.56 286.198 243.67 287.738 255.54C289.188 266.66 298.448 274.15 303.498 283.58C310.788 297.2 302.748 309.85 296.918 322.28C294.488 327.46 292.298 332.87 291.788 338.62C291.148 345.94 293.848 352.65 296.678 359.25C297.308 360.72 299.468 359.45 298.838 357.99C295.628 350.51 293.068 343.15 294.888 334.95C296.278 328.66 299.378 322.9 302.208 317.16C306.628 308.22 311.128 298.4 308.158 288.27C304.918 277.23 294.678 270.02 291.118 259.18C286.448 244.96 298.308 232.83 304.018 220.95C308.918 210.75 310.458 199.21 308.678 188.05C307.768 182.3 305.968 176.69 303.318 171.49C300.238 165.45 295.408 160.69 292.048 154.85C288.018 147.84 289.568 141.69 294.008 135.27C297.808 129.77 301.358 124.53 303.398 118.09C307.278 105.84 306.358 92.0702 300.558 80.5702C297.528 74.5502 293.098 69.4102 289.698 63.6202C284.748 55.2002 284.348 46.8903 287.288 37.6503C291.458 24.5703 300.088 10.4003 292.348 -3.09975C291.548 -4.49975 289.388 -3.23974 290.188 -1.83974Z" fill="#53FF6E"/>
<path d="M312.378 141.93C306.518 153.91 314.038 163.59 320.648 173.31C330.538 187.84 331.718 206.16 325.088 222.37C319.798 235.3 307.858 247.37 310.908 262.4C312.448 270 317.598 275.88 321.998 282C328.158 290.56 330.618 299.47 327.258 309.77C324.228 319.06 318.148 327.09 315.588 336.57C313.098 345.82 315.418 355 319.038 363.61C319.648 365.07 322.078 364.43 321.448 362.95C317.598 353.81 315.468 344.45 318.778 334.78C321.378 327.18 325.848 320.39 328.768 312.92C331.458 306.04 332.468 298.4 330.048 291.28C327.628 284.16 322.378 278.81 318.318 272.76C313.078 264.95 311.518 256.78 314.828 247.88C317.618 240.35 322.478 233.84 325.938 226.63C332.368 213.21 333.768 197.33 328.808 183.2C324.198 170.07 307.138 158.32 314.548 143.19C315.248 141.75 313.098 140.48 312.388 141.93H312.378Z" fill="#53FF6E"/>
<path d="M312.678 2.82111C323.428 21.2411 302.158 39.0211 306.128 58.1011C307.868 66.4411 312.898 73.6011 317.278 80.7311C323.308 90.5511 326.428 100.621 325.508 112.221C325.378 113.821 327.878 113.821 328.008 112.221C328.798 102.351 326.918 92.6811 322.118 83.9811C317.318 75.2811 310.558 67.3211 308.548 57.4311C304.578 37.9911 326.098 20.8211 314.848 1.55109C314.038 0.161089 311.878 1.4211 312.688 2.8111L312.678 2.82111Z" fill="#53FF6E"/>
<path d="M329.988 160.15C337.238 174.13 348.888 185.6 348.058 202.46C347.228 219.32 336.918 231.95 330.738 246.64C325.438 259.23 332.338 270.98 339.088 281.43C343.508 288.28 348.488 295.79 347.848 304.35C347.288 311.92 343.038 319.37 339.888 326.11C333.928 338.89 328.928 352.22 337.558 365.04C338.448 366.37 340.618 365.12 339.718 363.78C330.268 349.74 338.448 335.43 344.588 321.92C347.198 316.18 350.178 309.89 350.378 303.49C350.578 297.09 347.808 290.62 344.458 285.18C340.688 279.07 336.348 273.23 333.588 266.56C330.028 257.97 331.338 250.77 335.478 242.67C341.968 229.95 349.898 217.12 350.568 202.45C351.358 185.06 339.658 173.36 332.158 158.88C331.418 157.45 329.258 158.71 329.998 160.14L329.988 160.15Z" fill="#53FF6E"/>
<path d="M338.988 85.2707C342.878 93.9607 344.588 103.081 344.018 112.591C343.918 114.201 346.418 114.191 346.518 112.591C347.108 102.631 345.218 93.1106 341.138 84.0106C340.478 82.5406 338.328 83.8107 338.978 85.2707H338.988Z" fill="#53FF6E"/>
<path d="M331.068 3.96076C334.248 9.43076 334.278 15.5107 333.088 21.5707C332.778 23.1407 335.188 23.8108 335.498 22.2308C336.828 15.5108 336.758 8.75074 333.228 2.69074C332.418 1.30074 330.258 2.56075 331.068 3.95075V3.96076Z" fill="#53FF6E"/>
<path d="M348.138 160.21C357.408 172.45 367.778 184.52 367.158 200.84C366.838 209.2 364.258 217.9 360.338 225.28C357.138 231.3 353.248 236.95 350.548 243.24C345.638 254.67 347.738 265.55 354.338 275.86C358.018 281.6 364.018 287.12 365.728 293.82C367.848 302.15 364.448 311.45 361.348 319.11C355.548 333.46 348.488 347.99 355.948 363.17C356.658 364.61 358.818 363.35 358.108 361.91C350.218 345.85 359.998 330.55 365.368 315.51C367.678 309.03 369.488 302.11 368.508 295.19C367.598 288.77 363.318 284.24 359.638 279.15C355.448 273.35 351.458 266.9 350.318 259.71C349.108 252.06 352.208 244.83 355.808 238.25C362.518 225.97 369.458 214.43 369.698 199.92C369.968 183.53 359.658 171.3 350.298 158.94C349.338 157.67 347.168 158.92 348.138 160.2V160.21Z" fill="#53FF6E"/>
<path d="M357.698 83.9707C362.138 92.4907 363.838 101.581 362.708 111.121C362.518 112.711 365.018 112.701 365.208 111.121C366.388 101.171 364.478 91.5707 359.858 82.7007C359.118 81.2707 356.958 82.5407 357.698 83.9607V83.9707Z" fill="#53FF6E"/>
<path d="M349.448 2.09064C353.048 8.31064 352.608 15.2106 350.928 21.9506C350.538 23.5106 352.948 24.1807 353.338 22.6107C355.178 15.2107 355.528 7.61062 351.598 0.82062C350.788 -0.56938 348.628 0.69063 349.438 2.08063L349.448 2.09064Z" fill="#53FF6E"/>
<path d="M366.238 159.78C369.888 166.66 374.868 172.59 379.228 179.01C384.568 186.86 387.078 195.28 386.128 204.82C385.258 213.51 382.348 221.48 377.478 228.7C373.628 234.4 369.198 239.89 366.858 246.45C362.558 258.53 367.208 268.92 374.028 278.92C377.968 284.7 383.288 290.8 384.428 297.88C385.848 306.66 380.938 314.48 377.268 322.07C370.788 335.48 364.758 350.84 374.318 364.32C375.238 365.62 377.408 364.37 376.478 363.06C366.078 348.41 375.339 331.79 382.149 317.77C385.109 311.68 387.808 305.57 387.078 298.62C386.418 292.39 382.748 287.2 379.288 282.15C375.588 276.75 371.458 271.38 369.168 265.18C366.458 257.87 367.458 250.21 370.938 243.33C374.418 236.45 379.278 231.2 382.878 224.78C386.228 218.8 387.988 211.62 388.618 204.83C389.378 196.66 387.958 188.36 383.668 181.3C378.908 173.47 372.698 166.66 368.388 158.53C367.638 157.11 365.478 158.37 366.228 159.79L366.238 159.78Z" fill="#53FF6E"/>
<path d="M376.088 86.1009C380.068 94.0109 381.568 102.431 381.028 111.241C380.928 112.851 383.428 112.841 383.528 111.241C384.098 101.991 382.428 93.1209 378.248 84.8409C377.528 83.4009 375.368 84.6709 376.088 86.1009Z" fill="#53FF6E"/>
<path d="M367.838 3.22053C371.708 9.95053 370.998 17.2705 368.928 24.4705C368.478 26.0205 370.888 26.6805 371.338 25.1305C373.608 17.2805 374.198 9.26051 369.998 1.95051C369.198 0.560515 367.038 1.81052 367.838 3.21052V3.22053Z" fill="#53FF6E"/>
<path d="M383.808 157.061C386.378 163.651 391.468 168.411 395.188 174.311C399.938 181.841 403.378 190.381 404.088 199.311C405.448 216.311 394.608 228.301 388.068 242.841C382.588 255.021 383.568 266.341 391.678 277.021C396.568 283.461 402.218 289.311 402.868 297.811C403.458 305.611 400.058 312.891 396.578 319.651C393.098 326.411 389.018 332.801 388.108 340.161C387.078 348.511 389.408 356.601 393.178 363.981C393.908 365.411 396.068 364.151 395.338 362.721C391.138 354.511 388.488 344.471 391.758 335.471C394.258 328.611 398.228 322.421 401.248 315.801C406.678 303.891 406.808 292.611 398.688 281.931C394.168 275.981 388.878 270.461 387.288 262.901C385.628 254.961 388.498 247.171 392.108 240.211C398.458 227.981 406.758 216.971 406.708 202.561C406.678 194.341 404.328 186.291 400.678 178.971C396.678 170.961 389.438 164.681 386.208 156.391C385.628 154.911 383.208 155.551 383.798 157.051L383.808 157.061Z" fill="#53FF6E"/>
<path d="M386.698 2.89102C393.298 12.031 387.968 23.791 384.608 33.241C381.798 41.131 378.738 49.451 379.548 57.971C380.358 66.491 386.118 72.931 390.648 80.221C396.328 89.351 400.188 99.341 399.678 110.231C399.598 111.841 402.098 111.831 402.178 110.231C402.608 100.971 400.038 92.201 395.738 84.051C390.658 74.441 381.868 66.601 381.918 55.041C381.958 45.341 386.428 36.191 389.378 27.141C392.168 18.581 394.548 9.51102 388.858 1.64102C387.928 0.351016 385.758 1.59103 386.698 2.90103V2.89102Z" fill="#53FF6E"/>
<path d="M403.758 160.791C414.438 172.601 422.998 187.561 422.608 203.941C422.408 212.301 419.298 220.181 415.398 227.461C412.108 233.591 407.538 239.281 404.858 245.681C402.638 250.991 400.598 256.851 401.948 262.671C403.488 269.301 409.218 275.081 412.988 280.591C417.398 287.041 421.198 293.931 421.678 301.901C422.158 309.871 417.288 316.231 414.358 323.081C408.668 336.351 403.718 351.681 411.568 365.101C412.378 366.491 414.538 365.231 413.728 363.841C405.298 349.421 412.628 331.771 419.478 318.191C422.368 312.461 424.748 306.851 424.048 300.311C423.348 293.771 420.728 288.021 417.298 282.581C413.428 276.451 407.168 270.371 404.788 263.471C402.098 255.691 406.658 246.851 410.658 240.411C418.168 228.311 425.798 215.481 425.068 200.721C424.278 184.801 415.998 170.591 405.528 159.021C404.448 157.821 402.678 159.601 403.758 160.791Z" fill="#53FF6E"/>
<path d="M405.078 4.02033C415.138 21.3603 396.468 38.9003 397.778 56.7403C398.438 65.7203 403.648 72.7403 408.558 79.9403C415.088 89.5203 418.498 99.6803 418.058 111.35C417.998 112.96 420.498 112.96 420.558 111.35C420.918 101.73 418.908 92.2503 414.058 83.8703C408.328 73.9803 399.698 65.6504 400.218 53.3604C400.948 36.1304 417.238 19.9903 407.238 2.75031C406.428 1.36031 404.268 2.62032 405.078 4.01032V4.02033Z" fill="#53FF6E"/>
<path d="M422.838 160.621C432.518 172.561 441.898 187.771 440.478 203.811C439.718 212.451 436.818 221.061 432.838 228.721C429.438 235.261 424.548 240.931 421.838 247.831C416.728 260.841 425.068 270.221 431.878 280.561C435.548 286.121 438.938 292.161 439.298 298.971C439.678 306.211 436.598 313.631 434.018 320.261C428.508 334.451 422.778 348.541 429.948 363.241C430.658 364.691 432.808 363.421 432.108 361.981C424.478 346.331 432.808 331.241 438.148 316.381C440.288 310.421 442.348 304.031 441.698 297.621C441.158 292.281 438.958 287.331 436.228 282.771C433.028 277.411 429.138 272.491 425.948 267.121C420.588 258.071 422.788 249.771 428.028 241.241C435.638 228.851 443.428 215.611 443.098 200.461C442.748 184.731 434.218 170.711 424.598 158.851C423.588 157.601 421.828 159.381 422.828 160.621H422.838Z" fill="#53FF6E"/>
<path d="M429.728 82.6509C434.278 91.2709 436.948 100.281 436.408 110.091C436.318 111.701 438.818 111.691 438.908 110.091C439.468 99.8909 436.608 90.3408 431.878 81.3808C431.128 79.9608 428.968 81.2208 429.718 82.6408L429.728 82.6509Z" fill="#53FF6E"/>
<path d="M423.468 2.16068C425.968 7.53068 426.158 13.2807 425.148 19.0407C424.868 20.6107 427.278 21.2907 427.558 19.7007C428.698 13.2207 428.438 6.92067 425.628 0.900672C424.948 -0.559328 422.788 0.710682 423.468 2.16068Z" fill="#53FF6E"/>
<path d="M440.378 158.84C450.438 170.84 458.428 185.69 459.018 201.64C459.318 209.71 457.518 217.45 453.848 224.63C450.588 231.01 446.488 236.94 443.468 243.45C440.948 248.89 439.198 254.7 439.448 260.75C439.698 266.8 442.718 271.96 446.278 276.63C450.698 282.43 456.288 287.78 457.848 295.19C459.648 303.78 455.818 312.34 452.068 319.84C448.828 326.31 444.828 332.62 443.818 339.91C442.638 348.4 444.868 356.69 448.348 364.38C449.008 365.84 451.168 364.57 450.508 363.12C446.548 354.4 444.358 344.49 447.478 335.13C449.828 328.08 454.218 321.76 457.118 314.93C459.638 309 461.488 302.56 460.528 296.06C459.568 289.56 456.038 284.78 452.148 279.96C447.168 273.8 441.818 267.59 441.928 259.2C442.028 251.25 445.688 244.05 449.548 237.3C456.678 224.84 462.748 213.36 461.308 198.51C459.798 182.99 452.028 168.85 442.148 157.07C441.118 155.84 439.348 157.61 440.378 158.84Z" fill="#53FF6E"/>
<path d="M447.408 82.5812C452.078 90.7412 454.898 99.3411 454.898 108.801C454.898 110.411 457.398 110.411 457.398 108.801C457.398 98.9511 454.438 89.8212 449.568 81.3212C448.768 79.9212 446.608 81.1812 447.408 82.5812Z" fill="#53FF6E"/>
<path d="M441.858 3.29059C445.208 9.04059 445.198 15.3905 443.778 21.7405C443.428 23.3105 445.838 23.9806 446.188 22.4006C447.748 15.4006 447.708 8.36058 444.018 2.03058C443.208 0.640581 441.048 1.90059 441.858 3.29059Z" fill="#53FF6E"/>
<path d="M462.288 159.71C464.288 165.89 469.478 170.19 472.828 175.79C477.208 183.12 479.868 191.25 479.608 199.84C479.088 216.98 470.458 232.38 462.908 247.3C460.378 252.3 458.718 257.2 459.888 262.84C461.058 268.48 464.498 273.41 467.898 277.97C472.488 284.12 478.068 290.15 478.808 298.14C479.598 306.67 475.818 314.87 472.318 322.39C469.138 329.2 465.048 336.34 463.678 343.78C463.088 346.99 463.098 350.26 464.078 353.39C464.658 355.24 465.668 356.81 466.518 358.53C467.648 360.82 467.918 363.35 468.908 365.72C469.518 367.18 471.938 366.54 471.318 365.06C470.038 361.98 469.648 358.97 468.008 356.06C465.538 351.68 465.328 346.99 466.588 342.2C468.548 334.75 472.698 327.65 475.858 320.65C478.718 314.3 481.378 307.59 481.398 300.53C481.418 293.91 478.798 288.56 475.008 283.3C471.218 278.04 467.058 273.43 464.278 267.76C460.318 259.68 462.708 253.17 466.568 245.61C473.398 232.23 480.508 218.44 481.898 203.24C482.598 195.55 481.448 188.16 478.358 181.07C476.598 177.03 474.348 173.23 471.778 169.65C469.208 166.07 466.028 163.14 464.698 159.03C464.208 157.51 461.788 158.16 462.288 159.69V159.71Z" fill="#53FF6E"/>
<path d="M468.668 82.4402C472.888 90.4802 475.918 98.7102 475.558 107.92C475.498 109.53 477.998 109.53 478.058 107.92C478.428 98.3202 475.228 89.5702 470.828 81.1802C470.078 79.7502 467.918 81.0202 468.668 82.4402Z" fill="#53FF6E"/>
<path d="M462.528 0.490417C465.488 6.74042 465.538 13.3704 463.918 20.0004C463.538 21.5604 465.948 22.2305 466.328 20.6605C468.118 13.3305 467.948 6.11046 464.688 -0.779541C463.998 -2.22954 461.848 -0.969531 462.528 0.480469V0.490417Z" fill="#53FF6E"/>
<path d="M480.378 160.18C483.248 166.77 488.328 171.69 492.168 177.66C496.818 184.91 498.178 194.26 497.988 202.72C497.788 211.95 494.758 220.54 490.668 228.73C487.298 235.47 482.818 241.77 479.728 248.63C474.198 260.95 481.538 272.68 488.528 282.56C493.138 289.08 498.358 295.49 497.968 303.93C497.618 311.68 493.058 319.35 489.848 326.24C483.568 339.74 478.798 353.52 487.388 367.17C488.238 368.53 490.408 367.28 489.548 365.91C480.118 350.94 488.078 336.19 494.618 321.89C497.298 316.02 500.378 309.73 500.468 303.17C500.558 296.61 497.718 291.42 494.128 286.21C490.198 280.5 485.768 274.99 482.848 268.66C478.868 260.03 480.178 252.75 484.738 244.68C492.148 231.56 500.138 218.23 500.468 202.72C500.628 194.97 499.508 186.55 496.078 179.52C492.438 172.06 485.848 166.58 482.518 158.91C481.878 157.44 479.728 158.71 480.358 160.17L480.378 160.18Z" fill="#53FF6E"/>
<path d="M486.428 81.9698C491.188 89.9298 494.288 98.4497 493.968 107.83C493.908 109.44 496.408 109.44 496.468 107.83C496.808 98.0597 493.558 89.0098 488.588 80.7097C487.768 79.3298 485.598 80.5898 486.428 81.9698Z" fill="#53FF6E"/>
<path d="M480.918 1.64054C484.178 7.66054 484.028 14.1905 482.438 20.6805C482.058 22.2405 484.468 22.9106 484.848 21.3406C486.598 14.1806 486.658 6.97052 483.068 0.37052C482.298 -1.03948 480.138 0.22053 480.908 1.63053L480.918 1.64054Z" fill="#53FF6E"/>
<path d="M499.608 160.1C503.238 167.24 508.518 173.42 511.808 180.74C515.308 188.52 516.798 197.13 516.108 205.64C515.458 213.64 513.018 221.31 509.168 228.33C505.928 234.24 501.968 239.76 499.308 245.98C494.358 257.56 496.668 267.64 504.298 277.29C509.218 283.51 514.828 289.39 515.388 297.75C515.948 306.11 511.818 314.75 508.108 322.36C504.848 329.04 501.798 335.34 501.258 342.88C500.718 350.42 502.358 358.36 505.788 365.29C506.498 366.73 508.658 365.47 507.948 364.03C504.078 356.21 502.638 347.06 504.338 338.45C505.868 330.69 510.428 323.81 513.548 316.63C519.028 304.02 519.528 292.65 510.858 281.47C506.618 276 501.438 270.84 499.588 263.96C497.488 256.15 500.568 248.26 504.328 241.5C510.978 229.53 517.808 218.95 518.658 204.81C519.138 196.83 517.828 188.74 514.768 181.35C511.418 173.27 505.698 166.6 501.748 158.84C501.018 157.41 498.858 158.67 499.588 160.1H499.608Z" fill="#53FF6E"/>
<path d="M495.678 65.5599C504.448 77.3999 511.418 90.3499 512.358 105.32C512.458 106.92 514.958 106.93 514.858 105.32C513.888 89.8799 506.898 76.5299 497.838 64.2999C496.888 63.0199 494.718 64.2699 495.678 65.5599Z" fill="#53FF6E"/>
<path d="M499.298 -0.249895C506.308 12.1001 498.808 25.4701 494.538 37.4101C493.998 38.9301 496.408 39.5801 496.948 38.0701C501.508 25.3301 508.898 11.6001 501.458 -1.5099C500.668 -2.9099 498.498 -1.64989 499.298 -0.249895Z" fill="#53FF6E"/>
<path d="M516.338 159.09C525.978 170.4 533.608 184.27 534.878 199.31C536.258 215.61 528.078 228.36 519.678 241.53C512.598 252.63 513.738 265.82 521.658 276.27C526.508 282.67 532.528 289.21 533.618 297.4C534.708 305.59 532.138 313.1 529.068 320.31C526.028 327.45 521.138 334.68 519.788 342.39C518.358 350.55 521.178 358.63 524.058 366.14C524.628 367.63 527.048 366.98 526.468 365.48C523.098 356.71 519.938 347.29 523.678 338.1C526.438 331.3 530.048 324.87 532.698 318.02C535.148 311.67 536.918 304.88 536.228 298.03C535.958 295.36 535.338 292.75 534.338 290.26C532.798 286.42 530.448 284.36 528.178 281.04C523.908 274.83 519.248 269.25 517.728 261.61C515.738 251.6 520.958 244.32 525.998 236.3C533.698 224.04 538.978 211.74 537.138 196.98C535.278 182.1 527.718 168.59 518.118 157.32C517.078 156.09 515.308 157.87 516.348 159.09H516.338Z" fill="#53FF6E"/>
<path d="M517.688 0.889998C527.688 18.37 509.218 36.12 510.378 54.07C510.968 63.16 516.078 70.21 521.018 77.53C527.358 86.93 530.858 96.89 530.708 108.32C530.688 109.93 533.188 109.93 533.208 108.32C533.328 98.9 531.248 89.7 526.508 81.51C520.758 71.55 512.148 63.04 512.848 50.67C513.828 33.38 529.728 16.91 519.838 -0.380022C519.038 -1.78002 516.878 -0.520012 517.678 0.879988L517.688 0.889998Z" fill="#53FF6E"/>
<path d="M537.288 158.98C541.658 165.93 546.658 172.37 550.468 179.68C554.278 186.99 556.108 196.05 555.598 204.63C554.658 220.42 544.488 231.11 538.538 244.99C536.428 249.92 535.058 255.22 535.718 260.61C536.538 267.41 540.938 272.56 544.738 277.99C549.278 284.48 554.099 291.6 554.819 299.72C555.539 307.84 551.909 315.24 548.379 322.22C541.339 336.14 537.378 350.35 544.858 365.1C545.588 366.54 547.749 365.27 547.019 363.84C542.999 355.92 542.108 346.97 544.248 338.36C546.048 331.1 550.148 324.74 553.218 318C555.838 312.26 557.829 306.11 557.319 299.72C556.809 293.33 553.799 287.27 550.389 281.89C546.509 275.77 540.438 269.8 538.618 262.67C536.708 255.17 539.748 247.59 543.218 241.06C549.668 228.92 557.228 218.88 558.098 204.64C558.578 196.74 557.218 188.71 554.058 181.45C550.318 172.85 544.389 165.61 539.449 157.73C538.599 156.37 536.428 157.62 537.288 158.99V158.98Z" fill="#53FF6E"/>
<path d="M547.389 87.2802C550.479 94.5202 551.688 102.13 551.298 109.97C551.218 111.58 553.718 111.57 553.798 109.97C554.208 101.65 552.808 93.6702 549.548 86.0102C548.918 84.5302 546.769 85.8102 547.389 87.2702V87.2802Z" fill="#53FF6E"/>
<path d="M538.358 1.23082C542.518 8.48082 541.458 16.3708 539.138 24.0408C538.668 25.5808 541.078 26.2408 541.548 24.7008C544.068 16.3708 545.008 7.7908 540.518 -0.0392013C539.718 -1.4392 537.558 -0.179191 538.358 1.22081V1.23082Z" fill="#53FF6E"/>
<path d="M556.568 161.211C559.498 167.851 564.948 172.501 568.628 178.631C572.628 185.301 574.808 193.061 574.988 200.821C575.168 208.581 573.458 216.161 570.348 223.161C567.398 229.791 562.538 234.911 559.098 241.181C552.698 252.841 553.078 265.531 560.578 276.451C565.298 283.311 570.188 289.251 572.188 297.581C573.158 301.611 573.588 305.871 572.468 309.881C571.348 313.891 568.308 317.911 566.338 321.831C559.198 336.081 556.428 351.321 563.228 366.241C563.898 367.701 566.048 366.431 565.388 364.981C557.728 348.191 563.458 331.251 572.268 316.191C573.788 313.591 575.168 311.671 575.468 308.651C575.768 305.631 575.638 302.411 575.108 299.331C573.958 292.641 570.948 286.331 566.988 280.861C561.928 273.881 556.728 267.511 556.958 258.401C557.188 249.291 560.698 242.771 565.768 236.011C573.408 225.821 577.978 212.841 577.468 200.051C577.198 193.191 575.458 186.451 572.388 180.311C568.678 172.901 562.088 167.561 558.728 159.961C558.078 158.491 555.928 159.761 556.568 161.221V161.211Z" fill="#53FF6E"/>
<path d="M564.818 85.7904C569.108 94.3604 570.479 103.56 569.449 113.05C569.279 114.65 571.779 114.64 571.949 113.05C573.029 103.12 571.458 93.4704 566.978 84.5304C566.258 83.0904 564.098 84.3604 564.818 85.7904Z" fill="#53FF6E"/>
<path d="M556.749 2.37085C560.329 8.54085 560.309 15.3109 558.699 22.0809C558.329 23.6409 560.739 24.3108 561.109 22.7408C562.879 15.3208 562.828 7.84089 558.908 1.10089C558.098 -0.289107 555.939 0.970903 556.749 2.3609V2.37085Z" fill="#53FF6E"/>
<path d="M574.998 160.001C584.598 171.871 592.148 186.641 591.768 202.261C591.388 217.881 581.658 230.051 575.758 243.931C573.478 249.301 572.248 255.081 573.138 260.911C574.128 267.401 577.958 272.801 581.688 278.021C586.018 284.071 591.048 290.631 591.748 298.291C592.508 306.541 588.548 315.351 584.978 322.581C581.828 328.971 578.298 335.151 577.278 342.311C576.178 350.071 577.688 357.601 581.608 364.351C582.418 365.741 584.578 364.481 583.768 363.091C579.238 355.311 578.228 346.191 580.888 337.571C583.078 330.471 587.288 324.151 590.068 317.281C592.848 310.411 595.148 303.701 594.018 296.571C593.038 290.401 589.618 284.991 586.118 279.961C582.198 274.321 577.368 268.751 575.838 261.881C573.808 252.791 577.978 244.491 582.178 236.731C588.578 224.901 594.948 212.641 594.198 198.781C593.378 183.641 586.128 169.811 576.758 158.221C575.748 156.971 573.988 158.751 574.988 159.991L574.998 160.001Z" fill="#53FF6E"/>
<path d="M582.818 83.791C586.888 92.331 588.568 101.371 587.888 110.811C587.768 112.421 590.268 112.411 590.388 110.811C591.098 100.941 589.238 91.4609 584.978 82.5309C584.288 81.0809 582.128 82.351 582.818 83.791Z" fill="#53FF6E"/>
<path d="M575.138 0.490523C579.288 7.80052 578.108 15.8705 575.738 23.5605C575.268 25.1005 577.678 25.7606 578.148 24.2206C580.718 15.8606 581.768 7.11056 577.288 -0.779436C576.498 -2.17944 574.338 -0.919426 575.128 0.480574L575.138 0.490523Z" fill="#53FF6E"/>
<path d="M589.728 154.431C596.088 166.301 605.938 176.731 609.798 189.831C614.458 205.611 606.218 220.951 598.558 234.301C595.308 239.971 591.358 245.551 590.578 252.201C589.798 258.851 591.948 264.911 594.888 270.591C598.298 277.181 602.718 283.171 606.618 289.461C608.818 293.001 610.598 296.861 611.088 301.021C611.758 306.711 608.888 311.061 606.508 315.951C598.978 331.401 593.848 348.371 599.888 365.201C600.428 366.701 602.848 366.051 602.298 364.541C595.738 346.281 602.898 328.721 611.118 312.351C617.918 298.811 608.198 287.601 601.168 276.411C596.908 269.631 592.478 262.031 592.948 253.741C593.418 245.451 599.588 237.751 603.538 230.581C609.988 218.891 615.868 205.471 612.908 191.871C609.748 177.321 598.758 165.991 591.888 153.171C591.128 151.751 588.968 153.011 589.728 154.431Z" fill="#53FF6E"/>
<path d="M598.378 80.1203C606.198 92.6703 607.008 107.51 603.008 121.51C602.568 123.06 604.978 123.72 605.418 122.17C609.598 107.54 608.698 91.9503 600.538 78.8503C599.688 77.4903 597.528 78.7403 598.378 80.1103V80.1203Z" fill="#53FF6E"/>
<path d="M593.519 1.63019C597.539 8.67019 596.549 16.4102 594.349 23.8702C593.889 25.4202 596.309 26.0802 596.759 24.5302C599.149 16.4002 600.019 7.98023 595.669 0.360227C594.869 -1.03977 592.709 0.220175 593.509 1.62018L593.519 1.63019Z" fill="#53FF6E"/>
<path d="M614.188 -0.470096C622.508 14.1999 610.378 29.6899 607.458 44.0299C604.738 57.3799 611.338 66.6099 618.348 77.2199C627.088 90.4399 629.798 106.42 624.458 121.55C620.608 132.46 607.578 142.11 611.838 154.69C613.698 160.17 617.828 164.48 621.098 169.12C625.168 174.9 628.028 181.39 629.568 188.29C632.578 201.73 630.318 215.44 623.658 227.43C618.148 237.36 610.038 247.7 611.768 259.78C613.358 270.91 622.638 278.46 627.618 288C635.008 302.19 626.108 315.26 620.308 328.14C617.948 333.39 615.918 338.9 615.678 344.7C615.398 351.58 618.028 357.95 620.668 364.16C621.298 365.64 623.448 364.36 622.828 362.9C619.828 355.84 617.218 348.75 618.608 340.97C619.748 334.59 622.738 328.72 625.568 322.95C630.078 313.75 635.058 303.71 632.358 293.21C629.498 282.08 619.518 274.79 615.508 264.24C610.128 250.07 621.308 237.76 627.318 225.91C632.598 215.5 634.448 203.7 632.808 192.16C632.068 186.99 630.648 181.94 628.538 177.16C625.778 170.91 621.518 165.95 617.708 160.37C612.808 153.18 612.308 146.72 617.118 139.31C620.758 133.69 624.618 128.63 626.868 122.23C631.158 110.04 630.648 96.1499 625.308 84.3699C622.248 77.6299 617.388 72.0099 613.688 65.6599C608.728 57.1299 608.328 48.7699 611.278 39.4299C615.448 26.2099 624.078 11.9199 616.338 -1.71009C615.548 -3.11009 613.388 -1.85014 614.178 -0.450137L614.188 -0.470096Z" fill="#53FF6E"/>
</g>
</svg>
