<svg width="67" height="96" viewBox="0 0 67 96" fill="none" xmlns="http://www.w3.org/2000/svg">
<path d="M6.66005 45.87C18.1101 32.82 30.7 20.8999 44.37 10.1899C48.17 7.20993 42.8201 1.94001 39.0701 4.89001C25.4101 15.6 12.8101 27.5199 1.36005 40.5699C-1.80995 44.1899 3.47005 49.51 6.66005 45.87Z" fill="#53FF6E"/>
<path d="M44.81 6.97043L45.24 5.95041L38.39 3.06052C37.79 6.81052 34.39 8.47045 35.46 12.8604C36.72 18.0404 39.41 23.2304 41.33 28.2104C42.64 31.6004 47.37 31.9304 48.56 28.2104C51.41 19.3204 59.45 13.2104 64.63 5.71042C66.72 2.68042 63.27 -0.199586 60.4 0.200414C54.91 0.970414 49.47 1.92051 44.05 3.05051L46.04 10.2805C47.04 9.96049 48.04 9.92049 49.05 10.1505C53.62 10.6505 53.6 4.23049 50.05 2.78049C47.9 1.91049 45.83 1.34046 43.54 1.00046L41.55 8.23044C44.71 8.69044 47.87 9.15046 51.02 9.62046V2.39048C46.1 3.80048 42.57 7.35043 41.35 12.3404C40.43 16.0904 44.84 18.4505 47.62 15.9905C49.36 14.4505 50.39 12.6804 51.03 10.4504C52.04 6.89041 47.36 4.08051 44.76 6.80051C42.7 8.96051 40.74 11.8504 41.04 14.9804C41.21 16.8104 42.12 17.9304 43.79 18.6004C48.17 20.3504 52.41 14.9204 54.06 11.5704C56.18 7.25041 50.24 3.71049 47.58 7.78049C45.98 10.2305 44.88 12.7604 44.14 15.5904C42.92 20.2604 50.15 22.2604 51.37 17.5804C51.95 15.3404 52.8 13.4905 54.05 11.5605L47.57 7.77048C47.46 7.98048 45.3 11.1704 45.77 11.3504L48.52 14.9704C48.59 13.7904 49.1 12.8304 50.05 12.0904L43.78 8.4404C43.64 9.4204 43.15 10.1605 42.3 10.6705L48.57 14.3204C49.18 11.8404 50.54 10.3104 53 9.61045C56.28 8.67045 56.85 2.94047 53 2.38047C49.84 1.92047 46.68 1.46045 43.53 0.990453C38.81 0.300453 36.77 7.52043 41.54 8.22043C43.84 8.56043 45.9 9.12046 48.05 10.0005L49.05 2.63047C47.28 2.44047 45.77 2.61049 44.04 3.03049C39.33 4.19049 41.34 11.2405 46.03 10.2605C51.45 9.13047 56.9 8.1805 62.38 7.4105L58.15 1.90049C52.47 10.1305 44.47 16.3804 41.32 26.2004H48.55C46.94 22.0304 45.12 17.8905 43.71 13.6505C42.88 11.1705 42.75 10.8705 44.07 8.77048C44.83 7.56048 45.39 6.46051 45.62 5.05051C46.23 1.26051 40.58 -2.0895 38.77 2.1605L38.34 3.18052C36.47 7.57052 42.93 11.4004 44.82 6.97043H44.81Z" fill="#53FF6E"/>
<path d="M1.14004 48.1805C12.51 61.4905 16.85 79.1005 26.68 93.4205C29.4 97.3705 35.9 93.6304 33.16 89.6304C22.93 74.7304 18.3 56.7504 6.45004 42.8704C3.31004 39.1904 -1.96996 44.5205 1.15004 48.1705L1.14004 48.1805Z" fill="#53FF6E"/>
<path d="M21.7801 94.531C24.4701 94.081 27.1701 93.781 29.9001 93.661C32.0601 93.561 35.0701 93.1309 37.1001 93.9709L34.8601 92.2509L35.3301 92.9609L34.9501 90.0709L34.7801 90.8509C33.7701 95.5609 41.0001 97.5709 42.0101 92.8409C44.2301 82.4709 25.1101 86.401 19.7801 87.301C15.0301 88.101 17.0401 95.331 21.7701 94.531H21.7801Z" fill="#53FF6E"/>
<path d="M47.19 27.5606L51.37 23.7606C52.82 22.4406 52.81 19.7805 51.37 18.4605C49.81 17.0305 47.62 17.0505 46.07 18.4605L41.89 22.2606C40.44 23.5806 40.45 26.2406 41.89 27.5606C43.45 28.9906 45.64 28.9706 47.19 27.5606Z" fill="#53FF6E"/>
<path d="M47.2001 30.3408C54.2101 22.9608 60.33 14.8608 65.49 6.09084C67.94 1.92084 61.4601 -1.85908 59.0101 2.30092C54.1601 10.5409 48.4801 18.1009 41.8901 25.0309C38.5601 28.5309 43.8601 33.8408 47.1901 30.3308L47.2001 30.3408Z" fill="#53FF6E"/>
</svg>
