<svg width="167" height="56" viewBox="0 0 167 56" fill="none" xmlns="http://www.w3.org/2000/svg">
<path d="M24.28 18.6604C24.94 18.8004 25.61 18.9304 26.28 19.0404L24.56 16.8004C25.11 19.5004 24.46 22.9104 24.38 25.6704C24.29 28.7504 24.16 31.8304 24.01 34.9104L31.38 33.9104C30.67 28.6904 30.42 23.1004 28.98 18.0304C27.66 13.3904 20.42 15.3604 21.75 20.0204C23.19 25.0904 23.44 30.6804 24.15 35.9004C24.74 40.2604 31.32 38.9104 31.52 34.9004C31.78 29.5104 31.97 24.1204 32.04 18.7204C32.1 14.0704 30.87 12.3204 26.29 11.4104C21.71 10.5004 19.56 17.7004 24.3 18.6404L24.28 18.6604Z" fill="#FF46A0"/>
<path d="M48.27 13.5704C46.61 16.4704 47.5601 20.1703 47.6701 23.3603C47.8101 27.6203 47.7901 31.8904 47.6701 36.1504H55.1701C55.3501 29.7204 55.1901 23.3104 54.7001 16.8904C54.4001 12.9804 48.08 11.4404 47.33 15.8904C46.17 22.8204 47.01 30.1404 47.19 37.1304C47.31 41.9704 54.45 41.9404 54.69 37.1304C54.85 33.8604 55.02 30.5904 55.18 27.3304C55.26 25.7004 55.3401 24.0603 55.4201 22.4303L55.5 20.8003C55.75 18.9803 55.71 18.6404 55.36 19.7704L52.71 20.8703L53.4501 20.8003L49.7001 17.0503C49.7701 23.0803 49.84 29.1204 49.9 35.1504H57.4C57.3 28.5404 57.19 21.9404 57.09 15.3304C57.06 13.2304 55.4 11.6804 53.34 11.5804C51.67 11.5004 50.15 11.6704 48.51 11.9504C43.76 12.7704 45.78 20.0003 50.5 19.1803C51.44 19.0003 52.39 18.9704 53.33 19.0804L49.58 15.3304C49.68 21.9404 49.7901 28.5404 49.8901 35.1504C49.9701 39.9704 57.4401 39.9904 57.3901 35.1504C57.3201 29.1204 57.25 23.0803 57.19 17.0503C57.17 15.1603 55.48 13.1203 53.44 13.3003C49.45 13.6603 48.29 16.3103 48.03 19.9803C47.64 25.6903 47.4601 31.4204 47.1701 37.1404H54.6701C54.5101 30.9204 53.52 24.0604 54.55 17.9004L47.18 16.9004C47.67 23.3104 47.82 29.7203 47.65 36.1603C47.52 40.9903 55 40.9803 55.15 36.1603C55.25 32.7003 55.29 29.2304 55.22 25.7704C55.19 24.1704 55.13 22.5703 55.06 20.9803C55.02 20.1603 55.0601 16.8003 54.7301 17.3703C57.1301 13.1803 50.66 9.39036 48.25 13.5804L48.27 13.5704Z" fill="#FF46A0"/>
<path d="M55.91 28.6406L60.85 29.0106V21.5106C59.55 21.4406 58.55 21.2006 57.32 20.8106L56.32 28.1806L61.49 27.6706C66.21 27.2006 66.41 20.3206 61.49 20.1706C59.96 20.1206 58.43 20.0806 56.9 20.0306V27.5306C58.51 27.4906 60.12 27.4506 61.73 27.4106L59.08 21.0106C55.59 24.5506 53.79 29.1906 54.33 34.1706C54.85 38.8806 61.62 39.1006 61.83 34.1706C61.92 32.0106 62.01 29.8506 62.1 27.6906L54.73 28.6906C55.12 31.1806 55.99 33.3706 57.33 35.5106C58.99 38.1506 63.39 37.8506 64.18 34.6106C64.75 32.2706 65.05 29.9906 65.08 27.5906H57.58C57.92 30.4306 58.32 33.2606 58.83 36.0806C59.37 39.1006 64.42 39.8906 65.68 36.9806C66.94 34.0706 67.33 31.6106 67.51 28.5706L60.52 30.4606C61.7 32.9906 60.76 35.4306 63.45 37.3506C65.5 38.8106 68.46 38.6806 70.25 36.8706C72.53 34.5706 71.61 30.5906 71.47 27.6906C71.27 23.5106 71.08 19.3206 70.88 15.1406L67.13 18.8906C67.72 18.8906 68.31 18.8906 68.89 18.8906L65.14 15.1406C64.45 21.8206 64.23 28.5006 64.5 35.2106C64.69 40.0206 72.19 40.0406 72 35.2106C71.73 28.5006 71.95 21.8206 72.64 15.1406C72.85 13.1206 70.75 11.3906 68.89 11.3906C68.3 11.3906 67.71 11.3906 67.13 11.3906C65.17 11.3906 63.29 13.1106 63.38 15.1406C63.66 21.2206 64.78 27.9306 64.08 33.9706L65.18 31.3206C67.43 32.3706 68.42 32.2206 68.14 30.8906C68.11 30.3906 68.05 29.8906 67.96 29.4006C67.76 28.4106 67.42 27.5906 66.99 26.6706C65.3 23.0406 60.21 25.1806 60 28.5606C59.9 30.1306 59.83 31.7206 59.19 33.1906L66.04 34.0906C65.65 31.9306 65.32 29.7706 65.06 27.5906C64.51 22.9206 57.63 22.6306 57.56 27.5906C57.53 29.3406 57.34 30.9106 56.92 32.6206L63.77 31.7206C62.74 30.0906 62.22 28.5806 61.93 26.6906C61.24 22.3606 54.73 23.6506 54.56 27.6906C54.47 29.8506 54.38 32.0106 54.29 34.1706H61.79C61.45 31.0506 62.1 28.5906 64.34 26.3206C66.58 24.0506 64.99 19.8406 61.69 19.9206C60.08 19.9606 58.47 20.0006 56.86 20.0406C52.03 20.1606 52.03 27.4006 56.86 27.5406C58.39 27.5906 59.92 27.6306 61.45 27.6806V20.1806L56.28 20.6906C52.17 21.1006 51.07 26.7006 55.28 28.0606C57.09 28.6406 58.9 28.9306 60.8 29.0306C65.64 29.3006 65.58 21.8906 60.8 21.5306L55.86 21.1606C51.05 20.8006 51.07 28.3006 55.86 28.6606L55.91 28.6406Z" fill="#FF46A0"/>
<path d="M74.82 20.4805L74.91 33.7705C74.94 38.6005 82.35 38.6005 82.41 33.7705C82.44 31.5005 82.47 29.2305 82.5 26.9705C82.51 26.0605 82.52 25.1605 82.54 24.2505C82.54 23.5705 82.56 22.8905 82.57 22.2105C82.63 21.2905 82.57 21.3005 82.41 22.2505L80.17 23.9705L80.96 23.8205L78.07 23.4405L78.77 23.9505L77.05 21.7105C77.82 23.9205 77.23 27.2505 77.23 29.5505C77.23 32.3605 77.23 35.1805 77.22 37.9905C77.22 42.8205 84.71 42.8205 84.72 37.9905C84.72 33.6605 84.73 29.3305 84.74 25.0005C84.74 21.8505 84.92 18.1705 81.41 16.7805C72.84 13.3705 74.97 29.8605 74.92 33.7705H82.42L82.33 20.4805C82.3 15.6605 74.8 15.6405 74.83 20.4805H74.82Z" fill="#FF46A0"/>
<path d="M83.35 28.4305C84.96 27.7905 87.41 28.7904 89.06 29.1104L86.31 25.4905C86.59 28.4905 86.76 31.4905 86.82 34.5105C86.92 39.3605 94.04 39.3105 94.32 34.5105C94.46 32.0405 94.61 29.5605 94.75 27.0905C95.03 22.2505 87.62 22.3205 87.25 27.0905C87.1 29.0905 86.81 31.0305 86.41 32.9905H93.64C92.44 29.6705 91.37 23.9605 86.66 24.4905C81.95 25.0205 82.2 31.2405 82.06 34.7705C81.85 39.6805 89.04 39.4605 89.56 34.7705C89.84 32.2705 89.67 29.9504 89.29 27.4704C88.61 23.0504 82.22 24.5204 81.92 28.4704C81.78 30.3704 81.78 32.2305 81.91 34.1305C82.24 38.9005 89.31 39.0105 89.41 34.1305C89.48 30.4305 88.91 26.8305 87.64 23.3605L85.02 27.9704C87.21 27.5604 89.35 27.4804 91.57 27.6004L87.82 23.8504C87.63 28.8504 87.87 33.8105 88.53 38.7605C88.8 40.7805 90.0601 42.4905 92.2801 42.5105C94.1001 42.5305 96.3001 40.7705 96.0301 38.7605C95.3601 33.8005 95.13 28.8404 95.32 23.8504C95.4 21.7504 93.53 20.2104 91.57 20.1004C88.68 19.9404 85.87 20.2005 83.02 20.7405C81.14 21.1005 79.74 23.5604 80.4 25.3504C81.46 28.2504 81.96 31.0405 81.9 34.1305H89.4C89.27 32.2305 89.27 30.3704 89.41 28.4704L82.04 29.4704C82.31 31.2404 82.24 33.0105 82.04 34.7805H89.54C89.61 33.0205 89.58 31.0804 90.19 29.4104L87.57 32.0305H86.76C86.01 31.4705 85.27 30.8905 84.52 30.3205C85.44 31.5305 85.87 33.5505 86.4 35.0005C87.56 38.1905 92.82 38.9205 93.63 35.0005C94.17 32.3905 94.53 29.7605 94.74 27.1105H87.24C87.1 29.5805 86.95 32.0605 86.81 34.5305H94.31C94.25 31.5205 94.08 28.5105 93.8 25.5105C93.65 23.9505 92.75 22.2305 91.05 21.8905C87.99 21.2905 84.39 20.0005 81.36 21.2105C76.93 22.9705 78.86 30.2305 83.35 28.4405V28.4305Z" fill="#FF46A0"/>
<path d="M97.5601 36.66C103.59 31.17 109.61 25.6801 115.64 20.1901L110.34 14.8901C104.12 20.7201 98.03 26.66 92.04 32.72C89.57 35.22 92.0401 40.37 95.6901 38.99C104.2 35.76 111.38 27.6901 117.9 21.5701C121.43 18.2601 116.12 12.9701 112.6 16.2701C109.56 19.1201 106.48 21.9201 103.32 24.6401C100.4 27.1601 97.3601 30.3701 93.6901 31.7601L97.3401 38.0301C103.32 31.9701 109.42 26.0201 115.64 20.2001C119.18 16.8901 113.89 11.6601 110.34 14.9001C104.31 20.3901 98.2901 25.8801 92.2601 31.3701C88.6801 34.6301 94.0001 39.92 97.5601 36.67V36.66Z" fill="#FF46A0"/>
<path d="M114.7 21.6698L115.02 34.9499H122.52C122.34 30.6499 122.07 26.3599 121.53 22.0899C120.94 17.3999 114.3 17.1399 114.03 22.0899C113.83 25.7199 113.77 29.3299 113.86 32.9599C113.98 37.7799 121.4 37.7999 121.36 32.9599C121.33 29.2999 120.98 25.7399 120.41 22.1299C119.74 17.9199 112.96 18.9699 113.04 23.1299C113.1 26.1899 113.14 29.1899 112.57 32.2099L119.94 33.2099C120.15 29.9099 120.2 26.6199 120.11 23.3099H112.61C112.73 27.0099 112.94 30.6999 113.23 34.3899C113.62 39.2699 120.18 39.1499 120.73 34.3899C121.14 30.8399 120.83 27.5199 119.88 24.0899C118.76 20.0099 112.54 20.8399 112.51 25.0899C112.49 28.3999 112.54 31.7099 112.68 35.0199C112.87 39.8299 120.37 39.8599 120.18 35.0199C119.94 28.9399 120 22.7599 119.28 16.7099L114.53 20.3299C116.71 20.6799 118.89 20.9498 121.1 21.0998V13.5998C120.16 13.9298 119.31 13.7599 118.53 13.0899L116.64 20.0799H121.02C119.77 18.8199 118.52 17.5699 117.27 16.3199C118.02 23.7099 118.54 31.1198 118.81 38.5398C118.99 43.3498 126.31 43.3898 126.31 38.5398C126.31 34.4098 125.88 30.3499 125.25 26.2699C124.84 23.5699 124.94 19.5399 122.64 17.6399C120.79 16.0999 118.08 16.1799 116.75 18.3999C113.57 23.6899 114.82 29.4699 113.24 35.1799H120.47C119.96 31.9799 119.64 28.7699 119.43 25.5299C119.18 21.4999 113.09 20.2099 112.06 24.5299C111.26 27.8899 111.28 30.8599 112.21 34.1899C113.32 38.1099 119.99 37.5299 119.58 33.1899C119.27 29.9699 118.84 26.7699 118.28 23.5799C117.55 19.4699 110.45 20.3599 110.91 24.5799C111.34 28.4999 111.5 32.3799 111.41 36.3199H118.91C118.9 34.8199 119.1 33.6598 119.58 32.2398C121.11 27.6498 113.87 25.6799 112.35 30.2499C111.68 32.2599 111.4 34.2099 111.42 36.3299C111.47 41.1599 118.8 41.1599 118.92 36.3299C119.02 32.3899 118.85 28.5099 118.42 24.5899L111.05 25.5899C111.5 28.1199 111.84 30.6499 112.08 33.2099L119.45 32.2099C118.88 30.1799 118.8 28.6298 119.3 26.5398L111.93 25.5398C112.18 29.4498 112.63 33.3199 113.23 37.1799C113.83 41.0399 119.54 40.5099 120.46 37.1799C121.8 32.3399 120.58 26.5699 123.21 22.1899L117.32 22.9499L116.97 22.2499C117.13 23.1099 117.28 23.9699 117.43 24.8299C117.68 26.2599 117.93 27.6999 118.13 29.1399C118.57 32.2699 118.78 35.3999 118.79 38.5599H126.29C126.01 31.1299 125.5 23.7299 124.75 16.3399C124.55 14.3299 123.2 12.5799 121 12.5899H116.62C112.78 12.6099 111.67 17.5999 114.73 19.5899C116.7 20.8699 118.73 21.4199 121.09 21.1199C125.79 20.5199 126.03 13.9399 121.09 13.6199C119.54 13.5199 118.05 13.3699 116.51 13.1199C114.4 12.7799 111.45 14.0698 111.76 16.7398C112.48 22.7798 112.42 28.9698 112.66 35.0498H120.16C120.03 31.7398 119.97 28.4399 119.99 25.1199L112.62 26.1199C113.4 28.9599 113.53 31.5299 113.2 34.4299H120.7C120.41 30.7399 120.2 27.0498 120.08 23.3498C119.92 18.5398 112.45 18.5098 112.58 23.3498C112.67 26.6598 112.61 29.9499 112.41 33.2499C112.15 37.4199 118.99 38.4199 119.78 34.2499C120.47 30.5399 120.59 26.9399 120.52 23.1799L113.15 24.1799C113.62 27.1199 113.81 30.0399 113.83 33.0199H121.33C121.24 29.3899 121.3 25.7699 121.5 22.1499H114C114.54 26.4199 114.81 30.7099 114.99 35.0099C115.19 39.8099 122.61 39.8599 122.49 35.0099L122.17 21.7298C122.05 16.9098 114.55 16.8898 114.67 21.7298L114.7 21.6698Z" fill="#FF46A0"/>
<path d="M123.96 24.6706L127.22 24.5107L128.62 24.4406C129.81 24.5406 129.86 24.3906 128.78 23.9706L131.43 17.5706C130.01 17.6806 128.79 17.6107 127.41 17.2607V24.4906C129.22 24.5106 128.94 24.1607 126.57 23.4507C126.74 24.0807 126.84 24.7206 126.87 25.3706C126.97 26.3606 126.94 27.3706 126.95 28.3606C126.97 30.7106 127.07 33.0007 127.43 35.3307C128.11 39.6807 134.61 38.3507 134.8 34.3307C134.99 30.3107 135.28 20.6906 129.7 19.9406C122.95 19.0306 124.93 28.8006 125.2 32.5606L132.57 31.5606C132.02 28.9906 131.47 26.4206 130.93 23.8506C130.29 20.8406 126.68 20.5607 124.66 22.2007C121.81 24.5107 122.99 30.4106 122.99 33.6006C122.99 38.4306 130.49 38.4306 130.49 33.6006C130.49 32.1806 130.49 30.7607 130.49 29.3407C130.49 28.6307 130.49 27.9207 130.49 27.2107C130.62 25.6807 130.44 25.7806 129.96 27.5006L123.69 25.8506C124.24 28.4206 124.79 30.9906 125.33 33.5606C126.2 37.6506 133 36.8006 132.7 32.5606C132.6 31.1106 132.49 29.6606 132.4 28.2206C132.36 27.5806 132.32 26.9306 132.28 26.2906C132.22 25.4106 132.66 24.3706 132 25.6306L129.76 27.3506L130.21 27.2406L126.56 26.2807C128.02 27.6407 127.39 32.5407 127.31 34.3407L134.68 33.3407C134.07 29.4007 134.83 25.3707 133.81 21.4607C132.65 16.9907 129.44 16.6407 125.43 17.2607C121.66 17.8507 122.06 23.6206 125.43 24.4906C127.42 25.0006 129.39 25.2206 131.44 25.0706C134.61 24.8306 136.47 21.1106 134.09 18.6706C131.49 16.0106 127.32 17.0006 123.97 17.1606C119.17 17.3906 119.14 24.8906 123.97 24.6606L123.96 24.6706Z" fill="#FF46A0"/>
<path d="M128.04 21.6704L128.39 34.2004C128.52 39.0204 136.02 39.0404 135.89 34.2004L135.54 21.6704C135.41 16.8504 127.91 16.8304 128.04 21.6704Z" fill="#FF46A0"/>
<path d="M135.1 29.5908L139.97 29.3907L138.08 22.4008C137.38 22.7008 136.57 22.8107 135.82 22.8507C134.32 22.9207 132.97 23.7307 132.39 25.1607C131.88 26.4207 131.99 28.3307 133.17 29.2607C133.92 29.8507 134.53 30.3007 135.48 30.5107C135.95 30.6407 136.42 30.6807 136.89 30.6107C138.41 30.4907 138.22 30.3807 136.33 30.2907L134.98 28.9407L135.13 29.1707L134.62 27.2808L134.59 27.5507L135.69 24.9008C134.87 25.6708 133.66 26.1107 132.77 26.8007C131.37 27.9107 130.67 29.5407 131.16 31.3107C132.18 35.0207 136.2 34.2807 139 33.8007L134.77 28.2907C134.43 29.0407 134.34 29.2107 133.74 29.5507C131.7 30.7007 131.22 33.8107 132.98 35.4407C133.98 36.3607 135.1 36.9107 136.47 36.9507C137.3 36.9707 138.54 36.4907 138.98 36.5107L137.09 36.0007L137.42 36.1707L136.07 34.8207L136.18 35.0507L135.67 33.1607L135.65 33.4107L136.75 30.7607L136.58 30.9307C133.16 34.3507 138.47 39.6507 141.88 36.2307C143.63 34.4807 143.56 31.5407 141.58 29.9907C140.73 29.3207 139.68 28.9707 138.59 29.0007C138.13 29.0107 137.52 29.0807 137.08 29.2407C136.02 29.6307 136.7 29.3507 136.91 29.4307L138.56 30.3907L138.28 30.1307L137.52 36.0208C139.12 35.1208 140.49 33.7607 141.24 32.0707C142.63 28.9707 140.36 26.0007 137.01 26.5607C136.63 26.6207 136.25 26.6907 135.87 26.7507C134.84 26.8607 135.11 26.9607 136.67 27.0607L138.53 30.3007L138.51 30.0308L137.41 32.6807C138.07 32.0207 139.14 31.6308 139.9 31.0908C141.22 30.1708 142.11 28.9407 142.12 27.2607C142.12 25.7607 141.14 24.3407 139.85 23.6307C139.31 23.3307 138.73 23.1808 138.13 23.0908C137.65 23.0208 135.08 22.8507 137.1 23.1907L138.75 24.1508L138.47 23.9307L135.82 30.3307C138 30.2207 139.87 29.7107 141.87 28.8607C145.36 27.3707 143.5 21.7307 139.98 21.8707L135.11 22.0707C133.09 22.1507 131.36 23.7307 131.36 25.8207C131.36 27.7907 133.08 29.6507 135.11 29.5707L135.1 29.5908Z" fill="#FF46A0"/>
<path d="M138.64 16.9004C138.8 22.9904 138.96 29.0803 139.12 35.1603C139.25 40.0103 146.34 39.9603 146.62 35.1603C146.87 30.8203 147.12 26.4804 147.37 22.1404H139.87C140.1 26.0204 140.34 29.9103 140.57 33.7903C140.83 38.0903 146.49 38.7803 147.94 34.7903C149.19 31.3503 148.86 27.5203 148.91 23.9203C148.99 19.0803 141.57 19.1003 141.41 23.9203C141.29 27.6603 141.47 31.3203 141.96 35.0403C142.49 39.0703 147.92 40.3303 149.33 36.0403C149.8 34.5903 150.03 33.1903 150.21 31.6803H142.71C142.67 33.2203 142.86 34.5503 143.43 35.9803C144.89 39.6503 150.9 39.5403 150.8 34.9803C150.67 29.1603 150.7 23.3504 150.9 17.5304C150.95 16.0504 149.71 14.1503 148.15 13.9103C146.59 13.6703 144.99 13.5004 143.33 13.5704V21.0704C144.83 20.9204 146.22 20.7303 147.7 20.4703C151.83 19.7403 150.92 12.7403 146.7 13.1003C145.23 13.2303 143.95 13.2204 142.49 13.0604L143.49 20.4303C144.8 20.0503 146 19.7804 147.32 20.2704L144.7 17.6504C145.27 19.0104 143.9 24.7503 143.88 26.7903C143.84 30.6703 144.03 34.5204 143.62 38.4004C143.12 43.2004 150.62 43.1604 151.12 38.4004C151.5 34.8004 151.38 31.2304 151.38 27.6204C151.38 25.4704 151.43 23.3503 151.77 21.2303C151.96 20.0403 152.51 18.7603 152.44 17.5503C152.08 11.8703 145.58 12.0204 141.5 13.2004C137.42 14.3804 138.44 20.1504 142.5 20.5704C143.97 20.7204 145.24 20.7303 146.71 20.6103L145.71 13.2403L143.33 13.5704C138.62 14.0404 138.42 21.2604 143.33 21.0704C144.27 20.9804 145.21 21.0104 146.15 21.1504L143.4 17.5304C143.2 23.3504 143.17 29.1603 143.3 34.9803L150.67 33.9803C150.25 33.2703 150.1 32.5003 150.22 31.6703C150.35 26.7203 143.29 27.0203 142.72 31.6703C142.61 32.4803 142.4 33.2704 142.1 34.0304L149.47 35.0304C148.98 31.3204 148.8 27.6603 148.92 23.9103H141.42C141.37 26.8303 141.72 30.0103 140.71 32.7903L148.08 33.7903C147.85 29.9103 147.61 26.0204 147.38 22.1404C147.09 17.3204 140.16 17.3104 139.88 22.1404C139.63 26.4804 139.38 30.8203 139.13 35.1603H146.63C146.47 29.0703 146.31 22.9804 146.15 16.9004C146.02 12.0804 138.52 12.0604 138.65 16.9004H138.64Z" fill="#FF46A0"/>
<path d="M153.29 14.9103C152.59 22.1003 152.3 29.2903 152.41 36.5203C152.49 41.4903 159.31 41.1703 159.91 36.5203C160.41 32.6803 160.34 28.9103 160.19 25.0403C160.09 22.5103 159.16 17.2503 160.19 14.8803L156.95 16.7403C157.57 16.6503 158.18 16.7003 158.79 16.8703C163.51 17.6103 165.55 10.3803 160.78 9.64032C155.76 8.86032 153.25 9.92031 152.72 15.3203C152.03 22.3903 153.32 29.4503 152.4 36.5203H159.9C159.78 29.3003 160.08 22.1003 160.78 14.9103C161.25 10.1103 153.75 10.1403 153.28 14.9103H153.29Z" fill="#FF46A0"/>
<path d="M33.8 35.1801C38.49 30.5201 43 25.6901 47.32 20.6901C50.45 17.0601 45.25 11.7601 42.02 15.3901C37.23 20.7701 34.29 27.6201 28.95 32.5101C25.38 35.7801 30.7 41.0701 34.25 37.8101C39.63 32.8801 42.52 26.0801 47.32 20.6901L42.02 15.3901C37.7 20.3901 33.19 25.2201 28.5 29.8801C25.07 33.2901 30.37 38.5901 33.8 35.1801Z" fill="#FF46A0"/>
<path d="M34.66 32.6304L41.58 24.6903C42.54 23.5903 43.93 22.4303 44.66 21.1603L45.43 20.2804C42.69 19.4704 41.95 19.4703 43.21 20.2903C43.71 20.9503 45.03 21.6503 45.66 22.1303C49.53 25.0203 53.27 18.5204 49.45 15.6504C47.86 14.4604 46.26 12.7404 44.12 12.7104C41.98 12.6804 40.69 14.3203 39.36 15.8503C36.03 19.6703 32.69 23.4904 29.36 27.3204C26.2 30.9404 31.48 36.2703 34.66 32.6203V32.6304Z" fill="#FF46A0"/>
<path d="M20.46 9.69047C43.83 7.54047 67.49 9.20048 90.93 9.26048C114.73 9.32048 138.54 8.91046 162.33 8.06046C167.14 7.89046 167.17 0.390464 162.33 0.560464C138.54 1.41046 114.74 1.82048 90.93 1.76048C67.5 1.70048 43.83 0.0404687 20.46 2.19047C15.69 2.63047 15.65 10.1305 20.46 9.69047Z" fill="#53FF6E"/>
<path d="M20.46 43.17C43.83 41.02 67.49 42.68 90.93 42.74C114.73 42.8 138.54 42.39 162.33 41.54C167.14 41.37 167.17 33.87 162.33 34.04C138.54 34.89 114.74 35.3 90.93 35.24C67.5 35.18 43.83 33.52 20.46 35.67C15.69 36.11 15.65 43.61 20.46 43.17Z" fill="#53FF6E"/>
<path d="M16.29 7.32075C16.61 17.7507 16.64 28.1807 16.4 38.6107C16.29 43.4407 23.79 43.4407 23.9 38.6107C24.14 28.1807 24.11 17.7507 23.79 7.32075C23.64 2.50075 16.14 2.48075 16.29 7.32075Z" fill="#53FF6E"/>
<path d="M158.43 5.13032C158.75 15.5603 158.78 25.9903 158.54 36.4203C158.43 41.2503 165.93 41.2503 166.04 36.4203C166.28 25.9903 166.25 15.5603 165.93 5.13032C165.78 0.310316 158.28 0.290316 158.43 5.13032Z" fill="#53FF6E"/>
<path d="M4.63 14.7709C10.38 13.2709 14.69 8.8109 20.38 7.2609C23.48 6.4109 22.16 1.59089 19.05 2.44089C13.33 4.00089 8.99998 8.4609 3.29998 9.9509C0.189984 10.7609 1.51 15.5809 4.63 14.7709Z" fill="#53FF6E"/>
<path d="M5.37003 50.2104C11.12 48.7104 15.43 44.2504 21.12 42.7004C24.22 41.8504 22.9 37.0303 19.79 37.8803C14.07 39.4403 9.74005 43.9004 4.04005 45.3904C0.930046 46.2004 2.25003 51.0204 5.37003 50.2104Z" fill="#53FF6E"/>
<path d="M139.93 54.1505C148.6 51.0805 155.16 44.2005 163.74 41.0205C166.73 39.9105 165.44 35.0805 162.41 36.2005C153.81 39.3905 147.22 46.2805 138.6 49.3305C135.59 50.4005 136.88 55.2305 139.93 54.1505Z" fill="#53FF6E"/>
<path d="M0.780014 12.8302C1.02001 25.1702 0.960002 37.5202 0.580002 49.8602C0.480002 53.0802 5.48 53.0802 5.58 49.8602C5.96 37.5202 6.02001 25.1802 5.78001 12.8302C5.72001 9.6202 0.720014 9.6102 0.780014 12.8302Z" fill="#53FF6E"/>
<path d="M3.56002 53.0902C48.76 55.2002 94.03 55.5802 139.26 54.2402C142.47 54.1402 142.48 49.1402 139.26 49.2402C94.03 50.5902 48.76 50.2002 3.56002 48.0902C0.340025 47.9402 0.350025 52.9402 3.56002 53.0902Z" fill="#53FF6E"/>
<path d="M17.12 10.3508C12.44 12.9108 7.51004 15.2509 3.26004 18.5009C2.00004 19.4709 3.24002 21.6408 4.52002 20.6608C8.77002 17.4008 13.7 15.0709 18.38 12.5109C19.79 11.7409 18.53 9.58085 17.12 10.3508Z" fill="#53FF6E"/>
<path d="M17.14 16.3203L8.21002 22.1003C5.94002 23.5703 3.30002 24.8303 1.86002 27.2003C1.02002 28.5803 3.18002 29.8303 4.02002 28.4603C5.48002 26.0603 9.03002 24.5403 11.36 23.0403L18.41 18.4803C19.76 17.6103 18.5 15.4403 17.15 16.3203H17.14Z" fill="#53FF6E"/>
<path d="M16.89 23.1904C13.93 24.8904 11.02 26.6704 8.16004 28.5604C6.17004 29.8704 3.75004 31.1104 2.73004 33.3804C2.08004 34.8404 4.23005 36.1104 4.89005 34.6404C5.92005 32.3404 9.09005 30.9204 11.14 29.6004C13.44 28.1204 15.78 26.7104 18.15 25.3504C19.54 24.5504 18.29 22.3904 16.89 23.1904Z" fill="#53FF6E"/>
<path d="M16.83 28.9608C13.9 31.4308 10.84 33.7407 7.63002 35.8507C5.26002 37.4007 2.74001 38.7008 0.870011 40.8708C-0.179989 42.0808 1.59003 43.8608 2.64003 42.6408C4.83003 40.1008 8.11002 38.5908 10.85 36.6908C13.59 34.7908 16.1 32.8308 18.59 30.7308C19.82 29.6908 18.05 27.9308 16.82 28.9608H16.83Z" fill="#53FF6E"/>
<path d="M23.21 40.7106C20.41 43.2406 17.84 45.9906 15.53 48.9606C14.55 50.2106 16.31 52.0006 17.3 50.7306C19.62 47.7506 22.18 45.0006 24.98 42.4806C26.18 41.4006 24.41 39.6406 23.21 40.7106Z" fill="#53FF6E"/>
<path d="M28.7301 41.4502L22.05 49.0902C21 50.3002 22.76 52.0702 23.82 50.8602C26.05 48.3102 28.27 45.7702 30.5 43.2202C31.55 42.0102 29.7901 40.2402 28.7301 41.4502Z" fill="#53FF6E"/>
<path d="M35.73 41.1403L30.06 48.6303C29.09 49.9103 31.26 51.1603 32.22 49.8903L37.89 42.4003C38.86 41.1203 36.69 39.8703 35.73 41.1403Z" fill="#53FF6E"/>
<path d="M45 41.0106C41.98 44.1606 39.22 47.5206 36.71 51.0706C35.78 52.3906 37.95 53.6406 38.87 52.3306C41.26 48.9406 43.9 45.7606 46.77 42.7706C47.88 41.6106 46.12 39.8405 45 41.0005V41.0106Z" fill="#53FF6E"/>
<path d="M54.14 39.8708C51.93 42.7808 49.79 45.7308 47.7 48.7208C46.78 50.0408 48.94 51.2908 49.86 49.9808C51.95 46.9908 54.09 44.0408 56.3 41.1308C57.27 39.8508 55.1 38.6008 54.14 39.8708Z" fill="#53FF6E"/>
<path d="M61.64 39.3307L54.59 48.2206C53.6 49.4706 55.36 51.2506 56.36 49.9906L63.41 41.1006C64.4 39.8506 62.64 38.0707 61.64 39.3307Z" fill="#53FF6E"/>
<path d="M69.47 40.0801C66.48 44.1301 63.73 48.33 61.21 52.68C60.4 54.08 62.56 55.34 63.37 53.94C65.89 49.58 68.64 45.3801 71.63 41.3401C72.59 40.0401 70.42 38.8001 69.47 40.0801Z" fill="#53FF6E"/>
<path d="M76.39 40.3609C73.3 43.4209 70.82 46.9609 69.02 50.9209C68.36 52.3709 70.51 53.6509 71.18 52.1809C72.9 48.4109 75.21 45.0509 78.15 42.1309C79.29 40.9909 77.53 39.2309 76.38 40.3609H76.39Z" fill="#53FF6E"/>
<path d="M84.78 40.2609C82.53 43.1909 80.33 46.1409 78.16 49.1209C77.21 50.4209 79.38 51.6709 80.32 50.3809C82.49 47.4009 84.7 44.4409 86.94 41.5209C87.92 40.2409 85.75 39.0009 84.78 40.2609Z" fill="#53FF6E"/>
<path d="M91.73 41.2009C89.23 44.5009 86.52 47.6209 83.63 50.5809C82.51 51.7309 84.27 53.5008 85.4 52.3508C88.44 49.2308 91.26 45.9309 93.89 42.4609C94.86 41.1809 92.69 39.9309 91.73 41.2009Z" fill="#53FF6E"/>
<path d="M97.59 41.1206C95.53 44.3506 93.14 47.3106 90.43 50.0206C89.29 51.1606 91.06 52.9306 92.2 51.7906C95.06 48.9406 97.58 45.7906 99.75 42.3906C100.62 41.0306 98.46 39.7706 97.59 41.1306V41.1206Z" fill="#53FF6E"/>
<path d="M102.99 41.6904L95.7101 49.7504C94.6301 50.9404 96.4 52.7104 97.48 51.5204C99.91 48.8304 102.33 46.1504 104.76 43.4604C105.84 42.2704 104.07 40.5004 102.99 41.6904Z" fill="#53FF6E"/>
<path d="M107.97 42.0903L102.15 48.6103C101.08 49.8103 102.84 51.5803 103.92 50.3803L109.74 43.8603C110.81 42.6603 109.05 40.8903 107.97 42.0903Z" fill="#53FF6E"/>
<path d="M113.41 41.7605C110.67 44.8505 107.86 47.8804 104.98 50.8504C103.86 52.0004 105.62 53.7704 106.75 52.6204C109.63 49.6604 112.44 46.6305 115.18 43.5305C116.24 42.3305 114.48 40.5505 113.41 41.7605Z" fill="#53FF6E"/>
<path d="M122.04 40.0508C119.33 43.0408 116.61 46.0308 113.9 49.0208C112.82 50.2108 114.58 51.9807 115.67 50.7907C118.38 47.8007 121.1 44.8108 123.81 41.8208C124.89 40.6308 123.13 38.8608 122.04 40.0508Z" fill="#53FF6E"/>
<path d="M128.29 40.5202C125.76 43.0502 123.33 45.6602 121 48.3602C119.95 49.5702 121.71 51.3502 122.77 50.1302C125.11 47.4302 127.54 44.8102 130.06 42.2902C131.2 41.1502 129.43 39.3802 128.29 40.5202Z" fill="#53FF6E"/>
<path d="M135.34 39.8203C131.59 43.4403 127.85 47.0503 124.1 50.6703C122.94 51.7903 124.71 53.5603 125.87 52.4403C129.62 48.8203 133.36 45.2103 137.11 41.5903C138.27 40.4703 136.5 38.7003 135.34 39.8203Z" fill="#53FF6E"/>
<path d="M140.96 40.4707C138.53 43.4707 135.77 46.1507 132.67 48.4307C131.39 49.3707 132.63 51.5407 133.93 50.5907C137.21 48.1707 140.16 45.4107 142.73 42.2407C143.73 41.0007 141.98 39.2207 140.96 40.4707Z" fill="#53FF6E"/>
<path d="M148.33 40.0702L140.77 46.4402C139.54 47.4802 141.31 49.2402 142.54 48.2102L150.1 41.8402C151.33 40.8002 149.56 39.0402 148.33 40.0702Z" fill="#53FF6E"/>
<path d="M139.99 47.4501L138.4 49.0401C137.94 49.5001 137.9 50.3501 138.4 50.8101C138.9 51.2701 139.67 51.3001 140.17 50.8101L141.76 49.22C142.22 48.76 142.26 47.9101 141.76 47.4501C141.26 46.9901 140.49 46.9601 139.99 47.4501Z" fill="#53FF6E"/>
</svg>
