<svg width="38" height="39" viewBox="0 0 38 39" fill="none" xmlns="http://www.w3.org/2000/svg">
<path d="M4.90894 7.9241C7.56894 6.2741 10.3589 5.29411 13.5189 5.18411C15.2789 5.12411 20.5789 5.3441 21.5089 7.2941V4.77408C20.6289 6.70408 15.7189 6.86409 14.0489 6.78409C11.0589 6.62409 8.50892 5.58407 6.07892 3.88407L4.14893 8.45413C7.97893 9.55413 11.9589 8.89411 15.7989 9.80411V4.98416C14.7489 5.18416 13.6889 5.31418 12.6189 5.37418L13.2789 10.2841C14.7189 10.0541 16.1089 9.91412 17.5589 9.81412L16.8989 4.90409C16.0789 5.12409 15.2389 5.23414 14.3889 5.21414C11.1789 5.34414 11.1689 10.3441 14.3889 10.2141C15.6989 10.1641 16.9489 9.99415 18.2289 9.72415C20.9589 9.14415 20.3889 4.62412 17.5689 4.81412C15.6889 4.94412 13.8289 5.16414 11.9589 5.46414C9.19893 5.90414 9.8189 10.6042 12.6189 10.3742C14.1389 10.2542 15.6289 10.0541 17.1289 9.80411C19.5989 9.38411 19.4189 5.52416 17.1289 4.98416C13.2889 4.07416 9.26889 4.71407 5.47889 3.63407C2.62889 2.81407 1.31889 6.63413 3.54889 8.20413C7.46889 10.9541 12.1789 12.2041 16.9589 11.6841C19.9889 11.3541 26.0889 10.0541 26.1589 6.05411C26.2289 2.05411 19.5189 0.704168 16.5889 0.364168C11.5689 -0.225832 6.65891 0.974066 2.37891 3.63407C-0.351089 5.32407 2.15893 9.65413 4.89893 7.95413L4.90894 7.9241Z" fill="#53FF6E"/>
<path d="M0.359207 6.62379C0.719207 16.4838 -2.34076 40.7538 14.3892 38.2338C28.3992 36.1338 29.2092 15.5537 27.4992 4.92371C26.9892 1.75371 22.1692 3.10379 22.6792 6.25379C23.8592 13.5638 23.8992 30.9237 14.3692 33.1737C6.84922 34.9537 6.1192 27.1037 5.9192 21.8237C5.7192 16.5437 5.54922 11.6938 5.36922 6.62379C5.24922 3.41379 0.249217 3.40379 0.369217 6.62379H0.359207Z" fill="#53FF6E"/>
<path d="M25.4989 11.1942C29.0489 10.7842 33.0089 13.7042 32.6289 17.4942C32.2289 21.5742 27.649 22.1441 24.389 22.6341C21.129 23.1241 22.569 27.9342 25.719 27.4542C31.829 26.5342 37.8989 23.6842 37.6189 16.5542C37.3889 10.5342 31.5689 5.48417 25.4889 6.18417C22.3289 6.55417 22.2889 11.5542 25.4889 11.1842L25.4989 11.1942Z" fill="#53FF6E"/>
</svg>
