<svg width="167" height="55" viewBox="0 0 167 55" fill="none" xmlns="http://www.w3.org/2000/svg">
<path d="M28.55 14.6805C26.66 19.8905 24.77 25.1005 22.88 30.3105C21.45 34.2605 27.96 37.0704 29.73 33.2004C32.06 28.1204 32.72 21.5404 35.94 16.9904L33.7 18.7104L32.81 18.3704L31.71 15.7204C32.18 14.2404 32.02 14.2204 31.24 15.6404C30.8 16.3604 30.42 17.1104 30.09 17.8904C29.4 19.4004 28.84 20.9804 28.25 22.5304C26.85 26.2004 25.46 29.8704 24.07 33.5404C22.36 38.0604 29.6 40.0104 31.3 35.5304C33.17 30.5904 34.68 25.2204 37.1 20.5304C38.64 17.5504 40.75 14.5304 36.93 12.1004C27.86 6.34039 25.5 24.5304 23.26 29.4104L30.11 32.3005L35.78 16.6705C37.43 12.1205 30.18 10.1705 28.55 14.6805Z" fill="#FF46A0"/>
<path d="M36.69 14.8005C36.55 20.8105 36.6 26.8204 36.83 32.8204L44.2 31.8204C43.24 27.6504 43.43 23.3105 43.38 19.0505C43.32 14.2205 35.99 14.2205 35.88 19.0505C35.78 23.3205 35.68 27.5804 35.59 31.8504H43.09C42.69 28.0404 42.5 24.2305 42.51 20.4005H35.01C35.22 24.3305 35.1901 28.2405 34.9201 32.1705C34.5801 37.0505 41.8801 36.8605 42.4201 32.1705C42.5701 30.8205 42.73 29.4704 42.88 28.1304C43.43 23.3404 35.92 23.3804 35.38 28.1304C35.23 29.4804 35.0701 30.8305 34.9201 32.1705H42.4201C42.6901 28.2405 42.72 24.3305 42.51 20.4005C42.25 15.6105 35.03 15.5405 35.01 20.4005C35 24.2305 35.19 28.0404 35.59 31.8504C36.09 36.5504 42.98 36.7804 43.09 31.8504C43.19 27.5804 43.29 23.3205 43.38 19.0505H35.88C35.94 24.0005 35.85 28.9605 36.97 33.8105C37.91 37.9105 44.5 37.0505 44.34 32.8105C44.11 26.8005 44.06 20.8005 44.2 14.7905C44.31 9.96047 36.81 9.96047 36.7 14.7905L36.69 14.8005Z" fill="#FF46A0"/>
<path d="M42.72 19.58L42.58 19.03C41.55 14.88 35.27 15.83 35.21 20.03C35.15 24.23 35.09 28.58 35.03 32.86C34.96 37.78 42.03 37.55 42.53 32.86C42.82 30.09 43.12 27.32 43.41 24.55C43.63 22.52 41.53 20.82 39.66 20.8C37.46 20.78 36.12 22.54 35.91 24.55C35.62 27.32 35.32 30.09 35.03 32.86H42.53C42.59 28.58 42.65 24.31 42.71 20.03L35.34 21.03L35.48 21.58C36.64 26.26 43.88 24.28 42.71 19.59L42.72 19.58Z" fill="#FF46A0"/>
<path d="M41.53 23.5799L42.32 23.41L37.57 19.79C37.85 24.31 37.74 29.0699 38.9 33.4799C39.78 36.8499 45.52 37.2499 46.13 33.4799C46.91 28.7199 47.21 24.0299 46.88 19.2199C46.55 14.4099 39.22 14.3499 39.38 19.2199C39.53 23.6299 39.59 28.0499 39.56 32.4599H47.06C46.96 26.7399 46.92 21.0499 47.48 15.3499C47.68 13.3299 45.6 11.5999 43.73 11.5999C42.65 11.5999 41.04 11.8399 39.99 11.4399L42.23 13.16L41.85 12.55L42.23 15.4399L42.43 14.81L36.92 17.05C39.86 18.37 42.36 17.6999 45.43 18.0899V10.5899C43.77 10.5599 42.12 10.51 40.46 10.43V17.93C40.96 17.95 41.45 17.95 41.95 17.93L39.2 14.31L39.18 14.4599L41.93 10.8399L41.8 10.8699L43.79 18.0999L44.61 17.7599L41.72 17.3799L42.57 17.8499L40.85 15.6099C41.87 18.1999 41.13 21.9899 41.13 24.7699C41.13 28.0799 41.13 31.3899 41.13 34.6999C41.13 39.5299 48.63 39.5299 48.63 34.6999C48.63 28.6599 48.95 22.5199 48.63 16.4899C48.44 12.8799 45.85 9.16992 41.81 10.8699C37.44 12.6999 38.95 19.0799 43.8 18.0999L43.93 18.0699C45.68 17.7199 46.5 16.0299 46.68 14.4499L46.7 14.3C46.9 12.61 45.38 11.18 43.95 10.68C42.85 10.3 41.61 10.43 40.47 10.42C35.62 10.37 35.67 17.67 40.47 17.92C42.13 18 43.78 18.0599 45.44 18.0799C50.4 18.1599 50.09 11.1599 45.44 10.5799C44.12 10.4199 41.89 11.0899 40.71 10.5699C38.46 9.55988 36 10.32 35.2 12.81C33.32 18.64 39.84 19.0899 43.73 19.0899L39.98 15.3399C39.42 21.0399 39.46 26.7299 39.56 32.4499C39.64 37.2699 47.03 37.2899 47.06 32.4499C47.09 28.0299 47.03 23.6199 46.88 19.2099H39.38C39.67 23.3299 39.57 27.3999 38.9 31.4799H46.13C45.15 27.7399 45.31 23.63 45.07 19.78C44.91 17.25 42.81 15.64 40.32 16.16L39.53 16.3299C34.81 17.3299 36.81 24.56 41.52 23.56L41.53 23.5799Z" fill="#FF46A0"/>
<path d="M45.09 22.0807C47.67 22.3607 50.21 22.3708 52.79 22.1208L50.9 15.1308C45.88 17.7108 46.12 25.9808 45.9 30.8008H53.4C53.4 28.3508 53.41 25.8907 53.42 23.4407H45.92C45.93 27.1707 45.72 33.5008 49.74 35.4008C52.5 36.7008 55.02 35.0808 55.38 32.1608C55.77 28.9608 56.17 25.7607 56.56 22.5707L49.19 23.5707C49.76 26.3307 50.22 29.0908 50.53 31.8908C50.76 33.9208 52.09 35.6208 54.28 35.6408C56.13 35.6608 58.25 33.9008 58.03 31.8908C57.64 28.4308 57.12 24.9907 56.42 21.5807C56.04 19.7607 54.03 18.6608 52.31 18.8908C50.32 19.1608 49.29 20.6907 49.06 22.5707C48.67 25.7707 48.27 28.9708 47.88 32.1608L53.52 28.9208C54.03 29.9808 54.14 30.0307 53.84 29.0707C53.72 28.4607 53.64 27.8508 53.58 27.2408C53.45 25.9808 53.42 24.7107 53.41 23.4407C53.39 18.6107 45.92 18.6107 45.91 23.4407C45.91 25.8907 45.9 28.3508 45.89 30.8008C45.88 35.6508 53.17 35.6008 53.39 30.8008C53.47 28.9608 53.6 27.1208 53.86 25.2908C53.97 24.5308 54.01 21.9407 54.68 21.6007C57.87 19.9607 56.51 14.2508 52.79 14.6108C50.21 14.8608 47.67 14.8407 45.09 14.5707C40.3 14.0507 40.33 21.5607 45.09 22.0707V22.0807Z" fill="#FF46A0"/>
<path d="M54.46 14.4005C53.72 20.7505 53.65 27.1205 53.67 33.5105C53.68 38.3505 60.99 38.3205 61.17 33.5105C61.41 27.0105 61.45 20.5205 61.27 14.0205L57.52 17.7705C58.12 17.7205 58.71 17.7505 59.3 17.8605L57.58 15.6205C58.23 18.3105 57.5 21.8005 57.56 24.5905C57.62 27.6405 57.78 30.6905 58 33.7305C58.34 38.4905 65.53 38.6105 65.5 33.7305C65.46 28.1505 65.43 22.5705 65.39 16.9905C65.36 12.1705 57.86 12.1505 57.89 16.9905C57.93 22.5705 57.96 28.1505 58 33.7305H65.5C65.08 27.8705 65.26 22.0604 65.12 16.2004C65.01 11.5004 61.86 10.2705 57.52 10.2705C55.53 10.2705 53.71 11.9905 53.77 14.0205C53.95 20.5205 53.92 27.0105 53.67 33.5105H61.17C61.15 27.1205 61.22 20.7505 61.96 14.4005C62.52 9.61051 55.01 9.65051 54.46 14.4005Z" fill="#FF46A0"/>
<path d="M63.2 25.9799C63.59 25.9399 64.69 25.6599 65.09 25.7299L62.85 24.0099L62.99 24.2899L62.48 22.3999C62.52 26.4999 62.12 30.5899 62.27 34.7099C62.45 39.5199 69.95 39.5499 69.77 34.7099C69.62 30.7099 70.07 26.7199 69.98 22.7299C69.89 18.7399 66.48 18.1899 63.2 18.4899C58.43 18.9299 58.39 26.4299 63.2 25.9899V25.9799Z" fill="#FF46A0"/>
<path d="M68.13 14.5998C67.95 20.5398 67.76 26.4799 67.58 32.4199H75.08L74.76 24.0499C74.68 21.8499 73.85 18.3098 74.44 16.1898L70.82 18.9398C71.75 18.8998 73.37 19.6398 74.22 19.8798L71.98 14.3698C69.71 19.6798 69.81 26.2498 69.35 31.9398C69.04 35.7998 74.52 36.8298 76.34 33.8298C76.95 32.8198 77.26 32.0898 77.54 30.9498L70.17 29.9498L70.22 30.8498C70.47 35.6398 77.9 35.6998 77.72 30.8498C77.61 27.7998 77.59 24.7498 77.72 21.7098C77.84 19.0998 78.59 16.1799 77.95 13.6399C77.65 12.4599 76.56 11.2599 75.33 11.0199C73.85 10.7399 72.36 10.8498 70.87 10.8698L71.87 18.2398C72.69 18.1198 73.51 18.1098 74.33 18.2198C79.15 18.5198 79.13 11.0198 74.33 10.7198C72.79 10.6198 71.39 10.7799 69.87 11.0099C65.64 11.6599 66.72 18.4298 70.87 18.3798C71.49 18.3798 72.72 18.1499 73.34 18.2699L70.72 15.6499C70.91 16.4199 70.43 18.3598 70.37 19.1198C70.28 20.4198 70.21 21.7299 70.16 23.0299C70.07 25.6399 70.1 28.2498 70.2 30.8698H77.7L77.65 29.9698C77.43 25.8998 71.34 24.6898 70.28 28.9698L69.84 30.0499L76.83 31.9398C77.03 29.5198 77.24 27.0999 77.49 24.6799C77.7 22.6199 77.61 20.0699 78.43 18.1499C79.37 15.9599 78.75 13.3599 76.19 12.6399C74.46 12.1499 72.62 11.3598 70.79 11.4398C69.13 11.5098 67.63 12.5598 67.17 14.1898C66.46 16.7498 67.06 19.9999 67.17 22.6499L67.54 32.4099C67.72 37.2299 74.89 37.2499 75.04 32.4099C75.22 26.4699 75.41 20.5298 75.59 14.5898C75.74 9.75981 68.24 9.76981 68.09 14.5898L68.13 14.5998Z" fill="#FF46A0"/>
<path d="M72.67 18.17C76.14 23.52 79.61 28.8599 83.08 34.2099L88.97 29.67C86.9 27.74 85.92 24.27 84.22 21.93C82.19 19.15 80.48 16.39 79.02 13.26L72.54 17.05C75.78 23.06 79.53 30.45 84.72 35.01C88.33 38.19 93.66 32.8999 90.02 29.7099C85.3 25.5599 81.96 18.73 79.01 13.27C76.68 8.96001 70.53 12.75 72.53 17.06C74.16 20.55 76.19 23.49 78.38 26.63C80.29 29.35 81.18 32.69 83.65 34.99C86.65 37.79 91.95 34.1499 89.54 30.4499C86.07 25.0999 82.6 19.76 79.13 14.41C76.51 10.38 70.02 14.1299 72.65 18.1999L72.67 18.17Z" fill="#FF46A0"/>
<path d="M84.05 16.2007L84.93 29.2808C85.25 34.0508 92.37 34.1608 92.43 29.2808C92.47 25.7708 92.47 22.2908 92.04 18.8008C91.47 14.1508 84.59 13.8308 84.54 18.8008C84.5 22.9008 84.5 27.0007 84.54 31.1107C84.58 34.3307 88.63 36.1007 90.94 33.7607C93.89 30.7707 93.34 24.4507 93.78 20.4907H86.28C86.55 24.1907 86.93 27.8708 87.41 31.5508C88.01 36.1908 94.82 36.5308 94.91 31.5508C94.95 29.4408 94.98 27.3407 95.02 25.2307C95.1 20.3907 87.72 20.4207 87.52 25.2307C87.43 27.4007 87.47 29.5507 87.66 31.7107C88.07 36.5707 94.64 36.4907 95.16 31.7107C95.48 28.7707 95.73 25.8307 95.85 22.8807C95.96 20.4007 96.34 17.6007 95.74 15.1907C95.43 13.9507 94.36 12.8807 93.12 12.5707C91.6 12.1907 90.05 12.4007 88.5 12.4807C84.53 12.6807 83.11 19.1207 87.5 19.8507C88.22 19.9707 88.95 20.0907 89.67 20.2107L90.67 12.8407C89.89 12.7507 89.11 12.6707 88.32 12.5807V20.0807C89.54 20.0507 90.71 20.0808 91.93 20.1708L90.93 12.8008L90.7 12.4707L88.81 19.4607C89.53 19.3407 90.2 19.4607 90.82 19.8207C95.35 21.5107 97.3 14.2607 92.81 12.5907C91.48 12.0907 90.22 11.9207 88.8 11.9607C84.9 12.0907 83.94 16.8307 86.91 18.9507C88.8 20.2907 90.7 20.4308 92.92 20.0408C97.31 19.2708 95.9 12.9508 91.92 12.6708C90.71 12.5908 89.53 12.5607 88.31 12.5807C83.38 12.6807 83.61 19.5707 88.31 20.0807C89.09 20.1707 89.87 20.2507 90.66 20.3407C94.82 20.8007 95.83 13.6607 91.66 12.9707C90.94 12.8507 90.21 12.7307 89.49 12.6107L88.49 19.9807C89.09 19.9507 90.5 19.6508 91.11 19.8008L88.49 17.1808C88.99 19.2008 88.38 22.0507 88.27 24.1407C88.14 26.6707 87.91 29.1907 87.64 31.7107H95.14C94.96 29.5407 94.91 27.4007 95 25.2307H87.5C87.46 27.3407 87.43 29.4408 87.39 31.5508H94.89C94.41 27.8708 94.04 24.1907 93.76 20.4907C93.4 15.6107 86.79 15.7307 86.26 20.4907C86.09 22.0407 85.92 23.5807 85.74 25.1307C85.68 25.6407 85.25 28.8207 85.61 28.4507L92.01 31.1007C91.96 27.0007 91.96 22.9008 92.01 18.7908H84.51C84.94 22.2808 84.94 25.7608 84.9 29.2708H92.4L91.52 16.1907C91.2 11.4007 83.69 11.3607 84.02 16.1907L84.05 16.2007Z" fill="#FF46A0"/>
<path d="M112.03 14.01L111.78 33.65C111.73 37.76 118.38 38.9 119.15 34.65C119.61 32.09 119.93 29.5399 120.07 26.9499C120.34 22.1299 112.84 22.1399 112.57 26.9499C112.46 28.8799 112.26 30.76 111.92 32.66L119.29 33.66L119.54 14.02C119.6 9.18996 112.1 9.18996 112.04 14.02L112.03 14.01Z" fill="#FF46A0"/>
<path d="M112.75 20.5698C113.07 24.7598 113.56 28.9199 114.21 33.0599C114.91 37.5799 121.15 35.8899 121.58 32.0599C121.93 28.9599 121.96 25.9398 121.67 22.8298C121.24 18.1098 114.04 17.9298 114.17 22.8298C114.27 26.6898 113.61 31.9299 115.66 35.3499C117.71 38.7699 122.46 37.1098 122.65 33.4598C122.85 29.5998 122.92 25.7399 122.86 21.8699H115.36C115.48 25.7199 115.73 29.5399 116.85 33.2399C118.06 37.2499 124.2 36.5499 124.22 32.2399C124.23 28.7899 124.25 25.3399 124.26 21.8899C124.27 19.1899 124.83 15.9098 124.11 13.3198C123.77 12.0898 122.75 11.0098 121.49 10.6998C120.11 10.3698 118.56 10.5499 117.16 10.5599C112.22 10.6199 112.48 17.5199 117.16 18.0599C118.13 18.1699 119.1 18.2799 120.07 18.3899L116.45 15.6399L116.64 16.3999C117.83 21.0699 125.07 19.0899 123.87 14.4099L123.68 13.6499C123.23 11.9099 121.71 11.0899 120.06 10.8999C119.09 10.7899 118.12 10.6798 117.15 10.5698V18.0698C117.59 18.0698 119.05 17.8298 119.49 17.9398L116.87 15.3198C117.49 17.5498 116.76 20.9999 116.75 23.3799C116.74 26.3399 116.73 29.2999 116.71 32.2499L124.08 31.2499C123.14 28.1399 122.96 25.0999 122.86 21.8699C122.7 17.0599 115.29 17.0299 115.36 21.8699C115.42 25.7399 115.36 29.5998 115.15 33.4598L122.14 31.5698C121.05 29.7498 121.73 24.8998 121.68 22.8398H114.18C114.46 25.9498 114.43 28.9698 114.09 32.0698L121.46 31.0698C120.92 27.5798 120.54 24.0898 120.27 20.5698C119.91 15.7898 112.41 15.7498 112.77 20.5698H112.75Z" fill="#FF46A0"/>
<path d="M95.74 18.76C98.61 20.42 100.84 24.1999 103.12 26.5899C105.78 29.3699 108.56 32 111.45 34.54C115.06 37.71 120.39 32.4299 116.75 29.2399C113.56 26.4399 110.49 23.51 107.58 20.41C105.01 17.67 102.81 14.19 99.51 12.29C95.33 9.86999 91.54 16.35 95.72 18.77L95.74 18.76Z" fill="#FF46A0"/>
<path d="M95.98 18.6C100.43 23.56 103.39 29.86 107.61 35.07C110.65 38.82 115.93 33.4901 112.91 29.7701C108.67 24.5401 105.78 18.3201 101.28 13.3001C98.05 9.7001 92.76 15.02 95.98 18.6Z" fill="#FF46A0"/>
<path d="M124.09 24.5099C126.48 24.4299 128.73 24.67 131.04 25.28L130.14 18.43C129.39 18.89 127.91 18.59 126.97 18.67C125.08 18.83 123.67 19.4199 122.21 20.6399C119.41 22.9799 122.01 26.7 124.86 27.04C127.71 27.38 130.44 27.1 133.14 26.31L131.15 19.0799C127.86 20.1899 121.14 21.0499 121.14 25.6399C121.14 31.2699 128.12 29.9599 131.62 29.2399L128.73 22.3899C125.35 24.2599 120.92 26.0399 123.03 30.7299C123.59 31.9799 125.03 32.4699 126.27 32.5899C127.22 32.6799 128.22 32.43 129.16 32.31L125.54 27.56L125.38 28.0799L126.34 26.43C125.92 26.92 125.16 26.9799 124.61 27.3399C123.72 27.9099 123.07 28.62 122.56 29.53C121.19 31.96 122.91 35.23 125.8 35.17C128.01 35.13 130.22 35.09 132.43 35.05C137.25 34.96 137.27 27.46 132.43 27.55C130.22 27.59 128.01 27.63 125.8 27.67L129.04 33.31L128.58 33.6899L129.48 33.31C129.99 33.06 130.46 32.8099 130.9 32.4399C131.85 31.6499 132.42 30.73 132.77 29.55C133.39 27.46 131.6 24.48 129.15 24.8C128.21 24.93 127.21 25.1699 126.26 25.0799L129.5 26.9399L129.35 26.6099V30.4C129.02 31.02 130.43 30.0099 130.55 29.9499C131.2 29.5899 131.85 29.2299 132.5 28.8699C136.37 26.7299 133.64 21.1899 129.61 22.0199C128.57 22.2299 127.05 22.76 126 22.43L128.62 25.05L128.49 24.65L128.11 27.54L128.29 27.1299L126.94 28.4799C128.18 27.5899 131.3 26.9299 133.13 26.3199C137.67 24.7999 135.81 17.7299 131.14 19.0899C129.03 19.6999 127.03 19.81 124.85 19.55L127.5 25.9499C126.94 26.4199 127.34 26.0599 127.78 26.1299C128.39 26.2299 129.14 26.1499 129.75 26.1099C131.26 26.0199 132.61 25.72 133.91 24.91C136.61 23.24 136.2 18.9 133.01 18.06C130.09 17.29 127.09 16.9199 124.07 17.0199C119.26 17.1699 119.23 24.6699 124.07 24.5199L124.09 24.5099Z" fill="#FF46A0"/>
<path d="M134.37 16.1899C134.22 22.2699 134.72 28.28 135.75 34.27C136.56 39.02 143.79 37 142.98 32.28C142.07 26.95 141.74 21.5999 141.87 16.1899C141.99 11.3599 134.49 11.3599 134.37 16.1899Z" fill="#FF46A0"/>
<path d="M131.16 29.4L132.55 30.8C133.23 31.48 134.24 31.9 135.2 31.9C136.16 31.9 137.22 31.49 137.85 30.8C138.48 30.11 138.99 29.15 138.95 28.15C138.91 27.15 138.57 26.22 137.85 25.5L136.46 24.1C135.78 23.42 134.77 23 133.81 23C132.85 23 131.79 23.41 131.16 24.1C130.53 24.79 130.02 25.75 130.06 26.75C130.1 27.75 130.44 28.68 131.16 29.4Z" fill="#FF46A0"/>
<path d="M129.05 25.6805C131.31 25.4505 133.56 25.4805 135.81 25.7805C137.82 26.0405 139.56 23.8705 139.56 22.0305C139.56 19.7905 137.83 18.5405 135.81 18.2805C133.56 17.9905 131.31 17.9605 129.05 18.1805C127.04 18.3805 125.3 19.7605 125.3 21.9305C125.3 23.8005 127.02 25.8805 129.05 25.6805Z" fill="#FF46A0"/>
<path d="M127.9 25.8704C129.78 25.0904 131.91 24.7004 133.86 25.5404C135.81 26.3804 137.88 26.0903 138.99 24.1903C139.91 22.6103 139.52 19.8605 137.64 19.0605C133.87 17.4405 129.77 17.0204 125.9 18.6404C124.03 19.4204 122.7 21.1204 123.28 23.2504C123.76 25.0104 126.01 26.6504 127.89 25.8704H127.9Z" fill="#FF46A0"/>
<path d="M141.32 18.7901L141.73 18.6301L138.84 18.2501L139.26 18.5001L137.54 16.2601C138 19.0501 137.27 22.4201 137.18 25.2601C137.09 28.2801 137.04 31.2901 137.01 34.3101C136.97 39.1401 144.47 39.1401 144.51 34.3101C144.56 28.7801 144.9 23.26 144.99 17.73C145.04 14.57 143.62 9.87 139.34 11.57C135.06 13.27 136.84 20.5901 141.33 18.8001L141.32 18.7901Z" fill="#FF46A0"/>
<path d="M141.45 17.6508L141.65 17.4507C142.02 17.1107 142.27 16.7107 142.43 16.2407C142.66 15.7907 142.77 15.3108 142.75 14.8008C142.77 14.2808 142.66 13.8007 142.43 13.3607C142.28 12.9007 142.02 12.4908 141.65 12.1508L140.89 11.5608C140.31 11.2208 139.67 11.0508 139 11.0508L138 11.1808C137.36 11.3608 136.81 11.6807 136.35 12.1407L136.15 12.3407C135.78 12.6807 135.53 13.0808 135.37 13.5508C135.14 14.0008 135.03 14.4807 135.05 14.9907C135.03 15.5107 135.14 15.9908 135.37 16.4308C135.52 16.8908 135.78 17.3007 136.15 17.6407L136.91 18.2307C137.49 18.5707 138.13 18.7407 138.8 18.7407L139.8 18.6107C140.44 18.4307 140.99 18.1108 141.45 17.6508Z" fill="#FF46A0"/>
<path d="M137.61 18.5504C138.43 18.5004 139.25 18.5403 140.06 18.6503L137.44 16.0304C137.83 18.5804 137.07 22.0003 137.03 24.6103C136.98 27.6403 137.01 30.6703 137.08 33.7003C137.2 38.5203 144.7 38.5403 144.58 33.7003C144.49 30.2003 144.47 26.7103 144.55 23.2103C144.62 20.1903 145.13 17.0204 144.67 14.0404C144.47 12.7404 143.19 11.8104 142.05 11.4204C140.6 10.9204 139.12 11.0504 137.6 11.0504C132.77 11.0604 132.77 18.5604 137.6 18.5504H137.61Z" fill="#FF46A0"/>
<path d="M141.74 16.8398C144.18 22.6798 146.11 29.7199 151.05 34.0199C154.68 37.1699 160 31.8898 156.35 28.7198C152.44 25.3198 150.91 19.4698 148.97 14.8498C148.18 12.9698 146.49 11.6698 144.36 12.2298C142.59 12.6998 140.96 14.9798 141.74 16.8398Z" fill="#FF46A0"/>
<path d="M143.47 17.8002C146.75 24.4902 148.57 31.0202 153.87 36.5402C157.22 40.0302 162.52 34.7202 159.17 31.2402C154.42 26.2902 152.88 20.0202 149.94 14.0202C147.82 9.69018 141.35 13.4802 143.46 17.8102L143.47 17.8002Z" fill="#FF46A0"/>
<path d="M144.6 17.4307C148.17 22.7907 151.55 28.2706 154.75 33.8706C157.14 38.0606 163.63 34.2906 161.23 30.0806C158.03 24.4906 154.65 19.0106 151.08 13.6406C148.42 9.64061 141.92 13.3907 144.6 17.4307Z" fill="#FF46A0"/>
<path d="M16.5701 4.90082C16.5301 14.9908 16.3001 25.0708 15.8801 35.1408C15.6801 39.9708 23.1801 39.9608 23.3801 35.1408C23.8001 25.0608 24.0301 14.9808 24.0701 4.90082C24.0901 0.0708203 16.5901 0.0708203 16.5701 4.90082Z" fill="#53FF6E"/>
<path d="M158.86 5.33051C158.82 15.4205 158.59 25.5005 158.17 35.5705C157.97 40.4005 165.47 40.3905 165.67 35.5705C166.09 25.4905 166.32 15.4105 166.36 5.33051C166.38 0.500508 158.88 0.500508 158.86 5.33051Z" fill="#53FF6E"/>
<path d="M20.54 7.88033C67.55 9.04033 114.59 9.35028 161.61 8.83028C166.43 8.78028 166.45 1.28028 161.61 1.33028C114.58 1.86028 67.55 1.54033 20.54 0.380331C15.71 0.260331 15.71 7.76033 20.54 7.88033Z" fill="#53FF6E"/>
<path d="M20.54 38.7202C67.55 39.8802 114.59 40.1902 161.61 39.6702C166.43 39.6202 166.45 32.1202 161.61 32.1702C114.58 32.7002 67.55 32.3802 20.54 31.2202C15.71 31.1002 15.71 38.6002 20.54 38.7202Z" fill="#53FF6E"/>
<path d="M3.82005 13.6109C9.37005 10.3809 15.0501 7.451 20.8901 4.791C23.8101 3.461 21.28 -0.849071 18.37 0.470929C12.53 3.13093 6.84003 6.061 1.30003 9.291C-1.47997 10.911 1.03005 15.2309 3.82005 13.6109Z" fill="#53FF6E"/>
<path d="M5.45006 47.9409C11.0001 44.7109 16.68 41.781 22.52 39.121C25.44 37.791 22.91 33.481 20 34.801C14.16 37.461 8.47004 40.391 2.93004 43.621C0.150037 45.241 2.66006 49.5609 5.45006 47.9409Z" fill="#53FF6E"/>
<path d="M141.79 52.1503C148.88 47.2703 156.49 43.3003 164.02 39.1603C166.84 37.6103 164.32 33.2902 161.5 34.8402C153.97 38.9802 146.36 42.9502 139.27 47.8302C136.64 49.6402 139.13 53.9803 141.79 52.1503Z" fill="#53FF6E"/>
<path d="M0.180027 12.4103C0.400027 24.7703 0.370021 37.1202 0.0800209 49.4802C2.08681e-05 52.7002 5.00002 52.7002 5.08002 49.4802C5.37002 37.1202 5.40003 24.7703 5.18003 12.4103C5.12003 9.20027 0.120027 9.19027 0.180027 12.4103Z" fill="#53FF6E"/>
<path d="M2.58999 52.4904C25.26 53.3404 47.96 54.5204 70.65 54.7404C93.68 54.9704 116.69 53.9104 139.68 52.8604C142.88 52.7104 142.9 47.7104 139.68 47.8604C116.68 48.9104 93.67 49.9704 70.65 49.7404C47.96 49.5104 25.26 48.3304 2.58999 47.4904C-0.630007 47.3704 -0.620007 52.3704 2.58999 52.4904Z" fill="#53FF6E"/>
<path d="M16.9501 8.16041C14.3001 10.3004 11.5501 12.3004 8.67006 14.1404C6.71006 15.3904 4.72006 16.3903 3.38006 18.3403C2.46006 19.6703 4.63006 20.9204 5.54006 19.6004C7.03006 17.4404 10.2 16.1804 12.33 14.7204C14.46 13.2604 16.65 11.6103 18.71 9.94032C19.96 8.93032 18.1801 7.17042 16.9401 8.17042L16.9501 8.16041Z" fill="#53FF6E"/>
<path d="M17.3201 14.6901C14.7601 16.8201 12.1901 18.9502 9.64007 21.0902C7.55007 22.8402 4.96006 24.4702 3.63006 26.9102C2.86006 28.3202 5.02006 29.5902 5.79006 28.1702C7.12006 25.7202 10.1201 23.9303 12.2201 22.1803C14.5101 20.2703 16.8001 18.3602 19.1001 16.4602C20.3401 15.4302 18.56 13.6701 17.33 14.6901H17.3201Z" fill="#53FF6E"/>
<path d="M16.98 20.1206C12.56 25.0706 7.73002 29.5906 2.50002 33.6706C1.23002 34.6606 3.01001 36.4205 4.27001 35.4405C9.50001 31.3605 14.33 26.8406 18.75 21.8906C19.82 20.6906 18.06 18.9206 16.98 20.1206Z" fill="#53FF6E"/>
<path d="M17.34 29.6501C12.21 33.3401 6.55006 36.76 1.92006 41.09C0.740059 42.19 2.51005 43.9601 3.69005 42.8601C8.15005 38.6801 13.6401 35.3701 18.6001 31.8101C19.8901 30.8801 18.65 28.7101 17.34 29.6501Z" fill="#53FF6E"/>
<path d="M28.88 38.1603L28.92 38.0303L27.38 38.9003L27.55 38.9303L26.68 37.3903C26.27 38.5703 24.2 39.8102 23.26 40.6002C22.1 41.5802 20.89 42.5202 19.72 43.4802C17.39 45.3902 15.24 47.4002 13.43 49.8202C12.47 51.1102 14.64 52.3602 15.59 51.0802C17.68 48.2802 20.41 46.1202 23.11 43.9402C25.01 42.4102 28.26 40.4503 29.1 38.0503C29.31 37.4603 28.86 36.6202 28.23 36.5102L28.06 36.4802C27.39 36.3702 26.72 36.6502 26.52 37.3502L26.48 37.4802C26.04 39.0302 28.45 39.6903 28.89 38.1403L28.88 38.1603Z" fill="#53FF6E"/>
<path d="M33.31 37.6304C29.26 41.4404 25.13 45.2104 22.44 50.1504C21.67 51.5604 23.83 52.8304 24.6 51.4104C27.19 46.6604 31.19 43.0604 35.08 39.4004C36.25 38.2904 34.48 36.5304 33.31 37.6304Z" fill="#53FF6E"/>
<path d="M42.39 37.5702C37.6 41.5902 33.35 46.1102 29.57 51.1002C28.6 52.3802 30.77 53.6302 31.73 52.3602C35.37 47.5602 39.55 43.2202 44.16 39.3402C45.39 38.3002 43.62 36.5402 42.39 37.5702Z" fill="#53FF6E"/>
<path d="M48.46 37.0709C45.21 40.8709 42.02 44.7309 38.9 48.6409C37.91 49.8909 39.6601 51.671 40.6701 50.411C43.7901 46.501 46.9801 42.6409 50.2301 38.8409C51.2701 37.6209 49.51 35.8509 48.46 37.0709Z" fill="#53FF6E"/>
<path d="M56.12 37.3804C52.38 41.0904 49.06 45.1704 46.16 49.5704C45.27 50.9204 47.44 52.1704 48.32 50.8304C51.11 46.6004 54.3 42.7204 57.89 39.1504C59.03 38.0104 57.27 36.2504 56.12 37.3804Z" fill="#53FF6E"/>
<path d="M62.19 37.8705C58.94 41.7905 55.68 45.7105 52.43 49.6305C51.41 50.8605 53.17 52.6405 54.2 51.4005C57.45 47.4805 60.71 43.5605 63.96 39.6405C64.98 38.4105 63.22 36.6305 62.19 37.8705Z" fill="#53FF6E"/>
<path d="M68.46 38.2308C65.59 41.9508 62.53 45.5108 59.32 48.9308C58.22 50.1008 59.98 51.8707 61.09 50.7007C64.45 47.1207 67.62 43.3808 70.62 39.4908C71.6 38.2208 69.43 36.9708 68.46 38.2308Z" fill="#53FF6E"/>
<path d="M76.46 37.4307L70.11 44.9207C68.5 46.8207 66.78 48.6106 66.12 51.0706C65.71 52.6306 68.12 53.2907 68.53 51.7307C69.21 49.1607 71.47 47.1607 73.14 45.1807L78.22 39.1906C79.25 37.9706 77.49 36.1907 76.45 37.4207L76.46 37.4307Z" fill="#53FF6E"/>
<path d="M83.82 37.6203C80.53 41.7303 77.31 45.9104 74.18 50.1404C73.22 51.4304 75.39 52.6804 76.34 51.4004C79.34 47.3404 82.43 43.3304 85.59 39.3804C86.59 38.1404 84.83 36.3603 83.82 37.6103V37.6203Z" fill="#53FF6E"/>
<path d="M92.98 39.0203C90.37 42.1203 87.76 45.2104 85.15 48.3104C84.12 49.5304 85.88 51.3103 86.92 50.0803L94.75 40.7903C95.78 39.5703 94.02 37.7903 92.98 39.0203Z" fill="#53FF6E"/>
<path d="M101.36 37.4507C97.88 41.2107 94.45 45.0107 91.07 48.8607C90.01 50.0707 91.77 51.8407 92.84 50.6307C96.22 46.7807 99.65 42.9707 103.13 39.2207C104.22 38.0407 102.46 36.2707 101.36 37.4507Z" fill="#53FF6E"/>
<path d="M107.84 38.561C103.44 42.441 99.5 46.7309 95.95 51.4009C94.98 52.6809 97.15 53.9309 98.11 52.6609C101.52 48.1709 105.38 44.0609 109.6 40.3309C110.81 39.2609 109.04 37.501 107.83 38.561H107.84Z" fill="#53FF6E"/>
<path d="M113.27 38.6208L106.27 45.6709C105.06 46.8909 102.16 48.6509 103.1 50.6509C103.78 52.1109 105.94 50.8408 105.26 49.3908L105.15 49.1609V50.4209C105.64 49.5309 106.74 48.7409 107.45 48.0209L110.08 45.3808L115.04 40.3908C116.18 39.2508 114.41 37.4808 113.27 38.6208Z" fill="#53FF6E"/>
<path d="M119.75 38.3203C116.04 42.3803 112.33 46.4303 108.62 50.4903C107.54 51.6803 109.3 53.4503 110.39 52.2603C114.1 48.2003 117.81 44.1503 121.52 40.0903C122.6 38.9003 120.84 37.1303 119.75 38.3203Z" fill="#53FF6E"/>
<path d="M128.46 37.5006C124.72 40.8606 121.21 44.4506 117.92 48.2506C116.87 49.4606 118.63 51.2407 119.69 50.0207C122.98 46.2107 126.49 42.6307 130.23 39.2707C131.43 38.1907 129.66 36.4306 128.46 37.5006Z" fill="#53FF6E"/>
<path d="M138.02 35.9103C133.91 40.0903 129.79 44.2702 125.68 48.4402C124.55 49.5902 126.32 51.3602 127.45 50.2102C131.56 46.0302 135.68 41.8503 139.79 37.6803C140.92 36.5303 139.15 34.7603 138.02 35.9103Z" fill="#53FF6E"/>
<path d="M145.28 36.0006C141.32 40.9806 135.53 44.0006 131.48 48.8906C130.46 50.1206 132.22 51.9006 133.25 50.6606C137.3 45.7706 143.09 42.7506 147.05 37.7706C148.04 36.5206 146.28 34.7406 145.28 36.0006Z" fill="#53FF6E"/>
</svg>
