<svg width="518" height="365" viewBox="0 0 518 365" fill="none" xmlns="http://www.w3.org/2000/svg">
<mask id="mask0_488_2943" style="mask-type:alpha" maskUnits="userSpaceOnUse" x="0" y="0" width="518" height="365">
<path fill-rule="evenodd" clip-rule="evenodd" d="M0.740771 35.0996C0.730824 24.0132 0.720877 12.9269 0.712162 1.84204C32.7209 1.76977 64.7294 1.70532 96.738 1.64087L96.738 1.64086L111.212 1.61157C194.279 1.44555 277.345 1.27954 360.406 1.01001C412.732 0.84399 465.064 0.631099 517.393 0.353755C516.866 30.0801 516.256 59.8065 515.647 89.5368L515.639 89.883L515.639 89.8929C514.296 155.388 512.953 220.892 512.486 286.391C512.302 312.377 512.607 338.377 514.077 364.338L317.396 362.971L109.956 361.531H109.939L94.4319 361.426C63.2922 361.211 32.1536 360.996 1.02076 360.774L0.902592 223.951L0.776127 77.3108C0.766022 63.2424 0.753396 49.171 0.740771 35.0996Z" fill="#D9D9D9"/>
</mask>
<g mask="url(#mask0_488_2943)">
<path d="M12.2961 -13.4488C9.07614 86.2612 11.6261 186.091 12.9561 285.821C13.3361 314.111 13.7161 342.411 14.0961 370.701C14.1161 371.991 16.1161 371.991 16.0961 370.701C14.7561 270.941 12.4661 171.131 12.8461 71.3613C12.9561 43.0913 13.3861 14.8213 14.2961 -13.4388C14.3361 -14.7287 12.3361 -14.7287 12.2961 -13.4388V-13.4488Z" fill="#53FF6E"/>
<path d="M-0.623874 -13.0989C0.666126 87.3611 1.95611 187.831 2.23611 288.301C2.31611 316.911 2.30607 345.521 2.19607 374.131C2.19607 375.421 4.19607 375.421 4.19607 374.131C4.57607 273.661 3.66608 173.191 2.45608 72.7311C2.11608 44.1211 1.74613 15.5111 1.37613 -13.0989C1.35613 -14.3889 -0.643874 -14.3889 -0.623874 -13.0989Z" fill="#53FF6E"/>
<path d="M23.656 -14.4092C22.536 84.8508 21.546 184.131 23.706 283.381C24.316 311.511 25.186 339.631 26.346 367.731C26.396 369.011 28.396 369.021 28.346 367.731C24.246 268.541 24.006 169.251 24.806 69.9908C25.036 41.8508 25.346 13.7208 25.656 -14.4192C25.666 -15.7092 23.666 -15.7092 23.656 -14.4192V-14.4092Z" fill="#53FF6E"/>
<path d="M46.8561 334.741C47.0961 347.291 47.3461 359.831 47.6161 372.381C47.6461 373.671 49.6461 373.671 49.6161 372.381C49.3461 359.841 49.0961 347.291 48.8561 334.741C48.8361 333.451 46.8361 333.451 46.8561 334.741Z" fill="#53FF6E"/>
<path d="M45.0961 231.04C45.2061 237.39 45.3661 243.73 45.5661 250.08C45.6061 251.36 47.6061 251.37 47.5661 250.08C47.3661 243.74 47.2061 237.39 47.0961 231.04C47.0761 229.75 45.0761 229.75 45.0961 231.04Z" fill="#53FF6E"/>
<path d="M44.4862 130.36C45.2662 154 44.9362 177.65 44.8462 201.3C44.8462 202.59 46.8462 202.59 46.8462 201.3C46.9362 177.65 47.2662 154 46.4862 130.36C46.4462 129.08 44.4462 129.07 44.4862 130.36Z" fill="#53FF6E"/>
<path d="M45.8061 -11.7688C45.3661 1.93117 45.036 15.6412 44.796 29.3512C44.776 30.6412 46.776 30.6412 46.796 29.3512C47.036 15.6412 47.3661 1.93117 47.8061 -11.7688C47.8461 -13.0588 45.8461 -13.0588 45.8061 -11.7688Z" fill="#53FF6E"/>
<path d="M36.0462 333.309C36.0062 347.479 35.8962 361.639 35.7062 375.809C35.6862 377.099 37.6862 377.099 37.7062 375.809C37.9062 361.649 38.0062 347.479 38.0462 333.309C38.0462 332.019 36.0462 332.019 36.0462 333.309Z" fill="#53FF6E"/>
<path d="M34.5061 130.27C34.8661 172.61 34.8762 214.95 35.7362 257.28C35.7662 258.57 37.7662 258.57 37.7362 257.28C36.8762 214.95 36.8661 172.61 36.5061 130.27C36.4961 128.98 34.4961 128.98 34.5061 130.27Z" fill="#53FF6E"/>
<path d="M32.8861 -11.4192C33.0661 2.79078 33.2562 17.0008 33.4362 31.2208C33.4562 32.5108 35.4562 32.5108 35.4362 31.2208C35.2562 17.0108 35.0761 2.80078 34.8861 -11.4192C34.8661 -12.7092 32.8661 -12.7092 32.8861 -11.4192Z" fill="#53FF6E"/>
<path d="M58.6961 335.229C59.0461 346.629 59.4362 358.029 59.8562 369.429C59.9062 370.709 61.9062 370.719 61.8562 369.429C61.4362 358.029 61.0461 346.629 60.6961 335.229C60.6561 333.949 58.6561 333.939 58.6961 335.229Z" fill="#53FF6E"/>
<path d="M56.006 129.01C55.396 150.1 55.7261 171.2 56.1761 192.3C56.2061 193.59 58.2061 193.59 58.1761 192.3C57.7161 171.21 57.386 150.11 58.006 129.01C58.046 127.72 56.046 127.72 56.006 129.01Z" fill="#53FF6E"/>
<path d="M57.1661 -12.7298C57.0061 1.88023 56.8361 16.5003 56.6861 31.1103C56.6761 32.4003 58.6761 32.4003 58.6861 31.1103C58.8361 16.5003 58.9961 1.88023 59.1661 -12.7298C59.1761 -14.0198 57.1761 -14.0198 57.1661 -12.7298Z" fill="#53FF6E"/>
<path d="M80.6161 336.38C80.7861 348.94 80.9561 361.5 81.1161 374.06C81.1361 375.35 83.1361 375.35 83.1161 374.06C82.9461 361.5 82.7761 348.94 82.6161 336.38C82.5961 335.09 80.5961 335.09 80.6161 336.38Z" fill="#53FF6E"/>
<path d="M77.5162 133.159C77.6362 148.409 77.9761 163.659 78.6361 178.899C78.6961 180.179 80.6961 180.189 80.6361 178.899C79.9761 163.659 79.6362 148.409 79.5162 133.159C79.5062 131.869 77.5062 131.869 77.5162 133.159Z" fill="#53FF6E"/>
<path d="M79.3161 -10.0911C79.4861 2.60891 79.3862 15.3089 79.1662 27.9989C79.1462 29.2889 81.1462 29.2889 81.1662 27.9989C81.3962 15.2989 81.4861 2.59891 81.3161 -10.0911C81.2961 -11.3811 79.2961 -11.3811 79.3161 -10.0911Z" fill="#53FF6E"/>
<path d="M69.3061 334.85C69.3061 349.06 69.2661 363.28 69.2161 377.49C69.2161 378.78 71.2161 378.78 71.2161 377.49C71.2661 363.28 71.2961 349.06 71.3061 334.85C71.3061 333.56 69.3061 333.56 69.3061 334.85Z" fill="#53FF6E"/>
<path d="M68.026 132.159C68.266 149.259 68.5061 166.369 68.7461 183.469C68.7661 184.759 70.7661 184.759 70.7461 183.469C70.5061 166.369 70.266 149.259 70.026 132.159C70.006 130.869 68.006 130.869 68.026 132.159Z" fill="#53FF6E"/>
<path d="M66.3961 -9.73953C66.5561 3.27047 66.6561 16.2904 66.7561 29.3004C66.7561 30.5904 68.7661 30.5904 68.7561 29.3004C68.6561 16.2904 68.5461 3.27047 68.3961 -9.73953C68.3761 -11.0295 66.3761 -11.0295 66.3961 -9.73953Z" fill="#53FF6E"/>
<path d="M92.006 334.19C92.406 346.5 92.856 358.8 93.366 371.1C93.416 372.38 95.416 372.39 95.366 371.1C94.856 358.8 94.406 346.49 94.006 334.19C93.966 332.91 91.966 332.9 92.006 334.19Z" fill="#53FF6E"/>
<path d="M89.696 133.37C89.736 147.99 89.7761 162.62 89.7461 177.24C89.7461 178.53 91.7461 178.53 91.7461 177.24C91.7661 162.62 91.746 147.99 91.696 133.37C91.696 132.08 89.696 132.08 89.696 133.37Z" fill="#53FF6E"/>
<path d="M90.676 -11.0402C90.066 2.10985 89.766 15.2599 89.626 28.4199C89.616 29.7099 91.616 29.7099 91.626 28.4199C91.756 15.2599 92.066 2.10985 92.676 -11.0402C92.736 -12.3302 90.736 -12.3202 90.676 -11.0402Z" fill="#53FF6E"/>
<path d="M114.116 332.382C114.316 346.832 114.486 361.292 114.626 375.742C114.636 377.032 116.636 377.032 116.626 375.742C116.486 361.292 116.306 346.832 116.116 332.382C116.096 331.092 114.096 331.092 114.116 332.382Z" fill="#53FF6E"/>
<path d="M111.516 131.721C111.666 146.401 111.756 161.071 111.866 175.751C111.866 177.041 113.876 177.041 113.866 175.751C113.756 161.071 113.666 146.401 113.516 131.721C113.506 130.431 111.506 130.431 111.516 131.721Z" fill="#53FF6E"/>
<path d="M112.826 -8.39773C112.446 3.21227 112.156 14.8322 111.926 26.4522C111.896 27.7422 113.896 27.7422 113.926 26.4522C114.156 14.8322 114.446 3.22227 114.826 -8.39773C114.866 -9.68773 112.866 -9.68773 112.826 -8.39773Z" fill="#53FF6E"/>
<path d="M103.066 331.372C103.046 347.312 102.936 363.242 102.726 379.182C102.706 380.472 104.706 380.472 104.726 379.182C104.946 363.242 105.046 347.312 105.066 331.372C105.066 330.082 103.066 330.082 103.066 331.372Z" fill="#53FF6E"/>
<path d="M101.596 131.741C102.116 146.281 102.066 160.821 101.946 175.371C101.936 176.661 103.936 176.661 103.946 175.371C104.066 160.821 104.116 146.281 103.596 131.741C103.546 130.461 101.546 130.451 101.596 131.741Z" fill="#53FF6E"/>
<path d="M99.9062 -8.04813C100.056 3.37188 100.196 14.7819 100.346 26.2019C100.366 27.4919 102.366 27.4919 102.346 26.2019C102.196 14.7819 102.056 3.37188 101.906 -8.04813C101.886 -9.33812 99.8862 -9.33812 99.9062 -8.04813Z" fill="#53FF6E"/>
<path d="M125.606 335.091C125.986 347.661 126.406 360.221 126.876 372.791C126.926 374.071 128.926 374.081 128.876 372.791C128.406 360.231 127.986 347.661 127.606 335.091C127.566 333.811 125.566 333.801 125.606 335.091Z" fill="#53FF6E"/>
<path d="M123.006 131.622C122.946 147.392 122.906 163.162 122.946 178.932C122.946 180.222 124.946 180.222 124.946 178.932C124.906 163.162 124.946 147.392 125.006 131.622C125.006 130.332 123.016 130.332 123.006 131.622Z" fill="#53FF6E"/>
<path d="M124.186 -9.35867C124.046 2.70133 123.916 14.7613 123.786 26.8113C123.776 28.1013 125.776 28.1013 125.786 26.8113C125.916 14.7513 126.046 2.69133 126.186 -9.35867C126.196 -10.6487 124.196 -10.6487 124.186 -9.35867Z" fill="#53FF6E"/>
<path d="M147.536 332.77C147.736 347.66 147.936 362.54 148.136 377.43C148.156 378.72 150.156 378.72 150.136 377.43C149.936 362.54 149.736 347.66 149.536 332.77C149.516 331.48 147.516 331.48 147.536 332.77Z" fill="#53FF6E"/>
<path d="M146.336 -6.72C146.066 9.2 145.946 25.13 145.526 41.04C145.106 56.95 143.856 72.93 143.596 88.89C143.076 120.97 144.036 153.05 145.666 185.08C145.736 186.36 147.736 186.37 147.666 185.08C146.036 153.05 145.066 120.96 145.596 88.89C145.856 72.93 147.106 57.01 147.526 41.04C147.946 25.12 148.066 9.2 148.336 -6.72C148.356 -8.01 146.356 -8.01 146.336 -6.72Z" fill="#53FF6E"/>
<path d="M136.326 332.63C136.326 348.71 136.296 364.78 136.236 380.86C136.236 382.15 138.236 382.15 138.236 380.86C138.296 364.78 138.326 348.71 138.326 332.63C138.326 331.34 136.326 331.34 136.326 332.63Z" fill="#53FF6E"/>
<path d="M133.416 -6.37039C133.846 56.3396 132.896 119.07 135.426 181.75C135.476 183.03 137.476 183.04 137.426 181.75C134.896 119.07 135.836 56.3396 135.416 -6.37039C135.416 -7.66039 133.406 -7.66039 133.416 -6.37039Z" fill="#53FF6E"/>
<path d="M180.956 327.471C181.136 340.731 181.316 353.991 181.486 367.241C181.506 368.531 183.506 368.531 183.486 367.241C183.306 353.981 183.126 340.721 182.956 327.471C182.936 326.181 180.936 326.181 180.956 327.471Z" fill="#53FF6E"/>
<path d="M179.846 -5.03836C177.896 78.6616 178.866 162.382 179.846 246.092C179.866 247.382 181.866 247.382 181.846 246.092C180.856 162.382 179.886 78.6616 181.846 -5.03836C181.876 -6.32836 179.876 -6.32836 179.846 -5.03836Z" fill="#53FF6E"/>
<path d="M169.836 331.52C169.836 345.27 169.816 359.01 169.776 372.76C169.776 374.05 171.776 374.05 171.776 372.76C171.816 359.01 171.836 345.27 171.836 331.52C171.836 330.23 169.836 330.23 169.836 331.52Z" fill="#53FF6E"/>
<path d="M169.656 223.69C169.686 231.73 169.706 239.76 169.686 247.8C169.686 249.09 171.686 249.09 171.686 247.8C171.696 239.76 171.686 231.73 171.656 223.69C171.656 222.4 169.646 222.4 169.656 223.69Z" fill="#53FF6E"/>
<path d="M166.926 -4.68875C166.876 62.7012 167.866 130.081 169.466 197.451C169.496 198.731 171.496 198.741 171.466 197.451C169.866 130.081 168.876 62.7012 168.926 -4.68875C168.926 -5.97875 166.926 -5.97875 166.926 -4.68875Z" fill="#53FF6E"/>
<path d="M191.206 -5.98929C190.086 93.2707 189.096 192.551 191.256 291.801C191.866 319.931 192.736 348.051 193.896 376.151C193.946 377.431 195.946 377.441 195.896 376.151C191.796 276.961 191.556 177.671 192.356 78.4107C192.586 50.2707 192.896 22.1407 193.206 -5.9993C193.216 -7.2893 191.216 -7.2893 191.206 -5.9993V-5.98929Z" fill="#53FF6E"/>
<path d="M211.986 128.411C212.876 212.541 214.846 296.661 215.166 380.801C215.166 382.091 217.166 382.091 217.166 380.801C216.856 296.661 214.886 212.551 213.986 128.411C213.976 127.121 211.976 127.121 211.986 128.411Z" fill="#53FF6E"/>
<path d="M213.356 -3.34891C212.836 32.9011 210.916 69.1411 211.886 105.401C211.916 106.681 213.916 106.691 213.886 105.401C212.916 69.1411 214.836 32.9011 215.356 -3.34891C215.376 -4.63891 213.376 -4.63891 213.356 -3.34891Z" fill="#53FF6E"/>
<path d="M200.436 -2.9993C201.546 92.4107 203.006 187.831 203.336 283.251C203.426 310.391 203.436 337.521 203.316 364.661C203.316 365.951 205.306 365.951 205.316 364.661C205.736 269.341 204.626 174.031 203.436 78.7107C203.096 51.4707 202.756 24.2407 202.436 -2.9993C202.426 -4.2893 200.426 -4.2893 200.436 -2.9993Z" fill="#53FF6E"/>
<path d="M223.586 135.241C224.826 216.111 221.926 297.081 227.406 377.841C227.496 379.121 229.496 379.131 229.406 377.841C223.926 297.081 226.826 216.111 225.586 135.241C225.566 133.951 223.566 133.951 223.586 135.241Z" fill="#53FF6E"/>
<path d="M224.716 -4.30984C224.816 27.0302 222.896 58.3401 223.486 89.6801C223.506 90.9701 225.506 90.9701 225.486 89.6801C224.896 58.3401 226.816 27.0302 226.716 -4.30984C226.716 -5.59984 224.716 -5.59984 224.716 -4.30984Z" fill="#53FF6E"/>
<path d="M245.496 127.882C245.856 187.962 245.876 248.042 246.836 308.112C246.856 309.402 248.856 309.402 248.836 308.112C247.876 248.042 247.856 187.962 247.496 127.882C247.496 126.592 245.486 126.592 245.496 127.882Z" fill="#53FF6E"/>
<path d="M246.866 -1.66922C246.196 26.0108 245.766 53.6908 245.546 81.3808C245.536 82.6708 247.536 82.6708 247.546 81.3808C247.766 53.6908 248.196 26.0108 248.866 -1.66922C248.896 -2.95922 246.896 -2.95922 246.866 -1.66922Z" fill="#53FF6E"/>
<path d="M235.826 126.952C236.846 207.912 236.856 288.872 236.806 369.842C236.806 371.132 238.806 371.132 238.806 369.842C238.856 288.882 238.846 207.912 237.826 126.952C237.806 125.662 235.806 125.662 235.826 126.952Z" fill="#53FF6E"/>
<path d="M233.946 -1.31766C234.386 27.5123 234.836 56.3324 235.256 85.1624C235.276 86.4524 237.276 86.4524 237.256 85.1624C236.836 56.3324 236.386 27.5123 235.946 -1.31766C235.926 -2.60766 233.926 -2.60766 233.946 -1.31766Z" fill="#53FF6E"/>
<path d="M257.016 126.452C257.826 186.792 254.926 247.152 257.536 307.472C257.596 308.752 259.596 308.762 259.536 307.472C256.926 247.152 259.826 186.792 259.016 126.452C258.996 125.162 256.996 125.162 257.016 126.452Z" fill="#53FF6E"/>
<path d="M258.226 -2.61844C257.926 24.4316 257.596 51.4716 257.316 78.5216C257.306 79.8116 259.306 79.8116 259.316 78.5216C259.596 51.4716 259.916 24.4316 260.226 -2.61844C260.236 -3.90844 258.236 -3.90844 258.226 -2.61844Z" fill="#53FF6E"/>
<path d="M281.766 334.042C281.866 344.702 281.926 355.362 281.936 366.022C281.936 367.312 283.936 367.312 283.936 366.022C283.926 355.362 283.866 344.702 283.766 334.042C283.756 332.752 281.756 332.752 281.766 334.042Z" fill="#53FF6E"/>
<path d="M280.966 278.421C281.126 287.691 281.286 296.961 281.426 306.231C281.446 307.521 283.446 307.521 283.426 306.231C283.286 296.961 283.136 287.691 282.966 278.421C282.946 277.131 280.946 277.131 280.966 278.421Z" fill="#53FF6E"/>
<path d="M278.776 125.811C278.266 148.241 278.716 170.671 279.276 193.091C279.306 194.371 281.306 194.381 281.276 193.091C280.716 170.671 280.276 148.241 280.776 125.811C280.806 124.521 278.806 124.521 278.776 125.811Z" fill="#53FF6E"/>
<path d="M280.376 0.0104687C279.316 29.1205 278.826 58.2505 278.716 87.3805C278.716 88.6705 280.716 88.6705 280.716 87.3805C280.826 58.2505 281.316 29.1305 282.376 0.0104687C282.426 -1.27953 280.426 -1.27953 280.376 0.0104687Z" fill="#53FF6E"/>
<path d="M270.426 280.481C270.286 289.011 270.406 297.531 270.606 306.051C270.636 307.331 272.636 307.341 272.606 306.051C272.396 297.531 272.286 289.001 272.426 280.481C272.446 279.191 270.446 279.191 270.426 280.481Z" fill="#53FF6E"/>
<path d="M268.966 125.272C270.136 148.702 270.196 172.162 270.086 195.612C270.086 196.902 272.076 196.902 272.086 195.612C272.196 172.162 272.136 148.702 270.966 125.272C270.906 123.992 268.906 123.982 268.966 125.272Z" fill="#53FF6E"/>
<path d="M267.456 0.362031C267.766 27.572 268.106 54.782 268.446 81.992C268.466 83.282 270.466 83.282 270.446 81.992C270.106 54.782 269.766 27.572 269.456 0.362031C269.446 -0.927969 267.446 -0.927969 267.456 0.362031Z" fill="#53FF6E"/>
<path d="M292.326 332.481C292.656 343.391 293.106 354.291 293.786 365.181C293.866 366.461 295.866 366.471 295.786 365.181C295.106 354.291 294.646 343.391 294.326 332.481C294.286 331.201 292.286 331.191 292.326 332.481Z" fill="#53FF6E"/>
<path d="M291.236 279.561C291.416 288.151 291.566 296.741 291.716 305.321C291.736 306.611 293.736 306.611 293.716 305.321C293.566 296.731 293.416 288.141 293.236 279.561C293.206 278.271 291.206 278.271 291.236 279.561Z" fill="#53FF6E"/>
<path d="M290.766 124.831C290.816 147.621 290.846 170.411 290.856 193.201C290.856 194.491 292.856 194.491 292.856 193.201C292.836 170.411 292.816 147.621 292.766 124.831C292.766 123.541 290.766 123.541 290.766 124.831Z" fill="#53FF6E"/>
<path d="M291.736 -0.93859C292.776 31.2114 289.946 63.3414 290.956 95.4914C290.996 96.7714 292.996 96.7814 292.956 95.4914C291.946 63.3414 294.776 31.2114 293.736 -0.93859C293.696 -2.21859 291.696 -2.22859 291.736 -0.93859Z" fill="#53FF6E"/>
<path d="M316.066 330.901C316.106 344.281 316.096 357.671 316.246 371.051C316.256 372.341 318.256 372.341 318.246 371.051C318.096 357.671 318.116 344.291 318.066 330.901C318.066 329.611 316.066 329.611 316.066 330.901Z" fill="#53FF6E"/>
<path d="M315.097 281.196C315.518 289.28 315.788 297.372 315.939 305.465C315.96 306.621 318.117 306.621 318.096 305.465C317.934 297.372 317.675 289.28 317.254 281.196C317.19 280.049 315.033 280.04 315.097 281.196Z" fill="#53FF6E"/>
<path d="M314.696 1.44016C312.706 65.5602 313.666 129.72 313.936 193.86C313.936 195.15 315.946 195.15 315.936 193.86C315.666 129.72 314.716 65.5602 316.696 1.44016C316.736 0.150156 314.736 0.150156 314.696 1.44016Z" fill="#53FF6E"/>
<path d="M304.646 331.571C304.646 345.411 304.646 359.261 304.626 373.101C304.626 374.391 306.626 374.391 306.626 373.101C306.646 359.261 306.656 345.411 306.646 331.571C306.646 330.281 304.646 330.281 304.646 331.571Z" fill="#53FF6E"/>
<path d="M304.096 281.246C304.125 289.307 304.145 297.367 304.154 305.418C304.154 306.637 306.096 306.637 306.096 305.418C306.077 297.357 306.057 289.297 306.038 281.246C306.038 280.027 304.096 280.027 304.096 281.246Z" fill="#53FF6E"/>
<path d="M301.776 1.79172C302.676 65.8617 303.666 129.932 303.986 194.002C303.986 195.292 305.996 195.292 305.986 194.002C305.666 129.922 304.676 65.8617 303.776 1.79172C303.756 0.501719 301.756 0.501719 301.776 1.79172Z" fill="#53FF6E"/>
<path d="M326.846 331.792C327.306 344.332 327.836 356.862 328.296 369.402C328.346 370.682 330.346 370.692 330.296 369.402C329.836 356.862 329.316 344.332 328.846 331.792C328.796 330.512 326.796 330.502 326.846 331.792Z" fill="#53FF6E"/>
<path d="M326.096 278.242C326.096 287.306 326.214 296.361 326.408 305.426C326.433 306.629 328.121 306.639 328.096 305.426C327.902 296.361 327.783 287.306 327.783 278.242C327.783 277.029 326.096 277.029 326.096 278.242Z" fill="#53FF6E"/>
<path d="M326.056 0.481172C325.656 64.9912 323.696 129.501 324.866 194.011C324.886 195.301 326.886 195.301 326.866 194.011C325.696 129.501 327.656 64.9912 328.056 0.481172C328.056 -0.808828 326.066 -0.808828 326.056 0.481172Z" fill="#53FF6E"/>
<path d="M346.366 328.891C346.486 342.801 346.556 356.711 346.326 370.621C346.306 371.911 348.306 371.911 348.326 370.621C348.556 356.711 348.486 342.801 348.366 328.891C348.356 327.601 346.356 327.601 346.366 328.891Z" fill="#53FF6E"/>
<path d="M350.406 0.401254C346.866 64.7813 345.796 129.271 346.446 193.741C346.456 195.031 348.456 195.031 348.446 193.741C347.806 129.271 348.866 64.7813 352.406 0.401254C352.476 -0.888746 350.476 -0.878746 350.406 0.401254Z" fill="#53FF6E"/>
<path d="M336.086 329.311C336.076 343.481 335.846 357.641 335.116 371.781C335.046 373.071 337.046 373.061 337.116 371.781C337.846 357.631 338.076 343.471 338.086 329.311C338.086 328.021 336.086 328.021 336.086 329.311Z" fill="#53FF6E"/>
<path d="M337.476 0.541719C335.856 64.9117 337.736 129.302 336.666 193.682C336.646 194.972 338.646 194.972 338.666 193.682C339.736 129.302 337.856 64.9117 339.476 0.541719C339.506 -0.748281 337.506 -0.748281 337.476 0.541719Z" fill="#53FF6E"/>
<path d="M356.766 328.671C356.846 342.931 357.106 357.191 357.716 371.441C357.776 372.721 359.776 372.731 359.716 371.441C359.096 357.191 358.836 342.931 358.766 328.671C358.766 327.381 356.756 327.381 356.766 328.671Z" fill="#53FF6E"/>
<path d="M361.786 -0.368438C359.846 63.8116 358.806 128.012 357.676 192.202C357.656 193.492 359.656 193.492 359.676 192.202C360.806 128.002 361.856 63.8016 363.786 -0.368438C363.826 -1.65844 361.826 -1.65844 361.786 -0.368438Z" fill="#53FF6E"/>
<path d="M382.036 332.809C382.436 348.329 382.866 363.859 382.906 379.389C382.906 380.679 384.906 380.679 384.906 379.389C384.866 363.859 384.436 348.339 384.036 332.809C384.006 331.529 382.006 331.519 382.036 332.809Z" fill="#53FF6E"/>
<path d="M381.576 280.3C381.426 287.65 381.396 295.01 381.456 302.36C381.456 303.65 383.466 303.65 383.456 302.36C383.406 295.01 383.426 287.65 383.576 280.3C383.606 279.01 381.606 279.01 381.576 280.3Z" fill="#53FF6E"/>
<path d="M381.106 -4.75906C379.856 61.9309 377.926 128.651 380.446 195.331C380.496 196.611 382.496 196.621 382.446 195.331C379.936 128.641 381.866 61.9309 383.106 -4.75906C383.126 -6.04906 381.126 -6.04906 381.106 -4.75906Z" fill="#53FF6E"/>
<path d="M370.896 331.29C370.896 348.47 370.936 365.64 371.006 382.82C371.006 384.11 373.016 384.11 373.006 382.82C372.936 365.65 372.906 348.47 372.896 331.29C372.896 330 370.896 330 370.896 331.29Z" fill="#53FF6E"/>
<path d="M370.976 280.069C370.946 287.549 370.926 295.029 370.916 302.509C370.916 303.799 372.916 303.799 372.916 302.509C372.926 295.029 372.956 287.549 372.976 280.069C372.976 278.779 370.976 278.779 370.976 280.069Z" fill="#53FF6E"/>
<path d="M368.176 -4.40929C369.836 62.4507 368.886 129.331 370.456 196.191C370.486 197.471 372.486 197.481 372.456 196.191C370.886 129.331 371.836 62.4507 370.176 -4.40929C370.146 -5.68929 368.146 -5.69929 368.176 -4.40929Z" fill="#53FF6E"/>
<path d="M393.896 331.331C394.226 346.371 394.566 361.401 395.156 376.431C395.206 377.711 397.206 377.721 397.156 376.431C396.566 361.401 396.236 346.371 395.896 331.331C395.866 330.041 393.866 330.041 393.896 331.331Z" fill="#53FF6E"/>
<path d="M392.276 280.53C392.646 288.05 392.936 295.57 393.176 303.1C393.216 304.38 395.216 304.39 395.176 303.1C394.936 295.57 394.646 288.05 394.276 280.53C394.216 279.25 392.216 279.24 392.276 280.53Z" fill="#53FF6E"/>
<path d="M392.466 -5.72C390.876 61.31 390.866 128.37 391.306 195.42C391.306 196.71 393.316 196.71 393.306 195.42C392.876 128.37 392.876 61.32 394.466 -5.72C394.496 -7.01 392.496 -7.01 392.466 -5.72Z" fill="#53FF6E"/>
<path d="M414.866 280.411C414.866 289.151 415.006 297.881 415.186 306.611C415.216 307.901 417.216 307.901 417.186 306.611C417.006 297.881 416.876 289.141 416.866 280.411C416.866 279.121 414.866 279.121 414.866 280.411Z" fill="#53FF6E"/>
<path d="M414.416 -3.24914C410.936 62.7109 412.846 128.751 413.726 194.751C413.746 196.041 415.746 196.041 415.726 194.751C414.846 128.751 412.936 62.7109 416.416 -3.24914C416.486 -4.53914 414.486 -4.52914 414.416 -3.24914Z" fill="#53FF6E"/>
<path d="M404.396 331.202C404.396 342.852 404.396 354.502 404.366 366.152C404.366 367.442 406.366 367.442 406.366 366.152C406.396 354.502 406.406 342.852 406.396 331.202C406.396 329.912 404.396 329.912 404.396 331.202Z" fill="#53FF6E"/>
<path d="M404.286 280.872C404.316 287.862 404.336 294.852 404.356 301.842C404.356 303.132 406.356 303.132 406.356 301.842C406.336 294.852 406.316 287.862 406.286 280.872C406.286 279.582 404.286 279.582 404.286 280.872Z" fill="#53FF6E"/>
<path d="M401.486 -2.89773C401.866 63.0423 402.856 128.972 403.746 194.902C403.766 196.192 405.766 196.192 405.746 194.902C404.856 128.972 403.866 63.0323 403.486 -2.89773C403.486 -4.18773 401.476 -4.18773 401.486 -2.89773Z" fill="#53FF6E"/>
<path d="M425.556 280.651C425.636 289.141 425.766 297.631 425.936 306.121C425.966 307.411 427.966 307.411 427.936 306.121C427.766 297.631 427.646 289.141 427.556 280.651C427.546 279.361 425.546 279.361 425.556 280.651Z" fill="#53FF6E"/>
<path d="M425.776 -4.20828C424.866 62.3717 424.856 128.962 424.606 195.552C424.606 196.842 426.606 196.842 426.606 195.552C426.856 128.962 426.866 62.3817 427.776 -4.20828C427.796 -5.49828 425.796 -5.49828 425.776 -4.20828Z" fill="#53FF6E"/>
<path d="M447.926 -1.56961C446.326 79.6104 446.576 160.82 447.656 242.01C447.966 265.14 448.346 288.27 448.766 311.4C448.786 312.69 450.786 312.69 450.766 311.4C449.286 230.11 448.346 148.81 448.976 67.5104C449.156 44.4804 449.466 21.4604 449.916 -1.56961C449.946 -2.85961 447.946 -2.85961 447.916 -1.56961H447.926Z" fill="#53FF6E"/>
<path d="M434.996 -1.21829C436.436 78.8017 437.376 158.832 437.716 238.862C437.816 261.582 437.866 284.302 437.866 307.032C437.866 308.322 439.866 308.322 439.866 307.032C439.856 227.082 439.246 147.122 438.096 67.1817C437.766 44.3817 437.396 21.5917 436.986 -1.20828C436.966 -2.49828 434.966 -2.49828 434.986 -1.20828L434.996 -1.21829Z" fill="#53FF6E"/>
<path d="M459.286 -2.51901C458.946 80.811 457.666 164.151 458.556 247.481C458.806 271.121 459.236 294.771 459.896 318.401C459.936 319.681 461.936 319.691 461.896 318.401C459.566 234.981 460.226 151.521 460.856 68.081C461.036 44.551 461.196 21.0209 461.296 -2.50906C461.296 -3.79906 459.306 -3.79906 459.296 -2.50906L459.286 -2.51901Z" fill="#53FF6E"/>
<path d="M481.436 0.112031C477.926 94.992 480.736 189.932 482.226 284.822C482.646 311.682 482.956 338.552 482.986 365.412C482.986 366.702 484.986 366.702 484.986 365.412C484.866 270.452 481.226 175.522 481.776 80.552C481.936 53.732 482.446 26.912 483.436 0.112031C483.486 -1.17797 481.486 -1.17797 481.436 0.112031Z" fill="#53FF6E"/>
<path d="M468.506 0.461641C468.836 48.3816 469.676 96.3016 470.576 144.212C471.476 192.112 471.216 240.072 471.416 287.982C471.526 315.162 471.556 342.342 471.386 369.512C471.386 370.802 473.376 370.802 473.386 369.512C474.016 273.552 473.006 177.582 471.476 81.6416C471.046 54.5816 470.696 27.5216 470.516 0.461641C470.516 -0.828359 468.506 -0.828359 468.516 0.461641H468.506Z" fill="#53FF6E"/>
<path d="M492.796 -0.838897C491.296 94.3711 490.956 189.601 492.776 284.811C493.296 311.871 493.986 338.921 494.876 365.971C494.916 367.251 496.916 367.261 496.876 365.971C493.756 270.811 493.066 175.581 493.816 80.3711C494.036 53.3011 494.366 26.2211 494.796 -0.848906C494.816 -2.13891 492.816 -2.13891 492.796 -0.848906V-0.838897Z" fill="#53FF6E"/>
<path d="M514.946 0.799714C514.506 48.7597 513.486 96.6998 513.606 144.66C513.726 192.62 514.436 240.96 515.236 289.1C515.686 316.39 516.156 343.69 516.566 370.98C516.586 372.27 518.586 372.27 518.566 370.98C517.136 274.45 514.816 177.91 515.856 81.3697C516.146 54.5097 516.716 27.6598 516.956 0.789766C516.966 -0.500234 514.966 -0.500234 514.956 0.789766L514.946 0.799714Z" fill="#53FF6E"/>
<path d="M502.016 1.15109C503.456 98.1011 504.986 195.051 505.126 292.011C505.166 319.471 505.096 346.941 504.876 374.401C504.876 375.691 506.866 375.691 506.876 374.401C507.626 277.391 506.596 180.381 505.216 83.3811C504.826 55.9711 504.416 28.5611 504.006 1.15109C503.986 -0.138906 501.986 -0.138906 502.006 1.15109H502.016Z" fill="#53FF6E"/>
</g>
</svg>
