<svg width="69" height="67" viewBox="0 0 69 67" fill="none" xmlns="http://www.w3.org/2000/svg">
<path d="M17.3084 20.0552C29.4684 19.5552 41.6183 19.4852 53.7883 19.8352C58.6183 19.9752 58.6083 12.4752 53.7883 12.3352C41.6283 11.9852 29.4684 12.0552 17.3084 12.5552C12.4984 12.7552 12.4784 20.2552 17.3084 20.0552Z" fill="#53FF6E"/>
<path d="M16.8285 51.4159C28.5885 50.5359 40.3685 51.5358 52.1085 52.2058C56.9285 52.4858 56.9185 44.9858 52.1085 44.7058C40.3685 44.0358 28.5785 43.0359 16.8285 43.9159C12.0485 44.2759 12.0085 51.7759 16.8285 51.4159Z" fill="#53FF6E"/>
<path d="M12.6585 16.0352C13.3685 26.4752 13.4385 36.9053 12.9385 47.3553C12.7085 52.1753 20.2085 52.1653 20.4385 47.3553C20.9385 36.9053 20.8685 26.4653 20.1585 16.0352C19.8285 11.2452 12.3285 11.2053 12.6585 16.0352Z" fill="#53FF6E"/>
<path d="M50.0384 16.6954C49.3284 27.0954 48.7085 37.4654 49.6084 47.8754C50.0184 52.6454 57.5284 52.6954 57.1084 47.8754C56.2084 37.4754 56.8284 27.0954 57.5384 16.6954C57.8684 11.8754 50.3684 11.8954 50.0384 16.6954Z" fill="#53FF6E"/>
<path d="M21.9084 16.1859C19.3184 19.2359 18.0084 22.4159 17.8184 26.4259C17.6684 29.4959 22.1584 31.6059 24.2184 29.0759C26.2784 26.5459 27.7684 23.9959 28.9484 20.8959C30.4384 16.9559 23.8984 14.1659 22.0984 18.0059C19.9984 22.4859 18.2584 27.0559 16.9384 31.8259C15.7384 36.1759 21.3784 37.9659 23.7884 34.7159C26.4684 31.1059 28.3484 27.1659 29.5684 22.8459C30.7184 18.7959 24.7884 16.1959 22.7184 19.9559C18.9784 26.7259 16.7984 33.7759 15.8484 41.4359C15.4484 44.6859 20.2084 46.3559 22.2484 44.0859C26.8084 39.0159 29.2084 31.4659 31.9984 25.3059L25.5185 21.5159C22.8085 27.7959 20.7884 34.1559 19.6084 40.8959C18.8484 45.2259 23.8685 47.1759 26.4585 43.7859C30.2485 38.8359 32.8884 33.3359 34.4884 27.3059C35.5684 23.2359 29.7685 20.6759 27.6385 24.4159C24.5585 29.8259 22.5184 35.5259 21.6184 41.6859C21.0184 45.7959 25.9684 48.2959 28.4684 44.5759C31.1284 40.6259 32.8684 36.3659 33.7284 31.6859C34.4384 27.7959 28.8984 24.7159 26.8784 28.7959C24.5684 33.4559 23.4084 38.1959 23.5084 43.4059C23.5684 46.5259 27.6484 48.5159 29.9084 46.0559C34.0684 41.5459 36.4385 36.2059 38.7085 30.5859C40.3085 26.6259 33.8484 24.0059 31.8584 27.6959C29.1284 32.7559 27.6484 37.9759 27.2584 43.7059C27.0484 46.8059 31.6184 48.8459 33.6584 46.3559C37.1284 42.1159 39.6584 37.6059 41.3684 32.3859L34.1385 30.3959C32.9085 34.5159 31.8684 38.6559 31.0084 42.8759C30.2784 46.4459 34.4784 49.2659 37.2784 46.5259C41.0084 42.8659 42.8285 37.2159 45.0785 32.5759L38.2284 29.6859C36.9084 34.1859 35.8084 38.7259 34.9184 43.3359C34.1284 47.4359 39.4285 49.9559 41.7685 46.2259C43.8385 42.9459 45.6785 39.5859 47.3285 36.0759L40.4784 33.1859C39.3884 36.9359 38.5284 40.5759 38.2584 44.4759C38.0284 47.8059 42.4684 49.3059 44.6584 47.1259C47.6784 44.1059 50.0384 40.7859 51.7784 36.8759L44.9284 33.9859C43.9884 38.0559 41.2585 43.7059 44.7685 47.1259C46.8885 49.1959 50.1084 48.1059 51.0384 45.4759C51.7084 43.5759 52.2785 41.6759 52.7685 39.7259C53.9685 34.9459 47.2684 33.3259 45.5384 37.7359C45.0284 39.0259 44.7184 40.1559 44.4784 41.5159C43.6684 46.2159 50.8085 48.2759 51.7085 43.5059C53.0485 36.4459 54.5485 27.3659 50.0185 21.1259C48.3385 18.8059 45.1884 18.6359 43.5384 21.1259C41.6084 24.0459 39.9284 27.9559 41.8084 31.2559C42.4484 32.3759 43.7484 33.1459 45.0484 33.1159C51.5784 32.9659 56.6684 18.7859 48.4384 18.2159C41.6984 17.7459 35.0585 31.0459 43.4585 32.8759C51.2385 34.5759 53.9185 19.2159 46.5785 17.1059C39.2385 14.9959 28.7685 25.7859 32.2685 32.6259C32.8685 33.8059 34.2384 34.4459 35.5084 34.4859C42.4184 34.6859 50.7485 23.4759 43.2685 18.5759C36.5185 14.1459 27.6585 23.2759 33.3885 29.5159C39.1185 35.7559 45.5084 25.0659 40.1284 19.7359C34.7484 14.4059 22.7484 20.8259 26.4384 28.3559C26.9884 29.4759 28.4484 30.2759 29.6784 30.2159C34.2384 29.9859 36.5784 26.5259 36.9684 22.2559C37.2484 19.1559 33.6385 17.9459 31.3285 19.0159C28.7685 20.2059 27.4984 21.9959 26.4684 24.5559C24.6584 29.0259 31.9085 30.9759 33.6985 26.5459L35.1084 25.4859L29.4684 22.2459L29.6784 22.7059L32.9184 24.5659L32.5785 23.8659L32.9585 26.7559C33.2585 25.6759 33.9185 25.0759 34.9485 24.9759L37.5984 23.8759C39.1084 23.8959 36.7585 27.0259 35.5185 26.9859L38.7584 28.8459L38.3184 27.9859L38.6985 30.8759C39.0685 29.5359 42.6684 23.4059 44.7584 24.5259L43.0384 22.2859C43.5684 23.7959 43.3384 25.2159 42.3684 26.5559L45.0185 25.4559H43.9884C45.0684 26.0659 46.1484 26.6859 47.2284 27.3059C47.8884 26.9059 48.3084 26.3759 48.4684 25.7159L45.8184 24.6159L46.3384 25.2359L45.2384 22.5859C45.2384 24.0159 44.4384 25.7059 43.4284 26.6859L46.0785 25.5859L45.0884 25.6059L48.3285 27.4659C48.5585 27.8659 49.8984 25.1459 50.0584 24.9059H43.5785C46.8285 29.3759 45.4784 36.4259 44.5084 41.5059L51.7384 43.4959C51.9784 42.1359 52.2884 40.9959 52.7984 39.7159L45.5684 37.7259C45.0784 39.6759 44.5084 41.5759 43.8384 43.4759L50.1084 41.8259L49.4384 41.1759L50.5384 43.8259C50.5684 41.2659 51.6184 38.4659 52.1984 35.9859C53.1084 32.0659 47.1484 29.0359 45.3484 33.0959C43.8584 36.4359 41.9984 39.2359 39.4084 41.8259L45.8084 44.4759C46.0384 41.2659 46.8685 38.2559 47.7685 35.1759C48.9285 31.1959 42.7684 28.3659 40.9184 32.2859C39.2584 35.7959 37.4184 39.1559 35.3584 42.4359L42.2085 45.3259C43.0885 40.7159 44.1885 36.1759 45.5185 31.6759C46.6885 27.6859 40.5484 24.8959 38.6684 28.7859C36.7884 32.6759 35.1784 38.1459 32.0384 41.2159L38.3084 44.8659C39.1684 40.6559 40.2084 36.5059 41.4384 32.3859C42.8284 27.7359 35.6985 25.8259 34.2085 30.3959C32.9185 34.3359 31.0584 37.8459 28.4284 41.0559L34.8285 43.7059C35.1385 39.2859 36.3084 35.3659 38.4084 31.4759L31.5584 28.5859C29.7884 32.9659 27.9184 37.2359 24.6784 40.7459L31.0785 43.3959C31.0085 39.5259 31.6984 36.0559 33.4284 32.5659L26.5785 29.6759C25.8185 33.8059 24.4184 37.2859 22.0684 40.7759L28.9184 43.6659C29.7284 38.1259 31.4084 33.0559 34.1884 28.1859L27.3384 25.2959C25.8884 30.7359 23.4884 35.5159 20.0684 39.9859L26.9184 42.8759C27.9784 36.8159 29.6284 30.9359 32.0684 25.2859C33.9484 20.9259 27.5984 17.0759 25.5884 21.4959C23.1584 26.8559 20.9684 34.3559 17.0084 38.7559L23.4084 41.4059C24.1884 35.1259 26.2084 29.2359 29.2584 23.7059L22.4084 20.8159C21.3384 24.5859 19.7084 27.7659 17.3884 30.8959L24.2384 33.7859C25.3884 29.6359 26.8085 25.6659 28.6385 21.7659L21.7884 18.8759C21.0984 20.7059 20.2284 22.2259 18.9884 23.7459L25.3885 26.3959C25.4785 24.4459 26.0184 22.9559 27.2884 21.4659C30.3984 17.8059 25.1184 12.4759 21.9884 16.1659L21.9084 16.1859Z" fill="#53FF6E"/>
<path d="M40.2985 21.1758C45.1285 21.1758 45.1285 13.6758 40.2985 13.6758C35.4685 13.6758 35.4685 21.1758 40.2985 21.1758Z" fill="#53FF6E"/>
<path d="M3.41841 6.58552C24.2884 5.19552 45.0184 6.25552 65.9084 6.95552C69.1284 7.06552 69.1184 2.06552 65.9084 1.95552C45.0184 1.25552 24.2984 0.205523 3.41841 1.58552C0.228412 1.79552 0.198412 6.79552 3.41841 6.58552Z" fill="#53FF6E"/>
<path d="M6.26843 66.5557C26.2584 66.2157 46.2484 65.8757 66.2384 65.5357C69.4484 65.4857 69.4584 60.4757 66.2384 60.5357C46.2484 60.8757 26.2584 61.2157 6.26843 61.5557C3.05843 61.6057 3.04843 66.6157 6.26843 66.5557Z" fill="#53FF6E"/>
<path d="M63.3984 5.89547C63.1884 24.8955 63.3084 43.8855 63.7484 62.8755C63.8184 66.0855 68.8184 66.0955 68.7484 62.8755C68.3084 43.8855 68.1884 24.8855 68.3984 5.89547C68.4384 2.67547 63.4384 2.67547 63.3984 5.89547Z" fill="#53FF6E"/>
<path d="M0.978445 4.69673C2.27845 24.5067 -0.431554 44.2167 1.69845 64.0567C2.03845 67.2267 7.03845 67.2567 6.69845 64.0567C4.56845 44.2067 7.27845 24.4967 5.97845 4.69673C5.76845 1.50673 0.768445 1.47673 0.978445 4.69673Z" fill="#53FF6E"/>
</svg>
