<svg width="300" height="59" viewBox="0 0 300 59" fill="none" xmlns="http://www.w3.org/2000/svg">
<path d="M33.4799 22.4702L38.1099 22.6403C43.0499 22.8203 42.7599 15.7203 38.1099 15.1403C36.5999 14.9503 35.2 14.8803 33.68 14.9003C28.86 14.9803 28.84 22.4303 33.68 22.4003C34.55 22.3403 35.4 22.4003 36.25 22.5803C40.99 23.4703 42.82 16.9702 38.24 15.3502C30.64 12.6502 29.67 24.0403 28.83 28.7603C27.99 33.4803 34.74 35.4802 36.06 30.7502C37.04 27.2202 37.84 23.7402 37.7 20.0602C37.55 15.9902 31.3 14.7802 30.33 19.0602C29.36 23.3402 28.88 27.6703 28.95 32.0703C29.01 36.2403 35.23 37.2403 36.32 33.0703C37.22 29.6103 38.01 26.1202 38.68 22.6002C39.58 17.9002 32.92 15.9502 31.45 20.6102C30.16 24.7102 29.6099 28.9003 29.7999 33.1903C29.9899 37.4803 35.9199 38.3302 37.1699 34.1903C38.4199 30.0503 38.99 25.5403 39.49 21.1303H31.99C31.97 25.1403 32.0099 29.1403 32.1099 33.1403C32.2299 38.0703 39.0899 37.8403 39.6099 33.1403C40.0999 28.7103 40.3699 24.2803 40.4199 19.8203H32.9199C33.3399 24.5003 32.96 29.2302 32.77 33.9102C32.6 38.0702 39.32 39.1002 40.14 34.9102C41.01 30.4502 40.5799 25.3202 41.9099 21.0502L34.5399 20.0502C34.4599 24.8702 34.3799 29.6903 34.2899 34.5103H41.7899C41.8399 29.5603 41.35 24.2303 42.06 19.3303L35.21 20.2302C34.24 18.2502 34.82 21.2703 34.77 22.1303C34.67 23.7503 34.5699 25.3702 34.4799 26.9902C34.2999 30.0002 34.12 33.0103 33.94 36.0203C33.69 40.1703 40.62 41.2203 41.31 37.0203C41.69 34.7103 42.07 32.3903 42.45 30.0803L35.08 29.0803V35.3602C35.1 40.1902 42.48 40.1902 42.59 35.3602L43 17.9302C43.05 15.7402 41.23 14.3902 39.25 14.1802L31.5 13.3403C26.71 12.8203 26.74 20.3203 31.5 20.8403L39.25 21.6802L35.5 17.9302L35.09 35.3602H42.59V29.0803C42.57 25.0003 35.92 23.7903 35.21 28.0803C34.83 30.3903 34.45 32.7103 34.07 35.0203L41.44 36.0203C41.66 32.3103 41.8899 28.6103 42.1099 24.9003C42.2799 22.0803 42.97 19.0603 41.69 16.4403C40.41 13.8203 35.3 14.1503 34.84 17.3403C34.02 22.9803 34.3599 28.8203 34.2999 34.5103C34.2499 39.3403 41.7199 39.3403 41.7999 34.5103C41.8799 29.6803 41.9599 24.8702 42.0499 20.0502C42.1199 15.7402 35.92 15.0702 34.68 19.0502C33.32 23.4302 33.7899 28.3802 32.9099 32.9102L40.28 33.9102C40.47 29.2202 40.85 24.5003 40.43 19.8203C40.01 15.1403 32.98 14.9103 32.93 19.8203C32.88 24.2803 32.61 28.7103 32.12 33.1403H39.62C39.52 29.1403 39.48 25.1303 39.5 21.1303C39.52 16.1903 32.53 16.4503 32 21.1303C31.57 24.8903 31.04 28.5703 29.95 32.2003L37.32 33.2003C37.15 29.5203 37.59 26.1202 38.7 22.6102L31.4699 20.6202C30.7999 24.1402 30.0099 27.6203 29.1099 31.0903L36.4799 32.0903C36.4199 28.3403 36.76 24.7303 37.59 21.0703L30.2199 20.0703C30.3399 23.1003 29.6599 25.8603 28.8499 28.7603L36.08 30.7502C36.37 29.1302 36.6499 27.5003 36.9799 25.8803C37.1199 25.1903 37.2599 24.5002 37.4199 23.8102C38.2299 22.3602 37.84 21.9503 36.25 22.5703L38.24 15.3403C36.71 15.0503 35.2399 14.8803 33.6699 14.8903V22.3903C35.1899 22.3703 36.5899 22.4403 38.0999 22.6303V15.1303L33.4699 14.9603C28.6399 14.7803 28.6499 22.2803 33.4699 22.4603L33.4799 22.4702Z" fill="#FF46A0"/>
<path d="M42.1799 21.1107L41.8599 21.0207L39.8699 28.2507C42.8699 28.9607 45.9699 28.3307 49.0299 28.3107V20.8107C45.5699 20.9007 40.7999 21.4907 38.0699 23.7907C35.6999 25.7807 37.5299 30.5607 40.7199 30.1907C42.7699 29.9507 44.6199 29.3507 46.6199 28.8707L42.0099 24.2607C41.1999 26.2807 39.5699 27.7207 38.9899 29.9507C38.3599 32.3407 39.2199 35.1807 41.8799 35.8107C46.1299 36.8207 49.8099 30.2007 48.3299 26.5707C47.2899 24.0107 42.9099 22.3507 41.4799 25.6707C40.1399 28.7607 38.6999 34.3907 42.7299 36.1207C48.2199 38.4807 49.6099 31.0107 50.3899 27.4407L43.1599 25.4507C42.6099 28.4707 42.0599 32.1807 43.1599 35.1307C44.2599 38.0807 48.1499 38.8207 50.0099 36.0307C51.8699 33.2407 51.7399 28.7507 51.7999 25.4607H44.2999C44.2899 28.3707 44.7199 31.4307 44.3899 34.3107C43.8899 38.7307 50.4599 39.0707 51.7599 35.3107C52.7799 32.3707 52.7399 28.7007 52.7399 25.6107C52.7399 20.7807 45.2599 20.7807 45.2399 25.6107C45.2399 28.5607 45.1599 31.5107 45.1499 34.4607H52.6499C52.6099 31.7307 52.3899 28.7307 52.8399 26.0307L45.4699 25.0307C45.6499 28.7107 46.0299 33.1107 45.3599 36.7407L52.7299 37.7407C52.9099 34.2407 52.8399 30.2807 53.6799 26.8707C54.8399 22.1807 47.6199 20.1907 46.4499 24.8807C45.2799 29.5707 45.2699 34.4207 45.6799 38.9607C46.0099 42.6007 50.5599 44.1407 52.6699 40.8507C53.6699 39.2907 53.6499 37.6907 54.0599 35.9607L46.6899 34.9607C46.7199 35.7207 46.7799 36.4707 46.7699 37.2307H54.2699C54.2399 34.8007 54.0099 32.3607 54.1299 29.9307C54.2299 28.0707 54.8899 26.2007 54.3999 24.3507C53.0099 19.1307 46.6899 21.1107 42.8899 21.5207C38.1399 22.0307 38.0899 29.5407 42.8899 29.0207C44.3399 28.8607 48.0699 27.8007 49.4399 28.3307L47.1999 26.6107C46.7799 26.0607 47.1599 26.3107 46.9399 26.8907C46.5499 27.8907 46.6399 29.3807 46.6199 30.4507C46.5599 32.7107 46.7399 34.9707 46.7699 37.2307C46.8299 42.0507 54.2299 42.0607 54.2699 37.2307C54.2699 36.4707 54.2199 35.7207 54.1899 34.9607C54.0199 30.8807 47.8299 29.6907 46.8199 33.9607C46.5999 34.9107 46.7199 36.2307 46.1799 37.0607L53.1699 38.9507C52.8099 35.0507 52.7099 30.7007 53.6699 26.8707L46.4399 24.8807C45.4299 28.9707 45.4399 33.5407 45.2199 37.7407C44.9999 41.9407 51.8099 42.9307 52.5899 38.7407C53.3699 34.5507 53.1899 29.4707 52.9699 25.0407C52.7699 21.0607 46.3299 19.6507 45.5999 24.0407C45.0399 27.4607 45.0899 31.0107 45.1399 34.4607C45.2099 39.2807 52.6299 39.3007 52.6399 34.4607C52.6399 31.5107 52.7199 28.5607 52.7299 25.6107H45.2299C45.2299 28.0807 45.3299 30.9707 44.5199 33.3207L51.8899 34.3207C52.2199 31.4407 51.7799 28.3907 51.7999 25.4707C51.8199 20.6407 44.3799 20.6407 44.2999 25.4707C44.2699 27.2507 44.5599 30.7307 43.5399 32.2607L50.3899 33.1607C49.7599 31.4807 50.0699 29.1907 50.3899 27.4607C51.2399 22.7707 44.1999 20.7107 43.1599 25.4707C42.9299 26.5407 42.8399 27.6407 42.5499 28.7007C42.0099 30.6907 41.4899 29.7507 44.8599 30.8407C48.2299 31.9307 47.3899 32.4007 47.7399 30.5407C47.7799 30.3307 48.3999 28.4507 47.9599 29.4607L41.1099 28.5607C40.8199 27.8607 41.0899 28.1207 40.8399 28.8507C40.0499 31.0807 39.8099 27.2007 43.6699 28.5007L45.9099 30.2207C47.4499 32.9707 45.6999 32.1007 46.4599 31.2707C46.6699 31.0407 46.8099 30.5607 46.9599 30.3007C47.7699 28.9107 48.6399 27.7707 49.2499 26.2507C50.3799 23.4407 47.1399 21.0407 44.6399 21.6407C43.3499 21.9507 42.0499 22.5407 40.7399 22.6907L43.3899 29.0907C43.9299 28.6407 47.9899 28.3407 49.0499 28.3107C53.8599 28.1807 53.8899 20.7707 49.0499 20.8107C46.8199 20.8307 44.0499 21.5307 41.8899 21.0207C37.1999 19.9207 35.2499 26.9007 39.8999 28.2507L40.2199 28.3407C44.8599 29.6907 46.8499 22.4507 42.2099 21.1107H42.1799Z" fill="#FF46A0"/>
<path d="M55.7699 18.4799L56.0899 36.8799C56.1699 41.6999 63.6699 41.7199 63.5899 36.8799L63.2699 18.4799C63.1899 13.6599 55.6899 13.6399 55.7699 18.4799Z" fill="#FF46A0"/>
<path d="M57.2198 22.4999L58.1499 33.0299C58.4899 36.8799 64.8699 38.5299 65.5199 34.0299L66.8199 24.8899L59.4499 23.8899C59.2199 27.4899 59.4799 30.9999 60.0699 34.5599C60.6599 38.1199 66.4798 37.9799 67.2998 34.5599C67.8698 32.1899 68.2098 29.8199 68.3598 27.3899H60.8598L61.0398 35.2399C61.1498 40.0699 68.4098 40.0699 68.5398 35.2399C68.6798 30.0299 69.3498 24.5299 68.9698 19.3399C68.5898 14.1499 63.4999 14.8499 59.7699 14.9899V22.4899C61.8099 22.2899 63.8499 22.1799 65.8999 22.1499L62.2799 17.3999C61.3899 20.1699 61.6599 23.1499 61.5299 26.0299C61.3899 29.0799 61.1098 32.1199 60.7398 35.1499C60.1498 39.9299 67.6598 39.8899 68.2398 35.1499C68.5598 32.5199 68.8198 29.8899 68.9698 27.2499C69.1098 24.7399 68.7499 21.7899 69.5199 19.3899C70.2899 16.9899 68.2599 14.6099 65.8999 14.6399C63.8499 14.6699 61.8099 14.7799 59.7699 14.9799C55.0599 15.4399 54.8699 22.6699 59.7699 22.4799C61.0599 22.4299 62.8999 22.0899 64.1399 22.5399L61.5199 19.9199C61.9499 22.0999 61.3099 25.0199 61.2499 27.2799L61.0398 35.2299H68.5398L68.3598 27.3799C68.2498 22.5199 61.1598 22.5899 60.8598 27.3799C60.7498 29.1499 60.4799 30.8299 60.0599 32.5599H67.2898C66.8198 29.6699 66.7599 26.7999 66.9399 23.8899C67.1999 19.7399 60.1699 18.6799 59.5699 22.8899L58.2699 32.0299L65.6399 33.0299L64.7099 22.4999C64.2899 17.7299 56.7899 17.6899 57.2099 22.4999H57.2198Z" fill="#FF46A0"/>
<path d="M88.5999 16.7702C88.6799 22.1003 88.6 27.4102 88.34 32.7302H95.84C95.47 27.8602 95.1899 23.0302 95.7899 18.1602H88.2899C88.0299 22.4202 87.6299 26.6702 87.0999 30.9102C86.5699 35.1502 93.3699 35.8702 94.4699 31.9102C95.1699 29.3802 95.26 26.8902 95.26 24.2702C95.26 21.6502 95.88 19.1702 95.71 16.6602C95.38 11.8802 87.91 11.8202 88.21 16.6602C88.52 21.7402 88.43 26.7802 87.95 31.8502L95.32 30.8502C94.43 26.1702 94.4 21.5003 95.02 16.7803L91.27 20.5303C92.93 20.3603 95.23 19.8603 96.89 20.2103L94.65 18.4902C94.43 17.1502 94.31 17.0102 94.3 18.0502C94.24 18.7202 94.18 19.3902 94.12 20.0602C93.99 21.4002 93.8599 22.7402 93.7199 24.0702C93.4399 26.7502 93.1199 29.4202 92.7899 32.0802H100.29C100.56 29.8202 100.77 27.5702 100.88 25.3002C100.93 24.3902 100.96 23.4902 100.98 22.5802C100.98 22.4102 101.42 19.0703 100.41 20.0202L96.76 20.9802C95 20.4002 96.76 21.1502 97.25 21.4202L95.39 18.1802C95.3 23.1402 95.06 28.1002 94.69 33.0502C94.37 37.2502 101.18 38.1802 102.06 34.0502C102.14 33.4202 102.32 32.8202 102.59 32.2402L95.2199 31.2402L95.03 33.8202H102.53C102.6 27.9902 102.87 22.1702 103.32 16.3602C103.48 14.2902 101.47 12.6702 99.57 12.6102C97.39 12.5402 95.24 12.5903 93.07 12.7803C88.3 13.1903 88.25 20.6903 93.07 20.2803C95.24 20.1003 97.39 20.0402 99.57 20.1102L95.82 16.3602C95.37 22.1702 95.11 27.9902 95.03 33.8202C94.97 38.7002 102.17 38.5802 102.53 33.8202L102.72 31.2402C103.06 26.7402 96.7499 26.5602 95.3499 30.2402C95.0799 30.8202 94.9 31.4202 94.82 32.0502L102.19 33.0502C102.56 28.1002 102.8 23.1402 102.89 18.1802C102.91 16.8902 102.16 15.5702 101.03 14.9402C100.23 14.5002 99.64 14.0302 98.75 13.7402C97.47 13.3202 96.0399 13.8102 95.0999 14.7002C93.0399 16.6502 93.52 19.2702 93.48 21.8802C93.43 25.2902 93.18 28.6802 92.78 32.0602C92.22 36.8602 99.68 36.7802 100.28 32.0602C100.62 29.3902 100.93 26.7202 101.21 24.0502C101.46 21.7102 102.2 18.7402 101.77 16.4202C100.87 11.5302 94.87 12.6502 91.26 13.0102C89.03 13.2302 87.8 14.5702 87.51 16.7602C86.8 22.1602 87.06 27.4702 88.07 32.8202C88.91 37.2602 95.06 35.7402 95.44 31.8202C95.92 26.7502 96.01 21.7102 95.7 16.6302H88.2C88.35 18.7402 87.79 20.8702 87.75 23.0102C87.71 25.3602 87.86 27.5902 87.23 29.8902L94.5999 30.8902C95.1299 26.6502 95.5299 22.4102 95.7899 18.1402C96.0899 13.2302 88.8699 13.4802 88.2899 18.1402C87.7099 22.8002 87.97 27.8403 88.34 32.7103C88.71 37.5803 95.61 37.5703 95.84 32.7103C96.09 27.3903 96.1799 22.0702 96.0999 16.7502C96.0299 11.9302 88.5299 11.9102 88.5999 16.7502V16.7702Z" fill="#FF46A0"/>
<path d="M66.73 19.6802C70.96 26.5102 76.65 31.3702 83.27 35.8002C85.49 37.2802 89.22 35.3602 88.91 32.5602C88.44 28.2402 84.56 24.8202 81.31 22.1802C78.06 19.5402 77.15 15.6903 73.84 13.2103C72.42 12.1403 70.5 12.8302 69.3 13.8002C67.98 14.8602 67 16.1003 66.22 17.5903C63.98 21.8803 70.06 25.4202 72.7 21.3802C73.54 20.1002 74.37 18.8103 75.21 17.5303H68.73C71.2 20.7503 73.83 23.7902 76.87 26.4902C79.69 29.0002 83.16 30.8903 85.72 33.6403C89.02 37.1803 94.31 31.8703 91.02 28.3403C88.71 25.8503 85.69 24.1802 83.1 22.0002C80.19 19.5402 77.51 16.7702 75.19 13.7502C73.47 11.5102 70.38 11.1902 68.71 13.7502C67.87 15.0302 67.04 16.3202 66.2 17.6002L72.68 21.3903C73.21 20.3703 73.69 19.8302 74.58 19.1102L70.04 19.7003C72.02 21.1803 72.72 24.5303 74.58 26.3403C75.76 27.4903 77.16 28.3802 78.34 29.5502C78.71 29.9202 81.35 32.2702 81.39 32.5702L87.03 29.3303C81.47 25.6103 76.74 21.6503 73.18 15.9003C70.64 11.8003 64.15 15.5702 66.7 19.6902L66.73 19.6802Z" fill="#FF46A0"/>
<path d="M68.0499 21.2998C71.4599 27.0098 75.88 32.3898 82.08 35.1698C83.94 36.0098 86.09 35.6898 87.21 33.8198C88.16 32.2298 87.7099 29.5198 85.8599 28.6898C80.7499 26.3998 77.34 22.2298 74.53 17.5098C72.06 13.3698 65.5699 17.1398 68.0499 21.2998Z" fill="#FF46A0"/>
<path d="M101.53 28.2307L107.67 29.4007L108.67 22.0307C107.17 22.0007 105.75 21.8507 104.29 21.5307L107.04 25.1507C107.04 23.2607 106.21 21.8907 104.63 20.9107L102.74 27.9007C105.64 28.0007 108.55 28.1107 111.45 28.2107L107.7 24.4607C108.07 27.4807 108.29 30.5007 108.37 33.5407H115.87L115.67 25.6907C115.57 21.6607 109.01 20.3607 108.3 24.6907L106.73 34.3407L114.1 35.3407C113.72 32.0407 113.24 28.7607 112.64 25.5007C111.95 21.7307 106.35 22.1307 105.41 25.5007C104.64 28.2807 104.93 31.1607 105.03 34.0007L112.4 33.0007C111.67 30.2307 111.25 26.9807 109.65 24.5507C107.56 21.3707 102.91 22.7107 102.66 26.4407C102.5 28.8107 102.35 31.1907 102.19 33.5607L109.56 32.5607C109.23 30.4507 108.74 28.4107 108.07 26.3807C107.01 23.1307 101.58 22.5107 100.84 26.3807C100.34 29.0007 100.14 31.5807 100.44 34.2407C100.67 36.2507 102 37.9907 104.19 37.9907C106.04 37.9907 108.17 36.2707 107.94 34.2407C107.71 32.2107 107.7 30.3307 108.07 28.3707H100.84C101.5 30.4007 101.99 32.4507 102.33 34.5507C102.62 36.3707 104.79 37.4907 106.44 37.2407C108.35 36.9507 109.57 35.4707 109.69 33.5607C109.85 31.1907 110 28.8107 110.16 26.4407L103.17 28.3307C104.36 30.1507 104.61 32.8907 105.16 34.9907C106.22 39.0307 112.67 38.2707 112.53 33.9907C112.46 31.8807 112.07 29.5307 112.64 27.4807H105.41C105.89 30.0907 106.29 32.7007 106.6 35.3307C106.82 37.1807 107.86 38.7807 109.85 39.0107C111.53 39.2107 113.66 38.1907 113.96 36.3207L115.53 26.6707L108.16 25.6707L108.36 33.5207C108.48 38.3407 115.98 38.3607 115.86 33.5207C115.79 30.4807 115.56 27.4607 115.19 24.4407C114.93 22.3707 113.68 20.7707 111.44 20.6907C108.54 20.5907 105.63 20.4807 102.73 20.3807C98.89 20.2407 97.8 25.4707 100.84 27.3707L101.19 27.5907L99.84 26.2407L100.04 26.6107L99.53 24.7207V25.1407C99.53 26.7107 100.69 28.4107 102.28 28.7607C104.38 29.2207 106.51 29.4807 108.66 29.5307C112.79 29.6107 113.88 22.9707 109.66 22.1607L103.52 20.9907C98.8 20.0907 96.78 27.3207 101.53 28.2207V28.2307Z" fill="#FF46A0"/>
<path d="M118.52 17.2L118.34 35.44C118.29 40.4 125.25 40.08 125.84 35.44C126.38 31.19 126.7 26.92 126.93 22.64H119.43C119.39 26.89 118.89 32.04 120.36 36.1C121.83 40.16 127.4 39.4 127.73 35.1C128 31.5 128.35 27.92 128.78 24.34H121.28C121.57 28.04 122.03 31.72 122.64 35.38L129.87 33.39C129.15 30.73 130.21 28.69 130.66 26.11C131.11 23.53 130.66 20.97 130.12 18.41C129.26 14.3 122.51 15.18 122.75 19.41C123.04 24.57 123.2 29.73 123.23 34.89H130.73C130.19 30.09 130.92 25.3 130.49 20.5C130.06 15.7 127.05 15.7 123.44 13.69L121.55 20.68C123.34 20.48 125.12 20.37 126.92 20.35L123.17 16.6C123.86 22.84 123.3 29.31 123.21 35.58C123.14 40.41 130.64 40.41 130.71 35.58C130.8 29.31 131.35 22.84 130.67 16.6C130.45 14.61 129.13 12.82 126.92 12.85C125.12 12.87 123.34 12.98 121.55 13.18C118.12 13.56 116.12 18.2 119.66 20.17C121.24 21.05 122.88 21.49 124.5 22.22L122.78 19.98C124.31 24.34 122.72 30.28 123.24 34.89C123.76 39.5 130.76 39.84 130.74 34.89C130.72 29.94 130.56 24.57 130.26 19.41L122.89 20.41C123.97 25.57 121.22 30.14 122.64 35.39C123.93 40.14 130.65 38.07 129.87 33.4C129.37 30.4 129.01 27.39 128.78 24.36C128.4 19.47 121.85 19.62 121.28 24.36C120.85 27.94 120.5 31.53 120.23 35.12L127.6 34.12C126.37 30.72 126.9 26.24 126.94 22.65C126.99 17.8 119.7 17.86 119.44 22.65C119.21 26.93 118.89 31.2 118.35 35.45H125.85L126.03 17.21C126.08 12.38 118.58 12.38 118.53 17.21L118.52 17.2Z" fill="#FF46A0"/>
<path d="M118.32 18.2201L118.54 22.6001L125.91 21.6001C125.76 20.5901 125.71 19.5801 125.76 18.5601H118.26C118.32 19.6401 118.37 20.7201 118.43 21.8001L125.8 20.8001C125.63 20.0401 125.55 19.2601 125.54 18.4801C125.26 13.7001 118.07 13.6101 118.04 18.4801C118.04 19.4701 118.03 20.4501 118.02 21.4401C117.99 26.3201 125.16 26.2001 125.52 21.4401C125.6 20.4301 125.67 19.4101 125.75 18.4001H118.25C117.87 24.2901 117.55 30.1801 117.83 36.0801C118.06 40.8901 125.56 40.9101 125.33 36.0801C125.05 30.1701 125.38 24.2901 125.75 18.4001C126.06 13.5701 118.61 13.6201 118.25 18.4001C118.17 19.4101 118.1 20.4301 118.02 21.4401H125.52C125.52 20.4501 125.53 19.4701 125.54 18.4801H118.04C118.13 19.9301 118.31 21.3601 118.57 22.7901C119.32 26.9401 126.15 26.0001 125.94 21.7901C125.88 20.7101 125.83 19.6301 125.77 18.5501C125.52 13.7601 118.3 13.6901 118.27 18.5501C118.26 20.2701 118.44 21.8901 118.69 23.5801C119.31 27.7601 126.26 26.7701 126.06 22.5801L125.84 18.2001C125.6 13.4001 118.1 13.3701 118.34 18.2001L118.32 18.2201Z" fill="#FF46A0"/>
<path d="M130.39 29.06L137.99 29.91C140.01 30.13 141.74 28.03 141.74 26.16C141.74 23.93 140.01 22.65 137.99 22.41C135.97 22.17 133.82 22.02 131.72 21.99V29.49L138.75 29.36C143.62 29.27 143.52 22.21 138.75 21.86C137.09 21.74 134.74 22.35 133.19 21.69L131.3 28.68C134.41 28.63 137.52 28.58 140.63 28.52L138.74 21.53C135.53 22.98 132.52 24.74 129.68 26.84C126.34 29.31 128.22 34.64 132.57 33.69C134.67 33.23 136.71 31.78 138.85 31.71L136.96 24.72C135.1 25.98 133.23 27.23 131.34 28.46C127.8 30.78 130.01 36.31 134.23 35.31C134.98 35.13 135.72 34.96 136.47 34.78C136.87 34.69 138.81 34.56 137.41 34.28L135.76 33.32L135.95 33.55L134.99 29.9C134.88 30.4 133.41 31.14 133.07 31.36C129.61 33.58 131.74 39.52 135.96 38.21C137.77 37.65 139.48 36.87 141.03 35.78C142.68 34.62 143.46 32.5 142.38 30.65C141.42 29.01 138.91 28.13 137.25 29.3C136.21 30.03 135.18 30.6 133.97 30.97L136.86 37.82C139.48 36.14 143.58 33.08 142.04 29.43C140.3 25.3 135.44 27.31 132.26 28.06L135.15 34.91C137.03 33.68 138.9 32.43 140.77 31.17C143.68 29.2 142.82 24.06 138.88 24.18C135.87 24.28 133.47 25.8 130.61 26.43L133.5 33.28C136.34 31.19 139.35 29.42 142.56 27.97C146.05 26.4 144.18 20.92 140.67 20.98C137.56 21.03 134.45 21.08 131.34 21.14C127.93 21.2 125.84 26.58 129.45 28.13C132.6 29.48 135.49 29.08 138.8 29.33V21.83L131.77 21.96C126.95 22.05 126.94 29.39 131.77 29.46C133.87 29.49 135.95 29.63 138.04 29.88V22.38L130.44 21.53C128.42 21.31 126.69 23.41 126.69 25.28C126.69 27.49 128.42 28.8 130.44 29.03L130.39 29.06Z" fill="#FF46A0"/>
<path d="M140.86 19.5C141.31 24.16 141.5 28.88 140.97 33.53H148.47C148.09 28.5 147.96 23.47 148.08 18.43L144.33 22.18C146.04 22.18 148.3 21.79 149.94 22.13L147.32 19.51C147.91 21.42 146.97 24.9 146.52 26.82C145.95 29.22 145.35 31.53 145.39 34.02C145.48 38.84 152.98 38.86 152.89 34.02C152.79 28.66 156.23 22.92 154.55 17.52C154.18 16.33 153.22 15.16 151.93 14.9C149.49 14.41 146.8 14.69 144.32 14.69C142.26 14.69 140.62 16.41 140.57 18.44C140.44 23.48 140.57 28.51 140.96 33.54C141.35 38.57 147.92 38.29 148.46 33.54C149 28.79 148.79 24.16 148.35 19.51C147.91 14.86 140.39 14.7 140.85 19.51L140.86 19.5Z" fill="#FF46A0"/>
<path d="M146.47 21.1699C147.83 24.9199 147.31 29.8499 147.26 33.7999C147.2 38.6599 154.45 38.5799 154.76 33.7999C155.07 29.0199 155.16 23.9899 155.02 19.0699L147.65 20.0699C148.51 25.5899 148.21 31.1999 147.94 36.7499C147.7 41.5699 155.2 41.5599 155.44 36.7499C155.75 30.4699 155.86 24.31 154.89 18.08C154.23 13.88 147.4 14.91 147.52 19.08C147.66 24 147.58 28.8999 147.26 33.8099H154.76C154.81 29.1899 155.3 23.5999 153.7 19.1899C152.1 14.7799 144.82 16.6299 146.47 21.1799V21.1699Z" fill="#FF46A0"/>
<path d="M160.57 19.5507L159.97 31.0207C159.72 35.8407 167.22 35.8307 167.47 31.0207L168.07 19.5507C168.32 14.7307 160.82 14.7407 160.57 19.5507Z" fill="#FF46A0"/>
<path d="M167.2 31.4601C167.35 27.7201 167.37 23.9901 167.29 20.2501C167.18 15.4301 159.83 15.4101 159.79 20.2501C159.75 25.0901 159.53 30.2701 160.23 35.2501C160.86 39.6601 167.33 38.2101 167.6 34.2501C167.83 30.9401 168.05 27.6201 168.28 24.3101H160.78L161.62 32.2801C162.13 37.0701 168.67 37.1301 169.12 32.2801L169.92 23.68H162.42C162.43 27.53 161.85 31.94 162.88 35.68C163.85 39.22 169.17 39.28 170.11 35.68C171.05 32.08 171.11 27.88 171.46 24.05H163.96C164.02 27.31 164.08 30.5701 164.14 33.8301C164.23 38.7301 171.21 38.5701 171.64 33.8301L172.52 24.2001H165.02L165.05 33.79C165.06 37.48 170.18 38.93 172.04 35.68C173.9 32.43 173.29 28.0201 173.48 24.5201H165.98C165.98 27.7601 165.97 31 165.96 34.23C165.96 39.2 172.87 38.87 173.46 34.23C173.85 31.15 174 28.1101 173.91 25.0001C173.77 20.1901 166.36 20.1601 166.41 25.0001L166.52 35.2501H174.02L173.41 19.37C173.26 15.38 166.64 14 166.04 18.37C165.88 19.52 165.65 20.4901 165.27 21.5901L172.12 20.6901C171.36 19.5901 170.74 18.3601 169.62 17.5601C168.44 16.7101 167.33 16.89 166.06 16.48L168.3 18.2001V18.7001C168.13 14.6101 161.97 13.4401 160.94 17.7001C160.71 18.6501 160.59 19.56 160.49 20.54L167.86 19.54C167.8 18.83 167.66 18.14 167.45 17.47C166.34 13.2 160.39 14.39 160.08 18.47C159.97 19.26 159.96 20.06 160.07 20.85H167.57C167.46 20.06 167.39 19.27 167.34 18.47C166.97 13.71 159.91 13.58 159.84 18.47L159.82 20.2001H167.32C167.39 19.7201 167.36 19.2401 167.24 18.7801L164.62 21.4001C166.02 21.2001 168.74 21.9901 170.27 22.1401C174.47 22.5501 175.38 15.6401 171.27 14.7701C168.78 14.2501 166.41 14.05 163.88 14.37C159.23 14.95 158.95 22.16 163.88 21.87C165.36 21.78 167.63 21.2 169.07 21.47L166.83 19.7501C167.09 20.2401 166.68 22.7701 166.65 23.2601C166.57 24.5701 166.44 25.8801 166.33 27.1901C166.11 29.6601 165.86 32.13 165.63 34.6C165.24 38.77 172.29 39.77 173 35.6C173.71 31.43 173.59 27.4001 173.23 23.2001C172.83 18.4701 165.7 18.3001 165.73 23.2001C165.74 25.5401 165.67 27.8801 165.5 30.2101C165.16 35.0301 172.67 35.0101 173 30.2101C173.16 27.8701 173.24 25.5401 173.23 23.2001H165.73C166.03 26.6601 166.35 30.16 165.77 33.61L173.14 34.61C173.63 29.46 175.01 23.5201 174.09 18.4001C173.11 12.9401 168.22 14.1301 163.9 14.3801V21.8801C165.77 21.6501 167.44 21.6201 169.3 22.0101L170.3 14.6401C167.83 14.4001 165.12 13.82 162.66 14.17C161.38 14.35 160.4 15.65 160.04 16.79C159.68 17.93 159.84 19.0801 159.85 20.2001C159.89 25.0301 167.28 25.0301 167.35 20.2001L167.37 18.47H159.87C159.92 19.27 159.99 20.06 160.1 20.85C160.65 25.52 167.91 25.76 167.6 20.85C167.49 20.06 167.5 19.26 167.61 18.47L160.24 19.47C160.46 20.14 160.6 20.83 160.65 21.54C161.29 26.04 167.62 24.39 168.02 20.54L168.2 19.7001L160.83 18.7001C160.9 20.4301 161.39 21.94 162.81 23.04C163.37 23.47 164.12 23.8001 164.82 23.9501C166.58 24.3301 164.68 23.06 165.66 24.47C167.54 27.18 171.42 26.7101 172.51 23.5701C172.89 22.4701 173.12 21.51 173.28 20.35L165.91 19.35L166.52 35.23C166.7 40.03 174.07 40.08 174.02 35.23L173.91 24.98H166.41C166.5 28.08 166.35 31.1201 165.96 34.2101H173.46C173.46 30.9701 173.47 27.7301 173.48 24.5001C173.48 19.6401 166.24 19.7101 165.98 24.5001C165.9 26.0001 165.82 27.5001 165.73 29.0001C165.69 29.6401 165.66 30.29 165.62 30.93C165.57 32.33 165.54 32.65 165.55 31.87L172.54 33.7601L172.51 24.17C172.49 19.27 165.44 19.44 165.01 24.17L164.13 33.8H171.63C171.57 30.54 171.51 27.2801 171.45 24.0201C171.36 19.1201 164.38 19.2801 163.95 24.0201C163.66 27.1901 163.67 30.58 162.87 33.66H170.1C169.28 30.68 169.92 26.74 169.91 23.66C169.89 18.75 162.85 18.93 162.41 23.66L161.61 32.2601H169.11L168.27 24.29C167.77 19.54 161.1 19.4 160.77 24.29C160.54 27.6 160.32 30.92 160.09 34.23L167.46 33.23C166.86 28.98 167.25 24.5 167.28 20.22H159.78C159.87 23.96 159.84 27.7 159.69 31.43C159.5 36.26 167 36.25 167.19 31.43L167.2 31.4601Z" fill="#FF46A0"/>
<path d="M176.14 18.89C175.99 24.61 175.85 30.33 175.7 36.04C175.59 40.15 182.45 41.29 183.07 37.04C183.97 30.86 183.85 24.52 184.04 18.28L180.29 22.03L181.5 22.12L177.75 18.37C177.43 23.44 177.22 28.51 177.14 33.6C177.07 37.81 183.46 38.72 184.51 34.6C185.77 29.65 185.06 24.08 185.01 19.01L177.64 20.01C178.33 24.58 177.38 29.81 177.14 34.42C176.9 39.03 184.39 39.23 184.64 34.42C184.92 29 185.69 23.41 184.87 18.02C184.23 13.79 177.46 14.88 177.5 19.02C177.54 23.16 178.33 28.44 177.27 32.62L184.64 33.62C184.73 28.54 184.93 23.47 185.25 18.39C185.39 16.26 183.42 14.78 181.5 14.64L180.29 14.55C178.22 14.4 176.6 16.39 176.54 18.3C176.37 23.83 176.63 29.58 175.84 35.06L183.21 36.06C183.36 30.34 183.5 24.62 183.65 18.91C183.77 14.08 176.27 14.08 176.15 18.91L176.14 18.89Z" fill="#FF46A0"/>
<path d="M183.76 29.0698C187.24 29.4798 190.71 29.6398 194.22 29.5598L193.22 22.1898C189.6 23.0398 186.24 22.0498 182.8 23.9898C179.63 25.7798 180.94 31.1298 184.69 30.9798C186.42 30.9098 189.05 30.3598 190.69 30.9198L189.79 24.0698C186.59 25.5198 180.02 27.5998 182.03 32.3798C184.04 37.1598 190.45 34.3898 193.47 32.5198C197.63 29.9398 194 24.0197 189.68 26.0397C187.22 27.1897 184.84 29.4798 184.1 32.1698C183.31 35.0298 185.25 38.0298 188.35 38.0198C192.74 37.9998 199.31 30.9598 197.7 26.4498C196.58 23.3198 192.72 22.8298 190.85 25.5498C188.7 28.6698 186.82 35.7698 191.49 37.7298C196.42 39.8098 199.04 33.3298 200.06 29.7298C201.38 25.0598 194.29 23.1498 192.83 27.7398C192.24 29.5898 192.03 31.4298 192.28 33.3598C192.66 36.3198 196.23 38.6398 198.68 36.0098C200.01 34.5798 200.68 33.0398 201.09 31.1498L193.72 30.1498C193.83 31.3798 193.85 32.5798 193.77 33.8198C193.48 38.6398 200.98 38.6198 201.27 33.8198C201.34 32.5798 201.33 31.3898 201.22 30.1498C200.87 26.2198 194.81 24.7298 193.85 29.1498C193.75 29.5898 193.7 30.3498 193.37 30.6998L199.77 33.3497C199.6 32.0197 199.64 30.9997 200.05 29.7197L192.82 27.7298C192.62 28.4298 192.42 29.1198 192.12 29.7798C192.01 30.0398 191.88 30.2898 191.74 30.5298C191.23 31.2498 191.62 31.2598 192.92 30.5498L195.57 31.6498C196.42 32.6398 195.99 32.4098 196.31 31.2398C196.51 30.5098 196.88 29.9598 197.32 29.3298L190.47 28.4298C190.68 26.9898 190.61 26.7398 190.27 27.6798C190.06 28.0898 189.82 28.4798 189.55 28.8598C189.21 29.2598 188.85 29.6297 188.46 29.9697C187.3 30.6297 187.91 31.0198 190.29 31.1498L191.39 33.7998C191.26 34.7898 191.47 33.8098 191.91 33.4598C192.44 33.0298 192.83 32.7898 193.48 32.4898L189.69 26.0098C188.5 26.7398 187.2 27.4898 185.76 27.4198L188.41 28.5198L188.12 28.2498L189.22 30.8998L189.18 30.5298L188.08 33.1798C189.38 32.0198 192 31.2298 193.58 30.5198C196.76 29.0798 195.44 24.6098 192.68 23.6698C190.2 22.8198 187.26 23.3498 184.68 23.4598L186.57 30.4498C188.93 29.1198 192.55 30.0297 195.2 29.4097C199.31 28.4397 198.43 21.9397 194.2 22.0397C190.7 22.1297 187.22 21.9598 183.74 21.5498C181.71 21.3098 180.01 23.4498 179.99 25.2998C179.97 27.5198 181.74 28.8098 183.74 29.0498L183.76 29.0698Z" fill="#FF46A0"/>
<path d="M192.81 30.3604C197.64 30.3604 197.64 22.8604 192.81 22.8604C187.98 22.8604 187.98 30.3604 192.81 30.3604Z" fill="#FF46A0"/>
<path d="M192.81 30.3205L195.76 30.4105V22.9105L195 22.8605L193.11 29.8505C194.65 29.7705 196.16 29.5805 197.69 29.3605C201.94 28.7305 200.81 21.9905 196.69 21.9905H194.22C194.55 24.4505 194.88 26.9005 195.22 29.3605H196.06C196.39 26.8905 196.72 24.4405 197.06 21.9805C195.84 22.0505 194.63 22.0805 193.41 22.0605C188.56 21.9905 188.61 29.3105 193.41 29.5605C195.1 29.6505 196.72 29.3105 198.4 29.3305L195.75 28.2305C195.12 27.0605 194.95 27.1305 195.23 28.4405C195.26 28.9605 195.29 29.4705 195.31 29.9905C195.36 31.2005 195.37 32.4105 195.39 33.6205C195.45 37.7905 201.67 38.7805 202.76 34.6205C203.49 31.8405 204.21 29.0505 204.94 26.2705L197.57 25.2705C197.39 28.4505 196.53 32.7605 197.75 35.7805C199.06 39.0005 203.92 39.6605 204.98 35.7805C205.79 32.8205 206.45 29.8405 206.96 26.8205C207.76 22.1105 200.57 20.0605 199.73 24.8305C199.11 28.3105 198.83 31.7705 199.03 35.3105C199.23 38.8505 204.27 40.7805 206.02 37.2005C207.58 33.9905 207.92 30.1505 208.62 26.6805L201.25 25.6805C200.94 28.6205 200.97 31.5005 201.35 34.4305C201.86 38.3405 207.51 39.8505 208.72 35.4305C209.5 32.5705 209.99 29.6905 210.31 26.7505C210.77 22.5905 203.58 21.5705 202.94 25.7505C202.48 28.7405 202.25 31.6805 202.4 34.7005C202.6 38.7305 208.82 40.0205 209.77 35.7005C210.37 32.9605 210.72 30.2005 210.79 27.3905H203.29C203.47 29.7805 203.47 32.1505 203.1 34.5205L210.47 35.5205L210.5 35.0905C210.84 30.2705 203.34 30.3005 203 35.0905L202.97 35.5205C202.67 39.6805 209.68 40.7105 210.34 36.5205C210.82 33.4705 211.03 30.4805 210.8 27.3905C210.43 22.6305 203.42 22.5105 203.3 27.3905C203.25 29.5405 203.01 31.6005 202.55 33.7005L209.92 34.7005C209.8 32.3705 209.84 30.0505 210.19 27.7505L202.82 26.7505C202.57 29.0205 202.09 31.2305 201.49 33.4405L208.86 34.4405C208.48 31.5105 208.45 28.6305 208.76 25.6905C209.2 21.5005 202.23 20.5705 201.39 24.6905C200.84 27.3905 200.75 30.9405 199.54 33.4205L206.53 35.3105C206.37 32.4605 206.46 29.6505 206.96 26.8305L199.73 24.8405C199.22 27.8605 198.56 30.8505 197.75 33.8005H204.98C204.07 31.5605 204.93 27.6905 205.06 25.2905C205.29 21.0405 198.75 20.2405 197.69 24.2905C196.96 27.0705 196.24 29.8605 195.51 32.6405L202.88 33.6405C202.84 30.8005 203.38 26.6005 201.92 24.0405C200.09 20.8305 196.37 22.2405 193.4 22.0905V29.5905C194.62 29.6105 195.83 29.5905 197.05 29.5105C200.99 29.2805 202.47 22.7705 198.05 22.1405C196.33 21.9005 194.93 21.9005 193.22 22.1505C188.97 22.7905 190.09 29.5205 194.22 29.5205H196.69C196.36 27.0605 196.03 24.6105 195.69 22.1505C194.83 22.2805 193.97 22.3305 193.11 22.3805C189.71 22.5605 187.6 27.6805 191.22 29.3705C192.75 30.0905 194.07 30.4805 195.76 30.4505C200.59 30.3705 200.58 23.0905 195.76 22.9505L192.81 22.8605C187.98 22.7205 187.99 30.2205 192.81 30.3605V30.3205Z" fill="#FF46A0"/>
<path d="M198.41 19.13C198.56 21.48 198.54 23.79 198.36 26.14H205.86C205.97 23.73 206.08 21.32 206.19 18.91C206.41 14.07 198.98 14.12 198.69 18.91C198.54 21.39 198.58 23.83 198.8 26.3C199.23 31.04 206.15 31.2 206.3 26.3C206.37 24.09 206.57 21.95 206.98 19.77L199.61 18.77C199.79 21.38 199.98 23.99 200.16 26.6C200.44 30.54 206.71 32.02 207.53 27.6C207.98 25.15 208.43 22.71 208.88 20.26L201.51 19.26C201.59 22.13 201.76 24.98 202.02 27.83C202.47 32.72 208.92 32.58 209.52 27.83C209.82 25.5 210.22 23.2 210.68 20.9L203.31 19.9C203.49 22.81 203.49 25.7 203.33 28.61C203.05 33.55 210.22 33.24 210.83 28.61C211.18 25.94 211.46 23.28 211.66 20.59C212.02 15.76 204.58 15.83 204.16 20.59C203.67 26.17 203.18 31.76 202.68 37.34C202.26 42.15 209.76 42.12 210.18 37.34C210.67 31.76 211.16 26.17 211.66 20.59H204.16C203.96 23.27 203.68 25.94 203.33 28.61H210.83C210.99 25.7 210.99 22.81 210.81 19.9C210.57 15.92 204.32 14.52 203.44 18.9C202.85 21.86 202.39 24.83 202.01 27.83H209.51C209.25 24.98 209.08 22.12 209 19.26C208.89 15.22 202.43 13.94 201.63 18.26C201.18 20.71 200.73 23.15 200.28 25.6L207.65 26.6C207.47 23.99 207.28 21.38 207.1 18.77C206.82 14.83 200.56 13.35 199.73 17.77C199.2 20.6 198.87 23.42 198.79 26.29H206.29C206.07 23.82 206.03 21.38 206.18 18.9H198.68C198.57 21.31 198.46 23.72 198.35 26.13C198.13 30.99 205.48 30.89 205.85 26.13C206.03 23.78 206.05 21.47 205.9 19.12C205.6 14.33 198.1 14.29 198.4 19.12L198.41 19.13Z" fill="#FF46A0"/>
<path d="M202.66 22.4298L208.4 22.3598L204.65 18.6098C204.65 19.0898 204.63 19.5698 204.59 20.0598C204.56 20.3198 204.57 20.3298 204.6 20.0898C204.56 20.3598 204.51 20.6297 204.46 20.9097C204.1 22.8297 204.99 25.0498 207.08 25.5198C208.93 25.9398 211.3 24.9598 211.69 22.8998C211.96 21.4798 212.13 20.0498 212.15 18.6098C212.17 16.5998 210.42 14.8298 208.4 14.8598L202.66 14.9298C200.7 14.9498 198.82 16.6398 198.91 18.6798C199 20.7198 200.56 22.4598 202.66 22.4298Z" fill="#FF46A0"/>
<path d="M225.89 18.7403L225.49 33.9503C225.38 38.0703 232.23 39.2003 232.86 34.9503L234.56 23.4103L227.19 22.4103C227.36 26.5303 227.43 30.6503 227.35 34.7803C227.27 38.9103 233.83 39.9803 234.72 35.7803C235.56 31.8203 236.2 27.8303 236.7 23.8203C237.3 19.0303 229.83 19.1103 229.2 23.8203C228.69 27.6103 228.64 31.4002 228.64 35.2202C228.64 39.3302 235.16 40.4702 236.01 36.2202C236.66 32.9502 237.16 29.6603 237.55 26.3403H230.05L229.69 36.0803C229.53 40.2903 236.06 41.1903 237.06 37.0803C237.71 34.3903 238.27 31.6903 238.74 28.9603L231.37 27.9603C231.29 30.8903 231.35 33.7903 231.55 36.7103C231.82 40.6803 238.01 42.0903 238.92 37.7103C240.09 32.0803 239.97 25.5703 239.54 19.8503C239.16 14.7003 233.85 14.2503 229.56 14.4903C224.77 14.7503 224.7 22.0703 229.56 21.9903C231.72 21.9603 233.87 21.9603 236.02 22.0203L232.4 17.2703C231.65 21.8303 231.88 26.2903 231.37 30.8203C230.84 35.6103 238.34 35.5703 238.87 30.8203C239.3 26.9503 238.99 23.1603 239.63 19.2603C240.03 16.8503 238.65 14.5803 236.01 14.5103C233.85 14.4603 231.7 14.4503 229.55 14.4803V21.9803C230.3 21.9103 231.05 21.9003 231.81 21.9403C233.63 22.5303 233.7 21.8303 232.03 19.8403C231.76 19.8703 231.95 24.6303 231.96 25.0503C232.07 28.6203 232.41 32.1703 231.67 35.7003L239.04 36.7003C238.84 33.7803 238.78 30.8803 238.86 27.9503C238.97 23.8203 232.23 22.7203 231.49 26.9503C231.02 29.6803 230.46 32.3803 229.81 35.0703L237.18 36.0703L237.54 26.3303C237.72 21.4003 230.59 21.6603 230.04 26.3303C229.73 28.9803 229.29 31.6003 228.77 34.2202L236.14 35.2202C236.14 31.4002 236.19 27.6103 236.7 23.8203H229.2C228.78 27.1703 228.18 30.4903 227.48 33.7903L234.85 34.7903C234.93 30.6603 234.86 26.5403 234.69 22.4203C234.52 18.3003 227.97 17.0403 227.32 21.4203C226.75 25.2703 226.19 29.1103 225.62 32.9603L232.99 33.9603L233.39 18.7503C233.52 13.9203 226.02 13.9203 225.89 18.7503V18.7403Z" fill="#FF46A0"/>
<path d="M209.35 24.9699C210.51 26.2099 211.25 27.9399 212.31 29.2799C213.66 30.9799 215.09 32.6499 216.6 34.2099C219.28 36.9799 222.57 40.0999 226.56 38.0599C228.48 37.0699 228.72 34.6799 227.91 32.9299C226.89 30.7299 225.09 29.2899 223.61 27.4399C221.58 24.9199 219.89 22.0699 217.9 19.4999C216.4 17.5699 214.98 14.9399 212.17 15.2799C209.78 15.5599 208.06 17.2799 206.67 19.0899C203.73 22.9099 210.24 26.6499 213.15 22.8799C213.29 22.6899 213.46 22.5899 213.67 22.5799L210.78 22.1999C211.73 22.9199 212.65 24.8599 213.42 25.8999C214.44 27.2699 215.37 28.6899 216.34 30.0899C217.9 32.3499 220.3 34.2299 221.44 36.7099L222.79 31.5799L222.23 31.8699L225.12 31.4899C222.96 31.0999 220.5 27.3699 219.16 25.7999C217.5 23.8499 216.43 21.5099 214.68 19.6599C211.36 16.1399 206.07 21.4499 209.38 24.9599L209.35 24.9699Z" fill="#FF46A0"/>
<path d="M209.63 23.4101C211.39 25.2001 212.12 28.3802 213.53 30.5102C215.21 33.0402 217.19 35.3502 219.43 37.4002C222.98 40.6602 228.3 35.3701 224.73 32.1001C222.5 30.0501 220.57 27.8101 219.04 25.1901C217.64 22.8001 216.9 20.1101 214.92 18.1001C211.53 14.6501 206.23 19.9602 209.62 23.4002L209.63 23.4101Z" fill="#FF46A0"/>
<path d="M238.17 27.3502L246.61 28.2503V20.7503L238.94 20.3703C234.79 20.1603 233.73 27.0403 237.94 27.7403C240.66 28.1903 243.46 27.2003 246.08 27.7503L247.08 20.3803C241.77 21.0003 237.1 23.4602 236.67 29.2902C236.42 32.7502 240.83 33.9503 243.07 31.9403C244.6 30.5603 245.58 28.8903 246.02 26.8703C246.56 24.4003 244.25 21.0803 241.41 22.2603C238.11 23.6203 237.22 26.7203 236.69 30.0703C236.19 33.2303 235.86 36.5703 238.74 38.5903C239.86 39.3703 241.39 39.1703 242.53 38.5903C246.02 36.8103 246.56 30.4203 246.64 27.0603C246.77 22.2103 239.43 22.2703 239.14 27.0603C238.91 30.8003 238.47 39.4503 244.25 39.4503C250.03 39.4503 249.32 30.4603 249.5 26.7803C249.7 22.5803 243.06 21.6503 242.13 25.7803C241.2 29.9103 240 35.2402 241.87 39.3602C243.17 42.2202 248.17 41.5303 248.72 38.4603C249.27 35.3903 249.8 32.5103 250.34 29.5303C250.82 26.8803 251.44 24.6202 250.21 22.1002C248.55 18.6802 243.18 20.4303 243.22 23.9903C243.27 28.4903 243.33 32.9802 243.38 37.4802C243.44 42.3002 250.94 42.3202 250.88 37.4802C250.83 32.9802 250.77 28.4903 250.72 23.9903L243.73 25.8803C243.66 24.7303 243.58 24.5803 243.48 25.4303L243.19 27.0103C243 28.0603 242.81 29.1102 242.62 30.1602C242.24 32.2602 241.86 34.3603 241.47 36.4603L248.32 35.5603C248.01 34.8903 248.5 32.7703 248.58 32.0103C248.73 30.5703 249.02 29.1703 249.34 27.7603L241.97 26.7603C241.85 29.2403 241.85 32.1202 240.97 34.4702L242.69 32.2302L242.32 32.4403H246.11C246.79 33.4103 246.95 33.3903 246.58 32.3803C246.51 31.8403 246.48 31.2903 246.48 30.7503C246.45 29.5103 246.53 28.2802 246.6 27.0402H239.1C239.07 28.2502 238.96 29.3803 238.66 30.5603C238.54 31.0503 238.4 31.5403 238.23 32.0203C237.57 33.3103 237.72 33.3402 238.7 32.1002H242.49L242.15 31.8602L243.87 34.1002C243.44 32.4102 244.18 29.4102 245.07 27.9802L242.83 29.7003L243.36 29.4802L238.75 24.8703C238.54 25.8503 238.47 25.9603 237.73 26.6303L244.13 29.2803C244.21 28.2303 246.31 27.9503 247.04 27.8703C250.88 27.4203 252.55 21.4503 248.04 20.5003C245.26 19.9103 242.6 20.9403 239.9 20.4903L238.9 27.8602L246.57 28.2403C251.47 28.4803 251.27 21.2403 246.57 20.7403L238.13 19.8403C233.34 19.3303 233.37 26.8303 238.13 27.3403L238.17 27.3502Z" fill="#FF46A0"/>
<path d="M247.37 31.9507C252.15 31.9207 256.91 32.0407 261.68 32.3207V24.8207C256.95 24.9007 252.29 25.1307 247.6 25.8107C243.22 26.4507 244.62 32.9407 248.6 33.1807C251.92 33.3807 255.19 33.6308 258.45 34.2808V27.0507C255.23 27.9007 251.86 28.1607 248.55 28.5807C244.74 29.0707 243.02 34.9807 247.55 35.9507C252.32 36.9707 257.25 36.6507 261.96 37.9407L262.96 30.5707C260.11 30.8907 257.34 30.9607 254.48 30.8007V38.3007C256.99 38.3607 259.55 38.3807 262.04 38.0007C263.18 37.8207 265.11 36.6507 265.85 36.6107C270.64 36.3107 270.71 29.3007 265.85 29.1107C267.13 30.5407 267.41 30.6007 266.7 29.2907C266.45 28.7607 266.14 28.2707 265.77 27.8207C264.86 26.8407 263.89 26.5007 262.66 25.9907L261.66 33.3607C262.92 33.2107 264.17 33.0607 265.43 32.9107C270.15 32.3407 270.25 24.8907 265.43 25.4107C262.14 25.7707 258.86 25.9607 255.55 26.0007V33.5007C258.77 33.2707 261.99 33.0307 265.2 32.8007C269.96 32.4607 270.08 25.2207 265.2 25.3007C262.3 25.3507 259.41 25.4407 256.52 25.7207L257.52 33.0908C260.1 32.7408 262.69 32.5307 265.29 32.3807L264.29 25.0107C261.9 25.4007 259.6 25.4207 257.2 25.2607L258.2 32.6307C260.54 32.2907 262.87 32.1107 265.23 31.9907C270.02 31.7507 270.09 24.3907 265.23 24.4907C260.96 24.5707 256.7 24.6007 252.43 24.5607C247.46 24.5107 247.79 31.4607 252.43 32.0607C257.96 32.7707 263.5 32.1107 269.06 32.3707L265.31 28.6207C264.92 31.6107 265.09 34.4007 265.6 37.3707C266.26 41.2207 271.83 40.6507 272.83 37.3707C273.52 35.1007 273.82 32.8207 274.07 30.4707L266.7 31.4707C267.05 32.9807 267.24 34.5207 267.29 36.0707C267.5 39.1107 270.27 40.4707 272.93 39.3107C275.99 37.9807 276.3 33.5907 276.71 30.7507L269.34 29.7507C269.31 33.0707 268.92 35.8107 271.1 38.4807C272.59 40.3007 275.97 39.7307 276.99 37.7207C278.27 35.1907 278.92 32.8308 279.28 30.0308H271.78C271.49 32.4108 271.5 34.4707 272.01 36.8007C272.52 39.1307 275.52 40.2207 277.52 39.0407C280.48 37.2907 281.17 33.8507 281.86 30.6707L274.63 28.6807C273.76 32.8607 273.14 37.8307 277.88 39.4907C279.05 39.9007 280.71 39.4608 281.53 38.5308C283.15 36.6708 283.82 34.3807 284.19 31.9707C284.89 27.3107 277.91 25.1707 276.96 29.9807C276.38 32.9107 276.06 37.1307 279.22 38.7407C280.61 39.4507 282.66 39.4608 283.76 38.1508C285.42 36.1908 285.83 33.9807 286.27 31.4707L278.9 30.4707C279.02 33.3007 278.69 35.9307 280.54 38.2207C281.35 39.2207 283.01 39.5307 284.19 39.1807C287.6 38.1807 288 35.0908 288.92 32.0208L281.55 31.0208C281.38 33.1308 281.61 34.8907 282.24 36.8907C283.39 40.5507 288.23 40.3407 289.47 36.8907C290.14 35.0307 290.45 33.3007 290.69 31.3507L283.32 32.3507C283.52 33.3607 283.61 34.3808 283.59 35.4008C283.72 40.2208 291.22 40.2408 291.09 35.4008C291.04 33.6908 290.84 32.0407 290.55 30.3507C289.76 25.8007 283.66 27.5507 283.18 31.3507C283.03 32.5807 282.71 33.7607 282.23 34.8907H289.46C288.9 33.6307 288.76 32.3407 289.04 31.0107C289.38 26.6807 282.85 26.0807 281.67 30.0107C281.34 31.1807 280.98 32.3307 280.57 33.4707L282.81 31.7507L282.18 31.9307L285.83 32.8907C286.99 34.3207 286.39 30.6807 286.38 30.4507C286.22 26.4407 279.78 25.0907 279.01 29.4507C278.95 29.7807 278.72 32.4807 278.43 32.8207L282.97 32.2307L284.16 31.9407L276.93 29.9507C276.83 31.0607 276.59 32.1507 276.2 33.2007L279.85 32.2407L279.09 31.9707L281.71 34.5908C281.38 33.2808 281.42 31.9708 281.83 30.6508C282.81 25.9508 275.63 23.9307 274.6 28.6607C274.57 28.8107 273.98 32.3907 273.71 32.5507L279.22 34.7907C278.86 33.1307 279.05 31.6707 279.26 30.0107C279.85 25.2307 272.36 25.2807 271.76 30.0107C271.61 31.4007 271.19 32.7007 270.5 33.9207L276.39 33.1607L275.81 32.4507L276.91 35.1007C276.71 33.3207 276.81 31.5207 276.83 29.7307C276.86 25.6407 270.09 24.4507 269.46 28.7307C269.48 28.5907 268.64 33.0107 269.12 32.8107L274.76 36.0507C274.6 33.8207 274.32 31.6508 273.9 29.4608C273.05 24.9808 266.95 26.5808 266.53 30.4608C266.34 32.2108 266.06 33.6907 265.56 35.3607H272.79C272.39 33.0607 272.47 30.9107 272.77 28.6007C273.04 26.5207 270.83 24.9407 269.02 24.8507C263.46 24.5907 257.93 25.2507 252.39 24.5407V32.0407C256.66 32.0807 260.92 32.0607 265.19 31.9707V24.4707C262.16 24.6207 259.17 24.9507 256.16 25.3807C251.76 26.0107 253.2 32.4807 257.16 32.7507C260.25 32.9607 263.2 32.7307 266.25 32.2307C270.41 31.5507 269.45 24.6307 265.25 24.8607C261.97 25.0507 258.73 25.4008 255.48 25.8408C251.33 26.4008 252.27 33.6108 256.48 33.2108C259.37 32.9308 262.26 32.8407 265.16 32.7907V25.2907C261.94 25.5207 258.72 25.7607 255.51 25.9907C250.75 26.3307 250.63 33.5507 255.51 33.4907C258.82 33.4507 262.09 33.2508 265.39 32.9008V25.4008C264.13 25.5508 262.88 25.7007 261.62 25.8507C257.32 26.3707 256.65 31.5507 260.62 33.2207L261.78 33.7108L259.54 31.9907C261.23 34.8707 262.12 36.4707 265.8 36.6107V29.1107C264.29 29.2107 263.47 29.7607 262.09 30.1807C259.56 30.9507 257.04 30.8807 254.42 30.8107C249.57 30.6907 249.63 38.0307 254.42 38.3107C257.28 38.4807 260.06 38.4007 262.9 38.0807C266.87 37.6407 268.27 31.9108 263.9 30.7108C259.16 29.4208 254.27 29.7407 249.49 28.7207L248.49 36.0908C252.44 35.5908 256.53 35.3107 260.38 34.2907C263.81 33.3807 264.09 27.8007 260.38 27.0607C256.45 26.2807 252.53 25.9307 248.53 25.7007L249.53 33.0707C253.54 32.4907 257.58 32.4207 261.62 32.3507C266.48 32.2707 266.41 25.1307 261.62 24.8507C256.83 24.5707 252.09 24.4507 247.31 24.4807C242.53 24.5107 242.47 32.0107 247.31 31.9807L247.37 31.9507Z" fill="#FF46A0"/>
<path d="M278.96 25.6602L287.48 26.8102C289.48 27.0802 291.51 26.3302 292.09 24.1902C292.61 22.3102 291.46 20.0102 289.47 19.5802C286.39 18.9002 283.38 18.9303 280.33 19.7803C276.01 20.9803 277.3 26.7202 281.33 27.1502C283.49 27.3802 285.68 27.2102 287.84 27.1502L286.84 19.7803C284.8 20.4203 282.77 21.0802 280.8 21.9102C276.89 23.5602 277.43 28.8103 281.8 29.2803C284.28 29.5403 286.87 28.9102 289.3 29.4602V22.2302C288.04 22.6502 286.77 23.0702 285.51 23.4902C282.29 24.5602 281.61 30.0202 285.51 30.7202C286.16 30.8402 286.82 30.9602 287.47 31.0702L286.57 24.2202C285.83 24.6402 285.09 25.0402 284.29 25.3502C282.4 26.0802 281.1 27.8702 281.67 29.9602C282.17 31.7602 284.38 33.3102 286.28 32.5802C287.68 32.0402 289.04 31.4402 290.35 30.7002C292.99 29.2102 292.71 24.4302 289.45 23.8502C288.8 23.7302 288.14 23.6102 287.49 23.5002V30.7302C288.75 30.3102 290.02 29.8902 291.28 29.4702C294.6 28.3702 295.09 23.1002 291.28 22.2402C288.11 21.5202 284.98 22.1302 281.79 21.7902L282.79 29.1602C284.76 28.3302 286.79 27.6703 288.83 27.0303C292.75 25.8003 292.2 19.5302 287.83 19.6602C285.66 19.7202 283.48 19.9002 281.32 19.6602L282.32 27.0303C284.05 26.5503 285.71 26.4502 287.47 26.8302L289.46 19.6002L280.94 18.4502C278.94 18.1802 276.91 18.9302 276.33 21.0702C275.85 22.8202 276.93 25.4102 278.95 25.6802L278.96 25.6602Z" fill="#FF46A0"/>
<path d="M281.44 26.1305C283.39 25.8505 285.38 25.7805 287.35 25.7905V18.2905C284.95 18.4105 282.59 18.9005 280.18 18.7005V26.2005C282.85 26.0305 285.51 25.8705 288.18 25.7005C290.2 25.5705 291.93 24.0705 291.93 21.9505C291.93 20.0205 290.21 18.0705 288.18 18.2005L287.81 18.2205C285.79 18.3505 284.06 19.8505 284.06 21.9705C284.06 23.9005 285.78 25.8505 287.81 25.7205L288.18 25.7005V18.2005C285.51 18.3705 282.85 18.5305 280.18 18.7005C275.33 19.0005 275.38 25.8005 280.18 26.2005C282.59 26.4005 284.95 25.9105 287.35 25.7905C292.14 25.5505 292.21 18.3105 287.35 18.2905C284.69 18.2805 282.08 18.5205 279.45 18.9005C277.44 19.1805 276.34 21.7405 276.83 23.5105C277.42 25.6705 279.43 26.4105 281.44 26.1305Z" fill="#FF46A0"/>
<path d="M272.75 24.0304C273.49 22.8504 273.79 21.6204 273.85 20.2304C274.05 15.3904 266.64 15.4404 266.35 20.2304C266.19 22.9004 265.54 25.9104 266.89 28.3504C267.69 29.8004 269.55 30.5104 271.12 30.0704C272.83 29.6004 273.69 28.1104 273.87 26.4504C274.07 24.6104 274.07 22.8104 273.87 20.9704C273.67 19.1304 272.6 17.5204 270.62 17.2904C268.86 17.0804 266.92 18.1304 266.51 19.9804C266 22.2704 265.71 24.5904 265.7 26.9404C265.68 28.9704 267.44 30.6904 269.45 30.6904C271.62 30.6904 273.03 28.9704 273.2 26.9404C273.4 24.6604 273.21 22.4404 272.83 20.1904C272.11 15.9204 265.53 17.0904 265.46 21.1904C265.44 22.3904 265.59 23.5804 265.83 24.7504C266.69 28.9404 273.22 27.9204 273.2 23.7504C273.2 22.3204 273.18 20.8804 273.17 19.4504C273.14 16.0104 267.73 13.9704 266.18 17.5604C264.84 20.6704 265.13 24.1504 265.04 27.4804C264.98 29.5104 266.8 31.2304 268.79 31.2304C271.02 31.2304 272.29 29.5004 272.54 27.4804C272.88 24.7104 272.71 21.9704 272.49 19.2004L268.74 22.9504C271.31 23.2604 273.88 23.3804 276.47 23.3304V15.8304C274.75 15.9004 273.03 15.9004 271.31 15.8304V23.3304L274.81 23.2504V15.7504C273.56 15.7804 272.41 15.7104 271.19 15.4304L270.19 22.8004L277.37 23.0504L273.62 19.3004C273.45 20.8504 273.49 22.3404 273.69 23.8804C273.86 25.1804 274.44 26.6004 274.46 27.8904C274.53 32.7204 281.83 32.7204 281.96 27.8904C282.05 24.4204 281.96 19.4204 278.77 17.3304C276.53 15.8604 274.12 17.4804 273.26 19.5704C272.29 21.9204 271.93 24.5004 272.22 27.0204C272.44 29.0304 273.78 30.7704 275.97 30.7704C278.16 30.7704 279.63 29.0504 279.72 27.0204C279.81 24.8104 279.57 22.0604 277.86 20.4704C275.79 18.5304 272.52 19.3604 271.16 21.7104C268.83 25.7504 270.33 31.9604 275.81 31.8704C280.63 31.7804 280.65 24.2804 275.81 24.3704C276.77 26.2304 277.33 26.7204 277.48 25.8604C277.53 25.6504 277.53 25.6304 277.48 25.8004L274.83 26.9004L275.2 26.8804L272.55 25.7804L272.82 26.0204L271.86 24.3704C272.23 25.2704 272.26 26.0704 272.22 27.0304H279.72C279.5 25.0604 279.74 23.4004 280.5 21.5704L274.99 23.8104L275.36 24.0504L274.01 22.7004C274.63 24.1404 274.5 26.3404 274.46 27.8904H281.96C281.94 26.3104 281.44 24.9304 281.16 23.4004C280.92 22.0404 280.97 20.6704 281.12 19.3004C281.34 17.2304 279.22 15.6204 277.37 15.5504L270.19 15.3004C266 15.1504 265.04 21.7304 269.19 22.6704C271.04 23.0904 272.91 23.3104 274.81 23.2504C279.63 23.1204 279.65 15.6404 274.81 15.7504L271.31 15.8304C266.48 15.9404 266.49 23.1404 271.31 23.3304C273.03 23.4004 274.75 23.4004 276.47 23.3304C281.27 23.1404 281.32 15.7204 276.47 15.8304C273.88 15.8904 271.31 15.7604 268.74 15.4504C266.83 15.2204 264.84 17.3604 264.99 19.2004C265.21 21.9704 265.38 24.7104 265.04 27.4804H272.54C272.57 26.3204 272.6 25.1704 272.64 24.0104C272.66 23.3104 272.51 21.7104 272.67 21.3504L265.68 19.4604C265.69 20.8904 265.7 22.3304 265.71 23.7604L273.08 22.7604C272.97 22.2204 272.96 21.7504 272.97 21.1904L265.6 22.1904C265.86 23.7704 265.83 25.3604 265.7 26.9504H273.2C273.21 25.2504 273.38 23.6404 273.75 21.9904L266.38 20.9904C266.58 22.8304 266.58 24.6304 266.38 26.4704L273.37 24.5804C273.86 25.4704 273.66 23.3604 273.69 22.9404C273.74 22.0404 273.8 21.1404 273.85 20.2504H266.35C266.35 20.2504 266.35 20.2804 266.27 20.2604C263.71 24.3704 270.19 28.1404 272.75 24.0504V24.0304Z" fill="#FF46A0"/>
<path d="M22.53 7.19035C22.46 18.2604 22.05 29.3103 21.3 40.3503C20.87 46.7703 30.87 46.7503 31.3 40.3503C32.05 29.3103 32.45 18.2604 32.53 7.19035C32.57 0.750351 22.57 0.750351 22.53 7.19035Z" fill="#53FF6E"/>
<path d="M289.7 8.12004C289.63 19.19 289.22 30.2401 288.47 41.2801C288.04 47.7001 298.04 47.6801 298.47 41.2801C299.22 30.2401 299.62 19.19 299.7 8.12004C299.74 1.68004 289.74 1.68004 289.7 8.12004Z" fill="#53FF6E"/>
<path d="M27.46 11.9901C97.09 9.75012 166.79 10.0701 236.39 13.0101C255.89 13.8401 275.48 15.4401 294.96 13.3701C301.29 12.7001 301.36 2.69012 294.96 3.37012C277.78 5.19012 260.56 4.08012 243.35 3.31012C226.14 2.54012 208.88 1.9201 191.64 1.4701C156.82 0.550096 121.99 0.290118 87.1599 0.680118C67.2599 0.900118 47.3599 1.34011 27.4699 1.98011C21.0499 2.19011 21.0199 12.1901 27.4699 11.9801L27.46 11.9901Z" fill="#53FF6E"/>
<path d="M27.46 44.4902C97 42.8302 166.59 43.0703 236.12 45.2703C255.23 45.8703 274.38 47.0103 293.47 45.5103C299.84 45.0103 299.9 35.0003 293.47 35.5103C276.69 36.8303 259.89 36.0603 243.1 35.5003C225.81 34.9203 208.51 34.4602 191.21 34.1202C156.27 33.4302 121.31 33.2403 86.37 33.5303C66.73 33.6903 47.0999 34.0202 27.4699 34.4902C21.0499 34.6402 21.0199 44.6402 27.4699 44.4902H27.46Z" fill="#53FF6E"/>
<path d="M4.21004 56.4506C74.43 54.2106 144.73 54.5306 214.93 57.4806C234.55 58.3006 254.27 59.9007 273.86 57.8407C278.61 57.3407 278.66 49.8407 273.86 50.3407C256.56 52.1607 239.21 51.0507 221.88 50.2807C204.33 49.5007 186.78 48.8806 169.22 48.4306C134.1 47.5206 98.9701 47.2606 63.8401 47.6606C43.9601 47.8806 24.0801 48.3207 4.20006 48.9607C-0.609942 49.1107 -0.639943 56.6107 4.20006 56.4607L4.21004 56.4506Z" fill="#53FF6E"/>
<path d="M8.48995 17.9902C14.91 15.1902 21.19 12.1102 27.33 8.75018C31.56 6.43018 27.7799 -0.0498035 23.5399 2.2702C17.3999 5.6402 11.12 8.71019 4.69998 11.5102C0.289976 13.4302 4.09995 19.9002 8.48995 17.9902Z" fill="#53FF6E"/>
<path d="M8.59001 54.4101C14.4 51.4001 20.21 48.3801 26.02 45.3701C30.31 43.1501 26.52 36.6702 22.23 38.8902C16.42 41.9002 10.61 44.9201 4.8 47.9301C0.51 50.1501 4.30001 56.6301 8.59001 54.4101Z" fill="#53FF6E"/>
<path d="M277.69 56.4101C283.5 53.4001 289.31 50.3801 295.12 47.3701C299.41 45.1501 295.62 38.6702 291.33 40.8902C285.52 43.9002 279.71 46.9201 273.9 49.9301C269.61 52.1501 273.4 58.6301 277.69 56.4101Z" fill="#53FF6E"/>
<path d="M2.80998 14.7802C3.41998 27.3002 0.709976 39.6202 0.459976 52.1102C0.359976 56.9402 7.85998 56.9402 7.95998 52.1102C8.20998 39.6202 10.92 27.3002 10.31 14.7802C10.07 9.9802 2.56998 9.9502 2.80998 14.7802Z" fill="#53FF6E"/>
<path d="M8.74992 22.2003C13.3599 19.6903 18.1099 17.5403 23.0499 15.7603C24.5499 15.2203 23.8999 12.8003 22.3899 13.3503C17.2599 15.2103 12.2899 17.4303 7.48991 20.0403C6.07991 20.8103 7.33992 22.9703 8.74992 22.2003Z" fill="#53FF6E"/>
<path d="M8.19997 27.1099C13.67 25.4599 18.86 22.0399 23.94 19.4599C25.37 18.7299 24.1099 16.5699 22.6799 17.2999C17.8199 19.7699 12.76 23.1299 7.52996 24.6999C5.98996 25.1599 6.64996 27.5799 8.18996 27.1099H8.19997Z" fill="#53FF6E"/>
<path d="M5.23995 34.3701C11.3299 31.1401 17.6099 28.3701 24.1099 26.0701C25.6199 25.5401 24.97 23.1201 23.45 23.6601C16.75 26.0401 10.27 28.8801 3.97997 32.2101C2.55997 32.9601 3.81995 35.1201 5.23995 34.3701Z" fill="#53FF6E"/>
<path d="M7.65993 38.9C13.9799 35.59 20.4099 32.51 26.9399 29.64C28.4099 28.99 27.1399 26.8399 25.6799 27.4799C19.1499 30.3499 12.7199 33.4399 6.39992 36.7399C4.96992 37.4899 6.23993 39.64 7.65993 38.9Z" fill="#53FF6E"/>
<path d="M8.26993 43.23L27.0399 33.56C28.4699 32.82 27.21 30.67 25.78 31.4L7.00995 41.07C5.57995 41.81 6.83993 43.96 8.26993 43.23Z" fill="#53FF6E"/>
<path d="M26.86 52.59C29.64 49.6 32.69 46.91 36.02 44.55C37.32 43.63 36.07 41.46 34.76 42.39C31.25 44.87 28.02 47.68 25.09 50.82C23.99 52 25.76 53.77 26.86 52.59Z" fill="#53FF6E"/>
<path d="M34.1999 52.5098C36.2499 49.7298 38.6699 47.2698 41.3799 45.1298C42.6399 44.1398 40.8599 42.3798 39.6099 43.3598C36.7199 45.6398 34.2099 48.2798 32.0399 51.2398C31.0899 52.5398 33.2499 53.7898 34.1999 52.4998V52.5098Z" fill="#53FF6E"/>
<path d="M41.92 51.7304C44.01 48.7804 46.56 46.2104 49.49 44.0904C50.78 43.1604 49.5399 40.9904 48.2299 41.9304C44.9299 44.3104 42.12 47.1504 39.77 50.4604C38.84 51.7804 41 53.0304 41.93 51.7204L41.92 51.7304Z" fill="#53FF6E"/>
<path d="M53.5399 41.9805C51.2999 44.6205 49.22 47.4005 47.34 50.3005C46.46 51.6505 48.6299 52.9105 49.4999 51.5605C51.2699 48.8305 53.1999 46.2205 55.3099 43.7405C56.3499 42.5205 54.5899 40.7405 53.5399 41.9705V41.9805Z" fill="#53FF6E"/>
<path d="M60.2699 41.5401C58.2499 44.2301 56.3799 47.0301 54.6699 49.9301C53.8499 51.3201 56.0099 52.5801 56.8299 51.1901C58.5399 48.2901 60.4099 45.4901 62.4299 42.8001C63.3999 41.5101 61.2299 40.2601 60.2699 41.5401Z" fill="#53FF6E"/>
<path d="M65.0499 41.9802C63.1499 44.9802 61.1999 47.9403 59.1999 50.8803C58.2899 52.2103 60.4599 53.4703 61.3599 52.1403C63.3599 49.2103 65.3099 46.2402 67.2099 43.2402C68.0699 41.8802 65.9099 40.6202 65.0499 41.9802Z" fill="#53FF6E"/>
<path d="M74.3499 40.6499C71.4799 43.3599 68.76 46.2199 66.2 49.2199C65.16 50.4399 66.9199 52.2099 67.9699 50.9899C70.5299 47.9899 73.25 45.1299 76.12 42.4199C77.29 41.3099 75.5199 39.5499 74.3499 40.6499Z" fill="#53FF6E"/>
<path d="M81.87 42.5704C81.11 43.9404 79.92 45.0404 78.87 46.1804C77.69 47.4504 76.51 48.7304 75.33 50.0004C74.24 51.1804 76 52.9504 77.1 51.7704C78.42 50.3504 79.73 48.9204 81.05 47.5004C82.12 46.3404 83.26 45.2305 84.03 43.8405C84.8 42.4505 82.65 41.1704 81.87 42.5804V42.5704Z" fill="#53FF6E"/>
<path d="M89.8099 41.8699C87.0899 44.5899 84.5899 47.4999 82.2899 50.5899C81.3299 51.8799 83.4999 53.1298 84.4499 51.8498C86.6299 48.9398 89.01 46.2099 91.58 43.6399C92.72 42.4999 90.9499 40.7299 89.8099 41.8699Z" fill="#53FF6E"/>
<path d="M97.9799 41.21L90.08 49.57C88.98 50.74 90.7399 52.51 91.8499 51.34C94.4799 48.55 97.1099 45.7699 99.7499 42.9799C100.85 41.8099 99.0899 40.04 97.9799 41.21Z" fill="#53FF6E"/>
<path d="M106.55 41.1104L102.46 45.9504C101.3 47.3204 100.05 48.6404 99.28 50.2704C98.59 51.7204 100.75 52.9905 101.44 51.5305C102.22 49.8905 103.5 48.5804 104.66 47.2004L108.32 42.8704C109.35 41.6504 107.59 39.8704 106.55 41.1004V41.1104Z" fill="#53FF6E"/>
<path d="M115.95 41.9697C113.62 45.5697 110.06 48.6398 107.15 51.7898C106.06 52.9698 107.82 54.7398 108.92 53.5598C111.98 50.2498 115.66 47.0298 118.12 43.2398C119 41.8898 116.83 40.6298 115.96 41.9798L115.95 41.9697Z" fill="#53FF6E"/>
<path d="M123.71 41.8703L115.66 50.8403C114.59 52.0303 116.35 53.8103 117.43 52.6103C120.11 49.6203 122.8 46.6303 125.48 43.6403C126.55 42.4503 124.79 40.6703 123.71 41.8703Z" fill="#53FF6E"/>
<path d="M131.95 41.2805L127.55 46.3005C126.37 47.6505 125.22 48.9005 124.55 50.5805C123.96 52.0805 126.38 52.7305 126.96 51.2405C127.59 49.6305 129.08 48.3305 130.2 47.0605L133.72 43.0405C134.78 41.8305 133.01 40.0605 131.95 41.2705V41.2805Z" fill="#53FF6E"/>
<path d="M140.29 42.5099C137.89 45.1699 135.49 47.8299 133.1 50.4899C132.03 51.6799 133.79 53.4599 134.87 52.2599C137.27 49.5999 139.67 46.94 142.06 44.28C143.13 43.09 141.37 41.3099 140.29 42.5099Z" fill="#53FF6E"/>
<path d="M150.89 39.9505C149.19 41.4205 147.54 42.9405 145.96 44.5305C144.57 45.9305 142.86 47.4005 141.99 49.1905C141.29 50.6305 143.45 51.9005 144.15 50.4505C145 48.6905 146.83 47.1905 148.21 45.8205C149.59 44.4505 151.14 43.0305 152.66 41.7105C153.88 40.6605 152.1 38.8905 150.89 39.9405V39.9505Z" fill="#53FF6E"/>
<path d="M161.41 40.7202C158.45 43.9102 155.31 46.9102 151.99 49.7202C150.76 50.7602 152.54 52.5202 153.76 51.4902C157.08 48.6802 160.22 45.6802 163.18 42.4902C164.27 41.3102 162.51 39.5402 161.41 40.7202Z" fill="#53FF6E"/>
<path d="M169.48 42.7303L169.6 42.9504L169.47 41.9903C169.31 42.6703 168.32 43.4904 167.89 44.0204C167.4 44.6104 166.92 45.2003 166.43 45.7903C165.39 47.0603 164.35 48.3204 163.3 49.5904C162.25 50.8604 164.04 52.6003 165.07 51.3603C166.67 49.4203 168.27 47.4803 169.86 45.5403C170.78 44.4303 172.51 43.0503 171.62 41.4803C170.83 40.0803 168.67 41.3403 169.46 42.7403L169.48 42.7303Z" fill="#53FF6E"/>
<path d="M178.04 42.3304L171.79 48.4604C170.64 49.5904 172.41 51.3604 173.56 50.2304L179.81 44.1004C180.96 42.9704 179.19 41.2004 178.04 42.3304Z" fill="#53FF6E"/>
<path d="M184.61 42.6999C182.39 45.7099 179.96 48.5599 177.35 51.2499C176.23 52.4099 178 54.18 179.12 53.02C181.88 50.18 184.42 47.1499 186.77 43.9699C187.73 42.6699 185.56 41.43 184.61 42.71V42.6999Z" fill="#53FF6E"/>
<path d="M194.29 41.2605C190.78 44.1805 187.7 47.4904 184.99 51.1604C184.03 52.4604 186.2 53.7004 187.15 52.4204C189.73 48.9304 192.72 45.8005 196.06 43.0305C197.3 42.0005 195.52 40.2405 194.29 41.2605Z" fill="#53FF6E"/>
<path d="M204.63 41.9898C201.17 45.0698 198.09 48.4897 195.35 52.2297C194.4 53.5297 196.57 54.7798 197.51 53.4898C200.12 49.9298 203.1 46.6998 206.4 43.7598C207.6 42.6898 205.83 40.9198 204.63 41.9898Z" fill="#53FF6E"/>
<path d="M212.26 42.1799C209.41 45.2299 206.66 48.3599 203.99 51.5599C202.97 52.7899 204.73 54.5699 205.76 53.3299C208.43 50.1199 211.19 46.9999 214.03 43.9499C215.13 42.7799 213.36 40.9999 212.26 42.1799Z" fill="#53FF6E"/>
<path d="M220.94 42.05L210.91 51.83C209.76 52.96 211.52 54.72 212.68 53.6C216.02 50.34 219.37 47.08 222.71 43.82C223.86 42.69 222.1 40.93 220.94 42.05Z" fill="#53FF6E"/>
<path d="M226.5 43.2697L218.43 51.4497C217.3 52.5997 219.07 54.3696 220.2 53.2196L228.27 45.0396C229.4 43.8896 227.63 42.1197 226.5 43.2697Z" fill="#53FF6E"/>
<path d="M233.98 41.6301C232.19 43.6001 230.4 45.5601 228.62 47.5301C227.19 49.1101 225.56 50.6301 224.67 52.6001C224.02 54.0601 226.17 55.3301 226.83 53.8601C227.73 51.8601 229.47 50.3001 230.92 48.7001C232.53 46.9301 234.14 45.1601 235.75 43.3901C236.83 42.2001 235.07 40.4301 233.98 41.6201V41.6301Z" fill="#53FF6E"/>
<path d="M243.02 42.9197C239.55 46.0697 236.35 49.4697 233.41 53.1197C232.41 54.3597 234.17 56.1397 235.18 54.8897C238.12 51.2397 241.33 47.8397 244.79 44.6897C245.98 43.6097 244.21 41.8397 243.02 42.9197Z" fill="#53FF6E"/>
<path d="M252.24 43.6397C248.59 46.2897 245.2 49.2397 242.09 52.5097C240.98 53.6797 242.75 55.4498 243.86 54.2798C246.82 51.1598 250.03 48.3197 253.51 45.7997C254.8 44.8597 253.55 42.6897 252.25 43.6397H252.24Z" fill="#53FF6E"/>
<path d="M257.93 44.6199C255.88 47.8399 252.76 50.3899 250.05 53.0399C248.9 54.1699 250.67 55.9299 251.82 54.8099C254.69 51.9999 257.91 49.2999 260.09 45.8799C260.96 44.5199 258.79 43.2599 257.93 44.6199Z" fill="#53FF6E"/>
<path d="M269.74 44.1205C265.5 47.0405 261.7 50.4705 258.39 54.4205C257.37 55.6505 259.12 57.4206 260.16 56.1906C263.32 52.4006 266.93 49.0806 271 46.2806C272.32 45.3706 271.07 43.2105 269.74 44.1205Z" fill="#53FF6E"/>
<path d="M276.78 44.65C273.42 47.42 270.05 50.1999 266.69 52.9699C265.45 53.9899 267.23 55.75 268.46 54.74C271.82 51.97 275.19 49.19 278.55 46.42C279.79 45.4 278.01 43.64 276.78 44.65Z" fill="#53FF6E"/>
</svg>
