<svg width="140" height="160" viewBox="0 0 140 160" fill="none" xmlns="http://www.w3.org/2000/svg">
<mask id="mask0_404_92" style="mask-type:alpha" maskUnits="userSpaceOnUse" x="0" y="0" width="140" height="160">
<path fill-rule="evenodd" clip-rule="evenodd" d="M0 0H140V159.262C93.3338 159.355 46.6669 159.448 0 159.559V0Z" fill="#D9D9D9"/>
</mask>
<g mask="url(#mask0_404_92)">
<path d="M24.7501 83.2195C28.1201 66.3495 17.5702 52.8295 13.3402 37.2995C12.9002 35.6995 12.0602 33.4695 12.2802 31.7495C12.9702 26.2295 17.8401 28.2395 20.6701 29.8595C23.5001 31.4795 26.2302 33.5995 29.5302 34.6495C36.1002 36.7395 43.2301 35.6795 49.7401 33.9495C57.0101 32.0195 65.3301 28.0695 73.0101 29.6595C83.9801 31.9195 79.1701 44.3395 77.5101 51.7295C73.8301 68.0795 73.6802 84.9095 76.6502 101.38C77.2202 104.54 82.0401 103.199 81.4701 100.049C78.4901 83.5395 78.9501 66.6195 82.9801 50.3195C84.3601 44.7495 86.2502 38.6095 84.2102 32.9495C82.4502 28.0695 77.9501 25.3495 73.0101 24.6095C58.9001 22.4995 45.7701 34.0095 31.6401 30.0295C25.8601 28.3995 21.5901 22.7995 15.2001 23.1495C10.3801 23.4095 7.23015 26.9995 7.27015 31.7395C7.33015 38.9195 11.0502 46.1995 13.8402 52.6495C17.8302 61.8995 21.9701 71.6095 19.9201 81.8795C19.2901 85.0195 24.1101 86.3695 24.7401 83.2095L24.7501 83.2195Z" fill="#53FF6E"/>
<path d="M50.7501 106.4L66.2501 105.35C71.8301 104.97 77.5001 104.24 83.0101 105.58C88.0701 106.81 92.6801 109.31 97.1901 111.84C99.2001 112.97 101.22 114.1 103.18 115.31C104.97 116.41 109.34 120.94 111.41 119.96C108.5 121.34 111.04 125.65 113.93 124.28C123.7 119.66 96.53 105.69 93.66 104.3C79.93 97.6699 65.4401 100.4 50.7401 101.4C47.5501 101.62 47.5201 106.62 50.7401 106.4H50.7501Z" fill="#53FF6E"/>
<path d="M50.86 124.82C64.76 124.1 78.68 123.95 92.6 124.46C95.83 124.58 99.07 124.73 102.3 124.92C103.92 125.01 105.53 125.12 107.15 125.23C107.75 125.27 112.2 125.17 112.67 125.58C113.52 126.33 112.47 133.81 112.43 135.13C112.34 138.95 112.24 142.77 112.15 146.59C112.07 149.81 117.07 149.81 117.15 146.59C117.26 142.13 117.37 137.68 117.48 133.22C117.55 130.41 118.35 126.66 117.54 123.98C115.97 118.75 106.29 120.16 102.31 119.92C85.18 118.92 68.01 118.92 50.88 119.81C47.68 119.98 47.66 124.98 50.88 124.81L50.86 124.82Z" fill="#53FF6E"/>
<path d="M47.5089 149C69.1696 148.99 90.8304 148.97 112.491 148.96C115.836 148.96 115.836 144 112.491 144C90.8304 144.01 69.1696 144.03 47.5089 144.04C44.1637 144.04 44.1637 149 47.5089 149Z" fill="#53FF6E"/>
<path d="M35.9279 105.438C34.627 119.34 34.1228 133.282 34.4051 147.235C34.4253 148.231 35.1716 149.467 36.2607 149.636C40.1736 150.244 43.7637 150.115 47.5858 149.058C48.3824 148.839 49.1791 148.152 49.3506 147.314C51.8213 134.867 53.223 122.131 52.9709 109.424C52.7793 99.9065 50.5305 88.5553 40.7383 84.25C33.1446 80.9114 23.0902 84.3696 22.0616 93.319C21.6683 96.7772 23.181 100.116 25.9744 102.219C27.3863 103.295 29.0502 104.022 30.8352 104.232C31.5815 104.321 32.3075 104.301 33.0639 104.202C33.8202 104.102 36.2002 102.757 35.6758 104.202C34.5766 107.231 39.4475 108.527 40.5366 105.527C42.2913 100.684 39.0037 97.7738 34.2942 98.6907C31.41 99.2487 28.425 99.3982 27.2451 95.8803C26.519 93.7077 27.6787 91.1863 29.2821 89.7313C33.9311 85.5256 40.7282 88.7845 43.8443 93.0499C49.0278 100.136 48.1505 110.431 47.8076 118.702C47.4244 127.881 46.2848 136.97 44.4999 145.979L46.2647 144.235C43.33 145.052 40.6374 145.281 37.612 144.813L39.4676 147.215C39.1853 133.252 39.6996 119.32 40.9904 105.418C41.293 102.229 36.2406 102.248 35.9481 105.418L35.9279 105.438Z" fill="#53FF6E"/>
<path d="M118.17 147.43C117.32 137.23 117.58 126.98 119.28 116.87C120.09 112.02 121.2 107.22 122.6 102.51C123.34 100.01 124.02 97.1998 125.56 95.0598C126.72 93.1598 128.39 92.0498 130.57 91.7398C133.59 94.1598 133.82 95.9298 131.24 97.0498C129.21 99.4798 126.82 100.16 125.87 103.6C124.73 107.71 125.19 112.43 125.07 116.64C124.78 127.11 124.5 137.57 124.21 148.04L126.71 145.54C121.66 145.14 116.6 144.74 111.55 144.33C108.34 144.07 108.36 149.08 111.55 149.33C116.6 149.73 121.66 150.13 126.71 150.54C128.08 150.65 129.18 149.31 129.21 148.04C129.41 140.84 129.6 133.65 129.8 126.45C129.9 122.85 130 119.25 130.1 115.66C130.19 112.39 129.62 108.07 130.69 104.93C132.21 100.48 138.48 99.9798 138.69 94.5998C138.82 91.0398 136.02 87.7898 132.64 86.9598C121.2 84.1498 117.66 100.73 115.9 108.31C112.93 121.13 112.08 134.33 113.17 147.43C113.44 150.61 118.44 150.64 118.17 147.43Z" fill="#53FF6E"/>
<path d="M77.5601 82.3794C93.9401 86.1994 110.98 85.9194 127.24 90.3394C130.35 91.1794 131.68 86.3594 128.57 85.5194C112.3 81.0994 95.2701 81.3794 78.8901 77.5594C75.7601 76.8294 74.4201 81.6494 77.5601 82.3794Z" fill="#53FF6E"/>
<path d="M16.7901 151.23C25.0301 150.72 33.2601 150.02 41.4701 149.12C52.5001 144 41.7001 143.65 38.5001 144C30.2901 144.89 25.0301 145.71 16.7901 146.23C13.5901 146.43 13.5701 151.43 16.7901 151.23Z" fill="#53FF6E"/>
<path d="M12.5801 23.0499C3.76005 23.0199 1.19006 32.3199 2.71006 39.5299C3.89006 45.1099 5.98006 50.4899 7.21006 56.0699C8.63006 62.4799 9.60006 68.9899 10.2801 75.5199C12.8101 99.9599 12.6301 124.78 13.4001 149.32C13.5001 152.53 19.6001 152.54 19.5001 149.32C18.8501 128.44 17.52 107.49 16.19 86.6399C15.59 77.1699 14.6001 67.6899 12.7801 58.3699C11.7801 53.2399 10.47 48.1999 8.93003 43.1999C7.58003 38.7999 5.59006 27.97 13.5001 28C16.7201 28.01 19.2201 23.0599 16.0001 23.0499H12.5801Z" fill="#53FF6E"/>
<path d="M15.5101 88.9902C21.1501 87.4102 26.82 86.8402 32.66 87.2302C35.87 87.4502 35.86 82.4502 32.66 82.2302C26.39 81.8102 20.23 82.4702 14.18 84.1702C11.09 85.0402 12.4001 89.8602 15.5101 88.9902Z" fill="#53FF6E"/>
<path d="M15.5801 106.01C20.6501 103.93 25.7901 103.22 31.2401 103.85C34.4301 104.22 34.4001 99.2101 31.2401 98.8501C25.4301 98.1801 19.6701 98.9701 14.2601 101.19C11.3201 102.39 12.6101 107.23 15.5901 106.01H15.5801Z" fill="#53FF6E"/>
<path d="M22.8501 152.29C23.1601 150.9 23.09 149.73 22.22 148.56C20.83 146.68 17.5601 147.14 17.5601 149.82C17.5601 153.68 17.5701 157.54 17.5801 161.4C17.5801 164.12 22.0601 164.93 22.4901 162.06C23.1901 157.43 23.0601 152.95 21.9501 148.39C21.2801 145.63 17.0301 146.25 17.0401 149.05C17.0501 152.96 17.0601 156.87 17.0701 160.78C17.0701 163.51 21.4501 164.29 21.9801 161.44C22.7501 157.33 22.7401 153.33 21.9501 149.22L17.1301 150.55C18.1801 154.4 18.9001 158.29 19.2401 162.26C19.5201 165.5 23.8801 165.44 24.2401 162.26C24.6501 158.58 25.0701 154.9 25.4801 151.22L20.5701 151.88C21.3401 154.12 23.2001 154.79 25.3201 153.84C26.1301 153.48 26.5101 152.5 26.5601 151.68C26.6701 149.71 25.1901 148.27 23.2401 148.35C20.0301 148.47 20.0201 153.47 23.2401 153.35L23.72 153.33L21.9501 152.6L22.3101 152.97L21.5801 151.2L21.5501 151.68L22.7901 149.52L22.3501 149.72H24.8701L24.4001 149.51L25.5501 151L25.3901 150.54C24.4401 147.77 20.7901 148.43 20.4801 151.2C20.0701 154.88 19.6501 158.56 19.2401 162.24H24.2401C23.8601 157.82 23.1201 153.48 21.9501 149.2C21.1001 146.06 16.5301 147.4 17.1301 150.53C17.7301 153.66 17.7501 156.9 17.1601 160.09L22.0701 160.75C22.0601 156.84 22.0501 152.93 22.0401 149.02L17.1301 149.68C18.0101 153.31 18.2301 156.99 17.6701 160.69L22.5801 161.35C22.5801 157.49 22.5701 153.63 22.5601 149.77L17.9001 151.03L18.0301 150.91C17.3201 154.04 22.1401 155.38 22.8501 152.24V152.29Z" fill="#53FF6E"/>
<path d="M54 150.01C55.85 154.54 57.18 159.25 57.82 164.11L62.73 163.45C61.88 159.12 61.21 154.77 60.75 150.38L55.84 151.04C56.66 153.96 57.49 156.88 58.31 159.8C58.94 162.03 62.68 162.33 63.13 159.8C63.76 156.26 63.72 152.87 62.93 149.36C62.32 146.65 57.81 147.19 58.02 150.02C58.29 153.6 58.56 157.19 58.83 160.77C59.03 163.48 62.96 164.29 63.74 161.43C64.41 158.98 65.0799 168.48 64.54 153.99C64 139.499 59.36 150.77 59.54 153.99C59.66 156.1 59.47 158.06 58.91 160.1L63.82 160.76C63.55 157.18 63.28 153.59 63.01 150.01L58.1 150.67C58.69 153.28 58.77 155.82 58.3 158.46H63.12C62.3 155.54 61.47 152.62 60.65 149.7C59.91 147.09 55.43 147.47 55.74 150.36C56.25 155.19 56.96 159.99 57.9 164.76C58.44 167.48 63.18 166.91 62.81 164.1C62.12 158.76 60.85 153.66 58.82 148.67C57.62 145.73 52.78 147.02 54 150V150.01Z" fill="#53FF6E"/>
<path d="M67.9601 149.22L69.4601 160.77C69.8601 163.86 74.6501 164.06 74.4601 160.77C74.1801 155.96 73.5001 151.21 72.4001 146.52C71.7701 143.83 67.1801 144.34 67.4901 147.18C67.9701 151.55 68.4401 155.93 68.9201 160.3C69.2601 163.42 73.9101 163.59 73.9201 160.3C73.9201 157.3 73.9401 154.29 73.9501 151.29L69.0401 151.95C69.7801 154.31 70.0601 156.53 69.9201 159C69.7701 161.77 74.3301 162.46 74.8301 159.66C75.4101 156.46 75.9901 153.26 76.5601 150.06L71.6501 149.4C71.6601 153.14 71.6701 156.88 71.6901 160.62H76.6901C76.6501 157.3 76.3601 154.02 75.9101 150.72C75.5201 147.92 70.8801 148.6 71.0001 151.38C71.1001 153.8 71.2001 156.21 71.3001 158.63C71.4301 161.84 76.4301 161.85 76.3001 158.63C76.2001 156.21 76.1001 153.8 76.0001 151.38L71.0901 152.04C71.4801 154.88 71.6601 157.74 71.6901 160.61C71.7301 163.83 76.7001 163.83 76.6901 160.61C76.6801 156.87 76.6701 153.13 76.6501 149.39C76.6501 146.66 72.2501 145.87 71.7401 148.73C71.1601 151.93 70.5801 155.13 70.0101 158.33L74.9201 158.99C75.0801 156.13 74.7201 153.34 73.8601 150.61C73.0001 147.88 68.9601 148.39 68.9501 151.27C68.9401 154.15 68.9301 157.28 68.9201 160.28H73.9201C73.4401 155.91 72.9701 151.53 72.4901 147.16L67.5801 147.82C68.5701 152.08 69.2001 156.37 69.4601 160.74H74.4601L72.9601 149.19C72.5501 146.04 67.5401 146 67.9601 149.19V149.22Z" fill="#53FF6E"/>
<path d="M116.08 149.33C115.8 154.75 116.43 160.09 117.94 165.3C118.73 168 122.82 167.48 122.85 164.64C122.9 160.41 122.96 156.19 123.01 151.96L118.1 152.62C118.75 155.13 119.4 157.64 120.05 160.15C120.63 162.38 124.51 162.68 124.87 160.15C125.23 157.62 125.36 155.39 125.17 152.93C124.93 149.76 120.02 149.69 120.17 152.93C120.27 154.97 120.36 157 120.46 159.04C120.61 162.24 125.39 162.27 125.46 159.04C125.53 155.99 125.77 152.96 126.23 149.94C126.69 146.92 121.9 145.44 121.41 148.61C120.87 152.07 120.54 155.53 120.46 159.04H125.46C125.36 157 125.27 154.97 125.17 152.93H120.17C120.32 154.91 120.33 156.85 120.05 158.82H124.87C124.22 156.31 123.57 153.8 122.92 151.29C122.21 148.54 118.04 149.15 118.01 151.95C117.96 156.18 117.9 160.4 117.85 164.63L122.76 163.97C121.36 159.16 120.81 154.33 121.08 149.33C121.25 146.11 116.25 146.12 116.08 149.33Z" fill="#53FF6E"/>
<path d="M18.01 88.3401C16.98 91.7301 15.32 94.7902 13 97.4802C11.96 98.6902 13.72 100.47 14.77 99.2501C17.37 96.2301 19.26 92.8201 20.42 89.0101C20.89 87.4701 18.48 86.8101 18.01 88.3501V88.3401Z" fill="#53FF6E"/>
<path d="M25.4601 86.1604C21.7001 90.8104 18.4501 95.7704 15.7201 101.09C14.9901 102.52 17.1401 103.79 17.8801 102.35C20.5001 97.2204 23.6001 92.4004 27.2301 87.9204C28.2301 86.6804 26.4701 84.9004 25.4601 86.1504V86.1604Z" fill="#53FF6E"/>
<path d="M8.99005 39.8303C8.51005 42.5803 7.43005 45.0503 5.74005 47.2803C4.77005 48.5603 6.94008 49.8103 7.90008 48.5403C9.70008 46.1603 10.8901 43.4303 11.4001 40.5003C11.6801 38.9303 9.27005 38.2503 8.99005 39.8403V39.8303Z" fill="#53FF6E"/>
<path d="M13.47 49.3202C12.39 51.7502 11.1 54.0602 9.62003 56.2702C8.72003 57.6102 10.8801 58.8602 11.7801 57.5302C13.2701 55.3302 14.55 53.0102 15.63 50.5802C16.28 49.1202 14.13 47.8502 13.47 49.3202Z" fill="#53FF6E"/>
<path d="M17.01 53.4295C14.53 58.8795 12.05 64.3295 9.57004 69.7795C8.91004 71.2295 11.06 72.5095 11.73 71.0395C14.21 65.5895 16.69 60.1395 19.17 54.6895C19.83 53.2395 17.68 51.9595 17.01 53.4295Z" fill="#53FF6E"/>
<path d="M19.24 62.2503C17.27 66.4803 15.3 70.7003 13.33 74.9303C12.65 76.3803 14.81 77.6503 15.49 76.1903L21.4 63.5103C22.08 62.0603 19.92 60.7903 19.24 62.2503Z" fill="#53FF6E"/>
<path d="M22.2601 67.9497C19.8801 73.5297 17.5001 79.1197 15.1301 84.6997C14.5101 86.1597 16.6601 87.4396 17.2901 85.9596C19.6701 80.3796 22.0501 74.7896 24.4201 69.2096C25.0401 67.7496 22.8901 66.4697 22.2601 67.9497Z" fill="#53FF6E"/>
<path d="M32.5501 104.89L33.2601 103.04C33.7001 101.9 31.94 100.86 31.17 101.82C27.96 105.86 24.7401 109.9 21.5301 113.93C20.5401 115.18 22.3001 116.96 23.3001 115.7C26.5101 111.66 29.7301 107.62 32.9401 103.59L30.85 102.37L30.1401 104.22C29.5601 105.72 31.9801 106.37 32.5501 104.88V104.89Z" fill="#53FF6E"/>
<path d="M34.8801 106.25L25.0201 119.28C24.0501 120.56 26.2201 121.81 27.1801 120.54L37.04 107.51C38.01 106.23 35.8401 104.98 34.8801 106.25Z" fill="#53FF6E"/>
<path d="M33.7801 113.45L24.9501 126.71C24.0601 128.05 26.2201 129.31 27.1101 127.97L35.9401 114.71C36.8301 113.37 34.6701 112.11 33.7801 113.45Z" fill="#53FF6E"/>
<path d="M33.9601 122.59L26.0101 135.19C25.1501 136.55 27.3101 137.81 28.1701 136.45L36.1201 123.85C36.9801 122.49 34.8201 121.23 33.9601 122.59Z" fill="#53FF6E"/>
<path d="M35.3 130.02L26.5 144.07C25.64 145.44 27.81 146.69 28.66 145.33C31.59 140.65 34.5301 135.97 37.4601 131.28C38.3201 129.91 36.15 128.66 35.3 130.02Z" fill="#53FF6E"/>
<path d="M33.9101 142.17L30.1801 147.77C29.2901 149.11 31.4501 150.37 32.3401 149.03L36.0701 143.43C36.9601 142.09 34.8001 140.83 33.9101 142.17Z" fill="#53FF6E"/>
<path d="M86 101.27C86.24 97.6898 85.9401 94.1599 85.1501 90.6599C84.7901 89.0899 82.38 89.7599 82.74 91.3199C83.49 94.6099 83.73 97.8998 83.51 101.27C83.4 102.88 85.9 102.87 86.01 101.27H86Z" fill="#53FF6E"/>
<path d="M91.3401 102.18C91.2901 98.58 90.8 95.05 89.86 91.58C89.44 90.03 87.0301 90.69 87.4501 92.24C88.3301 95.5 88.8001 98.79 88.8401 102.17C88.8601 103.78 91.3601 103.78 91.3401 102.17V102.18Z" fill="#53FF6E"/>
<path d="M96.0101 106.38L96.56 95.65C96.64 94.04 94.14 94.05 94.06 95.65L93.5101 106.38C93.4301 107.99 95.9301 107.98 96.0101 106.38Z" fill="#53FF6E"/>
<path d="M100.65 108.72C100.79 105.45 100.46 102.23 99.67 99.0501C99.28 97.4901 96.8701 98.1501 97.2601 99.7101C98.0001 102.68 98.2901 105.66 98.1501 108.71C98.0801 110.32 100.58 110.32 100.65 108.71V108.72Z" fill="#53FF6E"/>
<path d="M105.32 111.05V90.5102C105.32 88.9002 102.82 88.9002 102.82 90.5102V111.05C102.82 112.66 105.32 112.66 105.32 111.05Z" fill="#53FF6E"/>
<path d="M111.39 112.45V98.4497C111.39 96.8397 108.89 96.8397 108.89 98.4497V112.45C108.89 114.06 111.39 114.06 111.39 112.45Z" fill="#53FF6E"/>
<path d="M53.3101 123.66L54.6101 138.61C54.7501 140.2 57.2501 140.22 57.1101 138.61L55.8101 123.66C55.6701 122.07 53.1701 122.05 53.3101 123.66Z" fill="#53FF6E"/>
<path d="M59.37 122.26L60.8901 139.05C61.0301 140.64 63.5301 140.65 63.3901 139.05L61.87 122.26C61.73 120.67 59.23 120.66 59.37 122.26Z" fill="#53FF6E"/>
<path d="M65.69 121.63C66.46 126.95 66.94 132.29 67.14 137.67C67.2 139.27 69.7 139.28 69.64 137.67C69.43 132.07 68.9 126.51 68.1 120.97C67.87 119.38 65.46 120.06 65.69 121.63Z" fill="#53FF6E"/>
<path d="M71.6901 120.83C72.5701 127.67 72.8001 134.5 72.4001 141.39C72.3101 143 74.8101 142.99 74.9001 141.39C75.3001 134.51 75.0701 127.67 74.1901 120.83C73.9901 119.26 71.4901 119.24 71.6901 120.83Z" fill="#53FF6E"/>
<path d="M76.4 123.01C77.82 128.44 78.35 133.92 78.04 139.52C77.95 141.13 80.45 141.12 80.54 139.52C80.86 133.69 80.28 127.99 78.81 122.35C78.4 120.79 75.99 121.45 76.4 123.01Z" fill="#53FF6E"/>
<path d="M84.6301 120.92C84.8101 127.14 84.9901 133.37 85.1801 139.59C85.2301 141.2 87.7301 141.2 87.6801 139.59C87.5001 133.37 87.3201 127.14 87.1301 120.92C87.0801 119.31 84.5801 119.31 84.6301 120.92Z" fill="#53FF6E"/>
<path d="M90.3101 121.71C91.4201 127.32 91.8301 132.95 91.5901 138.66C91.5201 140.27 94.0201 140.27 94.0901 138.66C94.3401 132.72 93.87 126.88 92.72 121.05C92.41 119.47 90.0001 120.14 90.3101 121.71Z" fill="#53FF6E"/>
<path d="M97.8701 121.36C98.7601 128.2 98.9702 135.03 98.5202 141.92C98.4102 143.53 100.91 143.52 101.02 141.92C101.47 135.04 101.26 128.2 100.37 121.36C100.17 119.79 97.6601 119.77 97.8701 121.36Z" fill="#53FF6E"/>
<path d="M104.64 121.32L105.19 141.86C105.23 143.47 107.73 143.47 107.69 141.86L107.14 121.32C107.1 119.71 104.6 119.71 104.64 121.32Z" fill="#53FF6E"/>
<path d="M110.53 120.819C111.45 128.769 111.49 136.689 110.65 144.649C110.48 146.249 112.98 146.239 113.15 144.649C113.99 136.689 113.95 128.779 113.03 120.819C112.85 119.239 110.35 119.219 110.53 120.819Z" fill="#53FF6E"/>
</g>
</svg>
