<svg width="242" height="162" viewBox="0 0 242 162" fill="none" xmlns="http://www.w3.org/2000/svg">
<mask id="mask0_606_6" style="mask-type:alpha" maskUnits="userSpaceOnUse" x="0" y="0" width="242" height="162">
<path fill-rule="evenodd" clip-rule="evenodd" d="M0 0.959961L132.54 1.87988L142.289 1.94727C175.528 2.17676 208.768 2.40527 242 2.6416V162H0V0.959961Z" fill="#D9D9D9"/>
</mask>
<g mask="url(#mask0_606_6)">
<path d="M156.83 -2.52904C162.52 48.121 158.81 99.561 157.26 150.361C157.16 153.581 162.16 153.581 162.26 150.361C163.82 99.561 167.52 48.131 161.83 -2.52904C161.47 -5.68904 156.47 -5.72904 156.83 -2.52904Z" fill="#FF46A0"/>
<path d="M160.169 153.721C186.769 155.291 213.419 154.741 239.939 152.071C243.109 151.751 243.139 146.751 239.939 147.071C213.419 149.731 186.769 150.281 160.169 148.721C156.959 148.531 156.969 153.531 160.169 153.721Z" fill="#FF46A0"/>
<path d="M35.2699 -4.82882C37.2999 30.0212 37.3599 64.9511 35.4599 99.8111C35.2799 103.031 40.2799 103.021 40.4599 99.8111C42.3599 64.9511 42.2999 30.0212 40.2699 -4.82882C40.0799 -8.02882 35.0799 -8.04882 35.2699 -4.82882Z" fill="#FF46A0"/>
<path d="M92.7599 -2.83875C93.4699 31.2812 93.0499 65.4013 91.4999 99.4913C91.3499 102.711 96.3499 102.701 96.4999 99.4913C98.0499 65.4013 98.4699 31.2812 97.7599 -2.83875C97.6899 -6.04875 92.6899 -6.05875 92.7599 -2.83875Z" fill="#FF46A0"/>
<path d="M4.0897 145.511C17.4697 132.251 29.3497 117.641 39.6297 101.861C41.3897 99.1609 37.0597 96.6508 35.3097 99.3408C25.2597 114.771 13.6297 129.011 0.549663 141.971C-1.74034 144.241 1.7997 147.771 4.0897 145.511Z" fill="#FF46A0"/>
<path d="M-0.170249 144.142L0.849771 154.632C1.15977 157.802 6.15977 157.842 5.84977 154.632L4.82975 144.142C4.51975 140.972 -0.480249 140.932 -0.170249 144.142Z" fill="#FF46A0"/>
<path d="M92.6697 102.702C99.5097 107.962 104.71 115.222 110.16 121.832C116.11 129.052 122.06 136.262 128.01 143.482C130.06 145.962 133.58 142.412 131.55 139.942C125.19 132.232 118.83 124.512 112.47 116.802C107.09 110.272 101.95 103.582 95.1997 98.3817C92.6497 96.4217 90.1597 100.762 92.6797 102.702H92.6697Z" fill="#FF46A0"/>
<path d="M128.01 142.811C127.78 146.641 127.73 150.471 127.87 154.301C127.99 157.511 132.99 157.521 132.87 154.301C132.73 150.471 132.78 146.641 133.01 142.811C133.2 139.601 128.2 139.611 128.01 142.811Z" fill="#FF46A0"/>
<path d="M3.31977 158.471C24.0298 159.821 44.7198 157.481 65.4298 157.371C86.1398 157.261 106.92 158.141 127.65 158.671C130.87 158.751 130.87 153.751 127.65 153.671C106.92 153.141 86.1698 152.271 65.4298 152.371C44.6898 152.471 24.0298 154.821 3.31977 153.471C0.109767 153.261 0.119767 158.261 3.31977 158.471Z" fill="#FF46A0"/>
<path d="M127.65 158.441H144.45C147.67 158.441 147.67 153.441 144.45 153.441H127.65C124.43 153.441 124.43 158.441 127.65 158.441Z" fill="#FF46A0"/>
<path d="M101.97 -2.57866C104.26 31.1513 98.1498 64.8814 101.46 98.5814C101.77 101.751 106.77 101.791 106.46 98.5814C103.15 64.8714 109.26 31.1513 106.97 -2.57866C106.75 -5.76866 101.75 -5.79866 101.97 -2.57866Z" fill="#FF46A0"/>
<path d="M102.2 101.261C109.94 108.401 117.21 115.651 123.3 124.281C128.53 131.681 133.51 139.251 140.49 145.161C142.93 147.231 146.49 143.711 144.03 141.621C136.53 135.271 131.47 126.981 125.74 119.121C120.01 111.261 112.96 104.381 105.73 97.7209C103.37 95.5409 99.8196 99.071 102.19 101.261H102.2Z" fill="#FF46A0"/>
<path d="M140.77 143.931C140.63 147.711 141.94 151.291 142.04 155.041C142.13 158.251 147.13 158.261 147.04 155.041C146.93 151.291 145.63 147.691 145.77 143.931C145.89 140.711 140.89 140.721 140.77 143.931Z" fill="#FF46A0"/>
<path d="M183.24 134.551C178.84 132.621 171.6 130.851 168.65 136.091C167.4 138.311 167.77 141.281 169.64 143.041C171.51 144.801 174.05 145.011 176.41 144.911C180.94 144.721 189.96 145.171 189.18 138.171C188.51 132.151 179.42 132.411 175.08 132.501C170.26 132.611 170.24 140.111 175.08 140.001C177.2 139.951 179.37 140.031 181.47 140.381C181.94 140.421 182.39 140.521 182.84 140.661L182.62 137.081C182.21 136.751 180.1 137.221 179.52 137.251C178.48 137.301 177.45 137.371 176.41 137.411C175.98 137.431 174.79 137.231 174.46 137.371C173.45 136.961 173.67 137.871 175.13 140.111C175.53 140.101 175.93 140.111 176.33 140.171C177.4 140.291 178.47 140.581 179.45 141.011C183.83 142.931 187.65 136.471 183.24 134.531V134.551Z" fill="#FF46A0"/>
<path d="M95.5898 4.661C98.5698 5.151 101.52 5.24101 104.51 4.85101C106.08 4.65101 106.1 2.14101 104.51 2.35101C101.75 2.71101 98.9999 2.70103 96.2499 2.25103C94.6799 1.99103 93.9998 4.401 95.5898 4.661Z" fill="#FF46A0"/>
<path d="M99.0496 10.8508L104.85 9.99086C106.44 9.76086 105.76 7.35088 104.19 7.58088L98.3897 8.44087C96.7997 8.67087 97.4796 11.0808 99.0496 10.8508Z" fill="#FF46A0"/>
<path d="M96.7899 16.0516C98.4399 15.9716 100.09 16.0416 101.73 16.2416C102.41 16.3316 102.97 15.6016 102.98 14.9916C102.98 14.2416 102.4 13.8216 101.73 13.7416C100.09 13.5316 98.4399 13.4716 96.7899 13.5516C95.1399 13.6316 95.1799 16.1316 96.7899 16.0516Z" fill="#FF46A0"/>
<path d="M96.1399 22.051C98.6499 22.051 101.1 22.311 103.54 22.851C105.11 23.201 105.78 20.791 104.2 20.441C101.54 19.841 98.8599 19.541 96.1299 19.551C94.5199 19.551 94.5199 22.051 96.1299 22.051H96.1399Z" fill="#FF46A0"/>
<path d="M94.6398 28.9517L103.01 28.6716C104.61 28.6216 104.62 26.1216 103.01 26.1716L94.6398 26.4517C93.0398 26.5017 93.0298 29.0017 94.6398 28.9517Z" fill="#FF46A0"/>
<path d="M96.15 34.3114C98.45 34.2114 100.73 34.2613 103.02 34.4713C104.62 34.6213 104.61 32.1113 103.02 31.9713C100.73 31.7613 98.44 31.7114 96.15 31.8114C94.55 31.8814 94.54 34.3814 96.15 34.3114Z" fill="#FF46A0"/>
<path d="M96.5795 39.7315C99.3695 39.4315 102.12 39.5515 104.86 40.1315C106.43 40.4615 107.1 38.0514 105.52 37.7214C102.56 37.0914 99.5895 36.9115 96.5695 37.2315C94.9895 37.4015 94.9695 39.9015 96.5695 39.7315H96.5795Z" fill="#FF46A0"/>
<path d="M96.5797 45.9116L103.01 45.2016C104.59 45.0316 104.61 42.5216 103.01 42.7016L96.5797 43.4116C94.9997 43.5816 94.9797 46.0916 96.5797 45.9116Z" fill="#FF46A0"/>
<path d="M97.4397 52.3713C98.8697 52.2013 100.24 52.2813 101.62 52.6813C103.17 53.1213 103.83 50.7113 102.28 50.2713C100.73 49.8313 99.0697 49.6713 97.4297 49.8713C96.7497 49.9513 96.1897 50.3913 96.1797 51.1213C96.1797 51.7313 96.7597 52.4513 97.4297 52.3713H97.4397Z" fill="#FF46A0"/>
<path d="M96.7897 59.4712C98.6497 59.2512 100.5 59.2112 102.37 59.3512C103.97 59.4712 103.97 56.9712 102.37 56.8512C100.5 56.7112 98.6497 56.7512 96.7897 56.9712C95.2097 57.1612 95.1897 59.6612 96.7897 59.4712Z" fill="#FF46A0"/>
<path d="M96.16 64.9409C98.39 64.7509 100.55 64.921 102.72 65.461C104.28 65.861 104.95 63.4409 103.38 63.0509C101.01 62.4509 98.6 62.2309 96.16 62.4409C94.57 62.5709 94.55 65.0709 96.16 64.9409Z" fill="#FF46A0"/>
<path d="M97.2197 71.6611H102.8C104.41 71.6611 104.41 69.1611 102.8 69.1611H97.2197C95.6097 69.1611 95.6097 71.6611 97.2197 71.6611Z" fill="#FF46A0"/>
<path d="M95.7095 75.9513C97.3995 76.0113 98.9895 76.4213 100.489 77.2013C101.989 77.9813 103.179 75.7812 101.749 75.0412C99.8495 74.0612 97.8395 73.5313 95.7095 73.4513C94.0995 73.3913 94.0995 75.8913 95.7095 75.9513Z" fill="#FF46A0"/>
<path d="M96.6995 84.1012C99.2195 83.5012 101.74 83.3413 104.309 83.5813C105.91 83.7313 105.899 81.2313 104.309 81.0813C101.519 80.8213 98.7596 81.0412 96.0296 81.6912C94.4696 82.0612 95.1295 84.4712 96.6895 84.1012H96.6995Z" fill="#FF46A0"/>
<path d="M96.4998 90.8109C98.4398 90.2809 100.37 90.1009 102.38 90.2509C103.98 90.3709 103.98 87.8709 102.38 87.7509C100.17 87.5809 97.9797 87.8109 95.8397 88.4009C94.2897 88.8309 94.9498 91.2409 96.4998 90.8109Z" fill="#FF46A0"/>
<path d="M95.0599 98.201C97.8499 97.991 100.64 97.8709 103.44 97.8409C105.05 97.8209 105.05 95.3209 103.44 95.3409C100.64 95.3709 97.8499 95.491 95.0599 95.701C93.4699 95.821 93.4499 98.321 95.0599 98.201Z" fill="#FF46A0"/>
<path d="M95.7095 102.642L103.66 102.952C105.27 103.012 105.27 100.512 103.66 100.452L95.7095 100.142C94.0995 100.082 94.0995 102.582 95.7095 102.642Z" fill="#FF46A0"/>
<path d="M103.23 108.892L110.75 109.162C112.36 109.222 112.36 106.722 110.75 106.662L103.23 106.392C101.62 106.332 101.62 108.832 103.23 108.892Z" fill="#FF46A0"/>
<path d="M107.66 114.242C110.91 113.682 114.15 113.632 117.42 114.022C119.01 114.212 119 111.712 117.42 111.522C113.92 111.102 110.47 111.232 107 111.832C105.42 112.102 106.09 114.512 107.66 114.242Z" fill="#FF46A0"/>
<path d="M110.75 119.151C114.06 118.951 117.35 119.031 120.64 119.391C122.24 119.561 122.22 117.061 120.64 116.891C117.35 116.531 114.06 116.451 110.75 116.651C109.15 116.751 109.14 119.251 110.75 119.151Z" fill="#FF46A0"/>
<path d="M114.82 124.911C117.61 124.821 120.4 124.731 123.19 124.641C124.79 124.591 124.8 122.091 123.19 122.141C120.4 122.231 117.61 122.321 114.82 122.411C113.22 122.461 113.21 124.961 114.82 124.911Z" fill="#FF46A0"/>
<path d="M122.47 129.671C124.63 129.321 126.81 129.231 129 129.341C130.61 129.421 130.6 126.921 129 126.841C126.58 126.721 124.2 126.881 121.81 127.261C120.23 127.511 120.9 129.921 122.47 129.671Z" fill="#FF46A0"/>
<path d="M124.49 134.861C127 134.801 129.5 134.801 132.01 134.861C133.62 134.901 133.62 132.401 132.01 132.361C129.5 132.301 127 132.301 124.49 132.361C122.88 132.401 122.88 134.901 124.49 134.861Z" fill="#FF46A0"/>
<path d="M127.71 140.192C130.88 139.992 134.02 140.072 137.17 140.442C138.77 140.622 138.75 138.122 137.17 137.942C134.02 137.582 130.87 137.502 127.71 137.692C126.11 137.792 126.1 140.292 127.71 140.192Z" fill="#FF46A0"/>
<path d="M133.429 145.152C136.149 144.512 138.849 144.512 141.569 145.152C143.139 145.522 143.799 143.112 142.229 142.742C139.069 142.002 135.91 142.002 132.76 142.742C131.19 143.112 131.859 145.522 133.419 145.152H133.429Z" fill="#FF46A0"/>
<path d="M132.43 149.401C136.14 148.971 139.86 148.831 143.59 148.971C145.2 149.031 145.2 146.531 143.59 146.471C139.85 146.331 136.14 146.471 132.43 146.901C130.85 147.081 130.83 149.591 132.43 149.401Z" fill="#FF46A0"/>
<path d="M131.36 153.232C135.28 153.192 139.17 153.461 143.05 154.091C144.62 154.351 145.3 151.942 143.71 151.682C139.61 151.012 135.51 150.682 131.36 150.732C129.75 150.752 129.75 153.252 131.36 153.232Z" fill="#FF46A0"/>
</g>
</svg>
