<svg width="109" height="139" viewBox="0 0 109 139" fill="none" xmlns="http://www.w3.org/2000/svg">
<path d="M7.73996 131.221C9.07996 120.231 10.75 108.271 19.3 100.361C27.85 92.451 40.33 85.0609 52 84.3509C63.67 83.6409 77.1099 89.661 85.9699 96.941C90.6699 100.811 93.58 106.481 96.25 111.861C99.15 117.711 101.16 123.821 101.27 130.391C101.35 135.211 108.85 135.231 108.77 130.391C108.66 123.351 106.76 116.781 103.85 110.411C100.94 104.041 97.44 97.181 92.23 92.421C82.2 83.261 65.69 76.0709 52 76.8509C38.36 77.6209 24.71 85.5809 14.66 94.4709C4.05001 103.861 1.86996 117.881 0.239964 131.221C-0.340036 136.001 7.15996 135.961 7.73996 131.221Z" fill="#53FF6E"/>
<path d="M5.87004 135.811C13.48 132.291 22.2101 130.741 30.3901 129.111C38.6101 127.471 46.9001 126.251 55.2701 125.751C71.4601 124.771 87.58 126.501 102.84 132.131C107.37 133.801 109.33 126.561 104.83 124.901C88.4 118.831 70.74 117.111 53.33 118.381C44.63 119.021 35.98 120.331 27.44 122.081C18.85 123.841 10.07 125.651 2.08 129.351C-2.3 131.381 1.51004 137.841 5.87004 135.831V135.811Z" fill="#53FF6E"/>
<path d="M3.84996 137.081C11.81 138.691 19.86 137.921 27.91 137.551C36.2 137.161 44.49 136.781 52.78 136.391C69.69 135.601 86.6 134.811 103.52 134.021C108.33 133.801 108.35 126.291 103.52 126.521C87.27 127.281 71.02 128.041 54.77 128.801C46.81 129.171 38.85 129.541 30.89 129.921C22.93 130.301 13.96 131.511 5.83995 129.861C1.12995 128.911 -0.890035 136.131 3.84996 137.091V137.081Z" fill="#53FF6E"/>
<path d="M27.39 133.992C30.28 134.332 32.7 133.692 35.13 132.092L30.59 131.502C35.2 135.182 41.38 134.512 44.6 129.352H38.12C42.12 134.952 47.9001 133.052 52.3001 128.932L45.9 126.282C45.86 129.382 47.7701 132.082 51.0601 132.422C54.8401 132.822 56.63 129.672 59.65 128.222L54.14 123.992C53.58 127.042 54.4999 129.842 57.5699 131.182C61.0899 132.722 64.3 130.562 66.77 128.192L60.5 124.542C57.33 134.182 71.2399 132.722 75.9399 129.562L73.05 129.942C76.32 131.222 79.33 131.282 82.72 130.422C86.98 129.342 85.81 123.322 81.72 123.052C80.9 123.002 80.07 122.942 79.25 122.892V130.392C82.42 130.392 85.57 130.542 88.72 130.962C93.44 131.592 95.48 124.372 90.71 123.732C86.88 123.222 83.12 122.892 79.25 122.892C74.38 122.892 74.47 130.072 79.25 130.392C80.07 130.442 80.9 130.502 81.72 130.552L80.72 123.182C78.02 123.872 76.04 122.322 73.54 122.642C72.48 122.782 67.63 126.092 66.99 124.732L67.37 127.622L67.73 126.532C68.94 122.842 64.05 120.412 61.46 122.882L60.79 124.132L61.17 127.022L61.36 125.962C61.96 122.652 58.9 120.262 55.85 121.732C55.28 122.012 51.71 124.052 52.27 124.742L53.37 127.392L53.39 126.262C53.43 122.912 49.31 121.442 46.99 123.612C46.29 124.382 45.49 125.032 44.59 125.552C42.96 123.272 39.7 123.012 38.11 125.552C37.56 126.442 36.82 126.652 35.88 126.182C34.62 125.172 32.82 124.622 31.34 125.592C30.13 126.602 28.81 126.892 27.39 126.462C22.6 125.902 22.64 133.412 27.39 133.962V133.992Z" fill="#53FF6E"/>
<path d="M58.93 97.6703C57.89 100.6 56.6999 103.45 55.3499 106.25C54.6599 107.69 56.81 108.96 57.51 107.51C58.94 104.52 60.2199 101.46 61.3399 98.3303C61.8799 96.8103 59.47 96.1603 58.93 97.6703Z" fill="#53FF6E"/>
<path d="M62.15 99.0517C61.11 102.692 59.57 106.072 57.51 109.242C56.63 110.592 58.8 111.852 59.67 110.502C61.84 107.152 63.4701 103.542 64.5601 99.7117C65.0001 98.1617 62.59 97.5017 62.15 99.0517Z" fill="#53FF6E"/>
<path d="M65.1 99.5512C64.07 103.871 62.57 107.981 60.54 111.941C59.81 113.371 61.96 114.641 62.7 113.201C64.82 109.061 66.43 104.741 67.51 100.221C67.88 98.6612 65.47 97.9912 65.1 99.5612V99.5512Z" fill="#53FF6E"/>
<path d="M72.6601 99.2113C70.1101 102.811 68.19 106.731 66.85 110.931C66.36 112.471 68.7701 113.121 69.2601 111.591C70.5301 107.581 72.39 103.901 74.82 100.471C75.75 99.1512 73.5801 97.9013 72.6601 99.2113Z" fill="#53FF6E"/>
<path d="M76.83 99.3917C74.8 103.452 72.76 107.502 70.73 111.562C70.01 112.992 72.17 114.262 72.89 112.822C74.92 108.762 76.96 104.712 78.99 100.652C79.71 99.2217 77.55 97.9517 76.83 99.3917Z" fill="#53FF6E"/>
<path d="M79.5001 101.221C77.3601 104.841 75.7101 108.681 74.5401 112.721C74.0901 114.271 76.5 114.931 76.95 113.381C78.06 109.541 79.6301 105.921 81.6601 102.481C82.4801 101.091 80.3201 99.831 79.5001 101.221Z" fill="#53FF6E"/>
<path d="M82.62 103L77.77 113.42C77.1 114.87 79.25 116.14 79.93 114.68L84.78 104.26C85.45 102.81 83.3 101.54 82.62 103Z" fill="#53FF6E"/>
<path d="M87.05 103.581C84.41 107.051 82.4699 110.911 81.2099 115.091C80.7499 116.631 83.16 117.291 83.62 115.751C84.82 111.771 86.6899 108.141 89.2099 104.831C90.1799 103.551 88.01 102.301 87.05 103.571V103.581Z" fill="#53FF6E"/>
<path d="M89.52 105.021C87.57 108.941 85.78 112.931 84.14 116.991C83.54 118.481 85.96 119.131 86.55 117.651C88.11 113.791 89.82 110.001 91.68 106.281C92.4 104.841 90.24 103.581 89.52 105.021Z" fill="#53FF6E"/>
<path d="M93.2601 106.4C91.6501 110.22 89.8601 113.95 87.9001 117.6C87.2101 118.89 88.79 120.03 89.86 119.11C90.17 118.85 90.4801 118.58 90.7901 118.32C92.0201 117.27 90.2401 115.51 89.0201 116.55C88.7101 116.81 88.4 117.08 88.09 117.34L90.0501 118.85C92.0101 115.2 93.7901 111.47 95.4101 107.65C96.0301 106.19 93.8801 104.91 93.2501 106.39L93.2601 106.4Z" fill="#53FF6E"/>
<path d="M96.4399 107.641C95.0099 111.181 93.79 114.791 92.78 118.471C92.36 120.021 94.7699 120.691 95.1899 119.131C96.1999 115.441 97.41 111.841 98.85 108.301C99.45 106.811 97.0399 106.161 96.4399 107.641Z" fill="#53FF6E"/>
<path d="M95.8599 115.691C95.0999 117.761 95.07 119.991 95.75 122.081C96.24 123.601 98.66 122.951 98.16 121.421C97.6 119.711 97.65 118.051 98.27 116.361C98.82 114.851 96.4099 114.191 95.8599 115.701V115.691Z" fill="#53FF6E"/>
<path fill-rule="evenodd" clip-rule="evenodd" d="M50.2819 0.977448C53.6151 0.969421 56.9482 0.961334 60.2814 0.953125C61.1411 27.089 61.181 53.2439 60.4301 79.3793C60.2401 85.8093 50.2401 85.8193 50.4301 79.3793C51.1808 53.2422 51.1313 27.105 50.2819 0.977448Z" fill="#53FF6E"/>
</svg>
