<svg width="100" height="201" viewBox="0 0 100 201" fill="none" xmlns="http://www.w3.org/2000/svg">
<path d="M89.9699 200.06C92.2299 198.33 94.5899 196.77 97.0499 195.36C101.24 192.97 97.4699 186.48 93.2599 188.88C90.7899 190.29 88.4299 191.86 86.1799 193.58C84.5699 194.81 83.7199 196.81 84.8299 198.71C85.7499 200.29 88.3399 201.29 89.9599 200.06H89.9699Z" fill="#53FF6E"/>
<path d="M89.6899 185.94C90.8499 182.96 94.6199 181.46 97.2599 180.19C99.0799 179.31 99.5699 176.711 98.6099 175.061C97.5199 173.201 95.3099 172.831 93.4799 173.711C88.6799 176.031 84.47 178.79 82.46 183.95C81.73 185.84 83.2699 188.071 85.0799 188.561C87.1999 189.141 88.9599 187.84 89.6899 185.94Z" fill="#53FF6E"/>
<path d="M88.6599 187.41C92.6999 185.91 96.07 183.22 98.15 179.4C100.46 175.16 93.98 171.37 91.67 175.61C90.52 177.72 88.7499 179.39 86.6599 180.17C84.7599 180.88 83.4699 182.71 84.0399 184.78C84.5399 186.6 86.74 188.11 88.65 187.4L88.6599 187.41Z" fill="#53FF6E"/>
<path d="M89.2899 172.24C90.2899 169.22 94.0499 167.62 96.5699 166.09L91.4399 160.96C90.7099 162.57 89.7999 163.92 88.4499 165.07C87.0299 166.29 85.4199 167.24 84.1599 168.65C82.8999 170.06 82.6699 172.07 83.8699 173.57C84.9399 174.91 87.1699 175.65 88.7099 174.54C89.5699 173.91 90.4099 173.27 91.1999 172.56C94.3699 169.74 90.2399 164.37 86.6599 166.67C86.1099 167.02 85.5699 167.37 85.0199 167.73C80.9699 170.33 84.7299 176.83 88.8099 174.21C89.3599 173.86 89.8999 173.51 90.4499 173.15L85.9099 167.26C85.5899 167.54 85.2799 167.82 84.9399 168.07L89.4799 173.96C90.8599 172.42 92.6699 171.42 94.1799 170.01C95.6899 168.6 97.0399 166.71 97.9299 164.75C98.6299 163.21 98.6099 161.47 97.3399 160.21C96.1799 159.05 94.2199 158.76 92.7999 159.62C88.3099 162.34 83.8099 164.99 82.0699 170.25C80.5499 174.84 87.7899 176.81 89.2999 172.24H89.2899Z" fill="#53FF6E"/>
<path d="M84.1699 196.96C85.1499 193.21 84.1699 189.73 81.5999 186.87C79.0299 184.01 75.6199 182.79 72.6099 180.83C71.2299 179.93 69.1999 180.28 68.0699 181.42C66.7899 182.7 66.8199 184.41 67.4799 185.96C68.7199 188.89 69.6899 192.17 71.8399 194.58C73.6899 196.65 76.2299 198.68 78.9599 199.34C82.6899 200.25 85.0899 195.85 82.6099 193.07C80.9499 191.21 79.7799 189.53 78.8999 187.19C77.9299 184.61 76.4499 183 74.1399 181.54C70.0499 178.95 66.2799 185.44 70.3499 188.02C72.1199 189.14 72.2499 191.19 73.1899 192.98C74.2399 194.98 75.7999 196.71 77.2999 198.38L80.9499 192.11C76.7699 191.09 75.3999 185.58 73.9499 182.17L68.8199 187.3C71.3399 188.94 77.9699 191 76.9299 194.96C75.7099 199.63 82.9399 201.63 84.1599 196.95L84.1699 196.96Z" fill="#53FF6E"/>
<path d="M86.24 182.42C86.6 178.61 83.79 175.89 81.43 173.28C79.07 170.67 76.79 168.4 73.37 167.67C70.49 167.05 67.07 170.33 69.14 173.18C71.21 176.03 73.47 178.82 75.28 181.85C76.96 184.66 78.8 186.45 81.7 188.01C85.95 190.3 89.74 183.83 85.49 181.53C83.07 180.23 82.38 178.89 80.9 176.7C79.22 174.21 77.38 171.82 75.62 169.39L71.39 174.9C73.24 175.3 74.34 176.62 75.58 177.96C76.65 179.13 78.91 180.83 78.76 182.42C78.31 187.22 85.81 187.19 86.26 182.42H86.24Z" fill="#53FF6E"/>
<path d="M85 161.99C88.49 159.49 91.49 156.57 93.75 152.9C96.01 149.23 90.8899 145.44 87.8599 148.36C86.7499 149.43 85.5899 150.42 84.2999 151.28C82.9299 152.2 81.31 152.9 80.25 154.2C78.96 155.76 78.72 157.97 80.25 159.5C81.58 160.83 84.2599 161.07 85.5499 159.5C86.2299 158.67 87.87 157.93 88.96 157.15C90.44 156.08 91.8499 154.93 93.1699 153.66L87.28 149.12C85.72 151.64 83.6299 153.79 81.2199 155.52C79.5799 156.7 78.78 158.79 79.87 160.65C80.82 162.27 83.35 163.18 85 162V161.99Z" fill="#53FF6E"/>
<path d="M83.1599 141.94L82.89 141.57L83.4 143.46C83.4 143.18 84.56 141.61 84.83 141.19C85.48 140.2 86.22 139.31 87.02 138.42L80.75 134.77C80.12 138.6 79.58 142.86 76.96 145.92C73.83 149.57 79.11 154.89 82.26 151.22C85.85 147.04 87.1 142.09 87.98 136.76C88.53 133.4 84.47 130.06 81.71 133.11C79.24 135.84 73.79 141.82 76.68 145.71C77.9 147.35 79.91 148.14 81.81 147.06C83.42 146.14 84.3599 143.55 83.1599 141.93V141.94Z" fill="#53FF6E"/>
<path d="M75.16 125.69C73.83 123.95 76.34 121.48 77.29 119.97C78.59 117.92 79.78 115.83 80.92 113.69L74.07 110.8C73.07 113.2 72.22 115.51 71.88 118.09C71.54 120.67 71.63 122.92 69.86 124.92C66.67 128.52 71.96 133.85 75.16 130.22C77.13 128 78.43 125.57 78.89 122.62C79.44 119.11 79.91 116.11 81.29 112.79C82.93 108.86 76.41 106.19 74.44 109.9C71.56 115.31 63.86 123.2 68.68 129.47C71.58 133.25 78.1 129.52 75.16 125.68V125.69Z" fill="#53FF6E"/>
<path d="M66.5599 108.18C65.6899 106.54 67.8499 104.23 68.6999 103.02C70.0299 101.12 71.3699 99.22 72.7099 97.31L66.2299 93.5199C64.0199 98.2999 63.2099 104.18 59.8999 108.36C56.9399 112.11 62.2099 117.45 65.1999 113.66C69.0999 108.73 70.1299 102.88 72.6999 97.3C74.7199 92.92 69.0199 89.5299 66.2199 93.5099C62.4499 98.8799 56.4299 105.04 60.0799 111.95C62.3299 116.22 68.8099 112.43 66.5599 108.16V108.18Z" fill="#53FF6E"/>
<path d="M60.41 96.7602C59.42 94.0202 58.75 92.0102 60.97 89.7602C62.82 87.8802 65 86.4602 66.63 84.3602L60.36 80.7102C59 84.9402 57.61 89.2202 54.47 92.5002C51.13 95.9902 56.43 101.3 59.77 97.8002C63.83 93.5602 65.8201 88.2002 67.5901 82.7002C68.6801 79.3202 63.66 76.0402 61.32 79.0502C58.98 82.0602 55.3501 83.9802 53.3401 87.3702C51.1801 91.0202 51.8 94.9402 53.18 98.7502C54.8 103.26 62.05 101.31 60.41 96.7602Z" fill="#53FF6E"/>
<path d="M47.8599 72.7004C46.7199 68.1604 51.0199 64.2804 54.2299 61.5704L47.8299 58.9205C47.4999 63.1105 46.3999 68.7905 43.8699 72.2205C41.0099 76.1105 47.5099 79.8605 50.3499 76.0105C53.6799 71.4805 54.8899 64.4205 55.3299 58.9205C55.6099 55.3905 51.1799 54.3605 48.9299 56.2705C46.2299 58.5505 43.8699 61.2305 42.0299 64.2605C39.9399 67.6805 39.6699 70.8604 40.6299 74.7004C41.7999 79.3804 49.0399 77.4005 47.8599 72.7105V72.7004Z" fill="#53FF6E"/>
<path d="M40.15 57.2804C39.78 53.0004 44.85 49.7603 46.87 46.3703L39.88 44.4803C39.49 48.3203 37.99 51.7904 35.77 54.9204C32.98 58.8704 39.48 62.6203 42.25 58.7103C45.26 54.4603 46.86 49.6403 47.38 44.4803C47.77 40.6103 42.18 39.6103 40.39 42.5903C37.44 47.5203 32.08 50.8004 32.64 57.2804C33.06 62.0504 40.56 62.1004 40.14 57.2804H40.15Z" fill="#53FF6E"/>
<path d="M33.3899 44.2104C34.0399 40.5204 36.8499 38.3104 39.7499 36.2304L34.6199 31.1004C32.2799 35.2104 30.2699 39.4504 28.4499 43.8204C27.6699 45.6904 29.2899 47.9405 31.0699 48.4305C33.2299 49.0205 34.8999 47.6905 35.6799 45.8105C37.2499 42.0505 39.0899 38.4204 41.0999 34.8804C42.8299 31.8304 39.1599 27.4604 35.9699 29.7504C31.5699 32.9104 27.1599 36.5804 26.1699 42.2104C25.8199 44.2004 26.7099 46.2504 28.7899 46.8204C30.5999 47.3204 33.0499 46.2104 33.3999 44.2004L33.3899 44.2104Z" fill="#53FF6E"/>
<path d="M25.57 32.1404C26.16 28.3304 29.96 25.9604 32.75 23.6704L26.86 19.1304C25.35 22.6904 24.27 27.2103 21.13 29.6903C19.54 30.9403 19.82 33.6804 21.13 34.9904C22.7 36.5604 24.84 36.2504 26.43 34.9904C30.18 32.0304 31.54 27.1504 33.34 22.9104C35 19.0004 30.87 15.5504 27.45 18.3704C23.62 21.5204 19.15 24.9204 18.35 30.1504C18.04 32.1504 18.86 34.1804 20.97 34.7604C22.75 35.2504 25.27 34.1504 25.58 32.1404H25.57Z" fill="#53FF6E"/>
<path d="M21.1899 28.8403C21.7399 20.6903 13.9499 14.5704 7.82989 10.5104C4.22989 8.12037 0.329914 13.4304 3.28991 16.4004C5.66991 18.7904 5.08989 23.3904 7.04989 26.2604C9.09989 29.2804 12.3999 30.6903 15.6799 31.9803C19.6299 33.5303 22.3299 27.0504 18.5699 25.1304C13.3499 22.4604 9.78991 18.0203 8.40991 12.3203L2.13992 15.9703C2.54992 16.4503 2.96991 16.9304 3.37991 17.4104C6.53991 21.0704 11.8299 15.7403 8.6799 12.1103C8.2699 11.6303 7.84991 11.1504 7.43991 10.6704C4.86991 7.7004 0.339919 10.9003 1.16992 14.3203C2.97992 21.7703 7.9399 28.1203 14.7799 31.6103L17.6699 24.7604C14.5899 23.5504 12.9799 22.4103 12.2599 19.0803C11.5999 16.0503 10.8399 13.3603 8.5899 11.1003L4.04989 16.9903C7.80989 19.4903 14.0399 23.7903 13.6999 28.8503C13.3599 33.9103 20.8799 33.6503 21.1999 28.8503L21.1899 28.8403Z" fill="#53FF6E"/>
<path d="M23.11 35.5903C19.7 32.9503 14.7 33.1503 10.54 33.2403C7.41999 33.3003 0.819981 33.2603 0.189981 37.4602C-0.0500191 39.0402 0.329982 40.9002 1.90998 41.6902C7.90998 44.7002 16.43 45.0103 22.56 42.4303C26.94 40.5903 25.02 33.3202 20.57 35.2002C17.94 36.3102 15.43 36.8402 12.56 36.5702C10.68 36.3902 7.38999 36.0703 5.69999 35.2203L7.41999 39.4502L7.47999 39.0702L5.75999 41.3103C7.39999 40.3503 10.63 40.7103 12.45 40.7503C13.51 40.7803 14.57 40.8403 15.63 40.9203C16.12 40.9603 18.74 41.6103 17.81 40.8903C21.58 43.8103 26.92 38.5403 23.11 35.5903Z" fill="#53FF6E"/>
<path d="M29.57 46.4301C22.36 44.9001 15.41 46.72 9.82999 51.51C7.31999 53.66 9.38001 57.9601 12.48 57.9101C18.49 57.8201 24.79 58.21 30.56 56.24C35.1 54.69 33.15 47.44 28.57 49.01C23.44 50.76 17.84 50.3401 12.49 50.4101L15.14 56.8101C18.58 53.8501 23.15 52.7201 27.58 53.6601C32.29 54.6601 34.3 47.4301 29.57 46.4301Z" fill="#53FF6E"/>
<path d="M37.8 60.1705C31.03 59.0005 25.08 61.3005 19.64 65.2405C16.85 67.2605 17.5 72.3705 21.53 72.2305C24.97 72.1105 27.96 72.8805 31.31 73.3705C34.17 73.7805 36.77 73.4505 39.54 72.6705C42.85 71.7405 42.98 67.6204 40.44 65.8204L40.57 66.1805L38.33 71.6904L38.43 71.6605L33.82 69.0405L33.84 69.1205L35.56 64.8905L35.07 65.2405C31.18 68.0305 34.92 74.5404 38.86 71.7204L39.35 71.3705C40.66 70.4305 41.62 68.8105 41.07 67.1405L41.05 67.0605C40.42 65.1305 38.47 63.8904 36.44 64.4404L36.34 64.4704C34.02 65.1004 32.86 67.9005 34.1 69.9805C34.74 71.0505 35.66 71.6105 36.66 72.3105L37.56 65.4604C32.27 66.9404 26.97 64.5605 21.54 64.7505L23.43 71.7405C27.03 69.1305 31.17 66.6305 35.81 67.4305C40.45 68.2305 42.56 61.0204 37.8 60.2004V60.1705Z" fill="#53FF6E"/>
<path d="M50.5899 83.3398C45.8599 78.7098 37.1599 80.1899 31.1999 80.4199C27.5999 80.5599 25.9499 85.5198 29.3099 87.4098C33.2799 89.6398 37.3199 91.8699 41.4999 93.6799C44.7999 95.1099 47.9499 95.5198 51.1899 93.7398C52.6099 92.9598 53.3799 91.0598 52.9099 89.5098L52.6099 88.5298C52.0499 86.6698 49.9599 85.2498 47.9999 85.9098L47.1599 86.1897C42.6099 87.7197 44.5599 94.9599 49.1499 93.4199L49.9899 93.1398L45.3799 90.5198L45.6799 91.4998L47.3999 87.2698C45.5299 88.2998 42.1099 85.7098 40.4199 84.8598C37.9399 83.6098 35.5099 82.2897 33.0899 80.9397L31.1999 87.9299C33.7599 87.8299 36.3199 87.7398 38.8699 87.7098C40.5999 87.6898 43.8999 87.2898 45.2899 88.6498C48.7399 92.0298 54.0499 86.7298 50.5899 83.3498V83.3398Z" fill="#53FF6E"/>
<path d="M55.1199 100.6C51.0799 100.23 47.1599 100.07 43.1799 100.96C39.1999 101.85 39.9399 107.03 43.1799 108.19C47.9999 109.92 52.6399 112.11 57.8599 111.24C62.6099 110.45 60.5999 103.22 55.8699 104.01C52.5799 104.56 48.2099 102.05 45.1799 100.96V108.19C48.4599 107.46 51.8199 107.79 55.1299 108.1C59.9299 108.54 59.8999 101.04 55.1299 100.6H55.1199Z" fill="#53FF6E"/>
<path d="M62.06 116.16C60.89 116.7 57.32 114.8 56.08 114.41C53.83 113.7 51.74 113.06 49.38 112.91C46.73 112.74 44.44 116.31 46.14 118.55C48.26 121.35 50.45 124.21 53.65 125.83C57.26 127.66 61.64 127.39 65.57 127.58C70.39 127.81 70.38 120.31 65.57 120.08C63.1 119.96 59.75 120.32 57.42 119.33C55.37 118.46 53.91 116.47 52.61 114.75L49.37 120.39C55.17 120.76 59.99 125.3 65.84 122.62C70.22 120.61 66.41 114.14 62.05 116.14L62.06 116.16Z" fill="#53FF6E"/>
<path d="M72.6799 132.9C70.3499 131.27 67.5999 130.92 64.8699 130.38C61.9099 129.79 58.9399 129.21 55.9799 128.64C53.3599 128.13 50.3999 130.34 51.3699 133.25C52.4999 136.65 56.18 139.37 59.34 140.81C63.18 142.56 67.3699 142.58 71.5099 142.42C76.3199 142.23 76.3399 134.73 71.5099 134.92C68.9899 135.02 66.2699 135.24 63.8099 134.52C62.7199 134.2 61.7899 133.74 60.8499 133.09C60.2499 132.65 59.6899 132.17 59.1499 131.66C58.3599 130.78 58.17 130.64 58.59 131.26L53.9799 135.87C56.5499 136.37 59.1199 136.87 61.6799 137.38C64.0099 137.84 66.9099 138 68.8799 139.38C72.8499 142.15 76.5999 135.65 72.6699 132.9H72.6799Z" fill="#53FF6E"/>
<path d="M84.87 163.03C82.77 161.27 80.67 159.56 78.1 158.55C76.05 157.75 72.29 157.84 71.2 155.71L66.07 160.84C67.78 161.89 69.52 162.9 71.42 163.58C72.57 163.99 74.61 164 75.55 164.8C79.2 167.92 84.53 162.63 80.85 159.5C79.33 158.2 77.77 157.5 75.85 157.02C73.63 156.47 71.81 155.57 69.85 154.37C66.5 152.32 63.08 156.3 64.72 159.5C66.06 162.12 68.49 163.62 71.25 164.45C72.69 164.88 74.26 165 75.64 165.6C77.11 166.24 78.36 167.32 79.57 168.34C83.24 171.43 88.57 166.15 84.87 163.04V163.03Z" fill="#53FF6E"/>
<path d="M77.1199 146.43C72.5799 143.86 67.2199 144.83 62.7699 142.04L58.9799 148.52C64.6699 152 70.4899 156.39 77.4699 156.16C82.2799 156 82.3099 148.5 77.4699 148.66C72.0599 148.84 67.1599 144.73 62.7599 142.04C58.6299 139.51 54.8899 145.96 58.9699 148.52C61.1099 149.85 63.4299 150.85 65.9199 151.31C68.4099 151.77 71.0799 151.64 73.3299 152.91C77.5399 155.29 81.3199 148.81 77.1199 146.43Z" fill="#53FF6E"/>
<path d="M56.2899 20.1601C53.1699 19.9101 54.1299 14.25 54.3099 12.47C54.5899 9.62 54.7299 6.88005 54.5399 4.02005H47.0399C47.7399 11.0501 50.46 17.7301 52.63 24.4001C53.61 27.4201 57.7999 28.1701 59.4799 25.3001C63.5999 18.2801 57.07 9.21008 53.34 3.30008C50.77 -0.769917 44.2799 2.99 46.8599 7.09C48.5599 9.79 54.8999 18.2901 52.9999 21.5201L59.8499 22.4201C57.9199 16.5001 55.14 10.2501 54.53 4.03006C54.06 -0.689936 46.71 -0.839936 47.03 4.03006C47.59 12.5001 43.59 26.6701 56.28 27.6701C61.09 28.0501 61.07 20.5501 56.28 20.1701L56.2899 20.1601Z" fill="#53FF6E"/>
<path d="M63.88 36.2397C65.41 34.0297 68.12 32.7897 70.07 31.0097C72.47 28.7997 74.27 25.9797 76 23.2397L69.15 20.3497C67.67 25.2597 66.12 30.6198 61.36 33.3098C57.16 35.6798 60.93 42.1598 65.15 39.7898C71.7 36.0898 74.32 29.1897 76.38 22.3497C77.64 18.1897 71.75 15.9297 69.53 19.4597C67.79 22.2097 66.06 24.7998 63.44 26.7998C61.15 28.5498 59.06 30.0597 57.4 32.4597C54.65 36.4397 61.15 40.1897 63.88 36.2497V36.2397Z" fill="#53FF6E"/>
<path d="M61.65 41.29C66.48 41.29 66.48 33.79 61.65 33.79C56.82 33.79 56.82 41.29 61.65 41.29Z" fill="#53FF6E"/>
<path d="M64.2 56.8299C65.47 54.4099 67.7899 53.0699 69.8099 51.3499C72.1399 49.3699 74.0399 46.99 75.6699 44.42L68.82 41.5299C66.8 46.4299 66.9299 54.1999 61.5599 56.8499L67.07 61.0799L67.2499 59.8999C67.6699 57.1399 64.6699 53.43 61.7399 55.67C60.9199 56.3 60.21 56.8399 59.51 57.5999C56.25 61.1499 61.5399 66.4699 64.8099 62.8999L65.52 62.1399L60.01 57.91L59.83 59.0899C59.34 62.3499 62.23 64.8599 65.34 63.3199C73.12 59.4799 73.1299 50.5799 76.0499 43.5199C77.7299 39.4599 71.37 37.1899 69.2 40.6299C66.11 45.5199 60.3999 47.94 57.7299 53.05C55.4999 57.32 61.97 61.1199 64.21 56.8399L64.2 56.8299Z" fill="#53FF6E"/>
<path d="M61.58 78.7001C69.44 76.3901 75.94 71.3701 80.15 64.3401C82.64 60.1801 76.24 56.4802 73.67 60.5502C70.24 65.9902 68.85 76.2002 61.34 77.4002L65.95 82.0101L66.26 80.8002C66.93 78.1802 64.44 75.2201 61.65 76.1901C60.75 76.5001 59.92 76.8502 59.07 77.2802C55.19 79.2302 57.94 85.1401 61.96 84.1301L62.64 83.9601C67.32 82.7901 65.34 75.5501 60.65 76.7301L59.97 76.9002L62.86 83.7501L63.65 83.4202L59.04 78.8102L58.73 80.0202C57.96 83.0102 60.58 85.0801 63.34 84.6301C73.71 82.9701 75.45 71.7801 80.15 64.3301L73.67 60.5402C70.45 65.9202 65.6 69.6901 59.58 71.4601C54.96 72.8201 56.93 80.0601 61.57 78.6901L61.58 78.7001Z" fill="#53FF6E"/>
<path d="M61.25 101.14C61.64 100.58 62.75 100.39 63.34 100.18C64.59 99.7301 65.86 99.27 66.98 98.54C69.1 97.16 70.72 95.2801 72.27 93.3101L66.38 88.77C65.23 91.39 64.26 94.25 62.85 96.74C61.66 98.84 59.52 99.88 57.45 100.98C53.19 103.25 56.97 109.73 61.24 107.46C63.92 106.03 66.54 104.45 68.38 101.97C70.4 99.23 71.5 95.6601 72.86 92.5601C73.62 90.8301 73.49 88.95 71.89 87.72C70.56 86.69 68.12 86.54 66.97 88.01C65.22 90.23 63.66 92.13 60.94 93.09C58.22 94.05 56.37 95.07 54.78 97.36C52.01 101.33 58.51 105.08 61.26 101.15L61.25 101.14Z" fill="#53FF6E"/>
<path d="M54.73 130.3C56.54 129.49 58.17 128.32 59.63 126.98C61.09 125.64 61.08 123.01 59.63 121.68C58.08 120.26 55.87 120.26 54.33 121.68C54.25 121.76 53.57 122.45 53.49 122.41C53.51 122.42 54.1 121.98 53.59 122.33C53.4 122.46 53.21 122.59 53.02 122.72C52.36 123.15 51.67 123.51 50.95 123.83C49.15 124.64 48.59 127.38 49.6 128.96C50.8 130.82 52.81 131.17 54.73 130.31V130.3Z" fill="#53FF6E"/>
<path d="M61.26 122.82L63.73 120.5C65.16 119.15 65.19 116.54 63.73 115.2C62.27 113.86 59.95 113.76 58.43 115.2L55.96 117.52C54.53 118.87 54.5 121.48 55.96 122.82C57.42 124.16 59.74 124.26 61.26 122.82Z" fill="#53FF6E"/>
<path d="M53.9799 150.72C58.4099 147.43 62.0099 143.56 64.7599 138.76L57.77 136.87C57.56 139.81 58.0799 143.3 56.9699 146.11C55.8599 148.92 53.5099 150.73 51.4399 152.59L57.33 157.13C57.84 156.12 58.3399 155.1 58.8499 154.09C60.1499 151.47 57.9199 147.3 54.6199 148.58L53.5599 148.99L58.1699 151.61L58.0699 150.61C58.1099 147.57 53.7899 145.39 51.6699 147.96C50.0699 149.89 49.4199 151.51 49.1099 154C48.5199 158.78 56.0199 158.73 56.6099 154L56.9699 153.27L50.5699 150.62C50.5599 151.71 50.6699 152.55 50.9399 153.61C51.3999 155.43 53.6899 156.95 55.5499 156.23L56.6099 155.82L52.3799 150.31C51.8699 151.32 51.3699 152.34 50.8599 153.35C48.9599 157.16 53.5099 160.8 56.7499 157.89C59.5499 155.38 62.3 152.71 63.77 149.18C65.41 145.25 64.98 141.02 65.28 136.87C65.55 133.07 60.0599 131.88 58.2899 134.98C56.2099 138.61 53.5699 141.75 50.1999 144.25C46.3699 147.09 50.0999 153.61 53.9899 150.73L53.9799 150.72Z" fill="#53FF6E"/>
<path d="M57.28 172.17L57.1699 171.82L56.7899 174.71C57.1799 174.05 59.6699 173.25 60.3799 172.74C61.2799 172.1 62.0899 171.35 62.8199 170.51C64.5499 168.52 65.5899 166.07 65.9799 163.48C66.4899 160.12 63.5999 157.84 60.4699 159.25C57.3399 160.66 55.1899 165.02 54.1199 168.19C52.7799 172.19 53.61 176.79 51.46 180.5L58.3099 183.39C59.4899 179.98 61.7199 177.06 63.1299 173.75C64.5399 170.44 65.1999 166.94 65.3799 163.31C65.6099 158.49 58.1099 158.5 57.8799 163.31C57.5499 170.29 53.27 175.06 51.08 181.4C49.68 185.47 55.8399 187.92 57.9299 184.29C59.5599 181.47 60.0499 178.56 60.4299 175.37C60.7599 172.61 61.2499 167.08 64.2499 165.73L58.7399 161.5C58.1199 165.6 55.8199 166.43 52.7199 168.5C50.7599 169.81 49.2599 171.7 50.0399 174.17C51.4799 178.76 58.73 176.8 57.27 172.18L57.28 172.17Z" fill="#53FF6E"/>
<path d="M60.72 198.23C64.13 195.51 66.5 191.74 67.7 187.56L60.33 186.56C60.26 188.1 60.2 189.63 60.13 191.17C60.12 191.46 59.86 192.7 59.93 192.86L59.81 193.1C60.51 192.73 60.5 192.64 59.78 192.83C57.78 193.14 56.67 195.65 57.16 197.44C57.75 199.58 59.76 200.37 61.77 200.06C68.09 199.07 67.62 191.32 67.83 186.56C68.02 182.27 61.62 181.56 60.46 185.56C59.59 188.59 57.86 190.96 55.41 192.92C53.83 194.19 54.09 196.9 55.41 198.22C56.97 199.78 59.13 199.49 60.71 198.22L60.72 198.23Z" fill="#53FF6E"/>
<path d="M58.5 43.0797C55.91 41.8297 52.43 40.2797 50.57 37.9597C48.95 35.9297 48.96 32.7297 48.28 30.3197L42.77 34.5498C44.7 35.7898 45.95 37.7897 47.48 39.4497C49.01 41.1097 51.98 42.5098 52.36 44.9198C53.11 49.6698 60.33 47.6598 59.59 42.9298C58.98 39.0498 55.92 37.3398 53.37 34.7798C51.05 32.4598 49.36 29.8797 46.55 28.0697C43.74 26.2597 40.18 29.2398 41.04 32.2998C42.04 35.8598 42.28 39.5598 44.68 42.5598C47.08 45.5598 51.16 47.8398 54.7 49.5498C59.03 51.6398 62.83 45.1797 58.49 43.0697L58.5 43.0797Z" fill="#53FF6E"/>
<path d="M58.15 66.21C56.73 65.45 55.28 64.77 53.78 64.19C52.61 63.73 50.52 63.5101 49.59 62.6701C47.45 60.7401 47.39 56.04 47.5 53.46L41.86 56.7C43.24 57.58 43.68 59.3701 44.4 60.7401C45.12 62.1101 46.03 63.4901 47.18 64.6301C48.78 66.2101 51.93 67.54 52.81 69.7C53.9 72.38 58.09 73.8001 59.66 70.6001C61.42 67.0201 60.57 63.4701 57.97 60.5301C56.62 59.0001 55.07 57.6101 53.68 56.1101C53.03 55.4001 50.41 53.86 50.13 53.08C48.47 48.59 41.22 50.53 42.9 55.07C43.9 57.77 45.74 58.7201 47.68 60.6201C48.41 61.3401 53.53 66.1101 53.19 66.8101L60.04 67.71C58.55 64.04 55.94 62.3901 53.08 59.8701C49.87 57.0401 49.49 52.66 45.64 50.22C43.13 48.63 40.12 50.74 40 53.46C39.81 57.84 40.61 62.8201 43.12 66.5101C45.63 70.2001 50.55 70.66 54.36 72.69C58.62 74.96 62.41 68.49 58.15 66.21Z" fill="#53FF6E"/>
<path d="M53.0399 91.3004C52.7899 91.3604 50.58 86.3603 50.45 86.0903C49.48 83.9703 48.7599 81.8204 48.2899 79.5304L42.0199 83.1804C44.8899 86.4004 49.03 88.4703 50.38 92.7203C51.83 97.3003 59.0799 95.3503 57.6099 90.7303C56.7699 88.0903 55.59 85.5303 53.58 83.5703C51.57 81.6103 49.25 80.0403 47.32 77.8703C44.65 74.8903 40.3499 78.1103 41.0499 81.5203C41.9199 85.7603 43.77 89.7803 45.78 93.5903C47.67 97.1903 50.83 99.5803 55.02 98.5203C59.7 97.3403 57.72 90.1104 53.03 91.2904L53.0399 91.3004Z" fill="#53FF6E"/>
<path d="M50.59 108.1C47.85 107.6 44.77 107.2 43.03 104.8C41.18 102.25 40 98.9803 39.39 95.9203L33.12 99.5702C36.15 102.73 41.08 104.38 43.18 108.33C45.44 112.6 51.9199 108.81 49.6599 104.54C47.1199 99.7503 42.02 98.0103 38.43 94.2603C35.68 91.4003 31.47 94.4203 32.16 97.9103C32.99 102.09 34.89 106.63 37.58 109.98C40.27 113.33 44.4499 114.57 48.5999 115.33C53.3199 116.2 55.34 108.97 50.59 108.1Z" fill="#53FF6E"/>
<path d="M47.9999 134.65C40.2099 134.74 37.6699 126.28 37.2899 119.9L30.2999 121.79C33.6999 127.14 41.0699 130.43 42.6899 136.72C43.8999 141.39 51.1299 139.41 49.9199 134.73C47.9399 127.07 40.7299 124.23 36.7799 118.01C34.8999 115.05 29.5599 116 29.7899 119.9C30.4099 130.45 35.7499 142.3 47.9999 142.15C52.8199 142.09 52.8399 134.59 47.9999 134.65Z" fill="#53FF6E"/>
<path d="M50.58 163.45C44.48 162.24 43.08 153.72 41.64 148.67L34.79 151.56C36.05 154.2 38.12 155.96 40.12 158.01C42.33 160.29 43.58 162.78 44.23 165.88C45.21 170.6 52.44 168.6 51.46 163.89C50.79 160.67 49.48 157.68 47.48 155.07C45.48 152.46 42.67 150.7 41.27 147.77C39.42 143.89 33.27 146.64 34.42 150.66C36.65 158.49 39.33 168.85 48.59 170.68C53.3 171.61 55.32 164.38 50.58 163.45Z" fill="#53FF6E"/>
<path d="M54.86 190.91C52.52 188.48 50.15 186.42 47.11 184.91C43.42 183.07 42.85 179.23 42.17 175.5L35.9 179.15C37.69 181.45 38.69 184.21 40.98 186.13C41.99 186.98 43.13 187.58 44.36 188.03C45.48 188.44 47.59 188.45 48.24 189.59C50.62 193.79 57.0999 190.01 54.7199 185.8C53.0099 182.78 50.37 182.18 47.34 181.1C44.31 180.02 43.07 176.23 41.21 173.84C38.67 170.57 34.35 174.26 34.94 177.49C35.72 181.75 36.82 186.13 40.1 189.2C41.45 190.47 42.98 191.12 44.58 191.98C46.54 193.04 48.04 194.63 49.56 196.21C52.92 199.69 58.21 194.39 54.86 190.91Z" fill="#53FF6E"/>
</svg>
