<svg width="20" height="35" viewBox="0 0 20 35" fill="none" xmlns="http://www.w3.org/2000/svg">
<path d="M1.04 6.40949C2.44 10.4695 3.51001 16.1794 7.70001 18.3494C9.57001 19.3194 12.12 18.7095 13.34 20.6695C14.56 22.6295 13.93 28.7794 14.11 31.2294C14.34 34.4194 19.34 34.4494 19.11 31.2294C18.8 26.9694 19.88 19.0594 16.4 15.8594C15.01 14.5794 13.57 14.8595 11.92 14.3095C7.65001 12.8995 7.17001 8.8994 5.86001 5.0694C4.82001 2.0494 -0.00999779 3.33948 1.04 6.39948V6.40949Z" fill="#3A3A3A"/>
<path d="M0.490006 4.13025C1.62001 10.5102 2.42999 16.9102 2.92999 23.3702C3.05999 25.0202 4.42 26.1803 6.09 25.7803C7.59 25.4203 12.38 23.5903 13.5 24.4003C14.62 25.2103 14.51 30.2203 14.67 31.6403C15.02 34.8003 20.03 34.8403 19.67 31.6403C19.31 28.4403 20.02 21.7002 17.11 19.4802C14.2 17.2602 7.81999 20.2202 4.75999 20.9502L7.92 23.3602C7.39 16.4602 6.51 9.61029 5.3 2.80029C4.74 -0.359711 -0.0800042 0.980245 0.479996 4.13025H0.490006Z" fill="#3A3A3A"/>
<path d="M8.24001 21.5098C11.46 21.5098 11.46 16.5098 8.24001 16.5098C5.02001 16.5098 5.02001 21.5098 8.24001 21.5098Z" fill="#3A3A3A"/>
</svg>
