<svg width="36" height="18" viewBox="0 0 36 18" fill="none" xmlns="http://www.w3.org/2000/svg">
<path d="M3.18996 5.92098C6.78996 9.77098 10.72 13.1709 14.98 16.2609C16.29 17.2109 18.29 16.221 18.65 14.771C19.63 10.871 20.74 7.01099 21.98 3.18099L17.7999 4.28097C22.2599 8.40096 26.72 12.5109 31.19 16.6309C33.55 18.8109 37.1 15.2809 34.73 13.0909C30.27 8.9709 25.81 4.86093 21.34 0.740926C19.92 -0.569073 17.75 0.0209019 17.16 1.8409C15.92 5.6709 14.8099 9.52099 13.8299 13.431L17.5 11.9409C13.58 9.09088 10.03 5.91094 6.71996 2.38094C4.51996 0.0309412 0.989951 3.57098 3.17995 5.92098H3.18996Z" fill="#3A3A3A"/>
<path d="M19.6199 15.0008C20.9599 12.9708 22.2899 10.9308 23.5999 8.88083C25.3799 6.12083 21.1599 3.84081 19.2799 6.36081C18.0199 8.06081 16.4799 9.69078 14.5399 10.5808L16.4699 10.3308C12.6499 9.34078 8.92991 7.0208 5.35991 5.3508C2.45991 4.0008 -0.0800745 8.30087 2.83993 9.67087C5.17993 10.7709 7.51992 11.8608 9.86992 12.9608C11.5199 13.7308 13.5999 15.1408 15.4799 15.2008C18.8299 15.3108 21.8299 11.2708 23.5999 8.89084L19.2799 6.37082C17.9599 8.42082 16.6299 10.4508 15.2999 12.4908C13.5299 15.1908 17.8499 17.6908 19.6199 15.0108V15.0008Z" fill="#3A3A3A"/>
<path d="M6.43002 5.77053C6.39002 5.65053 6.36001 5.53053 6.33001 5.40053L6.42004 6.06056C6.40004 5.89056 6.40003 5.73057 6.41003 5.56056L6.32003 6.22048C6.34003 6.10048 6.50003 5.61054 6.32003 6.03054C6.22003 6.25054 6.21001 6.27048 6.30001 6.10048C6.44001 5.88048 6.38003 5.95056 6.13003 6.30056C6.78003 5.50056 7.07002 4.57045 6.65002 3.57045C6.29002 2.72045 5.34002 1.94054 4.37002 2.03054C3.40002 2.12054 2.65004 2.38053 1.95004 3.02053C1.33004 3.57053 0.970012 4.35054 0.860012 5.16054C0.620012 6.98054 1.76002 8.50048 3.43002 9.10048C4.66002 9.54048 6.22004 8.60048 6.51004 7.35048C6.83004 5.95048 6.08004 4.75053 4.76004 4.27053C5.03004 4.34053 5.26004 4.48056 5.45004 4.68056C5.32004 4.55056 5.34002 4.57051 5.49002 4.75051C5.63002 4.90051 5.73002 5.08055 5.77002 5.29055C5.74002 5.21055 5.73003 5.14056 5.72003 5.06056L5.81002 5.72048C5.81002 5.64048 5.81002 5.56049 5.81002 5.48049L5.72003 6.14052C5.78003 5.89052 5.72003 5.98053 5.57003 6.40053C5.70003 6.18053 5.64004 6.2605 5.39004 6.6205C5.03004 6.8705 4.96004 6.93056 5.17004 6.80056C4.75004 6.95056 4.66003 7.00045 4.91003 6.94045L4.25003 7.03054H4.37002C3.78002 5.60054 3.19003 4.17051 2.60003 2.75051C2.11003 3.35051 1.68003 3.97052 1.53003 4.76052C1.38003 5.55052 1.36002 6.34046 1.62002 7.08046C2.05002 8.31046 3.35004 9.26046 4.70004 8.83046C5.92004 8.43046 6.90004 7.08051 6.45004 5.75051L6.43002 5.77053Z" fill="#3A3A3A"/>
<path d="M4.07992 8.4707C7.29992 8.4707 7.29992 3.4707 4.07992 3.4707C0.859917 3.4707 0.859917 8.4707 4.07992 8.4707Z" fill="#3A3A3A"/>
</svg>
