<svg width="18" height="40" viewBox="0 0 18 40" fill="none" xmlns="http://www.w3.org/2000/svg">
<path d="M8.53997 1.31099L8.39997 1.17097V4.71089L8.60997 4.52095L4.67997 4.01094C4.54997 3.81094 3.45997 8.32088 3.47997 8.20088C3.11997 10.0009 2.77998 11.7909 2.45998 13.6009C1.80998 17.2009 1.23997 20.8209 0.719974 24.4409C0.459974 26.2509 1.77998 28.0809 3.79998 27.5209C7.36998 26.5209 10.92 25.9209 14.63 25.7509L12.22 22.5909C10.73 27.2309 9.23997 31.8809 7.74997 36.5209C6.75997 39.5909 11.59 40.9109 12.57 37.8509C14.06 33.2109 15.55 28.561 17.04 23.921C17.52 22.421 16.21 20.6809 14.63 20.7609C10.48 20.9509 6.46997 21.5809 2.46997 22.7109L5.54998 25.791C6.28998 20.661 7.13997 15.5409 8.13997 10.4509C8.60997 8.04088 10.58 3.83094 9.00997 1.51094C8.06997 0.130937 6.33998 -0.119073 5.07998 1.00093L4.86997 1.19087C3.84997 2.10087 3.96997 3.80091 4.86997 4.73091L5.00997 4.87092C7.25997 7.18092 10.8 3.64088 8.54998 1.33088L8.53997 1.31099Z" fill="#3A3A3A"/>
<path d="M6.69997 22.891C9.34997 22.711 11.96 22.801 14.57 23.281L12.82 20.201C12.04 23.511 11.25 26.821 10.44 30.121C9.67998 33.241 14.5 34.581 15.26 31.451C16.07 28.151 16.86 24.841 17.64 21.531C17.93 20.301 17.26 18.711 15.89 18.451C12.84 17.891 9.78998 17.671 6.68998 17.881C3.58998 18.091 3.46998 23.101 6.68998 22.881L6.69997 22.891Z" fill="#3A3A3A"/>
</svg>
