<svg width="14" height="31" viewBox="0 0 14 31" fill="none" xmlns="http://www.w3.org/2000/svg">
<path d="M7.80996 1.78107C6.19996 4.45107 4.62997 7.14104 3.13997 9.87104C2.13997 11.721 0.0299662 14.3311 0.0999662 16.5511C0.209966 20.1011 5.95997 21.941 8.53997 23.461L8.02996 19.5311C6.38996 21.5911 4.75996 23.651 3.11996 25.711C1.13996 28.201 4.64996 31.771 6.65996 29.251C8.29996 27.191 9.92997 25.131 11.57 23.071C12.56 21.831 12.58 20.0311 11.06 19.1411C8.97996 17.9211 6.09997 16.771 4.31997 15.111L4.95995 17.5411C5.77995 13.1111 9.80996 8.10108 12.12 4.29108C13.79 1.53108 9.46995 -0.988937 7.79995 1.77106L7.80996 1.78107Z" fill="#3A3A3A"/>
<path d="M7.94 2.41944C6.44 5.77944 3.85001 10.3994 4.01001 14.1694C4.06001 15.4694 4.57 16.4894 5.53 17.3594C7.04 18.7194 9.10001 18.0894 7.01001 20.2994C4.80001 22.6394 8.32999 26.1794 10.55 23.8394C12.77 21.4994 14.6 17.9394 11.72 15.2094C11.19 14.7094 10.4 14.5494 9.89001 14.0994C8.81001 13.1594 9.19999 14.8393 9.42999 12.5693C9.66999 10.1293 11.3 7.11935 12.27 4.94935C13.57 2.03935 9.26001 -0.510551 7.95001 2.42945L7.94 2.41944Z" fill="#3A3A3A"/>
</svg>
