<svg width="39" height="19" viewBox="0 0 39 19" fill="none" xmlns="http://www.w3.org/2000/svg">
<path d="M19.61 5.13006L19.77 4.89007L15.2001 2.96002C14.4201 6.13002 13.55 9.27006 12.59 12.3801L17.5 13.0401C17.37 10.5401 17.6701 8.20012 18.4201 5.81012L13.6 4.48004C13.19 7.25004 12.78 10.0201 12.37 12.7901C11.91 15.8901 16.49 17.3301 17.19 14.1201C17.79 11.3801 18.39 8.64008 18.99 5.90008L14.08 5.24005C14.39 7.67005 14.17 9.88011 13.34 12.1801C12.25 15.2101 17.08 16.5201 18.16 13.5101C19.12 10.8501 19.44 8.05005 19.08 5.24005C18.75 2.70005 14.8301 1.56001 14.1701 4.58001C13.5701 7.32001 12.97 10.0601 12.37 12.8001L17.19 14.1301C17.6 11.3601 18.0101 8.59 18.4201 5.82C18.8801 2.71 14.6 1.34005 13.6 4.49005C12.72 7.26005 12.35 10.1401 12.5 13.0401C12.65 15.9401 16.56 16.46 17.41 13.7C18.37 10.58 19.24 7.44009 20.02 4.28009C20.71 1.49009 16.9901 -0.0199678 15.4501 2.35003L15.2901 2.59002C13.5301 5.30002 17.86 7.81004 19.61 5.11004V5.13006Z" fill="#3A3A3A"/>
<path d="M2.24002 13.401C7.00002 15.831 11.91 17.451 17.22 18.201C19.22 18.481 20.6 17.141 20.3 15.121C20 13.101 19.87 11.231 20.02 9.28103C20.29 5.73104 20.73 6.53103 23.78 6.65103C27.95 6.82103 32.12 6.98103 36.29 7.15103V2.15103L35.19 2.17105C31.98 2.22105 31.97 7.22105 35.19 7.17105L36.29 7.15103C39.52 7.10103 39.5 2.28103 36.29 2.15103C32.44 2.00103 28.59 1.84095 24.74 1.69095C22.7 1.61095 18.88 0.681064 17.03 2.06106C13.67 4.59106 14.94 13.001 15.47 16.451L18.55 13.371C13.67 12.681 9.16004 11.321 4.76004 9.07095C1.90004 7.61095 -0.629983 11.921 2.24002 13.391V13.401Z" fill="#3A3A3A"/>
<path d="M18.1099 6.98995C18.2299 6.76995 18.37 6.55993 18.51 6.34993C18.67 6.09993 18.17 6.71998 18.48 6.39998C18.58 6.29998 18.6699 6.18992 18.7699 6.08992C18.8499 6.00992 18.93 5.92994 19.01 5.85994C19.32 5.58994 19.1599 5.82996 18.9599 5.87996C19.1799 5.82996 19.46 5.55001 19.67 5.43001C20.82 4.80001 21.29 3.12997 20.57 2.00997C19.8 0.819966 18.3999 0.479942 17.1499 1.10994C16.6799 1.34994 17.5999 1.00993 17.1199 1.09993C17.7799 0.979932 17.2999 1.06991 17.1199 1.07991C16.2899 1.07991 15.4799 1.28996 14.8699 1.87996C14.2599 2.46996 13.98 3.35996 13.63 4.12996C13.35 4.75996 13.19 5.36002 13.38 6.06002C13.54 6.64002 13.9899 7.27001 14.5299 7.55001C15.6199 8.13001 17.38 7.92998 17.95 6.64998C18.09 6.34998 18.2199 6.03995 18.3599 5.73995C18.4099 5.61995 18.4699 5.49996 18.5199 5.37996C18.5499 5.29996 18.59 5.21997 18.63 5.13997C18.79 4.81997 18.5899 5.01995 18.0499 5.73995L16.79 6.07991C17.3 6.03991 17.78 6.05991 18.29 5.94991C18.77 5.84991 19.2399 5.65 19.6799 5.42L17.16 1.09993C15.76 1.86993 14.5799 3.0499 13.7999 4.4399C13.1599 5.5799 13.49 7.21994 14.7 7.85994C15.91 8.49994 17.4399 8.17992 18.1199 6.95992L18.1099 6.98995Z" fill="#3A3A3A"/>
</svg>
