<svg width="89" height="77" viewBox="0 0 89 77" fill="none" xmlns="http://www.w3.org/2000/svg">
<g clip-path="url(#clip0_688_64010)">
<path d="M56.8396 4.4574C61.4706 6.81784 65.0492 10.146 67.5752 14.4408C70.1012 18.7372 71.364 23.773 71.364 29.5467C71.364 33.2096 70.5745 36.9779 68.9959 40.8506C67.4173 44.7241 65.2235 48.2104 62.4176 51.3087L42.4203 73.599C41.2974 74.7971 40.2449 75.6236 39.2627 76.081C38.2793 76.5384 37.0525 76.7679 35.579 76.7679C31.9297 76.7679 28.8429 75.2541 26.3169 72.2252L40.8413 56.8015C43.1566 56.239 45.2257 55.534 47.051 54.6886L46.5249 53.4212C43.578 54.8311 40.4548 55.534 37.1576 55.534C31.6847 55.534 26.8957 54.4611 22.7911 52.3117C18.6861 50.1644 15.5289 47.1355 13.3187 43.2271C11.1085 39.3179 10.0032 34.7595 10.0032 29.5459C10.0032 23.7722 11.2484 18.7364 13.7397 14.44C16.2293 10.1448 19.7914 6.81703 24.4225 4.45659C29.054 2.09896 34.4565 0.918945 40.6314 0.918945C46.8063 0.918945 52.2089 2.09896 56.8396 4.4574ZM28.3172 17.5042C25.2288 20.5331 23.6862 24.5474 23.6862 29.5467C23.6862 34.5461 25.2288 38.6852 28.3172 41.7482C31.4041 44.8119 35.5091 46.3438 40.6318 46.3438C45.7546 46.3438 49.7704 44.7955 52.8933 41.6952C56.0149 38.5977 57.5771 34.5481 57.5771 29.5467C57.5771 24.5454 56.0149 20.6202 52.8933 17.5572C49.7704 14.4934 45.6838 12.9615 40.6318 12.9615C35.5798 12.9615 31.4045 14.4765 28.3172 17.5042V17.5042Z" fill="#2B2A2B"/>
<path d="M87.5125 46.5781L59.3867 58.79C58.8247 59.0367 58.377 59.3806 58.0436 59.8207C57.7346 60.2284 57.5695 60.7038 57.5463 61.2463H76.1393L84.6831 57.8258C86.8074 56.9752 88.366 55.095 88.7685 52.8353C89.1659 50.6041 88.6894 48.5466 87.5377 46.6211C87.5305 46.6062 87.5225 46.5918 87.5125 46.5781V46.5781Z" fill="#2B2A2B"/>
<path d="M87.5125 75.9162L59.3867 63.7044C58.8247 63.4576 58.377 63.1138 58.0436 62.6736C57.7346 62.266 57.5695 61.7905 57.5463 61.248H76.1393L84.6831 64.6685C86.8074 65.5191 88.366 67.3993 88.7685 69.659C89.1659 71.8903 88.6894 73.9478 87.5377 75.8733C87.5305 75.8881 87.5225 75.9026 87.5125 75.9162V75.9162Z" fill="#2B2A2B"/>
<path d="M1.45641 46.5781L29.5822 58.79C30.1443 59.0367 30.592 59.3806 30.9254 59.8207C31.2344 60.2284 31.3995 60.7038 31.4226 61.2463H12.8296L4.28582 57.8258C2.16157 56.9752 0.602954 55.095 0.200409 52.8353C-0.196939 50.6041 0.279559 48.5466 1.43123 46.6211C1.43843 46.6062 1.44642 46.5918 1.45641 46.5781V46.5781Z" fill="#2B2A2B"/>
<path d="M1.45641 75.9162L29.5822 63.7044C30.1443 63.4576 30.592 63.1138 30.9254 62.6736C31.2344 62.266 31.3995 61.7905 31.4226 61.248H12.8296L4.28582 64.6685C2.16157 65.5191 0.602954 67.3993 0.200409 69.659C-0.196939 71.8903 0.279559 73.9478 1.43123 75.8733C1.43843 75.8881 1.44642 75.9026 1.45641 75.9162V75.9162Z" fill="#2B2A2B"/>
</g>
<defs>
<clipPath id="clip0_688_64010">
<rect width="88.8745" height="75.8498" fill="white" transform="translate(0.0627441 0.918945)"/>
</clipPath>
</defs>
</svg>
