<svg width="70" height="101" viewBox="0 0 70 101" fill="none" xmlns="http://www.w3.org/2000/svg">
<path d="M4.41003 5.73964C14.77 6.11964 25.13 6.49966 35.49 6.87966L51.03 7.44967L58.8 7.72966C61.03 7.80966 64.36 7.32967 66.46 8.13967L65.86 3.56966L65.7 3.64965C62.81 5.05965 65.34 9.36966 68.22 7.96966L68.38 7.88967C70.51 6.84967 69.59 4.01966 67.78 3.31966C63.89 1.80966 58.09 2.70964 53.94 2.54964C48.44 2.34964 42.93 2.14966 37.43 1.93966C26.42 1.53966 15.42 1.12966 4.41003 0.729665C1.19003 0.609665 1.20003 5.60966 4.41003 5.72966V5.73964Z" fill="#53FF6E"/>
<path d="M1.58003 4.76949C1.23003 34.6895 0.880024 64.5995 0.530024 94.5195C0.490024 97.7395 5.49002 97.7395 5.53002 94.5195C5.88002 64.5995 6.23003 34.6895 6.58003 4.76949C6.62003 1.54949 1.62003 1.54949 1.58003 4.76949Z" fill="#53FF6E"/>
<path d="M64.8099 6.79016C65.4499 37.1902 62.0199 67.4101 60.7399 97.7401C60.5999 100.96 65.5999 100.95 65.7399 97.7401C67.0199 67.4101 70.4499 37.2002 69.8099 6.79016C69.7399 3.58016 64.7399 3.57016 64.8099 6.79016Z" fill="#53FF6E"/>
<path d="M2.30999 98.5494C10.79 101.609 21.44 100.009 30.31 100.049C40.88 100.099 51.45 100.139 62.02 100.189C65.24 100.199 65.24 95.1994 62.02 95.1894C52.11 95.1494 42.2 95.0994 32.3 95.0594C27.68 95.0394 23.05 95.0194 18.43 94.9994C13.49 94.9794 8.35999 95.4294 3.64999 93.7294C0.619987 92.6394 -0.69 97.4694 2.32 98.5494H2.30999Z" fill="#53FF6E"/>
<path d="M11.21 12.0898C10.94 37.4698 10.67 62.8398 10.4 88.2198C10.37 91.4398 15.37 91.4398 15.4 88.2198C15.67 62.8398 15.94 37.4698 16.21 12.0898C16.24 8.8698 11.24 8.8698 11.21 12.0898Z" fill="#53FF6E"/>
<path d="M54.73 13.1201C54.37 37.6901 53.73 62.2601 52.83 86.8201C52.71 90.0401 57.71 90.0301 57.83 86.8201C58.73 62.2601 59.37 37.6901 59.73 13.1201C59.78 9.90008 54.78 9.90008 54.73 13.1201Z" fill="#53FF6E"/>
<path d="M13.7301 14.1298C27.9201 13.6898 42.2101 14.4698 56.4001 14.7498C59.6201 14.8098 59.6201 9.80978 56.4001 9.74978C42.2101 9.46978 27.9201 8.68978 13.7301 9.12978C10.5201 9.22978 10.5101 14.2298 13.7301 14.1298Z" fill="#53FF6E"/>
<path d="M14.6401 90.8799C27.9401 90.8999 41.2401 90.8499 54.5301 90.7199C57.7501 90.6899 57.7501 85.6899 54.5301 85.7199C41.2301 85.8499 27.9301 85.8999 14.6401 85.8799C11.4201 85.8799 11.4201 90.8699 14.6401 90.8799Z" fill="#53FF6E"/>
<path d="M61.62 48.1597C60.14 48.1297 58.77 49.1697 58.36 50.5897C57.88 52.2597 58.83 53.8597 60.43 54.3897C62.64 55.1297 65.2 53.3397 65.19 50.9997C65.19 49.4797 63.95 48.3097 62.59 47.8597C61.54 47.5097 60.36 47.6697 59.41 48.2297C57.06 49.6097 57.17 53.1497 59.36 54.5797C61.55 56.0097 64.86 54.2097 64.87 51.5597C64.88 48.9097 61.84 47.3897 59.6 48.3397C57.18 49.3597 56.8 52.4497 58.42 54.3397C60.04 56.2297 63.38 55.6497 64.46 53.4397C65.15 52.0197 64.95 50.3597 63.82 49.2097C62.87 48.2397 61.36 47.7997 60.05 48.1997C58.53 48.6697 57.65 49.9897 57.49 51.5197C57.44 51.9897 57.51 52.4797 57.66 52.9297C57.95 53.8097 58.47 54.3597 59.2 54.9097C59.68 55.2797 60.57 55.3097 61.13 55.1597C61.71 54.9997 62.34 54.5497 62.62 54.0097C62.93 53.4297 63.08 52.7297 62.87 52.0797C62.66 51.4297 62.27 50.9997 61.72 50.5897C61.97 50.7197 62.16 50.9097 62.3 51.1497C62.45 51.5597 62.5 51.6697 62.44 51.4797C62.38 51.2797 62.4 51.4097 62.47 51.8597C62.47 51.7797 62.47 51.6997 62.47 51.6297L62.42 52.0597C62.5 51.8197 62.46 51.9097 62.3 52.3397C62.02 52.6697 61.95 52.7597 62.08 52.6197C62.22 52.4797 62.12 52.5597 61.8 52.8297C61.55 52.9797 61.29 53.0497 61 53.0397H61.12C60.66 52.9597 60.56 52.9497 60.81 53.0197C60.43 52.8397 60.32 52.7997 60.49 52.8997C60.65 52.9997 60.57 52.9297 60.23 52.6897C60.4 52.8797 60.35 52.7997 60.07 52.4697L59.92 52.0897C59.98 52.3397 59.97 52.2397 59.88 51.7897C59.86 51.5797 59.91 51.3797 60.01 51.1897C60.11 50.9697 60.12 50.9497 60.02 51.1197C60.29 50.7897 60.34 50.7197 60.15 50.8997L60.45 50.6597C60.86 50.5097 60.94 50.4797 60.69 50.5497C60.9 50.4797 61.1 50.4797 61.31 50.5297C61.56 50.5797 61.58 50.5797 61.39 50.5297C61.67 50.5997 61.91 50.7397 62.11 50.9397C61.81 50.6597 62.44 51.4697 62.23 51.0897C62.39 51.4997 62.43 51.6097 62.38 51.4197C62.33 51.2197 62.34 51.3497 62.42 51.7997C62.48 51.3497 62.39 51.8297 62.36 52.0097C62.43 51.7697 62.39 51.8597 62.23 52.2897C61.95 52.6197 61.87 52.7097 62.01 52.5697C62.15 52.4297 62.06 52.5097 61.73 52.7897C61.32 52.9397 61.2 52.9897 61.39 52.9397C61.59 52.8897 61.46 52.9097 61 52.9897C61.26 52.9897 61.15 52.9797 60.68 52.9297L60.79 52.9597C61.03 53.0397 60.94 52.9997 60.51 52.8397C60.89 53.0397 60.05 52.4397 60.36 52.7297C60.15 52.5297 60.01 52.2897 59.94 52.0197V51.0297C60.15 50.6197 60.19 50.5197 60.07 50.7497C60.16 50.5597 60.3 50.4097 60.48 50.2997C60.68 50.1597 60.7 50.1397 60.54 50.2397C60.96 50.0797 61.05 50.0397 60.81 50.1197L61.24 50.0597C60.98 50.0597 61.08 50.0597 61.56 50.1097C61.97 50.2197 62.29 50.4897 62.51 50.8397C62.27 50.4697 62.7 51.4097 62.59 50.9997C62.64 51.4697 62.66 51.5697 62.66 51.3097C62.58 51.7497 62.57 51.8797 62.62 51.6797C62.68 51.4897 62.62 51.5997 62.48 51.9997C62.61 51.7897 62.56 51.8597 62.3 52.2297L61.99 52.4697C61.57 52.6197 61.49 52.6597 61.73 52.5797C61.29 52.6197 61.17 52.6397 61.37 52.6297C61.57 52.6297 61.45 52.6097 61.02 52.5697C61.1 52.5897 61.18 52.6097 61.26 52.6397L60.89 52.4897C61.1 52.6297 61.04 52.5697 60.68 52.3197C60.43 51.9697 60.38 51.8997 60.52 52.1097L60.18 50.8497C60.21 51.1797 60.25 50.5197 60.26 50.4897C60.27 50.4597 60.57 49.9097 60.39 50.1697C60.4 50.1497 60.82 49.6897 60.58 49.8997L60.92 49.6397C60.76 49.7297 60.8 49.7197 61.03 49.6097C61.43 49.4397 61.18 49.5497 61.08 49.5697C60.8 49.6297 61.72 49.4997 61.44 49.5097C61.31 49.5097 61.37 49.5097 61.62 49.5397C61.78 49.5397 61.92 49.5697 62.06 49.6497C62.21 49.6897 62.33 49.7597 62.44 49.8697C62.63 50.0397 62.66 50.0497 62.54 49.9297L63.18 51.0297C63.44 52.0097 62.66 53.1297 61.62 53.1097C62.93 53.1297 64.18 51.9397 64.12 50.6097C64.06 49.2797 63.02 48.1397 61.62 48.1097V48.1597Z" fill="#53FF6E"/>
<path d="M17.0099 28.3499C21.5099 23.7399 25.9999 19.1399 30.4999 14.5299C31.6199 13.3799 29.8599 11.6099 28.7299 12.7599L15.2399 26.5799C14.1199 27.7299 15.8799 29.4999 17.0099 28.3499Z" fill="#53FF6E"/>
<path d="M15.5299 53.1495C26.9699 41.9195 38.1699 30.4595 49.1199 18.7595C50.2199 17.5895 48.4499 15.8095 47.3499 16.9895C36.3999 28.6895 25.1999 40.1495 13.7599 51.3795C12.6099 52.5095 14.3799 54.2795 15.5299 53.1495Z" fill="#53FF6E"/>
<path d="M15.3901 63.5595C22.8301 56.1795 29.8201 48.3895 36.3601 40.1895C37.3501 38.9395 35.6001 37.1595 34.5901 38.4195C28.0501 46.6195 21.0601 54.3995 13.6201 61.7895C12.4801 62.9195 14.2401 64.6895 15.3901 63.5595Z" fill="#53FF6E"/>
<path d="M27.21 61.0195C34.99 53.1395 42.52 45.0395 49.82 36.7095C50.88 35.4995 49.12 33.7295 48.05 34.9395C40.75 43.2595 33.21 51.3695 25.44 59.2495C24.31 60.3995 26.08 62.1695 27.21 61.0195Z" fill="#53FF6E"/>
<path d="M32.52 86.9701C37.03 81.0601 42.11 75.6501 47.69 70.7401C48.9 69.6701 47.13 67.9101 45.92 68.9701C40.17 74.0301 35 79.6201 30.36 85.7101C29.38 86.9901 31.55 88.2401 32.52 86.9701Z" fill="#53FF6E"/>
</svg>
