<svg width="182" height="257" viewBox="0 0 182 257" fill="none" xmlns="http://www.w3.org/2000/svg">
<rect x="76.3076" y="152.49" width="65.4494" height="21.9638" transform="rotate(16.6894 76.3076 152.49)" fill="white"/>
<path d="M86.3503 59.8758C84.8303 64.1058 83.5102 68.2658 83.0102 72.7558C82.7402 75.1858 86.6603 76.2158 87.6703 74.0158C89.5403 69.9258 91.2502 65.7758 92.7602 61.5458L87.9402 60.2158C86.5002 64.3858 85.3703 68.6158 84.5403 72.9558C84.1003 75.2658 86.8803 77.3258 88.7203 75.3858C92.2903 71.6158 93.4903 65.3657 94.9603 60.5357L90.0502 59.8758C89.7802 64.9458 89.2303 69.9658 88.3603 74.9758C87.8703 77.8158 91.2302 79.2357 92.9302 76.9057C96.0802 72.5857 96.7203 66.1457 97.8603 61.0357C98.5603 57.9057 93.8303 56.5758 93.0403 59.7058C91.7203 64.9258 90.4003 70.1458 89.0803 75.3658C88.4103 77.9958 92.4203 79.9558 93.6503 77.2958C94.7403 74.9258 95.5903 72.5658 96.1603 70.0158C96.8603 66.8858 92.0403 65.5458 91.3403 68.6858C90.8703 70.8058 90.2403 72.8057 89.3303 74.7757L93.9003 76.7058C95.2203 71.4858 96.5403 66.2658 97.8603 61.0458L93.0403 59.7158C92.0103 64.3258 91.4502 70.5058 88.6202 74.3858L93.1902 76.3158C94.1302 70.8758 94.7602 65.4058 95.0502 59.8858C95.2102 56.9958 90.9402 56.5958 90.1402 59.2258C88.9702 63.0658 88.0002 68.8958 85.1802 71.8658L89.3603 74.2958C90.1903 69.9658 91.3202 65.7258 92.7602 61.5558C93.8202 58.4958 89.0202 57.2258 87.9402 60.2258C86.5702 64.0558 85.0503 67.8058 83.3503 71.4958L88.0102 72.7558C88.4502 68.7558 89.8203 64.9658 91.1703 61.2058C92.2603 58.1758 87.4303 56.8658 86.3503 59.8758Z" fill="#FCFCFC"/>
<path d="M84.9803 40.6446L85.4703 36.8246C85.8303 34.0546 82.0803 33.8646 80.8103 35.5646C78.5403 38.5946 77.5803 41.7946 77.6503 45.5746C77.6803 47.4346 79.7603 48.7347 81.4103 47.7347C85.4303 45.3147 89.5103 37.6446 86.0803 33.4346C85.5203 32.7446 84.4503 32.5946 83.6503 32.7946C78.8403 33.9446 77.4503 44.4446 81.3503 47.2746C87.1103 51.4646 91.1203 41.1746 91.1203 37.0346C91.1203 34.7546 88.4403 33.8847 86.8503 35.2647C83.9403 37.8047 83.3703 42.0146 82.8803 45.6646C82.4903 48.5346 81.2303 54.0847 83.8303 56.3747C90.2103 61.9847 93.5903 47.3446 93.5103 43.7846C93.4703 41.9546 91.4003 40.5847 89.7503 41.6247C85.0803 44.5747 82.5803 58.4647 87.5103 61.8747C88.2503 62.3847 89.2903 62.2747 90.0303 61.8747C94.8503 59.2747 96.9003 53.0246 97.4203 47.9446C97.6703 45.4746 93.8403 44.5446 92.7603 46.6846C90.6403 50.8646 89.6803 55.0647 89.9003 59.7547C90.0103 62.0147 92.5103 62.9346 94.1703 61.5246C98.3503 57.9646 100.5 53.4247 100.98 47.9847C101.21 45.4247 97.5103 44.7047 96.3203 46.7247C94.6703 49.5347 90.2603 58.4146 95.0203 60.5446C99.7803 62.6746 103.06 54.3246 104.08 51.2746C105.01 48.5246 100.96 46.9947 99.5103 49.3447C97.7003 52.2947 94.7403 57.7747 97.8103 60.7447C98.6703 61.5747 99.8003 61.6147 100.84 61.1347C104.06 59.6447 105.71 55.7147 106.42 52.4547C106.99 49.8347 103.15 47.8446 101.85 50.5246C100.45 53.4346 99.8003 56.0947 99.9003 59.3347C99.9703 61.6147 102.53 62.4847 104.17 61.1047C107.26 58.4947 107.82 54.8247 108.08 50.9747C108.29 47.7647 103.29 47.7747 103.08 50.9747C102.91 53.5547 102.72 55.8046 100.64 57.5746L104.91 59.3447C104.84 57.0447 105.16 55.1646 106.18 53.0546L101.61 51.1247C101.18 53.0947 100.38 55.8646 98.3303 56.8146L101.36 57.2047C101.01 56.8647 103.48 52.4547 103.84 51.8647L99.2703 49.9346C98.8803 51.3046 98.3003 52.5846 97.5403 53.7746C95.4303 55.8946 95.3103 56.3847 97.1703 55.2547C98.3503 55.0547 98.8903 54.3246 98.8103 53.0746C99.2503 51.7146 99.8703 50.4347 100.65 49.2347L95.9903 47.9747C95.6303 52.0847 93.7603 55.3247 90.6403 57.9847L94.9103 59.7547C94.7303 55.9347 95.3603 52.6247 97.0903 49.2147L92.4303 47.9547C92.0903 51.2247 90.6603 55.8746 87.5103 57.5746H90.0303C88.9603 56.8346 91.1303 46.6747 92.2703 45.9547L88.5103 43.7946C88.5703 46.4046 87.3603 48.2647 87.1603 50.7147L87.4903 52.8547C87.4503 51.9547 87.4503 51.0546 87.4903 50.1546C87.5903 46.9146 87.7103 41.1346 90.3803 38.8046L86.1103 37.0346C86.1103 38.4246 86.1503 40.8647 84.7403 41.6047C82.9803 42.5147 85.2403 37.5547 84.9703 37.6147L82.5403 36.9747C82.2403 36.6047 81.8203 38.8346 81.7203 39.1946C81.2103 40.9946 80.6403 42.3646 78.8903 43.4246L82.6503 45.5847C82.6003 42.6447 83.3703 40.4447 85.1303 38.1047L80.4703 36.8447L79.9803 40.6646C79.5703 43.8446 84.5703 43.8146 84.9803 40.6646V40.6446Z" fill="#FCFCFC"/>
<path d="M88.9703 30.8156C89.2503 29.5856 89.2803 28.3556 89.0603 27.1156C88.8503 24.3756 84.9903 23.6356 84.1503 26.4556C83.4503 28.7856 83.0503 31.0756 82.8303 33.4856C82.5903 36.0956 86.2703 36.6956 87.4903 34.7456C90.0903 30.6056 92.9703 24.5856 89.3403 20.3456C88.2403 19.0656 86.2203 19.5956 85.4103 20.8556C83.6103 23.6656 82.2803 26.9856 83.1203 30.3156C83.3203 31.1056 84.0403 31.9056 84.8703 32.0656C90.3103 33.0856 94.0603 25.5956 94.4603 21.0456C94.6303 19.1656 94.4203 16.7456 92.1903 16.1656C89.7503 15.5256 88.2603 18.0656 87.3203 19.8256C85.4603 23.2856 82.1603 32.8556 88.1203 34.3656C94.6003 36.0056 97.9403 25.2556 98.0203 20.7856C98.0603 18.4356 94.4203 17.2156 93.3603 19.5256C91.0303 24.5956 89.3403 29.8156 88.5803 35.3656C88.0503 39.2356 86.8503 44.7056 89.6403 47.9056C90.2403 48.5956 91.2403 48.7356 92.0703 48.5456C95.8603 47.7156 97.1103 43.1856 98.4203 39.9356C100.38 35.0556 101.48 30.0156 102.07 24.8056C102.35 22.3256 98.4903 21.4156 97.4103 23.5456C95.0303 28.2456 93.3403 33.1556 92.6703 38.3955C92.2703 41.5455 91.2503 47.0556 94.8003 48.9256C102.65 53.0556 105.33 34.7056 105.46 30.4756C105.55 27.5856 101.38 27.1756 100.55 29.8156C98.7103 35.6356 97.8803 41.5156 98.0303 47.6156C98.0903 50.2556 101.27 50.8057 102.69 48.8757C104.95 45.7957 106.35 42.5157 107.01 38.7557C107.48 36.0957 103.94 34.2256 102.44 36.8256C100.77 39.7256 97.0403 47.9656 101.1 50.5756C105.16 53.1856 111.98 42.9666 113 40.2866L104.08 42.1056C103.56 43.6256 103.1 45.1456 102.68 46.6956L107.59 47.3556C108.17 42.9056 112.94 43.1357 112 38.7557C111.43 36.1157 109.64 29.1756 110 26.4556C110.19 25.0456 110.84 19.6756 110.5 18.2756C110.25 17.2456 107.05 17.4595 105.98 17.4995L103.99 13.9995C102.55 14.0595 101.09 22.0256 100.97 23.4256L100.94 23.8156C100.67 27.0656 105.55 26.9356 105.94 23.8156C106.97 15.6056 95.3103 15.0856 96.5103 22.9156C96.7103 24.2456 98.4103 24.9956 99.5903 24.6656C104.61 23.2356 103.73 17.1757 99.4003 15.3857C95.7303 13.8657 90.4003 16.5756 93.0003 21.0656C95.2803 24.9956 104.43 20.4061 103.99 16.1661C103.37 10.1461 93.1803 13.7456 91.4403 18.1456C90.2603 21.1356 95.0903 22.4356 96.2603 19.4756L98.2603 19.8556L101.34 21.6056L100.95 23.8356H105.95L105.98 23.4456L103.48 25.9456L103.99 25.9256L101.58 24.0856C101.45 23.5456 100.9 27.5156 100.9 27.6756C100.88 29.5256 101.28 31.3556 101.65 33.1556C102.65 38.0356 103.25 42.3956 102.6 47.3656C102.23 50.2056 106.79 50.6856 107.51 48.0256C107.93 46.4756 108.39 44.9656 108.91 43.4356C109.96 40.3556 105.22 39.1456 104.09 42.1056C104.04 42.2256 102.66 46.0656 101.96 46.2056L104.39 46.8456C103.33 45.6856 106.11 40.4856 106.76 39.3556L102.19 37.4256C101.6 40.7956 100.39 43.5956 98.3703 46.3556L103.03 47.6156C102.89 41.9556 103.67 36.5455 105.37 31.1455L100.46 30.4856C100.38 33.1356 100.07 35.7556 99.2703 38.2856C98.8203 39.7256 97.48 36.8656 97 38.2856C96.52 39.7056 97.1203 44.6657 97.3203 42.8757C98.0003 36.8157 98.9503 31.5956 101.74 26.0756L97.0803 24.8156C96.7103 28.0956 96.0703 31.3256 95.0903 34.4756C94.4803 36.4356 92.9303 43.2456 90.7503 43.7256L93.1803 44.3656C92.6703 43.7756 93.1403 39.8756 93.1903 39.1556C93.3403 37.0656 93.6303 34.9956 94.0503 32.9456C94.8203 29.1656 96.0803 25.5456 97.6903 22.0556L93.0303 20.7956C93.0003 22.4756 92.7803 23.9557 92.0703 25.4957C91.9003 25.8657 90.0903 29.2456 89.8103 29.2056C89.4503 29.1556 91.3203 21.2557 92.2003 21.0057L89.7703 20.3656C90.1703 20.7356 87.0903 27.4357 86.2103 27.2657L87.9603 29.0157C87.4803 27.1057 88.7703 24.9256 89.7503 23.4056L85.8203 23.9156C87.3603 25.7156 84.0503 30.8957 83.1903 32.2657L87.8503 33.5256C88.0403 31.4856 88.4103 29.7656 88.9903 27.8256L84.0803 27.1656C84.3003 28.4056 84.2703 29.6356 83.9903 30.8656C83.5903 34.0456 88.6003 34.0256 88.9903 30.8656L88.9703 30.8156Z" fill="#FCFCFC"/>
<path d="M10.5903 151.326L11.0103 150.246L6.83029 147.816C6.11029 150.006 5.28031 152.106 4.29031 154.196C2.91031 157.096 6.80032 159.416 8.61032 156.716C12.6203 150.726 17.5103 145.586 23.3403 141.336L20.3103 137.406C14.8803 141.916 10.3003 147.116 6.42031 153.006C4.62031 155.736 8.88026 158.086 10.7403 155.526C19.0803 144.056 32.3903 136.356 43.6903 128.126C46.2503 126.266 44.0603 122.256 41.1703 123.806C35.3703 126.916 29.6003 130.086 23.8603 133.316L26.3803 137.636C33.1203 133.646 40.1203 130.316 47.4903 127.666L45.5603 123.096C41.3403 125.926 37.1203 128.746 32.9003 131.576C30.2503 133.346 32.6503 137.586 35.4203 135.896C39.0503 133.676 42.7403 131.996 46.8203 130.746C49.8903 129.806 48.5803 124.976 45.4903 125.926C41.0403 127.286 36.8703 129.146 32.9003 131.576L35.4203 135.896C39.6403 133.066 43.8603 130.246 48.0803 127.416C50.3003 125.936 48.9703 121.836 46.1503 122.846C38.3803 125.646 30.9503 129.106 23.8403 133.326C21.0703 134.966 23.5503 139.226 26.3603 137.646C32.0903 134.406 37.8603 131.236 43.6703 128.136L41.1503 123.816C29.0903 132.606 15.3103 140.766 6.40029 153.016L10.7203 155.536C14.3703 149.986 18.7203 145.196 23.8203 140.946C25.9803 139.146 23.0903 135.346 20.7903 137.016C14.2503 141.786 8.77029 147.456 4.27029 154.186L8.5903 156.706C9.7703 154.226 10.7803 151.746 11.6403 149.136C12.3903 146.856 9.05029 144.756 7.46029 146.706C6.47029 147.916 6.10028 148.456 5.76028 149.996C5.06028 153.126 9.88029 154.466 10.5803 151.326H10.5903Z" fill="#FCFCFC"/>
<path d="M78.3002 153.636L77.7403 153.356C77.0003 152.986 75.9403 152.816 75.2203 153.356C70.9203 156.586 72.5303 163.676 73.8803 168.126C74.5503 170.356 77.1903 170.386 78.4503 168.726C81.4203 164.816 82.6603 160.416 82.2203 155.526C81.9803 152.906 77.9503 151.906 77.3103 154.866C76.4003 159.076 75.6803 171.466 82.4603 171.646C88.6803 171.816 88.9703 158.486 89.2603 154.296C89.4803 151.076 84.5103 151.106 84.2603 154.296C83.8003 160.256 84.3603 165.996 85.9003 171.766C86.6003 174.366 89.8403 173.896 90.7203 171.766C92.8003 166.736 93.3603 161.466 93.8203 156.096H88.8203C88.3803 162.546 89.0603 168.796 90.8203 175.006C91.5503 177.576 94.7503 177.166 95.6403 175.006C97.8803 169.576 98.1903 163.886 98.3403 158.076H93.3403C93.7803 163.386 94.5403 168.636 95.6203 173.856C96.0403 175.896 98.4502 176.006 99.8002 174.956C103.97 171.726 103.26 162.946 103.84 158.286H98.8403C98.6003 163.616 99.0603 168.796 100.15 174.006C100.68 176.536 104.28 176.236 104.97 174.006C106.63 168.626 107.59 163.196 107.93 157.576H102.93C103.02 162.126 103.53 166.556 104.45 171.016C105 173.706 108.43 173.046 109.27 171.016C111.08 166.676 112.4 162.266 113.28 157.646L108.37 156.986C108.07 160.846 108.14 164.606 108.58 168.456C108.86 170.856 111.81 171.936 113.24 169.716C115.62 166.026 117.19 162.186 118.05 157.876L113.14 157.216C113.08 159.516 113.03 161.826 112.97 164.126L116.13 161.716C104.39 158.696 93.2703 165.296 81.5303 163.836L83.9403 166.996C84.3303 166.046 86.8702 165.346 87.5502 164.076C88.1702 162.916 88.4403 161.456 87.7903 160.236C86.0003 156.836 82.4403 159.036 80.8603 161.166C79.1403 163.486 82.8303 166.146 84.7903 164.196C85.9303 163.056 86.5603 161.986 86.8803 160.416C87.3403 158.186 85.2103 156.656 83.2103 157.596C80.9403 158.656 79.6703 159.886 77.1003 160.046C75.4803 160.146 74.4503 159.766 72.9203 160.616C69.5403 162.486 69.3003 166.426 69.6103 169.846C69.8503 172.446 73.9303 173.486 74.5203 170.506C75.1803 167.196 74.8003 164.446 73.0403 161.526C72.2703 160.256 70.1703 159.746 69.1103 161.016C67.2503 163.256 66.6703 165.326 67.3603 168.206C67.9403 170.586 71.6103 170.596 72.1803 168.206C72.6103 166.406 72.6903 165.856 72.7103 164.006C72.7403 161.236 68.4102 160.536 67.8002 163.346C64.7102 177.616 83.1603 176.746 87.9703 186.176L91.3903 182.756C87.0803 180.116 82.7603 177.476 78.4503 174.826C76.0203 173.336 73.4103 176.746 75.4203 178.756C79.2903 182.616 83.1603 186.476 87.0303 190.336C89.0903 192.396 92.2303 189.796 90.9603 187.306L82.8903 171.556L78.5703 174.076C82.0003 178.966 85.8003 183.486 90.0603 187.666C91.7203 189.296 95.1903 187.666 94.2403 185.236C92.4103 180.556 90.2003 176.126 87.4903 171.896C85.7403 169.176 81.7403 171.546 83.1703 174.416C85.6103 179.326 88.8003 183.606 92.7803 187.366C94.6303 189.116 97.5003 187.366 96.9603 184.936C96.1603 181.356 95.1202 177.906 93.8002 174.476L89.2303 176.406C91.1603 180.586 93.5803 184.356 96.4803 187.936C98.2303 190.086 101.02 187.666 100.66 185.506C100.05 181.856 99.1703 178.326 98.0103 174.806C97.0103 171.776 92.2903 173.016 93.1903 176.136C94.3303 180.096 96.1802 183.466 98.8002 186.636C100.57 188.776 103.32 186.366 102.98 184.206C102.31 180.016 101.31 176.016 99.9103 172.016C98.8403 168.956 94.5303 170.186 95.0903 173.346C95.9603 178.286 97.5603 182.876 99.8503 187.316C100.96 189.476 104.67 188.516 104.51 186.056C104.22 181.706 103.72 177.386 103.03 173.076L98.2103 174.406C99.4303 179.386 101.09 184.166 103.12 188.866C104.15 191.256 107.75 189.896 107.78 187.606C107.85 182.196 107.4 176.886 106.51 171.556L101.69 172.886C102.88 177.496 104.08 182.116 105.27 186.726C105.85 188.976 109.69 189.236 110.09 186.726C110.82 182.156 111.12 177.646 110.88 173.016H105.88C106.29 177.046 107.02 180.896 108.19 184.776C108.85 186.966 112.56 187.336 113.01 184.776C113.8 180.266 114.58 175.756 115.37 171.246L110.46 170.586C110.8 173.546 111.34 176.386 112.21 179.246C112.95 181.686 116.23 181.546 117.03 179.246C118.14 176.036 119.02 172.796 119.68 169.456L114.77 168.796C115.05 172.916 115.32 177.036 115.6 181.146C115.78 183.856 119.76 184.666 120.51 181.806C121.26 178.946 121.99 176.206 122.73 173.406L117.82 172.746C118.13 176.056 118.45 179.376 118.76 182.686C119.03 185.556 122.62 186.006 123.67 183.346C124.87 180.296 126.07 177.256 127.26 174.206L122.35 173.546C122.5 176.696 122.65 179.836 122.8 182.986C122.94 185.836 126.79 186.336 127.71 183.646C128.8 180.456 129.89 177.266 130.97 174.086L126.06 173.426C125.96 176.446 126.03 179.416 126.27 182.426C126.45 184.636 129.8 186.156 130.93 183.686C131.61 182.206 132.29 180.726 132.97 179.236L128.4 178.636C128.75 180.416 129.11 182.196 129.46 183.986C129.9 186.206 132.95 186.276 134.03 184.586C135.25 182.676 135.71 181.056 135.93 178.816L131.27 180.076C133.03 183.966 139.12 184.256 141.74 180.866C145.37 176.166 137.24 173.506 134.34 172.036C132.39 171.046 130.14 172.676 130.67 174.856C131.2 177.036 132.13 178.596 133.8 180.026C135.47 181.456 139.03 180.126 137.98 177.596C134.27 168.626 126.95 162.146 117.41 160.016C114.28 159.316 112.94 164.116 116.08 164.836L119.99 165.736C121.88 166.176 124.24 163.926 122.81 162.066C121.05 159.766 118.63 158.666 116.69 161.516C114.87 164.186 119.21 166.686 121.01 164.036L121.35 163.546L119.19 164.786H119.85C119.13 164.366 118.41 163.956 117.69 163.536L118.49 164.586L121.31 160.916L117.4 160.016L116.07 164.836C123.78 166.566 130.1 171.556 133.15 178.926L137.33 176.496C136.24 175.806 135.63 174.816 135.49 173.536L131.82 176.356C133.28 177.096 137.31 178.296 138.02 179.876V177.356C137.55 178.166 136.74 178.236 135.6 177.566C134.47 175.066 131.16 176.656 130.94 178.826L129.72 182.076L134.29 182.676C133.94 180.896 133.58 179.116 133.23 177.326C132.83 175.306 129.55 174.796 128.66 176.726C127.98 178.206 127.3 179.686 126.62 181.176L131.28 182.436C131.04 179.426 130.97 176.456 131.07 173.436C131.17 170.416 127.04 170.196 126.16 172.776C125.07 175.966 123.98 179.156 122.9 182.336L127.81 182.996C127.66 179.846 127.51 176.706 127.36 173.556C127.22 170.626 123.46 170.316 122.45 172.896C121.25 175.946 120.05 178.986 118.86 182.036L123.77 182.696C123.46 179.386 123.14 176.066 122.83 172.756C122.58 170.096 118.68 169.196 117.92 172.096C117.16 174.996 116.44 177.696 115.7 180.496L120.61 181.156C120.33 177.036 120.06 172.916 119.78 168.806C119.6 166.166 115.45 165.206 114.87 168.146C114.21 171.486 113.33 174.716 112.22 177.936H117.04C116.3 175.506 115.76 173.136 115.47 170.606C115.18 168.076 111.09 166.906 110.56 169.946C109.77 174.456 108.99 178.966 108.2 183.476H113.02C111.98 180.026 111.25 176.626 110.88 173.036C110.56 169.896 105.71 169.766 105.88 173.036C106.09 177.216 105.93 181.276 105.26 185.416H110.08C108.89 180.806 107.69 176.186 106.5 171.576C105.68 168.406 101.16 169.796 101.68 172.906C102.5 177.816 102.84 182.656 102.77 187.626L107.43 186.366C105.57 182.056 104.14 177.656 103.02 173.096C102.24 169.906 97.7003 171.316 98.2003 174.426C98.8203 178.296 99.2403 182.166 99.5003 186.076L104.16 184.816C102.04 180.706 100.7 176.576 99.9003 172.036L95.0803 173.366C96.4803 177.366 97.4903 181.376 98.1503 185.556L102.33 183.126C100.26 180.616 98.9003 177.946 98.0103 174.836L93.1903 176.166C94.3503 179.686 95.2203 183.216 95.8403 186.866L100.02 184.436C97.3903 181.186 95.3002 177.716 93.5502 173.916C92.3802 171.376 87.9603 173.196 88.9803 175.846C90.3003 179.266 91.3503 182.716 92.1403 186.306L96.3203 183.876C92.6303 180.386 89.7503 176.476 87.4903 171.936L83.1703 174.456C85.6603 178.326 87.7403 182.306 89.4203 186.606L93.6003 184.176C89.6403 180.296 86.0803 176.136 82.8903 171.596C81.0503 168.986 77.0903 171.226 78.5703 174.116C81.2603 179.366 83.9503 184.616 86.6403 189.866L90.5703 186.836C86.7003 182.976 82.8303 179.116 78.9603 175.256L75.9303 179.186C80.2403 181.826 84.5603 184.466 88.8703 187.116C91.1103 188.486 93.3803 185.826 92.2903 183.696C90.4503 180.086 87.4603 177.786 83.9003 175.976C79.4503 173.716 71.1903 171.286 72.6203 164.716L67.7103 164.056L67.3603 166.926H72.1803L72.6403 164.596L68.7103 164.086C69.8603 165.606 70.1903 167.316 69.6903 169.216L74.6003 169.876C74.1703 168.646 74.4403 167.566 75.4003 166.646C75.6203 165.086 76.3203 164.636 77.5003 165.316C78.2203 165.136 79.1803 165.406 79.9703 165.226C82.1103 164.706 83.7803 162.866 85.7403 161.946L82.0703 159.126L81.2603 160.696L85.1903 163.726L85.7203 163.396L83.2903 162.756C81.5203 161.096 79.6403 164.456 79.1303 165.706C78.4403 167.386 80.1403 168.696 81.5403 168.866C92.7803 170.266 103.72 163.716 114.81 166.576C116.41 166.986 117.93 165.806 117.97 164.166C118.03 161.866 118.08 159.556 118.14 157.256C118.21 154.496 113.79 153.786 113.23 156.596C112.45 160.486 111.08 163.896 108.92 167.246L113.58 168.506C113.14 164.656 113.07 160.896 113.37 157.036C113.59 154.246 108.99 153.596 108.46 156.376C107.58 160.996 106.26 165.406 104.45 169.746H109.27C108.44 165.726 108.01 161.736 107.93 157.636C107.87 154.396 103.12 154.436 102.93 157.636C102.61 162.816 101.68 167.776 100.15 172.736H104.97C103.97 167.936 103.62 163.236 103.84 158.346C103.99 155.056 99.2203 155.246 98.8403 158.346C98.4803 161.276 98.7103 169.586 96.2703 171.486L100.45 172.586C99.4603 167.796 98.7603 163.006 98.3503 158.136C98.0903 154.966 93.4403 154.876 93.3503 158.136C93.2103 163.516 92.9003 168.716 90.8303 173.736H95.6503C94.0003 167.936 93.4203 162.156 93.8303 156.156C94.0503 152.926 89.1003 152.976 88.8303 156.156C88.4103 161.126 87.8203 165.866 85.9103 170.506H90.7303C89.3003 165.156 88.8403 159.876 89.2603 154.366H84.2603C84.0703 157.056 84.1502 162.176 82.5502 164.506C82.0802 165.196 82.7503 166.656 81.9603 163.536C81.3603 161.156 81.6203 158.606 82.1303 156.256L77.2203 155.596C77.5903 159.646 76.6003 163.026 74.1303 166.266L78.7003 166.866C78.4103 165.896 76.3103 158.816 77.7403 157.746H75.2203L75.7803 158.026C78.6503 159.466 81.1802 155.146 78.3002 153.706V153.636Z" fill="#FCFCFC"/>
<path d="M101.85 228.966L102.29 233.546C102.59 236.696 107.21 236.826 107.29 233.546C107.44 227.076 107.42 220.616 107.21 214.146C107.11 210.896 102.45 210.966 102.21 214.146C101.64 221.566 102.34 228.856 103.91 236.116C104.55 239.066 108.55 238.066 108.82 235.456C109.51 228.786 109.41 222.186 108.53 215.536C108.12 212.456 103.53 212.206 103.53 215.536C103.53 219.486 104.08 223.336 104.92 227.186C105.55 230.116 105.92 233.256 108 235.516C109.57 237.226 112.12 235.776 112.27 233.746C112.71 227.726 112.74 221.726 112.38 215.696C112.19 212.486 107.57 212.476 107.38 215.696C107.14 219.866 107.36 223.996 108.14 228.106C108.69 230.996 109.08 234.816 111.93 236.306C113.7 237.226 115.53 236.056 115.69 234.146C116.04 229.896 116.03 225.696 115.68 221.456C115.41 218.296 110.64 218.186 110.68 221.456C110.73 226.176 111.53 230.686 113.15 235.116C114.05 237.556 118.34 237.466 118.06 234.456L116.82 221.126C116.53 217.976 111.87 217.846 111.82 221.126C111.75 226.276 112.78 230.986 114.82 235.696C115.8 237.966 119.67 236.826 119.48 234.436C119.2 230.856 118.74 227.316 118.13 223.776C117.65 221.026 112.92 221.626 113.22 224.436C113.65 228.576 114.47 232.606 115.39 236.666C116.1 239.806 120.92 238.476 120.21 235.336C119.39 231.726 118.6 228.126 118.22 224.436L113.31 225.096C113.85 228.196 114.24 231.296 114.49 234.426L119.15 233.166C117.46 229.266 116.77 225.356 116.83 221.116H111.83L113.07 234.446L117.98 233.786C116.5 229.756 115.73 225.756 115.68 221.456H110.68C111.04 225.706 111.04 229.896 110.69 234.146L114.45 231.986C113.1 231.286 112.61 224.806 112.48 223.546C112.21 220.936 112.23 218.316 112.38 215.696H107.38C107.75 221.726 107.71 227.726 107.27 233.746L111.54 231.976C110.1 230.406 109.82 226.356 109.42 224.296C108.85 221.386 108.54 218.496 108.54 215.536H103.54C104.42 222.186 104.52 228.786 103.83 235.456L108.74 234.796C107.26 227.956 106.68 221.136 107.22 214.156H102.22C102.43 220.626 102.45 227.086 102.3 233.556H107.3L106.86 228.976C106.55 225.806 101.55 225.766 101.86 228.976L101.85 228.966Z" fill="#FCFCFC"/>
<path d="M116.89 220.975L116.97 220.325L112.4 219.725C113.25 222.385 113.89 225.095 114.22 227.875C114.52 230.425 118.51 231.555 119.13 228.535C119.59 226.305 119.38 224.255 119.01 222.025C118.55 219.275 113.77 219.885 114.1 222.685C114.43 225.485 114.64 228.555 114.68 231.505L117.18 229.005L118.14 229.665C116.26 227.095 111.92 229.585 113.82 232.185C114.69 233.385 115.63 234.075 117.18 233.995C118.52 233.935 119.7 232.905 119.68 231.495C119.64 228.545 119.45 225.605 119.1 222.675L114.19 223.335C114.41 224.635 114.58 225.875 114.31 227.185L119.22 227.845C118.84 224.605 118.21 221.475 117.22 218.365C116.63 216.505 113.6 215.685 112.65 217.765C111.93 219.345 111.77 220.555 112.06 222.265C112.6 225.435 117.42 224.085 116.88 220.935L116.89 220.975Z" fill="#FCFCFC"/>
<path d="M109.26 227.036C108.87 229.836 108.57 232.646 108.45 235.476C108.37 237.416 107.82 240.426 110.04 241.406C111.9 242.226 113.55 241.226 113.8 239.246C114.18 236.266 114.35 229.446 110.03 229.146C105.71 228.846 105.73 236.426 105.68 239.316C105.63 242.206 109.69 242.566 110.59 239.976C111.3 237.946 111.64 235.886 111.68 233.736C111.74 230.516 106.74 230.516 106.68 233.736C106.65 235.456 106.34 237.016 105.77 238.646L110.68 239.306C110.7 237.916 110.65 234.116 111.32 233.426L109.55 234.156C108.57 233.266 108.3 233.336 108.74 234.356C108.86 234.916 108.94 235.486 108.96 236.056C109.03 237.116 108.94 238.176 108.8 239.226L112.56 237.066L112.26 236.936L113.41 238.426C113.04 237.036 113.46 235.036 113.55 233.616C113.67 231.856 113.84 230.096 114.08 228.346C114.52 225.196 109.7 223.836 109.26 227.016V227.036Z" fill="#FCFCFC"/>
<path d="M136.14 203.755C138.33 214.345 140.51 224.935 142.7 235.535C143.26 238.265 147.82 237.695 147.61 234.875C146.91 225.585 145.12 216.525 142.14 207.695C141.09 204.595 136.81 205.885 137.32 209.025C138.66 217.265 140 225.505 141.35 233.745C141.81 236.545 146.33 235.855 146.26 233.085C146.04 224.415 145.65 215.805 143.06 207.465C142.24 204.835 138.09 205.225 138.15 208.125C138.35 217.855 140.9 227.115 143.66 236.375C144.43 238.955 148.86 238.625 148.57 235.715C147.69 226.955 147.07 218.185 146.71 209.385H141.71C142.3 217.665 143.09 225.915 144.09 234.155C144.4 236.685 148.42 237.855 149 234.815C150.18 228.675 151.06 222.505 151.63 216.275H146.63C146.52 221.425 146.66 226.535 147.06 231.675C147.29 234.595 150.91 234.935 151.97 232.335C153.53 228.505 154.28 224.665 154.37 220.535C154.43 217.765 150.05 217.075 149.46 219.875C148.87 222.675 148.61 225.085 149.4 227.855C150.19 230.625 154.37 230.065 154.31 227.195C154.05 215.455 151.16 204.225 145.77 193.795C144.84 192.005 141.53 192.255 141.2 194.395C140.33 199.985 141.13 205.025 143.9 209.985C145.25 212.405 149.43 210.775 148.47 208.055C146.82 203.385 144.91 198.845 142.72 194.405C141.81 192.555 138.51 192.905 138.15 195.005C137.09 201.095 138.53 206.445 142.57 211.145C144.12 212.955 146.65 211.325 146.84 209.375C147.52 202.345 147.13 195.445 145.79 188.515C145.25 185.715 140.85 186.405 140.88 189.175C140.92 193.435 141.69 197.385 143.35 201.315C144.6 204.285 148.65 203.205 148.17 199.985C147.26 193.935 146.04 187.975 144.49 182.055L139.92 183.985C146.05 192.995 148.84 203.255 148.12 214.135C147.91 217.345 152.91 217.335 153.12 214.135C153.9 202.475 150.81 191.125 144.24 181.465C142.69 179.185 138.93 180.545 139.67 183.395C141.22 189.315 142.44 195.275 143.35 201.325L148.17 199.995C146.68 196.445 145.92 193.055 145.88 189.185L140.97 189.845C142.23 196.345 142.48 202.785 141.84 209.375L146.11 207.605C143.36 204.405 142.26 200.505 142.98 196.325L138.41 196.925C140.41 200.985 142.15 205.115 143.65 209.385L148.22 207.455C146.16 203.775 145.37 199.925 146.02 195.725L141.45 196.325C146.44 205.965 149.07 216.345 149.31 227.195L154.22 226.535C153.64 224.755 153.66 222.985 154.28 221.215L149.37 220.555C149.29 224.265 148.54 227.595 147.14 231.025L152.05 231.685C151.65 226.555 151.51 221.435 151.62 216.285C151.69 213.015 146.91 213.135 146.62 216.285C146.08 222.065 145.26 227.795 144.17 233.495L149.08 234.155C148.08 225.915 147.28 217.665 146.7 209.385C146.47 206.205 141.57 206.145 141.7 209.385C142.06 218.185 142.68 226.955 143.56 235.715L148.47 235.055C145.83 226.215 143.32 217.415 143.13 208.135L138.22 208.795C140.68 216.715 141.03 224.855 141.24 233.085L146.15 232.425C144.81 224.185 143.47 215.945 142.12 207.705L137.3 209.035C140.14 217.445 141.93 226.025 142.6 234.885L147.51 234.225C145.32 223.635 143.14 213.045 140.95 202.445C140.3 199.295 135.48 200.625 136.13 203.775L136.14 203.755Z" fill="#FCFCFC"/>
<path d="M81.5944 30.3737C81.8544 27.6537 81.1544 25.1138 80.0744 22.6538C79.6044 21.5838 78.1543 20.6537 77.0843 20.3537C75.8843 20.0237 74.2944 20.1737 73.2344 20.8537C72.1744 21.5337 71.2244 22.5637 70.9344 23.8437C70.6144 25.2437 70.8744 26.3937 71.4344 27.6937C70.9144 26.5037 71.3344 27.5337 71.4344 27.8337C71.4744 27.9737 71.8644 29.3838 71.6344 28.5538C71.4244 27.7938 71.6343 28.9037 71.6443 29.1237C71.6443 29.5437 71.6243 29.9537 71.5843 30.3637C71.3343 32.9737 74.0643 35.4737 76.5843 35.3637C79.5043 35.2337 81.3243 33.1637 81.5843 30.3637L81.5944 30.3737Z" fill="#3A3A3A"/>
<path d="M79.8343 48.0328C80.7343 54.0928 82.9643 64.8328 77.1943 68.8428C72.5143 72.1028 67.1143 74.3328 61.9243 76.6228C57.7743 78.4628 54.4743 80.6228 52.5943 84.9028C50.1243 90.5428 48.9343 96.9728 47.2743 102.893C46.4343 105.893 45.5843 108.893 44.7443 111.893C43.6143 115.923 42.1243 118.223 38.4743 120.553C33.2743 123.883 28.1943 127.403 23.2443 131.083C20.2043 133.343 14.9443 135.993 13.6543 139.773C13.1843 141.153 13.2943 142.383 13.8643 143.723C14.5543 145.343 17.0643 146.943 17.1943 148.653C17.3343 150.643 19.9243 152.163 21.4643 150.423C26.5143 144.723 32.6643 140.463 39.6343 137.413C46.8143 134.263 54.6443 133.763 61.8143 130.943C67.8543 128.563 68.9043 123.223 69.5143 117.353C70.4643 108.243 71.3543 99.1128 72.2843 90.0028C72.6043 86.8028 67.6043 86.8228 67.2843 90.0028C66.4543 98.1728 65.6343 106.353 64.8043 114.523C64.3543 118.923 64.6143 124.403 59.8343 126.383C56.9143 127.593 53.3543 127.803 50.3043 128.573C38.0643 131.673 26.4043 137.323 17.9343 146.893L22.2043 148.663C22.0843 146.993 21.6443 145.853 20.6843 144.483C19.1943 142.333 17.9443 141.503 20.4043 139.523C25.7543 135.213 31.4143 131.223 37.1343 127.413C41.1443 124.743 46.1843 122.703 48.1143 118.023C50.4943 112.253 51.6843 105.733 53.3743 99.7328C55.0543 93.7528 55.7943 85.6928 61.6043 82.2828C66.7643 79.2528 72.6143 77.4628 77.7943 74.3628C81.7743 71.9928 84.7543 69.4728 85.4743 64.6928C86.3643 58.8328 85.5343 52.5228 84.6643 46.7128C84.1943 43.5428 79.3743 44.8929 79.8443 48.0429L79.8343 48.0328Z" fill="#3A3A3A"/>
<path d="M13.8443 137.543C7.07428 140.513 -4.2057 151.763 1.6143 159.883C8.4243 169.373 19.3343 151.283 21.9443 146.333C23.4443 143.493 19.1343 140.963 17.6243 143.813C16.1143 146.663 14.2843 149.633 12.1343 152.213C10.6543 153.993 6.08431 159.953 5.37431 155.193C4.52431 149.473 11.9643 143.803 16.3643 141.873C19.3043 140.583 16.7643 136.273 13.8443 137.553V137.543Z" fill="#3A3A3A"/>
<path d="M58.6143 129.423C57.3443 134.183 58.3943 138.573 60.4443 142.973C61.9143 146.143 64.0542 149.183 64.8442 152.633C65.4242 155.163 64.7842 157.833 65.4842 160.313C66.6842 164.513 71.7242 165.023 75.4142 165.893C80.8842 167.183 86.5043 168.053 92.1343 168.243C101.434 168.553 113.264 167.163 120.794 161.113C128.824 154.663 123.994 140.023 122.354 131.573C121.744 128.413 116.924 129.753 117.534 132.903C118.394 137.303 119.144 141.723 119.674 146.173C120.314 151.533 120.614 155.733 115.264 158.693C108.114 162.643 99.3142 163.583 91.2942 163.213C87.2442 163.033 83.2243 162.473 79.2643 161.643C77.3243 161.243 74.3543 161.013 72.6343 160.023C70.1143 158.563 70.4643 156.923 70.2643 154.473C69.5743 146.183 61.1842 139.303 63.4642 130.773C64.2942 127.663 59.4742 126.333 58.6442 129.443L58.6143 129.423Z" fill="#3A3A3A"/>
<path d="M103.404 90.0232C104.634 94.4732 105.874 98.9231 107.104 103.373C108.634 108.903 110.414 112.593 106.154 117.383C100.514 123.723 94.1643 129.333 87.2343 134.233C86.1443 135.003 85.5843 136.413 86.3343 137.653C88.5843 141.353 90.5543 145.133 92.2943 149.093C92.7443 150.113 94.1343 150.483 95.1143 150.243C106.104 147.593 114.524 139.443 123.004 132.453C126.454 129.613 131.754 126.533 132.964 121.873C133.454 119.973 133.114 118.183 132.544 116.363C131.744 113.843 131.504 112.183 131.674 109.533C131.944 105.033 130.754 100.903 129.974 96.5132C129.194 92.1232 130.154 87.9832 128.074 84.0532C125.994 80.1232 121.794 78.0631 117.914 76.3431C111.674 73.5931 105.374 70.9732 99.1143 68.2932L100.264 71.1131C101.184 68.7731 102.104 66.4331 103.024 64.0931C104.204 61.0931 99.3643 59.7932 98.2043 62.7632C97.2843 65.1032 96.3643 67.4432 95.4443 69.7832C95.0843 70.6932 95.6643 72.2031 96.5943 72.6031C101.434 74.6731 106.284 76.7531 111.124 78.8231C114.874 80.4231 119.934 81.8732 122.704 85.0332C125.474 88.1932 124.294 92.8831 124.944 96.7131C125.594 100.543 127.084 104.473 126.794 108.383C126.524 111.953 126.494 113.623 127.524 117.113C128.554 120.603 127.484 122.213 124.954 124.403C123.164 125.953 121.304 127.413 119.484 128.923C111.674 135.353 103.914 142.983 93.7943 145.423L96.6143 146.573C94.8743 142.613 92.9043 138.823 90.6543 135.133L89.7543 138.553C98.0843 132.663 106.814 125.663 112.744 117.273C115.034 114.043 114.494 111.423 113.504 107.763C111.774 101.403 109.974 95.0531 108.214 88.7031C107.354 85.6031 102.534 86.9232 103.394 90.0332L103.404 90.0232Z" fill="#3A3A3A"/>
<path d="M89.6344 133.743C84.0044 133.273 77.7443 133.303 73.2843 137.313C69.8543 140.393 68.1044 145.393 70.3144 149.693C72.5244 153.993 77.3844 156.223 82.0544 155.623C88.0944 154.853 92.0244 150.523 95.2544 145.753C97.0644 143.083 92.7344 140.573 90.9344 143.233C88.9744 146.133 86.7444 149.123 83.2644 150.263C80.0844 151.313 75.5243 150.383 74.4743 146.683C72.1543 138.503 85.0144 138.353 89.6344 138.743C92.8444 139.013 92.8244 134.013 89.6344 133.743Z" fill="#3A3A3A"/>
<path d="M68.7143 157.884C63.6443 159.634 61.3943 165.004 63.0443 170.054C65.2943 176.964 72.9042 181.604 78.0842 186.194C84.8642 192.204 91.1143 198.724 94.3843 207.344C97.6043 215.824 98.2343 224.984 98.7643 233.944C99.0143 238.184 99.1543 242.454 99.6043 246.684C99.8743 249.234 100.284 251.654 102.894 252.764C106.114 254.134 110.714 253.104 114.104 252.994C118.534 252.854 123.244 253.134 127.624 252.384C132.684 251.514 137.914 246.904 134.944 241.434C133.574 238.904 131.344 238.264 128.824 237.444C126.304 236.624 126.084 236.374 125.454 233.654C124.824 230.934 124.244 227.984 123.774 225.124C121.034 208.584 122.804 189.304 110.194 176.364C107.944 174.054 104.414 177.594 106.654 179.904C117.964 191.504 116.394 209.664 118.644 224.544C119.324 229.054 119.744 234.614 121.604 238.804C122.554 240.954 123.934 241.714 126.194 242.194C127.034 242.314 127.884 242.414 128.734 242.484C131.464 244.764 131.154 246.354 127.804 247.254C125.754 247.954 123.064 247.684 120.924 247.754C118.654 247.824 116.374 247.904 114.104 247.974C112.404 248.024 107.754 249.014 106.304 248.224C103.104 246.484 104.034 238.744 103.854 235.624C103.594 231.094 103.334 226.554 102.794 222.044C101.884 214.444 100.214 206.894 96.5743 200.094C92.9343 193.294 87.3643 187.724 81.6143 182.634C78.6843 180.044 60.2243 166.074 70.0343 162.684C73.0543 161.644 71.7542 156.804 68.7042 157.864L68.7143 157.884Z" fill="#3A3A3A"/>
<path d="M111.614 188.334C114.954 194.754 120.384 199.284 125.004 204.714C129.954 210.524 133.534 217.414 135.554 224.774C137.454 231.714 136.444 238.644 137.774 245.564C138.854 251.224 142.704 253.844 148.174 254.644C157.054 255.944 178.764 261.724 180.914 247.744C181.564 243.504 179.154 239.724 174.864 238.914C171.984 238.364 169.164 239.384 166.374 239.914C161.664 240.804 156.994 240.304 152.564 238.424L153.714 241.244C166.664 208.634 152.794 171.284 121.794 154.984C118.944 153.484 116.414 157.804 119.274 159.304C148.464 174.664 161.064 209.274 148.894 239.924C148.534 240.834 149.114 242.354 150.044 242.744C154.464 244.624 159.034 245.674 163.854 245.304C166.154 245.124 168.324 244.484 170.584 244.074C172.844 243.664 175.784 243.684 175.934 246.564C176.014 248.114 174.954 249.664 173.694 250.514C169.064 253.644 160.364 251.104 155.274 250.504C152.474 250.174 148.664 250.324 146.054 249.134C142.334 247.434 142.404 243.334 142.374 239.864C142.284 229.954 140.354 220.484 135.704 211.664C130.544 201.874 120.984 195.534 115.934 185.834C114.444 182.974 110.134 185.504 111.614 188.354V188.334Z" fill="#3A3A3A"/>
<path d="M84.3442 63.9528C91.7242 66.5328 100.204 66.3128 107.114 62.3928C109.524 61.0228 111.704 59.1028 112.164 56.2528C112.454 54.4228 111.784 53.1028 111.574 51.3328C110.894 50.0128 110.974 48.6729 111.814 47.3129C112.464 47.2229 113.094 47.0428 113.674 46.7528C115.534 45.2128 116.894 44.2028 116.134 41.5128C115.634 39.7728 114.054 38.3329 113.124 36.8129C111.404 33.9929 111.204 32.0828 111.794 28.8428C112.444 25.3028 112.994 23.2329 111.544 19.7929C110.184 16.5729 108.184 13.7628 105.084 12.0228C99.7242 9.01283 92.3043 7.86279 88.9943 13.9828C87.7943 16.2028 87.9642 17.6128 85.0942 18.5728C83.6742 19.0528 82.1943 18.8628 80.8143 19.6428C78.8143 20.7828 77.2942 22.9328 77.8442 25.3328C78.3142 27.3628 86.1142 33.5028 80.8342 34.1328C78.4042 34.4228 76.6342 33.5528 74.9542 36.1228C71.3842 41.5728 77.4643 47.5128 82.4243 48.7428C85.5443 49.5128 86.8843 44.6929 83.7543 43.9229C83.1043 43.7629 76.9543 40.9628 80.1843 39.2828C80.5843 39.0728 82.1442 40.0028 82.7742 40.0328C84.2142 40.1028 85.7042 39.5229 86.7742 38.5629C89.8542 35.8029 89.0943 31.3528 86.8543 28.3428C86.6043 28.0128 83.4042 25.0928 83.4042 24.8628C83.3742 23.2728 85.4643 23.6328 86.4143 23.4028C88.0443 23.0128 89.5042 22.4628 90.7042 21.2228C92.2042 19.6728 92.3443 16.8128 93.8643 15.4728C96.8743 12.8028 103.374 16.4329 105.164 18.6729C109.594 24.1929 104.764 29.5628 106.864 35.5328C107.694 37.9028 109.354 39.6429 110.504 41.8129C111.484 43.6529 111.254 42.3228 109.264 42.9428C108.664 43.1328 108.194 43.5228 107.754 43.9528C104.034 47.5528 107.924 51.5728 106.794 55.4728C105.774 58.9928 99.7342 60.2628 96.3942 60.6128C92.7042 60.9928 89.1543 60.3728 85.6643 59.1628C82.6243 58.1028 81.3142 62.9228 84.3342 63.9828L84.3442 63.9528Z" fill="#3A3A3A"/>
<path d="M82.5443 45.1828C79.0043 45.5028 72.6343 45.3327 69.5243 42.9727C66.0643 40.3527 67.2644 31.5427 69.0144 28.3527C70.5344 25.5727 72.8943 23.4528 74.0343 20.4228C75.1743 17.3928 74.6843 13.8427 75.7143 10.7127C77.5843 4.9727 84.2843 3.88273 89.0343 6.37273C91.9543 7.90273 94.6244 9.22271 97.9244 9.72271C102.764 10.4527 108.974 8.91268 110.314 15.4427C110.894 18.2327 111.044 23.9427 109.004 26.0027C106.734 28.2927 110.274 31.8228 112.544 29.5428C118.264 23.7828 116.344 9.83271 109.274 5.85271C106.654 4.38271 104.074 5.08275 101.234 5.01275C96.8344 4.90275 93.9743 3.10274 90.1543 1.25274C85.5143 -0.997263 79.3144 -0.0672879 75.1144 2.85271C70.4044 6.12271 70.9244 11.4827 69.8844 16.4827C68.6744 22.3327 63.4843 25.8828 62.7143 32.0428C62.1443 36.5328 62.0544 43.0227 65.7444 46.3227C69.7244 49.8727 77.5243 50.6328 82.5443 50.1728C85.7243 49.8828 85.7543 44.8828 82.5443 45.1728V45.1828Z" fill="#3A3A3A"/>
<path d="M82.7042 51.4035C80.4142 49.4135 78.0742 48.9635 75.1542 48.3935C68.2542 47.0435 69.7343 39.4235 70.5543 34.1335C71.0543 30.9335 66.9443 29.8035 65.7343 32.8035C64.1843 36.6335 63.0543 41.8135 66.9743 44.4735C68.4143 45.4535 70.1342 44.3835 70.6442 42.9835C71.5042 40.6335 71.8343 38.5035 71.7643 36.0135C71.6943 33.2835 67.4843 32.5035 66.8543 35.3535C66.0443 39.0335 66.5343 42.2835 68.6143 45.4335C69.8743 47.3335 72.4043 46.8435 73.1843 44.8335C74.5343 41.3635 74.6342 38.0635 73.6542 34.4735C73.0442 32.2735 69.1842 31.9135 68.8342 34.4735C68.4042 37.5635 67.8042 47.4935 73.2042 47.3335C78.6042 47.1735 76.8743 37.8635 75.7943 35.0235C74.9643 32.8535 71.6343 32.4535 70.9743 35.0235C69.8643 39.3235 70.4743 43.2934 73.0343 46.9534C74.5243 49.0834 77.4043 48.1634 77.6943 45.6934C77.9343 43.6034 76.7342 42.2934 74.8342 41.6934C72.9342 41.0934 71.2643 42.9835 71.7543 44.7735C72.6843 48.1135 74.5642 52.3635 77.8942 53.9135C78.9742 54.4135 80.0243 54.3135 80.9243 53.5235L81.2243 53.2535C81.8843 52.6735 82.0843 51.6434 81.8643 50.8234L81.7742 50.4835C81.0442 47.7935 76.7943 48.2935 76.8643 51.1435C76.8943 52.4735 77.1343 53.3935 77.8843 54.5435C78.5043 55.4935 80.2743 56.6035 80.3843 57.7435L84.6542 55.9735C82.2842 54.1235 79.8643 52.3935 77.2243 50.9635C74.1343 49.2835 71.6643 48.4934 69.8643 45.1934C68.0643 41.8934 66.9143 38.5235 68.0943 34.6335C68.9743 31.7035 70.5643 28.9834 71.5443 26.0734L66.6343 25.4135C66.3443 27.9535 66.2842 30.3835 66.4542 32.9235C66.6242 35.4635 69.6243 36.1335 71.1143 34.1835C72.6043 32.2335 73.4643 30.3335 74.0143 27.9335L69.1943 26.6035C68.7443 28.9935 67.7943 31.4034 68.8843 33.6934C69.2343 34.4334 70.2343 34.9735 71.0443 34.9335C74.2943 34.7535 75.0843 32.1435 76.4943 29.4935C77.7543 27.1235 74.4143 24.1335 72.5643 26.4635C66.9043 33.6135 79.5043 38.9335 80.5143 29.7635C80.8243 26.9735 76.1743 26.3535 75.6043 29.1035C74.4443 34.6835 81.6443 36.6835 83.3143 31.1735L78.4042 30.5135C78.5242 32.2135 78.5842 33.3835 79.7742 34.6635C80.3942 35.3235 81.3542 35.5135 82.2042 35.3035L82.7943 35.1635C83.5643 34.9735 84.4043 34.2335 84.5443 33.4135L84.6343 32.8935C85.1643 29.7435 80.3443 28.3936 79.8143 31.5636L79.7243 32.0834L81.4743 30.3334L80.8843 30.4735L83.3143 31.1135L83.4143 30.4935C83.2243 27.7235 79.3543 27.0434 78.5043 29.8334L80.4343 30.4235L75.5242 29.7635L76.1143 30.0035L72.1843 26.9735C71.5043 27.8535 71.1243 28.8435 71.0543 29.9335L73.2142 31.1735C73.1842 31.1035 74.0143 28.0135 74.0343 27.9335C74.6243 24.8135 69.9342 23.4335 69.2142 26.6035C68.7642 28.5635 68.0443 30.0635 66.8243 31.6635L71.4843 32.9235C71.3143 30.3735 71.3743 27.9435 71.6643 25.4135C72.0043 22.4835 67.6043 22.2235 66.7543 24.7535C64.3243 32.0035 60.7443 37.2535 64.1643 44.9035C65.3443 47.5435 66.7243 50.5034 69.0543 52.3234C72.7043 55.1734 77.4142 56.6035 81.1542 59.5235C82.6442 60.6835 85.6543 60.1735 85.4243 57.7535C85.2943 56.4535 85.0943 55.6135 84.3843 54.4735C83.7443 53.4535 81.9242 52.3535 81.8942 51.1535L76.9843 51.8136L77.0743 52.1535L77.7142 49.7235L77.4143 49.9935L80.4443 49.6035C78.2143 48.5635 77.2043 45.6134 76.6043 43.4534L73.5242 46.5335L72.7142 45.7135L77.3743 44.4534C75.5643 41.8634 75.0243 39.4635 75.8243 36.3735H71.0043C71.3143 37.1935 72.9643 42.0434 71.9743 42.7034H74.4943C73.0943 42.0834 73.5843 36.5734 73.6843 35.8334H68.8643C69.6243 38.5934 69.4342 40.8735 68.3942 43.5335L72.9642 42.9335C71.6842 40.9935 71.1942 39.0234 71.7042 36.7034L66.7943 36.0435C66.8443 38.0735 66.5543 39.7835 65.8543 41.6835L69.5242 40.1934C68.3242 39.3734 70.1642 35.2135 70.5842 34.1735L65.7643 32.8435C64.9343 38.1635 63.6243 45.2035 67.1743 49.8635C70.2843 53.9435 75.7143 51.9535 79.1943 54.9735C81.6143 57.0735 85.1643 53.5535 82.7343 51.4335L82.7042 51.4035Z" fill="#3A3A3A"/>
<path d="M77.0443 19.9226L80.4043 10.7726C81.5243 7.73258 76.7243 6.4725 75.5843 9.4425C74.3243 12.7125 73.3743 16.0025 72.7043 19.4425C72.1843 22.0825 75.8543 24.0026 77.2743 21.3726C79.4543 17.3226 81.3044 13.1725 82.8644 8.84253L78.0443 7.51257C76.5743 11.7326 75.2244 15.8926 74.4944 20.3126C74.0844 22.8026 76.6943 24.4125 78.6743 22.7425C82.2843 19.7125 84.6743 16.0826 86.2743 11.6626C87.0943 9.38259 83.6443 7.28254 82.0943 9.23254C79.6043 12.3525 77.7943 15.6425 76.6043 19.4525C75.8343 21.9025 79.0443 23.5626 80.7843 21.8826C83.4243 19.3326 85.9643 16.7025 88.4143 13.9725L84.4843 10.9425C83.2043 12.8525 82.1143 14.7826 81.1443 16.8726C79.9043 19.5226 82.8344 21.6626 85.0744 19.9026C87.4444 18.0326 89.6643 16.0526 91.7843 13.9126L88.2444 10.3726C86.8944 11.7726 85.8843 13.1325 84.9543 14.8525C83.6843 17.2125 86.1644 19.2226 88.3744 18.2726C91.5144 16.9226 95.0744 13.2425 93.9344 9.46252C92.8744 5.93252 87.9044 5.53253 85.0044 6.72253L87.8244 10.3926C89.3944 7.83258 92.3743 3.26252 87.4843 2.21252C83.6443 1.39252 81.2344 5.12251 80.8144 8.32251C80.6344 9.69251 82.1044 10.7925 83.3144 10.8225C90.1444 11.0125 87.2343 0.52256 81.2843 3.75256C79.2043 4.88256 77.7944 7.90251 79.3044 10.0725C81.4944 13.2125 87.1544 11.7926 90.0044 10.6826C92.5844 9.68261 92.2743 5.93258 89.3443 5.77258C85.0543 5.54258 82.2944 10.6525 86.9444 12.8425C89.6344 14.1125 93.5544 12.6126 96.3744 12.5426C101.684 12.4126 107.314 14.0925 108.354 19.9525L112.024 17.1326L111.034 16.4825C108.334 14.7125 105.824 19.0426 108.514 20.8026L109.504 21.4525C111.494 22.7525 113.524 20.6126 113.174 18.6326C112.384 14.1526 109.314 10.7926 105.194 8.99255C103.284 8.15255 89.5844 6.0726 89.6144 8.7926L88.3744 10.9525L89.3443 10.7826L88.6844 5.87256C86.5644 6.69256 84.3644 7.33259 82.1344 6.41259L83.8844 8.16259L83.3244 5.83252L85.8244 8.33252L86.1043 7.00256L85.4643 4.57251C84.8643 5.70251 84.2143 6.80256 83.5243 7.88257C82.4843 9.59257 84.2643 12.4126 86.3443 11.5526C91.8143 9.30261 87.1743 13.3925 85.8543 13.9625L89.2743 17.3826C89.8543 16.0526 90.6943 14.8926 91.7843 13.9126C94.0143 11.5926 90.5144 8.08256 88.2444 10.3726C86.1244 12.5226 83.9043 14.5025 81.5343 16.3625L85.4643 19.3926C86.4343 17.3126 87.5244 15.3725 88.8044 13.4625C90.3744 11.1125 86.7744 8.32261 84.8744 10.4326C82.4144 13.1626 79.8844 15.7925 77.2444 18.3425L81.4243 20.7726C82.3543 17.7826 83.6844 15.2026 85.6344 12.7526L81.4543 10.3225C80.1443 13.9325 78.0743 16.7225 75.1443 19.1925L79.3244 21.6226C80.0544 17.2026 81.3944 13.0425 82.8744 8.82251C83.9444 5.77251 77.6843 2.87256 76.6043 5.87256C75.1843 9.79256 74.9443 15.1625 72.9643 18.8225L77.5343 20.7526C78.2143 17.3126 79.1543 14.0226 80.4143 10.7526L75.5943 9.4226L72.2343 18.5725C71.1243 21.6025 75.9544 22.9026 77.0544 19.9026L77.0443 19.9226Z" fill="#3A3A3A"/>
<path d="M108.474 235.524L107.594 234.104C106.214 231.884 103.154 232.954 102.934 235.364C102.654 238.414 102.804 241.303 103.244 244.323C103.604 246.823 107.524 246.583 108.064 244.323C108.644 241.893 108.864 239.624 108.654 237.124C108.444 234.624 104.314 233.493 103.744 236.463C103.054 240.013 102.164 246.654 106.634 247.974C107.474 248.224 108.454 247.953 109.064 247.333C111.494 244.833 112.204 239.874 108.894 237.914C108.154 237.474 107.104 237.434 106.374 237.914C102.434 240.464 102.704 251.683 108.934 250.823C114.034 250.113 116.894 237.784 111.154 236.544C104.744 235.164 106.614 247.074 110.924 248.614C116.504 250.604 118.234 240.134 113.274 238.224C112.484 237.924 111.394 238.264 110.844 238.864C107.694 242.274 108.934 250.714 114.574 250.374C120.214 250.034 120.834 241.174 116.894 238.354C115.634 237.454 113.514 238.354 113.224 239.844C112.644 242.804 113.154 248.854 117.584 248.614C122.014 248.374 121.734 241.984 120.274 239.254C119.224 237.304 116.304 237.864 115.704 239.854C113.064 248.654 124.324 250.964 124.474 241.654C124.514 239.004 121.174 238.484 119.814 240.394C117.824 243.184 119.164 247.484 122.934 247.674C126.704 247.864 128.434 244.014 127.124 240.864C125.894 237.894 121.804 238.973 122.304 242.193C122.694 244.723 124.484 247.774 127.484 246.904C130.814 245.944 130.964 240.974 130.824 238.274C130.704 236.054 127.224 234.544 126.164 237.014C125.024 239.674 124.444 245.333 128.474 245.953C129.694 246.143 130.564 245.794 131.294 244.804C132.904 242.624 133.044 238.924 130.834 237.184C129.954 236.494 128.834 236.174 127.804 236.794C125.054 238.454 123.684 243.894 124.754 246.904C125.644 249.424 128.514 250.654 130.484 248.594C132.454 246.534 133.034 241.134 130.564 239.234C128.094 237.334 125.444 239.393 124.404 241.703C123.114 244.563 123.604 248.924 127.464 249.224C131.554 249.544 132.464 244.544 132.424 241.374C132.374 237.234 130.974 233.264 126.374 233.234C119.774 233.184 112.774 234.764 106.234 235.654C103.394 236.044 104.164 240.554 106.894 240.564C110.104 240.584 113.144 240.204 116.264 239.434C118.664 238.844 118.634 235.224 116.264 234.614C114.524 234.164 113.204 234.054 111.394 234.174C110.884 234.224 110.374 234.294 109.864 234.364C106.964 233.964 106.264 234.314 107.764 235.424L107.124 237.854L107.554 237.323C108.614 236.043 108.484 234.344 107.044 233.394L105.444 232.333V236.654C108.064 235.324 112.754 235.834 115.584 236.034C119.224 236.284 122.714 237.014 126.214 238.054L126.874 233.144C122.944 233.494 113.794 234.714 116.294 241.124C118.594 247.034 125.114 241.574 125.744 237.544C126.014 235.804 124.654 233.803 122.664 234.463C119.514 235.513 118.654 238.164 119.154 241.294C119.284 242.144 120.134 242.804 120.904 243.044C124.774 244.214 126.364 240.604 125.824 237.304C125.494 235.284 122.084 234.773 121.254 236.703C120.424 238.633 120.014 240.223 119.974 242.323C119.914 245.543 124.914 245.543 124.974 242.323L125.574 239.224L121.004 238.624L120.664 239.124L123.094 238.484L122.224 238.224L123.974 239.974L123.994 239.294L120.914 236.213L118.764 238.734L121.194 239.374C120.924 239.124 126.264 238.194 126.864 238.144C129.584 237.904 130.364 234.074 127.524 233.234C120.514 231.154 109.774 228.854 102.904 232.344C101.134 233.244 101.434 235.694 102.904 236.664L104.504 237.724L103.994 233.794C102.724 235.334 102.334 237.284 104.034 238.774C106.734 241.134 111.824 238.644 114.904 239.434V234.614C112.214 235.284 109.624 235.584 106.864 235.564L107.524 240.474C111.834 239.884 116.154 239.344 120.484 238.854C121.704 238.714 125.524 237.654 126.334 238.224C127.944 239.364 127.584 244.024 126.324 245.034L128.754 244.394L126.544 245.424L128.974 244.784C131.114 245.204 128.934 241.924 130.284 241.104L127.254 240.713L126.934 242.274L129.754 241.124L130.434 239.534L125.774 238.274C126.044 239.714 125.854 241.113 125.214 242.453H127.734L127.074 240.864L122.254 242.193C122.374 243.253 122.984 243.494 124.084 242.924L119.424 241.664L120.474 241.193L115.904 241.794L117.994 241.184L114.324 242.674C114.464 243.114 114.464 243.564 114.324 244.014C114.154 245.754 114.154 245.214 114.344 242.394L111.914 243.034C111.144 244.004 110.084 244.234 108.754 243.744C109.134 247.084 109.174 246.574 108.874 242.224H106.354L105.504 243.784L107.934 243.144C107.934 243.144 108.574 237.574 108.534 237.784L103.624 237.124C103.804 239.284 103.734 240.824 103.204 242.994H108.024C107.654 240.404 107.664 237.954 107.894 235.364L103.234 236.624L104.114 238.044C105.804 240.774 110.134 238.264 108.434 235.524H108.474Z" fill="#3A3A3A"/>
<path d="M126.724 238.672C128.274 239.842 129.914 240.332 131.774 240.832C133.004 241.162 135.394 241.542 135.204 243.472C135.034 245.202 132.094 245.862 130.864 246.022L132.124 250.682C134.684 249.142 137.514 246.722 138.144 243.652C138.364 242.552 137.994 241.412 136.994 240.832C134.074 239.112 131.314 241.612 129.084 243.502C128.974 243.602 127.324 245.102 127.814 245.262C127.834 245.262 127.484 243.672 127.384 243.462C126.804 242.232 125.934 241.652 124.654 241.392C117.684 239.972 118.084 250.862 124.344 247.952C126.294 247.042 125.754 243.832 123.744 243.382C121.374 242.852 118.724 243.182 117.044 245.152C115.644 246.792 115.824 249.142 117.774 250.242C120.054 251.522 121.914 250.132 123.754 248.912C124.464 248.442 124.334 248.422 124.994 248.272C125.714 248.112 126.734 248.382 127.504 248.332C129.174 248.212 130.884 247.742 132.384 246.992C137.044 244.622 140.594 237.942 135.634 233.902C133.234 231.952 130.214 232.222 127.334 232.402C123.794 232.612 120.714 231.602 117.394 233.232C114.504 234.652 117.034 238.962 119.914 237.552C122.014 236.522 125.574 237.502 127.914 237.352C128.914 237.292 130.514 236.962 131.484 237.342C134.214 238.402 132.524 240.982 130.944 242.072C128.474 243.782 126.014 242.872 123.364 243.272C121.324 243.572 120.244 244.682 120.944 246.742L120.694 248.672L122.394 248.222L121.794 243.652L121.154 243.952H123.674L123.034 243.582L124.274 245.742C123.124 245.342 122.664 245.502 122.914 246.222C122.934 246.482 122.994 246.732 123.094 246.972C123.194 247.532 123.514 248.012 123.864 248.432C124.654 249.402 125.954 249.952 127.194 249.972C130.834 250.032 132.514 246.012 135.734 245.042L133.804 244.792L134.434 245.162L133.284 242.342C132.904 244.192 131.054 245.492 129.564 246.392C127.614 247.562 128.234 251.392 130.824 251.052C135.314 250.472 140.464 248.132 140.204 242.772C139.894 236.382 133.024 237.252 129.214 234.382C126.644 232.442 124.154 236.782 126.694 238.702L126.724 238.672Z" fill="#3A3A3A"/>
<path d="M134.514 242.652C135.574 244.102 130.544 246.142 129.544 246.362C127.214 246.882 124.694 246.932 122.324 247.192L122.984 252.102C126.364 251.532 129.754 250.962 133.134 250.392C136.304 249.862 134.954 245.042 131.804 245.572C128.424 246.142 125.034 246.712 121.654 247.282C118.904 247.742 119.514 252.502 122.314 252.192C127.044 251.672 131.674 251.692 135.724 248.922C138.574 246.972 141.314 243.542 138.824 240.122C136.944 237.542 132.604 240.042 134.504 242.642L134.514 242.652Z" fill="#3A3A3A"/>
<path d="M141.544 238.872C141.744 242.192 141.114 246.952 145.114 248.032C146.464 248.402 147.764 247.572 148.194 246.282C149.204 243.242 148.914 240.722 147.664 237.822C146.924 236.122 144.124 236.252 143.344 237.822C141.744 241.032 141.514 247.592 146.134 248.692C151.464 249.962 151.154 242.122 149.874 239.252C148.924 237.122 145.934 238.022 145.304 239.852C144.294 242.792 143.364 250.062 147.744 251.122C152.504 252.272 153.194 245.502 152.754 242.522C152.424 240.282 149.204 240.252 148.184 241.922C146.434 244.802 145.914 250.622 150.034 251.992C155.164 253.702 154.984 246.022 154.104 243.252C153.324 240.802 150.124 240.962 149.284 243.252C148.234 246.112 148.324 252.232 152.544 252.582C156.764 252.932 158.044 247.352 157.394 244.202C156.894 241.762 153.154 241.882 152.574 244.202C151.874 247.002 151.804 253.022 156.264 252.532C160.584 252.062 160.284 245.522 159.274 242.732C158.464 240.502 155.144 240.222 154.454 242.732C153.694 245.512 152.834 251.922 156.754 253.002C161.194 254.232 162.314 247.772 162.484 244.922C162.654 242.072 158.224 241.522 157.574 244.262C156.744 247.722 157.264 251.542 161.294 252.042C162.164 252.152 163.024 251.482 163.454 250.802C164.654 248.922 165.094 246.462 165.594 244.322C166.344 241.112 161.954 240.072 160.774 242.992C159.594 245.912 159.884 248.812 161.634 251.562C162.684 253.202 164.894 253.142 165.954 251.562C167.304 249.552 168.034 247.692 168.394 245.312C168.864 242.162 164.704 240.912 163.574 243.982C162.444 247.052 162.484 249.562 163.614 252.512C164.304 254.322 167.164 255.232 168.184 253.112C169.594 250.192 170.354 247.432 170.674 244.202C170.954 241.402 166.344 240.792 165.764 243.542C165.104 246.632 164.654 250.162 167.724 251.942C168.444 252.362 169.544 252.452 170.244 251.942C172.774 250.112 173.514 247.692 173.704 244.642C173.894 241.592 169.734 241.512 168.794 243.982C167.574 247.182 166.674 251.572 170.594 252.972C171.364 253.242 172.504 252.962 173.024 252.332C174.604 250.442 174.964 248.132 174.984 245.722C175.014 242.942 170.734 242.282 170.074 245.062C169.454 247.662 170.274 251.442 173.784 251.062C177.014 250.712 178.014 246.462 177.394 243.792C174.744 232.382 154.934 240.942 151.284 230.162C150.254 227.122 145.764 228.332 146.464 231.492C147.214 234.892 147.974 238.292 148.724 241.692L153.544 240.362C152.844 237.502 152.014 234.702 151.044 231.922C150.324 229.842 146.624 229.262 146.224 231.922C145.904 234.062 145.804 235.842 146.094 238.012L151.004 237.352C150.674 235.132 149.974 233.242 148.894 231.302C147.814 229.362 144.954 229.912 144.324 231.902C143.484 234.552 143.234 236.832 143.544 239.582C143.894 242.702 148.684 242.862 148.544 239.582C148.434 237.082 148.034 234.792 147.214 232.412C146.474 230.272 142.904 229.812 142.394 232.412C141.794 235.492 141.824 238.232 142.574 241.292C143.234 243.952 147.814 243.482 147.484 240.632C147.194 238.122 146.714 235.802 145.864 233.412C145.014 231.022 141.974 231.142 141.044 233.412C140.374 235.052 140.194 236.362 140.404 238.102C140.784 241.242 145.184 241.382 145.404 238.102C145.624 234.822 145.434 231.862 144.974 228.702L142.564 231.862C145.884 232.102 149.164 232.102 152.484 231.862L149.984 229.362C149.534 234.072 150.394 238.282 152.394 242.532C153.764 245.442 158.074 242.902 156.714 240.012C155.084 236.552 154.624 233.132 154.984 229.362C155.104 228.082 153.734 226.772 152.484 226.862C149.164 227.102 145.884 227.112 142.564 226.862C140.764 226.732 139.944 228.552 140.154 230.022C140.544 232.742 140.584 235.362 140.404 238.092H145.404C145.084 236.882 145.234 235.772 145.864 234.732H141.044C141.754 236.722 142.234 238.492 142.484 240.622L147.394 239.962C146.824 237.662 146.754 236.072 147.214 233.742H142.394C143.104 235.782 143.444 237.362 143.544 239.582H148.544C148.284 237.312 148.454 235.402 149.144 233.232L144.574 233.832C145.524 235.552 145.894 236.802 146.174 238.692C146.594 241.452 151.464 240.822 151.084 238.032C150.754 236.452 150.734 234.872 151.044 233.272H146.224C147.194 236.052 148.024 238.852 148.724 241.712C149.494 244.842 154.244 243.512 153.544 240.382C152.794 236.982 152.034 233.582 151.284 230.182L146.464 231.512C147.804 235.472 150.624 238.092 154.514 239.582C156.974 240.532 159.604 240.952 162.184 241.452C163.854 241.772 165.524 242.092 167.194 242.422C168.264 242.632 175.204 243.712 172.014 246.812L174.444 246.172L174.894 246.412L169.984 245.752C170.094 246.842 169.924 247.862 169.484 248.822L171.914 248.182L171.214 247.932L172.964 249.682C172.684 248.142 172.904 246.692 173.614 245.342L168.704 244.682L167.724 247.662H170.244C170.244 246.732 170.364 245.812 170.584 244.902L165.674 244.242C165.434 246.632 164.914 248.452 163.864 250.622L168.434 251.222C167.674 249.232 167.664 247.352 168.394 245.352L163.574 244.022C163.284 245.962 162.724 247.452 161.634 249.082H165.954C164.804 247.442 164.684 245.872 165.594 244.372L160.774 243.042C160.394 244.662 160.054 246.892 159.134 248.322L161.294 247.082L160.514 246.982L162.674 248.222L162.394 245.632L157.484 244.972C157.584 246.162 157.344 247.242 156.754 248.222L159.184 248.862C158.614 247.262 158.644 245.682 159.274 244.102H154.454C155.164 245.382 155.244 246.662 154.674 247.962H157.194L157.394 245.572H152.574C153.684 248.262 154.204 247.952 154.104 244.622H149.284L149.304 248.412L151.464 247.172L152.504 244.482L147.934 243.882C149.194 245.272 149.734 245.212 149.544 243.692C149.544 242.822 149.744 241.992 150.124 241.212L145.554 241.812L145.304 244.612L147.734 243.972C146.984 242.902 146.954 241.712 147.664 240.392H143.344C144.064 241.992 144.074 243.532 143.374 245.002L146.454 243.252C146.904 243.372 146.564 238.922 146.554 238.912C146.364 235.712 141.364 235.692 141.554 238.912L141.544 238.872Z" fill="#3A3A3A"/>
</svg>
