<svg width="99" height="288" viewBox="0 0 99 288" fill="none" xmlns="http://www.w3.org/2000/svg">
<path d="M52.94 107.36C53.01 107.83 56.85 103.95 57.15 103.51C58.47 101.6 59.04 99.6797 59.02 97.3597C58.98 92.7397 53.7199 91.1398 50.4799 93.8198C45.9099 97.6098 40.0399 104.61 40.0399 110.98C40.0399 118.56 48.35 117.78 52.52 114.35C56.69 110.92 61.7299 103.91 60.1599 98.0497C58.0999 90.3497 49.96 93.1997 46.33 97.6497C43.16 101.53 39.7 109.67 45.08 113.35C51.53 117.76 56.7 109.24 57.09 103.76C57.52 97.5798 51.97 91.4397 46.09 96.4597C40.64 101.12 39.0999 111.27 38.7899 117.94C38.6599 120.78 41.1999 122.76 43.7899 122.94C49.6899 123.36 50.97 116.31 52.02 111.98C53.27 106.84 55.18 100.98 51.52 96.5297C48.4 92.7397 43.4899 96.3198 42.9799 100.07C41.6199 110.25 40.53 120.46 39.71 130.7C39.25 136.42 48.06 137.35 49.53 132.03C51.3 125.62 53.07 119.22 54.84 112.81L45.2 110.15C44.04 116.53 43.24 122.95 42.81 129.43C42.6 132.59 46.19 135.22 49.14 134.25C53.9 132.68 55.45 128.45 57.27 124.11C59.48 118.84 61.14 113.39 62.77 107.92C64.65 101.62 55.43 99.4098 53.13 105.26C49.87 113.54 48.21 122.15 47.95 131.04C47.81 135.75 55.19 138.19 57.27 133.56C60.98 125.27 63.9699 116.74 66.8499 108.13L57.03 106.8C56.14 114.46 54.53 121.98 52.39 129.38C50.6 135.57 60.24 138.22 62.03 132.04C64.43 123.75 66.03 115.36 67.03 106.8C67.71 100.94 58.9 100.41 57.21 105.47C54.6 113.24 51.99 121.02 48.64 128.51L57.96 131.03C58.19 123 59.8499 115.38 62.7899 107.91L53.15 105.25C52.1 108.76 51.0599 112.27 49.8499 115.72C49.1899 117.61 48.49 119.49 47.68 121.32C47.42 121.91 45.57 124.9 46.51 124.59L52.84 129.41C53.21 123.82 53.88 118.3 54.88 112.79C56.01 106.55 46.98 103.83 45.24 110.13C43.5 116.43 41.7 122.94 39.93 129.35L49.75 130.68C50.57 120.44 51.66 110.23 53.02 100.05L44.4799 103.59C43.2299 102.07 42.82 107.6 42.62 108.44C42.32 109.74 41.9699 113.53 40.9699 114.44L44.51 112.98L43.83 112.93L48.83 117.93C48.96 115.14 49.37 112.49 50.2 109.81C50.57 108.62 51 107.48 51.52 106.34C51.78 105.74 52.07 105.15 52.4 104.58C53.26 103.36 52.8 103.39 51.01 104.66L47.4699 103.2C47.3699 103.11 46.2299 105.39 45.8499 105.74L49.39 104.28L48.15 104.42L51.69 105.88C52.23 107.22 52.59 107.35 52.78 106.25C53 105.55 53.33 104.91 53.77 104.33C55.46 103.2 55.08 102.31 52.63 101.66C51.07 99.5297 50.2 99.4797 50.03 101.5C49.05 102.41 48.5499 104.29 47.5999 105.35L46.59 106.36C44.6 107.49 45 107.84 47.76 107.41L50.06 110.4C50.39 111.99 49.92 111.29 50.57 110.05C51.22 108.81 51.76 107.51 52.55 106.3C53.93 104.19 55.66 102.5 57.59 100.9L49.05 97.3597C49.06 98.8897 45.1099 101.62 44.2899 103.07C42.9699 105.4 42.95 107.42 43.32 110.02C44.23 116.37 53.87 113.67 52.96 107.36H52.94Z" fill="white"/>
<path d="M53.09 134.33C53.39 133.98 53.7299 133.67 54.0999 133.39C55.9999 131.78 56.0999 127.91 54.0999 126.32L53.6599 125.97C51.7599 124.46 49.8099 124.14 47.5999 125.19C44.4499 126.69 42.9299 130.29 41.6599 133.34C40.0499 137.21 44.5499 140.1 47.8099 139.49C50.2599 139.03 52.3499 137.82 53.9199 135.88C56.6499 132.51 54.9499 127.59 50.3799 127.34C46.4799 127.13 42.0899 129.3 42.2199 133.79C42.3299 137.59 46.3299 140.99 50.0599 139.45C54.0499 137.81 55.5099 130.79 50.0599 129.81C43.4199 128.62 38.4299 132.49 37.6599 139.14C37.2099 142.96 42.2199 145.31 45.1799 143.46C49.2199 140.94 53.2499 138.4 57.2699 135.86L50.4299 129.02C48.5099 132.27 47.2499 135.6 46.7099 139.34C46.2399 142.59 48.8899 147.12 52.8599 145.49C59.6399 142.71 64.9299 138.41 68.5799 132C71.7999 126.35 63.5299 121.68 59.9499 126.95C56.5999 131.88 55.0499 137.47 55.3299 143.42C55.4999 147.06 59.4999 149.85 62.8499 147.74C70.0499 143.21 75.0899 136.54 77.3599 128.33C78.5999 123.84 72.2399 119.39 68.9999 123.47C64.9499 128.57 57.2299 144.89 67.7999 147.85C78.3699 150.81 81.7999 134.69 81.5599 127.83C81.4199 123.69 76.0799 120.98 73.0199 124.29C68.9999 128.64 64.2199 140.37 72.2699 143.56C80.3199 146.75 83.8799 134.62 81.6099 129.02C80.0699 125.21 74.8299 123.81 72.4699 127.83C70.5699 131.06 70.0999 134.48 71.3299 138.05C72.4199 141.18 77.1899 143.48 79.6899 140.26C81.4999 137.92 82.7899 135.71 83.7899 132.91L74.1499 130.25C73.6099 132.55 73.07 134.84 72.53 137.14C71.41 141.91 77.2599 145.63 80.8899 142C83.9999 138.89 85.4499 135.36 85.8599 131.03C86.3299 126.03 78.7799 124.3 76.5399 128.51C75.3799 130.69 74.4999 132.89 73.9399 135.3C72.4799 141.57 81.6699 144.11 83.5799 137.96C86.3299 129.12 85.3099 120.02 80.9499 111.89C78.8899 108.04 72.9299 109.05 71.8099 113.08C70.8099 116.69 70.3599 120.28 70.5099 124.03L80.3299 122.7C79.3299 117.52 77.6699 112.65 75.5399 107.83C74.0699 104.51 68.4099 104.61 66.9099 107.83C63.3299 115.48 61.4499 123.36 61.4399 131.83C61.4399 136.7 68.3399 138.75 70.7599 134.35C75.9999 124.8 78.9299 114.54 79.6199 103.67C79.9099 99.1599 74.0599 97.3299 71.0799 100.13C64.1099 106.72 61.48 115.9 63.28 125.23C64.05 129.24 69.0099 129.64 71.6399 127.44C74.2699 125.24 75.4199 121.7 74.3199 118.44C73.7099 116.62 72.2599 115.93 71.3799 114.47C70.1799 113.89 70.1599 113.63 71.3099 113.69C71.4499 112.73 71.5999 111.77 71.7399 110.81C73.2399 100.9 74.7299 90.9899 76.2299 81.0799C77.0199 75.8399 70.1199 71.9199 67.09 77.2299C63.6399 83.2699 61.8599 89.7199 61.6799 96.6699C61.5399 101.91 68.3599 103.1 70.9999 99.1899C74.3299 94.2599 76.5799 88.8499 77.7199 83.0099L68.0799 80.3499C66.8299 87.7799 66.8999 94.9599 68.3699 102.36C69.2499 106.77 75.3799 106.99 77.5099 103.55C80.6699 98.4599 82.2599 93.0399 82.6299 87.0799L72.8099 88.4099C74.6099 100.19 74.6899 112.25 73.0399 124.05L82.8599 125.38C82.4199 118.14 81.9799 110.89 81.5399 103.65C81.2399 98.6599 79.1099 89.6299 82.4799 85.2899L73.9399 81.7499C73.8499 82.5799 73.7699 83.4199 73.6799 84.2499C73.3599 87.4299 77.1399 90.0099 80.0099 89.0699C86.9999 86.7899 86.8799 77.9099 80.5599 74.7799C74.6999 71.8799 66.7899 73.2299 64.4399 79.7599C63.2499 83.0699 66.2899 85.8299 69.2599 86.0899C73.9799 86.4999 77.1899 83.6499 78.8199 79.4699C79.6799 77.2699 78.1899 75.0499 76.5199 73.8199C70.8999 69.6899 64.0299 71.8299 60.09 76.9799C59.09 78.2899 59.2 80.6999 60.09 82.0299C63.09 86.4899 69.56 86.9799 72.28 81.8299C75.36 75.9999 69.8899 70.7799 64.4699 69.9299C58.2299 68.9499 55.4199 78.3299 61.8099 79.5699C67.7199 80.7199 73.4099 82.3999 78.9999 84.6599L81.6599 75.0199C79.0399 74.5799 76.8899 73.8599 74.6099 72.4999L73.4199 81.6399C75.8699 81.1999 77.94 81.5099 80.28 82.2599L81.6099 72.4399C69.9599 72.7299 46.6499 74.6099 44.0099 89.4099C43.4699 92.4399 45.3299 95.8899 48.8299 95.7399C51.9999 95.6099 55.2899 94.7699 56.8199 91.6699C58.2399 88.7999 57.3799 85.4499 54.8899 83.4999C48.1699 78.2299 42.1999 85.7299 42.2899 92.2399C42.3299 95.0899 44.5599 97.0499 47.2899 97.2399C51.7399 97.5599 56.4599 95.4199 57.8599 90.8799C59.0199 87.1099 57.27 83.0599 53.65 81.3499C45.32 77.4199 38.6699 88.8099 45.4299 94.5799C49.8299 98.3399 55.69 93.7199 53.28 88.5199C50.45 82.4199 40.5199 82.3199 37.8499 88.6299C36.8999 90.8799 37.0399 92.7999 38.6299 94.6899C40.4099 96.7999 43.1099 97.4899 45.6999 96.5799C48.8299 95.4699 50.2599 92.2499 48.6899 89.2399C45.8399 83.7899 39.2999 83.3399 34.8699 87.0399C32.3899 89.1199 33.2699 93.4199 35.8799 94.8899C39.6399 97.0199 43.9999 96.0299 46.0799 92.1099C47.0599 90.2699 47.0099 87.5099 45.2999 86.0499C41.8099 83.0699 36.8299 80.9799 33.2199 85.0699C30.2599 88.4299 31.2999 92.7099 34.6899 95.1399C38.0799 97.5699 43.59 93.4799 42.03 89.4899C39.9 84.0199 33.4699 81.7899 29.0399 86.3399C27.1999 88.2299 27.0499 91.5399 29.0399 93.4099C32.6099 96.7599 39.6899 96.4699 41.1399 90.9199C42.5899 85.3699 35.7199 81.3199 31.2499 84.3799L38.59 90.0299C40.06 84.5299 38.6499 79.1899 34.5399 75.2199L32.3299 83.5799C38.6499 81.5499 44.9799 79.5199 51.2999 77.4999L47.4499 68.3599C41.6299 70.9499 37.0799 75.0899 33.5499 80.3599C31.1199 83.9899 35.1499 88.9499 39.1999 87.6999C44.0099 86.2299 48.4699 84.1399 52.6099 81.2799L46.5499 73.4299C43.0099 76.9399 41.32 80.9799 40.84 85.8999C40.64 87.9299 42.5199 90.3199 44.5099 90.7199C51.7299 92.1599 58.1599 88.5299 60.4799 81.5099C61.9899 76.9399 56.7799 74.2499 53.1399 75.8599C47.8499 78.1999 44.1399 85.8899 50.4899 89.6799C56.0099 92.9799 61.3399 86.9499 61.5999 81.7199C61.8799 76.0299 57.6399 70.2399 52.9 67.3699C46.1199 63.2599 37.1799 71.8599 31.7899 75.2399C26.3999 78.6199 31.13 86.8499 36.84 83.8699C43.54 80.3799 50.6099 78.8399 58.1599 79.0199C64.5999 79.1799 64.5899 69.1799 58.1599 69.0199C48.8599 68.7899 40.0399 70.9399 31.7999 75.2299L36.8499 83.8599C40.3799 81.6399 43.9399 78.8699 47.6799 77.0499C48.7499 76.7399 48.7899 76.3899 47.7999 75.9999C48.3499 76.4899 48.8899 76.9999 49.4099 77.5299C49.7799 77.9199 52.5599 80.6299 51.4199 81.2499L55.2699 80.7499C55.1099 84.6799 56.0899 85.9299 58.1899 84.4799L50.8499 78.8299C50.3199 80.4399 48.8799 81.3999 47.1799 81.0599L50.8499 85.8799C51.0699 83.6399 52.0699 82.0299 53.6299 80.4799C57.5499 76.5899 52.3499 69.3199 47.5699 72.6299C44.0999 75.0299 40.5899 76.7999 36.5399 78.0399L42.1899 85.3799C44.7899 81.4899 48.2599 78.8599 52.4999 76.9699C57.6799 74.6599 54 66.1199 48.65 67.8299C42.33 69.8599 35.9999 71.8899 29.6799 73.9099C26.1899 75.0299 24.6699 79.5599 27.4699 82.2699C29.0499 83.7999 29.5199 85.2099 28.9499 87.3499C27.8899 91.3199 32.5799 95.5499 36.2899 92.9999L33.5399 93.0799L31.2399 90.0899L31.4899 90.8999L32.78 86.0399L36.1099 86.3299V93.3999L32.3899 92.1399L39.7299 86.4899L39.1099 86.0499L41.4099 89.0399L38.2199 93.1099L37.4399 87.0499L40.9199 86.2399L41.9299 94.0899L40.0499 94.2599L43.0399 86.9199L45.6999 87.5999L46.4799 93.6599C45.8499 93.9399 45.2299 93.8999 44.6399 93.5499L52.4899 87.4899L47.28 87.2199L52.28 92.2199C52.74 89.9799 51.6199 89.8099 48.9199 91.6999L47.4599 88.1599L48.8299 85.7199L53.65 92.0499C54.4799 87.3799 60.2199 86.0199 64.1799 84.9199C69.8899 83.3299 75.6899 82.5699 81.5999 82.4199C87.5099 82.2699 88.3199 74.3199 82.9299 72.5999C78.8399 71.2899 74.9499 71.2199 70.7499 71.9799C66.5499 72.7399 66.1099 79.0599 69.5599 81.1199C72.5199 82.8899 75.5899 84.0899 78.9899 84.6499C85.3899 85.7199 87.6199 77.4199 81.6499 75.0099C76.0699 72.7499 70.3699 71.0699 64.4599 69.9199L61.7999 79.5599C63.2599 80.2199 63.6199 79.8899 62.8699 78.5599L65.1699 75.5699L66.2599 75.4599L69.2499 77.7599L68.7199 76.9599V82.0099C69.5099 80.9699 70.8499 81.9699 71.4699 82.4299L69.1699 76.7799L69.2499 76.0499L74.0699 82.3799C73.1499 83.3099 73.2899 83.6399 74.4799 83.3699C76.5099 84.0199 77.4599 82.6899 77.3299 79.3899L83.6599 84.2099C83.7499 83.3799 83.8299 82.5399 83.9199 81.7099C84.3399 77.5999 77.9899 74.8199 75.3799 78.1699C70.7799 84.0899 70.7199 90.4599 71.1499 97.6699C71.6899 106.89 72.2699 116.11 72.8299 125.33C73.1499 130.58 81.8199 132.56 82.6499 126.66C84.5799 112.93 84.5099 99.3999 82.4199 85.6999C81.5299 79.8599 72.9199 81.7199 72.5999 87.0299C72.3399 91.2699 71.0799 94.8599 68.8499 98.4499L77.9899 99.6399C76.8899 94.1099 76.7699 88.5099 77.6999 82.9499C78.7499 76.6999 69.2999 73.9199 68.0599 80.2899C67.0699 85.3599 65.2299 89.8099 62.3499 94.0799L71.6699 96.5999C71.8099 91.4099 73.1499 86.7099 75.7199 82.2099L66.5799 78.3599C65.2299 87.3099 63.88 96.2599 62.53 105.22C61.99 108.8 60.6399 113.15 61.2599 116.75C61.4799 118.06 61.9399 119.05 62.7899 120.1C63.2399 120.76 63.8199 121.3 64.4999 121.71C65.8699 122.91 65.8999 122.44 64.5699 120.3L72.9299 122.51C71.7999 116.66 73.8899 111.17 78.1599 107.14L69.6199 103.6C69.0399 112.69 66.4999 121.25 62.1299 129.23L71.4499 131.75C71.4499 125.13 72.7399 118.81 75.5499 112.8H66.9199C68.6999 116.82 69.8699 120.97 70.6999 125.28C71.7699 130.82 80.7399 129.55 80.5199 123.95C80.4099 121.05 80.6899 118.45 81.4599 115.66L72.3199 116.85C75.4599 122.7 75.8999 128.91 73.9399 135.22L83.5799 137.88C83.9599 136.26 84.3899 134.95 85.1799 133.48L75.8599 130.96C75.6999 132.65 74.9899 133.69 73.8199 134.86L82.1799 139.72C82.7199 137.42 83.2599 135.13 83.7999 132.83C85.2799 126.51 76.2899 124.14 74.1599 130.17C73.8299 131.24 73.3199 132.22 72.6399 133.11L80.9999 135.32C80.4099 134.45 80.4499 133.61 81.1299 132.8L71.9899 131.61C72.5199 132.28 72.6599 132.99 72.4099 133.76C72.0799 134.74 72.2399 134.86 72.8999 134.1L77.7599 135.39C77.7599 135.39 79.3599 132.11 80.1199 131.29L71.5799 127.75C71.6399 129.4 71.6199 130.96 71.2599 132.57C71.0099 133.66 70.6499 134.72 70.1799 135.74C68.9399 136.97 69.2499 137.98 71.0999 138.77C74.0699 141.77 72.5799 138.71 73.2499 136.13C73.7999 134.04 74.75 132.16 76.09 130.46L67.7299 125.6C66.1499 131.33 62.8599 135.87 57.8199 139.04L65.34 143.36C65.1399 138.98 66.1299 135.56 68.5999 131.94L59.9699 126.89C57.7099 130.85 54.4899 134.03 50.2199 135.78L56.3699 141.93C56.7999 139 57.58 136.55 59.09 133.99C61.58 129.77 56.5299 124.44 52.2499 127.15C48.2299 129.7 44.1999 132.23 40.1599 134.75L47.6799 139.07L47.4299 139.38V129.74L46.8499 129.98L50.6999 130.48L51.5599 131.2L52.0599 135.05L52.2099 134.32L49.9099 137.31L50.4 137.27L46.8599 128.73C46.5499 129.5 45.9899 129.85 45.1599 129.77L51.3099 135.92C51.6299 135.11 52.08 134.39 52.65 133.75L46.59 132.97L47.03 133.32V126.25C46.66 126.53 46.3299 126.85 46.0199 127.19C41.5699 131.84 48.63 138.92 53.09 134.26V134.33Z" fill="white"/>
<path d="M40.0799 93.7903C43.7899 96.3503 48.1599 96.9303 52.5199 96.2303C55.1899 95.8003 56.6699 92.4803 56.0099 90.0803C55.2299 87.2403 52.5299 86.1503 49.8599 86.5903C50.5199 86.4803 49.0799 86.5903 48.9399 86.5903C48.3099 86.5303 48.1899 86.5403 48.5799 86.6103C48.2999 86.5603 48.0199 86.5003 47.7499 86.4303C46.5099 86.1203 46.2399 85.9303 45.1199 85.1603C42.8999 83.6303 39.57 84.7503 38.28 86.9503C36.83 89.4303 37.8399 92.2503 40.0699 93.7903H40.0799Z" fill="white"/>
<path d="M35.2299 86.6402C32.8699 90.9102 34.3699 96.0702 38.3799 98.7402C42.3899 101.41 47.88 101.16 52.46 101.61C55.15 101.88 57.46 99.1202 57.46 96.6102C57.46 93.6802 55.16 91.8802 52.46 91.6102C50.25 91.3902 47.97 91.3102 45.78 90.9402C45.38 90.8702 44.53 90.4602 44.15 90.5502C44.01 90.5502 43.9199 90.4802 43.8799 90.3702C44.0599 90.8102 44.0499 91.2502 43.8599 91.6802C46.9799 86.0402 38.3499 80.9902 35.2299 86.6302V86.6402Z" fill="white"/>
<path d="M49.85 149.49L53.17 138.15L43.53 135.49C39.92 148.98 37.6 162.73 36.5 176.65C36.06 182.21 45.31 183.54 46.32 177.98C48.9 163.81 51.4 149.56 50.85 135.09C50.6 128.63 41.25 128.69 40.85 135.09C40.08 147.38 39.27 159.66 37 171.79L46.82 173.12C48.31 161.33 49.8 149.55 51.29 137.76C51.99 132.22 42.24 130.85 41.47 136.43C39.85 148.12 37.36 159.63 34.01 170.95L43.65 173.61C44.85 164.82 46.67 156.18 49.13 147.65L39.49 144.99C36.88 157.03 35.23 169.24 34.53 181.54C34.21 187.22 42.93 188.26 44.35 182.87C47.42 171.25 51.5 160 56.71 149.17L47.57 145.32C46.1 153.85 44.63 162.37 43.15 170.9C42.08 177.07 38.8 184.76 44.72 189.16C47.45 191.19 51.17 188.94 52.06 186.17C55.58 175.26 58.8 164.26 61.72 153.17C63.37 146.89 54.14 144.46 52.08 150.51C48.92 159.76 46.07 169 45.86 178.85C45.76 183.54 53.09 186.02 55.18 181.37C59.51 171.71 63.07 161.81 65.72 151.56C67.33 145.33 57.71 142.67 56.08 148.9C54.21 156.04 52.34 163.17 50.47 170.31C48.82 176.62 57.94 178.95 60.11 172.97C62.69 165.85 64.57 158.59 65.74 151.11C66.73 144.81 57.1 142.1 56.1 148.45C54.92 155.93 53.05 163.19 50.47 170.31L60.11 172.97C61.98 165.83 63.85 158.7 65.72 151.56L56.08 148.9C53.65 158.3 50.52 167.46 46.55 176.32L55.87 178.84C56.06 169.91 58.87 161.54 61.73 153.16L52.09 150.5C49.17 161.59 45.95 172.59 42.43 183.5L49.77 180.51L49 179.94L51.3 182.93C50.71 180.61 52.23 176.87 52.63 174.53C53.14 171.58 53.65 168.63 54.16 165.68C55.18 159.78 56.2 153.87 57.22 147.97C58.11 142.83 50.73 138.61 48.08 144.12C42.5 155.72 38 167.76 34.71 180.21L44.53 181.54C45.18 170.11 46.71 158.83 49.13 147.65C50.48 141.39 41.28 138.77 39.49 144.99C37.03 153.52 35.2 162.15 34.01 170.95C33.17 177.13 41.76 179.98 43.65 173.61C47.01 162.29 49.49 150.78 51.11 139.09L41.29 137.76C39.8 149.55 38.31 161.33 36.82 173.12C36.12 178.67 45.61 179.97 46.64 174.45C49.07 161.45 50.01 148.28 50.84 135.1H40.84C41.36 148.7 39.1 162 36.67 175.33L46.49 176.66C47.52 163.62 49.78 150.79 53.16 138.16C54.83 131.93 45.33 129.33 43.52 135.5L40.2 146.84C38.39 153.03 48.03 155.67 49.84 149.5L49.85 149.49Z" fill="white"/>
<path d="M42.0898 191.28L44.0098 188.83L35.6498 183.97C32.3198 193.16 28.9898 202.35 25.6598 211.54C23.4598 217.61 33.0898 220.19 35.2998 214.2L46.8998 182.78C48.8498 177.51 40.1998 173.81 37.7598 178.93C32.7998 189.32 27.5298 199.55 21.9498 209.62L30.5798 214.67C35.3698 204.51 39.7698 194.18 43.7898 183.68C45.8098 178.41 37.1598 174.77 34.6498 179.83C30.5098 188.17 26.3598 196.52 22.2198 204.86C19.3798 210.58 27.4798 215.46 30.8498 209.91C36.6798 200.32 41.1398 190.02 44.1598 179.21C45.6498 173.87 37.6398 170.2 35.0198 175.36C32.1898 180.94 29.3598 186.52 26.5298 192.1C23.6998 197.68 31.6998 202.61 35.1598 197.15C39.1298 190.89 42.0098 184.11 43.7698 176.91C45.3098 170.64 36.0998 168.14 34.1298 174.25C32.1598 180.36 30.3498 185.95 28.4498 191.81C26.7398 197.11 35.1898 200.86 37.5898 195.66C41.0598 188.15 43.7598 180.44 45.5398 172.35C46.6998 167.09 39.0398 163.17 36.3998 168.5C29.0298 183.4 18.4898 199.49 17.8298 216.57C17.5098 224.79 20.1498 232.71 21.7998 240.66C23.7898 250.22 24.4598 259.9 24.1598 269.65L33.9798 268.32C32.1098 259.6 30.2398 250.72 29.4798 241.82C28.8298 234.23 29.1798 226.83 33.6298 220.39L24.4898 216.54C21.7798 235.01 21.3898 253.53 23.6598 272.07C24.4198 278.29 34.1398 278.6 33.6598 272.07C32.2398 252.84 30.7798 232.85 38.2098 214.59C44.7698 198.47 55.8698 184.62 60.2598 167.56C61.8598 161.32 52.2198 158.66 50.6198 164.9C46.1098 182.46 34.2298 196.8 27.9098 213.64C20.9198 232.27 22.2298 252.61 23.6698 272.07H33.6698C31.5198 254.5 31.5698 236.73 34.1398 219.2C34.9498 213.68 28.3798 210.46 24.9998 215.35C14.1298 231.09 20.6798 253.92 24.3498 270.99C25.5698 276.66 33.9998 275.14 34.1698 269.66C34.4398 260.93 33.8798 252.26 32.4898 243.64C31.2298 235.8 28.3298 228.06 27.8798 220.11C27.4298 212.16 30.1298 204.41 33.4398 197.2C37.0998 189.23 41.1598 181.43 45.0498 173.57L35.9098 169.72C34.3198 176.94 32.0698 183.93 28.9698 190.64L38.1098 194.49C39.9998 188.64 41.8898 182.79 43.7898 176.93L34.1498 174.27C32.5798 180.7 30.0898 186.53 26.5498 192.12L35.1798 197.17C38.0098 191.59 40.8398 186.01 43.6698 180.43L34.5298 176.58C31.7198 186.6 27.6298 196 22.2198 204.89L30.8498 209.94C34.9898 201.6 39.1398 193.25 43.2798 184.91L34.1398 181.06C30.4298 190.75 26.3698 200.27 21.9398 209.66C19.2398 215.39 27.4098 220.42 30.5698 214.71C36.1498 204.64 41.4198 194.41 46.3798 184.02L37.2398 180.17C33.3698 190.64 29.4998 201.12 25.6398 211.59L35.2798 214.25C38.6098 205.06 41.9398 195.87 45.2698 186.68C46.9098 182.15 39.9898 177.89 36.9098 181.82L34.9898 184.27C31.0698 189.28 38.0998 196.41 42.0598 191.34L42.0898 191.28Z" fill="white"/>
<path d="M66.8198 181.501L66.0899 176.731L56.4498 179.391C61.4498 194.331 67.3598 208.931 74.1198 223.161C76.9098 229.051 85.2498 223.901 82.7498 218.111C76.8398 204.381 72.4198 190.081 69.3298 175.461L59.6898 178.121C63.8198 190.531 67.6898 203.011 71.2998 215.581L80.9398 212.921C76.3498 201.341 72.5398 189.511 69.4898 177.441C67.9098 171.171 58.5298 173.841 59.8498 180.101C62.7898 194.061 66.6298 207.781 71.3498 221.251C73.4598 227.281 82.4898 224.921 80.9898 218.591C78.1798 206.711 74.5798 195.071 70.1898 183.681C67.8998 177.741 59.1898 179.941 60.5498 186.341C63.2698 199.171 67.7199 211.461 73.7099 223.131C76.2699 228.111 84.7298 224.661 82.8498 219.281C78.3698 206.471 75.0798 193.251 73.2998 179.791L63.4798 181.121C67.4898 192.251 70.7098 203.611 73.1398 215.191L82.7799 212.531C80.2599 201.301 78.3198 189.981 77.0498 178.541L67.2298 179.871C69.4298 190.521 72.1398 201.051 75.3598 211.441C76.9598 216.621 85.5298 215.961 85.1798 210.111C84.6898 201.961 83.9299 193.831 82.8999 185.731L73.0798 187.061C74.5299 193.941 75.9698 200.821 77.4198 207.711C78.5598 213.141 87.7798 212.041 87.2398 206.381C85.3098 186.201 82.3198 166.141 78.2598 146.281C77.1098 140.681 68.4398 142.061 68.4398 147.611C68.4398 155.241 69.5298 162.741 71.7298 170.051C73.2898 175.221 82.0398 174.551 81.5498 168.721C80.9998 162.171 80.4598 155.611 79.9098 149.061L70.0899 150.391C73.0899 159.631 75.0098 169.011 75.6998 178.701L85.5199 177.371C82.1899 166.321 78.8599 155.271 75.5299 144.221C74.1999 139.821 66.8098 139.111 65.8898 144.221C63.8098 155.761 63.1298 167.371 64.0698 179.061C64.5798 185.391 74.0198 185.591 74.0698 179.061C74.1298 170.851 74.1998 162.651 74.2598 154.441H64.2598C65.1398 164.581 65.5098 174.731 65.3598 184.901C65.2598 191.341 75.2598 191.341 75.3598 184.901C75.5098 174.731 75.1498 164.581 74.2598 154.441C73.7098 148.131 64.3098 147.901 64.2598 154.441C64.1998 162.651 64.1298 170.851 64.0698 179.061H74.0698C73.2098 168.281 73.6198 157.521 75.5398 146.871H65.8999C69.2299 157.921 72.5598 168.971 75.8898 180.021C77.4498 185.211 86.1299 184.521 85.7099 178.691C84.9499 168.131 83.0098 157.791 79.7398 147.721C78.0898 142.641 69.4298 143.151 69.9198 149.051C70.4698 155.601 71.0098 162.161 71.5598 168.711L81.3798 167.381C79.4198 160.871 78.4498 154.401 78.4398 147.601L68.6198 148.931C72.5098 167.921 75.3998 187.071 77.2498 206.371L87.0698 205.041C85.6198 198.161 84.1798 191.281 82.7298 184.391C81.5898 178.971 72.1898 180.081 72.9098 185.721C73.9398 193.821 74.6998 201.951 75.1898 210.101L85.0098 208.771C81.7898 198.381 79.0798 187.861 76.8798 177.201C75.7598 171.771 66.4298 172.881 67.0598 178.531C68.4298 190.851 70.4299 203.071 73.1499 215.171C74.5599 221.461 84.1098 218.791 82.7898 212.511C80.3598 200.931 77.1398 189.571 73.1298 178.441C71.3698 173.561 62.5198 173.801 63.3098 179.771C65.2098 194.161 68.4198 208.211 73.2198 221.921L82.3598 218.071C76.7598 207.161 72.7499 195.671 70.2099 183.671L60.5698 186.331C64.9598 197.721 68.5598 209.361 71.3698 221.241L81.0098 218.581C76.2898 205.121 72.4598 191.401 69.5098 177.431L59.8698 180.091C62.9098 192.171 66.7298 204.001 71.3198 215.571C73.6298 221.401 82.7899 219.251 80.9599 212.911C77.3399 200.351 73.4698 187.861 69.3498 175.451C67.3198 169.331 58.3699 171.801 59.7099 178.111C62.9899 193.611 67.8698 208.591 74.1298 223.141L82.7598 218.091C76.3698 204.631 70.8298 190.831 66.0998 176.711C64.0198 170.491 55.4899 173.101 56.4599 179.371L57.1898 184.141C58.1598 190.481 67.7998 187.791 66.8298 181.481L66.8198 181.501Z" fill="white"/>
<path d="M85.26 229.05L85.42 228.85C87 226.87 87.65 223.69 85.42 221.78L85.1599 221.55C83.2099 219.87 79.99 219.4 78.09 221.55C75.94 223.98 76.31 226.57 76.44 229.59C76.62 233.95 76.9 238.31 77.07 242.67C77.43 251.53 77.42 260.38 75.65 269.11C74.37 275.42 83.21 277.88 85.29 271.77L85.8 270.26C87.88 264.15 78.2199 261.53 76.1599 267.6L75.65 269.11L85.29 271.77C86.86 264.02 87.38 256.18 87.24 248.28C87.11 240.85 85.5499 232.78 86.3499 225.4L84.89 228.94L85.1599 228.63H78.09L78.3499 228.86V221.79L78.19 221.99C74.21 226.97 81.24 234.09 85.26 229.06V229.05Z" fill="white"/>
<path d="M13.37 90.6302C18.36 89.4602 23.32 89.0202 28.44 89.2002C34.25 89.4002 34.99 81.0702 29.77 79.3802C24.55 77.6902 19.17 77.6402 13.91 79.1002C7.72 80.8202 10.35 90.4701 16.57 88.7401C20.19 87.7301 23.54 87.8601 27.11 89.0201L28.44 79.2002C22.46 78.9902 16.5301 79.6201 10.7101 80.9901C4.45005 82.4601 7.10002 92.1002 13.37 90.6302Z" fill="white"/>
<path d="M10.3001 92.6204C11.8301 93.1604 13.6901 92.5204 15.2101 92.1304C16.6401 91.7704 18.0701 91.3803 19.4901 90.9903C22.0101 90.2903 23.8201 87.4104 22.9801 84.8404C22.1401 82.2704 19.5301 80.6004 16.8301 81.3504C15.6101 81.6904 14.3901 82.0204 13.1601 82.3404C12.5901 82.4904 12.0301 82.6303 11.4601 82.7703C11.2501 82.8203 11.0401 82.8604 10.8301 82.9104C10.7501 82.9304 10.6701 82.9404 10.5901 82.9604C11.3801 82.7604 12.1701 82.7703 12.9501 82.9903C10.4801 82.1103 7.37008 83.9804 6.80008 86.4804C6.16008 89.2904 7.65007 91.6904 10.2901 92.6304L10.3001 92.6204Z" fill="white"/>
<path d="M16.4598 86.0206C14.9498 83.0906 14.4398 81.4206 15.8098 78.3506C16.4498 76.9006 17.4898 75.6206 18.1698 74.1606C19.6698 70.9206 20.5198 67.5006 21.1298 63.9906C22.3098 57.2106 25.2698 48.1506 22.5098 41.5106C20.0798 35.6506 10.3998 38.2206 12.8698 44.1706C14.4798 48.0606 12.8298 52.8706 12.1998 56.9006C11.5298 61.1906 11.0598 65.7106 9.22978 69.6806C7.71978 72.9606 5.36983 75.7006 4.83983 79.3806C4.23983 83.6006 5.94982 87.3906 7.82982 91.0606C10.7798 96.7806 19.4098 91.7306 16.4598 86.0106V86.0206Z" fill="white"/>
<path d="M20.71 63.7297L20.6799 61.4197C20.5899 55.4497 12.8599 55.0597 10.8599 60.0897C8.48994 66.0497 6.10994 72.0197 3.73994 77.9797C1.36994 83.9397 11.03 86.5597 13.38 80.6397C15.73 74.7197 18.13 68.7097 20.5 62.7497L10.6799 61.4197L10.71 63.7297C10.8 70.1597 20.8 70.1797 20.71 63.7297Z" fill="white"/>
<path d="M7.84994 71.9001C4.76994 76.8601 3.97995 82.8401 5.60995 88.4401C7.40995 94.6101 17.06 91.9801 15.25 85.7801C14.33 82.6301 14.7599 79.7302 16.4799 76.9502C19.8799 71.4702 11.2399 66.4401 7.84994 71.9001Z" fill="white"/>
<path d="M6.13999 77.9606C3.58999 82.5406 4.33997 87.8106 7.67997 91.7506C9.37997 93.7506 13.03 93.6306 14.75 91.7506C16.71 89.6206 16.56 86.8206 14.75 84.6806C15.07 85.1306 15.07 85.1106 14.76 84.6406C14.5 84.1306 14.49 84.1306 14.73 84.6406C14.64 84.3306 14.56 83.1806 14.57 84.2606C14.57 83.9606 14.75 82.8406 14.5 83.8506C14.56 83.5606 14.63 83.2806 14.72 83.0106C14.48 83.5306 14.5 83.5306 14.77 83.0106C16.04 80.7206 15.4 77.4506 12.98 76.1706C10.56 74.8906 7.49999 75.5206 6.13999 77.9606Z" fill="white"/>
<path d="M59.1999 65.65L59.0998 65.59L57.6399 69.13C56.7699 70.11 56.5899 69.59 58.3099 69.53C59.1699 69.5 60.0499 69.35 60.8699 69.13C62.7199 68.62 64.4199 67.66 65.8799 66.43C69.2899 63.56 71.0499 59.35 71.9299 55.07C72.6499 51.55 73.2099 47.72 69.9399 45.28C66.2799 42.55 62.5499 45.04 60.3899 48.23C56.7599 53.56 53.3999 65.02 62.5599 66.93C72.4499 68.99 76.2398 56.21 75.1098 48.87C74.5498 45.23 69.0499 43.98 66.7499 46.66C62.2799 51.89 58.3399 60.91 62.2399 67.56C65.8699 73.75 76.0499 72.07 75.8299 64.33C75.6599 58.43 67.9999 57.88 66.0099 63C64.0199 68.12 67.0699 74.83 73.3099 73.3C78.6699 71.98 80.8399 64.89 80.9899 60.16C81.1599 54.57 72.4598 53.31 71.1698 58.83C70.4798 61.78 70.4699 64.42 71.5499 67.28C73.0998 71.39 78.1499 72.16 80.6899 68.47C82.3399 66.07 83.6098 62.88 81.9098 60.12C81.1198 58.84 79.7598 57.9 78.2898 57.56C76.8198 57.22 75.7698 57.99 74.4798 57.87C68.0698 57.29 68.1098 67.29 74.4798 67.87C75.1898 67.99 75.8998 67.96 76.6098 67.76C77.8698 67.41 77.7599 67.31 76.2599 67.46L72.7699 63.97C73.0499 62.08 72.8099 61.9 72.0499 63.42L81.1899 64.61C80.5899 63.63 80.4699 62.59 80.8099 61.47L70.9899 60.14C70.9499 61.46 70.7099 63.33 69.4599 64.14L73.3099 63.64L72.1399 63.24L75.1299 65.54L75.6499 65.65L65.8299 64.32C69.5899 64.47 71.2599 63.25 70.8399 60.66C70.8899 59.89 71.0299 59.15 71.2599 58.42C71.7599 56.64 72.6099 55.12 73.8199 53.72L65.4599 51.51C65.6399 52.68 65.2599 53.61 65.2099 54.74L64.4899 56.25C65.8399 58.95 66.6399 59.47 66.8699 57.83C68.1299 56.48 68.0598 54.05 69.6598 52.66L66.1199 54.12L66.9098 54.2L63.3699 52.74C61.7399 50.87 62.2599 52.99 61.7699 54.59C61.3999 55.81 60.9998 57 60.1698 57.99C58.4198 60.07 56.5899 59.23 54.2499 59.79C48.9599 61.06 48.0599 66.49 50.5599 70.68C53.8599 76.2 62.4999 71.18 59.1899 65.63L59.1999 65.65Z" fill="white"/>
<path d="M63.2599 46.9305C61.7599 43.8805 58.5299 41.7105 55.0699 42.1705C51.1199 42.7005 48.4099 46.6705 49.3099 50.5605C50.2899 54.8005 55.4699 56.2705 58.9399 54.1505C60.5699 53.1505 61.8299 51.4605 62.2099 49.5805C62.5899 47.7005 62.3399 45.9505 61.8299 44.1605C61.2499 42.1205 59.1999 40.3905 57.0099 40.4905C54.8199 40.5905 52.8499 41.9805 52.1899 44.1605C51.0799 47.8405 53.4399 52.1105 57.2299 52.9805C59.7699 53.5605 62.7599 52.2005 63.3799 49.4905C63.9599 46.9505 62.6199 43.9605 59.8899 43.3405C59.3999 43.2205 59.5899 43.3105 60.4699 43.6205C61.1699 44.2205 61.3399 44.3405 60.9799 43.9905C61.3999 44.3905 61.6899 44.8805 61.8299 45.4405C61.7799 45.3005 61.7499 45.1605 61.7299 45.0205L61.9099 46.3505C61.8899 46.2105 61.8899 46.0605 61.9099 45.9205L61.7299 47.2505C61.7499 47.1005 61.7799 46.9605 61.8299 46.8305H52.1899C52.3299 47.3405 52.4599 47.8405 52.5499 48.3605L52.3699 47.0305C52.4199 47.4505 52.4299 47.8405 52.3899 48.2605L52.5699 46.9305C52.4399 47.4805 52.5199 47.3405 52.8299 46.5205C52.5699 46.9405 52.6999 46.7805 53.2199 46.0305C53.9699 45.5005 54.1299 45.3705 53.7099 45.6305C54.5899 45.3105 54.7899 45.2105 54.3099 45.3405L55.6399 45.1605C55.5099 45.1805 55.3699 45.1905 55.2399 45.1805L56.5699 45.3605L56.3699 45.3305C57.0099 45.4805 57.5099 45.8305 57.8899 46.3705C58.3299 46.6405 58.6199 47.0105 58.7699 47.4905C58.9399 47.9905 58.9899 48.0705 58.9299 47.7405L59.1099 49.0705C59.1099 48.9505 59.1099 48.8205 59.1299 48.7005L58.9499 50.0305C59.0799 49.5605 58.9799 49.7705 58.6399 50.6805C58.8999 50.2605 58.7599 50.4405 58.2199 51.2005C58.5799 50.8605 58.4099 51.0005 57.6899 51.6105C56.7899 51.9305 56.5799 52.0405 57.0599 51.9205L55.7299 52.1005C55.8799 52.0805 56.0299 52.0805 56.1799 52.1005L54.8499 51.9205C55.3999 52.0005 55.6299 52.2905 54.5899 51.7105C55.3799 52.1505 53.7199 50.8805 54.3799 51.5305C54.9899 52.1305 53.8099 50.5105 54.2499 51.3305C54.3699 51.5605 54.5099 51.7705 54.6199 52.0105C55.7799 54.3605 59.2999 55.1905 61.4599 53.8005C63.8699 52.2505 64.4899 49.4805 63.2499 46.9605L63.2599 46.9305Z" fill="white"/>
<path d="M57.9699 48.8801C58.8899 47.7201 59.8799 46.6301 60.9699 45.6301C61.1999 45.4201 61.4299 45.2101 61.6699 45.0101C61.9099 44.8101 62.4899 44.3501 61.9299 44.7701C62.5499 44.3001 63.1999 43.8701 63.8499 43.4501C66.0599 42.0501 67.1399 38.9401 65.6399 36.6101C64.1399 34.2801 61.1599 33.3201 58.7999 34.8201C55.8099 36.7201 53.0899 39.0301 50.8899 41.8101C49.2699 43.8601 48.7399 46.9101 50.8899 48.8801C52.6999 50.5401 56.2299 51.0701 57.9599 48.8801H57.9699Z" fill="white"/>
<path d="M65.8899 43.2206H65.4798C64.7898 43.1906 64.1498 43.3406 63.5498 43.6506C62.9298 43.8506 62.3899 44.2006 61.9399 44.6806C61.4499 45.1306 61.1098 45.6706 60.9098 46.2906C60.5998 46.8906 60.4498 47.5306 60.4798 48.2206L60.6598 49.5505C60.8998 50.4005 61.3299 51.1306 61.9499 51.7606L62.9599 52.5406C63.7399 52.9906 64.5798 53.2206 65.4798 53.2206H65.8899C66.5799 53.2506 67.2199 53.1006 67.8199 52.7906C68.4399 52.5906 68.9798 52.2406 69.4298 51.7606C69.9198 51.3106 70.2599 50.7706 70.4599 50.1506C70.7699 49.5506 70.9199 48.9106 70.8899 48.2206L70.7099 46.8906C70.4699 46.0406 70.0398 45.3106 69.4198 44.6806L68.4098 43.9006C67.6298 43.4506 66.7899 43.2206 65.8899 43.2206Z" fill="white"/>
<path d="M67.11 50.3701C73.54 50.3701 73.56 40.3701 67.11 40.3701C60.66 40.3701 60.66 50.3701 67.11 50.3701Z" fill="white"/>
<path d="M55.6898 58.9403H56.0998C56.7898 58.9703 57.4298 58.8203 58.0298 58.5103C58.6498 58.3103 59.1898 57.9603 59.6398 57.4803C60.1298 57.0303 60.4698 56.4903 60.6698 55.8703C60.9798 55.2703 61.1298 54.6303 61.0998 53.9403L60.9198 52.6103C60.6798 51.7603 60.2498 51.0303 59.6298 50.4003L58.6198 49.6203C57.8398 49.1703 56.9998 48.9403 56.0998 48.9403H55.6898C54.9998 48.9103 54.3598 49.0603 53.7598 49.3703C53.1398 49.5703 52.5998 49.9203 52.1498 50.4003C51.6598 50.8503 51.3198 51.3903 51.1198 52.0103C50.8098 52.6103 50.6598 53.2503 50.6898 53.9403L50.8698 55.2703C51.1098 56.1203 51.5398 56.8503 52.1598 57.4803L53.1698 58.2603C53.9498 58.7103 54.7898 58.9403 55.6898 58.9403Z" fill="white"/>
<path d="M56.6099 58.5204L57.4299 60.5604C57.5799 61.2104 57.8799 61.7804 58.3199 62.2604C58.6699 62.8004 59.1399 63.2304 59.7199 63.5504C60.7899 64.1804 62.3699 64.4404 63.5699 64.0504C64.7699 63.6604 65.9499 62.9104 66.5599 61.7504C67.1699 60.5904 67.5599 59.1204 67.0599 57.9004L66.2399 55.8604C66.0899 55.2104 65.7899 54.6404 65.3499 54.1604C64.9999 53.6204 64.5299 53.1904 63.9499 52.8704C62.8799 52.2404 61.2999 51.9804 60.0999 52.3704C58.8999 52.7604 57.7199 53.5104 57.1099 54.6704C56.4999 55.8304 56.1099 57.3004 56.6099 58.5204Z" fill="white"/>
<path d="M71.3299 67.6705L71.7399 68.0805C72.1899 68.5705 72.7299 68.9105 73.3499 69.1105C73.9499 69.4205 74.5899 69.5705 75.2799 69.5405C75.9699 69.5705 76.6099 69.4205 77.2099 69.1105C77.8299 68.9105 78.3699 68.5605 78.8199 68.0805L79.5999 67.0705C80.0499 66.2905 80.2799 65.4505 80.2799 64.5505L80.0999 63.2205C79.8599 62.3705 79.4299 61.6405 78.8099 61.0105L78.3999 60.6005C77.9499 60.1105 77.4099 59.7705 76.7899 59.5705C76.1899 59.2605 75.5499 59.1105 74.8599 59.1405C74.1699 59.1105 73.5299 59.2605 72.9299 59.5705C72.3099 59.7705 71.7699 60.1205 71.3199 60.6005L70.5399 61.6105C70.0899 62.3905 69.8599 63.2305 69.8599 64.1305L70.0399 65.4605C70.2799 66.3105 70.7099 67.0405 71.3299 67.6705Z" fill="white"/>
<path d="M76.4999 72.8105C82.9299 72.8105 82.9499 62.8105 76.4999 62.8105C70.0499 62.8105 70.0499 72.8105 76.4999 72.8105Z" fill="white"/>
<path d="M76.4999 72.8105C82.9299 72.8105 82.9499 62.8105 76.4999 62.8105C70.0499 62.8105 70.0499 72.8105 76.4999 72.8105Z" fill="white"/>
<path d="M76.0899 75.25C82.5199 75.25 82.5399 65.25 76.0899 65.25C69.6399 65.25 69.6399 75.25 76.0899 75.25Z" fill="white"/>
<path d="M76.0899 75.25C82.5199 75.25 82.5399 65.25 76.0899 65.25C69.6399 65.25 69.6399 75.25 76.0899 75.25Z" fill="white"/>
<path d="M8.82992 11.6502C26.6299 29.8302 38.2899 52.9602 56.2299 71.0302C60.7699 75.6002 67.8399 68.5302 63.2999 63.9602C45.3599 45.9002 33.6999 22.7702 15.8999 4.58016C11.3899 -0.0298362 4.31992 7.05016 8.82992 11.6502Z" fill="white"/>
<path d="M74.8999 40.0697C76.3199 38.2597 77.5199 35.8797 75.6299 33.8697C74.2299 32.3697 71.5999 32.4297 70.4299 34.1597C67.6299 38.3197 75.5699 41.9497 76.8499 35.9297C77.0999 34.7397 76.4999 33.0597 75.0999 32.8497C72.3699 32.4497 70.1799 32.9897 68.2399 35.0097C67.2399 36.0497 67.3599 37.4797 68.2399 38.5497C70.4399 41.2197 74.7799 40.6497 76.2699 37.5397C76.9199 36.1697 76.4699 34.2297 74.7799 33.8697C71.3899 33.1397 69.6699 34.9097 68.4699 37.9597C67.9399 39.2997 69.0699 40.5997 70.2199 41.0397C72.8499 42.0397 75.3499 41.7197 77.6699 40.1397L73.9099 37.9797C73.9299 39.9297 74.3299 41.3497 75.3599 42.9997C75.6799 43.5197 77.0099 44.6397 76.9099 45.2197C76.7299 46.3297 73.0999 47.5597 72.4899 47.6197C69.3099 47.9097 69.2399 52.4297 72.4899 52.6197C75.3999 52.7897 78.0599 52.4297 80.8199 51.4797L78.3899 47.2997C76.7099 48.6797 75.2199 50.1597 73.8199 51.8197C72.1499 53.7997 73.7599 56.4097 76.2499 55.9997C80.1199 55.3697 91.6399 49.2997 86.2999 44.0797C81.8599 39.7497 76.3299 49.4497 81.4299 53.1797C82.3499 53.8497 83.6899 53.4797 84.4599 52.7897C87.9499 49.6497 89.6299 44.6697 88.1299 40.0997C86.7499 35.9097 82.1899 35.1797 79.8999 39.1597C78.1899 42.1297 78.1799 46.9297 81.9399 48.2997C86.7299 50.0497 90.3099 44.3397 90.8499 40.3697C91.3599 36.6497 89.6899 31.0597 84.8699 32.9197C80.8499 34.4697 77.9499 40.1097 79.5699 44.1697C83.6299 54.3397 97.3999 41.5697 89.6899 34.9897C83.1199 29.3797 72.9799 48.5097 83.6699 50.5897C93.5099 52.4997 94.8399 32.5897 83.8499 37.6197C80.0299 39.3697 77.6899 43.8997 80.2699 47.6897C82.9899 51.6797 88.1899 50.1997 90.8799 46.9497C93.5699 43.6997 93.1099 37.9397 88.3699 36.9897C84.5499 36.2197 80.1399 39.6897 80.9699 43.7297C82.1099 49.2297 88.9099 48.7197 91.9099 45.2397C94.4899 42.2397 94.8799 36.2797 90.1199 35.2597C85.3599 34.2397 80.6499 39.3997 83.2399 43.7397C85.8299 48.0797 92.6299 46.3497 92.5399 41.3197C92.5199 40.1597 91.7699 39.2797 90.6999 38.9097L90.3299 38.7797C89.4899 38.4897 88.5099 38.8297 87.8999 39.4197L87.6499 39.6597C85.3299 41.8997 88.8699 45.4297 91.1899 43.1997L91.4399 42.9597L89.0099 43.5997L89.3799 43.7297L87.5399 41.3197C87.8199 40.3697 88.2499 40.1597 88.8299 40.6697C88.3299 41.5297 87.8499 42.4097 87.3899 43.2897C86.2999 45.1497 85.7299 45.2297 85.6999 43.5397C85.0699 42.1697 85.3999 41.9697 86.6999 42.9297C86.3199 45.3797 85.5699 45.2997 84.4399 42.6797C84.7599 42.0097 85.1599 41.3997 85.6399 40.8297C86.0899 40.1497 86.6299 39.5297 87.2399 38.9897C86.1999 39.1397 85.9599 39.8797 86.5199 41.1997C83.3199 43.3697 85.3499 35.7997 85.9599 38.8797C85.9399 40.0197 85.6499 41.0797 85.0899 42.0697C83.7099 43.2297 83.4099 43.0997 84.1999 41.6897L83.4699 41.9497C83.7099 42.9297 83.7399 43.9197 83.5599 44.9097C83.2299 46.7097 82.2499 48.0597 80.9199 49.2597L83.9499 48.8697C81.3599 46.9797 81.9899 47.9797 79.6799 49.4997C78.2099 50.4697 76.6199 50.8997 74.9099 51.1797L77.3399 55.3597C78.7399 53.6997 80.2399 52.2197 81.9099 50.8397C83.8299 49.2497 81.7699 45.8697 79.4799 46.6597C77.1899 47.4497 74.9399 47.7697 72.4799 47.6197V52.6197C75.7199 52.3197 79.6999 50.5097 81.4599 47.5797C83.9099 43.4797 78.9299 41.7397 78.8999 37.9697C78.8799 36.1797 76.7499 34.7097 75.1399 35.8097C73.9999 36.8097 72.7999 36.9397 71.5499 36.1997L73.2999 39.2797L73.4599 38.6797L71.9699 35.0097H71.7899V38.5397L73.7899 37.6597L72.0399 34.5797L75.0099 36.0597L73.2599 37.8097L71.3599 36.5097C69.3999 39.0197 72.9099 42.5797 74.8999 40.0497V40.0697Z" fill="#3A3A3A"/>
<path d="M23.4898 75.7303C26.5998 82.1003 26.8598 88.8903 24.5298 95.5503C23.8398 97.5203 25.8898 98.9103 27.6098 98.6303C32.9498 97.7403 37.9698 100.52 43.2698 100.62C46.8498 100.68 50.3898 99.5403 53.1998 97.3003C56.0098 95.0603 57.9498 91.7903 58.5998 88.2103C59.4798 83.2903 57.2198 78.6703 57.6398 73.7203C58.2298 66.7603 55.5098 59.0103 46.9098 61.1403C42.9298 62.1303 40.2598 65.2703 36.7898 67.1803C33.1298 69.2003 27.5698 68.4803 25.2498 72.3303C23.5798 75.0903 27.9098 77.6103 29.5698 74.8503C30.3198 73.6103 35.3498 73.2403 36.8098 72.6803C39.3698 71.6903 41.3598 70.0803 43.5598 68.5003C46.9798 66.0403 52.3098 64.3803 52.8798 71.0303C53.1298 73.9503 52.2298 76.7603 52.7498 79.7303C53.3798 83.3203 54.5098 86.1403 52.8998 89.6903C51.1698 93.5003 47.4198 95.6903 43.2698 95.6203C37.3598 95.5203 32.2998 92.8003 26.2798 93.8103L29.3598 96.8903C32.1398 88.9403 31.4998 80.7503 27.8198 73.2103C26.4098 70.3203 22.0898 72.8503 23.4998 75.7303H23.4898Z" fill="#3A3A3A"/>
<path d="M54.4897 67.5701C63.0097 69.5301 71.7797 71.0701 80.1797 73.4901C81.7897 73.9501 84.4298 74.5501 85.4598 76.0701C87.1698 78.5801 85.3598 80.6001 84.3398 82.6801C82.6298 86.1701 81.1697 89.6501 80.3597 93.4701C78.8297 100.67 79.4097 107.7 81.3197 114.76C83.5497 123.02 87.0297 132.02 81.8197 139.91L85.2397 139.01C68.8497 131.32 51.7298 142.92 35.0898 137.84L36.5798 141.51C40.6298 135.94 43.0098 129.44 43.2098 122.53C43.2998 119.2 42.7098 115.97 42.2798 112.69C41.8898 109.7 40.5098 103.91 42.7598 101.43C45.0098 98.9501 41.3897 95.5001 39.2197 97.8901C35.3097 102.2 36.6198 107.82 37.3398 113.18C38.6298 122.84 38.1798 130.84 32.2598 138.99C31.2698 140.35 32.3397 142.23 33.7497 142.66C49.8397 147.57 67.3098 136.11 82.7098 143.33C83.9898 143.93 85.3297 143.65 86.1297 142.43C90.9897 135.06 89.7698 126.42 87.5298 118.35C84.4298 107.2 82.8498 96.7601 88.2698 85.9501C91.3398 79.8301 92.8997 73.8301 85.5997 70.1601C81.9497 68.3301 77.6597 67.7601 73.7197 66.8601L55.7997 62.7401C52.6697 62.0201 51.3297 66.8401 54.4697 67.5601L54.4897 67.5701Z" fill="#3A3A3A"/>
<path d="M26.0798 73.2901L16.3098 74.9101L18.2397 79.4801C23.1097 76.4701 24.8598 71.3701 25.2098 65.8501C25.4698 61.8001 24.6698 57.6301 25.5598 53.6201C26.2598 50.4501 28.5997 47.9201 28.3597 44.5501C27.5797 33.7901 11.0897 27.7801 8.40973 40.5601C7.83973 43.2901 8.68978 45.2801 9.08978 47.9101C9.71978 52.1501 7.45978 57.0601 6.08978 60.9701C3.58978 68.0701 0.789775 75.1501 0.209775 82.7301C-0.170225 87.7201 0.629746 93.8201 5.67975 96.2201C11.9097 99.1801 20.2497 94.4701 26.0997 92.4401C29.1197 91.3901 27.8198 86.5601 24.7698 87.6201C20.6498 89.0501 16.2998 91.1501 11.9998 91.8901C3.47975 93.3701 4.86977 82.8401 6.01977 77.6001C7.99977 68.5901 13.0298 60.1201 14.2098 50.9601C14.6598 47.4701 12.3198 44.1601 13.5198 40.7601C15.0598 36.3601 20.2998 38.6701 22.0198 41.7601C23.3898 44.2101 22.7998 46.7601 21.7698 49.2201C18.5598 56.8201 23.7897 70.1801 15.7297 75.1701C13.1997 76.7301 14.9397 80.1901 17.6597 79.7401L27.4297 78.1201C30.5997 77.5901 29.2497 72.7801 26.0997 73.3001L26.0798 73.2901Z" fill="#3A3A3A"/>
<path d="M48.0598 62.8801C41.6298 54.1901 35.7798 45.1001 30.6298 35.5901C26.1798 27.3701 22.2798 20.3901 14.5798 14.8401C12.8498 13.6001 4.57982 5.94011 13.9598 5.52011C16.9598 5.39011 18.7798 9.46012 19.9598 11.5701C22.5898 16.2601 25.3598 20.8801 28.2998 25.3901C33.9398 34.0501 40.1898 42.2901 46.8598 50.1801C48.9398 52.6401 52.4598 49.0901 50.3998 46.6401C41.0998 35.6401 32.7598 23.9001 25.6098 11.3901C23.3698 7.47012 21.3798 2.5701 16.7498 1.0101C12.5098 -0.419895 7.74977 1.6501 5.96977 5.7601C4.18977 9.8701 5.8398 13.9301 8.9398 16.8001C10.9298 18.6401 13.4198 19.8701 15.4598 21.6401C18.0398 23.8801 19.9998 26.7101 21.7298 29.6301C28.9198 41.7701 35.3198 54.0001 43.7498 65.3901C45.6398 67.9501 49.9798 65.4601 48.0698 62.8701L48.0598 62.8801Z" fill="#3A3A3A"/>
<path d="M65.4398 45.6098C68.1098 42.7498 70.6898 39.4898 69.9998 35.3298C69.2498 30.7798 62.8698 28.7599 65.5998 23.4799C67.3698 20.0399 71.6598 19.6198 74.0298 22.7398C75.1998 24.2898 75.7998 26.2199 76.9998 27.7599C80.2598 31.9499 85.0898 31.0498 89.1698 33.7398C95.8598 38.1498 93.0398 46.4498 87.1098 49.7398C84.9998 50.9098 83.0398 52.3699 80.9598 53.5299C79.3498 54.4299 77.5098 55.0399 75.6198 54.4399C74.7598 54.1699 71.9598 52.6099 72.5398 51.3799C72.7598 50.9099 75.3498 50.1499 75.9098 49.4199C76.8198 48.2299 77.0298 46.7299 76.5698 45.2799C75.4098 41.6898 70.8398 38.8098 67.7598 37.0898C64.9498 35.5198 62.4298 39.8299 65.2398 41.4099C66.6898 42.2199 70.0098 43.7199 70.5598 45.3499C71.2598 47.4499 70.6898 46.4299 69.1098 47.4099C67.1798 48.5999 66.2498 50.4598 66.4798 52.7398C67.0198 58.0098 73.4498 59.7199 77.8898 59.6899C80.8998 59.6699 82.5798 58.3799 84.9398 56.7599C87.6598 54.8899 90.9098 53.7998 93.3898 51.5898C97.8298 47.6398 99.3898 41.0698 96.9698 35.6098C95.8598 33.1198 94.0198 30.8999 91.7098 29.4399C88.5998 27.4699 83.9498 27.8498 81.3298 25.2398C79.1998 23.1098 78.6998 19.7899 76.3298 17.7599C74.5698 16.2499 72.3198 15.4698 69.9998 15.5198C64.8098 15.6398 60.5998 19.5999 60.0298 24.6999C59.7498 27.1599 60.2998 29.7099 61.6298 31.8199C62.3898 33.0199 63.8098 33.7998 64.4998 34.9598C66.1798 37.7498 63.7098 40.1499 61.9098 42.0699C59.7098 44.4199 63.2398 47.9598 65.4498 45.6098H65.4398Z" fill="#3A3A3A"/>
<path d="M83.9196 69.4405C83.6996 65.5405 84.2697 61.8605 85.6397 58.1905C86.7597 55.1705 81.9297 53.8705 80.8197 56.8605C79.3197 60.9005 78.6896 65.1305 78.9196 69.4305C79.0996 72.6305 84.0996 72.6505 83.9196 69.4305V69.4405Z" fill="#3A3A3A"/>
<path d="M61.0899 64.2103C60.3199 60.6703 58.6099 57.4803 55.8099 55.1203C55.2999 54.6903 54.7099 54.3703 54.2099 53.9403C52.9499 52.8603 51.3999 52.3703 51.9999 50.7103C52.3099 49.8503 53.8699 49.2003 54.2499 48.0003C54.6299 46.8003 54.3599 45.6703 54.2099 44.5103C53.9699 42.6403 53.3298 43.4804 53.7398 41.2604C54.1498 39.0403 54.4099 39.5503 56.2699 38.7503C60.0399 37.1303 62.3699 34.4003 64.7599 31.1503C66.6699 28.5503 62.3299 26.0603 60.4399 28.6303C58.2699 31.5803 56.4599 33.0703 53.1399 34.6103C51.6599 35.3003 50.1098 35.8204 49.0398 37.1404C48.0698 38.3304 47.6599 39.8303 47.8199 41.3603C47.9199 42.3203 48.3699 43.1003 48.6199 44.0103C49.1399 45.9003 49.3498 45.5103 48.3498 47.0603C47.6098 48.2103 46.4298 48.5003 46.0398 50.1203C45.6898 51.5903 46.0699 53.0903 46.8299 54.3503C47.8399 56.0303 49.4599 56.8203 51.0299 57.8703C53.9599 59.8503 55.4999 62.0703 56.2499 65.5303C56.9299 68.6703 61.7499 67.3404 61.0699 64.2004L61.0899 64.2103Z" fill="#3A3A3A"/>
<path d="M70.6798 19.2396C68.4298 21.3596 66.5598 23.6196 64.8798 26.2096C63.4698 28.3796 66.2098 30.7897 68.2998 29.6297C70.7698 28.2597 75.9598 25.2897 74.1398 21.6997C71.9998 17.4797 66.7898 20.5796 64.7098 22.8696C63.0998 24.6296 64.6498 27.8296 67.1398 27.0496C69.6298 26.2696 71.2898 25.0396 72.8798 22.8296C73.8298 21.4996 72.8298 19.5497 71.3898 19.1597C66.2198 17.7597 59.1099 24.3096 62.0899 29.7796C65.0699 35.2496 73.1599 30.4096 75.0899 26.4596C76.1399 24.3096 73.9398 21.6797 71.6698 23.0397C68.4398 24.9697 66.1198 27.6396 65.7898 31.4596C65.7098 32.3496 66.3299 33.1596 67.0299 33.6196C70.8199 36.1396 78.2198 32.1197 77.9498 27.4197C77.8798 26.2297 77.2098 25.4097 76.1098 25.0097C71.5698 23.3397 65.4398 31.5196 69.3498 35.1096C74.0398 39.4196 80.6198 32.6596 81.9598 28.4296C82.6498 26.2396 80.1298 24.6496 78.2898 25.6096C74.8398 27.3996 67.5698 33.8296 71.4798 38.2396C75.6298 42.9296 81.5398 35.5197 82.6598 31.9197C83.1898 30.2097 81.3698 28.1696 79.5798 28.8396C75.7098 30.3096 68.2598 36.2797 71.9598 41.1597C75.6598 46.0396 82.5498 39.6297 84.1098 36.0397C84.9898 34.0097 82.9998 31.0396 80.6898 32.6196C77.3398 34.9096 69.6398 42.8697 73.9098 47.3497C78.1798 51.8297 84.9698 44.2997 85.8798 40.2897C86.1198 39.2297 85.7298 38.0096 84.7298 37.4696C78.7298 34.1896 71.6898 47.7296 73.7898 52.3396C76.7598 58.8596 87.0798 48.3896 82.6398 44.2096C78.1998 40.0296 70.3798 50.9496 73.7098 54.9397C76.0798 57.7797 80.2598 55.0097 82.3998 53.3797C86.0698 50.5997 88.4198 46.7296 89.6198 42.3296C90.0798 40.6596 88.8098 39.2897 87.2098 39.1697C79.2898 38.5397 80.1299 55.5396 90.0899 49.1297C93.5199 46.9197 96.3198 41.8196 93.8598 37.9596C91.7098 34.5796 87.1399 34.7397 85.0899 38.1297C83.3699 40.9697 84.1698 45.7096 87.8198 46.5796C92.6198 47.7196 94.7198 42.1897 94.2498 38.4197C93.8098 34.8797 90.4598 31.0897 86.6098 33.1997C83.6498 34.8197 82.3098 40.3996 85.3298 42.5596C89.5298 45.5596 92.9098 40.0796 91.9598 36.3396C91.0098 32.5996 85.3598 26.9197 81.7098 31.0997C80.8298 32.1097 80.6998 33.6297 81.7098 34.6397C82.8798 35.7997 83.2398 36.0796 84.6698 36.8996C85.8698 37.5896 87.3599 37.1496 88.0899 35.9996C91.9799 29.8696 83.2598 28.9397 81.6398 24.6397C80.5098 21.6597 75.6798 22.9496 76.8198 25.9696C77.4798 27.7196 78.2298 29.2797 79.6298 30.5697C80.1498 31.0497 84.0398 33.0597 83.7698 33.4797L87.1898 32.5796L85.2498 31.0997V34.6397C84.4998 35.5097 92.5398 40.3196 88.0098 44.2496C84.8898 46.9596 87.7598 44.2196 87.1998 44.1796L84.7898 41.0196C84.1298 43.4496 83.1498 45.5996 81.4598 47.4996C80.6698 48.3896 77.7998 51.5096 76.3198 51.0296L78.0698 52.7796C77.9898 52.5796 79.4598 48.2797 80.1898 48.4097L78.4398 46.6597C78.2398 47.7097 77.7099 48.5896 76.8399 49.2796L78.5899 51.0296C78.1599 49.8996 82.1698 41.7996 82.1898 41.8096L81.0398 38.9896C80.8898 40.3596 80.2999 41.4997 79.2799 42.4197C78.1299 43.3297 77.9598 43.1896 78.7498 42.0196C79.0598 40.0096 81.6698 38.0096 83.1998 36.9596L79.7799 33.5397C79.4299 34.5997 78.8598 35.5296 78.0698 36.3296C75.9198 36.5996 75.2398 37.1397 76.0198 37.9497C75.4198 37.5397 79.8298 34.0896 80.8898 33.6796L77.8098 30.5997C77.1998 31.6297 76.6598 32.6996 76.1998 33.8096C75.6798 34.9396 75.9799 34.5596 77.0899 32.6796C78.2099 31.5596 79.3599 30.6696 80.7799 29.9296L77.1098 27.1096C76.7098 28.7596 75.7798 29.9796 74.3098 30.7496C73.1598 31.7496 73.3098 31.4497 74.7498 29.8497L72.9098 27.4397C72.1198 28.5297 70.9898 29.1596 69.5198 29.3296L70.7598 31.4896C70.9198 29.6196 72.7098 28.2497 74.1698 27.3897L70.7498 23.9696C70.2398 25.4796 69.1698 26.5096 67.5398 27.0796C65.6498 26.3296 66.4799 25.3096 70.0299 24.0296L68.5398 20.3596L65.7898 22.2897L68.2198 26.4696L70.1898 24.7996L69.5498 22.3696C69.3698 23.6996 66.8798 24.7597 65.7498 25.3797L69.1698 28.7996C70.6198 26.5696 72.2598 24.6496 74.1898 22.8396C76.5398 20.6296 72.9998 17.0996 70.6498 19.2996L70.6798 19.2396Z" fill="#3A3A3A"/>
<path d="M38.5598 144.15C41.7798 144.15 41.7798 139.15 38.5598 139.15C35.3398 139.15 35.3398 144.15 38.5598 144.15Z" fill="#3A3A3A"/>
<path d="M34.9698 141.52C34.3498 152.38 32.4998 163.09 29.3198 173.49C26.1398 183.89 21.0998 192.59 17.4098 202.39C13.7198 212.19 14.7798 222.23 15.6198 232.37C16.5898 244.23 17.5698 256.09 18.5398 267.96C18.7998 271.14 23.7998 271.17 23.5398 267.96C22.5898 256.43 21.6498 244.89 20.6998 233.36C19.7498 221.83 18.9398 210.65 24.0798 199.43C32.6498 180.7 38.7898 162.25 39.9798 141.52C40.1598 138.31 35.1598 138.32 34.9798 141.52H34.9698Z" fill="#3A3A3A"/>
<path d="M22.8797 265.82C16.1897 263.9 7.03972 269.56 5.90972 276.53C4.28972 286.55 15.8997 287.58 22.9797 287.29C30.5497 286.99 41.6498 286.85 41.0898 276.75C40.9198 273.67 40.0897 269.62 36.9897 268.16C35.4797 267.45 33.9698 267.66 32.3998 267.9C28.8898 268.44 26.2298 267.75 23.8898 264.92C21.8398 262.44 18.3197 265.99 20.3497 268.46C22.3797 270.93 25.3097 272.76 28.6597 273.15C30.1897 273.33 32.3197 272.45 33.7297 272.73C37.7597 273.54 35.8397 279.88 33.5497 280.98C29.3397 283 21.3198 282.71 16.7698 282.24C12.5898 281.81 9.04973 278.59 12.2997 274.43C14.1497 272.06 18.6397 269.81 21.5597 270.65C24.6597 271.54 25.9798 266.71 22.8898 265.83L22.8797 265.82Z" fill="#3A3A3A"/>
<path d="M39.8099 270.32C37.8799 259.31 36.5699 248.17 36.1899 236.99C35.9799 230.96 36.8099 225.75 39.6699 220.36C41.9599 216.03 44.5499 211.86 47.0399 207.64C56.1099 192.25 64.9699 176.26 65.6399 157.99C65.7599 154.77 60.7599 154.78 60.6399 157.99C59.9099 178.28 48.2599 195.5 38.3899 212.49C36.1899 216.27 33.8599 220.1 32.4899 224.29C30.9499 229.01 31.0499 234.02 31.2799 238.92C31.7999 249.9 33.0999 260.83 34.9999 271.66C35.5499 274.82 40.3699 273.48 39.8199 270.33L39.8099 270.32Z" fill="#3A3A3A"/>
<path d="M55.7898 182.82C56.9898 197.15 61.0498 210.18 66.8998 223.24C70.3598 230.97 69.8198 239.46 69.5698 247.77C69.3198 256.08 68.6098 264.23 67.4698 272.39C67.0298 275.54 71.8498 276.9 72.2898 273.72C73.3598 266.04 74.1398 258.34 74.4698 250.59C74.7798 243.33 75.4198 235.42 73.9298 228.26C72.4398 221.1 67.9598 214.18 65.6198 207C63.0598 199.14 61.4698 191.05 60.7798 182.81C60.5098 179.63 55.5098 179.6 55.7798 182.81L55.7898 182.82Z" fill="#3A3A3A"/>
<path d="M70.4097 274.24C76.6997 278.1 83.9798 278.92 90.9498 276.45C92.1698 276.02 93.1498 274.73 92.6998 273.37C89.1798 262.86 91.3197 251.94 92.2897 241.19C93.3397 229.62 93.6297 217.99 93.1897 206.38C92.3297 183.87 88.6798 161.52 82.4598 139.88C81.5698 136.79 76.7498 138.11 77.6398 141.21C84.0898 163.66 87.7497 186.79 88.3097 210.15C88.5797 221.45 88.1498 232.76 87.0198 244C85.9798 254.32 84.5097 264.64 87.8797 274.7L89.6297 271.62C83.8597 273.66 78.1697 273.12 72.9397 269.91C70.1897 268.22 67.6697 272.55 70.4197 274.23L70.4097 274.24Z" fill="#3A3A3A"/>
<path d="M71.9797 267.5C66.1197 265.49 56.7897 264.6 52.3797 270.08C48.4597 274.96 51.9297 281.42 56.9197 283.8C60.3397 285.43 64.3497 285.47 68.0497 285.63C72.9097 285.84 77.7897 285.92 82.6397 285.46C85.6097 285.18 89.0597 284.93 91.1897 282.54C93.4997 279.95 92.1597 278 92.0697 275.06C91.9797 271.85 86.9797 271.84 87.0697 275.06C87.1397 277.43 88.6097 278.68 85.1497 280.16C83.5097 280.86 80.7397 280.63 78.9997 280.71C75.0497 280.89 71.0897 280.78 67.1397 280.59C63.7597 280.43 55.3297 280.21 55.6597 274.76C56.0197 268.84 68.0297 271.43 70.6497 272.32C73.6997 273.36 75.0097 268.54 71.9797 267.5Z" fill="#3A3A3A"/>
<path d="M18.2197 275.04C18.3897 272.49 18.6298 268.33 14.5298 269.23C11.5298 269.88 9.79976 275.07 10.3098 277.74C11.7998 285.42 23.9698 276.76 20.0798 270.76C19.6198 270.06 18.8097 269.45 17.9197 269.52C14.2597 269.81 9.64974 276.28 13.2897 279.23C18.0897 283.12 22.1098 273.92 22.8998 270.66C23.3498 268.82 21.7098 267.08 19.8198 267.58C15.7998 268.67 12.5398 275.28 15.3298 279C18.9098 283.76 23.4697 278.09 24.9097 274.64C26.3497 271.19 25.3198 264.69 20.0798 267.41C16.3498 269.34 13.6497 277.42 15.8497 281.04C18.4597 285.33 23.2597 280.91 24.5397 277.88C26.1597 274.03 23.2097 269.17 18.7197 270.91C15.4597 272.17 11.3498 278.11 13.8998 281.52C16.8798 285.5 21.9598 280.41 22.5698 277.13C22.8398 275.67 21.9097 273.82 20.1597 273.97C17.2097 274.21 14.4898 275.66 13.5298 278.67C12.8298 280.87 13.4998 283.56 16.0898 283.86C20.7398 284.4 28.0898 273.77 21.4398 272.84C20.3998 272.7 19.1298 272.92 18.6198 273.99C17.1198 277.09 15.0097 284.16 20.4197 285.07C25.4497 285.91 28.0798 277.97 28.8098 274.42C29.1398 272.83 28.1098 271.27 26.3998 271.26C19.4098 271.18 18.3798 286.35 25.1098 284.81C30.2598 283.63 35.7297 269.52 27.9697 268.99C27.0897 268.93 26.2598 269.52 25.8098 270.23C23.6798 273.6 22.8298 283.14 29.1398 282.43C33.7098 281.91 35.6098 274.43 32.3898 271.51C31.2998 270.52 29.1798 270.48 28.4598 272.02C27.0398 275.07 25.4398 282.17 30.8398 282.59C35.8998 282.98 37.3298 276.11 36.3298 272.52C35.7698 270.5 32.7998 270.01 31.7598 271.92C30.2998 274.61 28.5698 281.25 33.3698 281.83C38.1698 282.41 38.4798 274.44 37.6798 271.51C37.1798 269.67 34.8498 269.11 33.4998 270.41C31.4198 272.41 31.0198 274.78 30.1698 277.43C28.6497 282.16 19.9898 279.63 16.1498 279.22C12.9498 278.88 12.9798 283.88 16.1498 284.22C20.6998 284.71 27.8098 286.92 31.8998 283.87C35.2898 281.34 34.2497 276.63 37.0397 273.94L32.8598 272.84C33.3398 274.62 32.9198 276.62 31.8798 278.12L34.0397 276.88C35.2097 276.51 35.8898 275.7 36.0798 274.45L31.5098 273.85C31.7198 274.69 31.8398 275.54 31.8698 276.4C31.8998 278.33 32.1998 277.72 32.7798 274.54L28.8497 275.05C29.5597 275.7 27.6497 277.32 28.8497 276.9C29.4797 276.68 29.7198 273.39 30.1198 272.75L27.9598 273.99L28.6998 274.04L26.5397 272.8C27.1997 273.83 25.3498 279.85 23.8198 279.85L25.9797 281.09C25.6997 280.72 25.6098 276.25 26.3898 276.26L23.9797 273.1C23.6297 274.81 23.1998 276.12 22.4498 277.73C21.5798 279.59 21.7698 278.92 22.9298 276.52L20.1098 277.67C19.0098 276.59 18.1498 276.64 17.5198 277.83C17.2098 278.46 16.7298 278.8 16.0898 278.86L18.2498 280.1L20.1597 278.97L17.7498 275.81L16.0598 277.77L18.2197 279.01C18.4397 278.04 18.8898 277.17 19.5598 276.39C18.9698 276.74 18.7197 277.17 18.7897 277.68L20.5397 279.43C20.0097 277.91 20.2797 276.35 20.7897 274.87C20.8597 274.66 22.8498 270.88 20.7798 271.4C20.8198 271.4 19.3498 274.37 19.3398 274.64C19.3398 274.86 20.5197 272.6 21.1597 272.43L18.0798 269.35C17.7198 270.84 16.2298 272.65 16.1298 273.92C15.0598 274.88 15.2298 275.21 16.6498 274.92C17.5198 275.34 17.9497 275.22 17.9197 274.55L15.7598 273.31C15.4198 274.4 14.7698 275.22 13.8198 275.77L15.5698 277.52C15.4798 277.3 15.5797 274.26 15.7197 274.27L13.5598 273.03C13.5098 272.95 13.2097 275.22 13.2197 275.08C13.0097 278.29 18.0097 278.28 18.2197 275.08V275.04Z" fill="#3A3A3A"/>
<path d="M17.0697 271.651L17.6597 270.591C19.6797 269.061 18.6297 264.881 15.7297 266.021C9.98968 268.271 0.929703 274.261 2.4397 281.671C4.3797 291.161 17.9397 285.691 23.8997 286.271C27.0997 286.581 27.0797 281.581 23.8997 281.271C21.6497 281.051 19.4997 281.291 17.2797 281.661C15.0597 282.031 11.2997 283.351 9.27973 282.141C3.42973 278.631 14.0297 272.031 17.0497 270.851L15.1197 266.281C13.5897 267.441 12.7597 268.441 12.2297 270.331C11.3597 273.431 16.1797 274.761 17.0497 271.661L17.0697 271.651Z" fill="#3A3A3A"/>
<path d="M8.42963 281.69C10.9596 286.85 16.4896 287.51 21.6696 287.42C24.9396 287.36 24.8296 282.71 21.6696 282.42C18.7596 282.15 6.12961 281.04 6.71961 276.22C7.02961 273.73 10.7396 272.03 12.7496 271.32C15.5896 270.32 18.5596 270.18 21.4996 270.76C24.6396 271.38 25.9897 266.56 22.8297 265.94C15.7197 264.53 2.79965 266.74 1.75965 275.84C0.699646 285.17 15.3596 286.84 21.6596 287.42V282.42C18.3196 282.48 14.4396 282.64 12.7396 279.17C11.3196 276.28 7.00962 278.81 8.41962 281.69H8.42963Z" fill="#3A3A3A"/>
<path d="M57.0497 275.59L57.8998 274.53L53.9697 271.5C52.9197 273.22 52.5497 274.63 52.6597 276.64C52.7697 278.65 54.6897 279.72 56.4197 278.8C59.3297 277.25 61.1398 274.86 61.7598 271.62C62.0998 269.86 60.6297 267.91 58.6797 268.54C55.2597 269.65 51.3697 276.11 55.4897 278.82C60.4497 282.09 65.0498 273.16 64.6398 269.4C64.3998 267.26 62.0798 266.09 60.3698 267.63C57.5198 270.21 53.4198 280.6 60.0898 281.39C65.1498 281.99 69.4997 272.75 66.6097 269.03C66.0597 268.32 64.9797 268.22 64.1797 268.39C59.9097 269.25 58.3298 276.8 59.1498 280.32C59.3398 281.11 60.0798 281.91 60.8998 282.07C65.6698 283.01 68.2497 277.3 69.4697 273.51C70.0697 271.64 68.1698 269.99 66.3898 270.43C62.8098 271.32 58.0398 277.55 60.8698 281.26C64.5698 286.11 70.1298 278.07 71.4998 275.15C72.6698 272.65 69.7298 270.07 67.5698 272.12C65.4098 274.17 62.3697 279.8 66.0497 282.15C69.7297 284.5 72.6897 278.98 74.0497 276.58L69.7297 274.06C68.6297 276.13 67.9097 279.01 70.2897 280.56C73.1997 282.46 75.2198 279.65 77.0698 277.85L73.1398 274.82C69.6398 280.51 78.4598 284.34 80.2698 277.87L75.6998 278.47C77.8398 282.78 83.9497 280.69 87.5997 280.16L85.6697 275.59L84.1198 276.47C81.3198 278.06 83.8398 282.38 86.6398 280.79L88.1898 279.91C90.8398 278.41 88.8898 274.96 86.2598 275.34C85.6598 275.43 80.2598 276.45 80.0098 275.95C79.0298 273.97 75.9898 274.58 75.4398 276.55L77.4398 277.35C78.9398 274.9 75.5298 272.35 73.5098 274.32C73.1198 274.62 72.7898 274.97 72.4998 275.37C71.8698 276.01 72.3798 276.42 74.0298 276.59C75.5398 273.76 71.3098 271.26 69.7098 274.07C69.7098 274.06 67.5898 277.51 67.9498 277.6L69.6998 279.35L71.0798 275.67L67.1498 272.64C66.8698 273.25 64.3598 276.71 64.3398 276.88C63.8898 281 67.3597 275.35 67.6797 275.27L64.5997 272.19C64.5997 272.19 62.6197 277.35 62.1797 277.26L63.9297 279.01C63.8597 278.71 64.3997 273.44 65.4697 273.23L63.0397 272.59C62.6697 272.11 61.5398 275.99 61.4998 274.72C61.4698 273.59 63.2297 271.76 63.8597 271.19L59.5898 269.42C59.7598 271.92 58.7998 273.51 56.7098 274.18L58.8698 275.42L59.9697 273.38L56.8898 270.3C56.5098 272.26 55.6297 273.54 53.8497 274.49L57.6097 276.65L58.2397 274.04C59.6797 271.68 56.1198 268.75 54.3098 271.01L53.4598 272.07C51.4698 274.56 54.9898 278.12 56.9998 275.61L57.0497 275.59Z" fill="#3A3A3A"/>
<path d="M67.6698 272.83C71.4598 273.44 74.9799 275.08 78.7699 275.75C82.3299 276.38 85.8799 276.53 89.4899 276.29L86.9899 273.79C86.9599 276.13 87.2299 278.27 87.8199 280.54C88.4599 282.98 91.9399 282.86 92.6399 280.54C93.3699 278.1 93.3598 276.06 92.4798 273.63C91.5198 271 87.7299 271.39 87.5699 274.29C87.4599 276.31 87.4298 278.32 87.4798 280.35C87.5598 283.56 92.5598 283.57 92.4798 280.35C92.4298 278.32 92.4599 276.31 92.5699 274.29L87.6598 274.95C88.3798 276.29 88.4299 277.7 87.8199 279.2H92.6399C92.1599 277.37 91.9599 275.67 91.9899 273.78C92.0099 272.5 90.8299 271.19 89.4899 271.28C85.8099 271.53 82.1999 271.41 78.5799 270.62C75.3299 269.91 72.2899 268.53 68.9999 268C65.7099 267.47 64.4998 272.31 67.6698 272.82V272.83Z" fill="#3A3A3A"/>
</svg>
