<svg width="111" height="237" viewBox="0 0 111 237" fill="none" xmlns="http://www.w3.org/2000/svg">
<path d="M17.85 153.051C17.13 130.501 16.75 107.951 16.73 85.3907C16.73 80.3907 16.5001 75.3106 16.8901 70.3306C17.3801 63.9406 20.13 59.8906 26.49 58.3206C37.35 55.6306 48.48 56.0006 59.52 56.8306C67.87 57.4606 82.6 54.3106 88.1 62.3706C90.76 66.2806 90.86 71.5107 91.04 76.0607C91.2701 81.8107 91.35 87.5607 91.36 93.3107C91.37 104.401 91.07 115.481 90.8 126.561C90.6 134.601 92.4701 147.831 85.6701 153.761C81.48 157.411 73.55 157.491 68.28 158.401C62.25 159.441 56.21 160.641 50.11 161.221C38.53 162.311 25.19 160.571 17.11 151.301C14.99 148.871 11.47 152.421 13.57 154.841C29.57 173.191 58.91 165.671 79.38 161.541C89.48 159.501 94.1301 152.951 95.2001 142.961C96.55 130.431 96.08 117.431 96.27 104.831C96.46 92.2306 97.5701 79.2106 95.1701 67.1206C93.2201 57.2906 85.95 52.7706 76.36 52.2406C70.74 51.9306 65.14 52.2706 59.52 51.8506C52.18 51.3006 44.9901 50.9006 37.6401 51.5906C28.1401 52.4806 16.2 53.4806 12.93 64.1106C11.14 69.9206 11.74 76.5006 11.73 82.4806C11.73 90.3306 11.76 98.1707 11.84 106.021C12 121.711 12.34 137.401 12.84 153.081C12.94 156.291 17.94 156.301 17.84 153.081L17.85 153.051Z" fill="#FF46A0"/>
<path d="M21.4801 171.18C14.7601 172.36 7.37005 173.94 3.13005 179.82C-0.119954 184.33 -0.769974 190.3 2.86003 194.79C7.64003 200.7 16.02 200.64 22.93 201.07C32.07 201.64 41.13 201.8 50.21 200.41C53.38 199.92 52.03 195.11 48.88 195.59C43.12 196.47 37.33 196.65 31.52 196.49C25.71 196.33 19.21 196.4 13.46 195.17C6.80003 193.75 2.60004 187.56 7.94004 181.79C11.67 177.76 17.67 176.9 22.82 175.99C25.98 175.43 24.64 170.61 21.49 171.17L21.4801 171.18Z" fill="#FF46A0"/>
<path d="M56.3201 200.581C65.9401 201.291 75.5501 200.941 85.0901 199.471C90.0401 198.711 94.9601 197.651 99.7601 196.251C102.62 195.421 105.74 194.541 107.9 192.361C112.52 187.701 108.92 180.851 105.23 176.791C100.71 171.831 94.1501 169.271 87.5001 169.571C84.3001 169.721 84.2801 174.721 87.5001 174.571C92.8901 174.331 98.0301 176.271 101.7 180.321C104.09 182.971 105.84 187.551 102.43 190.031C100.35 191.541 96.3301 192.021 93.9001 192.621C81.5901 195.631 68.9601 196.501 56.3301 195.571C53.1201 195.331 53.1401 200.331 56.3301 200.571L56.3201 200.581Z" fill="#FF46A0"/>
<path d="M46.0005 137.454C46.4309 168.497 47.4219 199.541 48.9834 230.556C49.2837 236.468 59.2937 236.495 58.9934 230.556C57.4318 199.541 56.4308 168.507 56.0104 137.454C55.9304 131.524 45.9204 131.506 46.0005 137.454Z" fill="#FF46A0"/>
<path d="M20.46 155.661C20.11 149.871 19.86 144.081 19.72 138.291C19.68 136.681 17.18 136.681 17.22 138.291C17.37 144.091 17.61 149.881 17.96 155.661C18.06 157.261 20.56 157.271 20.46 155.661Z" fill="#FF46A0"/>
<path d="M24.24 157.802C24.34 151.842 24.19 145.902 23.78 139.952C23.67 138.352 21.17 138.342 21.28 139.952C21.69 145.902 21.85 151.842 21.74 157.802C21.71 159.412 24.21 159.412 24.24 157.802Z" fill="#FF46A0"/>
<path d="M29.64 159.952C29.14 153.282 29.1 146.632 29.52 139.952C29.62 138.342 27.12 138.352 27.02 139.952C26.6 146.622 26.64 153.282 27.14 159.952C27.26 161.542 29.76 161.562 29.64 159.952Z" fill="#FF46A0"/>
<path d="M36.13 162.089C35.25 155.129 34.71 148.149 34.49 141.139C34.44 139.539 31.94 139.529 31.99 141.139C32.21 148.149 32.76 155.129 33.63 162.089C33.83 163.659 36.33 163.679 36.13 162.089Z" fill="#FF46A0"/>
<path d="M41.74 161.131C41.65 154.461 41.03 147.861 39.88 141.291C39.6 139.711 37.19 140.381 37.47 141.951C38.58 148.301 39.16 154.681 39.24 161.131C39.26 162.741 41.76 162.741 41.74 161.131Z" fill="#FF46A0"/>
<path d="M60.66 160.181C60.48 156.761 60.16 153.351 59.71 149.951C59.5 148.381 57 148.361 57.21 149.951C57.66 153.351 57.98 156.761 58.16 160.181C58.25 161.781 60.75 161.791 60.66 160.181Z" fill="#FF46A0"/>
<path d="M65.9 158.992L64.67 144.952C64.53 143.362 62.03 143.342 62.17 144.952L63.4 158.992C63.54 160.582 66.04 160.602 65.9 158.992Z" fill="#FF46A0"/>
<path d="M71.12 158.752C71.23 153.032 71.17 147.322 70.94 141.612C70.88 140.012 68.38 140.002 68.44 141.612C68.67 147.322 68.73 153.032 68.62 158.752C68.59 160.362 71.09 160.362 71.12 158.752Z" fill="#FF46A0"/>
<path d="M76.6801 158.282C76.8501 151.612 76.7301 144.952 76.3401 138.292C76.2501 136.692 73.7401 136.682 73.8401 138.292C74.2301 144.952 74.3501 151.612 74.1801 158.282C74.1401 159.892 76.6401 159.892 76.6801 158.282Z" fill="#FF46A0"/>
<path d="M81.9201 158.03C81.6101 151.44 81.17 144.86 80.61 138.28C80.47 136.69 77.97 136.67 78.11 138.28C78.67 144.85 79.1101 151.44 79.4201 158.03C79.5001 159.63 82.0001 159.64 81.9201 158.03Z" fill="#FF46A0"/>
<path d="M85.69 155.9C86.23 151.63 86.46 147.351 86.35 143.041C86.31 141.431 83.81 141.431 83.85 143.041C83.95 147.351 83.73 151.62 83.19 155.9C82.99 157.49 85.49 157.48 85.69 155.9Z" fill="#FF46A0"/>
<path d="M44.91 163.281C44.93 156.821 44.52 150.411 43.66 144.021C43.45 142.451 40.95 142.431 41.16 144.021C42.02 150.421 42.43 156.831 42.41 163.281C42.41 164.891 44.9 164.891 44.91 163.281Z" fill="#FF46A0"/>
<path d="M10.17 193.402L8.74001 186.742C8.40001 185.172 5.99001 185.832 6.33001 187.402L7.76003 194.062C8.10003 195.632 10.51 194.972 10.17 193.402Z" fill="#FF46A0"/>
<path d="M14.94 196.971C14.17 193.741 13.52 190.501 12.99 187.221C12.73 185.641 10.32 186.311 10.58 187.881C11.11 191.151 11.76 194.401 12.53 197.631C12.9 199.191 15.32 198.531 14.94 196.971Z" fill="#FF46A0"/>
<path d="M19.41 195.31L18.27 187.92C18.02 186.33 15.62 187.01 15.86 188.58L17 195.97C17.25 197.56 19.65 196.88 19.41 195.31Z" fill="#FF46A0"/>
<path d="M23.7801 196.829C23.8301 193.739 23.4901 190.699 22.7601 187.699C22.3801 186.139 19.9701 186.799 20.3501 188.359C21.0301 191.149 21.3301 193.959 21.2801 196.829C21.2501 198.439 23.7501 198.439 23.7801 196.829Z" fill="#FF46A0"/>
<path d="M28.56 197.072C28.51 193.582 28.06 190.152 27.21 186.762C26.82 185.202 24.41 185.862 24.8 187.422C25.6 190.592 26.01 193.792 26.06 197.062C26.08 198.672 28.58 198.672 28.56 197.062V197.072Z" fill="#FF46A0"/>
<path d="M33.52 197.54C33.66 194.94 33.49 192.39 33.06 189.82C32.79 188.24 30.38 188.91 30.65 190.48C31.05 192.82 31.15 195.16 31.03 197.53C30.94 199.14 33.44 199.13 33.53 197.53L33.52 197.54Z" fill="#FF46A0"/>
<path d="M38.0401 197.54C38.2301 194.47 38.0401 191.44 37.5601 188.4C37.3001 186.82 34.9001 187.49 35.1501 189.06C35.6001 191.87 35.7101 194.69 35.5401 197.54C35.4401 199.15 37.9401 199.14 38.0401 197.54Z" fill="#FF46A0"/>
<path d="M43.44 197.321C43.64 192.961 43.31 188.661 42.49 184.371C42.19 182.791 39.78 183.461 40.08 185.031C40.85 189.101 41.13 193.171 40.94 197.311C40.87 198.921 43.37 198.911 43.44 197.311V197.321Z" fill="#FF46A0"/>
<path d="M48.5901 196.601C48.8801 193.891 48.8701 191.201 48.5501 188.501C48.3701 186.921 45.8601 186.901 46.0501 188.501C46.3601 191.201 46.3801 193.901 46.0901 196.601C45.9201 198.201 48.4201 198.191 48.5901 196.601Z" fill="#FF46A0"/>
<path d="M62.3501 196.829C62.3501 193.759 62.0701 190.719 61.5501 187.699C61.2801 186.119 58.8701 186.789 59.1401 188.359C59.6301 191.169 59.8501 193.979 59.8501 196.829C59.8501 198.439 62.3501 198.439 62.3501 196.829Z" fill="#FF46A0"/>
<path d="M66.37 196.12C66.17 193.3 65.84 190.489 65.4 187.689C65.15 186.109 62.74 186.78 62.99 188.35C63.39 190.93 63.68 193.51 63.87 196.11C63.99 197.71 66.49 197.72 66.37 196.11V196.12Z" fill="#FF46A0"/>
<path d="M70.56 196.371C70.07 192.641 69.65 188.911 69.3 185.161C69.15 183.571 66.65 183.561 66.8 185.161C67.15 188.901 67.57 192.641 68.06 196.371C68.27 197.941 70.77 197.961 70.56 196.371Z" fill="#FF46A0"/>
<path d="M74.96 195.399L74.47 185.639C74.39 184.039 71.89 184.029 71.97 185.639L72.46 195.399C72.54 196.999 75.04 197.009 74.96 195.399Z" fill="#FF46A0"/>
<path d="M79.9501 194.932C79.9601 191.262 79.74 187.622 79.27 183.982C79.07 182.412 76.57 182.392 76.77 183.982C77.23 187.622 77.4601 191.272 77.4501 194.932C77.4501 196.542 79.9501 196.542 79.9501 194.932Z" fill="#FF46A0"/>
<path d="M84.56 194.459C84.37 190.959 84.42 187.469 84.71 183.979C84.85 182.379 82.34 182.389 82.21 183.979C81.92 187.469 81.86 190.959 82.06 194.459C82.15 196.059 84.65 196.069 84.56 194.459Z" fill="#FF46A0"/>
<path d="M90.21 194.211L89.9401 182.311C89.9001 180.701 87.4001 180.701 87.4401 182.311L87.71 194.211C87.75 195.821 90.25 195.821 90.21 194.211Z" fill="#FF46A0"/>
<path d="M96.73 193.111C97.23 189.441 97.44 185.781 97.3 182.081C97.24 180.481 94.74 180.471 94.8 182.081C94.93 185.551 94.79 189.011 94.32 192.451C94.11 194.021 96.51 194.701 96.73 193.111Z" fill="#FF46A0"/>
<path d="M93.74 193.021L92.81 183.261C92.66 181.671 90.16 181.661 90.31 183.261L91.24 193.021C91.39 194.611 93.89 194.621 93.74 193.021Z" fill="#FF46A0"/>
<path d="M100.37 190.502L101.06 188.352C101.27 187.712 100.82 186.992 100.19 186.812C99.51 186.622 98.86 187.042 98.65 187.682L97.96 189.832C97.75 190.472 98.2 191.192 98.83 191.372C99.51 191.562 100.16 191.142 100.37 190.502Z" fill="#FF46A0"/>
<path fill-rule="evenodd" clip-rule="evenodd" d="M12.2991 236.844C38.4892 236.241 64.6807 235.668 90.8734 235.197C91.3695 233.725 90.6175 231.79 88.61 231.821L47.62 232.391C44.2875 232.436 40.9575 232.483 37.6275 232.531C34.2925 232.578 30.9575 232.626 27.62 232.671C26.897 232.681 26.1683 232.679 25.4374 232.677C21.2853 232.665 17.0654 232.653 13.46 234.941C12.6887 235.43 12.3402 236.131 12.2991 236.844Z" fill="#FF46A0"/>
<path d="M87 169.5L22 171L22.5 176L87 174.5V169.5Z" fill="#FF46A0"/>
</svg>
