<svg width="111" height="237" viewBox="0 0 111 237" fill="none" xmlns="http://www.w3.org/2000/svg">
<path d="M20.79 162.19C22 168.07 23.7 174.72 29.06 178.22C35.7 182.55 46.0501 181.67 53.5401 181.34C58.14 181.14 62.73 180.71 67.3 180.2C71.33 179.75 76.3 179.89 80.11 178.4C87.25 175.6 84.66 166.95 85.49 161.18C85.94 158.03 81.1201 156.67 80.6701 159.85C80.3101 162.39 80.39 164.72 80.4 167.28C80.4 169.51 80.58 170.86 78.91 172.59C77.24 174.32 75.49 174.21 73.19 174.5C66.66 175.32 60.12 176.05 53.5401 176.34C47.5701 176.6 40.47 177.16 34.71 175.32C28.25 173.26 26.82 166.74 25.61 160.86C24.96 157.71 20.14 159.04 20.79 162.19Z" fill="#3A3A3A"/>
<path d="M27.93 199.67C30.51 210.53 31.91 221.54 32.14 232.7C32.2 235.91 37.2 235.92 37.14 232.7C36.91 221.1 35.44 209.63 32.76 198.34C32.02 195.21 27.19 196.54 27.94 199.67H27.93Z" fill="#3A3A3A"/>
<path d="M72.54 199.061C72.17 209.991 72.36 220.911 73.1 231.821C73.32 235.011 78.32 235.041 78.1 231.821C77.36 220.911 77.17 209.991 77.54 199.061C77.65 195.841 72.65 195.851 72.54 199.061Z" fill="#3A3A3A"/>
<path d="M40.15 50.7102C41.63 47.1702 42.3 43.7403 42.4 39.9203C42.47 37.1503 38.07 36.4602 37.49 39.2602C36.54 43.8102 36.17 48.2903 36.43 52.9303C36.56 55.2003 39.95 56.6002 41.09 54.1902C42.8 50.5902 44.12 46.9902 45.05 43.1002L40.23 41.7702C39.39 45.7102 39.35 49.4402 40.06 53.4002C40.47 55.7102 43.52 55.5802 44.63 54.0002C46.79 50.9302 47.74 47.7302 47.72 43.9802C47.71 41.1702 43.56 40.5702 42.81 43.3202C41.99 46.3302 40.69 52.4602 44.4 54.1302C45.45 54.6002 46.56 54.5702 47.43 53.7402C49.95 51.3302 50.93 47.1202 51.53 43.8302C52.13 40.5402 47.77 39.4302 46.71 42.5002C45.49 46.0502 45.02 49.4303 45.21 53.1703L46.45 51.0102L46.32 51.1002C43.69 52.9202 46.19 57.2603 48.84 55.4203C47.38 56.4403 51.01 55.6103 51.86 54.5403C54.05 51.7803 54.7 46.8002 55.24 43.5002C55.75 40.3902 51.28 39.0003 50.42 42.1703C49.56 45.3403 47.31 53.1002 50.53 55.6102C51.19 56.1202 52.09 56.6102 52.96 56.2502C56.8 54.6702 57.98 48.1702 58.73 44.5802C59.41 41.3502 55.13 40.3402 53.91 43.2502C52.69 46.1602 49.96 54.9302 54.76 56.2702C59.56 57.6102 62.18 47.9403 62.96 45.0503C63.67 42.4103 59.6 40.4702 58.39 43.1202C56.83 46.5302 54.39 51.9303 57.51 55.0503C58.67 56.2103 60.6 55.9103 61.44 54.5403C63.42 51.3203 65.01 48.0202 66.37 44.4902L61.55 43.1603C60.84 46.1203 59.17 49.5703 60.82 52.4103C61.22 53.1003 62.13 53.7502 62.98 53.6502C67.3 53.1502 69.26 47.9602 71.47 44.6902L67.15 42.1703C65.21 45.5203 64.42 48.8902 64.83 52.7402C65.1 55.2502 67.99 56.0902 69.49 54.0002C71.49 51.2102 72.9 48.3402 73.98 45.0902C74.91 42.2802 70.92 40.9103 69.41 43.1603C67.12 46.5903 64.62 51.7502 67.59 55.3702C68.17 56.0802 69.2 56.1702 70.02 56.0102C73.87 55.2702 75.18 50.2802 75.93 46.9602C76.54 44.2602 72.82 42.5002 71.36 45.0302C69.77 47.8002 69.41 50.3402 69.83 53.4702C70.08 55.3502 72.85 55.8402 74.01 54.5702C75.43 53.0102 76.21 51.6502 76.73 49.6102C77.44 46.7702 73.75 45.3903 72.16 47.6803C71.14 49.1603 70.79 50.4602 70.63 52.2302C70.4 54.8402 74.07 55.4402 75.29 53.4902C78.61 48.1802 78.66 42.9202 76.72 37.1502C76.07 35.2002 74.89 34.6702 75.42 31.9502C75.7 30.5402 76.74 29.1603 77.26 27.8003C78.29 25.1103 78.49 22.5002 77.67 19.7202C77.02 17.5002 75.72 15.4302 73.89 14.0102C71.79 12.3702 69.47 12.5102 67.03 11.7002C60.16 9.42017 56.31 2.12026 48.99 0.550264C44.42 -0.429736 39.88 1.10027 37.3 5.06027C35.93 7.17027 35.31 9.59027 34.45 11.9303C33.19 15.3503 31.21 16.9403 28.69 19.4203C25.05 23.0003 24.38 28.2203 27.14 32.5603C29.9 36.9003 35.79 38.9403 37.61 43.9303C38.51 46.4103 42.7 46.2702 42.52 43.2702C42.09 36.2102 40.62 29.4803 37.92 22.9203C37.07 20.8603 34.69 20.5102 33.35 22.3202C32.34 23.7002 31.68 25.0102 31.02 26.5802C29.94 29.1702 34.47 31.1102 35.59 28.5102C36.61 26.1402 37.62 23.7702 38.64 21.4002C39.88 18.5102 36.1 16.0902 34.32 18.8802C32.68 21.4502 31.25 24.0602 29.99 26.8302C28.91 29.1902 31.96 32.2302 33.92 29.8602C36.5 26.7302 41.88 21.5302 38.62 17.5002C37.51 16.1202 35.55 16.8602 34.69 18.0102C32.2 21.3602 30.53 24.9003 29.46 28.9303C28.86 31.2103 31.96 33.3502 33.64 31.3602C36.63 27.8202 38.08 24.0102 37.9 19.3602C37.81 16.9302 34.52 15.8902 33.24 18.1002C31.43 21.2402 26.61 33.1102 32.89 34.6402C38.71 36.0502 40.81 24.3202 41.14 20.7002C41.33 18.6202 38.21 17.2903 36.87 18.9303C34.41 21.9403 29.73 31.5502 34.59 34.3602C39.74 37.3402 43.58 26.6502 44.51 23.3402C45.27 20.6102 41.38 18.9602 39.94 21.4102C37.07 26.2902 35.59 31.3903 35.31 37.0403C35.18 39.7603 38.62 40.1103 39.97 38.3003C43.15 34.0203 45.09 29.3403 45.86 24.0503C46.24 21.4603 42.78 19.4202 41.29 22.1202C38.97 26.3302 37.78 30.6802 37.63 35.4802C37.54 38.1902 40.92 38.5702 42.29 36.7402C44.82 33.3602 46.57 29.7702 47.78 25.7302C48.6 23.0002 44.63 21.3603 43.21 23.8003C40.67 28.1803 39.33 32.7403 39.01 37.7903C38.84 40.5403 42.33 40.8103 43.67 39.0503C46.52 35.3103 48.37 31.2302 49.34 26.6302C49.9 23.9802 46.16 22.0702 44.77 24.7002C41.78 30.3702 41.2 37.3002 39.94 43.5102C39.42 46.0902 43.33 48.2002 44.51 45.4402C46.86 39.9602 48.74 34.3902 50.1 28.5702C50.84 25.4102 46.34 24.2202 45.28 27.2402C43.68 31.8002 39.51 43.9603 44.79 47.3103C45.83 47.9703 47.69 47.6303 48.21 46.4103C50.75 40.5103 52.75 34.5202 54.13 28.2402C54.83 25.0802 50.36 23.8802 49.31 26.9102C47.14 33.1403 45.84 39.4702 45.26 46.0302C45.04 48.5202 48.8 49.4103 49.92 47.2903C53.46 40.5903 55.62 33.6202 56.63 26.1102C56.86 24.4102 54.86 23.3802 53.47 23.7002C50.32 24.4302 49.49 27.6703 48.64 30.4303C47.22 35.0303 46.66 39.8202 46.68 44.6202C46.69 47.2602 49.95 47.8102 51.34 45.8802C55.25 40.4402 56.69 32.9002 58.56 26.5702C59.35 23.9002 55.28 22.0702 53.99 24.6402C50.78 31.0702 49.21 37.8002 49.38 44.9902C49.42 46.9902 52.19 48.5002 53.65 46.7602C58.05 41.5102 59.58 33.2903 61.87 26.9303L57.05 25.6002C54.63 32.4802 53.18 39.5002 52.57 46.7602C52.31 49.8102 56.51 49.8103 57.48 47.4203C60.12 40.9103 62.47 34.3003 64.79 27.6703C65.86 24.6203 61.06 23.3502 59.97 26.3402C57.62 32.7902 55.66 39.3402 54.08 46.0202C53.51 48.4602 56.42 50.1802 58.26 48.4502C60.57 46.2802 61.32 42.7602 62.41 39.8702C64.01 35.6402 65.61 31.4003 67.2 27.1703C68.19 24.5403 63.82 22.6702 62.63 25.2402C60.1 30.7202 58.27 36.3202 57.18 42.2602C56.7 44.9002 60.3 46.8202 61.75 44.1902C64.45 39.2802 66.29 34.0702 68.03 28.7702C69.05 25.6702 64.33 24.4802 63.21 27.4402C61.39 32.2702 60.24 37.1502 59.57 42.2602C59.24 44.8102 63.1 45.5402 64.23 43.5202C66.39 39.6802 67.64 35.6102 68.77 31.3702C69.6 28.2502 64.85 26.9503 63.95 30.0403C62.83 33.8803 62.13 37.7003 61.73 41.6803C61.48 44.1303 65.33 45.1102 66.39 42.9402C68.04 39.5602 69.36 36.1502 70.38 32.5302L65.56 31.2002C64.39 35.4802 63.52 39.7603 62.92 44.1603C62.58 46.7103 66.05 48.8502 67.49 46.0902C68.93 43.3302 70.1 40.3402 70.85 37.1502L66.03 35.8202C65.52 38.4302 65.19 41.0103 65.02 43.6703C64.85 46.3303 68.47 46.9703 69.68 44.9303C70.76 43.1203 71.69 41.2902 72.51 39.3502L67.94 38.7502C68.34 40.8902 67.44 43.4002 69.85 44.7602C71.99 45.9702 73.41 44.5203 74.97 43.3003L70.79 42.2002C71.09 43.4202 71.42 43.9702 72.3 44.8502C74.43 46.9802 77.34 44.2902 76.23 41.8202C74.71 38.4302 73.74 34.9302 73.44 31.2202C73.24 28.7702 73.28 26.5502 72.35 24.2402C71.47 22.0602 68.28 21.6902 67.53 24.2402C66.78 26.7902 67.05 28.7002 68.5 30.8602C69.5 32.3602 71.87 32.6002 72.82 30.8602C74.46 27.8502 76.64 20.9002 71.5 19.9802C66.92 19.1602 63.55 26.6302 66.62 29.8302C73.84 37.3702 77.78 12.0203 67.44 18.1703C64.26 20.0603 61.5 26.9202 65.18 29.5902C69.48 32.7202 72.57 26.7402 72.36 23.1102C72.13 19.0102 68.41 14.2702 64.19 17.7302C61.05 20.3102 60.45 27.0902 65.05 28.3802C74.69 31.0902 71.5 6.13027 61.8 18.3103C59.58 21.0903 57.34 27.8603 61.74 29.9303C66.86 32.3403 68.28 24.9302 68.33 21.5302C68.55 5.36024 49.94 22.2903 56.81 29.4203C64.18 37.0703 70.08 9.85019 58.49 15.1002C54.56 16.8802 49.12 24.6702 52.18 28.9802C55.68 33.9002 61.42 28.0703 62.4 24.2903C63.38 20.5103 62.76 11.1302 56.88 11.8302C50.66 12.5802 48.57 23.3502 48.73 28.1302C48.78 29.5302 49.84 30.5602 51.23 30.6302C60.23 31.0502 65.6 11.4602 56.16 11.4602C51.22 11.4602 47.26 18.8803 46.03 22.8103C44.72 27.0103 47.22 31.6403 52.14 29.2903C56.44 27.2403 58.7 21.4503 58.31 16.9303C57.92 12.4103 54.25 10.0302 50.14 12.7102C46.74 14.9302 41.63 22.2003 43.86 26.5603C46.09 30.9203 51.07 28.2302 52.95 25.1302C55.06 21.6402 57.1 12.2402 50.76 11.6502C45 11.1102 40.7 18.9902 39.28 23.4702C38.68 25.3802 40.58 26.9303 42.36 26.5503C46.02 25.7503 48.56 23.3302 50.1 19.9602C51.28 17.3702 53.07 12.5403 50.58 10.0603C44.73 4.22027 38.97 18.4302 38.55 22.2702C38.37 23.9502 40.29 25.0303 41.71 24.6803C47.8 23.1703 51.45 13.9102 47.46 8.83017C46.88 8.09017 45.85 8.07016 45.03 8.19016C39.57 8.99016 38.13 18.3402 37.78 22.6402C37.59 24.9802 40.55 25.7002 42.05 24.4102C45.4 21.5103 50.16 12.7602 47.1 8.3602C42.9 2.3102 37.19 15.0802 36.1 17.5702C35.01 20.0602 37.99 22.9302 40.03 20.6002C43.39 16.7602 45.03 12.4502 44.82 7.33017C44.72 5.01017 42.22 4.24027 40.55 5.56027C36.95 8.41027 35.17 12.2302 34.9 16.7702C34.76 19.0602 37.66 19.8903 39.17 18.5403C42.84 15.2303 44.63 10.8002 44.2 5.8602C44.02 3.8202 41.54 2.42018 39.93 4.09018C37.75 6.36018 34.56 13.4802 39.67 14.7802C44.78 16.0802 47.23 8.55025 46.85 5.04025C46.59 2.66025 43.59 1.54024 42.19 3.78024C40.19 6.99024 40.38 13.1902 45.78 12.3702C49.68 11.7702 51.75 5.6502 48.77 2.9802C47.87 2.1702 46.81 2.10018 45.74 2.59018C41.57 4.51018 42.67 12.3902 46.56 14.0702C51.72 16.3102 55.74 10.3102 53.76 5.82016C53.42 5.04016 52.4 4.58017 51.6 4.58017C46.58 4.56017 45.37 12.4102 49.11 15.1102C54.11 18.7202 57.47 12.4403 56.43 8.16025C55.91 6.01025 52.96 5.79027 51.86 7.56027C49.86 10.7803 49.17 16.9902 54.57 17.3302C59.27 17.6302 59.79 11.8802 58.27 8.72019C57.92 7.99019 56.92 7.4202 56.11 7.4802C48.38 8.0302 53.55 21.2902 61.12 17.5202C61.89 17.1402 62.37 16.1902 62.36 15.3602C62.34 14.0002 61.92 13.1502 60.71 12.4602C59.5 11.7702 57.97 12.1702 57.29 13.3602C56.36 14.9802 56.25 15.1902 55.89 17.0302C55.26 20.1702 60.08 21.5202 60.71 18.3602L61.61 15.8902L58.19 16.7903L58.59 17.0202L57.35 14.8602V15.3702C57.77 14.6502 58.18 13.9302 58.59 13.2102L57.45 11.3103L55.29 12.5503L56.1 12.4902L53.94 11.2502L56.17 10.0902L51.6 9.49021V9.58017C50.87 9.17017 50.15 8.75018 49.44 8.34018C48.21 8.48018 47.81 8.00024 48.25 6.90024L45.22 6.51023L46.49 6.30026L41.83 5.04025C42.33 6.98025 41.61 8.62018 39.65 9.96018L42.08 10.6002L43.44 7.63022L39.17 5.8602C39.5 9.5702 38.4 12.4902 35.6 15.0102L39.87 16.7802C40.07 13.4502 41.51 11.1202 44.06 9.1102L39.79 7.34018C39.95 11.1402 38.99 14.2002 36.46 17.0802L40.39 20.1102C41.56 17.4402 43.11 13.2802 45.56 11.5202H43.04C42.41 11.2402 42.24 14.4803 41.92 15.5503C41.24 17.7603 40.24 19.3902 38.5 20.8902L42.77 22.6602C42.91 20.9102 43.82 13.4002 46.35 13.0302L43.92 12.3902C43.92 12.3902 43.77 14.7702 43.71 15.1102C43.38 17.2802 43.01 19.2202 40.37 19.8802L43.53 22.2903C43.73 20.4603 44.24 18.7302 45.22 17.1602C45.52 16.5802 45.91 16.0702 46.4 15.6302C47.31 15.1302 47.44 14.4802 46.79 13.6902C46.23 14.5502 46.27 16.1703 45.87 17.1703C44.86 19.7003 43.61 21.1902 41 21.7602L44.08 24.8402C44.71 22.8402 45.74 20.0702 47.52 18.7602C52.54 15.0302 48.17 24.0802 47.4 23.4902L48.64 25.6502C48.5 23.9302 50.08 17.0202 52.68 17.6902C55.28 18.3602 50.91 24.2202 50.85 24.1902C50.3 23.8702 54.11 18.1302 54.7 17.8502C56.96 16.8002 55.96 19.4902 55.54 20.8402C54.96 22.7102 53.82 25.8003 51.23 25.6803L53.73 28.1803C53.64 25.4803 53.96 22.8202 55.21 20.3802C55.52 19.7702 56.89 17.0803 57.49 17.0603C57.57 17.0603 57.74 21.6302 57.68 21.9902C57.53 23.0402 57.3 24.0402 56.76 24.9802C56.4 25.6002 57.41 23.1702 57.64 22.7702C60.81 17.3802 60.3 25.3202 58.28 25.7302L60.71 26.3702C59.81 25.3502 62.57 19.9702 63.47 20.1602C63.6 20.1903 62.94 24.0002 63 24.2002C63.95 27.0802 64.93 22.4502 65.59 21.7102C67.31 19.7902 64.99 21.3403 65.91 22.0503C65.44 23.2903 65.58 23.6102 66.32 23.0002C66.56 22.8802 66.8 22.7402 67.02 22.5902C67.31 22.7302 69.12 23.8902 68.95 23.4602C69.72 25.4502 65.35 25.1203 71.48 25.0403L69.32 23.8003C70.27 25.0903 69.11 27.2302 68.48 28.3902H72.8L72.33 25.6202H67.51C68.72 28.6002 68.36 32.0502 68.91 35.2002C69.46 38.3502 70.56 41.4102 71.89 44.3902L75.82 41.3602L75.59 40.9103C75.1 38.9003 72.8 38.7203 71.41 39.8103C70.62 40.3703 70.51 40.4802 71.08 40.1502L73.24 41.3902C72.81 40.8202 72.86 38.1902 72.73 37.4702C72.35 35.4802 68.99 34.9102 68.16 36.8702C67.33 38.8302 66.41 40.6402 65.33 42.4502L69.99 43.7102C70.13 41.5102 70.4 39.3602 70.82 37.1902C71.43 34.0602 66.74 32.7002 66 35.8602C65.36 38.6002 64.45 41.1002 63.15 43.6002L67.72 45.5302C68.31 41.1302 69.19 36.8502 70.36 32.5702C71.21 29.4602 66.41 28.1402 65.54 31.2402C64.67 34.3402 63.52 37.4702 62.06 40.4502L66.72 41.7102C67.08 38.1802 67.78 34.8002 68.77 31.4002L63.95 30.0702C62.94 33.9002 61.87 37.5502 59.92 41.0302L64.58 42.2903C65.19 37.6203 66.38 33.2003 68.04 28.8003L63.22 27.4702C61.61 32.3702 59.93 37.1702 57.44 41.7002L62.01 43.6302C63.02 38.1302 64.62 32.8903 66.96 27.8103L62.39 25.8802C61.25 28.9002 60.11 31.9302 58.97 34.9502C57.89 37.8002 56.97 42.8602 54.73 44.9502L58.91 47.3802C60.48 40.6902 62.44 34.1502 64.8 27.7002L59.98 26.3702C57.66 33.0002 55.31 39.6102 52.67 46.1202L57.58 46.7802C58.15 39.9602 59.61 33.4002 61.88 26.9502C62.95 23.9002 58.14 22.6202 57.06 25.6202C56.07 28.3602 55.09 31.0902 54.1 33.8302C53.03 36.8102 52.17 40.8002 50.12 43.2502L54.39 45.0202C54.25 38.7202 55.51 32.8302 58.32 27.1902L53.75 25.2602C52.01 31.1502 50.67 38.3202 47.03 43.3702L51.69 44.6302C51.67 41.6902 51.85 38.8203 52.42 35.9203C52.64 34.8203 53.62 28.8002 54.81 28.5202L51.65 26.1102C50.77 32.7002 48.73 38.8902 45.63 44.7702L50.29 46.0302C50.83 39.9102 52.15 34.0302 54.16 28.2402L49.34 26.9102C48.05 32.7402 46.29 38.3902 43.92 43.8802L47.34 42.9802C47.1 42.8302 48.16 35.7202 48.21 35.4802C48.64 33.1102 49.33 30.8303 50.13 28.5603L45.31 27.2302C44.05 32.6002 42.4 37.8302 40.23 42.9002L44.8 44.8302C45.96 39.1502 46.4 32.4002 49.13 27.2202L44.56 25.2903C43.66 29.5203 42.01 33.0702 39.39 36.5202L44.05 37.7802C44.31 33.5902 45.45 29.9502 47.57 26.3202L43 24.3902C41.91 28.0402 40.29 31.1602 38.01 34.2002L42.67 35.4602C42.8 31.5202 43.74 28.0902 45.65 24.6202L41.08 22.6902C40.37 27.5802 38.65 31.7802 35.7 35.7502L40.36 37.0102C40.59 32.2002 41.87 28.0502 44.3 23.9002L39.73 21.9702C39.69 22.1202 36.01 30.4202 35.66 29.8802C36.57 31.2502 38 28.1003 38.14 27.8103C39.09 25.8303 38.93 24.2803 40.45 22.4303L36.18 20.6602C36.03 22.3302 35.1 29.1202 32.93 29.7702L35.36 30.4102C33.36 28.7703 36.69 22.1402 37.6 20.5802L32.94 19.3202C33.06 22.6002 32.29 25.2503 30.14 27.7903L34.32 30.2202C35.28 26.6002 36.82 23.4902 39.05 20.4902L35.12 21.0002L35.57 21.5603L34.93 19.1302C34.37 21.6902 32.01 24.3503 30.42 26.2903L34.35 29.3202C35.62 26.5502 37.05 23.9402 38.68 21.3702L34.36 18.8502C33.34 21.2202 32.33 23.5902 31.31 25.9602L35.88 27.8902C36.32 26.7702 36.93 25.7502 37.7 24.8302L33.13 24.2302C35.65 30.3602 37.15 36.6102 37.55 43.2502L42.46 42.5902C41.33 39.5002 39.46 37.3203 36.99 35.1803C33.16 31.8603 27.92 28.5202 32.26 22.9602C33.54 21.3202 35.53 20.3902 36.79 18.6302C37.7 17.3502 38.32 15.9202 38.89 14.4502C40.83 9.45017 42.14 3.63022 49.12 5.75022C53.91 7.21022 57.25 11.8402 61.41 14.4402C66.02 17.3302 73.15 16.3803 73.07 23.4303C73.02 27.7903 69.37 30.8502 70.56 35.4502C71.09 37.5102 72.46 39.2502 72.95 41.3402C73.75 44.7302 72.82 48.0902 71.01 50.9802L75.67 52.2402L76.52 50.2202L71.95 48.2903L70.52 51.0503L74.7 52.1502C74.42 50.4602 74.76 48.9303 75.72 47.5603L71.15 45.6302C70.91 46.6802 70.15 50.9202 68.74 51.1902L71.17 51.8302C70.33 50.8102 73.23 46.4903 73.77 45.6703L69.2 43.7402C68.25 46.5802 66.95 49.0402 65.21 51.4602L69.87 52.7202C69.54 49.6402 69.96 47.3603 71.51 44.6803C73.14 41.8603 68.98 39.5203 67.19 42.1603C66.76 42.8003 63.63 48.5702 63.01 48.6402L65.17 49.8802C64.85 49.3302 66.27 45.0702 66.41 44.4802C67.17 41.2902 62.73 40.1902 61.59 43.1502C60.39 46.2702 58.92 49.1602 57.17 52.0002L61.1 51.4902C60.45 50.8402 62.48 46.2202 62.76 45.6202L58.19 43.6902C57.84 44.9902 56.39 51.0303 54.81 51.4103L57.24 52.0503C56.12 51.0303 58.27 45.7503 58.78 44.5403L53.96 43.2102C53.62 44.8502 53.24 46.4502 52.68 48.0302L51.65 50.5002C50.54 52.1102 50.55 52.4002 51.69 51.3902L54.12 52.0302C53.12 51.2502 54.95 44.7202 55.3 43.4502L50.48 42.1202C50.15 44.1102 49.87 48.4302 48.6 49.9502C47.85 50.8402 47.5 50.2803 46.38 51.0503C43.75 52.8703 46.25 57.2102 48.9 55.3702C49.85 54.7102 50.01 54.1902 50.27 53.1202C50.51 52.1402 50.16 50.7602 50.23 49.7202C50.38 47.6002 50.92 45.7502 51.6 43.7702L46.78 42.4402C46.33 44.9002 45.86 48.3302 43.96 50.1402L46.99 49.7502C46.56 49.5602 47.6 44.9602 47.7 44.5902L42.79 43.9303C42.8 46.8303 42.05 49.0603 40.38 51.4203L44.95 52.0202C44.39 48.8902 44.46 46.1503 45.12 43.0403C45.78 39.9303 41.05 38.5702 40.3 41.7102C39.47 45.1502 38.37 48.4002 36.84 51.6002L41.5 52.8602C41.26 48.6502 41.52 44.6602 42.38 40.5202L37.47 39.8602C37.39 43.2502 36.7 46.2202 35.4 49.3202C34.1 52.4202 39 53.5802 40.22 50.6502L40.15 50.7102Z" fill="#3A3A3A"/>
<path d="M17.85 153.051C17.13 130.501 16.75 107.951 16.73 85.3907C16.73 80.3907 16.5001 75.3106 16.8901 70.3306C17.3801 63.9406 20.13 59.8906 26.49 58.3206C37.35 55.6306 48.48 56.0006 59.52 56.8306C67.87 57.4606 82.6 54.3106 88.1 62.3706C90.76 66.2806 90.86 71.5107 91.04 76.0607C91.2701 81.8107 91.35 87.5607 91.36 93.3107C91.37 104.401 91.07 115.481 90.8 126.561C90.6 134.601 92.4701 147.831 85.6701 153.761C81.48 157.411 73.55 157.491 68.28 158.401C62.25 159.441 56.21 160.641 50.11 161.221C38.53 162.311 25.19 160.571 17.11 151.301C14.99 148.871 11.47 152.421 13.57 154.841C29.57 173.191 58.91 165.671 79.38 161.541C89.48 159.501 94.1301 152.951 95.2001 142.961C96.55 130.431 96.08 117.431 96.27 104.831C96.46 92.2306 97.5701 79.2106 95.1701 67.1206C93.2201 57.2906 85.95 52.7706 76.36 52.2406C70.74 51.9306 65.14 52.2706 59.52 51.8506C52.18 51.3006 44.9901 50.9006 37.6401 51.5906C28.1401 52.4806 16.2 53.4806 12.93 64.1106C11.14 69.9206 11.74 76.5006 11.73 82.4806C11.73 90.3306 11.76 98.1707 11.84 106.021C12 121.711 12.34 137.401 12.84 153.081C12.94 156.291 17.94 156.301 17.84 153.081L17.85 153.051Z" fill="#FF46A0"/>
<path d="M21.4801 171.18C14.7601 172.36 7.37005 173.94 3.13005 179.82C-0.119953 184.33 -0.769973 190.3 2.86003 194.79C7.64003 200.7 16.02 200.64 22.93 201.07C32.07 201.64 41.13 201.8 50.21 200.41C53.38 199.92 52.03 195.11 48.88 195.59C43.12 196.47 37.33 196.65 31.52 196.49C25.71 196.33 19.21 196.4 13.46 195.17C6.80003 193.75 2.60004 187.56 7.94004 181.79C11.67 177.76 17.67 176.9 22.82 175.99C25.98 175.43 24.64 170.61 21.49 171.17L21.4801 171.18Z" fill="#FF46A0"/>
<path d="M56.3201 200.581C65.9401 201.291 75.5501 200.941 85.0901 199.471C90.0401 198.711 94.9601 197.651 99.7601 196.251C102.62 195.421 105.74 194.541 107.9 192.361C112.52 187.701 108.92 180.851 105.23 176.791C100.71 171.831 94.1501 169.271 87.5001 169.571C84.3001 169.721 84.2801 174.721 87.5001 174.571C92.8901 174.331 98.0301 176.271 101.7 180.321C104.09 182.971 105.84 187.551 102.43 190.031C100.35 191.541 96.3301 192.021 93.9001 192.621C81.5901 195.631 68.9601 196.501 56.3301 195.571C53.1201 195.331 53.1401 200.331 56.3301 200.571L56.3201 200.581Z" fill="#FF46A0"/>
<path d="M46.0005 137.454C46.4309 168.497 47.4219 199.541 48.9834 230.556C49.2837 236.468 59.2937 236.495 58.9934 230.556C57.4318 199.541 56.4308 168.507 56.0104 137.454C55.9304 131.524 45.9204 131.506 46.0005 137.454Z" fill="#FF46A0"/>
<path d="M20.46 155.661C20.11 149.871 19.86 144.081 19.72 138.291C19.68 136.681 17.18 136.681 17.22 138.291C17.37 144.091 17.61 149.881 17.96 155.661C18.06 157.261 20.56 157.271 20.46 155.661Z" fill="#FF46A0"/>
<path d="M24.24 157.801C24.34 151.841 24.19 145.901 23.78 139.951C23.67 138.351 21.17 138.341 21.28 139.951C21.69 145.901 21.85 151.841 21.74 157.801C21.71 159.411 24.21 159.411 24.24 157.801Z" fill="#FF46A0"/>
<path d="M29.64 159.951C29.14 153.281 29.1 146.631 29.52 139.951C29.62 138.341 27.12 138.351 27.02 139.951C26.6 146.621 26.64 153.281 27.14 159.951C27.26 161.541 29.76 161.561 29.64 159.951Z" fill="#FF46A0"/>
<path d="M36.13 162.09C35.25 155.13 34.71 148.15 34.49 141.14C34.44 139.54 31.94 139.53 31.99 141.14C32.21 148.15 32.76 155.13 33.63 162.09C33.83 163.66 36.33 163.68 36.13 162.09Z" fill="#FF46A0"/>
<path d="M41.74 161.131C41.65 154.461 41.03 147.861 39.88 141.291C39.6 139.711 37.19 140.381 37.47 141.951C38.58 148.301 39.16 154.681 39.24 161.131C39.26 162.741 41.76 162.741 41.74 161.131Z" fill="#FF46A0"/>
<path d="M60.66 160.181C60.48 156.761 60.16 153.351 59.71 149.951C59.5 148.381 57 148.361 57.21 149.951C57.66 153.351 57.98 156.761 58.16 160.181C58.25 161.781 60.75 161.791 60.66 160.181Z" fill="#FF46A0"/>
<path d="M65.9 158.991L64.67 144.951C64.53 143.361 62.03 143.341 62.17 144.951L63.4 158.991C63.54 160.581 66.04 160.601 65.9 158.991Z" fill="#FF46A0"/>
<path d="M71.12 158.751C71.23 153.031 71.17 147.321 70.94 141.611C70.88 140.011 68.38 140.001 68.44 141.611C68.67 147.321 68.73 153.031 68.62 158.751C68.59 160.361 71.09 160.361 71.12 158.751Z" fill="#FF46A0"/>
<path d="M76.6801 158.281C76.8501 151.611 76.7301 144.951 76.3401 138.291C76.2501 136.691 73.7401 136.681 73.8401 138.291C74.2301 144.951 74.3501 151.611 74.1801 158.281C74.1401 159.891 76.6401 159.891 76.6801 158.281Z" fill="#FF46A0"/>
<path d="M81.9201 158.031C81.6101 151.441 81.17 144.861 80.61 138.281C80.47 136.691 77.97 136.671 78.11 138.281C78.67 144.851 79.1101 151.441 79.4201 158.031C79.5001 159.631 82.0001 159.641 81.9201 158.031Z" fill="#FF46A0"/>
<path d="M85.69 155.9C86.23 151.63 86.46 147.351 86.35 143.041C86.31 141.431 83.81 141.431 83.85 143.041C83.95 147.351 83.73 151.62 83.19 155.9C82.99 157.49 85.49 157.48 85.69 155.9Z" fill="#FF46A0"/>
<path d="M44.91 163.281C44.93 156.821 44.52 150.411 43.66 144.021C43.45 142.451 40.95 142.431 41.16 144.021C42.02 150.421 42.43 156.831 42.41 163.281C42.41 164.891 44.9 164.891 44.91 163.281Z" fill="#FF46A0"/>
<path d="M10.17 193.401L8.74001 186.741C8.40001 185.171 5.99001 185.831 6.33001 187.401L7.76003 194.061C8.10003 195.631 10.51 194.971 10.17 193.401Z" fill="#FF46A0"/>
<path d="M14.94 196.971C14.17 193.741 13.52 190.501 12.99 187.221C12.73 185.641 10.32 186.311 10.58 187.881C11.11 191.151 11.76 194.401 12.53 197.631C12.9 199.191 15.32 198.531 14.94 196.971Z" fill="#FF46A0"/>
<path d="M19.41 195.31L18.27 187.92C18.02 186.33 15.62 187.01 15.86 188.58L17 195.97C17.25 197.56 19.65 196.88 19.41 195.31Z" fill="#FF46A0"/>
<path d="M23.7801 196.83C23.8301 193.74 23.4901 190.7 22.7601 187.7C22.3801 186.14 19.9701 186.8 20.3501 188.36C21.0301 191.15 21.3301 193.96 21.2801 196.83C21.2501 198.44 23.7501 198.44 23.7801 196.83Z" fill="#FF46A0"/>
<path d="M28.56 197.071C28.51 193.581 28.06 190.151 27.21 186.761C26.82 185.201 24.41 185.861 24.8 187.421C25.6 190.591 26.01 193.791 26.06 197.061C26.08 198.671 28.58 198.671 28.56 197.061V197.071Z" fill="#FF46A0"/>
<path d="M33.52 197.54C33.66 194.94 33.49 192.39 33.06 189.82C32.79 188.24 30.38 188.91 30.65 190.48C31.05 192.82 31.15 195.16 31.03 197.53C30.94 199.14 33.44 199.13 33.53 197.53L33.52 197.54Z" fill="#FF46A0"/>
<path d="M38.0401 197.54C38.2301 194.47 38.0401 191.44 37.5601 188.4C37.3001 186.82 34.9001 187.49 35.1501 189.06C35.6001 191.87 35.7101 194.69 35.5401 197.54C35.4401 199.15 37.9401 199.14 38.0401 197.54Z" fill="#FF46A0"/>
<path d="M43.44 197.321C43.64 192.961 43.31 188.661 42.49 184.371C42.19 182.791 39.78 183.461 40.08 185.031C40.85 189.101 41.13 193.171 40.94 197.311C40.87 198.921 43.37 198.911 43.44 197.311V197.321Z" fill="#FF46A0"/>
<path d="M48.5901 196.601C48.8801 193.891 48.8701 191.201 48.5501 188.501C48.3701 186.921 45.8601 186.901 46.0501 188.501C46.3601 191.201 46.3801 193.901 46.0901 196.601C45.9201 198.201 48.4201 198.191 48.5901 196.601Z" fill="#FF46A0"/>
<path d="M62.3501 196.83C62.3501 193.76 62.0701 190.72 61.5501 187.7C61.2801 186.12 58.8701 186.79 59.1401 188.36C59.6301 191.17 59.8501 193.98 59.8501 196.83C59.8501 198.44 62.3501 198.44 62.3501 196.83Z" fill="#FF46A0"/>
<path d="M66.37 196.121C66.17 193.301 65.84 190.49 65.4 187.69C65.15 186.11 62.74 186.781 62.99 188.351C63.39 190.931 63.68 193.511 63.87 196.111C63.99 197.711 66.49 197.721 66.37 196.111V196.121Z" fill="#FF46A0"/>
<path d="M70.56 196.371C70.07 192.641 69.65 188.911 69.3 185.161C69.15 183.571 66.65 183.561 66.8 185.161C67.15 188.901 67.57 192.641 68.06 196.371C68.27 197.941 70.77 197.961 70.56 196.371Z" fill="#FF46A0"/>
<path d="M74.96 195.4L74.47 185.64C74.39 184.04 71.89 184.03 71.97 185.64L72.46 195.4C72.54 197 75.04 197.01 74.96 195.4Z" fill="#FF46A0"/>
<path d="M79.9501 194.931C79.9601 191.261 79.74 187.621 79.27 183.981C79.07 182.411 76.57 182.391 76.77 183.981C77.23 187.621 77.4601 191.271 77.4501 194.931C77.4501 196.541 79.9501 196.541 79.9501 194.931Z" fill="#FF46A0"/>
<path d="M84.56 194.46C84.37 190.96 84.42 187.47 84.71 183.98C84.85 182.38 82.34 182.39 82.21 183.98C81.92 187.47 81.86 190.96 82.06 194.46C82.15 196.06 84.65 196.07 84.56 194.46Z" fill="#FF46A0"/>
<path d="M90.21 194.211L89.9401 182.311C89.9001 180.701 87.4001 180.701 87.4401 182.311L87.71 194.211C87.75 195.821 90.25 195.821 90.21 194.211Z" fill="#FF46A0"/>
<path d="M96.73 193.111C97.23 189.441 97.44 185.781 97.3 182.081C97.24 180.481 94.74 180.471 94.8 182.081C94.93 185.551 94.79 189.011 94.32 192.451C94.11 194.021 96.51 194.701 96.73 193.111Z" fill="#FF46A0"/>
<path d="M93.74 193.021L92.81 183.261C92.66 181.671 90.16 181.661 90.31 183.261L91.24 193.021C91.39 194.611 93.89 194.621 93.74 193.021Z" fill="#FF46A0"/>
<path d="M100.37 190.501L101.06 188.351C101.27 187.711 100.82 186.991 100.19 186.811C99.51 186.621 98.86 187.041 98.65 187.681L97.96 189.831C97.75 190.471 98.2 191.191 98.83 191.371C99.51 191.561 100.16 191.141 100.37 190.501Z" fill="#FF46A0"/>
<path fill-rule="evenodd" clip-rule="evenodd" d="M12.2991 236.844C38.4892 236.241 64.6807 235.668 90.8734 235.197C91.3695 233.725 90.6175 231.79 88.61 231.821L47.62 232.391C44.2875 232.436 40.9575 232.483 37.6275 232.531C34.2925 232.578 30.9575 232.626 27.62 232.671C26.897 232.681 26.1683 232.679 25.4374 232.677C21.2853 232.665 17.0654 232.653 13.46 234.941C12.6887 235.43 12.3402 236.131 12.2991 236.844Z" fill="#FF46A0"/>
</svg>
