<svg width="48" height="40" viewBox="0 0 48 40" fill="none" xmlns="http://www.w3.org/2000/svg">
<g clip-path="url(#clip0_849_91244)">
<path d="M29.7015 2.21855L6.11206 22.6068C4.61337 23.9021 4.43279 26.1855 5.70872 27.707L13.8162 37.3745C15.0921 38.8959 17.3414 39.0792 18.8401 37.7839L42.4296 17.3957C43.9283 16.1004 44.1088 13.8169 42.8329 12.2955L34.7254 2.62801C33.4495 1.10657 31.2002 0.923244 29.7015 2.21855Z" stroke="#FF46A0" stroke-width="1.55519" stroke-miterlimit="10"/>
<path d="M1.06173 29.1863C1.00126 27.9823 0.922195 26.7782 0.880336 25.573C0.838476 24.3678 1.16986 23.2936 1.67683 22.1876C2.13844 21.1807 2.70704 20.2245 3.47213 19.4254C4.27909 18.5826 5.21511 17.859 6.10114 17.1059C6.42323 16.832 6.12672 16.3882 5.79301 16.3504C5.00814 16.2631 4.23723 16.112 3.4733 15.9078L3.24191 16.7612C3.79538 16.8556 4.34653 16.9595 4.89535 17.0764C5.15116 17.1319 5.40697 17.1885 5.66162 17.2487C5.8151 17.2853 6.2209 17.3148 6.33602 17.4222L6.20811 17.1094C6.20811 17.2534 6.04649 17.4069 5.98138 17.5344C5.89068 17.7091 5.8151 17.8944 5.75231 18.0809C5.6279 18.4539 5.58255 18.8435 5.58022 19.2354C5.57673 19.8055 6.44881 19.8055 6.45229 19.2354C6.45578 18.6274 6.63601 18.1718 6.93135 17.6548C7.12088 17.3219 7.16972 16.9241 6.81856 16.6786C6.43253 16.4094 5.7965 16.3705 5.34651 16.2713C4.72559 16.1344 4.10003 16.0152 3.4733 15.9078C2.93145 15.8157 2.68727 16.6137 3.24191 16.7612C4.08142 16.9843 4.93024 17.1389 5.79301 17.2346L5.48488 16.4791C4.54536 17.2782 3.54074 18.042 2.70704 18.958C1.91636 19.8256 1.3187 20.849 0.841965 21.9232C0.365232 22.9974 0.00361285 23.996 0.000124557 25.1469C-0.00452649 26.4914 0.122215 27.8453 0.189655 29.1875C0.218724 29.7541 1.0908 29.7576 1.06173 29.1875V29.1863Z" fill="#20BEFF"/>
<path d="M46.9371 11.999C46.9976 13.2031 47.0766 14.4071 47.1185 15.6123C47.1604 16.8175 46.829 17.8917 46.322 18.9977C45.8604 20.0046 45.2918 20.9608 44.5267 21.7599C43.7198 22.6027 42.7837 23.3263 41.8977 24.0794C41.5756 24.3533 41.8721 24.7971 42.2058 24.8349C42.9907 24.9222 43.7616 25.0733 44.5255 25.2776L44.7569 24.4241C44.2035 24.3297 43.6523 24.2258 43.1035 24.1089C42.8477 24.0535 42.5919 23.9968 42.3372 23.9366C42.1837 23.9 41.7779 23.8705 41.6628 23.7631L41.7907 24.0759C41.7907 23.9319 41.9523 23.7784 42.0175 23.6509C42.1082 23.4762 42.1837 23.2909 42.2465 23.1044C42.3709 22.7314 42.4163 22.3419 42.4186 21.95C42.4221 21.3798 41.55 21.3798 41.5465 21.95C41.5431 22.5579 41.3628 23.0135 41.0675 23.5305C40.878 23.8634 40.8291 24.2612 41.1803 24.5067C41.5663 24.7759 42.2023 24.8148 42.6523 24.914C43.2733 25.0509 43.8988 25.1701 44.5255 25.2776C45.0674 25.3696 45.3116 24.5717 44.7569 24.4241C43.9174 24.201 43.0686 24.0464 42.2058 23.9508L42.514 24.7062C43.4535 23.9071 44.4581 23.1434 45.2918 22.2274C46.0825 21.3597 46.6801 20.3363 47.1569 19.2621C47.6336 18.188 47.9952 17.1905 47.9999 16.0396C48.0045 14.6951 47.8778 13.3412 47.8103 11.999C47.7813 11.4324 46.9092 11.4289 46.9383 11.999H46.9371Z" fill="#20BEFF"/>
<rect width="6.28329" height="1.47243" rx="0.736213" transform="matrix(0.649623 0.760256 -0.750481 0.660892 35.8628 5.83105)" fill="#FF46A0"/>
</g>
<defs>
<clipPath id="clip0_849_91244">
<rect width="48" height="40" fill="white"/>
</clipPath>
</defs>
</svg>
