<svg width="125" height="368" viewBox="0 0 125 368" fill="none" xmlns="http://www.w3.org/2000/svg">
<mask id="mask0_652_613" style="mask-type:alpha" maskUnits="userSpaceOnUse" x="0" y="0" width="125" height="368">
<path fill-rule="evenodd" clip-rule="evenodd" d="M0 0.739606C2.20996 0.782076 4.41992 0.826509 6.62988 0.872942C7.09644 0.882708 7.5459 0.86513 7.97852 0.824114C45.2349 0.61513 82.4915 0.499895 119.748 0.462786C122.15 48.078 123.915 95.7362 124.46 143.412C125.021 192.682 123.448 241.808 121.872 291.039L121.8 293.283C121.017 317.715 120.806 342.168 122.328 366.572L0 367.288L0 0.739606Z" fill="#D9D9D9"/>
</mask>
<g mask="url(#mask0_652_613)">
<path d="M3.22003 -3.65509C2.26003 94.5649 1.30997 192.785 0.349973 291.005C0.0799733 318.325 -0.180015 345.655 -0.450015 372.975C-0.490015 377.095 6.11998 378.215 6.91998 373.975C7.22998 372.315 7.54998 370.645 7.85998 368.985C8.74998 364.265 1.52 362.245 0.630003 366.995C0.320003 368.655 1.3411e-07 370.325 -0.31 371.985L7.06 372.985C8.01 275.295 8.96003 177.605 9.91003 79.925C10.18 52.065 10.45 24.2149 10.72 -3.64508C10.77 -8.47508 3.27003 -8.47508 3.22003 -3.64508V-3.65509Z" fill="#FF46A0"/>
<path d="M41.6902 -4.77594L40.7901 127.114C40.7601 131.944 48.2601 131.944 48.2901 127.114L49.1902 -4.77594C49.2202 -9.60594 41.7202 -9.60594 41.6902 -4.77594Z" fill="#FF46A0"/>
<path d="M47.8801 128.994C72.4501 129.024 82.25 103.254 83.48 82.6636C84.32 68.5536 83.9201 54.3036 84.0301 40.1636C84.1401 25.5536 84.2601 10.9337 84.3701 -3.67633C84.4101 -8.50633 76.9101 -8.50633 76.8701 -3.67633C76.6701 21.5037 76.5401 46.6736 76.2801 71.8536C76.0901 90.3236 72.9401 121.524 47.8801 121.494C43.0501 121.494 43.0501 128.984 47.8801 128.994Z" fill="#FF46A0"/>
<path d="M47.76 169.153C80.96 168.803 104.66 140.953 114.38 111.573C120.07 94.3733 122.07 76.1433 123.63 58.1733C125.42 37.4433 126.21 16.6432 126.08 -4.15679C126.05 -8.97679 118.55 -8.99679 118.58 -4.15679C118.7 14.6932 118.07 33.5432 116.61 52.3432C115.29 69.3032 113.67 86.4232 109.16 102.883C101.34 131.453 80.36 161.303 47.76 161.643C42.94 161.693 42.92 169.193 47.76 169.143V169.153Z" fill="#FF46A0"/>
<path d="M43.32 164.964C43.08 233.244 44.98 301.514 49.01 369.674C49.29 374.474 56.8 374.504 56.51 369.674C52.47 301.514 50.57 233.244 50.82 164.964C50.84 160.134 43.34 160.134 43.32 164.964Z" fill="#FF46A0"/>
<path d="M5.3901 19.3147C17.8101 19.2847 30.2401 19.2546 42.6601 19.2246C45.8801 19.2246 45.8801 14.2146 42.6601 14.2246C30.2401 14.2546 17.8101 14.2847 5.3901 14.3147C2.1701 14.3147 2.1701 19.3247 5.3901 19.3147Z" fill="#FF46A0"/>
<path d="M7.12992 58.2247C19.7299 57.6247 32.3399 57.1647 44.9499 56.8447C48.1599 56.7647 48.1699 51.7647 44.9499 51.8447C32.3399 52.1647 19.7299 52.6247 7.12992 53.2247C3.92992 53.3747 3.90992 58.3747 7.12992 58.2247Z" fill="#FF46A0"/>
<path d="M8.52014 95.5234L8.36011 95.7634L11.7802 94.8634L11.4401 94.6234L11.9501 98.5534C12.3501 98.1134 17.9401 98.6234 18.8301 98.5934C21.7101 98.5234 24.6001 98.4534 27.4801 98.3834C32.9301 98.2534 38.3701 98.1134 43.8201 97.9834C47.0301 97.9034 47.0401 92.9034 43.8201 92.9834C36.7701 93.1534 29.7301 93.3334 22.6801 93.5034C19.4801 93.5834 16.2701 93.6334 13.0701 93.7434C11.2701 93.8034 9.7001 93.6134 8.4201 95.0234C7.2601 96.2934 7.59011 97.9835 8.93011 98.9535L9.27014 99.1935C10.4101 100.013 12.0001 99.3334 12.6901 98.2934L12.8501 98.0534C14.6401 95.3734 10.3102 92.8634 8.53015 95.5334L8.52014 95.5234Z" fill="#FF46A0"/>
<path d="M7.65002 131.215C21.14 131.705 35.24 131.775 47.03 124.275C49.74 122.555 47.23 118.225 44.51 119.955C33.47 126.985 20.26 126.675 7.66003 126.215C4.44003 126.095 4.45003 131.095 7.66003 131.215H7.65002Z" fill="#FF46A0"/>
<path d="M82.18 79.975C94.78 81.845 107.32 81.355 119.72 78.395C122.85 77.645 121.52 72.8251 118.39 73.5751C106.92 76.3151 95.19 76.895 83.51 75.155C80.36 74.685 79 79.505 82.18 79.975Z" fill="#FF46A0"/>
<path d="M82.81 30.9844H120.66C123.88 30.9844 123.88 25.9844 120.66 25.9844H82.81C79.59 25.9844 79.59 30.9844 82.81 30.9844Z" fill="#FF46A0"/>
<path d="M8.94002 178.085L8.57002 177.715L9.21004 180.145L9.34999 179.575L7.59999 181.325C10.41 180.445 13.89 180.755 16.84 180.605C20.09 180.435 23.34 180.265 26.6 180.095C28.62 179.985 42.78 178.545 43.01 178.955C44.6 181.755 48.92 179.235 47.33 176.435C45.66 173.485 42.19 174.275 39.28 174.425C33.1 174.755 26.92 175.075 20.74 175.405C18.69 175.515 -1.20997 175.025 5.39003 181.625C7.67003 183.905 11.21 180.365 8.93001 178.085H8.94002Z" fill="#FF46A0"/>
<path d="M7.70007 232.005C20.3101 231.555 32.9101 231.095 45.5201 230.645C48.7301 230.525 48.7401 225.525 45.5201 225.645C32.9101 226.095 20.3101 226.555 7.70007 227.005C4.49007 227.125 4.48007 232.125 7.70007 232.005Z" fill="#FF46A0"/>
<path d="M4.82995 275.445C11.36 275.205 17.8899 275.055 24.4199 275.035C27.3599 275.035 30.2999 275.035 33.2399 275.085C34.5199 275.105 42.6099 274.465 43.3499 275.415L42.96 272.385L42.6999 272.715C40.7399 275.265 45.08 277.755 47.02 275.235L47.28 274.905C48.01 273.955 47.5099 272.675 46.8899 271.875C45.6599 270.285 43.9299 270.355 42.0599 270.275C37.8199 270.075 33.56 270.075 29.33 270.045C21.16 269.995 13 270.145 4.83996 270.445C1.62996 270.565 1.61996 275.565 4.83996 275.445H4.82995Z" fill="#FF46A0"/>
<path d="M6.54 317.745C21.07 317.805 35.6 317.545 50.12 316.975C53.33 316.845 53.34 311.845 50.12 311.975C35.6 312.555 21.07 312.805 6.54 312.745C3.32 312.735 3.32 317.735 6.54 317.745Z" fill="#FF46A0"/>
<path d="M7.14005 358.625C21.9901 356.885 36.9 355.995 51.85 355.955C55.07 355.955 55.07 350.945 51.85 350.955C36.9 350.995 21.9901 351.885 7.14005 353.625C3.98005 353.995 3.95005 358.995 7.14005 358.625Z" fill="#FF46A0"/>
</g>
</svg>
