<svg width="156" height="126" viewBox="0 0 156 126" fill="none" xmlns="http://www.w3.org/2000/svg">
<path fill-rule="evenodd" clip-rule="evenodd" d="M2.45445 43.6721C2.40877 35.7307 2.36271 27.7268 0.219972 20.0412H0.209962C-0.660039 16.9299 4.16997 15.6096 5.02997 18.7112C7.23353 26.6233 7.32 34.4573 7.41241 42.8303C7.42359 43.842 7.43485 44.8616 7.44995 45.8908C7.58995 55.4299 7.7 64.9709 7.81 74.51C8.0007 91.3342 8.14632 108.16 8.25988 124.985C6.59391 124.975 4.92795 124.963 3.26199 124.953C3.15733 108.791 3.02091 92.6369 2.83997 76.4807C2.73997 66.9397 2.61999 57.1604 2.48999 47.8596C2.47053 46.467 2.4625 45.0705 2.45445 43.6721ZM123.617 125.813C123.386 112.229 124.204 98.6448 125.022 85.0666C126.317 63.5627 127.611 42.0725 124.74 20.6076C124.32 17.469 119.31 17.428 119.74 20.6076C122.613 42.0842 121.319 63.5862 120.024 85.0998C119.209 98.6545 118.393 112.213 118.618 125.774C120.284 125.787 121.95 125.799 123.617 125.813ZM45.0156 125.229C43.8973 91.094 43.4135 56.9533 43.58 22.7991C43.6 19.5803 38.6 19.5803 38.58 22.7991C38.4135 56.9397 38.897 91.0783 40.0144 125.194C41.6814 125.205 43.3485 125.217 45.0156 125.229Z" fill="#FF46A0"/>
<path d="M4.49999 22.0097C13.88 17.3597 23.08 12.3897 32.1 7.07967C34.87 5.44967 32.3599 1.12973 29.5799 2.75973C20.5599 8.06973 11.36 13.0397 1.97997 17.6897C-0.900029 19.1197 1.62999 23.4297 4.49999 22.0097Z" fill="#FF46A0"/>
<path d="M32.73 6.96921C52.85 5.73921 72.9999 5.51919 93.1499 5.56919C113.04 5.61919 132.87 6.77921 152.74 6.96921C155.96 6.99921 155.96 1.99922 152.74 1.96922C132.87 1.77922 113.04 0.629191 93.1499 0.569191C73.2599 0.509191 52.85 0.739215 32.73 1.96922C29.53 2.16922 29.51 7.16921 32.73 6.96921Z" fill="#FF46A0"/>
<path d="M121.92 22.6293C132.58 17.4093 143.16 12.0393 153.66 6.51927C156.51 5.01927 153.98 0.709205 151.14 2.1992C140.64 7.7192 130.05 13.0892 119.4 18.3092C116.51 19.7192 119.04 24.0393 121.92 22.6293Z" fill="#FF46A0"/>
<path d="M4.04 23.1486C42.04 23.5586 80.03 23.7085 118.03 23.6085C121.25 23.6085 121.25 18.5985 118.03 18.6085C80.03 18.7085 42.03 18.5586 4.04 18.1486C0.82 18.1186 0.82 23.1186 4.04 23.1486Z" fill="#FF46A0"/>
<path d="M41.67 63.8398C68.4 64.3998 95.13 63.8399 121.81 62.1699C125.01 61.9699 125.03 56.9699 121.81 57.1699C95.13 58.8499 68.4 59.3998 41.67 58.8398C38.45 58.7698 38.45 63.7698 41.67 63.8398Z" fill="#FF46A0"/>
<path d="M42.7599 112C68.3799 110.85 94.01 110.26 119.66 110.25C122.88 110.25 122.88 105.25 119.66 105.25C94.02 105.26 68.3799 105.85 42.7599 107C39.5599 107.14 39.5399 112.15 42.7599 112Z" fill="#FF46A0"/>
<path d="M22.39 29.4089C20.13 29.0289 18.5 29.3189 16.83 30.9889C15.74 32.0789 15.3 34.1889 16.24 35.5289C18.48 38.6989 21.82 39.2689 25.49 39.5189C28.92 39.7489 34.49 39.9988 36.71 36.7988C38.74 33.8788 37.02 30.3389 33.75 29.5089C29.43 28.4089 24.39 29.0489 20.1 29.9189C15.37 30.8789 17.37 38.1089 22.09 37.1489C23.87 36.7889 25.62 36.5689 27.44 36.5389C28.15 36.5289 28.86 36.5388 29.57 36.5688C30.1 36.5888 30.63 36.6288 31.17 36.6888C32.13 36.8788 31.95 36.5988 30.62 35.8288L30.24 32.9388C31.26 32.0288 31.34 31.6889 30.48 31.9189C29.98 31.9889 29.49 32.0288 28.99 32.0488C28.16 32.0988 27.32 32.0988 26.49 32.0688C25.66 32.0388 24.81 32.0089 24 31.8889C23.72 31.8489 22.45 31.3689 22.72 31.7489L22.1299 36.2889L20.39 36.6389C25.11 37.4289 27.1399 30.1989 22.3799 29.4089H22.39Z" fill="#FF46A0"/>
<path d="M99.62 38.4491C104.49 38.3291 109.37 38.2091 114.24 38.0991C119.11 37.9891 119.08 30.4791 114.24 30.5991C109.4 30.7191 104.49 30.8391 99.62 30.9491C94.75 31.0591 94.78 38.5691 99.62 38.4491Z" fill="#FF46A0"/>
<path d="M100.43 76.6893L114.78 76.3994C119.6 76.2994 119.62 68.7994 114.78 68.8994L100.43 69.1893C95.6099 69.2893 95.5899 76.7893 100.43 76.6893Z" fill="#FF46A0"/>
<path d="M100.71 121.398C105.05 121.578 109.38 121.908 113.7 122.388C115.73 122.608 117.43 120.508 117.45 118.638C117.47 116.428 115.7 115.108 113.7 114.888C109.38 114.418 105.05 114.088 100.71 113.898C95.88 113.698 95.89 121.198 100.71 121.398Z" fill="#FF46A0"/>
<path d="M17.8899 20.8888C27.2899 16.6388 35.35 10.0988 44.43 5.2788C45.85 4.5288 44.59 2.36876 43.17 3.11876C34.08 7.93876 26.0299 14.4787 16.6299 18.7287C15.1699 19.3887 16.4399 21.5488 17.8899 20.8888Z" fill="#FF46A0"/>
<path d="M30.67 20.5783C35.22 18.3083 39.76 16.0084 43.89 13.0284C48.02 10.0484 51.73 7.44834 56.39 5.46834C57.87 4.83834 56.59 2.68831 55.13 3.30831C50.44 5.30831 46.72 7.90837 42.63 10.8684C38.54 13.8284 33.96 16.1484 29.41 18.4184C27.97 19.1384 29.23 21.2883 30.67 20.5783Z" fill="#FF46A0"/>
<path d="M45.43 21.1088C53.62 15.4088 62.0099 10.0387 70.6099 4.97875C71.9999 4.16875 70.7399 1.99871 69.3499 2.81871C60.7499 7.87871 52.36 13.2487 44.17 18.9487C42.86 19.8587 44.11 22.0288 45.43 21.1088Z" fill="#FF46A0"/>
<path d="M55.8 20.83L69.1199 12.6799C73.1699 10.1999 77.8899 6.05994 82.6299 5.18994C84.2099 4.89994 83.54 2.49003 81.97 2.78003C77.51 3.60003 73.34 7.18001 69.53 9.51001C64.53 12.57 59.54 15.6199 54.54 18.6799C53.17 19.5199 54.42 21.68 55.8 20.84V20.83Z" fill="#FF46A0"/>
<path d="M68.43 20.6396C72.64 18.5096 76.7599 16.2396 80.7699 13.7596C85.0499 11.0996 89.0599 7.88957 93.7599 5.98957C95.2299 5.38957 94.5899 2.97953 93.0999 3.57953C83.9699 7.26953 76 14.0196 67.17 18.4896C65.73 19.2196 67 21.3696 68.43 20.6496V20.6396Z" fill="#FF46A0"/>
<path d="M83.13 19.979L108.54 5.82901C109.95 5.04901 108.69 2.8891 107.28 3.6691L81.87 17.819C80.46 18.599 81.72 20.759 83.13 19.979Z" fill="#FF46A0"/>
<path d="M96.15 20.8397C106.68 15.9997 115.61 8.68978 126.56 4.64978C128.06 4.09978 127.41 1.67975 125.9 2.23975C114.75 6.35975 105.61 13.7497 94.89 18.6897C93.43 19.3597 94.7 21.5197 96.15 20.8497V20.8397Z" fill="#FF46A0"/>
<path d="M110.54 20.8585L126.29 11.6585C129.77 9.61851 135.38 7.67843 137.86 4.45843C138.28 3.91843 137.93 3.06847 137.41 2.74847L137.19 2.61847C136.76 2.34847 136.02 2.39842 135.68 2.81842L135.55 2.96844C134.53 4.19844 136.29 5.97846 137.32 4.73846L136.15 4.91852L135.7 3.20843C134.46 4.81843 130.92 6.05844 129.17 7.08844C126.96 8.37844 124.75 9.66844 122.54 10.9584C118.12 13.5384 113.7 16.1284 109.28 18.7084C107.89 19.5184 109.15 21.6785 110.54 20.8685V20.8585Z" fill="#FF46A0"/>
</svg>
