<svg width="117" height="108" viewBox="0 0 117 108" fill="none" xmlns="http://www.w3.org/2000/svg">
<path d="M111.04 3.50069C111.04 19.9207 111.03 36.3507 111.02 52.7707C111.01 69.1907 111.71 86.2907 108.92 102.761C108.39 105.911 113.2 107.261 113.74 104.091C116.51 87.7907 116.02 71.2207 116.02 54.7507C116.02 37.6707 116.03 20.5907 116.04 3.5107C116.04 0.290703 111.04 0.290703 111.04 3.5107V3.50069Z" fill="#20BEFF"/>
<path d="M3.04999 4.74093C3.04999 21.1609 3.04003 37.5909 3.03003 54.0109C3.02003 70.4309 3.72 87.5309 0.929995 104.001C0.399995 107.151 5.21 108.501 5.75 105.331C8.52 89.031 8.03003 72.4609 8.03003 55.9909C8.03003 38.9109 8.03999 21.8309 8.04999 4.75094C8.04999 1.53094 3.04999 1.53094 3.04999 4.75094V4.74093Z" fill="#20BEFF"/>
<path d="M6.67 6.90006C42.08 7.03006 77.49 6.66001 112.89 5.79001C116.1 5.71001 116.11 0.710012 112.89 0.790012C77.49 1.66001 42.08 2.03006 6.67 1.90006C3.45 1.89006 3.45 6.89006 6.67 6.90006Z" fill="#20BEFF"/>
<path d="M3.34005 107.751C39 107.831 74.67 107.601 110.33 107.071C113.54 107.021 113.55 102.021 110.33 102.071C74.67 102.601 39.01 102.831 3.34005 102.751C0.120049 102.751 0.120049 107.741 3.34005 107.751Z" fill="#20BEFF"/>
<path d="M18.71 18.62C21.12 30.42 19.58 43.02 19.18 54.96C18.78 66.9 18.35 79.5 17.94 91.77C17.78 96.6 25.28 96.59 25.44 91.77C25.88 78.86 26.31 65.94 26.75 53.03C27.16 40.94 28.39 28.57 25.95 16.63C24.98 11.9 17.75 13.9 18.72 18.62H18.71Z" fill="#FF46A0"/>
<path d="M94.45 18.2709C94.76 42.7809 94.52 67.2909 93.73 91.7909C93.57 96.6209 101.07 96.6109 101.23 91.7909C102.02 67.2909 102.26 42.7809 101.95 18.2709C101.89 13.4509 94.39 13.4309 94.45 18.2709Z" fill="#FF46A0"/>
<path d="M24.12 20.8797C48.87 21.0197 73.59 18.4598 98.35 19.5298C103.18 19.7398 103.17 12.2398 98.35 12.0298C73.59 10.9598 48.88 13.5197 24.12 13.3797C19.29 13.3497 19.29 20.8497 24.12 20.8797Z" fill="#FF46A0"/>
<path d="M22.88 95.9099C47.58 94.9899 72.3 94.9999 97 95.9499C101.83 96.1399 101.82 88.6399 97 88.4499C72.3 87.4999 47.58 87.4899 22.88 88.4099C18.07 88.5899 18.05 96.0899 22.88 95.9099Z" fill="#FF46A0"/>
<path d="M32.53 36.6797C45.4 36.6797 45.42 16.6797 32.53 16.6797C19.64 16.6797 19.64 36.6797 32.53 36.6797Z" fill="#FF46A0"/>
<path d="M96.07 87.0201C97.12 80.9501 97.83 74.8401 98.06 68.6801C98.38 59.9001 86.96 55.6501 80.99 61.6101C77.23 65.3601 74.1301 69.6401 72.0301 74.5201C70.2401 78.6801 70.18 83.2301 73.59 86.6401C76.75 89.8001 81.85 90.4001 85.71 88.2001C90.83 85.2801 92.88 79.9701 91.38 74.3401C90.04 69.3001 84.2 65.6801 79.08 67.3601C73.64 69.1301 69.14 73.0901 68.11 78.9401C66.34 89.0401 76.91 95.1401 84.82 88.6701C91.96 82.8301 87.78 71.7501 79.91 69.1501C73.35 66.9901 65.49 67.7201 59.18 70.3201C50.31 73.9801 49.13 86.3401 59.18 89.6101C62.97 90.8401 66.51 90.7201 70.39 90.0001C80.55 88.1301 79.24 73.3501 70.39 70.7101C61.54 68.0701 52.41 70.7401 43.68 70.3801C39.48 70.2101 34.9201 69.0601 30.7801 70.3101C25.3001 71.9601 22.2 76.7801 22.01 82.3101C21.6 93.8901 38.33 95.4601 41.65 84.9701C45.7 72.1701 47.85 58.8401 48.19 45.4201C48.44 35.4801 34.4 31.8401 29.56 40.3701C25.09 48.2301 26.1 56.5501 24.06 64.9801L43.7 67.6401C44.69 57.8701 45.43 48.0801 45.92 38.2801C46.34 29.9201 34.48 24.6901 28.85 31.2101C26.08 34.4201 24.58 37.5601 24.6 41.8701C24.64 52.0501 37.97 55.1301 43.23 46.9201C45.7 43.0701 47.48 38.8101 48.45 34.3501L38.81 41.6901C43.73 42.1801 48.66 40.8501 52.72 38.0401C59.18 33.5801 59.07 25.2501 52.72 20.7701C48.07 17.4901 42.15 16.7901 36.76 18.4301C26.19 21.6301 27.85 38.3001 39.42 38.0701C45.1 37.9601 50.22 38.7901 55.6 40.6001C54.8 34.5101 54.01 28.4201 53.21 22.3201C45.59 27.0401 38.81 31.9901 33.5 39.3001C28.23 46.5501 36.93 56.2601 44.79 53.9901C51.34 52.1001 57.59 49.3401 63.32 45.6501L51.2 29.9401C43.99 36.9201 30.74 51.7601 40.69 61.6101C46.06 66.9301 53.51 64.9801 59.09 61.2501C64.67 57.5201 67.81 52.7601 68.71 45.9301C69.82 37.5301 59.61 34.6601 53.66 37.3001C46.85 40.3201 41.11 45.9801 37.83 52.6601C34.16 60.1401 31.88 71.4301 40.73 76.3101C48.77 80.7401 57.88 74.1901 63.71 68.9701C69.54 63.7501 73.65 56.8701 76.42 49.4701C78.42 44.1101 74.13 38.9001 69.44 37.1701C60.57 33.8901 53.59 41.9401 50.24 49.1601C46.87 56.4201 43.75 66.6501 50.24 73.1801C57.36 80.3401 66.9 75.7101 72.37 69.2201C77.4 63.2601 80.9 56.2201 82.2 48.5001C82.95 44.0601 81.7 39.6001 77.6 37.2101C73.86 35.0201 68.5 35.5501 65.48 38.7701C57.66 47.1101 49.19 69.5801 64.05 75.8101C79.33 82.2101 88.1 57.4601 88.73 46.5701C89.31 36.4401 74.91 33.2601 70.1 41.5201C65.29 49.7801 60.95 65.3201 71.34 71.1001C84.8101 78.5901 91.55 58.3901 91.08 48.7001C90.55 37.7501 74.39 34.7401 71.44 46.0401C69.98 51.6201 70 57.3901 71.99 62.8301C74.69 70.1901 86.15 73.5801 90.27 65.2201C93.03 59.6201 94.55 53.9401 94.51 47.6601C94.43 34.7001 75.28 34.8901 74.51 47.6601C74.22 52.4601 74.7 57.0701 75.57 61.7901C77.69 73.2801 94.79 69.9601 95.21 59.1301C95.32 56.2001 95.44 53.2701 95.55 50.3401C95.76 44.9401 90.8 40.3401 85.55 40.3401C79.55 40.3401 76.27 44.9601 75.55 50.3401C74.83 55.7201 75.21 60.5801 75.95 65.8401C76.63 70.6901 82.57 73.6601 86.92 73.0001C92.18 72.2101 95.02 68.2701 95.59 63.1801C96.16 58.0901 96.63 52.9101 96.91 47.7501C97.19 42.5901 98.04 36.3101 94.44 31.7701C90.53 26.8401 83.36 26.2901 78.66 30.3801C74.2 34.2501 72.68 40.6901 74.71 46.2401C77.27 53.2501 85.68 56.1601 91.42 50.6501C97.84 44.4901 99.8 33.6101 93.27 26.7101C87.94 21.0701 78.51 19.7201 72.4 24.8901C65.68 30.5701 62.64 43.5501 71.61 48.8201C80.58 54.0901 90.9 46.7401 91.68 36.9501C92.31 28.9901 87.56 21.0401 79.64 18.9001C70.81 16.5101 60.49 22.5201 60.27 32.1801C60.06 41.3601 69.34 47.0101 77.69 44.3401C87.43 41.2301 89.11 28.3101 82.61 21.3101C76.11 14.3101 62.27 12.8901 56.64 21.3001C49.25 32.3101 64.24 45.6801 73.67 35.5501C77.1 31.8701 77.94 24.9701 73.67 21.4101C68.31 16.9401 61.93 14.1301 54.81 15.0401C49.87 15.6701 45.63 18.3601 44.99 23.7101C44.43 28.4501 47.23 33.5201 52.15 34.6801C64.93 37.6901 77.83 37.6901 90.61 34.6801C103.39 31.6701 97.83 12.4401 85.29 15.3901C76.05 17.5701 66.7 17.5701 57.46 15.3901C56.57 21.9401 55.69 28.4901 54.8 35.0301C56.29 34.8401 58.24 34.4801 59.51 35.5401V21.4001L58.99 21.9601L66.06 19.0301L65.24 19.0601L70.29 20.4301L69.63 19.9401L74.58 28.5701L74.5 27.3601L73.13 32.4101L73.89 31.3901L70.3 34.9801L71.46 34.4901L66.41 35.8601C67.32 35.7001 68.25 35.6401 69.17 35.6901C71.95 36.8301 71.54 34.1501 67.93 27.6401L72.34 25.0701L77.5301 26.6601L80.1 31.0701L80.31 31.6001L78.94 36.6501C76.93 40.6301 68.78 36.4501 72.46 33.2801L76.87 30.7101L77.52 30.6201L82.57 31.9901L83.07 32.3701L86 39.4401C85.95 38.5701 85.43 38.8501 84.44 40.2801C83.12 41.8001 81.44 42.0501 79.42 41.0301C78.64 40.3601 77.05 36.6901 77.22 36.5301C82.79 38.0001 88.36 39.4701 93.93 40.9401L93.29 43.2901L89.7 46.8801L90.67 46.1601L82.96 47.1701L83.86 47.4901L77.88 42.8901L78.38 43.8901L77.01 38.8401C77.91 46.6601 76.39 55.4001 75.52 63.1901L95.16 60.5301C94.69 57.1901 95.03 53.6601 95.48 50.3501H75.48C75.37 53.2801 75.25 56.2101 75.14 59.1401L94.7801 56.4801C94.2401 53.5401 94.26 50.6401 94.44 47.6701H74.44C74.46 50.3601 74.14 52.6901 72.93 55.1401C79.02 55.9401 85.11 56.7301 91.21 57.5301C90.34 55.1701 90.04 53.7501 90.66 51.3701C84.11 50.4801 77.56 49.6001 71.02 48.7101C71.1 50.3501 71.31 53.7201 70.16 55.0901L74.57 52.5201L73.67 52.8401L81.38 53.8501L80.68 53.4701L84.27 57.0601C85.91 60.3501 85.09 57.5201 85.48 55.8801C85.87 54.2401 86.49 53.0601 87.32 51.6401C81.11 49.9601 74.9 48.2801 68.69 46.5901C68.56 48.8201 68.06 51.0201 67.14 53.0801C66.72 54.0301 66.08 55.0801 65.5 55.9201C64.7 57.0701 63.23 57.3401 65.21 57.0501L72.92 58.0601L72.15 57.5401L75.74 61.1301C76.84 63.2101 76.04 62.5701 76.2 60.4501C76.28 59.3801 76.35 58.9101 76.7 57.7701C77.28 55.8801 78.24 54.3801 79.59 52.9401C74.02 49.7001 68.45 46.4501 62.88 43.2101C62.36 46.2701 61.65 49.2001 60.15 51.9301C59.48 53.1601 58.75 54.3801 57.88 55.4801C57.48 55.9501 57.06 56.4101 56.63 56.8601C55.26 58.2001 55.14 58.3301 56.26 57.2501H61.58L60.34 56.9001L64.75 59.4701L63.94 58.6401L66.51 63.0501C66.6 63.3001 66.15 63.3701 66.42 63.1201C67.09 62.4801 67.19 60.0601 67.55 59.1701C67.86 58.4001 68.18 57.8001 68.58 57.0801C68.83 56.5901 69.11 56.1201 69.42 55.6701C70.29 54.5101 69.89 54.6401 68.24 56.0601H62.92L64.07 56.4901L57.09 44.1901C55.92 47.3201 54.05 50.3201 51.72 52.7301C50.54 53.9501 49.31 55.1301 47.94 56.1301C47.36 56.5501 44.46 57.5901 45.74 57.7101L50.79 59.0801L49.93 58.4901L54.5301 64.4701C54.2201 66.3801 54.25 66.3901 54.63 64.4901C54.85 63.9401 55 63.3801 55.08 62.8001C55.58 61.5101 56.41 60.1201 57.27 59.0501C58.96 56.9401 61.31 55.6901 63.73 54.6101L48.68 45.9801L49.56 43.4501C49.32 43.9801 48.97 44.2901 48.49 44.3901C47.51 44.7201 46.65 44.8001 48.06 44.9001L55.13 47.8301L54.45 47.2001L57.02 51.6101C57.65 53.6901 55.34 57.2301 57.81 53.2001C58.54 52.0001 59.31 50.8001 60.15 49.6901C61.68 47.6801 63.4701 45.8801 65.2801 44.1201C73.3301 36.3301 62.84 22.2001 53.16 28.4101C48.79 31.2101 44.38 33.2901 39.4 34.7301L50.69 49.4201C53.81 45.1301 58.81 42.3501 63.22 39.6101C70.77 34.9301 68.96 24.0601 60.83 21.3301C53.91 19.0101 46.62 17.9401 39.33 18.0901C40.22 24.6401 41.1 31.1901 41.99 37.7301C42.45 37.5901 39.53 35.9301 42.54 38.0601V20.7901C40.82 21.9801 40.78 21.9201 38.72 21.7101C34.6 21.3001 29.94 25.0901 29.08 29.0501C28.44 32.0201 27.52 34.2901 25.88 36.8401C32.09 38.5201 38.3 40.2001 44.51 41.8901L44.61 41.9701L42.04 46.3801L42.91 45.3701C37.22 43.0101 31.5301 40.6601 25.8401 38.3001C25.3501 48.1101 24.61 57.8901 23.62 67.6601C22.48 78.9401 40.65 81.1301 43.26 70.3201C44.76 64.1301 43.55 56.1101 46.74 50.4901C40.53 48.8101 34.32 47.1301 28.11 45.4401C27.81 57.1701 25.8201 68.4901 22.2801 79.6701C28.8301 80.5601 35.38 81.4401 41.92 82.3301L41.95 81.3701L40.58 86.4201L41.12 85.5801L37.5301 89.1701C35.9201 90.2201 36.6 89.7201 38.14 90.0401C39.56 90.3301 41.21 90.2901 42.67 90.3601C45.39 90.5001 48.12 90.5301 50.84 90.4501C55.29 90.3201 60.7 88.7501 64.97 90.0201V70.7301C66.31 70.9101 66.11 70.7801 64.39 70.3401V89.6301C66.53 88.7501 71.44 86.9501 73.06 88.1901L68.46 82.2101L68.74 83.0001V77.6801L68.58 78.4801L71.15 74.0701L70.56 74.5501L87.27 84.2801L84.27 86.6701L71.97 79.6901L72.24 80.7201V75.4001L71.82 76.4101L76.42 70.4301L75.49 70.9601C80.05 75.5201 84.61 80.0801 89.17 84.6401C90.66 81.1901 92.35 78.4201 95 75.7801C89.31 73.4201 83.62 71.0701 77.93 68.7101C77.77 73.0901 77.4 77.4101 76.65 81.7401C75.73 87.0601 78.07 92.5101 83.63 94.0401C88.44 95.3601 95.01 92.4101 95.93 87.0601L96.07 87.0201Z" fill="#FF46A0"/>
<path d="M35.34 18.861H35.03C33.65 18.811 32.37 19.101 31.18 19.721C29.94 20.121 28.87 20.811 27.96 21.791C26.98 22.701 26.3 23.771 25.89 25.011C25.26 26.201 24.98 27.491 25.03 28.861L25.39 31.521C25.87 33.211 26.72 34.681 27.96 35.931L29.98 37.491C31.54 38.391 33.22 38.851 35.03 38.861H35.34C36.72 38.911 38 38.621 39.19 38.001C40.43 37.601 41.5 36.911 42.41 35.931C43.39 35.021 44.07 33.951 44.48 32.711C45.11 31.521 45.39 30.231 45.34 28.861L44.98 26.201C44.5 24.511 43.65 23.041 42.41 21.791L40.39 20.231C38.83 19.331 37.15 18.871 35.34 18.861Z" fill="#FF46A0"/>
</svg>
