<svg width="111" height="131" viewBox="0 0 111 131" fill="none" xmlns="http://www.w3.org/2000/svg">
<mask id="mask0_649_270" style="mask-type:alpha" maskUnits="userSpaceOnUse" x="0" y="0" width="111" height="131">
<path fill-rule="evenodd" clip-rule="evenodd" d="M110.422 0L110.32 57.7559L110.25 97.5996L110.191 130.898L56.7461 130.441L0 129.955V0H110.422Z" fill="#D9D9D9"/>
</mask>
<g mask="url(#mask0_649_270)">
<path d="M3.54 25.2455C13.97 22.1755 23.77 13.9754 32.46 7.66544C35.04 5.79544 32.55 1.4555 29.94 3.3455C25.52 6.5555 21.02 9.66542 16.43 12.6354C11.84 15.6054 7.36006 18.9055 2.22006 20.4255C-0.859945 21.3355 0.450011 26.1555 3.55001 25.2455H3.54Z" fill="#FF46A0"/>
<path d="M31.07 7.89618C58.59 6.34618 86.1401 5.48623 113.7 5.32623C116.92 5.30623 116.92 0.306232 113.7 0.326232C86.1401 0.486232 58.59 1.34618 31.07 2.89618C27.87 3.07618 27.85 8.07618 31.07 7.89618Z" fill="#FF46A0"/>
<path d="M2.99997 26.476C12.29 25.906 21.54 26.6559 30.82 26.9259C39.09 27.1659 47.36 26.9459 55.62 26.6959C73.36 26.1659 91.1001 25.6059 108.84 25.0659C112.05 24.9659 112.06 19.9659 108.84 20.0659C91.1001 20.6059 73.36 21.1659 55.62 21.6959C47.35 21.9459 39.08 22.1559 30.82 21.9259C21.53 21.6659 12.29 20.906 2.99997 21.476C-0.200026 21.676 -0.220026 26.676 2.99997 26.476Z" fill="#FF46A0"/>
<path d="M0.49999 23.8155C1.88999 62.0955 2.24005 100.396 1.56005 138.696C1.50005 141.966 6.26005 141.846 6.56005 138.696C6.69005 137.296 6.83007 135.886 6.96007 134.486C7.27007 131.286 2.26007 131.306 1.96007 134.486C1.83007 135.886 1.69005 137.296 1.56005 138.696H6.56005C7.25005 100.396 6.88999 62.0955 5.49999 23.8155C5.37999 20.6055 0.37999 20.5955 0.49999 23.8155Z" fill="#FF46A0"/>
<path d="M54.47 24.4054C53.57 43.9854 56.31 63.4154 56.92 82.9554C57.53 102.585 56.46 122.315 56.02 141.945C55.95 145.165 60.95 145.165 61.02 141.945C61.46 122.315 62.53 102.585 61.92 82.9554C61.31 63.3254 58.57 43.9854 59.47 24.4054C59.62 21.1854 54.62 21.1954 54.47 24.4054Z" fill="#FF46A0"/>
<path d="M31.9899 35.8548C31.6599 36.9148 31.5499 37.6348 31.6299 38.7448C31.8999 42.6848 38.1799 44.1548 38.9999 39.7448C39.3599 38.8548 39.1999 38.7248 38.5099 39.3548C37.5299 39.7948 37.68 39.9148 38.95 39.7148C39.96 39.8548 41.16 39.7247 42.18 39.7647C43.26 39.8047 44.3399 39.8648 45.4099 39.9648L46.4799 40.0647C47.7899 40.4347 47.65 40.0348 46.06 38.8748L49.68 34.1248C45.64 34.3248 41.61 34.2447 37.58 33.8947C32.77 33.4647 32.8 40.9747 37.58 41.3947C41.61 41.7547 45.63 41.8348 49.68 41.6248C51.99 41.5048 54.1 39.3048 53.3 36.8748C51.69 31.9948 45.8999 32.3748 41.6499 32.2348C37.0199 32.0848 32.7699 32.3048 31.7699 37.7348L39.1399 38.7348L39.2299 37.8448C40.6899 33.2348 33.4499 31.2548 31.9999 35.8548H31.9899Z" fill="#FF46A0"/>
<path d="M36.4399 43.0561C40.7899 43.1161 45.13 42.9961 49.47 42.6961C54.26 42.3661 54.3 34.8661 49.47 35.1961C45.13 35.4961 40.7899 35.6161 36.4399 35.5561C31.6099 35.4861 31.6099 42.9861 36.4399 43.0561Z" fill="#FF46A0"/>
<path d="M101.81 39.086C104.83 38.846 107.85 38.7859 110.87 38.9259C115.7 39.1459 115.68 31.6459 110.87 31.4259C107.84 31.2859 104.83 31.346 101.81 31.586C99.7901 31.746 98.0601 33.196 98.0601 35.336C98.0601 37.236 99.7801 39.246 101.81 39.086Z" fill="#FF46A0"/>
<path d="M99.79 32.8646C97.26 35.4646 98.06 39.7245 101.24 41.3945C104.01 42.8445 107.79 42.1047 110.77 42.0047C115.58 41.8447 115.61 34.3447 110.77 34.5047C109.34 34.5547 107.9 34.6045 106.47 34.6445C105.94 34.6645 105.27 34.5646 104.76 34.6846C103.92 34.8946 105.85 35.4145 105.77 36.1345L105.26 38.0246L105.09 38.1646C108.46 34.7046 103.16 29.3946 99.79 32.8646Z" fill="#FF46A0"/>
<path d="M17.0999 24.1761C25.7399 19.6061 33.36 13.3061 41.15 7.45608C42.42 6.50608 41.18 4.32605 39.89 5.29605C32.1 11.1461 24.48 17.446 15.84 22.016C14.42 22.766 15.6799 24.9261 17.0999 24.1761Z" fill="#FF46A0"/>
<path d="M28.4999 24.3664C36.5299 18.6864 44.33 12.7264 51.93 6.48642C53.17 5.46642 51.3999 3.7064 50.1599 4.7164C42.7299 10.8264 35.0899 16.6564 27.2399 22.2064C25.9399 23.1264 27.1799 25.2964 28.4999 24.3664Z" fill="#FF46A0"/>
<path d="M41.5999 25.0644C49.7899 18.8044 57.9699 12.5444 66.1599 6.29442C67.4199 5.33442 66.1799 3.15439 64.8999 4.13439C56.7099 10.3944 48.53 16.6544 40.34 22.9044C39.08 23.8644 40.3199 26.0444 41.5999 25.0644Z" fill="#FF46A0"/>
<path d="M55.9299 23.7563C63.2899 18.2163 70.6499 12.6862 78.0099 7.14619C79.2799 6.18619 78.0399 4.01628 76.7499 4.98628C69.3899 10.5263 62.0299 16.0563 54.6699 21.5963C53.3999 22.5563 54.6399 24.7263 55.9299 23.7563Z" fill="#FF46A0"/>
<path d="M66.3 24.1651C75.04 17.3451 84.26 11.2451 93.93 5.82513C95.33 5.03513 94.07 2.8751 92.67 3.6651C82.81 9.1851 73.44 15.4451 64.53 22.3951C63.26 23.3851 65.04 25.1451 66.3 24.1651Z" fill="#FF46A0"/>
<path d="M81 23.1658C90.7 18.1058 97.4701 8.30587 108.45 5.72587C110.02 5.35587 109.35 2.94584 107.79 3.31584C96.5201 5.96584 89.66 15.8359 79.74 21.0059C78.31 21.7459 79.58 23.9058 81 23.1658Z" fill="#FF46A0"/>
<path d="M94.42 22.0562C101.97 16.1262 109.53 10.2062 117.08 4.27616C118.34 3.28616 116.56 1.52626 115.31 2.50626C107.76 8.43626 100.2 14.3562 92.65 20.2862C91.39 21.2762 93.17 23.0362 94.42 22.0562Z" fill="#FF46A0"/>
<path d="M102.05 23.5253C106.85 20.3553 111.44 16.9053 115.82 13.1753C117.05 12.1253 115.27 10.3653 114.05 11.4053C109.83 14.9953 105.41 18.3154 100.79 21.3654C99.45 22.2454 100.7 24.4153 102.05 23.5253Z" fill="#FF46A0"/>
</g>
</svg>
