<svg width="955" height="379" viewBox="0 0 955 379" fill="none" xmlns="http://www.w3.org/2000/svg">
<mask id="mask0_729_212" style="mask-type:alpha" maskUnits="userSpaceOnUse" x="0" y="0" width="955" height="379">
<path d="M7 0L0 7.5V379L954.5 374.5L952.5 343.5L839 231.5C792.6 227.9 643.333 230 574.5 231.5C552.833 210.167 505.3 164.4 488.5 152C471.7 139.6 385.167 46.5 344 1.5L7 0Z" fill="#D9D9D9"/>
</mask>
<g mask="url(#mask0_729_212)">
<path d="M592.72 233.83C593.36 233.83 593.36 232.83 592.72 232.83C592.08 232.83 592.08 233.83 592.72 233.83Z" fill="#FF46A0"/>
<path d="M592.183 230.943C595.107 280.974 588.051 331.073 592.537 381.064C592.651 382.307 594.733 382.317 594.618 381.064C590.143 331.073 597.189 280.974 594.264 230.943C594.192 229.691 592.11 229.681 592.183 230.943Z" fill="#FF46A0"/>
<path d="M602.77 226.38C602.52 277.49 602.27 328.61 602.01 379.72C602.01 381.01 604 381.01 604.01 379.72C604.26 328.61 604.51 277.49 604.77 226.38C604.77 225.09 602.78 225.09 602.77 226.38Z" fill="#FF46A0"/>
<path d="M614.77 229.149C616.8 279.659 608.72 330.119 613.15 380.589C613.26 381.859 615.26 381.869 615.15 380.589C610.72 330.119 618.8 279.659 616.77 229.149C616.72 227.869 614.72 227.859 614.77 229.149Z" fill="#FF46A0"/>
<path d="M625.43 227.761C628.24 278.901 621.46 330.111 625.77 381.211C625.88 382.481 627.88 382.491 627.77 381.211C623.47 330.111 630.24 278.901 627.43 227.761C627.36 226.481 625.36 226.471 625.43 227.761Z" fill="#FF46A0"/>
<path d="M636.14 226.649C635.89 277.759 635.64 328.879 635.38 379.989C635.38 381.279 637.37 381.279 637.38 379.989C637.63 328.879 637.88 277.759 638.14 226.649C638.14 225.359 636.15 225.359 636.14 226.649Z" fill="#FF46A0"/>
<path d="M648.14 229.421C650.17 279.931 642.09 330.391 646.52 380.861C646.63 382.131 648.63 382.141 648.52 380.861C644.09 330.391 652.17 279.931 650.14 229.421C650.09 228.141 648.09 228.131 648.14 229.421Z" fill="#FF46A0"/>
<path d="M658.81 228.028C661.62 279.168 654.84 330.378 659.15 381.478C659.26 382.748 661.26 382.758 661.15 381.478C656.85 330.378 663.62 279.168 660.81 228.028C660.74 226.748 658.74 226.738 658.81 228.028Z" fill="#FF46A0"/>
<path d="M669.52 226.921C669.27 278.031 669.02 329.151 668.76 380.261C668.76 381.551 670.75 381.551 670.76 380.261C671.01 329.151 671.26 278.031 671.52 226.921C671.52 225.631 669.53 225.631 669.52 226.921Z" fill="#FF46A0"/>
<path d="M681.51 229.688C683.54 280.198 675.46 330.658 679.89 381.128C680 382.398 682 382.408 681.89 381.128C677.46 330.658 685.54 280.198 683.51 229.688C683.46 228.408 681.46 228.398 681.51 229.688Z" fill="#FF46A0"/>
<path d="M692.18 228.302C694.99 279.442 688.21 330.652 692.52 381.752C692.63 383.022 694.63 383.032 694.52 381.752C690.22 330.652 696.99 279.442 694.18 228.302C694.11 227.022 692.11 227.012 692.18 228.302Z" fill="#FF46A0"/>
<path d="M702.89 227.18C702.64 278.29 702.39 329.41 702.13 380.52C702.13 381.81 704.12 381.81 704.13 380.52C704.38 329.41 704.63 278.29 704.89 227.18C704.89 225.89 702.9 225.89 702.89 227.18Z" fill="#FF46A0"/>
<path d="M714.89 229.962C716.92 280.472 708.84 330.932 713.27 381.402C713.38 382.672 715.38 382.682 715.27 381.402C710.84 330.932 718.92 280.472 716.89 229.962C716.84 228.682 714.84 228.672 714.89 229.962Z" fill="#FF46A0"/>
<path d="M725.55 228.569C728.36 279.709 721.58 330.919 725.89 382.019C726 383.289 728 383.299 727.89 382.019C723.59 330.919 730.36 279.709 727.55 228.569C727.48 227.289 725.48 227.279 725.55 228.569Z" fill="#FF46A0"/>
<path d="M736.26 227.45C736.01 278.56 735.76 329.68 735.5 380.79C735.5 382.08 737.49 382.08 737.5 380.79C737.75 329.68 738 278.56 738.26 227.45C738.26 226.16 736.27 226.16 736.26 227.45Z" fill="#FF46A0"/>
<path d="M748.26 230.229C750.29 280.739 742.21 331.199 746.64 381.669C746.75 382.939 748.75 382.949 748.64 381.669C744.21 331.199 752.29 280.739 750.26 230.229C750.21 228.949 748.21 228.939 748.26 230.229Z" fill="#FF46A0"/>
<path d="M758.93 228.841C761.74 279.981 754.96 331.191 759.27 382.291C759.38 383.561 761.38 383.571 761.27 382.291C756.97 331.191 763.74 279.981 760.93 228.841C760.86 227.561 758.86 227.551 758.93 228.841Z" fill="#FF46A0"/>
<path d="M769.64 227.719C769.39 278.829 769.14 329.949 768.88 381.059C768.88 382.349 770.87 382.349 770.88 381.059C771.13 329.949 771.38 278.829 771.64 227.719C771.64 226.429 769.65 226.429 769.64 227.719Z" fill="#FF46A0"/>
<path d="M781.64 230.501C783.67 281.011 775.59 331.471 780.02 381.941C780.13 383.211 782.13 383.221 782.02 381.941C777.59 331.471 785.67 281.011 783.64 230.501C783.59 229.221 781.59 229.211 781.64 230.501Z" fill="#FF46A0"/>
<path d="M792.3 229.11C795.11 280.25 788.33 331.46 792.64 382.56C792.75 383.83 794.75 383.84 794.64 382.56C790.34 331.46 797.11 280.25 794.3 229.11C794.23 227.83 792.23 227.82 792.3 229.11Z" fill="#FF46A0"/>
<path d="M803.01 227.991C802.76 279.101 802.51 330.221 802.25 381.331C802.25 382.621 804.24 382.621 804.25 381.331C804.5 330.221 804.75 279.101 805.01 227.991C805.01 226.701 803.02 226.701 803.01 227.991Z" fill="#FF46A0"/>
<path d="M815.01 230.77C817.04 281.28 808.96 331.74 813.39 382.21C813.5 383.48 815.5 383.49 815.39 382.21C810.96 331.74 819.04 281.28 817.01 230.77C816.96 229.49 814.96 229.48 815.01 230.77Z" fill="#FF46A0"/>
<path d="M825.68 229.382C828.49 280.522 821.71 331.732 826.02 382.832C826.13 384.102 828.13 384.112 828.02 382.832C823.72 331.732 830.49 280.522 827.68 229.382C827.61 228.102 825.61 228.092 825.68 229.382Z" fill="#FF46A0"/>
<path d="M836.39 228.26C836.14 279.37 835.89 330.49 835.63 381.6C835.63 382.89 837.62 382.89 837.63 381.6C837.88 330.49 838.13 279.37 838.39 228.26C838.39 226.97 836.4 226.97 836.39 228.26Z" fill="#FF46A0"/>
<path d="M848.61 236.53C850.61 285.21 842.93 333.82 846.77 382.47C846.87 383.74 848.87 383.76 848.77 382.47C844.93 333.81 852.61 285.21 850.61 236.53C850.56 235.25 848.56 235.24 848.61 236.53Z" fill="#FF46A0"/>
<path d="M859.84 250.139C860.66 294.479 853.95 338.859 859.39 383.099C859.54 384.359 861.55 384.379 861.39 383.099C855.96 338.859 862.66 294.489 861.84 250.139C861.82 248.849 859.82 248.849 859.84 250.139Z" fill="#FF46A0"/>
<path d="M869.77 255.681C870.72 297.751 868.8 339.811 869.01 381.871C869.01 383.161 871.02 383.161 871.01 381.871C870.8 339.801 872.72 297.741 871.77 255.681C871.74 254.401 869.74 254.391 869.77 255.681Z" fill="#FF46A0"/>
<path d="M881.89 267.02C880.72 305.59 876.92 344.17 880.14 382.74C880.25 384.01 882.25 384.02 882.14 382.74C878.92 344.16 882.72 305.59 883.89 267.02C883.93 265.73 881.93 265.73 881.89 267.02Z" fill="#FF46A0"/>
<path d="M892.94 280.251C892.73 314.621 890.85 349.011 892.77 383.371C892.84 384.651 894.84 384.661 894.77 383.371C892.86 349.011 894.74 314.631 894.94 280.251C894.94 278.961 892.95 278.961 892.94 280.251Z" fill="#FF46A0"/>
<path d="M902.85 291.251C902.76 321.551 902.75 351.851 902.38 382.151C902.36 383.441 904.36 383.441 904.38 382.151C904.76 351.851 904.76 321.551 904.85 291.251C904.85 289.961 902.85 289.961 902.85 291.251Z" fill="#FF46A0"/>
<path d="M913.07 301.53C911.36 328.68 910.36 355.92 913.51 383.01C913.66 384.27 915.66 384.29 915.51 383.01C912.36 355.93 913.36 328.68 915.07 301.53C915.15 300.24 913.15 300.25 913.07 301.53Z" fill="#FF46A0"/>
<path d="M925.22 313.37C924.5 336.8 924.16 360.25 926.14 383.64C926.25 384.91 928.25 384.92 928.14 383.64C926.16 360.26 926.5 336.8 927.22 313.37C927.26 312.08 925.26 312.08 925.22 313.37Z" fill="#FF46A0"/>
<path d="M936.03 327.251C935.94 345.641 935.85 364.031 935.76 382.421C935.76 383.711 937.75 383.711 937.76 382.421C937.85 364.031 937.94 345.641 938.03 327.251C938.03 325.961 936.04 325.961 936.03 327.251Z" fill="#FF46A0"/>
<path d="M945.73 334.13C945.3 350.53 945.45 366.93 946.89 383.28C947 384.55 949 384.56 948.89 383.28C947.45 366.93 947.3 350.53 947.73 334.13C947.76 332.84 945.76 332.84 945.73 334.13Z" fill="#FF46A0"/>
<path d="M14.68 -1.93116C11.46 97.7788 14.01 197.609 15.34 297.339C15.72 325.629 16.1001 353.929 16.4801 382.219C16.5001 383.509 18.5001 383.509 18.4801 382.219C17.1401 282.459 14.8501 182.649 15.2301 82.8788C15.3401 54.6088 15.77 26.3388 16.68 -1.92117C16.72 -3.21117 14.72 -3.21117 14.68 -1.92117V-1.93116Z" fill="#FF46A0"/>
<path d="M1.76004 -1.58133C3.05004 98.8786 4.34002 199.349 4.62002 299.819C4.70002 328.429 4.69001 357.039 4.58001 385.649C4.58001 386.939 6.58001 386.939 6.58001 385.649C6.96001 285.179 6.05002 184.709 4.84002 84.2486C4.50002 55.6386 4.13004 27.0286 3.76004 -1.58133C3.74004 -2.87133 1.74004 -2.87133 1.76004 -1.58133Z" fill="#FF46A0"/>
<path d="M26.04 -2.87993C24.92 96.3801 23.93 195.66 26.09 294.91C26.7 323.04 27.57 351.16 28.73 379.26C28.78 380.54 30.78 380.55 30.73 379.26C26.63 280.07 26.39 180.78 27.19 81.5201C27.42 53.3801 27.73 25.2501 28.04 -2.88992C28.05 -4.17992 26.05 -4.17992 26.04 -2.88992V-2.87993Z" fill="#FF46A0"/>
<path d="M48.11 -1.26907C44.89 98.4409 47.44 198.271 48.77 298.001C49.15 326.291 49.53 354.591 49.91 382.881C49.93 384.171 51.93 384.171 51.91 382.881C50.57 283.121 48.28 183.311 48.66 83.5409C48.77 55.2709 49.2 27.0009 50.11 -1.25906C50.15 -2.54906 48.15 -2.54906 48.11 -1.25906V-1.26907Z" fill="#FF46A0"/>
<path d="M35.18 -0.919218C36.47 99.5408 37.76 200.011 38.04 300.481C38.12 329.091 38.11 357.701 38 386.311C38 387.601 40 387.601 40 386.311C40.38 285.841 39.47 185.371 38.26 84.9108C37.92 56.3008 37.55 27.6908 37.18 -0.919218C37.16 -2.20922 35.16 -2.20922 35.18 -0.919218Z" fill="#FF46A0"/>
<path d="M59.47 -2.22952C58.36 97.7605 59.28 197.781 62.27 297.73C63.12 325.961 64.13 354.181 65.3 382.391C65.35 383.671 67.35 383.681 67.3 382.391C63.15 282.48 61.04 182.48 61 82.4805C60.99 54.2405 61.15 26.0005 61.46 -2.23953C61.47 -3.52953 59.47 -3.52953 59.46 -2.23953L59.47 -2.22952Z" fill="#FF46A0"/>
<path d="M81.53 -0.620231C80.22 23.1198 79.88 46.8898 79.75 70.6698C79.75 71.9598 81.74 71.9598 81.75 70.6698C81.87 46.8998 82.22 23.1198 83.53 -0.620231C83.6 -1.91023 81.6 -1.90023 81.53 -0.620231Z" fill="#FF46A0"/>
<path d="M68.6099 -0.270782C67.9799 26.8292 69.03 53.9092 69.55 80.9992C69.57 82.2892 71.57 82.2892 71.55 80.9992C71.03 53.9092 69.9799 26.8292 70.6099 -0.270782C70.6399 -1.56078 68.6399 -1.56078 68.6099 -0.270782Z" fill="#FF46A0"/>
<path d="M92.89 -1.58133C92.82 15.1386 92.79 31.8487 92.79 48.5687C92.79 49.8587 94.79 49.8587 94.79 48.5687C94.79 31.8487 94.82 15.1386 94.89 -1.58133C94.89 -2.87133 92.9 -2.87133 92.89 -1.58133Z" fill="#FF46A0"/>
<path d="M114.95 0.03C114.77 5.6 114.61 11.18 114.46 16.76C114.43 18.05 116.43 18.05 116.46 16.76C116.61 11.18 116.77 5.61 116.95 0.03C116.99 -1.26 114.99 -1.26 114.95 0.03Z" fill="#FF46A0"/>
<path d="M102.03 0.379609C102.11 6.89961 102.2 13.4296 102.28 19.9496C102.3 21.2396 104.3 21.2396 104.28 19.9496C104.2 13.4296 104.11 6.89961 104.03 0.379609C104.01 -0.910391 102.01 -0.910391 102.03 0.379609Z" fill="#FF46A0"/>
<path d="M126.31 -0.921168C126.25 4.66883 126.19 10.2488 126.14 15.8388C126.13 17.1288 128.13 17.1288 128.14 15.8388C128.19 10.2488 128.25 4.66883 128.31 -0.921168C128.32 -2.21117 126.32 -2.21117 126.31 -0.921168Z" fill="#FF46A0"/>
<path d="M148.38 0.680551C148.32 2.07055 148.26 3.46056 148.21 4.86056C148.16 6.15056 150.16 6.14056 150.21 4.86056C150.26 3.47056 150.32 2.07055 150.38 0.680551C150.43 -0.609449 148.43 -0.599449 148.38 0.680551Z" fill="#FF46A0"/>
<path d="M135.45 1.03C135.39 4.75 135.34 8.47 135.32 12.2C135.32 13.49 137.31 13.49 137.32 12.2C137.34 8.48 137.38 4.75 137.45 1.03C137.47 -0.26 135.47 -0.26 135.45 1.03Z" fill="#FF46A0"/>
<path d="M159.74 -0.268832C159.74 1.12117 159.74 2.52117 159.74 3.91117C159.74 5.20117 161.74 5.20117 161.74 3.91117C161.74 2.52117 161.74 1.12117 161.74 -0.268832C161.74 -1.55883 159.74 -1.55883 159.74 -0.268832Z" fill="#FF46A0"/>
<path d="M181.8 0.338594C181.63 5.67859 181.47 11.0286 181.33 16.3686C181.3 17.6586 183.3 17.6586 183.33 16.3686C183.47 11.0286 183.63 5.67859 183.8 0.338594C183.84 -0.951406 181.84 -0.951406 181.8 0.338594Z" fill="#FF46A0"/>
<path d="M168.88 0.678437C168.9 2.30843 168.92 3.93845 168.94 5.56845C168.96 6.85845 170.96 6.85845 170.94 5.56845C170.92 3.93845 170.9 2.30843 170.88 0.678437C170.86 -0.611562 168.86 -0.611562 168.88 0.678437Z" fill="#FF46A0"/>
<path d="M193.16 -0.620391C193.07 7.52961 192.99 15.6696 192.93 23.8196C192.92 25.1096 194.92 25.1096 194.93 23.8196C195 15.6696 195.07 7.52961 195.16 -0.620391C195.17 -1.91039 193.17 -1.91039 193.16 -0.620391Z" fill="#FF46A0"/>
<path d="M215.22 -1.01102C214.99 6.18898 214.78 13.389 214.61 20.599C214.58 21.889 216.58 21.889 216.61 20.599C216.79 13.399 216.99 6.19898 217.22 -1.01102C217.26 -2.30102 215.26 -2.30102 215.22 -1.01102Z" fill="#FF46A0"/>
<path d="M202.3 -0.661406C202.4 6.79859 202.49 14.2486 202.59 21.7086C202.61 22.9986 204.61 22.9986 204.59 21.7086C204.49 14.2486 204.4 6.79859 204.3 -0.661406C204.28 -1.95141 202.28 -1.95141 202.3 -0.661406Z" fill="#FF46A0"/>
<path d="M226.58 -1.97C226.49 5.94 226.42 13.86 226.35 21.77C226.34 23.06 228.34 23.06 228.35 21.77C228.41 13.86 228.49 5.94 228.58 -1.97C228.59 -3.26 226.59 -3.26 226.58 -1.97Z" fill="#FF46A0"/>
<path d="M248.485 1.67725C248.296 22.9016 248.137 44.0984 248 65.3227C247.978 68.8924 249.492 68.8924 249.515 65.3227C249.651 44.0984 249.818 22.9016 250 1.67725C250.03 -1.89242 248.515 -1.89242 248.485 1.67725Z" fill="#FF46A0"/>
<path d="M236 0.10891C236.094 21.7103 236.189 43.2899 236.283 64.8913C236.292 67.7029 238.009 67.7029 238 64.8913C237.906 43.2899 237.811 21.7103 237.717 0.10891C237.708 -2.70297 235.991 -2.70297 236 0.10891Z" fill="#FF46A0"/>
<path d="M260.206 0.750829C260.126 23.2408 260.063 45.7592 260 68.2492C259.991 71.9169 261.785 71.9169 261.794 68.2492C261.847 45.7592 261.919 23.2408 262 0.750829C262.009 -2.91694 260.215 -2.91694 260.206 0.750829Z" fill="#FF46A0"/>
<path d="M282.479 1.9542C282.297 24.6413 282.137 47.3587 282 70.0458C281.977 73.9847 283.498 73.9847 283.521 70.0458C283.657 47.3587 283.817 24.6413 284 1.9542C284.03 -1.98473 282.51 -1.98473 282.479 1.9542Z" fill="#FF46A0"/>
<path d="M269 3.13712C269.08 25.0565 269.151 46.9435 269.23 68.8629C269.248 73.0457 271.018 73.0457 271 68.8629C270.92 46.9435 270.849 25.0565 270.77 3.13712C270.752 -1.04571 268.982 -1.04571 269 3.13712Z" fill="#FF46A0"/>
<path d="M293.198 0.98287C293.117 24.6609 293.054 48.3391 293 72.0171C292.991 75.9943 294.793 75.9943 294.802 72.0171C294.856 48.3391 294.928 24.6609 295 0.98287C295.009 -2.99429 293.207 -2.99429 293.198 0.98287Z" fill="#FF46A0"/>
<path d="M315.49 0.949922C314.71 25.1099 314.29 49.2699 314.11 73.4399C314.11 74.7299 316.1 74.7299 316.11 73.4399C316.29 49.2699 316.71 25.0999 317.49 0.949922C317.53 -0.340078 315.53 -0.340078 315.49 0.949922Z" fill="#FF46A0"/>
<path d="M303 2.82811C303.079 23.9329 303.167 45.0378 303.246 66.1719C303.263 69.9427 305.017 69.9427 305 66.1719C304.921 45.0671 304.833 23.9622 304.754 2.82811C304.737 -0.942705 302.983 -0.942705 303 2.82811Z" fill="#FF46A0"/>
<path d="M326.85 -0.00929403C325.72 99.4607 323.94 198.951 325.73 298.431C326.24 326.591 327.04 354.741 328.21 382.881C328.26 384.161 330.26 384.171 330.21 382.881C326.1 283.471 326.67 183.961 327.84 84.5007C328.17 56.3307 328.54 28.1707 328.86 0.000700474C328.87 -1.2893 326.87 -1.2893 326.86 0.000700474L326.85 -0.00929403Z" fill="#FF46A0"/>
<path d="M348.72 5.86984C346.45 103.98 348.34 202.11 349.75 300.21C350.15 328.05 350.51 355.9 350.72 383.74C350.72 385.03 352.73 385.03 352.72 383.74C351.97 285.62 349.39 187.51 349.68 89.3799C349.76 61.5399 350.08 33.6998 350.73 5.86984C350.76 4.57984 348.76 4.57984 348.73 5.86984H348.72Z" fill="#FF46A0"/>
<path d="M335.99 -0.0500768C337.28 100.41 338.57 200.88 338.85 301.35C338.93 329.96 338.92 358.57 338.81 387.18C338.81 388.47 340.81 388.47 340.81 387.18C341.19 286.71 340.28 186.24 339.07 85.7799C338.73 57.1699 338.36 28.5599 337.99 -0.0500768C337.97 -1.34008 335.97 -1.34008 335.99 -0.0500768Z" fill="#FF46A0"/>
<path d="M360.11 14.6999C359.08 110.41 360.66 206.13 363.46 301.8C364.26 328.96 365.15 356.11 366.11 383.27C366.16 384.55 368.16 384.56 368.11 383.27C364.74 287.54 362.15 191.76 361.82 95.9699C361.73 68.8799 361.82 41.7899 362.11 14.6999C362.12 13.4099 360.12 13.4099 360.11 14.6999Z" fill="#FF46A0"/>
<path d="M381.33 41.4987C378.61 132.019 382.8 222.529 384.04 313.029C384.39 338.479 384.49 363.939 384.14 389.389C384.12 390.679 386.12 390.679 386.14 389.389C387.37 298.969 382.82 208.609 382.43 118.199C382.32 92.6288 382.56 67.0587 383.33 41.4987C383.37 40.2088 381.37 40.2088 381.33 41.4987Z" fill="#FF46A0"/>
<path d="M369.68 25.8696C371.8 121.73 372.38 217.65 372.78 313.53C372.89 339.97 373.62 366.41 372.24 392.83C372.17 394.12 374.17 394.11 374.24 392.83C375.48 369.3 375.04 345.74 374.84 322.19C374.64 298.53 374.45 274.86 374.26 251.2C373.89 203.22 373.62 155.23 373.04 107.25C372.71 80.1196 372.28 52.9996 371.68 25.8796C371.65 24.5896 369.65 24.5896 369.68 25.8796V25.8696Z" fill="#FF46A0"/>
<path d="M394.81 263.909C397.6 305.529 396.74 347.299 399.53 388.919C399.62 390.199 401.62 390.209 401.53 388.919C398.74 347.299 399.6 305.529 396.81 263.909C396.72 262.629 394.72 262.619 394.81 263.909Z" fill="#FF46A0"/>
<path d="M393.26 48.37C395.68 116.09 391.83 183.87 394.44 251.59C394.49 252.87 396.49 252.88 396.44 251.59C393.83 183.87 397.68 116.1 395.26 48.37C395.21 47.09 393.21 47.08 393.26 48.37Z" fill="#FF46A0"/>
<path d="M417.12 364.12C417.27 372.75 417.42 381.38 417.57 390.02C417.59 391.31 419.59 391.31 419.57 390.02C419.42 381.39 419.27 372.76 419.12 364.12C419.1 362.83 417.1 362.83 417.12 364.12Z" fill="#FF46A0"/>
<path d="M414.39 74.3698C414.76 131.02 414.77 187.66 415.01 244.31C415.01 245.6 417.02 245.6 417.01 244.31C416.76 187.66 416.76 131.02 416.39 74.3698C416.39 73.0798 414.38 73.0798 414.39 74.3698Z" fill="#FF46A0"/>
<path d="M405.91 356.911C405.86 369.101 405.77 381.291 405.65 393.481C405.64 394.771 407.64 394.771 407.65 393.481C407.77 381.291 407.85 369.101 407.91 356.911C407.91 355.621 405.92 355.621 405.91 356.911Z" fill="#FF46A0"/>
<path d="M403.58 61.53C403.78 121.53 404.77 181.52 405.69 241.51C405.71 242.8 407.71 242.8 407.69 241.51C406.78 181.52 405.78 121.53 405.58 61.53C405.58 60.24 403.58 60.24 403.58 61.53Z" fill="#FF46A0"/>
<path d="M432.02 365.8C432.32 373.71 432.64 381.63 432.96 389.54C433.01 390.82 435.01 390.83 434.96 389.54C434.63 381.63 434.32 373.71 434.02 365.8C433.97 364.52 431.97 364.51 432.02 365.8Z" fill="#FF46A0"/>
<path d="M426.66 84.7898C426.76 138.94 426.78 193.09 428.53 247.22C428.57 248.5 430.57 248.51 430.53 247.22C428.78 193.09 428.76 138.94 428.66 84.7898C428.66 83.4998 426.66 83.4998 426.66 84.7898Z" fill="#FF46A0"/>
<path d="M450.84 362.139C450.88 367.249 450.91 372.359 450.94 377.469C450.94 378.759 452.95 378.759 452.94 377.469C452.91 372.359 452.88 367.249 452.84 362.139C452.84 360.849 450.83 360.849 450.84 362.139Z" fill="#FF46A0"/>
<path d="M447.79 109.62C446.82 154.68 448.74 199.73 449.12 244.79C449.13 246.08 451.13 246.08 451.12 244.79C450.74 199.73 448.81 154.69 449.79 109.62C449.82 108.33 447.82 108.33 447.79 109.62Z" fill="#FF46A0"/>
<path d="M439.21 364.28C439.21 368.68 439.19 373.07 439.17 377.47C439.17 378.76 441.16 378.76 441.17 377.47C441.19 373.07 441.2 368.68 441.21 364.28C441.21 362.99 439.21 362.99 439.21 364.28Z" fill="#FF46A0"/>
<path d="M437.35 101.85C436.9 150.65 438.06 199.43 438.65 248.22C438.67 249.51 440.67 249.51 440.65 248.22C440.06 199.43 438.9 150.64 439.35 101.85C439.36 100.56 437.36 100.56 437.35 101.85Z" fill="#FF46A0"/>
<path d="M465.02 363.37C465.21 367.96 465.41 372.56 465.64 377.15C465.7 378.43 467.7 378.44 467.64 377.15C467.41 372.56 467.2 367.97 467.02 363.37C466.97 362.09 464.97 362.08 465.02 363.37Z" fill="#FF46A0"/>
<path d="M460.3 121.292C459.93 162.492 460.92 203.672 462.06 244.852C462.1 246.132 464.1 246.142 464.06 244.852C462.92 203.672 461.92 162.492 462.3 121.292C462.31 120.002 460.31 120.002 460.3 121.292Z" fill="#FF46A0"/>
<path d="M484 365.056C484.095 373.685 484.181 382.315 484.276 390.944C484.293 392.352 486.017 392.352 486 390.944C485.905 382.315 485.819 373.685 485.724 365.056C485.707 363.648 483.983 363.648 484 365.056Z" fill="#FF46A0"/>
<path d="M481.19 142.159C482.75 193.109 482.77 244.089 483.12 295.049C483.12 296.339 485.13 296.339 485.12 295.049C484.77 244.079 484.76 193.109 483.19 142.159C483.15 140.879 481.15 140.869 481.19 142.159Z" fill="#FF46A0"/>
<path d="M473.068 365.06C473.048 375.024 473.029 384.976 473 394.94C473 396.353 474.932 396.353 474.932 394.94C474.961 384.976 474.99 375.024 475 365.06C475 363.647 473.068 363.647 473.068 365.06Z" fill="#FF46A0"/>
<path d="M471.35 132.171C470.79 186.391 472.74 240.601 472.5 294.831C472.5 296.121 474.49 296.121 474.5 294.831C474.74 240.611 472.79 186.401 473.35 132.171C473.36 130.881 471.36 130.881 471.35 132.171Z" fill="#FF46A0"/>
<path d="M498.7 362.97C499.05 372.27 499.42 381.57 499.81 390.88C499.86 392.16 501.86 392.17 501.81 390.88C501.42 381.58 501.05 372.28 500.7 362.97C500.65 361.69 498.65 361.68 498.7 362.97Z" fill="#FF46A0"/>
<path d="M493.75 149.911C493.77 199.541 494.78 249.171 496.55 298.771C496.6 300.051 498.6 300.061 498.55 298.771C496.78 249.171 495.77 199.551 495.75 149.911C495.75 148.621 493.75 148.621 493.75 149.911Z" fill="#FF46A0"/>
<path d="M519.24 320.05C519.44 344.04 519.63 368.02 519.84 392.01C519.85 393.3 521.85 393.3 521.84 392.01C521.64 368.02 521.44 344.04 521.24 320.05C521.23 318.76 519.23 318.76 519.24 320.05Z" fill="#FF46A0"/>
<path d="M516.96 174.479C518.04 217.719 518.1 260.979 519.32 304.219C519.36 305.499 521.36 305.509 521.32 304.219C520.1 260.979 520.04 217.719 518.96 174.479C518.93 173.199 516.93 173.189 516.96 174.479Z" fill="#FF46A0"/>
<path d="M506.99 166.171C508.73 211.241 506.79 256.341 507.49 301.421C507.51 302.711 509.51 302.711 509.49 301.421C508.79 256.341 510.72 211.241 508.99 166.171C508.94 164.891 506.94 164.881 506.99 166.171Z" fill="#FF46A0"/>
<path d="M527.27 178.95C524.82 248.95 528.74 318.94 529.98 388.92C530 390.21 532 390.21 531.98 388.92C530.74 318.94 526.82 248.95 529.27 178.95C529.32 177.66 527.31 177.66 527.27 178.95Z" fill="#FF46A0"/>
<path d="M549.61 206.018C549.79 266.448 551.75 326.858 552.04 387.278C552.04 388.568 554.05 388.568 554.04 387.278C553.75 326.848 551.79 266.448 551.61 206.018C551.61 204.728 549.61 204.728 549.61 206.018Z" fill="#FF46A0"/>
<path d="M539.54 198.501C539.76 262.571 539.76 326.651 540.13 390.721C540.13 392.011 542.14 392.011 542.13 390.721C541.77 326.651 541.76 262.571 541.54 198.501C541.54 197.211 539.54 197.211 539.54 198.501Z" fill="#FF46A0"/>
<path d="M562.39 219.319C562.78 275.179 564.78 331.009 567.43 386.809C567.49 388.089 569.49 388.099 569.43 386.809C566.78 331.009 564.78 275.179 564.39 219.319C564.39 218.029 562.38 218.029 562.39 219.319Z" fill="#FF46A0"/>
</g>
</svg>
