<svg width="530" height="371" viewBox="0 0 530 371" fill="none" xmlns="http://www.w3.org/2000/svg">
<mask id="mask0_650_392" style="mask-type:alpha" maskUnits="userSpaceOnUse" x="0" y="0" width="530" height="371">
<path fill-rule="evenodd" clip-rule="evenodd" d="M28.3983 6.13003L57.2208 5.41714C144.871 3.24135 232.534 1.06557 320.21 0.993307C350.7 0.971823 381.19 1.23159 411.68 1.87221C412.146 1.88198 412.596 1.8644 413.029 1.82339C450.285 1.6144 487.542 1.49917 524.798 1.46206C527.2 49.0773 528.965 96.7355 529.51 144.411C530.071 193.68 528.498 242.805 526.922 292.037V292.038L526.85 294.282C526.067 318.714 525.857 343.167 527.379 367.571L323.73 368.763C253.27 369.173 182.82 369.583 112.36 370.003L1.76844 370.646C0.799152 320.397 1.50442 270.147 2.20969 219.897L2.20985 219.886C2.85304 174.066 3.49622 128.245 2.87 82.423C2.52564 57.2023 1.77894 31.9914 0.451181 6.80385C9.76673 6.58315 19.0824 6.35854 28.3983 6.13003Z" fill="#D9D9D9"/>
</mask>
<g mask="url(#mask0_650_392)">
<path d="M457.78 269.203C481.48 269.393 505.17 269.603 528.87 270.003C530.48 270.033 530.48 267.533 528.87 267.503C505.18 267.103 481.48 266.893 457.78 266.703C456.17 266.693 456.17 269.193 457.78 269.203Z" fill="#FF46A0"/>
<path d="M387.2 268.463C394.34 268.573 401.49 268.673 408.63 268.753C410.24 268.773 410.24 266.273 408.63 266.253C401.48 266.173 394.34 266.073 387.2 265.963C385.59 265.933 385.59 268.433 387.2 268.463Z" fill="#FF46A0"/>
<path d="M-10.56 270.073C60.52 268.213 131.64 268.193 202.74 268.143C204.35 268.143 204.35 265.643 202.74 265.643C131.64 265.693 60.53 265.713 -10.56 267.573C-12.17 267.613 -12.17 270.113 -10.56 270.073Z" fill="#FF46A0"/>
<path d="M458.73 302.502C482.92 302.792 507.11 302.863 531.27 301.643C532.87 301.563 532.88 299.063 531.27 299.143C507.11 300.373 482.91 300.302 458.73 300.002C457.12 299.982 457.12 302.482 458.73 302.502Z" fill="#FF46A0"/>
<path d="M386.48 302.153C394.71 301.993 402.94 301.943 411.17 301.963C412.78 301.963 412.78 299.463 411.17 299.463C402.94 299.443 394.71 299.503 386.48 299.653C384.87 299.683 384.87 302.183 386.48 302.153Z" fill="#FF46A0"/>
<path d="M-8.61989 297.162C62.0601 296.192 132.77 295.222 203.44 297.752C205.05 297.812 205.05 295.312 203.44 295.252C132.78 292.722 62.0701 293.702 -8.61989 294.662C-10.2299 294.682 -10.2299 297.182 -8.61989 297.162Z" fill="#FF46A0"/>
<rect x="134.93" y="257.152" width="26" height="49" fill="white"/>
<path d="M526.71 29.1935C528.34 29.2135 529.96 29.2334 531.59 29.2534C533.22 29.2734 533.2 26.7734 531.59 26.7534C529.98 26.7334 528.34 26.7135 526.71 26.6935C525.08 26.6735 525.1 29.1735 526.71 29.1935Z" fill="#FF46A0"/>
<path d="M450.03 28.5117C461.88 28.5917 473.73 28.6718 485.58 28.7718C487.19 28.7818 487.19 26.2818 485.58 26.2718C473.73 26.1718 461.88 26.0817 450.03 26.0117C448.42 26.0017 448.42 28.5017 450.03 28.5117Z" fill="#FF46A0"/>
<path d="M271.86 27.5828C318.72 29.1528 365.6 28.2027 412.48 28.2927C414.09 28.2927 414.09 25.7927 412.48 25.7927C365.61 25.7027 318.72 26.6428 271.86 25.0828C270.25 25.0328 270.25 27.5328 271.86 27.5828Z" fill="#FF46A0"/>
<path d="M59.0301 28.442C120.21 28.192 181.39 28.1819 242.57 27.5919C244.18 27.5719 244.18 25.0719 242.57 25.0919C181.39 25.6819 120.21 25.682 59.0301 25.942C57.4201 25.942 57.4201 28.452 59.0301 28.442Z" fill="#FF46A0"/>
<path d="M-5.26992 29.3118C5.45008 29.1518 16.1701 28.9917 26.8801 28.8517C28.4901 28.8317 28.4901 26.3317 26.8801 26.3517C16.1601 26.5017 5.44008 26.6518 -5.26992 26.8118C-6.87992 26.8318 -6.87992 29.3318 -5.26992 29.3118Z" fill="#FF46A0"/>
<path d="M525.54 61.0932C528.33 61.0332 531.12 60.9633 533.91 60.8833C535.52 60.8433 535.52 58.3433 533.91 58.3833C531.12 58.4533 528.33 58.5232 525.54 58.5932C523.93 58.6332 523.93 61.1332 525.54 61.0932Z" fill="#FF46A0"/>
<path d="M451.56 61.9126C463.43 61.9126 475.29 61.8425 487.15 61.7325C488.76 61.7125 488.76 59.2125 487.15 59.2325C475.29 59.3525 463.42 59.4126 451.56 59.4126C449.95 59.4126 449.95 61.9126 451.56 61.9126Z" fill="#FF46A0"/>
<path d="M269.47 59.0024C316.45 60.1724 363.44 60.2024 410.41 61.7224C412.02 61.7724 412.02 59.2724 410.41 59.2224C363.44 57.7124 316.44 57.6724 269.47 56.5024C267.86 56.4624 267.86 58.9624 269.47 59.0024Z" fill="#FF46A0"/>
<path d="M59.3701 55.4229C121.05 55.2229 182.68 58.1629 244.36 58.3629C245.97 58.3629 245.97 55.8729 244.36 55.8629C182.69 55.6629 121.05 52.7329 59.3701 52.9229C57.7601 52.9229 57.7601 55.4329 59.3701 55.4229Z" fill="#FF46A0"/>
<path d="M-3.33986 56.4025C7.11014 56.1225 17.5601 55.9025 28.0101 55.7425C29.6201 55.7125 29.6201 53.2125 28.0101 53.2425C17.5601 53.4125 7.11014 53.6225 -3.33986 53.9025C-4.94986 53.9425 -4.94986 56.4425 -3.33986 56.4025Z" fill="#FF46A0"/>
<path d="M526.78 89.3829C527.94 89.4029 529.11 89.413 530.27 89.433C531.88 89.453 531.88 86.953 530.27 86.933C529.11 86.913 527.94 86.8929 526.78 86.8829C525.17 86.8629 525.17 89.3629 526.78 89.3829Z" fill="#FF46A0"/>
<path d="M450.58 88.4122C462 88.5322 473.41 88.6623 484.83 88.8123C486.44 88.8323 486.44 86.3323 484.83 86.3123C473.41 86.1723 462 86.0422 450.58 85.9122C448.97 85.8922 448.97 88.3922 450.58 88.4122Z" fill="#FF46A0"/>
<path d="M165.39 87.5823C247.41 87.1923 329.44 86.2123 411.44 88.0523C413.05 88.0923 413.05 85.5923 411.44 85.5523C329.43 83.7123 247.4 84.6923 165.39 85.0823C163.78 85.0823 163.78 87.5923 165.39 87.5823Z" fill="#FF46A0"/>
<path d="M-6.59987 89.5028C40.7501 90.1528 88.0701 88.2228 135.41 87.8828C137.02 87.8728 137.02 85.3728 135.41 85.3828C88.0701 85.7228 40.7501 87.6628 -6.59987 87.0028C-8.20987 86.9828 -8.20987 89.4828 -6.59987 89.5028Z" fill="#FF46A0"/>
<path d="M511.72 121.433C518.68 121.313 525.63 121.193 532.59 121.073C534.2 121.043 534.2 118.543 532.59 118.573C525.63 118.693 518.68 118.813 511.72 118.933C510.11 118.963 510.11 121.463 511.72 121.433Z" fill="#FF46A0"/>
<path d="M454.69 122.192C457.7 122.162 460.72 122.141 463.73 122.111C465.34 122.091 465.34 119.591 463.73 119.611C460.72 119.641 457.7 119.672 454.69 119.692C453.08 119.702 453.08 122.202 454.69 122.192Z" fill="#FF46A0"/>
<path d="M165.78 116.273C246.12 119.203 326.49 121.183 406.87 122.303C408.48 122.323 408.48 119.823 406.87 119.803C326.49 118.683 246.11 116.703 165.78 113.773C164.17 113.713 164.17 116.213 165.78 116.273Z" fill="#FF46A0"/>
<path d="M129.53 115.922C131.39 115.922 133.25 115.932 135.11 115.942C136.72 115.942 136.72 113.452 135.11 113.442C133.25 113.442 131.39 113.422 129.53 113.422C127.92 113.422 127.92 115.912 129.53 115.922Z" fill="#FF46A0"/>
<path d="M-4.65993 116.592C-0.249932 116.472 4.16006 116.362 8.58006 116.272C10.1901 116.232 10.1901 113.732 8.58006 113.772C4.17006 113.872 -0.239932 113.982 -4.65993 114.092C-6.26993 114.132 -6.26993 116.632 -4.65993 116.592Z" fill="#FF46A0"/>
<path d="M494.79 149.633C506.18 149.683 517.56 149.683 528.95 149.633C530.56 149.633 530.56 147.123 528.95 147.133C517.56 147.183 506.18 147.173 494.79 147.133C493.18 147.133 493.18 149.623 494.79 149.633Z" fill="#FF46A0"/>
<path d="M164.11 148.013C246.24 147.183 328.39 147.193 410.51 148.583C412.12 148.613 412.12 146.113 410.51 146.083C328.38 144.693 246.24 144.683 164.11 145.513C162.5 145.533 162.5 148.033 164.11 148.013Z" fill="#FF46A0"/>
<path d="M126.03 147.953C129.03 147.813 132.03 147.733 135.03 147.693C136.64 147.673 136.64 145.173 135.03 145.193C132.03 145.233 129.03 145.313 126.03 145.453C124.43 145.523 124.42 148.023 126.03 147.953Z" fill="#FF46A0"/>
<path d="M-7.91994 149.693C-3.25994 149.623 1.40007 149.553 6.06007 149.483C7.67007 149.463 7.67007 146.963 6.06007 146.983C1.40007 147.053 -3.25994 147.123 -7.91994 147.193C-9.52994 147.213 -9.52994 149.713 -7.91994 149.693Z" fill="#FF46A0"/>
<path d="M455.31 182.402C480.63 182.172 505.96 182.012 531.27 181.262C532.88 181.212 532.88 178.712 531.27 178.762C505.96 179.512 480.63 179.662 455.31 179.902C453.7 179.912 453.7 182.412 455.31 182.402Z" fill="#FF46A0"/>
<path d="M163.12 176.934C204.23 177.944 245.32 179.374 286.43 180.434C306.64 180.954 326.86 181.094 347.07 181.614C367.8 182.144 388.54 182.914 409.28 182.394C410.89 182.354 410.89 179.854 409.28 179.894C388.54 180.414 367.81 179.644 347.07 179.114C326.86 178.594 306.64 178.454 286.43 177.934C245.32 176.874 204.23 175.444 163.12 174.434C161.51 174.394 161.51 176.894 163.12 176.934Z" fill="#FF46A0"/>
<path d="M124.73 176.264C128.69 176.324 132.64 176.384 136.6 176.444C138.21 176.474 138.21 173.974 136.6 173.944C132.64 173.884 128.69 173.824 124.73 173.764C123.12 173.744 123.12 176.244 124.73 176.264Z" fill="#FF46A0"/>
<path d="M-5.98 176.783C-2.03 176.673 1.92 176.583 5.86 176.493C7.47 176.453 7.47 173.953 5.86 173.993C1.91 174.083 -2.04 174.183 -5.98 174.283C-7.59 174.323 -7.59 176.823 -5.98 176.783Z" fill="#FF46A0"/>
<path d="M453.48 208.631C479.76 208.911 506.03 209.291 532.31 209.821C533.92 209.851 533.92 207.351 532.31 207.321C506.04 206.791 479.76 206.411 453.48 206.131C451.87 206.111 451.87 208.611 453.48 208.631Z" fill="#FF46A0"/>
<path d="M162.02 208.092C244.25 208.192 326.49 208.192 408.72 208.262C410.33 208.262 410.33 205.762 408.72 205.762C326.49 205.692 244.25 205.692 162.02 205.592C160.41 205.592 160.41 208.092 162.02 208.092Z" fill="#FF46A0"/>
<path d="M125.72 208.422C128.5 208.372 131.28 208.322 134.06 208.272C135.67 208.242 135.67 205.742 134.06 205.772C131.28 205.822 128.5 205.872 125.72 205.922C124.11 205.952 124.11 208.452 125.72 208.422Z" fill="#FF46A0"/>
<path d="M-9.23989 209.882C-3.94989 209.802 1.34011 209.742 6.63011 209.672C8.24011 209.652 8.24011 207.152 6.63011 207.172C1.34011 207.232 -3.94989 207.302 -9.23989 207.382C-10.8499 207.402 -10.8499 209.902 -9.23989 209.882Z" fill="#FF46A0"/>
<path d="M453.71 242.522C479.13 242.442 504.56 242.862 529.95 241.452C531.55 241.362 531.56 238.862 529.95 238.952C504.56 240.362 479.13 239.942 453.71 240.022C452.1 240.022 452.1 242.522 453.71 242.522Z" fill="#FF46A0"/>
<path d="M386.39 242.501C394.05 242.531 401.7 242.521 409.36 242.461C410.97 242.451 410.97 239.951 409.36 239.961C401.7 240.021 394.05 240.031 386.39 240.001C384.78 240.001 384.78 242.491 386.39 242.501Z" fill="#FF46A0"/>
<path d="M162.02 236.852C182.66 236.952 203.29 237.382 223.92 237.972C225.53 238.022 225.53 235.522 223.92 235.472C203.29 234.882 182.66 234.442 162.02 234.352C160.41 234.352 160.41 236.842 162.02 236.852Z" fill="#FF46A0"/>
<path d="M114.64 236.272C121.14 236.322 127.64 236.362 134.14 236.392C135.75 236.392 135.75 233.902 134.14 233.892C127.64 233.862 121.14 233.822 114.64 233.772C113.03 233.762 113.03 236.262 114.64 236.272Z" fill="#FF46A0"/>
<path d="M-7.29991 236.972C-2.68991 236.802 1.91008 236.652 6.52008 236.522C8.13008 236.482 8.13008 233.982 6.52008 234.022C1.91008 234.152 -2.69991 234.302 -7.29991 234.472C-8.89991 234.532 -8.90991 237.032 -7.29991 236.972Z" fill="#FF46A0"/>
<path d="M458.58 329.322C480.72 329.572 502.85 329.862 524.99 330.202C526.6 330.222 526.6 327.722 524.99 327.702C502.86 327.372 480.72 327.082 458.58 326.822C456.97 326.802 456.97 329.302 458.58 329.322Z" fill="#FF46A0"/>
<path d="M389.56 328.502C395.79 328.602 402.02 328.712 408.25 328.832C409.86 328.862 409.86 326.362 408.25 326.332C402.02 326.212 395.79 326.102 389.56 326.002C387.95 325.972 387.95 328.472 389.56 328.502Z" fill="#FF46A0"/>
<path d="M160.86 328.062C174.81 327.942 188.76 327.832 202.71 327.742C204.32 327.742 204.32 325.232 202.71 325.242C188.76 325.332 174.81 325.432 160.86 325.562C159.25 325.572 159.25 328.072 160.86 328.062Z" fill="#FF46A0"/>
<path d="M-11.8799 330.261C35.2801 330.181 82.4401 329.201 129.59 328.371C131.2 328.341 131.2 325.841 129.59 325.871C82.4401 326.691 35.2801 327.671 -11.8799 327.761C-13.4899 327.761 -13.4899 330.261 -11.8799 330.261Z" fill="#FF46A0"/>
<path d="M458.33 362.812C481.33 362.732 504.32 362.433 527.31 361.833C528.92 361.793 528.92 359.293 527.31 359.333C504.32 359.933 481.33 360.232 458.33 360.312C456.72 360.312 456.72 362.822 458.33 362.812Z" fill="#FF46A0"/>
<path d="M371.189 361.864C383.68 361.892 396.181 361.967 408.671 362.152C410.35 362.179 410.35 360.467 408.671 360.44C396.181 360.255 383.69 360.187 371.189 360.152C369.511 360.152 369.511 361.858 371.189 361.864Z" fill="#FF46A0"/>
<path d="M-9.94997 357.353C36.43 357.163 82.82 355.243 129.2 356.653C130.81 356.703 130.81 354.203 129.2 354.153C82.82 352.733 36.44 354.663 -9.94997 354.853C-11.56 354.853 -11.56 357.363 -9.94997 357.353Z" fill="#FF46A0"/>
<path d="M472.07 164.012C473.26 198.832 474.85 233.642 476.4 268.452C477.16 285.502 477.91 302.562 478.59 319.612C478.93 328.162 479.26 336.702 479.56 345.252C479.67 348.322 482.05 372.012 479.37 372.732L480.33 375.012L480.56 375.142L480.26 372.862L479.7 372.692L480.95 373.942L480.84 372.642C480.7 371.052 478.2 371.032 478.34 372.642L478.45 373.942C478.51 374.652 478.98 375.152 479.7 375.192C480.49 375.242 480.86 375.332 481.52 375.022C482.5 374.562 482.22 372.982 481.22 372.742C480.43 372.552 479.81 372.512 479.07 372.872C477.77 373.492 478.7 375.512 480.03 375.152C481.25 374.822 482.47 374.362 482.93 373.112C483.46 371.652 482.83 368.582 482.78 367.002C482.71 364.692 482.64 362.382 482.56 360.072C482.26 350.522 481.92 340.982 481.55 331.442C480.85 313.062 480.06 294.692 479.25 276.322C477.59 238.892 475.85 201.462 474.57 164.012C474.52 162.412 472.01 162.402 472.07 164.012Z" fill="#FF46A0"/>
<path d="M471.21 -6.48749C474.34 35.0525 470.51 76.6426 470.71 118.213C470.71 119.823 473.22 119.823 473.21 118.213C473.01 76.6326 476.84 35.0525 473.71 -6.48749C473.59 -8.07749 471.09 -8.09749 471.21 -6.48749Z" fill="#FF46A0"/>
<path d="M505.61 129.612C503.86 162.532 505.65 195.462 506.68 228.372C507.2 245.182 507.62 262.002 507.53 278.822C507.43 295.232 505.97 311.632 506.32 328.052C506.71 345.972 511.91 363.522 509.9 381.512C509.72 383.112 512.22 383.092 512.4 381.512C514.17 365.712 510.39 350.282 509.16 334.612C507.93 318.942 509.56 301.962 509.93 285.722C510.7 252.452 508.68 219.152 507.75 185.912C507.23 167.142 507.11 148.372 508.11 129.612C508.2 128.002 505.7 128.012 505.61 129.612Z" fill="#FF46A0"/>
<path d="M394.66 -6.48749C396.7 17.6025 396.13 41.6425 395.2 65.7625C394.27 89.8225 393.87 113.792 394.59 137.862C396.1 187.732 398.29 237.583 400.17 287.443C400.69 301.353 401.22 315.273 401.74 329.183C402 336.143 402.26 343.093 402.53 350.053C402.65 353.363 402.78 356.682 402.9 359.992L403.09 364.963C403.13 366.013 404.19 373.153 404.1 373.273C405.03 371.953 402.86 370.703 401.94 372.013L401.61 372.482C401.35 372.852 401.41 373.372 401.61 373.742C402.1 374.672 402.36 374.862 403.36 375.122C403.78 375.232 404.27 375.123 404.58 374.803C407.14 372.013 405.64 366.422 405.51 362.982C405.26 356.352 405.01 349.732 404.76 343.102C404.27 330.182 403.79 317.262 403.3 304.342C402.35 279.162 401.4 253.993 400.45 228.813C398.55 178.413 395.4 127.912 397.24 77.4725C398.26 49.4425 399.52 21.5125 397.15 -6.48749C397.02 -8.07749 394.51 -8.09749 394.65 -6.48749H394.66Z" fill="#FF46A0"/>
<path d="M325.83 342.723C325.9 345.253 325.97 347.783 326.04 350.313C326.08 351.923 328.58 351.923 328.54 350.313C328.47 347.783 328.4 345.253 328.33 342.723C328.28 341.113 325.78 341.113 325.83 342.723Z" fill="#FF46A0"/>
<path d="M318.12 -6.48765C321.37 65.7023 317.51 137.992 320.61 210.192C320.68 211.792 323.18 211.802 323.11 210.192C320.02 137.992 323.87 65.7023 320.62 -6.48765C320.55 -8.08765 318.05 -8.09765 318.12 -6.48765Z" fill="#FF46A0"/>
<path d="M354.14 343.342C354.35 345.042 354.58 346.732 354.82 348.432C354.91 349.102 355.77 349.462 356.36 349.302C357.08 349.112 357.33 348.432 357.23 347.762C357.02 346.292 356.82 344.812 356.64 343.342C356.55 342.662 356.13 342.102 355.39 342.092C354.78 342.092 354.06 342.672 354.14 343.342Z" fill="#FF46A0"/>
<path d="M352.99 -6.49742C353.78 11.9326 356.23 30.2426 357.02 48.6626C357.81 67.0826 355.21 85.0626 353.93 103.393C351.32 140.973 352.51 178.653 353.51 216.263C353.55 217.873 356.05 217.873 356.01 216.263C355.01 178.653 353.82 140.973 356.43 103.393C357.7 85.0626 360.31 67.0926 359.52 48.6626C358.73 30.2326 356.29 11.9326 355.49 -6.49742C355.42 -8.09742 352.92 -8.10742 352.99 -6.49742Z" fill="#FF46A0"/>
<path d="M248.93 339.275C249.016 343.867 249.442 348.45 249.88 353.033C250.014 354.521 253.071 354.53 252.925 353.033C252.499 348.45 252.06 343.867 251.975 339.275C251.951 337.778 248.906 337.778 248.93 339.275Z" fill="#FF46A0"/>
<path d="M241.83 81.7231C241.46 124.523 241.51 167.333 244.17 210.063C244.27 211.663 246.77 211.673 246.67 210.063C244.01 167.333 243.95 124.513 244.33 81.7231C244.34 80.1131 241.84 80.1131 241.83 81.7231Z" fill="#FF46A0"/>
<path d="M277.68 340.442C277.84 343.602 278.06 346.762 278.39 349.912C278.55 351.492 281.06 351.512 280.89 349.912C280.56 346.762 280.34 343.602 280.18 340.442C280.1 338.842 277.6 338.832 277.68 340.442Z" fill="#FF46A0"/>
<path d="M276.44 -6.49742C277.59 11.8226 279.14 30.1226 279.72 48.4826C280.3 66.8426 279.37 83.7826 278.15 101.433C276.93 119.083 275.56 136.593 275.28 154.223C274.98 172.743 275.73 191.293 276.43 209.793C276.49 211.393 278.99 211.403 278.93 209.793C278.23 191.283 277.49 172.743 277.78 154.223C278.06 136.593 279.43 119.013 280.65 101.433C281.87 83.8526 282.78 66.1826 282.22 48.4826C281.66 30.7826 280.09 11.8226 278.94 -6.49742C278.84 -8.09742 276.34 -8.10742 276.44 -6.49742Z" fill="#FF46A0"/>
<path d="M169.29 235.803C168.53 275.373 173.36 314.763 173.73 354.303C173.74 355.913 176.24 355.913 176.23 354.303C175.87 314.763 171.03 275.373 171.79 235.803C171.82 234.193 169.32 234.193 169.29 235.803Z" fill="#FF46A0"/>
<path d="M164.84 80.442C166.32 102.392 164.06 124.402 165.44 146.332C166.82 168.262 167.48 190.332 168.48 212.352C168.55 213.952 171.05 213.962 170.98 212.352C169.98 190.322 169.33 168.332 167.94 146.332C166.55 124.332 168.82 102.392 167.34 80.442C167.23 78.842 164.73 78.832 164.84 80.442Z" fill="#FF46A0"/>
<path d="M165.03 -6.48734C167.1 16.5727 166.56 39.7027 165.69 62.8127C165.63 64.4227 168.13 64.4227 168.19 62.8127C169.07 39.7127 169.6 16.5727 167.53 -6.48734C167.39 -8.07734 164.89 -8.08734 165.03 -6.48734Z" fill="#FF46A0"/>
<path d="M200.67 234.133C202.55 273.583 196.72 313.453 201.61 352.753C201.81 354.333 204.31 354.353 204.11 352.753C199.22 313.453 205.05 273.583 203.17 234.133C203.09 232.533 200.59 232.523 200.67 234.133Z" fill="#FF46A0"/>
<path d="M202.61 79.9423C197.97 123.152 198.92 166.622 200.05 209.982C200.09 211.592 202.59 211.592 202.55 209.982C201.42 166.622 200.47 123.142 205.11 79.9423C205.28 78.3423 202.78 78.3523 202.61 79.9423Z" fill="#FF46A0"/>
<path d="M199.9 -6.49742C201.33 16.3526 203.29 39.1727 203.42 62.0827C203.42 63.6927 205.93 63.6927 205.92 62.0827C205.79 39.1727 203.83 16.3526 202.4 -6.49742C202.3 -8.09742 199.8 -8.10742 199.9 -6.49742Z" fill="#FF46A0"/>
<path d="M92.8701 243.553C93.4301 265.173 94.4401 286.783 95.4601 308.393C95.9501 318.833 96.4401 329.263 96.8701 339.703C97.1001 345.243 97.3101 350.783 97.5001 356.323C97.5701 358.473 99.2401 372.103 96.9001 372.733L98.4801 373.943L98.5901 372.983C98.8801 371.413 96.4701 370.733 96.1801 372.323C96.0701 372.913 96.0001 373.363 95.9801 373.953C95.9501 374.773 96.8001 375.363 97.5601 375.163C100.18 374.453 100.47 373.573 100.43 371.003C100.32 364.813 100.08 358.623 99.8601 352.433C99.4301 340.363 98.8901 328.303 98.3301 316.243C97.2001 292.023 96.0101 267.803 95.3701 243.573C95.3301 241.963 92.8301 241.963 92.8701 243.573V243.553Z" fill="#FF46A0"/>
<path d="M88.7801 82.643C88.6401 89.183 88.5301 95.723 88.4701 102.253C88.4601 103.863 90.9601 103.863 90.9701 102.253C91.0201 95.713 91.1301 89.173 91.2801 82.643C91.3201 81.033 88.8201 81.033 88.7801 82.643Z" fill="#FF46A0"/>
<path d="M89.0101 -6.48734C91.0501 16.3327 90.4901 39.2227 89.6601 62.0827C89.6001 63.6927 92.1001 63.6927 92.1601 62.0827C92.9901 39.2227 93.5501 16.3327 91.5101 -6.48734C91.3701 -8.07734 88.8701 -8.08734 89.0101 -6.48734Z" fill="#FF46A0"/>
<path d="M126.45 87.5927C124.55 106.273 122.96 125.073 122.67 143.853C122.38 162.633 122.72 182.783 123.22 202.233C124.22 240.783 125.88 279.393 124.02 317.943C123.52 328.273 124.36 338.393 125.78 348.613C126.51 353.833 127.39 359.033 128.02 364.263C128.72 370.053 128.05 375.713 127.7 381.503C127.6 383.113 130.1 383.103 130.2 381.503C130.75 372.573 130.62 364.633 129.33 355.773C127.88 345.833 126.35 335.853 126.29 325.783C126.17 306.333 127.47 286.873 127.27 267.393C126.87 228.853 124.82 190.343 125.09 151.793C125.24 130.333 126.8 108.943 128.96 87.5927C129.12 85.9927 126.62 86.0027 126.46 87.5927H126.45Z" fill="#FF46A0"/>
<path d="M123.88 -6.49742C125.33 16.5826 127.32 39.6326 127.4 62.7726C127.4 64.3826 129.91 64.3826 129.9 62.7726C129.82 39.6326 127.83 16.5826 126.38 -6.49742C126.28 -8.09742 123.78 -8.10742 123.88 -6.49742Z" fill="#FF46A0"/>
<path d="M15.8502 244.942C16.6902 267.582 17.6502 290.222 18.5202 312.862C18.9502 323.992 19.3502 335.122 19.7002 346.262C19.8802 351.852 20.0402 357.442 20.1902 363.032C20.2602 365.672 20.3502 368.312 20.3902 370.952C20.3602 369.202 20.3202 373.482 20.3102 373.452C20.2702 373.642 20.2302 373.832 20.1802 374.022C19.8802 375.002 20.3402 374.542 21.5502 372.642C21.4102 371.052 18.9102 371.032 19.0502 372.642C19.1502 373.842 19.1902 375.012 19.6902 376.112C19.8502 376.472 20.3802 376.762 20.7702 376.732C22.2502 376.602 22.5502 375.112 22.7902 373.842C23.5902 369.522 22.7302 364.452 22.6102 360.062C22.2602 347.272 21.8202 334.472 21.3502 321.682C20.4002 296.102 19.3002 270.522 18.3402 244.932C18.2802 243.332 15.7802 243.322 15.8402 244.932L15.8502 244.942Z" fill="#FF46A0"/>
<path d="M11.9301 -6.48718C16.2101 32.2628 11.5201 71.0728 11.3601 109.893C11.3601 111.503 13.8501 111.503 13.8601 109.893C14.0201 71.0728 18.7101 32.2628 14.4301 -6.48718C14.2601 -8.06718 11.7501 -8.08718 11.9301 -6.48718Z" fill="#FF46A0"/>
<path d="M48.0701 244.643C48.7701 267.703 47.6701 290.743 47.6201 313.803C47.5901 325.083 47.8201 336.363 48.6401 347.613C49.0501 353.193 49.6001 358.763 50.3301 364.303C51.0601 369.843 52.1301 375.543 50.6701 381.183C50.2701 382.743 52.6801 383.403 53.0801 381.843C55.6101 372.053 52.2901 361.323 51.4501 351.493C50.4301 339.603 50.1201 327.663 50.1201 315.733C50.1201 292.033 51.3001 268.343 50.5801 244.643C50.5301 243.033 48.0301 243.033 48.0801 244.643H48.0701Z" fill="#FF46A0"/>
<path d="M49.5302 85.7428C49.1602 91.2728 48.6502 96.7829 47.9902 102.283C47.8002 103.873 50.3002 103.863 50.4902 102.283C51.1502 96.7829 51.6602 91.2728 52.0302 85.7428C52.1402 84.1328 49.6402 84.1428 49.5302 85.7428Z" fill="#FF46A0"/>
</g>
</svg>
