<svg width="730" height="357" viewBox="0 0 730 357" fill="none" xmlns="http://www.w3.org/2000/svg">
<mask id="mask0_574_40" style="mask-type:alpha" maskUnits="userSpaceOnUse" x="0" y="0" width="730" height="357">
<path fill-rule="evenodd" clip-rule="evenodd" d="M382.157 1.43945C384.941 19.7637 383.974 38.3457 382.691 56.7754C381.341 76.166 380.291 95.6953 381.031 115.326C382.032 141.781 383.194 168.236 384.355 194.688C384.934 207.861 385.512 221.033 386.071 234.205C386.271 239.016 393.781 239.035 393.571 234.205C393.015 221.127 392.432 208.049 391.849 194.971C390.638 167.789 389.426 140.605 388.461 113.416C387.761 93.7949 388.981 74.416 390.321 54.8652C391.539 37.0293 392.169 19.2031 389.688 1.49219L415.39 1.66992L622.83 3.11133L678.222 3.49219C695.421 3.61133 712.619 3.73242 729.815 3.85547L729.571 141.992L729.32 283.756L729.25 323.602L729.192 356.898L674.97 356.434C599.92 355.789 524.873 355.146 449.82 354.586C352.72 353.865 255.62 353.316 158.52 353.246C105.683 353.207 52.8545 353.309 0.0175781 353.598L0.25 222.053L0.5 80.7148L0.569824 40.8711L0.636719 3.01172C21.8008 3.10547 42.9653 3.14648 64.1299 3.14062C110.72 3.12109 157.3 2.84961 203.89 2.34961C206.435 2.32227 208.477 1.51758 210.016 0.244141L382.157 1.43945Z" fill="#D9D9D9"/>
</mask>
<g mask="url(#mask0_574_40)">
<path d="M26.2804 -0.333312C11.8104 15.4567 4.88038 37.3367 7.92038 58.5767C9.75038 71.3567 15.6604 82.8767 21.2204 94.3667C27.4204 107.177 33.3704 120.347 36.3504 134.337C39.3304 148.327 38.2704 162.897 32.2204 176.407C27.1104 187.817 20.3504 198.367 17.0904 210.547C11.4304 231.707 14.2904 255.037 24.8704 274.217C31.2504 285.777 43.3904 295.287 46.0304 308.617C47.7204 317.157 45.2204 326.347 43.1004 334.607C40.9804 342.867 38.4804 350.137 35.4204 357.647C34.8104 359.137 37.2303 359.787 37.8303 358.307C42.7304 346.267 46.8104 333.507 48.5504 320.577C50.1904 308.437 46.1503 299.297 38.8903 289.797C31.4203 280.017 24.7504 270.657 20.9004 258.797C17.0504 246.937 15.9404 235.207 17.2304 223.277C18.6604 210.117 23.8503 198.607 29.8203 186.967C35.2903 176.297 39.9504 165.597 40.5504 153.447C41.8604 127.147 27.8104 103.757 17.4204 80.6467C11.2204 66.8567 8.13039 52.4267 10.6204 37.3467C12.8304 23.9367 18.8604 11.4567 28.0504 1.43671C29.1404 0.256708 27.3704 -1.52331 26.2804 -0.333312Z" fill="#FF46A0"/>
<path d="M13.6402 -0.333312C-0.829776 15.4567 -7.75976 37.3367 -4.71976 58.5767C-2.88976 71.3567 3.02023 82.8767 8.58023 94.3667C14.7802 107.177 20.7302 120.347 23.7102 134.337C26.6902 148.327 25.6302 162.897 19.5802 176.407C14.4702 187.817 7.71022 198.367 4.45022 210.547C-1.20978 231.707 1.65025 255.037 12.2303 274.217C18.6103 285.777 30.7502 295.287 33.3902 308.617C35.0802 317.157 32.5802 326.347 30.4602 334.607C28.3402 342.867 25.8402 350.137 22.7802 357.647C22.1702 359.137 24.5903 359.787 25.1903 358.307C30.0903 346.267 34.1702 333.507 35.9102 320.577C37.5502 308.437 33.5103 299.297 26.2503 289.797C18.7803 280.017 12.1102 270.657 8.26022 258.797C4.41022 246.937 3.30024 235.207 4.59024 223.277C6.02024 210.117 11.2103 198.607 17.1803 186.967C22.6503 176.297 27.3102 165.597 27.9102 153.447C29.2202 127.147 15.1702 103.757 4.78024 80.6467C-1.41976 66.8567 -4.50975 52.4267 -2.01975 37.3467C0.190251 23.9367 6.22024 11.4567 15.4102 1.43671C16.5002 0.256708 14.7302 -1.52331 13.6402 -0.333312Z" fill="#FF46A0"/>
<path d="M-10.86 79.9757C-3.49998 97.5057 6.40001 114.166 11.01 132.736C13.52 142.836 13.86 153.086 11.04 163.166C8.22005 173.246 3.35003 183.156 -0.84997 192.946C-8.17997 210.056 -13.65 227.096 -9.65997 245.766C-7.89997 253.996 -6.81996 262.616 -2.96996 270.206C1.29004 278.596 8.30001 285.366 13.32 293.286C26.42 313.936 18.51 336.876 10.13 357.636C9.53001 359.126 11.95 359.776 12.54 358.296C19.16 341.896 26.15 323.746 21.6 305.866C19.25 296.606 13.64 289.026 7.91004 281.576C1.80004 273.636 -2.78994 266.226 -4.93994 256.316C-7.08994 246.406 -9.58995 236.186 -8.44995 225.826C-7.23995 214.816 -3.02995 204.286 1.30005 194.186C8.65005 177.006 17.63 159.956 15.07 140.686C12.16 118.736 -0.0499649 99.3657 -8.46997 79.2857C-9.07997 77.8257 -11.4999 78.4657 -10.8799 79.9457L-10.86 79.9757Z" fill="#FF46A0"/>
<path d="M1.0102 -0.333822C-8.6698 10.2562 -14.7998 23.2362 -17.1698 37.3662C-17.4298 38.9362 -15.0298 39.6162 -14.7598 38.0262C-12.4598 24.3162 -6.62978 11.7162 2.78022 1.42619C3.86022 0.236188 2.1002 -1.53377 1.0102 -0.34377V-0.333822Z" fill="#FF46A0"/>
<path d="M-10.0597 277.966C-1.63966 288.926 7.82031 299.036 8.85031 313.506C9.96031 329.036 2.47029 343.376 -2.48971 357.646C-3.01971 359.166 -0.609679 359.826 -0.0796795 358.306C5.19032 343.156 12.8503 328.216 11.1703 311.726C9.73032 297.566 0.400313 287.506 -7.89969 276.696C-8.86969 275.436 -11.0397 276.686 -10.0597 277.956V277.966Z" fill="#FF46A0"/>
<path d="M-11.7301 104.576C1.50995 129.166 6.38995 160.066 -9.73005 184.556C-10.6201 185.906 -8.45002 187.156 -7.57002 185.816C9.02998 160.586 4.07998 128.666 -9.57002 103.316C-10.33 101.896 -12.4901 103.156 -11.7301 104.576Z" fill="#FF46A0"/>
<path d="M97.6503 303.746C104.23 322.596 96.2003 341.276 89.9203 359.016C89.3803 360.536 91.8003 361.186 92.3303 359.676C98.7703 341.496 106.79 322.376 100.06 303.086C99.5304 301.576 97.1203 302.226 97.6503 303.746Z" fill="#FF46A0"/>
<path d="M91.6703 162.978C79.3203 194.168 61.1603 226.848 72.7803 261.108C73.2903 262.628 75.7103 261.968 75.1903 260.448C63.7303 226.688 81.9103 194.358 94.0803 163.648C94.6703 162.148 92.2603 161.498 91.6703 162.988V162.978Z" fill="#FF46A0"/>
<path d="M80.77 1.03779C63.92 19.4178 57.6801 45.9278 64.6101 69.8878C65.0601 71.4278 67.47 70.7778 67.02 69.2278C60.34 46.1378 66.2801 20.5377 82.5401 2.80775C83.6301 1.62775 81.86 -0.15221 80.77 1.03779Z" fill="#FF46A0"/>
<path d="M85.1702 303.157C91.9102 322.187 83.2601 341.037 77.2701 359.017C76.7601 360.547 79.1702 361.207 79.6802 359.677C85.8102 341.247 94.4801 321.967 87.5801 302.487C87.0501 300.977 84.6302 301.627 85.1702 303.147V303.157Z" fill="#FF46A0"/>
<path d="M77.5604 167.137C72.9204 183.497 62.2803 197.427 58.6003 214.107C55.0103 230.377 56.5203 247.287 61.1503 263.177C61.6003 264.717 64.0104 264.067 63.5604 262.517C58.7204 245.927 57.3203 228.167 61.8503 211.327C65.9603 196.067 75.6503 183.037 79.9703 167.807C80.4103 166.257 78.0004 165.597 77.5604 167.147V167.137Z" fill="#FF46A0"/>
<path d="M68.1301 1.03779C56.7201 13.4878 50.1001 29.4678 49.3201 46.3478C48.4101 66.0078 56.7101 82.4077 64.9601 99.6677C65.6501 101.118 67.8101 99.8478 67.1201 98.4078C59.2801 82.0078 51.2901 66.5178 51.7701 47.8478C52.2001 31.1178 58.6001 15.1377 69.9101 2.80775C71.0001 1.62775 69.2301 -0.15221 68.1401 1.03779H68.1301Z" fill="#FF46A0"/>
<path d="M70.9603 299.556C81.4003 318.666 70.8303 340.316 64.6503 359.016C64.1403 360.546 66.5603 361.206 67.0603 359.676C73.5103 340.206 83.9703 318.146 73.1203 298.296C72.3503 296.886 70.1903 298.146 70.9603 299.556Z" fill="#FF46A0"/>
<path d="M66.3701 163.088C63.0001 173.158 58.5 182.748 54.08 192.388C50.11 201.048 45.8101 209.878 44.0501 219.298C40.6001 237.688 44.94 256.278 52.88 272.928C53.57 274.378 55.7301 273.108 55.0401 271.668C46.6901 254.178 42.27 233.858 47.64 214.788C52.62 197.108 62.9501 181.198 68.7801 163.758C69.2901 162.228 66.8801 161.568 66.3701 163.098V163.088Z" fill="#FF46A0"/>
<path d="M55.5002 1.03709C40.5902 17.4571 33.6802 40.277 37.8802 62.167C42.7102 87.357 59.0902 108.587 65.3102 133.427C65.7002 134.987 68.1102 134.327 67.7202 132.767C62.0302 110.037 48.2402 90.6171 41.8902 68.187C35.3902 45.1971 41.2002 20.497 57.2602 2.80705C58.3402 1.61705 56.5802 -0.152911 55.4902 1.03709H55.5002Z" fill="#FF46A0"/>
<path d="M42.8703 1.03779C28.4003 16.8278 21.4702 38.7078 24.5102 59.9478C26.3402 72.7278 32.2503 84.2477 37.8103 95.7377C44.0103 108.548 49.9603 121.718 52.9403 135.708C55.9203 149.698 54.8603 164.268 48.8103 177.778C43.7003 189.188 36.9403 199.738 33.6803 211.918C28.0203 233.078 30.8802 256.408 41.4602 275.588C47.8402 287.148 59.9803 296.658 62.6203 309.988C64.3103 318.528 61.8103 327.718 59.6903 335.978C57.5703 344.238 55.0702 351.508 52.0102 359.018C51.4002 360.508 53.8202 361.158 54.4202 359.678C59.3203 347.638 63.4002 334.878 65.1402 321.948C66.7802 309.808 62.7402 300.668 55.4802 291.168C48.0102 281.388 41.3403 272.028 37.4903 260.168C33.6403 248.308 32.5302 236.578 33.8202 224.648C35.2502 211.488 40.4402 199.978 46.4102 188.338C51.8802 177.668 56.5402 166.968 57.1402 154.818C58.4502 128.518 44.4002 105.128 34.0102 82.0178C27.8102 68.2278 24.7202 53.7978 27.2102 38.7178C29.4202 25.3078 35.4502 12.8277 44.6402 2.80775C45.7302 1.62775 43.9603 -0.15221 42.8703 1.03779Z" fill="#FF46A0"/>
<path d="M152.79 303.946C159.3 322.956 153.44 342.856 145.12 360.316C144.43 361.766 146.59 363.036 147.28 361.576C155.87 343.526 161.93 322.936 155.2 303.276C154.68 301.766 152.27 302.416 152.79 303.936V303.946Z" fill="#FF46A0"/>
<path d="M146.75 164.998C145.45 175.068 140.31 183.658 135.61 192.448C131.49 200.148 127.96 208.088 125.81 216.578C125.41 218.138 127.82 218.808 128.22 217.238C130.77 207.198 135.36 198.128 140.29 189.078C144.46 181.428 148.12 173.718 149.25 164.988C149.46 163.398 146.95 163.408 146.75 164.988V164.998Z" fill="#FF46A0"/>
<path d="M135.86 2.63669C125.44 14.0467 119.16 28.1067 117.24 43.4167C117.04 45.0067 119.54 44.9967 119.74 43.4167C121.57 28.8167 127.7 15.2767 137.63 4.40671C138.71 3.21671 136.95 1.44669 135.86 2.63669Z" fill="#FF46A0"/>
<path d="M140.06 304.806C149.25 323.396 138.64 342.916 132.36 360.606C131.82 362.126 134.24 362.776 134.77 361.266C141.34 342.736 151.8 322.926 142.22 303.536C141.51 302.096 139.35 303.356 140.06 304.796V304.806Z" fill="#FF46A0"/>
<path d="M133.57 165.736C131.59 175.446 126.94 184.066 122.69 192.926C118.74 201.156 115.19 209.536 112.84 218.376C112.42 219.936 114.84 220.596 115.25 219.036C120.14 200.716 132.2 184.956 135.99 166.406C136.31 164.836 133.9 164.166 133.58 165.746L133.57 165.736Z" fill="#FF46A0"/>
<path d="M123.22 2.63669C112.83 14.0167 106.76 28.0967 104.89 43.3467C104.69 44.9367 107.2 44.9267 107.39 43.3467C109.18 28.8167 115.09 15.2467 124.99 4.40671C126.07 3.21671 124.31 1.44669 123.22 2.63669Z" fill="#FF46A0"/>
<path d="M124.42 298.767C130.86 308.577 133.01 319.318 130.4 330.818C128.06 341.128 123.29 350.698 119.73 360.618C119.19 362.138 121.6 362.787 122.14 361.277C126.27 349.777 132.14 338.598 133.73 326.348C135.08 315.948 132.28 306.188 126.57 297.508C125.69 296.168 123.52 297.417 124.41 298.767H124.42Z" fill="#FF46A0"/>
<path d="M121.2 163.766C119.39 173.846 114.47 182.596 109.96 191.656C105.82 199.966 102.46 208.576 100.26 217.606C99.8802 219.166 102.29 219.836 102.67 218.266C105.11 208.266 109.04 198.886 113.73 189.746C117.91 181.616 121.98 173.506 123.61 164.426C123.89 162.856 121.48 162.176 121.2 163.766Z" fill="#FF46A0"/>
<path d="M110.59 2.63669C99.99 14.2467 93.8 28.6467 92.04 44.2267C91.86 45.8267 94.36 45.8067 94.54 44.2267C96.22 29.3667 102.25 15.4767 112.36 4.40671C113.44 3.21671 111.68 1.44669 110.59 2.63669Z" fill="#FF46A0"/>
<path d="M111.42 298.056C117.73 308.106 119.91 318.986 117.44 330.646C115.25 341.016 110.75 350.716 107.09 360.606C106.53 362.116 108.95 362.766 109.5 361.266C113.75 349.766 119.22 338.406 120.72 326.106C122 315.606 119.14 305.656 113.57 296.786C112.72 295.426 110.55 296.676 111.41 298.046L111.42 298.056Z" fill="#FF46A0"/>
<path d="M108.71 164.436C102.75 184.466 89.9902 201.896 86.1902 222.646C85.9002 224.216 88.3102 224.896 88.6002 223.306C92.4002 202.566 105.16 185.126 111.12 165.096C111.58 163.546 109.17 162.886 108.71 164.436Z" fill="#FF46A0"/>
<path d="M97.9501 2.63669C87.4901 14.0867 81.3801 28.2867 79.5801 43.6467C79.3901 45.2367 81.8901 45.2267 82.0801 43.6467C83.8001 28.9967 89.7601 15.3267 99.7201 4.40671C100.8 3.21671 99.0401 1.44669 97.9501 2.63669Z" fill="#FF46A0"/>
<path d="M208.85 307.376C214.28 326.156 206.04 344.646 200.09 362.216C199.57 363.746 201.99 364.396 202.5 362.876C208.61 344.826 216.84 325.966 211.26 306.706C210.81 305.166 208.4 305.816 208.85 307.366V307.376Z" fill="#FF46A0"/>
<path d="M201.56 166.936C200.06 175.476 195.45 182.406 191.75 190.086C188.59 196.646 185.83 203.426 183.72 210.406C179.3 225.016 177.96 240.206 180.82 255.256C181.12 256.836 183.53 256.166 183.23 254.596C180.22 238.806 182.12 222.826 187.22 207.666C189.67 200.386 192.78 193.346 196.32 186.536C199.57 180.286 202.73 174.646 203.97 167.606C204.25 166.036 201.84 165.356 201.56 166.946V166.936Z" fill="#FF46A0"/>
<path d="M190.95 4.23649C180.65 15.5165 174.47 29.3765 172.56 44.4965C172.36 46.0865 174.86 46.0765 175.06 44.4965C176.88 30.0765 182.91 16.7365 192.72 5.9965C193.8 4.8065 192.04 3.03654 190.95 4.22654V4.23649Z" fill="#FF46A0"/>
<path d="M196.84 308.907C201.34 327.277 192.92 345.047 187.46 362.207C186.97 363.747 189.38 364.397 189.87 362.867C195.5 345.197 203.88 327.117 199.25 308.237C198.87 306.677 196.46 307.337 196.84 308.897V308.907Z" fill="#FF46A0"/>
<path d="M189.27 166.916C177.74 195.056 158.99 224.256 168.3 255.796C168.75 257.336 171.17 256.676 170.71 255.136C161.56 224.156 180.35 195.216 191.68 167.586C192.29 166.096 189.87 165.446 189.27 166.926V166.916Z" fill="#FF46A0"/>
<path d="M178.31 4.23578C168.67 15.4058 162.32 28.6958 160.06 43.3058C159.82 44.8758 162.23 45.5558 162.47 43.9658C164.66 29.7958 170.71 16.8458 180.08 5.99579C181.13 4.78579 179.37 3.00584 178.31 4.22584V4.23578Z" fill="#FF46A0"/>
<path d="M176.79 166.756C173.4 182.326 163.53 195.266 158.16 210.106C152.82 224.876 152.84 240.046 155.66 255.356C155.95 256.936 158.36 256.266 158.07 254.696C155.05 238.326 155.65 222.486 162.04 206.996C167.54 193.656 176.09 181.696 179.2 167.426C179.54 165.856 177.13 165.186 176.79 166.766V166.756Z" fill="#FF46A0"/>
<path d="M165.68 4.23665C155.31 14.8366 147.65 28.2167 146.2 43.1467C146.05 44.7467 148.55 44.7367 148.7 43.1467C150.08 28.9067 157.58 16.0867 167.44 5.99666C168.57 4.84666 166.8 3.0767 165.67 4.2267L165.68 4.23665Z" fill="#FF46A0"/>
<path d="M170.01 305.367C177.4 324.477 169.69 344.417 162.19 362.207C161.57 363.687 163.98 364.337 164.6 362.867C172.27 344.667 179.97 324.217 172.42 304.697C171.85 303.217 169.43 303.857 170.01 305.357V305.367Z" fill="#FF46A0"/>
<path d="M163.84 166.205C159.2 188.975 141.75 207.175 140.64 230.925C140.57 232.535 143.07 232.525 143.14 230.925C144.23 207.505 161.66 189.375 166.25 166.865C166.57 165.295 164.16 164.625 163.84 166.205Z" fill="#FF46A0"/>
<path d="M153.04 4.23556C143.34 15.3756 136.67 28.5856 134.2 43.1956C133.93 44.7656 136.34 45.4456 136.61 43.8556C139.01 29.6756 145.39 16.8156 154.81 5.99557C155.86 4.78557 154.1 3.01561 153.04 4.22561V4.23556Z" fill="#FF46A0"/>
<path d="M265.55 301.607C270.9 319.447 263.01 337.637 255.31 353.517C254.61 354.957 256.77 356.227 257.47 354.777C265.48 338.267 273.51 319.467 267.97 300.937C267.51 299.397 265.1 300.057 265.56 301.597L265.55 301.607Z" fill="#FF46A0"/>
<path d="M254.18 165.977C248.8 180.397 239.27 192.917 235.93 208.127C232.59 223.337 233.31 237.727 237.01 252.077C237.41 253.637 239.82 252.977 239.42 251.417C235.55 236.407 235.15 220.447 239.16 205.407C242.83 191.637 251.63 179.927 256.59 166.647C257.15 165.137 254.74 164.487 254.18 165.987V165.977Z" fill="#FF46A0"/>
<path d="M246.04 -4.16408C234.36 8.61592 227.79 24.9059 227.05 42.1859C226.98 43.7959 229.48 43.7959 229.55 42.1859C230.26 25.5759 236.58 9.88588 247.81 -2.39412C248.89 -3.58412 247.13 -5.35408 246.04 -4.16408Z" fill="#FF46A0"/>
<path d="M252.04 302.028C256.69 320.058 248.26 337.108 242.54 353.818C242.02 355.348 244.43 355.998 244.95 354.478C250.84 337.268 259.23 319.898 254.45 301.358C254.05 299.798 251.64 300.458 252.04 302.018V302.028Z" fill="#FF46A0"/>
<path d="M241.53 166.797C228.77 193.187 213.01 222.417 224.45 252.117C225.02 253.607 227.44 252.957 226.86 251.457C215.67 222.397 231.21 193.867 243.69 168.057C244.39 166.617 242.23 165.347 241.53 166.797Z" fill="#FF46A0"/>
<path d="M233.4 -4.16385C221.77 8.54615 215.25 24.7361 214.44 41.9161C214.36 43.5261 216.87 43.5161 216.94 41.9161C217.71 25.4061 223.99 9.81616 235.17 -2.40384C236.25 -3.59384 234.49 -5.36386 233.4 -4.17386V-4.16385Z" fill="#FF46A0"/>
<path d="M239.89 303.157C244.12 320.667 237 337.727 230.04 353.507C229.4 354.967 231.55 356.237 232.2 354.767C239.46 338.317 246.7 320.697 242.3 302.487C241.92 300.927 239.51 301.587 239.89 303.147V303.157Z" fill="#FF46A0"/>
<path d="M229.56 166.956C213.54 192.906 204.01 223.806 212.35 254.046C212.78 255.596 215.19 254.936 214.76 253.386C206.59 223.776 216.04 193.606 231.71 168.226C232.56 166.856 230.4 165.596 229.55 166.966L229.56 166.956Z" fill="#FF46A0"/>
<path d="M220.77 -4.16408C209.18 8.50592 202.67 24.6359 201.83 41.7659C201.75 43.3759 204.25 43.3659 204.33 41.7659C205.14 25.3159 211.4 9.77588 222.54 -2.39412C223.62 -3.58412 221.86 -5.35408 220.77 -4.16408Z" fill="#FF46A0"/>
<path d="M227.71 305.367C230.76 322.357 223.26 338.357 217.27 353.817C216.69 355.317 219.11 355.967 219.68 354.477C225.87 338.477 233.27 322.247 230.12 304.697C229.84 303.117 227.43 303.787 227.71 305.357V305.367Z" fill="#FF46A0"/>
<path d="M216.21 166.687C214.58 174.467 208.5 181.687 205.2 188.887C202.28 195.257 199.9 201.887 198.28 208.707C194.9 222.897 194.87 237.537 198.69 251.637C199.11 253.187 201.52 252.527 201.1 250.977C197.09 236.187 197.47 220.797 201.55 206.057C203.52 198.937 206.26 192.037 209.65 185.477C212.66 179.627 217.27 173.877 218.63 167.367C218.96 165.797 216.55 165.127 216.22 166.707L216.21 166.687Z" fill="#FF46A0"/>
<path d="M208.13 -4.16306C196.63 9.02693 189.95 25.4369 189.03 42.9169C188.95 44.5269 191.45 44.5169 191.53 42.9169C192.41 26.1269 198.84 10.2769 209.89 -2.39311C210.94 -3.60311 209.18 -5.37306 208.12 -4.16306H208.13Z" fill="#FF46A0"/>
<path d="M314.57 291.306C326.8 310.696 318.59 334.836 310.4 354.116C309.78 355.576 311.93 356.856 312.56 355.376C321.11 335.266 329.49 310.256 316.73 290.046C315.87 288.686 313.71 289.946 314.57 291.306Z" fill="#FF46A0"/>
<path d="M295.83 91.2053C302.51 105.415 309.68 119.855 312.13 135.525C314.58 151.195 310.01 166.515 303.3 181.155C297.74 193.305 291.52 205.425 289.73 218.835C287.77 233.515 290.1 248.545 295.56 262.245C296.15 263.725 298.57 263.075 297.97 261.585C291.91 246.365 289.55 229.155 293.33 213.055C296.63 198.995 304.15 186.455 309.49 173.145C314.83 159.835 316.81 146.415 314.09 132.275C311.22 117.365 304.41 103.565 298 89.9353C297.32 88.4853 295.16 89.7453 295.84 91.1953L295.83 91.2053Z" fill="#FF46A0"/>
<path d="M301.13 -3.56448C289.41 9.25552 282.78 25.6155 282.08 42.9655C282.02 44.5755 284.52 44.5755 284.58 42.9655C285.25 26.2955 291.63 10.5255 302.9 -1.79446C303.98 -2.98446 302.22 -4.75448 301.13 -3.56448Z" fill="#FF46A0"/>
<path d="M305.1 296.967C314.29 315.847 304.39 336.447 297.64 354.417C297.07 355.927 299.49 356.577 300.05 355.077C307.11 336.307 316.83 315.357 307.26 295.707C306.56 294.257 304.4 295.527 305.1 296.967Z" fill="#FF46A0"/>
<path d="M292.64 110.986C297.74 123.706 301.1 137.246 299.96 151.036C298.82 164.826 291.53 177.466 285.64 190.296C275.15 213.176 273.21 238.736 282.92 262.256C283.53 263.726 285.95 263.076 285.33 261.596C280.02 248.736 277.92 234.826 279.39 220.966C280.86 207.106 286.36 194.326 292.54 181.756C297.95 170.776 302.27 159.886 302.65 147.496C303.05 134.686 299.78 122.126 295.04 110.326C294.45 108.856 292.03 109.496 292.63 110.986H292.64Z" fill="#FF46A0"/>
<path d="M288.49 -3.56424C276.6 9.44576 269.91 26.1158 269.42 43.7158C269.37 45.3258 271.87 45.3258 271.92 43.7158C272.4 26.7758 278.82 10.7158 290.26 -1.80423C291.34 -2.99423 289.58 -4.76425 288.49 -3.57425V-3.56424Z" fill="#FF46A0"/>
<path d="M291.88 295.916C301.21 315.236 291.93 335.946 285 354.416C284.43 355.926 286.85 356.576 287.41 355.076C294.64 335.816 303.74 314.726 294.04 294.656C293.34 293.206 291.18 294.476 291.88 295.916Z" fill="#FF46A0"/>
<path d="M284.86 165.905C278.25 181.595 268.96 195.365 265.68 212.355C262.62 228.215 263.38 244.595 269.31 259.705C269.89 261.185 272.31 260.545 271.72 259.045C265.51 243.235 265.04 226.045 268.82 209.565C272.37 194.065 281.16 181.055 287.27 166.575C287.89 165.095 285.48 164.445 284.86 165.915V165.905Z" fill="#FF46A0"/>
<path d="M275.86 -3.56322C263.51 9.51678 256.83 26.6768 256.64 44.6268C256.62 46.2368 259.12 46.2368 259.14 44.6268C259.32 27.3268 265.73 10.8068 277.63 -1.80321C278.73 -2.97321 276.97 -4.74323 275.86 -3.57323V-3.56322Z" fill="#FF46A0"/>
<path d="M280.67 298.565C287.37 317.495 278.68 336.655 272.36 354.415C271.82 355.935 274.23 356.585 274.77 355.075C281.25 336.865 289.94 317.275 283.08 297.895C282.55 296.385 280.13 297.035 280.67 298.555V298.565Z" fill="#FF46A0"/>
<path d="M271.11 166.516C258.45 195.196 245.18 226.046 255.97 257.516C256.49 259.026 258.9 258.376 258.38 256.856C247.82 226.056 260.88 195.846 273.27 167.786C273.91 166.326 271.76 165.056 271.11 166.526V166.516Z" fill="#FF46A0"/>
<path d="M263.22 -3.56488C251.18 9.05512 243.68 25.4751 243.38 43.0251C243.35 44.6351 245.85 44.6351 245.88 43.0251C246.16 26.1351 253.4 10.3451 264.99 -1.79486C266.1 -2.95486 264.34 -4.72488 263.22 -3.56488Z" fill="#FF46A0"/>
<path d="M370.73 339.127C369.15 344.167 367.36 349.126 365.36 354.016C364.75 355.506 367.17 356.156 367.77 354.676C369.77 349.786 371.56 344.826 373.14 339.786C373.62 338.246 371.21 337.587 370.73 339.127Z" fill="#FF46A0"/>
<path d="M356.22 -3.96241C343.1 10.1976 335.4 30.0075 336.82 49.4275C338.37 70.6575 351.15 89.7775 359.12 109.018C367.82 130.018 372.3 152.398 362 173.678C357.29 183.408 351.74 192.298 348.33 202.598C344.89 212.998 343.81 223.478 344.24 234.408C344.68 245.408 346.9 255.628 351.85 265.518C357 275.798 364.12 284.928 371.28 293.868C372.29 295.128 374.04 293.348 373.05 292.098C359.65 275.368 347.95 258.298 346.82 236.228C346.26 225.298 347.01 214.618 350.43 204.178C353.94 193.478 359.72 184.288 364.52 174.178C372.72 156.908 371.81 138.578 366.08 120.648C360.35 102.718 349.51 85.1576 343.14 66.6376C334.91 42.7076 340.79 16.3575 357.99 -2.19246C359.08 -3.37246 357.32 -5.14241 356.22 -3.96241Z" fill="#FF46A0"/>
<path d="M343.58 -3.96221C329.11 11.8278 322.18 33.7078 325.22 54.9478C327.05 67.7278 332.96 79.2477 338.52 90.7377C344.72 103.548 350.67 116.718 353.65 130.708C356.72 145.148 355.57 159.268 349.52 172.778C344.41 184.188 337.65 194.738 334.39 206.918C328.73 228.078 331.59 251.408 342.17 270.588C348.55 282.148 360.69 291.658 363.33 304.988C365.02 313.528 362.52 322.718 360.4 330.978C358.28 339.238 355.78 346.508 352.72 354.018C352.11 355.508 354.53 356.158 355.13 354.678C360.03 342.638 364.11 329.878 365.85 316.948C367.49 304.808 363.45 295.668 356.19 286.168C348.72 276.388 342.05 267.028 338.2 255.168C334.35 243.308 333.24 231.578 334.53 219.648C335.96 206.488 341.15 194.978 347.12 183.338C352.59 172.668 357.25 161.968 357.85 149.818C359.16 123.518 345.11 100.128 334.72 77.0178C328.52 63.2278 325.43 48.7978 327.92 33.7178C330.13 20.3078 336.16 7.82775 345.35 -2.19225C346.44 -3.37225 344.67 -5.15221 343.58 -3.96221Z" fill="#FF46A0"/>
<path d="M330.95 -3.96221C316.48 11.8278 309.55 33.7078 312.59 54.9478C314.42 67.7278 320.33 79.2477 325.89 90.7377C332.09 103.548 338.04 116.718 341.02 130.708C344.09 145.148 342.94 159.268 336.89 172.778C331.78 184.188 325.02 194.738 321.76 206.918C316.1 228.078 318.96 251.408 329.54 270.588C335.92 282.148 348.06 291.658 350.7 304.988C352.39 313.528 349.89 322.718 347.77 330.978C345.75 338.828 343.15 346.508 340.09 354.018C339.48 355.508 341.9 356.158 342.5 354.678C347.4 342.638 351.48 329.878 353.22 316.948C354.86 304.808 350.82 295.668 343.56 286.168C336.3 276.668 329.42 267.028 325.57 255.168C321.86 243.748 320.61 231.578 321.9 219.648C323.33 206.488 328.52 194.978 334.49 183.338C339.96 172.668 344.62 161.968 345.22 149.818C346.53 123.518 332.48 100.128 322.09 77.0178C315.89 63.2278 312.8 48.7978 315.29 33.7178C317.5 20.3078 323.53 7.82775 332.72 -2.19225C333.81 -3.37225 332.04 -5.15221 330.95 -3.96221Z" fill="#FF46A0"/>
<path d="M328.56 287.157C335.73 296.627 339.65 306.597 337.82 318.597C335.97 330.777 332.09 342.637 327.45 354.017C326.84 355.507 329.26 356.157 329.86 354.677C334.92 342.277 339.49 328.917 340.73 315.497C341.76 304.317 337.34 294.637 330.72 285.897C329.76 284.627 327.59 285.877 328.56 287.157Z" fill="#FF46A0"/>
<path d="M318.31 -3.9627C307.22 8.3373 300.73 24.0772 299.74 40.6072C298.64 59.0372 305.55 74.4973 313.21 90.7873C321.75 108.937 331.07 128.317 330.09 148.897C329.11 169.477 315.96 185.647 309.68 204.407C303.02 224.307 305.47 249.287 315.38 267.697C316.14 269.117 318.3 267.857 317.54 266.437C308.24 249.167 305.71 225.457 311.58 206.647C317.02 189.207 328.93 174.077 331.87 155.797C334.64 138.577 329.45 121.587 322.79 105.867C315.61 88.9473 304.95 72.5173 302.65 53.9973C300.14 33.7373 306.38 13.0073 320.07 -2.19274C321.14 -3.38274 319.38 -5.1627 318.3 -3.9627H318.31Z" fill="#FF46A0"/>
<path d="M411.31 -9.36353C402.3 1.67647 394.52 14.3264 392.68 28.7364C390.67 44.4464 395.2 60.1965 401.24 74.5365C408.2 91.0565 417.74 106.486 421.61 124.166C425.88 143.686 420.27 160.896 411.84 178.386C408.06 186.236 403.81 194.236 401.82 202.776C399.59 212.336 399.67 222.266 399.69 232.016C399.69 233.626 402.19 233.626 402.19 232.016C402.18 223.066 402.07 213.966 403.86 205.156C405.57 196.716 409.53 188.916 413.24 181.206C419.91 167.386 426.22 153.146 425.78 137.477C424.83 103.437 398.49 77.0164 395.09 43.4965C393.11 23.9565 400.95 7.25644 413.06 -7.58356C414.07 -8.82356 412.31 -10.6035 411.29 -9.35352L411.31 -9.36353Z" fill="#FF46A0"/>
<path d="M398.67 -9.36261C388.58 1.65739 382.15 15.4974 380.21 30.3274C378.02 47.1174 383.11 62.9974 390.11 78.0474C397.84 94.6774 406.55 111.047 409.52 129.367C411.09 139.067 410.85 149.047 408 158.497C405.32 167.367 400.55 175.357 396.5 183.627C388.27 200.447 385 218.727 387.73 237.287C387.96 238.877 390.37 238.197 390.14 236.627C387.47 218.467 390.9 200.477 399.05 184.107C406.22 169.697 413.35 156.227 412.98 139.657C412.61 123.087 407.11 108.747 400.68 94.5174C393.43 78.4874 384.28 62.9474 382.43 45.1074C380.46 26.0174 387.55 6.46741 400.42 -7.59259C401.5 -8.77259 399.74 -10.5526 398.65 -9.36261H398.67Z" fill="#FF46A0"/>
<path d="M386.04 -9.36371C375.56 1.48629 368.93 15.3163 367.14 30.3163C365.17 46.8363 369.88 61.4363 376.66 76.2463C384.41 93.1763 393.27 110.166 396.54 128.686C398.23 138.266 398.46 148.576 395.72 157.996C394.28 162.966 391.33 167.396 388.97 171.986C386.61 176.576 384.49 181.016 382.52 185.666C374.6 204.396 370.84 224.446 376.52 244.346C376.96 245.886 379.37 245.236 378.93 243.686C373.35 224.146 377.18 204.456 385.02 186.116C388.51 177.956 393.54 170.476 397 162.366C399.97 155.406 400.49 146.546 400.19 139.076C399.5 122.376 393.2 106.566 386.43 91.5063C379.36 75.8063 370.34 60.4163 369.27 42.8563C368.13 24.1563 374.79 5.87631 387.81 -7.59369C388.93 -8.75369 387.16 -10.5237 386.04 -9.36371Z" fill="#FF46A0"/>
<path d="M373.4 -9.36257C362.15 2.68743 355.55 18.2174 354.46 34.6674C353.28 52.5074 359.93 67.5674 367.34 83.3374C375.74 101.227 385.14 120.107 385.43 140.307C385.72 160.507 372.69 177.797 365.77 196.787C358.26 217.417 360.38 239.407 369.04 259.297C369.68 260.767 371.84 259.497 371.2 258.037C362.8 238.747 360.93 217.417 368.18 197.447C374.28 180.647 385.75 165.757 387.61 147.587C389.36 130.497 383.65 113.777 376.95 98.3274C369.66 81.5174 359.09 65.0474 357.16 46.4974C355.11 26.8074 361.65 6.87744 375.16 -7.60256C376.26 -8.78256 374.49 -10.5526 373.39 -9.37258L373.4 -9.36257Z" fill="#FF46A0"/>
<path d="M466.2 -7.50409C464.11 -3.96409 461.08 -1.2941 458.96 2.2359C456.54 6.2459 454.1 10.2559 452.1 14.5059C448.67 21.8159 447.36 29.1359 447.42 37.1659C447.56 54.1759 452.38 69.6859 459.83 84.7959C466.89 99.1059 475.01 113.396 478.03 129.246C479.64 137.686 479.59 146.516 477.2 154.816C474.81 163.116 470.63 171.656 467.14 179.886C459.95 196.846 453.49 214.296 454.5 233.016C454.59 234.616 457.09 234.626 457 233.016C456.07 215.816 461.57 199.686 468.09 184.026C474.16 169.446 482.12 154.986 481.6 138.766C481.14 124.496 475.52 111.076 469.38 98.4059C461.96 83.0859 453.9 68.7559 451.17 51.7059C449.53 41.4259 448.79 30.0959 452.42 20.1659C454.26 15.1159 456.98 10.4259 459.73 5.82593C462.29 1.53593 465.84 -1.95406 468.37 -6.22406C469.19 -7.61406 467.03 -8.87407 466.21 -7.48407L466.2 -7.50409Z" fill="#FF46A0"/>
<path d="M453.76 -7.76369C443.6 3.16631 437.15 16.9964 435.18 31.7864C433.2 46.6264 436.35 60.1664 442.41 73.6563C449.71 89.9263 458.39 105.806 462.84 123.176C465.03 131.726 466.08 140.606 465.04 149.406C463.92 158.946 459.83 167.456 456.01 176.146C448.27 193.786 441.15 211.886 441.96 231.486C442.03 233.086 444.53 233.096 444.46 231.486C443.7 213.226 449.95 196.266 457.13 179.786C460.37 172.346 464.19 164.976 466.16 157.076C467.97 149.826 468.33 142.286 467.53 134.866C465.82 119.086 459.37 104.286 452.75 90.0263C445.78 74.9963 437.55 60.3763 437.06 43.4263C436.54 25.2663 443.15 7.33635 455.52 -5.97365C456.61 -7.15365 454.85 -8.92367 453.75 -7.74367L453.76 -7.76369Z" fill="#FF46A0"/>
<path d="M441.13 -7.7637C431.05 3.2463 424.6 17.0763 422.67 31.8963C420.74 46.7163 424.9 62.0663 431.04 76.0863C438.16 92.3363 446.92 107.926 450.9 125.366C454.94 143.076 451.55 159.746 443.72 175.876C439.73 184.086 435.27 192.096 432.59 200.866C429.71 210.276 428.77 220.136 429.22 229.946C429.29 231.546 431.79 231.556 431.72 229.946C431.29 220.646 432.1 211.326 434.74 202.366C437.1 194.346 440.99 186.936 444.71 179.486C451.31 166.296 456.15 152.226 455.21 137.276C453.13 104.066 427.61 78.0163 424.8 45.2363C423.2 26.6363 430.38 7.66632 442.89 -5.99368C443.97 -7.18368 442.21 -8.9537 441.12 -7.7637H441.13Z" fill="#FF46A0"/>
<path d="M428.3 -7.50267C426.05 -3.88267 422.82 -1.07265 420.42 2.45735C418.02 5.98735 416.13 9.45736 414.5 13.2174C411.5 20.1474 409.73 27.5474 409.21 35.0874C408.11 51.0074 413.47 65.0673 420.13 79.1973C427.43 94.6973 435.82 110.067 439.53 126.937C441.45 135.657 441.91 144.717 440.04 153.487C438.24 161.937 434.13 169.717 430.5 177.497C422.75 194.087 415.38 211.047 416.39 229.757C416.48 231.357 418.98 231.367 418.89 229.757C417.93 212.057 424.63 195.977 431.96 180.247C438.59 166.027 444.84 152.727 443.52 136.617C442.28 121.407 436.15 107.127 429.72 93.4774C422.57 78.2974 413.51 63.1273 411.86 46.1173C410.96 36.7973 412.03 27.3274 415.11 18.4774C416.66 14.0274 418.73 9.76736 421.23 5.77736C423.94 1.44736 427.78 -1.91266 430.47 -6.24266C431.32 -7.61266 429.16 -8.87267 428.31 -7.50267H428.3Z" fill="#FF46A0"/>
<path d="M531.17 156.645C525.08 182.145 507.93 204.615 509.45 231.775C509.54 233.375 512.04 233.385 511.95 231.775C510.44 204.895 527.54 182.575 533.58 157.315C533.95 155.755 531.54 155.085 531.17 156.655V156.645Z" fill="#FF46A0"/>
<path d="M521.49 -6.16407C509.32 8.94593 501.49 28.1659 502.96 47.8059C504.57 69.2759 516.71 87.9259 525.15 107.176C525.79 108.646 527.95 107.376 527.31 105.916C519.28 87.6059 507.69 69.8259 505.61 49.5259C503.61 29.9959 511.13 10.6659 523.26 -4.39411C524.26 -5.63411 522.5 -7.41407 521.49 -6.16407Z" fill="#FF46A0"/>
<path d="M518.64 158.796C511.52 183.296 495.06 205.386 496.77 231.906C496.87 233.506 499.37 233.516 499.27 231.906C497.58 205.656 514 183.726 521.05 159.466C521.5 157.916 519.09 157.256 518.64 158.806V158.796Z" fill="#FF46A0"/>
<path d="M508.851 -6.16407C494.311 7.98593 487.081 29.5759 489.671 49.7259C491.061 60.5359 495.541 71.0759 500.141 80.8659C502.731 86.3859 505.531 91.8059 508.291 97.2559C511.321 103.256 513.501 109.196 515.701 115.546C516.231 117.056 518.641 116.406 518.111 114.886C516.541 110.356 515.351 105.656 513.221 101.356C510.791 96.4359 508.181 91.5959 505.731 86.6859C500.601 76.3859 495.771 65.8359 493.161 54.5759C488.351 33.8459 495.431 10.3759 510.621 -4.39412C511.781 -5.51412 510.011 -7.28407 508.851 -6.16407Z" fill="#FF46A0"/>
<path d="M507.77 156.245C503.84 168.745 496.84 179.885 491.87 191.955C486.9 204.025 483.53 216.975 484.26 230.235C484.35 231.835 486.85 231.845 486.76 230.235C485.98 216.145 489.88 202.485 495.53 189.695C500.38 178.725 506.56 168.405 510.17 156.915C510.65 155.375 508.24 154.715 507.76 156.255L507.77 156.245Z" fill="#FF46A0"/>
<path d="M496.22 -6.16411C481.09 10.6659 474.79 31.3659 478.26 53.7759C482.33 80.0359 499.45 101.696 505.88 127.326C506.27 128.886 508.68 128.226 508.29 126.666C505.51 115.596 501.16 105.066 496.25 94.7859C490.88 83.5659 485.03 72.7259 482.13 60.5359C476.45 36.6959 481.55 13.8959 497.99 -4.38415C499.06 -5.57415 497.3 -7.3541 496.22 -6.1541V-6.16411Z" fill="#FF46A0"/>
<path d="M493.6 159.267C490.28 171.157 483.651 181.597 478.951 192.917C474.251 204.237 471.32 216.997 471.6 229.677C471.64 231.287 474.14 231.287 474.1 229.677C473.8 216.167 477.071 203.027 482.591 190.747C487.201 180.497 492.961 170.827 496.011 159.927C496.441 158.377 494.03 157.717 493.6 159.267Z" fill="#FF46A0"/>
<path d="M483.58 -6.16315C467.1 11.8369 460.77 37.0068 467.14 60.6068C470.51 73.0768 476.6 84.5468 482.06 96.1768C488.45 109.787 493.87 124.007 495.21 139.097C495.35 140.687 497.85 140.697 497.71 139.097C495.4 113.047 480.87 91.9668 472.13 68.0068C462.97 42.9068 467.06 15.5769 485.35 -4.40314C486.43 -5.58314 484.67 -7.36316 483.58 -6.17316V-6.16315Z" fill="#FF46A0"/>
<path d="M586.621 159.827C585.557 163.001 585.127 165.922 583.622 168.995C582.118 172.068 580.623 174.928 579.16 177.899C576.437 183.437 573.827 189.035 571.544 194.775C566.836 206.6 563.796 218.952 564.195 231.721C564.246 233.354 566.805 233.354 566.754 231.721C566.345 218.547 569.712 205.89 574.697 193.771C577.184 187.706 580.05 181.794 582.988 175.932C584.339 173.214 585.966 170.526 587.113 167.717C588.065 165.385 588.279 162.88 589.088 160.496C589.61 158.945 587.143 158.275 586.621 159.827Z" fill="#FF46A0"/>
<path d="M574.735 157.863C571.974 171.177 564.662 182.417 559.448 194.734C554.49 206.462 552.036 218.942 552.165 231.717C552.185 233.355 554.658 233.355 554.639 231.717C554.5 217.508 557.706 203.939 563.772 191.195C568.838 180.525 574.695 170.272 577.13 158.534C577.456 156.938 575.071 156.256 574.745 157.863H574.735Z" fill="#FF46A0"/>
<path d="M562.331 156.247C558.931 169.797 552.011 181.917 546.561 194.677C541.431 206.697 538.67 218.907 539.14 232.007C539.2 233.607 541.7 233.617 541.64 232.007C541.12 217.507 544.81 204.427 550.76 191.337C555.9 180.027 561.71 169.027 564.75 156.907C565.14 155.347 562.731 154.677 562.341 156.247H562.331Z" fill="#FF46A0"/>
<path d="M549.69 156.246C546.59 169.986 538.85 181.516 533.37 194.306C528.04 206.756 525.82 219.886 526.54 233.396C526.63 234.996 529.13 235.006 529.04 233.396C528.26 218.716 531.07 204.606 537.45 191.356C542.9 180.026 549.3 169.306 552.1 156.916C552.45 155.346 550.04 154.676 549.69 156.256V156.246Z" fill="#FF46A0"/>
<path d="M528 9.13641C516.69 32.1064 517.89 58.8664 529.12 81.6164C529.83 83.0564 531.99 81.7964 531.28 80.3564C520.47 58.4564 519.26 32.5164 530.16 10.3964C530.87 8.95642 528.71 7.68641 528 9.13641Z" fill="#FF46A0"/>
<path d="M631.66 -2.9635C621.38 7.6765 615.06 21.3665 613.21 36.0265C611.26 51.3865 614.72 65.6965 620.92 79.6865C627.76 95.1065 636.45 109.877 640.94 126.247C643.31 134.867 644.37 143.816 643.41 152.727C642.45 161.637 639.07 170.196 635.67 178.386C628.55 195.516 619.95 212.236 619.75 231.216C619.73 232.826 622.23 232.826 622.25 231.216C622.6 197.976 649.92 171.316 645.74 137.466C641.82 105.656 616.48 80.3665 615.19 48.1765C614.46 29.9865 620.74 11.9665 633.44 -1.18353C634.56 -2.34353 632.79 -4.11355 631.67 -2.95355L631.66 -2.9635Z" fill="#FF46A0"/>
<path d="M629.71 157.485C621.74 182.365 605.94 205.335 606.81 232.375C606.86 233.975 609.36 233.985 609.31 232.375C608.45 205.605 624.23 182.795 632.12 158.155C632.61 156.615 630.2 155.965 629.71 157.495V157.485Z" fill="#FF46A0"/>
<path d="M619.03 -2.96471C602.43 13.9153 595.86 38.6453 601.72 61.5753C608.67 88.7753 627.63 111.235 630.35 139.855C630.5 141.445 633 141.455 632.85 139.855C630.38 113.865 615.24 92.9352 606.63 68.9852C597.87 44.6052 602.37 17.5453 620.79 -1.19475C621.92 -2.34475 620.15 -4.11471 619.02 -2.96471H619.03Z" fill="#FF46A0"/>
<path d="M616.6 159.546C610.57 183.936 596 205.636 594.32 231.146C594.21 232.756 596.71 232.746 596.82 231.146C598.49 205.916 613.04 184.346 619.01 160.206C619.4 158.646 616.99 157.976 616.6 159.546Z" fill="#FF46A0"/>
<path d="M594.75 77.4958C601.33 91.4058 608.56 105.026 613.39 119.686C613.89 121.206 616.31 120.556 615.8 119.026C610.9 104.166 603.58 90.3458 596.9 76.2458C596.21 74.7958 594.06 76.0559 594.74 77.5059L594.75 77.4958Z" fill="#FF46A0"/>
<path d="M606.39 -2.96412C601.61 2.23588 597.67 8.02583 594.56 14.3658C593.85 15.8058 596.01 17.0758 596.72 15.6258C599.74 9.47584 603.52 3.84583 608.16 -1.20417C609.25 -2.38417 607.48 -4.15413 606.39 -2.97413V-2.96412Z" fill="#FF46A0"/>
<path d="M604.77 159.326C601.78 172.216 595.24 183.646 589.76 195.566C584.52 206.956 581.19 218.496 581.09 231.096C581.08 232.706 583.58 232.706 583.59 231.096C583.7 217.126 588.04 204.786 594.04 192.336C599.12 181.806 604.52 171.446 607.18 159.976C607.54 158.406 605.13 157.746 604.77 159.316V159.326Z" fill="#FF46A0"/>
<path d="M591.47 96.5061C592.5 98.4461 593.5 100.396 594.47 102.366C595.18 103.806 597.34 102.546 596.63 101.106C595.66 99.1361 594.66 97.1861 593.63 95.2461C592.87 93.8261 590.71 95.0861 591.47 96.5061Z" fill="#FF46A0"/>
<path d="M698.13 152.256C696.32 179.626 676.3 201.676 674.75 229.296C674.66 230.906 677.16 230.896 677.25 229.296C678.8 201.716 698.82 179.686 700.63 152.256C700.74 150.646 698.24 150.656 698.13 152.256Z" fill="#FF46A0"/>
<path d="M685.55 152.335C684.26 166.535 677.86 179.165 672.1 191.965C666.7 203.945 662.61 216.105 662.1 229.355C662.04 230.965 664.54 230.965 664.6 229.355C665.17 214.225 670.72 200.905 676.94 187.345C682.1 176.105 686.91 164.785 688.05 152.335C688.2 150.735 685.69 150.745 685.55 152.335Z" fill="#FF46A0"/>
<path d="M673.06 153.315C671.95 167.885 665.33 180.875 659.44 193.995C654.03 206.045 649.79 218.355 649.44 231.685C649.4 233.295 651.9 233.295 651.94 231.685C652.68 203.375 673.44 181.185 675.55 153.315C675.67 151.715 673.17 151.715 673.05 153.315H673.06Z" fill="#FF46A0"/>
<path d="M651.57 13.0449C634.71 34.0149 641.48 63.3049 652.46 85.3749C653.18 86.8149 655.33 85.5549 654.62 84.1149C644.21 63.1949 637.28 34.7949 653.34 14.8149C654.34 13.5749 652.58 11.7949 651.57 13.0449Z" fill="#FF46A0"/>
<path d="M660.28 152.895C658.77 167.625 651.89 180.685 646.02 194.035C640.36 206.895 636.61 219.936 636.85 234.106C636.88 235.716 639.38 235.716 639.35 234.106C639.07 217.976 644.25 203.835 650.84 189.385C656.2 177.635 661.45 165.885 662.78 152.895C662.94 151.295 660.44 151.305 660.28 152.895Z" fill="#FF46A0"/>
<path d="M648.85 -1.35426C636.55 12.4157 628.88 30.5058 629.74 49.1558C630.7 70.0157 641.16 88.8458 649.77 107.366C650.45 108.826 652.6 107.556 651.93 106.106C643.75 88.5358 633.79 70.6758 632.35 50.9657C630.99 32.3457 638.32 14.2057 650.62 0.425711C651.69 -0.774289 649.93 -2.54425 648.85 -1.34425V-1.35426Z" fill="#FF46A0"/>
<path d="M736.59 201.426C732.97 210.306 730.87 219.556 729.9 229.086C729.74 230.686 732.24 230.676 732.4 229.086C733.35 219.766 735.47 210.776 739 202.096C739.61 200.606 737.19 199.956 736.59 201.436V201.426Z" fill="#FF46A0"/>
<path d="M728.11 191.146C722.17 202.886 718.67 215.446 717.61 228.566C717.48 230.166 719.98 230.166 720.11 228.566C721.13 215.896 724.52 203.756 730.27 192.406C730.99 190.976 728.84 189.706 728.11 191.146Z" fill="#FF46A0"/>
<path d="M728.76 154.497C729.27 161.407 726.31 167.777 723.79 174.057C721.13 180.697 717.8 187.057 714.92 193.597C709.92 204.937 705.73 216.537 704.38 228.917C704.21 230.517 706.71 230.497 706.88 228.917C708.45 214.597 714.02 201.207 720.08 188.257C724.83 178.107 732.11 166.047 731.26 154.497C731.14 152.907 728.64 152.887 728.76 154.497Z" fill="#FF46A0"/>
<path d="M715.99 153.916C716.76 168.436 708.32 180.016 702.24 192.516C696.52 204.276 692.31 216.596 691.35 229.706C691.23 231.316 693.73 231.306 693.85 229.706C694.96 214.486 700.72 200.546 707.76 187.176C713.38 176.506 719.16 166.386 718.49 153.926C718.4 152.326 715.9 152.316 715.99 153.926V153.916Z" fill="#FF46A0"/>
</g>
</svg>
