<svg width="608" height="371" viewBox="0 0 608 371" fill="none" xmlns="http://www.w3.org/2000/svg">
<g clip-path="url(#clip0_832_19786)">
<mask id="mask0_832_19786" style="mask-type:alpha" maskUnits="userSpaceOnUse" x="0" y="0" width="608" height="371">
<path fill-rule="evenodd" clip-rule="evenodd" d="M260.242 213.056C261.095 143.054 261.948 73.0386 259.85 3.04407C259.836 2.58466 259.925 2.19101 260.09 1.86301C226.383 1.64269 192.677 1.45117 158.97 1.30201C106.242 1.06959 53.5135 0.934819 0.785156 0.950444C2.06644 26.3938 3.16902 51.8469 4.00007 77.3137C5.65007 127.994 6.23006 178.734 5.05006 229.433C4.75686 242.087 4.2811 254.744 3.8053 267.4L3.80521 267.402C2.54234 300.997 1.27941 334.594 3.42984 368.171C45.7832 368.955 88.1367 369.496 130.49 369.802C211.14 370.373 291.81 370.084 372.46 368.923C450.07 367.802 527.671 365.871 605.245 363.142C603.489 337.644 603.681 312.087 604.5 286.554L604.572 284.304V284.299C606.148 235.074 607.721 185.951 607.16 136.683C606.656 92.6379 605.105 48.5969 602.985 4.61451L602.98 4.61447C552.077 4.18089 501.173 3.74731 450.27 3.32154C388.364 2.80602 326.458 2.30162 264.552 1.89235C264.728 2.21454 264.836 2.59847 264.85 3.04407C265.58 27.224 265.97 51.414 266.11 75.614C266.378 121.261 265.821 166.901 265.263 212.542C264.781 251.981 264.299 291.421 264.35 330.864C264.35 334.084 259.35 334.084 259.35 330.864C259.31 306.684 259.47 282.494 259.72 258.314C259.874 243.229 260.058 228.143 260.242 213.056Z" fill="#D9D9D9"/>
</mask>
<g mask="url(#mask0_832_19786)">
<path d="M-0.199975 -5.7357C-3.41997 43.2543 5.33004 92.1443 6.81004 141.054C8.32004 191.124 7.39999 241.314 7.38999 291.404C7.38999 319.604 7.37002 347.814 7.36002 376.014C7.36002 377.624 9.86002 377.624 9.86002 376.014C9.88002 326.244 9.89001 276.474 9.91001 226.704C9.91001 201.474 10.1 176.234 9.56998 151.014C9.04998 126.304 7.29003 101.734 5.12003 77.1243C2.70003 49.5643 0.490025 21.9243 2.30003 -5.7357C2.41003 -7.3457 -0.0899751 -7.3357 -0.199975 -5.7357Z" fill="#FF46A0"/>
<path d="M6.49002 0.834655C14.88 100.455 18.39 200.475 16.92 300.445C16.5 328.915 15.67 357.365 14.46 385.815C14.39 387.425 16.89 387.425 16.96 385.815C21.22 285.935 20.59 185.855 14.98 86.0346C13.38 57.6146 11.38 29.2145 8.99002 0.844543C8.86002 -0.745457 6.35002 -0.765457 6.49002 0.844543V0.834655Z" fill="#FF46A0"/>
<path d="M20.1999 -5.96422C16.9799 43.0258 25.7299 91.9158 27.2099 140.826C28.7199 190.896 27.8 241.086 27.79 291.176C27.79 319.376 27.7699 347.586 27.7599 375.786C27.7599 377.396 30.2599 377.396 30.2599 375.786C30.2799 326.016 30.29 276.246 30.31 226.476C30.31 201.246 30.4999 176.006 29.9699 150.786C29.4499 126.076 27.6899 101.506 25.5199 76.8958C23.0999 49.3358 20.8899 21.6958 22.6999 -5.96422C22.8099 -7.57422 20.3099 -7.56422 20.1999 -5.96422Z" fill="#FF46A0"/>
<path d="M26.8902 0.606018C35.2802 100.226 38.7902 200.246 37.3202 300.216C36.9002 328.686 36.0702 357.136 34.8602 385.586C34.7902 387.196 37.2902 387.196 37.3602 385.586C41.6202 285.706 40.9902 185.626 35.3802 85.8061C33.7802 57.3861 31.7802 28.986 29.3902 0.616027C29.2602 -0.973973 26.7502 -0.993973 26.8902 0.616027V0.606018Z" fill="#FF46A0"/>
<path d="M40.5901 -6.18492C37.3701 42.8051 46.1202 91.695 47.6002 140.605C49.1102 190.675 48.1902 240.865 48.1802 290.955C48.1802 319.155 48.1601 347.365 48.1501 375.565C48.1501 377.175 50.6501 377.175 50.6501 375.565C50.6701 325.795 50.6801 276.025 50.7001 226.255C50.7001 201.025 50.8902 175.785 50.3602 150.565C49.8402 125.855 48.0802 101.285 45.9102 76.6751C43.4902 49.1151 41.2801 21.4751 43.0901 -6.18492C43.2001 -7.79492 40.7001 -7.78492 40.5901 -6.18492Z" fill="#FF46A0"/>
<path d="M56.5501 350.606C56.1801 362.196 55.75 373.776 55.26 385.356C55.19 386.966 57.69 386.966 57.76 385.356C58.25 373.776 58.6801 362.186 59.0501 350.606C59.1001 348.996 56.6001 348.996 56.5501 350.606Z" fill="#FF46A0"/>
<path d="M47.2901 0.385703C54.2601 68.7657 57.0101 137.606 57.7901 206.326C58.0101 226.126 58.0401 245.916 57.9201 265.716C57.9101 267.326 60.4101 267.326 60.4201 265.716C60.8601 195.826 59.28 125.906 54.52 56.1657C53.25 37.5457 51.6901 18.9557 49.7901 0.385703C49.6301 -1.20429 47.1301 -1.21429 47.2901 0.385703Z" fill="#FF46A0"/>
<path d="M68.5601 348.803C68.5601 357.653 68.5601 366.493 68.5601 375.343C68.5601 376.953 71.0601 376.953 71.0601 375.343C71.0601 366.493 71.0601 357.653 71.0601 348.803C71.0601 347.193 68.5601 347.193 68.5601 348.803Z" fill="#FF46A0"/>
<path d="M68.3601 253.104C68.3901 257.034 68.4201 260.964 68.4601 264.894C68.4801 266.504 70.9801 266.504 70.9601 264.894C70.9201 260.964 70.8901 257.034 70.8601 253.104C70.8501 251.494 68.3501 251.494 68.3601 253.104Z" fill="#FF46A0"/>
<path d="M61.0301 -6.74604C58.9301 2.83396 60.0401 11.964 60.5901 21.704C61.1401 31.444 61.6501 41.1439 62.2101 50.8539C63.3901 71.0339 65.5401 91.134 66.6701 111.304C68.9601 152.344 67.5601 193.474 68.2501 234.554C68.2801 236.164 70.7801 236.164 70.7501 234.554C70.0701 194.134 71.4101 153.674 69.2701 113.294C68.2401 93.754 66.1201 74.2839 64.9401 54.7439C64.3501 45.0239 63.8401 35.294 63.3001 25.574C62.7101 14.954 61.1401 4.35399 63.4301 -6.08601C63.7701 -7.65601 61.3601 -8.32604 61.0201 -6.74604H61.0301Z" fill="#FF46A0"/>
<path d="M77.0099 348.293C76.6299 360.573 76.1799 372.853 75.6499 385.133C75.5799 386.743 78.0799 386.743 78.1499 385.133C78.6699 372.853 79.1299 360.573 79.5099 348.293C79.5599 346.683 77.0599 346.683 77.0099 348.293Z" fill="#FF46A0"/>
<path d="M77.8401 260.064C77.8701 261.694 77.8901 263.325 77.9201 264.965C77.9501 266.605 80.4501 266.575 80.4201 264.965C80.3901 263.355 80.3701 261.704 80.3401 260.064C80.3101 258.424 77.8101 258.454 77.8401 260.064Z" fill="#FF46A0"/>
<path d="M67.68 0.163219C76.32 73.2232 76.42 146.853 77.31 220.303C77.33 221.913 79.83 221.913 79.81 220.303C78.93 146.853 78.82 73.2132 70.18 0.163219C69.99 -1.41679 67.49 -1.43679 67.68 0.163219Z" fill="#FF46A0"/>
<path d="M88.95 349.973C88.95 358.353 88.95 366.733 88.95 375.113C88.95 376.723 91.45 376.723 91.45 375.113C91.45 366.733 91.45 358.353 91.45 349.973C91.45 348.363 88.95 348.363 88.95 349.973Z" fill="#FF46A0"/>
<path d="M81.3899 -6.63594C78.7099 28.9241 83.47 64.6641 85.52 100.144C87.59 135.994 88.78 171.894 89.12 207.804C89.14 209.414 91.64 209.414 91.62 207.804C91.28 171.894 90.09 135.994 88.02 100.144C85.97 64.6641 81.2099 28.9141 83.8899 -6.63594C84.0099 -8.23594 81.5099 -8.23594 81.3899 -6.63594Z" fill="#FF46A0"/>
<path d="M97.3199 350.854C96.9599 362.204 96.53 373.564 96.05 384.914C95.98 386.524 98.48 386.524 98.55 384.914C99.03 373.564 99.4599 362.214 99.8199 350.854C99.8699 349.244 97.3699 349.244 97.3199 350.854Z" fill="#FF46A0"/>
<path d="M88.0801 -0.0659356C88.5201 66.7541 98.3301 133.124 98.4701 199.944C98.4701 201.554 100.97 201.554 100.97 199.944C100.83 133.114 91.0201 66.7441 90.5801 -0.0659356C90.5701 -1.67594 88.0701 -1.67594 88.0801 -0.0659356Z" fill="#FF46A0"/>
<path d="M109.35 351.846C109.35 359.526 109.35 367.206 109.35 374.896C109.35 376.506 111.85 376.506 111.85 374.896C111.85 367.216 111.85 359.536 111.85 351.846C111.85 350.236 109.35 350.236 109.35 351.846Z" fill="#FF46A0"/>
<path d="M101.78 -6.86461C100.18 26.1254 102.75 59.0454 105.51 91.8954C106.88 108.305 108.6 124.785 109.17 141.245C109.74 157.705 108.59 175.215 108.98 192.205C109.02 193.815 111.52 193.815 111.48 192.205C111.09 175.215 112.27 158.235 111.67 141.245C111.07 124.255 109.38 108.305 108.01 91.8954C105.26 59.0354 102.69 26.1254 104.28 -6.86461C104.36 -8.47461 101.86 -8.46461 101.78 -6.86461Z" fill="#FF46A0"/>
<path d="M117.71 350.625C117.35 361.975 116.92 373.336 116.44 384.686C116.37 386.296 118.87 386.296 118.94 384.686C119.42 373.336 119.85 361.985 120.21 350.625C120.26 349.015 117.76 349.015 117.71 350.625Z" fill="#FF46A0"/>
<path d="M108.48 -0.284213C114.37 62.3958 115.44 125.376 118.14 188.236C118.21 189.836 120.71 189.846 120.64 188.236C117.94 125.366 116.87 62.3958 110.98 -0.284213C110.83 -1.87422 108.33 -1.88422 108.48 -0.284213Z" fill="#FF46A0"/>
<path d="M129.75 350.225C129.75 358.375 129.75 366.525 129.75 374.665C129.75 376.275 132.25 376.275 132.25 374.665C132.25 366.515 132.25 358.365 132.25 350.225C132.25 348.615 129.75 348.615 129.75 350.225Z" fill="#FF46A0"/>
<path d="M122.18 -7.08516C121.54 1.16484 120.28 9.39486 120.16 17.6849C120.04 25.9749 121.16 33.4948 121.84 41.3448C123.28 57.8948 124.61 74.4648 125.76 91.0448C128.05 124.125 129.6 157.255 129.93 190.415C129.95 192.025 132.45 192.025 132.43 190.415C132.1 157.255 130.55 124.125 128.26 91.0448C127.11 74.4648 125.78 57.9048 124.34 41.3448C123.66 33.4948 122.55 25.5749 122.66 17.6849C122.77 9.39486 124.03 1.16484 124.68 -7.08516C124.81 -8.68516 122.3 -8.68516 122.18 -7.08516Z" fill="#FF46A0"/>
<path d="M138.13 349.706C137.76 361.296 137.33 372.876 136.84 384.456C136.77 386.066 139.27 386.066 139.34 384.456C139.83 372.876 140.26 361.286 140.63 349.706C140.68 348.096 138.18 348.096 138.13 349.706Z" fill="#FF46A0"/>
<path d="M128.87 -0.514519C136.17 62.8855 137.37 126.735 138.96 190.475C139 192.085 141.5 192.085 141.46 190.475C139.86 126.735 138.67 62.8855 131.37 -0.514519C131.19 -2.09452 128.69 -2.11452 128.87 -0.514519Z" fill="#FF46A0"/>
<path d="M149.81 347.856C149.81 357.166 149.81 366.476 149.81 375.796C149.81 377.406 152.31 377.406 152.31 375.796C152.31 366.486 152.31 357.176 152.31 347.856C152.31 346.246 149.81 346.246 149.81 347.856Z" fill="#FF46A0"/>
<path d="M142.25 -5.96422C141.28 9.61578 140.83 24.7958 142.04 40.3858C143.33 57.1658 144.71 73.9357 145.94 90.7257C148.35 123.626 150.19 156.586 149.89 189.586C149.88 191.196 152.38 191.196 152.39 189.586C152.69 156.586 150.85 123.626 148.44 90.7257C147.23 74.2757 145.89 57.8258 144.62 41.3758C143.35 24.9258 143.77 9.96578 144.76 -5.96422C144.86 -7.57422 142.36 -7.56422 142.26 -5.96422H142.25Z" fill="#FF46A0"/>
<path d="M158.33 346.666C157.94 359.646 157.46 372.618 156.91 385.588C156.84 387.198 159.34 387.198 159.41 385.588C159.96 372.618 160.44 359.636 160.83 346.666C160.88 345.056 158.38 345.056 158.33 346.666Z" fill="#FF46A0"/>
<path d="M148.94 0.606262C154.43 63.8263 157.41 127.236 159.3 190.656C159.35 192.266 161.85 192.266 161.8 190.656C159.91 127.236 156.93 63.8263 151.44 0.606262C151.3 -0.983738 148.8 -1.00374 148.94 0.606262Z" fill="#FF46A0"/>
<path d="M170.54 347.676C170.54 356.526 170.54 365.366 170.54 374.216C170.54 375.826 173.04 375.826 173.04 374.216C173.04 365.366 173.04 356.526 173.04 347.676C173.04 346.066 170.54 346.066 170.54 347.676Z" fill="#FF46A0"/>
<path d="M163.02 -7.86476C160.47 8.03524 161.13 24.4152 162.86 40.3652C164.73 57.5552 166.1 74.7953 167.12 92.0553C169.13 125.775 169.82 159.545 170.56 193.305C170.6 194.915 173.1 194.915 173.06 193.305C172.33 160.195 171.65 127.065 169.73 93.9952C168.77 77.4052 167.5 60.8253 165.77 44.2853C163.99 27.2153 162.69 9.83527 165.42 -7.20473C165.67 -8.77473 163.26 -9.45476 163.01 -7.86476H163.02Z" fill="#FF46A0"/>
<path d="M178.99 347.176C178.61 359.456 178.16 371.736 177.63 384.016C177.56 385.626 180.06 385.626 180.13 384.016C180.65 371.736 181.11 359.456 181.49 347.176C181.54 345.566 179.04 345.566 178.99 347.176Z" fill="#FF46A0"/>
<path d="M169.66 -0.965378C178.25 63.9246 177.45 129.445 179.32 194.745C179.37 196.355 181.87 196.355 181.82 194.745C179.95 129.445 180.76 63.9246 172.16 -0.965378C171.95 -2.53538 169.45 -2.55538 169.66 -0.965378Z" fill="#FF46A0"/>
<path d="M191.22 347.405C191.16 356.265 191.06 365.125 190.93 373.985C190.91 375.595 193.41 375.595 193.43 373.985C193.56 365.125 193.65 356.265 193.72 347.405C193.73 345.795 191.23 345.795 191.22 347.405Z" fill="#FF46A0"/>
<path d="M183.37 -7.75461C181.28 9.57539 182.17 26.9855 183.57 44.3255C184.97 61.7555 186.27 79.1654 187.23 96.6254C189.16 131.655 190.5 166.705 190.97 201.785C190.99 203.395 193.49 203.395 193.47 201.785C193 166.705 191.66 131.655 189.73 96.6254C188.77 79.1654 187.47 61.7555 186.07 44.3255C184.67 26.9755 183.78 9.56539 185.87 -7.75461C186.06 -9.34461 183.56 -9.33461 183.37 -7.75461Z" fill="#FF46A0"/>
<path d="M199.34 348.254C198.9 360.094 198.44 371.934 198.02 383.784C197.96 385.394 200.46 385.394 200.52 383.784C200.93 371.944 201.4 360.104 201.84 348.254C201.9 346.644 199.4 346.644 199.34 348.254Z" fill="#FF46A0"/>
<path d="M190.06 -1.18492C193.47 68.2651 202.32 137.515 200.6 207.155C200.56 208.765 203.06 208.765 203.1 207.155C204.82 137.515 195.96 68.2651 192.56 -1.18492C192.48 -2.78492 189.98 -2.79492 190.06 -1.18492Z" fill="#FF46A0"/>
<path d="M211 347.043C211 354.023 211 360.977 211 367.957C211 372.014 214 372.014 214 367.957C214 360.977 214 354.023 214 347.043C214 342.986 211 342.986 211 347.043Z" fill="#FF46A0"/>
<path d="M203.77 -7.98546C202.04 26.7745 205.35 61.4246 208.31 96.0246C211.27 130.625 211.74 165.515 211.66 200.295C211.62 219.745 211.43 239.195 211.38 258.645C211.38 260.255 213.88 260.255 213.88 258.645C213.98 224.105 214.56 189.545 213.81 155.005C213.06 120.175 209.43 85.6746 207.16 50.9446C205.88 31.3246 205.3 11.6545 206.27 -7.99547C206.35 -9.60547 203.85 -9.59547 203.77 -7.99547V-7.98546Z" fill="#FF46A0"/>
<path d="M210.46 -1.41503C217.38 65.435 218.38 132.685 219.67 199.825C220.04 219.155 220.45 238.475 221.02 257.805C221.07 259.415 223.57 259.415 223.52 257.805C221.52 190.645 221.66 123.395 217.63 56.3049C216.47 37.0349 214.95 17.7949 212.96 -1.40514C212.8 -2.98514 210.29 -3.00514 210.46 -1.40514V-1.41503Z" fill="#FF46A0"/>
<path d="M232 308.341C232 328.79 232 349.21 232 369.659C232 374.114 234 374.114 234 369.659C234 349.21 234 328.79 234 308.341C234 303.886 232 303.886 232 308.341Z" fill="#FF46A0"/>
<path d="M224.16 -8.20445C221.88 26.6155 226.06 61.2856 228.83 95.9456C231.62 130.846 231.79 165.875 231.78 200.865C231.78 220.495 231.77 240.126 231.76 259.766C231.76 261.376 234.26 261.376 234.26 259.766C234.27 224.956 234.6 190.116 234 155.306C233.4 120.316 230.08 85.6856 227.53 50.8056C226.09 31.1656 225.38 11.4655 226.67 -8.20445C226.78 -9.81445 224.27 -9.80445 224.17 -8.20445H224.16Z" fill="#FF46A0"/>
<path d="M241.085 288.596C240.607 317.851 240.315 347.128 240 376.404C239.965 379.865 242.88 379.865 242.915 376.404C243.23 347.128 243.521 317.872 243.999 288.596C244.057 285.135 241.143 285.135 241.085 288.596Z" fill="#FF46A0"/>
<path d="M230.85 -1.65546C236.7 66.5145 240.47 134.865 241.46 203.285C241.74 222.735 241.79 242.185 241.62 261.635C241.61 263.245 244.11 263.245 244.12 261.635C244.71 193.305 242.45 124.975 237.85 56.7946C236.53 37.2946 235.02 17.8145 233.35 -1.65546C233.21 -3.24546 230.71 -3.26546 230.85 -1.65546Z" fill="#FF46A0"/>
<path d="M244.763 -8.62561C241.757 40.836 248.453 90.2974 250.698 139.622C252.982 189.689 252.669 239.858 252.318 289.982C252.123 318.195 251.927 346.408 252.152 374.621C252.171 376.46 254.612 376.46 254.592 374.621C254.182 324.931 255.139 275.253 254.983 225.563C254.826 175.873 252.64 125.544 249.038 75.5343C247.018 47.538 245.495 19.4506 247.203 -8.62561C247.311 -10.4638 244.87 -10.4524 244.763 -8.62561Z" fill="#FF46A0"/>
<path d="M251 -1.80749C259.75 83.3825 262.3 169.202 261.9 254.792C261.79 279.282 261.4 303.763 260.83 328.253C260.79 329.863 263.29 329.863 263.33 328.253C265.37 241.603 264.85 154.853 259.28 68.3325C257.77 44.9225 255.9 21.5225 253.51 -1.80749C253.35 -3.38749 250.85 -3.40749 251.01 -1.80749H251Z" fill="#FF46A0"/>
<path d="M264.723 -8.6341C261.615 41.3097 269.376 90.8302 271.889 140.568C274.414 190.626 273.099 240.787 272.87 290.891C272.745 319.13 272.63 347.368 272.609 375.618C272.609 377.461 275.217 377.461 275.217 375.618C275.248 325.354 275.749 275.09 275.968 224.837C276.083 199.78 275.926 174.722 274.904 149.687C273.892 125.076 271.566 100.59 269.542 76.0702C267.227 47.9117 265.568 19.6502 267.321 -8.62265C267.435 -10.4648 264.828 -10.4534 264.713 -8.62265L264.723 -8.6341Z" fill="#FF46A0"/>
<path d="M281.283 337.956C281.196 347.652 281.099 357.348 281.001 367.044C280.946 372.319 283.662 372.319 283.717 367.044C283.815 357.348 283.912 347.652 283.999 337.956C284.054 332.681 281.327 332.681 281.283 337.956Z" fill="#FF46A0"/>
<path d="M271.65 -2.08514C278.49 86.6149 282.44 175.545 282.32 264.515C282.29 289.625 281.92 314.735 281.22 339.845C281.18 341.455 283.68 341.455 283.72 339.845C286.18 250.815 284.34 161.705 279.22 72.7949C277.78 47.8149 276.08 22.8549 274.15 -2.08514C274.03 -3.67514 271.53 -3.69514 271.65 -2.08514Z" fill="#FF46A0"/>
<path d="M285.35 -8.88608C282.13 40.1039 290.88 88.9939 292.36 137.904C293.87 187.974 292.95 238.164 292.94 288.254C292.94 316.454 292.92 344.664 292.91 372.864C292.91 374.474 295.41 374.474 295.41 372.864C295.43 323.094 295.44 273.324 295.46 223.554C295.46 198.324 295.65 173.084 295.12 147.864C294.6 123.154 292.84 98.5839 290.67 73.9739C288.25 46.4139 286.04 18.7739 287.85 -8.88608C287.96 -10.4961 285.46 -10.4861 285.35 -8.88608Z" fill="#FF46A0"/>
<path d="M292.04 -2.31586C300.43 97.3041 303.94 197.324 302.47 297.294C302.05 325.764 301.22 354.214 300.01 382.664C299.94 384.274 302.44 384.274 302.51 382.664C306.77 282.784 306.14 182.704 300.53 82.8841C298.93 54.4641 296.93 26.0642 294.54 -2.30585C294.41 -3.89585 291.9 -3.91585 292.04 -2.30585V-2.31586Z" fill="#FF46A0"/>
<path d="M305.75 -9.10487C302.53 39.8852 311.28 88.7752 312.76 137.685C314.27 187.755 313.35 237.945 313.34 288.035C313.34 316.235 313.32 344.445 313.31 372.645C313.31 374.255 315.81 374.255 315.81 372.645C315.83 322.875 315.84 273.105 315.86 223.335C315.86 198.105 316.05 172.865 315.52 147.645C315 122.935 313.24 98.3651 311.07 73.7551C308.65 46.1951 306.44 18.5552 308.25 -9.10487C308.36 -10.7148 305.86 -10.7048 305.75 -9.10487Z" fill="#FF46A0"/>
<path d="M312.44 -2.53449C320.83 97.0855 324.34 197.105 322.87 297.076C322.45 325.545 321.62 353.995 320.41 382.445C320.34 384.055 322.84 384.055 322.91 382.445C327.17 282.565 326.54 182.485 320.93 82.6655C319.33 54.2455 317.33 25.8454 314.94 -2.5246C314.81 -4.1146 312.3 -4.1346 312.44 -2.5246V-2.53449Z" fill="#FF46A0"/>
<path d="M326.14 -9.33532C323.51 30.8047 329.47 70.6947 331.81 110.685C334.13 150.405 333.77 190.175 333.75 229.945C333.75 231.555 336.25 231.555 336.25 229.945C336.27 190.175 336.63 150.405 334.31 110.685C331.97 70.6847 326.02 30.8047 328.64 -9.33532C328.75 -10.9453 326.24 -10.9353 326.14 -9.33532Z" fill="#FF46A0"/>
<path d="M332.84 -2.76468C340.41 74.7953 342.42 152.745 343.52 230.625C343.54 232.235 346.04 232.235 346.02 230.625C344.93 152.745 342.92 74.7953 335.34 -2.76468C335.19 -4.35468 332.68 -4.36468 332.84 -2.76468Z" fill="#FF46A0"/>
<path d="M346.54 -9.55423C344.82 30.3458 349.79 70.0057 352.43 109.746C355.08 149.546 355.58 189.866 354.14 229.726C354.08 231.336 356.58 231.336 356.64 229.726C358.07 189.866 357.58 149.546 354.93 109.746C352.28 70.0057 347.31 30.3458 349.04 -9.55423C349.11 -11.1642 346.61 -11.1642 346.54 -9.55423Z" fill="#FF46A0"/>
<path d="M353.23 -2.98358C359.34 73.6664 363.39 150.486 363.91 227.396C363.92 229.006 366.42 229.006 366.41 227.396C365.89 150.486 361.84 73.6664 355.73 -2.98358C355.6 -4.57358 353.1 -4.59358 353.23 -2.98358Z" fill="#FF46A0"/>
<path d="M366.94 -9.78583C363.71 14.8541 368.31 39.354 368.87 63.994C368.91 65.604 371.41 65.604 371.37 63.994C370.81 39.344 366.21 14.8541 369.44 -9.78583C369.65 -11.3759 367.15 -11.3659 366.94 -9.78583Z" fill="#FF46A0"/>
<path d="M475.17 117.045C475.45 155.055 477.38 193.055 476.3 231.065C476.25 232.675 478.75 232.675 478.8 231.065C479.89 193.055 477.96 155.055 477.67 117.045C477.66 115.435 475.16 115.435 475.17 117.045Z" fill="#FF46A0"/>
<path d="M475.61 -4.33514C482.14 74.5349 485.7 153.635 486.29 232.775C486.3 234.385 488.8 234.385 488.79 232.775C488.21 153.635 484.65 74.5349 478.11 -4.33514C477.98 -5.92514 475.48 -5.94514 475.61 -4.33514Z" fill="#FF46A0"/>
<path d="M489.32 -11.1361C486.69 29.3039 492.75 69.4739 495.03 109.764C497.32 150.154 496.96 190.604 496.93 231.044C496.93 232.654 499.43 232.654 499.43 231.044C499.46 190.614 499.82 150.154 497.53 109.764C495.25 69.4739 489.19 29.2939 491.82 -11.1361C491.92 -12.7461 489.42 -12.7361 489.32 -11.1361Z" fill="#FF46A0"/>
<path d="M496.01 -4.56578C498.44 35.0042 502.4 74.5042 503.87 114.124C504.6 133.864 504.93 153.624 505.96 173.364C506.99 193.074 508.74 212.734 507.29 232.474C507.17 234.084 509.67 234.074 509.79 232.474C511.24 212.734 509.49 193.074 508.46 173.364C507.43 153.654 507.1 133.874 506.37 114.124C504.9 74.4942 500.95 35.0042 498.51 -4.56578C498.41 -6.16578 495.91 -6.17578 496.01 -4.56578Z" fill="#FF46A0"/>
<path d="M509.71 -11.3548C506.49 37.6352 515.24 86.5252 516.72 135.435C518.23 185.505 517.31 235.695 517.3 285.785C517.3 313.985 517.28 342.195 517.27 370.395C517.27 372.005 519.77 372.005 519.77 370.395C519.79 320.625 519.8 270.855 519.82 221.085C519.82 195.855 520.01 170.615 519.48 145.395C518.96 120.685 517.2 96.1151 515.03 71.5051C512.61 43.9451 510.4 16.3052 512.21 -11.3548C512.32 -12.9648 509.82 -12.9548 509.71 -11.3548Z" fill="#FF46A0"/>
<path d="M516.41 -4.78449C524.8 94.8355 528.31 194.855 526.84 294.826C526.42 323.295 525.59 351.745 524.38 380.195C524.31 381.805 526.81 381.805 526.88 380.195C531.14 280.315 530.51 180.235 524.9 80.4155C523.3 51.9955 521.3 23.5954 518.91 -4.7746C518.78 -6.3646 516.27 -6.3846 516.41 -4.7746V-4.78449Z" fill="#FF46A0"/>
<path d="M530.11 -11.5853C526.89 37.4047 535.64 86.2947 537.12 135.205C538.63 185.275 537.71 235.465 537.7 285.555C537.7 313.755 537.68 341.965 537.67 370.165C537.67 371.775 540.17 371.775 540.17 370.165C540.19 320.395 540.2 270.625 540.22 220.855C540.22 195.625 540.41 170.385 539.88 145.165C539.36 120.455 537.6 95.8847 535.43 71.2747C533.01 43.7147 530.8 16.0747 532.61 -11.5853C532.72 -13.1953 530.22 -13.1853 530.11 -11.5853Z" fill="#FF46A0"/>
<path d="M536.8 -5.01508C545.19 94.6049 548.7 194.625 547.23 294.595C546.81 323.065 545.98 351.515 544.77 379.965C544.7 381.575 547.2 381.575 547.27 379.965C551.53 280.085 550.9 180.005 545.29 80.185C543.69 51.765 541.69 23.3649 539.3 -5.00507C539.17 -6.59507 536.66 -6.61507 536.8 -5.00507V-5.01508Z" fill="#FF46A0"/>
<path d="M550.51 -11.806C547.29 37.184 556.04 86.0739 557.52 134.984C559.03 185.054 558.11 235.244 558.1 285.334C558.1 313.534 558.08 341.744 558.07 369.944C558.07 371.554 560.57 371.554 560.57 369.944C560.59 320.174 560.6 270.404 560.62 220.634C560.62 195.404 560.81 170.164 560.28 144.944C559.76 120.234 558 95.664 555.83 71.054C553.41 43.494 551.2 15.854 553.01 -11.806C553.12 -13.416 550.62 -13.406 550.51 -11.806Z" fill="#FF46A0"/>
<path d="M557.2 -5.23578C565.59 94.3842 569.1 194.404 567.63 294.374C567.21 322.844 566.38 351.294 565.17 379.744C565.1 381.354 567.6 381.354 567.67 379.744C571.93 279.864 571.3 179.784 565.69 79.9643C564.09 51.5443 562.09 23.1442 559.7 -5.22577C559.57 -6.81577 557.06 -6.83577 557.2 -5.22577V-5.23578Z" fill="#FF46A0"/>
<path d="M570.9 -12.0345C567.68 36.9555 576.43 85.8454 577.91 134.755C579.42 184.825 578.5 235.015 578.49 285.105C578.49 313.305 578.47 341.515 578.46 369.715C578.46 371.325 580.96 371.325 580.96 369.715C580.98 319.945 580.99 270.175 581.01 220.405C581.01 195.175 581.2 169.935 580.67 144.715C580.15 120.005 578.39 95.4355 576.22 70.8255C573.8 43.2655 571.59 15.6255 573.4 -12.0345C573.51 -13.6445 571.01 -13.6345 570.9 -12.0345Z" fill="#FF46A0"/>
<path d="M577.6 -5.46429C585.99 94.1557 589.5 194.176 588.03 294.146C587.61 322.616 586.78 351.066 585.57 379.516C585.5 381.126 588 381.126 588.07 379.516C592.33 279.636 591.7 179.556 586.09 79.7357C584.49 51.3157 582.49 22.9157 580.1 -5.45429C579.97 -7.04429 577.46 -7.06429 577.6 -5.45429V-5.46429Z" fill="#FF46A0"/>
<path d="M591.3 -12.2552C588.08 36.7348 596.83 85.6248 598.31 134.535C599.82 184.605 598.9 234.795 598.89 284.885C598.89 313.085 598.87 341.295 598.86 369.495C598.86 371.105 601.36 371.105 601.36 369.495C601.38 319.725 601.39 269.955 601.41 220.185C601.41 194.955 601.6 169.715 601.07 144.495C600.55 119.785 598.79 95.2148 596.62 70.6048C594.2 43.0448 591.99 15.4048 593.8 -12.2552C593.91 -13.8652 591.41 -13.8552 591.3 -12.2552Z" fill="#FF46A0"/>
<path d="M597.99 -5.685C606.38 93.935 609.89 193.955 608.42 293.925C608 322.395 607.17 350.845 605.96 379.295C605.89 380.905 608.39 380.905 608.46 379.295C612.72 279.415 612.09 179.335 606.48 79.515C604.88 51.095 602.88 22.695 600.49 -5.67499C600.36 -7.26499 597.85 -7.28499 597.99 -5.67499V-5.685Z" fill="#FF46A0"/>
</g>
<path d="M259.518 -0.259993C262.13 96.42 260.276 193.134 259.385 289.814C259.129 317.291 258.965 344.779 259.006 372.256C259.006 375.915 264.127 375.915 264.127 372.256C264.014 275.564 266.441 178.896 265.929 82.2043C265.786 54.7048 265.386 27.2168 264.639 -0.259993C264.536 -3.90765 259.416 -3.91902 259.518 -0.259993Z" fill="#20BEFF"/>
</g>
<defs>
<clipPath id="clip0_832_19786">
<rect width="608" height="371" fill="white"/>
</clipPath>
</defs>
</svg>
