<svg width="88" height="263" viewBox="0 0 88 263" fill="none" xmlns="http://www.w3.org/2000/svg">
<path d="M3 71L2.5 27L16.5 6.5H59L69.5 24.5L81.5 66.5L73.5 72L39 80L3 71Z" fill="white"/>
<mask id="mask0_454_3071" style="mask-type:alpha" maskUnits="userSpaceOnUse" x="0" y="0" width="88" height="263">
<path fill-rule="evenodd" clip-rule="evenodd" d="M88 262.547V0L2.10837 0C2.90621 86.7985 3.32812 173.626 0.366042 260.39C28.6273 260.463 56.9005 261.455 85.1602 262.447C86.1068 262.481 87.0534 262.514 88 262.547Z" fill="#D9D9D9"/>
</mask>
<g mask="url(#mask0_454_3071)">
<path d="M33.1486 61.7764C31.2686 129.176 29.2186 196.576 28.1086 263.986C27.9986 270.426 37.9986 270.426 38.1086 263.986C39.2286 196.566 41.2686 129.166 43.1486 61.7764C43.3286 55.3364 33.3286 55.3464 33.1486 61.7764Z" fill="#FF46A0"/>
<path d="M1.04858 66.586C26.4786 57.606 54.0586 58.2061 79.1086 68.1861C83.5886 69.9761 85.5386 62.726 81.0986 60.956C54.9586 50.536 25.5786 49.986 -0.941412 59.356C-5.46141 60.956 -3.51142 68.196 1.04858 66.586Z" fill="#FF46A0"/>
<path d="M-3.75145 69.0461C6.84855 80.0161 22.0586 83.9162 36.9486 83.4962C51.8386 83.0762 71.0385 80.7162 83.5185 71.2562C87.3185 68.3762 83.5785 61.8661 79.7285 64.7761C68.6885 73.1461 52.3385 75.2361 38.8785 75.9161C25.2985 76.5961 11.3085 73.8362 1.54854 63.7361C-1.81146 60.2561 -7.11145 65.5661 -3.75145 69.0361V69.0461Z" fill="#FF46A0"/>
<path d="M0.748607 36.6467C8.04861 27.7067 13.6186 17.8368 17.4686 6.94675C19.0786 2.38675 11.8386 0.426699 10.2386 4.9567C6.8486 14.5567 1.8886 23.4567 -4.5514 31.3467C-7.5814 35.0567 -2.30139 40.3967 0.748607 36.6467Z" fill="#FF46A0"/>
<path d="M14.1586 9.52651C28.4586 9.06651 42.7486 8.61652 57.0486 8.15652C61.8586 8.00652 61.8886 0.506517 57.0486 0.656517C42.7486 1.11652 28.4586 1.56651 14.1586 2.02651C9.34855 2.17651 9.31855 9.67651 14.1586 9.52651Z" fill="#FF46A0"/>
<path d="M57.6086 6.61695C66.5986 25.867 74.0786 45.747 80.0586 66.137C81.4186 70.757 88.6586 68.7869 87.2886 64.1469C81.1186 43.1369 73.3486 22.6769 64.0786 2.83692C62.0386 -1.53308 55.5685 2.26696 57.5985 6.62696L57.6086 6.61695Z" fill="#FF46A0"/>
<path d="M-1.31126 45.0666L2.60874 52.2966C3.37874 53.7166 5.53873 52.4466 4.76873 51.0366L0.84873 43.8066C0.0787303 42.3866 -2.08126 43.6566 -1.31126 45.0666Z" fill="#FF46A0"/>
<path d="M-0.161497 37.2566C2.5685 42.4866 5.3085 47.7066 8.0385 52.9366C8.7885 54.3666 10.9385 53.0966 10.1985 51.6766C7.4685 46.4466 4.72851 41.2266 1.99851 35.9966C1.24851 34.5666 -0.901497 35.8366 -0.161497 37.2566Z" fill="#FF46A0"/>
<path d="M3.13861 30.5968C6.45861 38.0368 9.7786 45.4668 13.0986 52.9068C13.7486 54.3768 15.9086 53.1068 15.2586 51.6468C11.9386 44.2068 8.6186 36.7768 5.2986 29.3368C4.6486 27.8668 2.48861 29.1368 3.13861 30.5968Z" fill="#FF46A0"/>
<path d="M7.56858 25.2568C10.2286 32.5468 12.8886 39.8367 15.5486 47.1167C16.0986 48.6167 18.5086 47.9667 17.9586 46.4567L9.97858 24.5967C9.42858 23.0967 7.01858 23.7468 7.56858 25.2568Z" fill="#FF46A0"/>
<path d="M9.98864 17.5969L19.9486 42.4669C20.5386 43.9469 22.9586 43.2969 22.3586 41.8069C19.0386 33.5169 15.7186 25.2269 12.3986 16.9369C11.8086 15.4569 9.38864 16.1069 9.98864 17.5969Z" fill="#FF46A0"/>
<path d="M14.1086 10.2669L22.3386 33.7068C22.8686 35.2168 25.2886 34.5668 24.7486 33.0468C22.0086 25.2368 19.2586 17.4168 16.5186 9.60683C15.9886 8.09683 13.5686 8.74687 14.1086 10.2669Z" fill="#FF46A0"/>
<path d="M17.7587 7.69644C20.5287 13.8964 23.1687 20.1564 25.6787 26.4764C26.2687 27.9564 28.6787 27.3064 28.0887 25.8164C25.5087 19.2964 22.7887 12.8364 19.9187 6.43643C19.2587 4.96643 17.1087 6.23644 17.7587 7.69644Z" fill="#FF46A0"/>
<path d="M6.24868 62.6563L8.56867 72.1064C8.94867 73.6664 11.3687 73.0064 10.9787 71.4464L8.65867 61.9964C8.27867 60.4364 5.85868 61.0963 6.24868 62.6563Z" fill="#FF46A0"/>
<path d="M12.3386 61.7663C12.4986 66.6263 13.2086 71.3762 14.4986 76.0562C14.9286 77.6062 17.3386 76.9462 16.9086 75.3962C15.6786 70.9262 14.9886 66.3963 14.8386 61.7663C14.7886 60.1663 12.2886 60.1563 12.3386 61.7663Z" fill="#FF46A0"/>
<path d="M16.8586 57.0763L21.2486 75.4763C21.6186 77.0363 24.0285 76.3763 23.6585 74.8163L19.2686 56.4163C18.8986 54.8563 16.4886 55.5163 16.8586 57.0763Z" fill="#FF46A0"/>
<path d="M23.4385 57.3064C24.0485 63.4664 25.1785 69.5063 26.8685 75.4663C27.3085 77.0163 29.7185 76.3564 29.2785 74.8064C27.6485 69.0664 26.5285 63.2564 25.9385 57.3164C25.7785 55.7264 23.2785 55.7164 23.4385 57.3164V57.3064Z" fill="#FF46A0"/>
<path d="M29.0686 59.3169L33.3186 78.3069C33.6686 79.8769 36.0786 79.2169 35.7286 77.6469C34.3086 71.3169 32.8986 64.9869 31.4786 58.6569C31.1286 57.0869 28.7186 57.7469 29.0686 59.3169Z" fill="#FF46A0"/>
<path d="M40.0185 59.2368C41.3785 65.3968 42.7385 71.5467 44.0985 77.7067C44.4485 79.2767 46.8585 78.6168 46.5085 77.0468L42.4285 58.5768C42.0785 57.0068 39.6685 57.6668 40.0185 59.2368Z" fill="#FF46A0"/>
<path d="M44.5285 55.4369C45.5385 62.1869 46.8985 68.8568 48.6085 75.4668C49.0085 77.0268 51.4185 76.3669 51.0185 74.8069C49.3085 68.1969 47.9485 61.5268 46.9385 54.7768C46.6985 53.1868 44.2885 53.8669 44.5285 55.4369Z" fill="#FF46A0"/>
<path d="M50.3487 54.2768L55.1387 76.6068C55.4787 78.1768 57.8887 77.5169 57.5487 75.9469C55.9487 68.5069 54.3487 61.0568 52.7587 53.6168C52.4187 52.0468 50.0087 52.7068 50.3487 54.2768Z" fill="#FF46A0"/>
<path d="M56.3585 58.7669L60.6785 73.8469C61.1185 75.3869 63.5385 74.7369 63.0885 73.1869L58.7685 58.1069C58.3285 56.5669 55.9085 57.2169 56.3585 58.7669Z" fill="#FF46A0"/>
<path d="M63.0986 60.9764L66.7186 71.1064C67.2586 72.6064 69.6686 71.9664 69.1286 70.4464C67.9186 67.0664 66.7186 63.6964 65.5086 60.3164C64.9686 58.8164 62.5586 59.4564 63.0986 60.9764Z" fill="#FF46A0"/>
<path d="M71.5385 66.8662C73.0185 69.2562 74.3185 71.7362 75.3785 74.3262C75.9785 75.7962 78.3985 75.1462 77.7885 73.6662C76.6385 70.8662 75.2885 68.1762 73.6885 65.6062C72.8385 64.2462 70.6785 65.4962 71.5285 66.8662H71.5385Z" fill="#FF46A0"/>
</g>
</svg>
