<svg width="634" height="374" viewBox="0 0 634 374" fill="none" xmlns="http://www.w3.org/2000/svg">
<path d="M18.7899 180.41C27.0499 196.9 25.8599 216.13 17.0799 232.19C13.0999 239.47 7.04994 245.581 4.85994 253.781C3.03994 260.581 4.48995 267.011 7.90995 273.031C11.7199 279.741 17.3799 285.24 20.9799 292.08C26.0599 301.73 23.0099 311.65 18.6199 320.87C14.9099 328.65 10.3899 336.02 9.09995 344.69C8.51995 348.6 8.57994 352.57 9.44994 356.43C10.3199 360.29 13.0999 363.21 13.7699 367.01C14.0499 368.59 16.4599 367.92 16.1799 366.35C15.4899 362.49 12.7699 359.61 11.8599 355.77C10.4599 349.89 11.3699 343.62 13.3099 337.97C16.2299 329.48 21.5599 322.02 24.3799 313.47C26.6899 306.45 27.0799 298.97 23.8399 292.16C20.5999 285.35 14.8299 279.61 10.8199 273.04C5.27995 263.98 5.58995 255.14 10.9899 246.08C15.3499 238.77 20.4199 232.44 23.3599 224.32C28.7399 209.47 28.0299 193.28 20.9499 179.15C20.2299 177.71 18.0699 178.98 18.7899 180.41Z" fill="#FF46A0"/>
<path d="M7.41002 6.23103C17.08 22.981 -0.129981 40.2411 0.0200186 57.3411C0.0900186 65.5911 4.10001 72.311 8.65001 78.911C14.5 87.411 19.1 95.8111 20.26 106.251C20.44 107.831 22.94 107.851 22.76 106.251C21.8 97.5911 18.85 89.6511 14.06 82.3811C7.96001 73.1211 1.26002 64.941 2.82002 53.101C4.95002 36.981 18.96 21.231 9.58002 4.97102C8.78002 3.58102 6.61001 4.83103 7.42001 6.23103H7.41002Z" fill="#FF46A0"/>
<path d="M35.1499 178.44C42.7199 191.18 44.2199 205.95 40.2599 220.16C38.3299 227.09 35.2499 233.66 31.3399 239.69C27.6999 245.32 23.7099 249.67 22.9299 256.58C21.5399 268.76 29.3099 280.36 36.7699 289.2C42.7099 296.24 44.2799 303.47 41.2999 312.32C38.9399 319.31 34.7199 325.68 31.7199 332.42C26.8599 343.33 22.5199 359.15 32.4899 368.71C33.6499 369.82 35.4199 368.06 34.2599 366.94C22.5599 355.72 32.2899 336.42 38.1799 324.85C43.2599 314.88 49.2199 302.76 42.2599 292.07C38.6099 286.46 33.5499 281.98 30.2899 276.04C26.5399 269.23 23.8699 260.33 26.3099 252.7C28.4599 245.98 34.2499 240.44 37.4699 234.13C40.2099 228.75 42.3399 223.03 43.5999 217.13C46.5599 203.35 44.5399 189.34 37.3199 177.19C36.4999 175.81 34.3399 177.06 35.1599 178.45L35.1499 178.44Z" fill="#FF46A0"/>
<path d="M25.8 7.361C35.62 25.091 17.35 40.181 18.06 57.681C18.77 75.181 32.89 85.511 37.62 101.101C38.09 102.641 40.5 101.981 40.03 100.441C34.93 83.631 16.99 70.541 21.03 51.371C22.82 42.891 27.96 35.301 30.06 26.841C31.85 19.651 31.59 12.671 27.95 6.10099C27.17 4.69099 25.01 5.951 25.79 7.361H25.8Z" fill="#FF46A0"/>
<path d="M51.3701 174.571C62.3501 190.981 64.2901 211.331 55.3201 229.141C51.3901 236.931 45.4101 243.361 42.7801 251.871C40.1501 260.381 42.1001 266.671 45.5501 274.121C46.9201 277.071 48.7901 279.241 50.8501 281.721C52.9101 284.201 54.5501 287.101 56.6801 289.571C64.2601 298.341 60.0401 310.121 55.6701 319.291C48.5701 334.211 42.9301 350.791 50.6701 366.581C51.3801 368.021 53.5301 366.761 52.8301 365.321C48.0101 355.481 48.7201 344.991 51.9901 334.791C54.7401 326.221 60.3301 318.441 62.4001 309.721C63.8701 303.541 64.0301 294.551 60.1301 289.171C59.2901 288.011 57.7101 287.301 56.8301 286.161C55.9501 285.021 55.3701 283.411 54.4501 282.181C51.4201 278.111 48.8101 275.021 46.7601 270.271C44.7101 265.521 43.3501 261.101 44.3701 255.731C45.3001 250.821 47.6001 246.261 50.1501 242.011C54.6701 234.451 59.4501 227.871 61.7701 219.211C66.0201 203.311 62.5901 186.861 53.5201 173.311C52.6301 171.981 50.4601 173.231 51.3601 174.571H51.3701Z" fill="#FF46A0"/>
<path d="M44.18 5.49055C53.91 22.3306 36.45 39.6906 36.77 56.9006C36.93 65.3406 41.27 72.1706 45.92 78.8906C51.43 86.8606 55.62 94.9106 56.94 104.631C57.16 106.221 59.57 105.541 59.35 103.971C58.12 94.9805 54.56 87.0706 49.46 79.6306C43.15 70.4306 37.59 61.8606 39.92 50.1506C42.94 34.9606 55.27 19.6906 46.34 4.24055C45.54 2.85055 43.37 4.10056 44.18 5.50056V5.49055Z" fill="#FF46A0"/>
<path d="M71.43 177.47C73.64 179.79 73.53 182.55 75 185.17C75.4 185.89 76.17 186.37 76.56 187.12C77.58 189.06 77.85 192.2 78.24 194.33C79.78 202.6 79.79 211.19 77.29 219.29C75.01 226.7 70.98 233.48 67.12 240.15C64.22 245.17 61.13 250.04 60.49 255.92C59.37 266.22 65.61 275.27 70.61 283.69C73.51 288.58 76.22 293.55 77.55 299.12C79.6 307.68 77.38 315.4 73.58 323.1C70.26 329.81 65.78 335.96 64.68 343.51C63.48 351.76 65.82 359.85 68.93 367.4C69.53 368.87 71.95 368.22 71.34 366.74C67.95 358.52 65.4 349.5 67.79 340.64C69.78 333.27 74.92 326.8 77.84 319.76C82.57 308.37 81.1 297.62 75.36 286.95C69.91 276.82 60.53 266.06 63.38 253.71C65.03 246.56 70.14 240.17 73.59 233.78C77.04 227.39 79.9701 220.84 81.1401 213.68C82.4301 205.8 81.7001 197.81 79.8901 190.07C79.1801 187.05 78.26 185.91 76.97 183.44C75.49 180.61 75.52 178.13 73.2 175.69C72.09 174.52 70.32 176.29 71.43 177.46V177.47Z" fill="#FF46A0"/>
<path d="M62.5699 6.63023C68.4299 16.8902 64.1899 27.3502 60.1899 37.4202C56.7999 45.9402 53.9599 54.4802 56.1799 63.6902C58.3999 72.9002 65.8599 80.1303 70.1399 88.7803C75.8799 100.38 77.1299 113.71 73.3599 126.1C72.8899 127.64 75.2999 128.3 75.7699 126.76C79.0599 115.94 78.7499 104.29 74.9199 93.6302C71.0899 82.9702 62.1999 75.1902 58.9899 64.5402C52.7799 43.9302 76.2099 25.4702 64.7299 5.36021C63.9299 3.96021 61.7699 5.22022 62.5699 6.62022V6.63023Z" fill="#FF46A0"/>
<path d="M83.2399 5.29014C91.8199 24.4501 73.2799 40.6402 76.3899 59.7102C77.8299 68.5102 82.7599 74.9502 87.6099 82.1202C92.8899 89.9302 96.1199 98.8602 96.7699 108.28C97.4199 117.7 93.6999 126.77 88.7299 134.74C84.5199 141.49 79.8599 146.83 80.7599 155.29C81.6599 163.75 87.1499 169.33 91.6799 176.3C97.0899 184.61 99.7899 193.31 99.9799 203.21C100.08 208.52 99.7199 213.86 98.3399 219.01C96.7599 224.91 93.6199 229.64 90.3599 234.71C87.7199 238.81 84.7399 243.1 83.0199 247.68C81.4799 251.78 81.3799 256.32 80.8499 260.63C80.6499 262.22 83.1599 262.21 83.3499 260.63C83.9899 255.41 84.2999 250.56 86.6799 245.79C89.0599 241.02 92.2199 236.39 95.1999 231.88C99.7599 225 101.93 217.15 102.39 208.94C102.85 200.73 102.22 192.7 99.0699 184.99C97.4399 181.01 95.3599 177.23 92.9199 173.69C90.0899 169.58 86.6599 166.04 84.8299 161.31C82.7899 156.05 82.3499 150.1 84.9699 144.94C87.0499 140.84 90.2499 137.25 92.5399 133.23C96.3299 126.59 99.1199 119.28 99.3199 111.56C99.5399 103.47 97.3899 95.2002 93.8599 87.9502C89.7399 79.4902 82.7099 72.9102 79.8999 63.7702C76.2799 52.0002 81.3299 42.7501 85.0499 31.8601C88.2199 22.5601 89.4999 13.2302 85.3899 4.03019C84.7299 2.56019 82.5799 3.83014 83.2299 5.29014H83.2399Z" fill="#FF46A0"/>
<path d="M119.11 207.57C118.16 221.49 109.23 232.57 103.4 244.74C102.71 246.18 104.86 247.45 105.56 246C111.62 233.36 120.62 222.03 121.61 207.57C121.72 205.96 119.22 205.97 119.11 207.57Z" fill="#FF46A0"/>
<path d="M101.63 6.43025C107.44 16.5203 102.94 27.7803 99.1099 37.7003C95.2799 47.6203 92.3699 57.6303 96.3499 68.0003C96.9199 69.4903 99.3399 68.8403 98.7599 67.3403C90.5999 46.1103 115.6 25.7102 103.79 5.17024C102.99 3.78024 100.83 5.03025 101.63 6.43025Z" fill="#FF46A0"/>
<path d="M138.58 207.21C136.1 220.05 129.56 231.23 123.11 242.43C122.31 243.83 124.47 245.09 125.27 243.69C131.82 232.31 138.46 220.92 140.99 207.87C141.29 206.3 138.89 205.62 138.58 207.21Z" fill="#FF46A0"/>
<path d="M120.02 4.56013C127.5 17.5001 118.49 31.6601 114.45 44.2001C113.95 45.7301 116.37 46.3901 116.86 44.8601C121.17 31.5001 130.13 17.0701 122.18 3.30012C121.38 1.91012 119.21 3.16013 120.02 4.56013Z" fill="#FF46A0"/>
<path d="M154.84 204.57C155.34 218.39 149.94 231.02 140.97 241.37C139.92 242.58 141.68 244.36 142.74 243.14C152.13 232.31 157.86 219.06 157.34 204.58C157.28 202.98 154.78 202.97 154.84 204.58V204.57Z" fill="#FF46A0"/>
<path d="M138.4 5.69026C144.76 16.7403 138.9 29.0602 134.76 39.8002C134.18 41.3002 136.6 41.9503 137.17 40.4603C141.61 28.9603 147.32 16.1802 140.56 4.42024C139.76 3.03024 137.6 4.28025 138.4 5.68025V5.69026Z" fill="#FF46A0"/>
<path d="M175.99 207.55C174.69 221.94 165.27 233.25 159.54 246.03C158.89 247.49 161.04 248.76 161.7 247.29C167.64 234.01 177.14 222.49 178.49 207.54C178.63 205.94 176.13 205.95 175.99 207.54V207.55Z" fill="#FF46A0"/>
<path d="M159.08 4.36012C166.95 17.9201 157.18 32.3802 153.15 45.5202C152.68 47.0602 155.09 47.7201 155.56 46.1801C159.85 32.1901 169.59 17.5002 161.24 3.09016C160.43 1.70016 158.27 2.96011 159.08 4.35011V4.36012Z" fill="#FF46A0"/>
<path d="M195.02 207.001C194.1 220.951 186.27 232.591 179.25 244.211C178.42 245.591 180.58 246.851 181.41 245.471C188.69 233.411 196.57 221.451 197.52 207.001C197.63 205.391 195.13 205.401 195.02 207.001Z" fill="#FF46A0"/>
<path d="M177.46 5.4907C184.35 18.5307 176.22 31.6807 172.18 44.2107C171.69 45.7407 174.1 46.4007 174.59 44.8707C178.91 31.4707 186.93 18.0607 179.62 4.22068C178.87 2.80068 176.71 4.06069 177.46 5.48069V5.4907Z" fill="#FF46A0"/>
<path d="M213.33 206.57C212.32 213.95 209.47 220.75 205.76 227.18C202.64 232.59 199.04 237.59 197.14 243.6C196.65 245.14 199.07 245.8 199.55 244.26C201.72 237.4 206.24 231.77 209.55 225.46C212.58 219.69 214.85 213.69 215.74 207.22C215.96 205.65 213.55 204.97 213.33 206.56V206.57Z" fill="#FF46A0"/>
<path d="M195.85 3.63035C202.45 16.0104 196.38 30.7303 191.08 42.4303C190.42 43.8803 192.58 45.1603 193.24 43.6903C198.95 31.0703 205.11 15.6703 198.01 2.36033C197.25 0.940332 195.09 2.20034 195.85 3.62034V3.63035Z" fill="#FF46A0"/>
<path d="M231.69 203.38C231.6 211.34 229.97 219.43 225.84 226.32C222.65 231.64 218.64 236.23 216.82 242.28C216.36 243.82 218.77 244.48 219.23 242.94C221.44 235.6 227.19 230.25 230.19 223.29C232.92 216.97 234.11 210.24 234.18 203.38C234.2 201.77 231.7 201.77 231.68 203.38H231.69Z" fill="#FF46A0"/>
<path d="M214.24 4.76054C220.39 18.0305 212.78 31.4005 208.58 44.0105C208.07 45.5405 210.48 46.2005 210.99 44.6705C215.49 31.1705 222.94 17.6105 216.4 3.49052C215.72 2.03052 213.57 3.30053 214.24 4.75053V4.76054Z" fill="#FF46A0"/>
<path d="M251.11 209.9C250.41 217.48 246.94 224.43 242.72 230.66C239.54 235.35 236.04 239.8 234.46 245.33C234.02 246.88 236.43 247.54 236.87 245.99C238.82 239.18 243.9 233.98 247.37 227.95C250.62 222.3 253.01 216.43 253.61 209.9C253.76 208.3 251.26 208.31 251.11 209.9Z" fill="#FF46A0"/>
<path d="M234.91 3.43048C242.64 16.7905 232.87 31.3305 228.97 44.3005C228.51 45.8405 230.92 46.5005 231.38 44.9605C235.53 31.1505 245.28 16.3605 237.07 2.16046C236.26 0.770464 234.1 2.03047 234.91 3.42047V3.43048Z" fill="#FF46A0"/>
<path d="M269.82 200.15C271.79 216.53 262.85 230.44 255.29 244.18C254.52 245.59 256.67 246.85 257.45 245.44C265.21 231.32 274.34 216.97 272.32 200.14C272.13 198.56 269.63 198.54 269.82 200.14V200.15Z" fill="#FF46A0"/>
<path d="M253.3 4.56038C260.52 17.0704 252.27 30.8604 248.12 42.9604C247.6 44.4904 250.01 45.1404 250.53 43.6204C254.96 30.6904 263.14 16.6104 255.45 3.29036C254.65 1.90036 252.49 3.15037 253.29 4.55037L253.3 4.56038Z" fill="#FF46A0"/>
<path d="M287.03 291.881C289.57 297.481 288.68 303.681 286.79 309.331C286.28 310.861 288.69 311.511 289.2 309.991C291.33 303.631 292.03 296.851 289.2 290.611C288.54 289.151 286.38 290.421 287.04 291.871L287.03 291.881Z" fill="#FF46A0"/>
<path d="M268.68 153.95C271.38 161.23 275.86 167.39 280.08 173.84C285.13 181.57 288.48 189.43 288.83 198.78C289.18 208.13 286.81 217.89 282.5 226.42C278.56 234.23 273.05 241.04 270.23 249.41C269.71 250.94 272.13 251.59 272.64 250.07C275.83 240.61 282.53 232.99 286.43 223.86C289.81 215.96 291.66 207.39 291.33 198.78C291.02 190.72 288.75 183.32 284.64 176.4C280.06 168.68 274.24 161.78 271.08 153.28C270.53 151.78 268.11 152.43 268.67 153.94L268.68 153.95Z" fill="#FF46A0"/>
<path d="M272.67 75.0003C280.98 87.1803 286.73 100.44 283.97 115.46C282.72 122.27 279.99 128.75 276.16 134.51C273 139.26 269.48 143.48 268.51 149.26C268.25 150.83 270.66 151.51 270.92 149.92C272.11 142.8 277.51 137.73 280.85 131.58C284.19 125.43 286.18 119.15 286.93 112.43C288.53 98.0403 282.76 85.3603 274.83 73.7303C273.93 72.4103 271.76 73.6603 272.67 74.9903V75.0003Z" fill="#FF46A0"/>
<path d="M271.68 2.69025C279.91 16.8902 268.54 32.1602 265.1 46.0402C264.71 47.6002 267.12 48.2703 267.51 46.7003C271.16 31.9503 282.58 16.5002 273.83 1.42023C273.02 0.0302294 270.86 1.29024 271.67 2.68024L271.68 2.69025Z" fill="#FF46A0"/>
<path d="M290.07 3.83018C298.39 18.3502 286.26 33.7002 283.34 47.8802C280.69 60.7702 286.88 69.9002 293.8 80.1202C302.47 92.9202 305.61 108.13 300.86 123.1C298.69 129.93 294.69 135.09 290.84 140.97C287.84 145.55 285.85 150.58 287.3 156.08C288.63 161.12 292.08 165.24 295.16 169.31C299.53 175.08 302.92 181.26 304.85 188.27C308.7 202.3 306.63 216.87 299.56 229.49C294.1 239.23 286.08 249.34 287.62 261.21C289.07 272.33 298.33 279.82 303.38 289.25C310.67 302.87 302.63 315.52 296.8 327.95C294.37 333.13 292.18 338.54 291.67 344.29C291.03 351.61 293.73 358.32 296.56 364.92C297.19 366.39 299.35 365.12 298.72 363.66C295.51 356.18 292.95 348.82 294.77 340.62C296.16 334.33 299.26 328.57 302.09 322.83C306.51 313.89 311.01 304.07 308.04 293.94C304.8 282.9 294.56 275.69 291 264.85C286.33 250.63 298.19 238.5 303.9 226.62C308.8 216.42 310.34 204.88 308.56 193.72C307.65 187.97 305.85 182.36 303.2 177.16C300.12 171.12 295.29 166.36 291.93 160.52C287.9 153.51 289.45 147.36 293.89 140.94C297.69 135.44 301.24 130.2 303.28 123.76C307.16 111.51 306.24 97.7402 300.44 86.2402C297.41 80.2202 292.98 75.0801 289.58 69.2901C284.63 60.8701 284.23 52.5602 287.17 43.3202C291.34 30.2402 299.97 16.0702 292.23 2.57017C291.43 1.17017 289.27 2.43018 290.07 3.83018Z" fill="#FF46A0"/>
<path d="M312.26 147.6C306.4 159.58 313.92 169.26 320.53 178.98C330.42 193.51 331.6 211.83 324.97 228.04C319.68 240.97 307.74 253.04 310.79 268.07C312.33 275.67 317.48 281.55 321.88 287.67C328.04 296.23 330.5 305.14 327.14 315.44C324.11 324.73 318.03 332.76 315.47 342.24C312.98 351.49 315.3 360.67 318.92 369.28C319.53 370.74 321.96 370.1 321.33 368.62C317.48 359.48 315.35 350.12 318.66 340.45C321.26 332.85 325.73 326.06 328.65 318.59C331.34 311.71 332.35 304.07 329.93 296.95C327.51 289.83 322.26 284.48 318.2 278.43C312.96 270.62 311.4 262.45 314.71 253.55C317.5 246.02 322.36 239.51 325.82 232.3C332.25 218.88 333.65 203 328.69 188.87C324.08 175.74 307.02 163.99 314.43 148.86C315.13 147.42 312.98 146.15 312.27 147.6H312.26Z" fill="#FF46A0"/>
<path d="M312.56 8.49103C323.31 26.911 302.04 44.6911 306.01 63.7711C307.75 72.1111 312.78 79.2711 317.16 86.4011C323.19 96.2211 326.31 106.291 325.39 117.891C325.26 119.491 327.76 119.491 327.89 117.891C328.68 108.021 326.8 98.3511 322 89.6511C317.2 80.9511 310.44 72.991 308.43 63.101C304.46 43.661 325.98 26.491 314.73 7.22101C313.92 5.83101 311.76 7.09102 312.57 8.48102L312.56 8.49103Z" fill="#FF46A0"/>
<path d="M329.87 165.82C337.12 179.8 348.77 191.27 347.94 208.13C347.11 224.99 336.8 237.62 330.62 252.31C325.32 264.9 332.22 276.65 338.97 287.1C343.39 293.95 348.37 301.46 347.73 310.02C347.17 317.59 342.92 325.04 339.77 331.78C333.81 344.56 328.81 357.89 337.44 370.71C338.33 372.04 340.5 370.79 339.6 369.45C330.15 355.41 338.33 341.1 344.47 327.59C347.08 321.85 350.06 315.56 350.26 309.16C350.46 302.76 347.69 296.29 344.34 290.85C340.57 284.74 336.23 278.9 333.47 272.23C329.91 263.64 331.22 256.44 335.36 248.34C341.85 235.62 349.78 222.79 350.45 208.12C351.24 190.73 339.54 179.03 332.04 164.55C331.3 163.12 329.14 164.38 329.88 165.81L329.87 165.82Z" fill="#FF46A0"/>
<path d="M338.87 90.9406C342.76 99.6306 344.47 108.751 343.9 118.261C343.8 119.871 346.3 119.861 346.4 118.261C346.99 108.301 345.1 98.7806 341.02 89.6806C340.36 88.2106 338.21 89.4806 338.86 90.9406H338.87Z" fill="#FF46A0"/>
<path d="M330.95 9.63068C334.13 15.1007 334.16 21.1807 332.97 27.2407C332.66 28.8107 335.07 29.4807 335.38 27.9007C336.71 21.1807 336.64 14.4207 333.11 8.36066C332.3 6.97066 330.14 8.23067 330.95 9.62067V9.63068Z" fill="#FF46A0"/>
<path d="M348.02 165.88C357.29 178.12 367.66 190.19 367.04 206.51C366.72 214.87 364.14 223.57 360.22 230.95C357.02 236.97 353.13 242.62 350.43 248.91C345.52 260.34 347.62 271.22 354.22 281.53C357.9 287.27 363.9 292.79 365.61 299.49C367.73 307.82 364.33 317.12 361.23 324.78C355.43 339.13 348.37 353.66 355.83 368.84C356.54 370.28 358.7 369.02 357.99 367.58C350.1 351.52 359.88 336.22 365.25 321.18C367.56 314.7 369.37 307.78 368.39 300.86C367.48 294.44 363.2 289.91 359.52 284.82C355.33 279.02 351.34 272.57 350.2 265.38C348.99 257.73 352.09 250.5 355.69 243.92C362.4 231.64 369.34 220.1 369.58 205.59C369.85 189.2 359.54 176.97 350.18 164.61C349.22 163.34 347.05 164.59 348.02 165.87V165.88Z" fill="#FF46A0"/>
<path d="M357.58 89.6406C362.02 98.1606 363.72 107.251 362.59 116.791C362.4 118.381 364.9 118.371 365.09 116.791C366.27 106.841 364.36 97.2406 359.74 88.3706C359 86.9406 356.84 88.2106 357.58 89.6306V89.6406Z" fill="#FF46A0"/>
<path d="M349.33 7.76056C352.93 13.9806 352.49 20.8805 350.81 27.6205C350.42 29.1805 352.83 29.8506 353.22 28.2806C355.06 20.8806 355.41 13.2805 351.48 6.49054C350.67 5.10054 348.51 6.36055 349.32 7.75055L349.33 7.76056Z" fill="#FF46A0"/>
<path d="M366.12 165.45C369.77 172.33 374.75 178.26 379.11 184.68C384.45 192.53 386.96 200.95 386.01 210.49C385.14 219.18 382.23 227.15 377.36 234.37C373.51 240.07 369.08 245.56 366.74 252.12C362.44 264.2 367.09 274.59 373.91 284.59C377.85 290.37 383.17 296.47 384.31 303.55C385.73 312.33 380.82 320.15 377.15 327.74C370.67 341.15 364.64 356.51 374.2 369.99C375.12 371.29 377.29 370.04 376.36 368.73C365.96 354.08 375.22 337.46 382.03 323.44C384.99 317.35 387.69 311.24 386.96 304.29C386.3 298.06 382.63 292.87 379.17 287.82C375.47 282.42 371.34 277.05 369.05 270.85C366.34 263.54 367.34 255.88 370.82 249C374.3 242.12 379.16 236.87 382.76 230.45C386.11 224.47 387.87 217.29 388.5 210.5C389.26 202.33 387.84 194.03 383.55 186.97C378.79 179.14 372.58 172.33 368.27 164.2C367.52 162.78 365.36 164.04 366.11 165.46L366.12 165.45Z" fill="#FF46A0"/>
<path d="M375.97 91.7708C379.95 99.6808 381.45 108.101 380.91 116.911C380.81 118.521 383.31 118.511 383.41 116.911C383.98 107.661 382.31 98.7908 378.13 90.5108C377.41 89.0708 375.25 90.3408 375.97 91.7708Z" fill="#FF46A0"/>
<path d="M367.72 8.89046C371.59 15.6205 370.88 22.9405 368.81 30.1405C368.36 31.6905 370.77 32.3504 371.22 30.8004C373.49 22.9504 374.08 14.9304 369.88 7.62044C369.08 6.23044 366.92 7.48045 367.72 8.88045V8.89046Z" fill="#FF46A0"/>
<path d="M383.69 162.731C386.26 169.321 391.35 174.081 395.07 179.981C399.82 187.511 403.26 196.051 403.97 204.981C405.33 221.981 394.49 233.971 387.95 248.511C382.47 260.691 383.45 272.011 391.56 282.691C396.45 289.131 402.1 294.981 402.75 303.481C403.34 311.281 399.94 318.561 396.46 325.321C392.98 332.081 388.9 338.471 387.99 345.831C386.96 354.181 389.29 362.271 393.06 369.651C393.79 371.081 395.95 369.821 395.22 368.391C391.02 360.181 388.37 350.141 391.64 341.141C394.14 334.281 398.11 328.091 401.13 321.471C406.56 309.561 406.69 298.281 398.57 287.601C394.05 281.651 388.76 276.131 387.17 268.571C385.51 260.631 388.38 252.841 391.99 245.881C398.34 233.651 406.64 222.641 406.59 208.231C406.56 200.011 404.21 191.961 400.56 184.641C396.56 176.631 389.32 170.351 386.09 162.061C385.51 160.581 383.09 161.221 383.68 162.721L383.69 162.731Z" fill="#FF46A0"/>
<path d="M386.58 8.56094C393.18 17.7009 387.85 29.4609 384.49 38.9109C381.68 46.8009 378.62 55.121 379.43 63.641C380.24 72.161 386 78.601 390.53 85.891C396.21 95.021 400.07 105.011 399.56 115.901C399.48 117.511 401.98 117.501 402.06 115.901C402.49 106.641 399.92 97.8709 395.62 89.7209C390.54 80.1109 381.75 72.271 381.8 60.711C381.84 51.011 386.31 41.8609 389.26 32.8109C392.05 24.2509 394.43 15.1809 388.74 7.31094C387.81 6.02094 385.64 7.26095 386.58 8.57095V8.56094Z" fill="#FF46A0"/>
<path d="M403.64 166.461C414.32 178.271 422.88 193.231 422.49 209.611C422.29 217.971 419.18 225.851 415.28 233.131C411.99 239.261 407.42 244.951 404.74 251.351C402.52 256.661 400.48 262.521 401.83 268.341C403.37 274.971 409.1 280.751 412.87 286.261C417.28 292.711 421.08 299.601 421.56 307.571C422.04 315.541 417.17 321.901 414.24 328.751C408.55 342.021 403.6 357.351 411.45 370.771C412.26 372.161 414.42 370.901 413.61 369.511C405.18 355.091 412.51 337.441 419.36 323.861C422.25 318.131 424.63 312.521 423.93 305.981C423.23 299.441 420.61 293.691 417.18 288.251C413.31 282.121 407.05 276.041 404.67 269.141C401.98 261.361 406.54 252.521 410.54 246.081C418.05 233.981 425.68 221.151 424.95 206.391C424.16 190.471 415.88 176.261 405.41 164.691C404.33 163.491 402.56 165.271 403.64 166.461Z" fill="#FF46A0"/>
<path d="M404.96 9.69025C415.02 27.0302 396.35 44.5702 397.66 62.4102C398.32 71.3902 403.53 78.4102 408.44 85.6102C414.97 95.1902 418.38 105.35 417.94 117.02C417.88 118.63 420.38 118.63 420.44 117.02C420.8 107.4 418.79 97.9202 413.94 89.5402C408.21 79.6502 399.58 71.3203 400.1 59.0303C400.83 41.8003 417.12 25.6602 407.12 8.42023C406.31 7.03023 404.15 8.29024 404.96 9.68024V9.69025Z" fill="#FF46A0"/>
<path d="M422.72 166.29C432.4 178.23 441.78 193.44 440.36 209.48C439.6 218.12 436.7 226.73 432.72 234.39C429.32 240.93 424.43 246.6 421.72 253.5C416.61 266.51 424.95 275.89 431.76 286.23C435.43 291.79 438.82 297.831 439.18 304.641C439.56 311.881 436.48 319.3 433.9 325.93C428.39 340.12 422.66 354.21 429.83 368.91C430.54 370.36 432.69 369.091 431.99 367.651C424.36 352.001 432.69 336.91 438.03 322.05C440.17 316.09 442.23 309.7 441.58 303.29C441.04 297.95 438.84 293 436.11 288.44C432.91 283.08 429.02 278.16 425.83 272.79C420.47 263.74 422.67 255.44 427.91 246.91C435.52 234.52 443.31 221.28 442.98 206.13C442.63 190.4 434.1 176.381 424.48 164.521C423.47 163.271 421.71 165.05 422.71 166.29H422.72Z" fill="#FF46A0"/>
<path d="M429.61 88.3208C434.16 96.9408 436.83 105.951 436.29 115.761C436.2 117.371 438.7 117.361 438.79 115.761C439.35 105.561 436.49 96.0108 431.76 87.0508C431.01 85.6308 428.85 86.8908 429.6 88.3108L429.61 88.3208Z" fill="#FF46A0"/>
<path d="M423.35 7.8306C425.85 13.2006 426.04 18.9506 425.03 24.7106C424.75 26.2806 427.16 26.9606 427.44 25.3706C428.58 18.8906 428.32 12.5906 425.51 6.57059C424.83 5.11059 422.67 6.3806 423.35 7.8306Z" fill="#FF46A0"/>
<path d="M440.26 164.51C450.32 176.51 458.31 191.36 458.9 207.31C459.2 215.38 457.4 223.12 453.73 230.3C450.47 236.68 446.37 242.61 443.35 249.12C440.83 254.56 439.08 260.37 439.33 266.42C439.58 272.47 442.6 277.63 446.16 282.3C450.58 288.1 456.17 293.45 457.73 300.86C459.53 309.45 455.7 318.01 451.95 325.51C448.71 331.98 444.71 338.29 443.7 345.58C442.52 354.07 444.75 362.36 448.23 370.05C448.89 371.51 451.05 370.24 450.39 368.79C446.43 360.07 444.24 350.16 447.36 340.8C449.71 333.75 454.1 327.43 457 320.6C459.52 314.67 461.37 308.23 460.41 301.73C459.45 295.23 455.92 290.45 452.03 285.63C447.05 279.47 441.7 273.26 441.81 264.87C441.91 256.92 445.57 249.72 449.43 242.97C456.56 230.51 462.63 219.03 461.19 204.18C459.68 188.66 451.91 174.52 442.03 162.74C441 161.51 439.23 163.28 440.26 164.51Z" fill="#FF46A0"/>
<path d="M447.29 88.2511C451.96 96.4111 454.78 105.011 454.78 114.471C454.78 116.081 457.28 116.081 457.28 114.471C457.28 104.621 454.32 95.4911 449.45 86.9911C448.65 85.5911 446.49 86.8511 447.29 88.2511Z" fill="#FF46A0"/>
<path d="M441.74 8.96051C445.09 14.7105 445.08 21.0605 443.66 27.4105C443.31 28.9805 445.72 29.6505 446.07 28.0705C447.63 21.0705 447.59 14.0305 443.9 7.7005C443.09 6.3105 440.93 7.57051 441.74 8.96051Z" fill="#FF46A0"/>
<path d="M462.17 165.38C464.17 171.56 469.36 175.86 472.71 181.46C477.09 188.79 479.75 196.92 479.49 205.51C478.97 222.65 470.34 238.05 462.79 252.97C460.26 257.97 458.6 262.87 459.77 268.51C460.94 274.15 464.38 279.08 467.78 283.64C472.37 289.79 477.95 295.82 478.69 303.81C479.48 312.34 475.7 320.54 472.2 328.06C469.02 334.87 464.93 342.01 463.56 349.45C462.97 352.66 462.98 355.93 463.96 359.06C464.54 360.91 465.55 362.48 466.4 364.2C467.53 366.49 467.8 369.02 468.79 371.39C469.4 372.85 471.82 372.21 471.2 370.73C469.92 367.65 469.53 364.64 467.89 361.73C465.42 357.35 465.21 352.66 466.47 347.87C468.43 340.42 472.58 333.32 475.74 326.32C478.6 319.97 481.26 313.26 481.28 306.2C481.3 299.58 478.68 294.23 474.89 288.97C471.1 283.71 466.94 279.1 464.16 273.43C460.2 265.35 462.59 258.84 466.45 251.28C473.28 237.9 480.39 224.11 481.78 208.91C482.48 201.22 481.33 193.83 478.24 186.74C476.48 182.7 474.23 178.9 471.66 175.32C469.09 171.74 465.91 168.81 464.58 164.7C464.09 163.18 461.67 163.83 462.17 165.36V165.38Z" fill="#FF46A0"/>
<path d="M468.55 88.1101C472.77 96.1501 475.8 104.38 475.44 113.59C475.38 115.2 477.88 115.2 477.94 113.59C478.31 103.99 475.11 95.2401 470.71 86.8501C469.96 85.4201 467.8 86.6901 468.55 88.1101Z" fill="#FF46A0"/>
<path d="M462.41 6.16034C465.37 12.4103 465.42 19.0403 463.8 25.6703C463.42 27.2303 465.83 27.9004 466.21 26.3304C468 19.0004 467.83 11.7804 464.57 4.89038C463.88 3.44038 461.73 4.70039 462.41 6.15039V6.16034Z" fill="#FF46A0"/>
<path d="M480.26 165.85C483.13 172.44 488.21 177.36 492.05 183.33C496.7 190.58 498.06 199.93 497.87 208.39C497.67 217.62 494.64 226.21 490.55 234.4C487.18 241.14 482.7 247.44 479.61 254.3C474.08 266.62 481.42 278.35 488.41 288.23C493.02 294.75 498.24 301.16 497.85 309.6C497.5 317.35 492.94 325.02 489.73 331.91C483.45 345.41 478.68 359.19 487.27 372.84C488.12 374.2 490.29 372.95 489.43 371.58C480 356.61 487.96 341.86 494.5 327.56C497.18 321.69 500.26 315.4 500.35 308.84C500.44 302.28 497.6 297.09 494.01 291.88C490.08 286.17 485.65 280.66 482.73 274.33C478.75 265.7 480.06 258.42 484.62 250.35C492.03 237.23 500.02 223.9 500.35 208.39C500.51 200.64 499.39 192.22 495.96 185.19C492.32 177.73 485.73 172.25 482.4 164.58C481.76 163.11 479.61 164.38 480.24 165.84L480.26 165.85Z" fill="#FF46A0"/>
<path d="M486.31 87.6397C491.07 95.5997 494.17 104.12 493.85 113.5C493.79 115.11 496.29 115.11 496.35 113.5C496.69 103.73 493.44 94.6797 488.47 86.3797C487.65 84.9997 485.48 86.2597 486.31 87.6397Z" fill="#FF46A0"/>
<path d="M480.8 7.31046C484.06 13.3305 483.91 19.8604 482.32 26.3504C481.94 27.9104 484.35 28.5805 484.73 27.0105C486.48 19.8505 486.54 12.6404 482.95 6.04044C482.18 4.63044 480.02 5.89045 480.79 7.30045L480.8 7.31046Z" fill="#FF46A0"/>
<path d="M499.49 165.77C503.12 172.91 508.4 179.09 511.69 186.41C515.19 194.19 516.68 202.8 515.99 211.31C515.34 219.31 512.9 226.98 509.05 234C505.81 239.91 501.85 245.43 499.19 251.65C494.24 263.23 496.55 273.31 504.18 282.96C509.1 289.18 514.71 295.06 515.27 303.42C515.83 311.78 511.7 320.42 507.99 328.03C504.73 334.71 501.68 341.01 501.14 348.55C500.6 356.09 502.24 364.03 505.67 370.96C506.38 372.4 508.54 371.14 507.83 369.7C503.96 361.88 502.52 352.73 504.22 344.12C505.75 336.36 510.31 329.48 513.43 322.3C518.91 309.69 519.41 298.32 510.74 287.14C506.5 281.67 501.32 276.51 499.47 269.63C497.37 261.82 500.45 253.93 504.21 247.17C510.86 235.2 517.69 224.62 518.54 210.48C519.02 202.5 517.71 194.41 514.65 187.02C511.3 178.94 505.58 172.27 501.63 164.51C500.9 163.08 498.74 164.34 499.47 165.77H499.49Z" fill="#FF46A0"/>
<path d="M495.56 71.2298C504.33 83.0698 511.3 96.0198 512.24 110.99C512.34 112.59 514.84 112.6 514.74 110.99C513.77 95.5498 506.78 82.1998 497.72 69.9698C496.77 68.6898 494.6 69.9398 495.56 71.2298Z" fill="#FF46A0"/>
<path d="M499.18 5.42003C506.19 17.77 498.69 31.1401 494.42 43.0801C493.88 44.6001 496.29 45.25 496.83 43.74C501.39 31 508.78 17.27 501.34 4.16002C500.55 2.76002 498.38 4.02003 499.18 5.42003Z" fill="#FF46A0"/>
<path d="M516.22 164.76C525.86 176.07 533.49 189.94 534.76 204.98C536.14 221.28 527.96 234.03 519.56 247.2C512.48 258.3 513.62 271.49 521.54 281.94C526.39 288.34 532.41 294.88 533.5 303.07C534.59 311.26 532.02 318.77 528.95 325.98C525.91 333.12 521.02 340.35 519.67 348.06C518.24 356.22 521.06 364.3 523.94 371.81C524.51 373.3 526.93 372.65 526.35 371.15C522.98 362.38 519.82 352.96 523.56 343.77C526.32 336.97 529.93 330.54 532.58 323.69C535.03 317.34 536.8 310.55 536.11 303.7C535.84 301.03 535.22 298.42 534.22 295.93C532.68 292.09 530.33 290.03 528.06 286.71C523.79 280.5 519.13 274.92 517.61 267.28C515.62 257.27 520.84 249.99 525.88 241.97C533.58 229.71 538.86 217.41 537.02 202.65C535.16 187.77 527.6 174.26 518 162.99C516.96 161.76 515.19 163.54 516.23 164.76H516.22Z" fill="#FF46A0"/>
<path d="M517.57 6.55992C527.57 24.0399 509.1 41.7899 510.26 59.7399C510.85 68.8299 515.96 75.8799 520.9 83.1999C527.24 92.5999 530.74 102.56 530.59 113.99C530.57 115.6 533.07 115.6 533.09 113.99C533.21 104.57 531.13 95.3699 526.39 87.1799C520.64 77.2199 512.03 68.71 512.73 56.34C513.71 39.0499 529.61 22.5799 519.72 5.2899C518.92 3.8899 516.76 5.14991 517.56 6.54991L517.57 6.55992Z" fill="#FF46A0"/>
<path d="M537.17 164.65C541.54 171.6 546.54 178.04 550.35 185.35C554.16 192.66 555.99 201.72 555.48 210.3C554.54 226.09 544.37 236.78 538.42 250.66C536.31 255.59 534.94 260.89 535.6 266.28C536.42 273.08 540.82 278.23 544.62 283.66C549.16 290.15 553.98 297.27 554.7 305.39C555.42 313.51 551.79 320.91 548.26 327.89C541.22 341.81 537.26 356.02 544.74 370.77C545.47 372.21 547.63 370.94 546.9 369.51C542.88 361.59 541.99 352.64 544.13 344.03C545.93 336.77 550.03 330.41 553.1 323.67C555.72 317.93 557.71 311.78 557.2 305.39C556.69 299 553.68 292.94 550.27 287.56C546.39 281.44 540.32 275.47 538.5 268.34C536.59 260.84 539.63 253.26 543.1 246.73C549.55 234.59 557.11 224.55 557.98 210.31C558.46 202.41 557.1 194.38 553.94 187.12C550.2 178.52 544.27 171.28 539.33 163.4C538.48 162.04 536.31 163.29 537.17 164.66V164.65Z" fill="#FF46A0"/>
<path d="M547.27 92.9501C550.36 100.19 551.57 107.8 551.18 115.64C551.1 117.25 553.6 117.24 553.68 115.64C554.09 107.32 552.69 99.3401 549.43 91.6801C548.8 90.2001 546.65 91.4801 547.27 92.9401V92.9501Z" fill="#FF46A0"/>
<path d="M538.24 6.90074C542.4 14.1507 541.34 22.0407 539.02 29.7107C538.55 31.2507 540.96 31.9107 541.43 30.3707C543.95 22.0407 544.89 13.4607 540.4 5.63072C539.6 4.23072 537.44 5.49073 538.24 6.89073V6.90074Z" fill="#FF46A0"/>
<path d="M556.45 166.881C559.38 173.521 564.83 178.171 568.51 184.301C572.51 190.971 574.69 198.731 574.87 206.491C575.05 214.251 573.34 221.831 570.23 228.831C567.28 235.461 562.42 240.581 558.98 246.851C552.58 258.511 552.96 271.201 560.46 282.121C565.18 288.981 570.07 294.921 572.07 303.251C573.04 307.281 573.47 311.541 572.35 315.551C571.23 319.561 568.19 323.581 566.22 327.501C559.08 341.751 556.31 356.991 563.11 371.911C563.78 373.371 565.93 372.101 565.27 370.651C557.61 353.861 563.34 336.921 572.15 321.861C573.67 319.261 575.05 317.341 575.35 314.321C575.65 311.301 575.52 308.081 574.99 305.001C573.84 298.311 570.83 292.001 566.87 286.531C561.81 279.551 556.61 273.181 556.84 264.071C557.07 254.961 560.58 248.441 565.65 241.681C573.29 231.491 577.86 218.511 577.35 205.721C577.08 198.861 575.34 192.121 572.27 185.981C568.56 178.571 561.97 173.231 558.61 165.631C557.96 164.161 555.81 165.431 556.45 166.891V166.881Z" fill="#FF46A0"/>
<path d="M564.7 91.4603C568.99 100.03 570.36 109.23 569.33 118.72C569.16 120.32 571.66 120.31 571.83 118.72C572.91 108.79 571.34 99.1403 566.86 90.2003C566.14 88.7603 563.98 90.0303 564.7 91.4603Z" fill="#FF46A0"/>
<path d="M556.63 8.04077C560.21 14.2108 560.19 20.9808 558.58 27.7508C558.21 29.3108 560.62 29.9808 560.99 28.4108C562.76 20.9908 562.71 13.5108 558.79 6.77082C557.98 5.38082 555.82 6.64083 556.63 8.03083V8.04077Z" fill="#FF46A0"/>
<path d="M574.88 165.671C584.48 177.541 592.03 192.311 591.65 207.931C591.27 223.551 581.54 235.721 575.64 249.601C573.36 254.971 572.13 260.751 573.02 266.581C574.01 273.071 577.84 278.471 581.57 283.691C585.9 289.741 590.93 296.301 591.63 303.961C592.39 312.211 588.43 321.021 584.86 328.251C581.71 334.641 578.18 340.821 577.16 347.981C576.06 355.741 577.57 363.271 581.49 370.021C582.3 371.411 584.46 370.151 583.65 368.761C579.12 360.981 578.11 351.861 580.77 343.241C582.96 336.141 587.17 329.821 589.95 322.951C592.73 316.081 595.03 309.371 593.9 302.241C592.92 296.071 589.5 290.661 586 285.631C582.08 279.991 577.25 274.421 575.72 267.551C573.69 258.461 577.86 250.161 582.06 242.401C588.46 230.571 594.83 218.311 594.08 204.451C593.26 189.311 586.01 175.481 576.64 163.891C575.63 162.641 573.87 164.421 574.87 165.661L574.88 165.671Z" fill="#FF46A0"/>
<path d="M582.7 89.4609C586.77 98.0009 588.45 107.041 587.77 116.481C587.65 118.091 590.15 118.081 590.27 116.481C590.98 106.611 589.12 97.1309 584.86 88.2009C584.17 86.7509 582.01 88.0209 582.7 89.4609Z" fill="#FF46A0"/>
<path d="M575.02 6.16044C579.17 13.4704 577.99 21.5405 575.62 29.2305C575.15 30.7705 577.56 31.4305 578.03 29.8905C580.6 21.5305 581.65 12.7805 577.17 4.89049C576.38 3.49049 574.22 4.7505 575.01 6.1505L575.02 6.16044Z" fill="#FF46A0"/>
<path d="M589.61 160.101C595.97 171.971 605.82 182.401 609.68 195.501C614.34 211.281 606.1 226.621 598.44 239.971C595.19 245.641 591.24 251.221 590.46 257.871C589.68 264.521 591.83 270.581 594.77 276.261C598.18 282.851 602.6 288.841 606.5 295.131C608.7 298.671 610.48 302.531 610.97 306.691C611.64 312.381 608.77 316.731 606.39 321.621C598.86 337.071 593.73 354.041 599.77 370.871C600.31 372.371 602.73 371.721 602.18 370.211C595.62 351.951 602.78 334.391 611 318.021C617.8 304.481 608.08 293.271 601.05 282.081C596.79 275.301 592.36 267.701 592.83 259.411C593.3 251.121 599.47 243.421 603.42 236.251C609.87 224.561 615.75 211.141 612.79 197.541C609.63 182.991 598.64 171.661 591.77 158.841C591.01 157.421 588.85 158.681 589.61 160.101Z" fill="#FF46A0"/>
<path d="M598.26 85.7902C606.08 98.3402 606.89 113.18 602.89 127.18C602.45 128.73 604.86 129.39 605.3 127.84C609.48 113.21 608.58 97.6203 600.42 84.5203C599.57 83.1603 597.41 84.4103 598.26 85.7803V85.7902Z" fill="#FF46A0"/>
<path d="M593.4 7.30011C597.42 14.3401 596.43 22.0801 594.23 29.5401C593.77 31.0901 596.19 31.7501 596.64 30.2001C599.03 22.0701 599.9 13.6501 595.55 6.03015C594.75 4.63015 592.59 5.8901 593.39 7.2901L593.4 7.30011Z" fill="#FF46A0"/>
<path d="M614.07 5.19983C622.39 19.8698 610.26 35.3598 607.34 49.6998C604.62 63.0498 611.22 72.2798 618.23 82.8898C626.97 96.1098 629.68 112.09 624.34 127.22C620.49 138.13 607.46 147.78 611.72 160.36C613.58 165.84 617.71 170.15 620.98 174.79C625.05 180.57 627.91 187.06 629.45 193.96C632.46 207.4 630.2 221.11 623.54 233.1C618.03 243.03 609.92 253.37 611.65 265.45C613.24 276.58 622.52 284.13 627.5 293.67C634.89 307.86 625.99 320.93 620.19 333.81C617.83 339.06 615.8 344.57 615.56 350.37C615.28 357.25 617.91 363.62 620.55 369.83C621.18 371.31 623.33 370.03 622.71 368.57C619.71 361.51 617.1 354.42 618.49 346.64C619.63 340.26 622.62 334.39 625.45 328.62C629.96 319.42 634.94 309.38 632.24 298.88C629.38 287.75 619.4 280.46 615.39 269.91C610.01 255.74 621.19 243.43 627.2 231.58C632.48 221.17 634.33 209.37 632.69 197.83C631.95 192.66 630.53 187.61 628.42 182.83C625.66 176.58 621.4 171.62 617.59 166.04C612.69 158.85 612.19 152.39 617 144.98C620.64 139.36 624.5 134.3 626.75 127.9C631.04 115.71 630.53 101.82 625.19 90.0398C622.13 83.2998 617.27 77.6798 613.57 71.3298C608.61 62.7998 608.21 54.4398 611.16 45.0998C615.33 31.8798 623.96 17.5898 616.22 3.95984C615.43 2.55984 613.27 3.81978 614.06 5.21978L614.07 5.19983Z" fill="#FF46A0"/>
</svg>
