<svg width="88" height="239" viewBox="0 0 88 239" fill="none" xmlns="http://www.w3.org/2000/svg">
<path d="M12.58 181.481C36.27 182.361 59.98 182.071 83.64 180.601C86.84 180.401 86.86 175.401 83.64 175.601C59.98 177.071 36.27 177.361 12.58 176.481C9.35995 176.361 9.36995 181.361 12.58 181.481Z" fill="#20BEFF"/>
<path d="M9.65993 180.521C12.8899 198.731 18.8499 216.201 27.3499 232.631C28.8299 235.491 33.1499 232.961 31.6699 230.111C23.3699 214.071 17.6299 196.981 14.4799 179.201C13.9199 176.041 9.09993 177.381 9.65993 180.531V180.521Z" fill="#20BEFF"/>
<path d="M82.6699 178.54C81.8499 188.23 76.24 197.52 73.59 206.84C70.94 216.16 69.3399 225.52 68.4699 235.07C68.1799 238.27 73.1799 238.25 73.4699 235.07C74.4099 224.72 76.3799 214.51 79.4799 204.59C82.1799 195.94 86.8899 187.67 87.6699 178.55C87.9399 175.34 82.9399 175.36 82.6699 178.55V178.54Z" fill="#20BEFF"/>
<path d="M70.6899 238.521C73.9099 238.521 73.9099 233.521 70.6899 233.521C67.4699 233.521 67.4699 238.521 70.6899 238.521Z" fill="#20BEFF"/>
<path d="M41.8499 177.191C39.2999 170.291 38.7699 162.461 37.9899 155.201C37.2099 147.941 36.7599 141.141 36.5699 134.091C36.1399 118.591 37.0699 103.061 39.3299 87.7206C43.4899 59.5706 50.85 30.8505 42.59 2.70054C41.69 -0.379457 36.86 0.930621 37.77 4.03062C46.4 33.4206 37.3799 63.4205 33.6199 92.8205C31.7499 107.451 31.0899 122.231 31.6599 136.981C31.9399 144.351 32.5299 151.711 33.4299 159.031C34.2199 165.511 34.75 172.381 37.03 178.531C38.14 181.521 42.9699 180.231 41.8499 177.201V177.191Z" fill="#20BEFF"/>
<path d="M66.8 179.381C70.02 179.381 70.02 174.381 66.8 174.381C63.58 174.381 63.58 179.381 66.8 179.381Z" fill="#20BEFF"/>
<path d="M70.2599 176.51C75.2099 145.87 61.6299 117.76 49.2299 90.7102C36.2399 62.4002 22.5699 34.3203 5.37994 8.28028C3.60994 5.61028 -0.720072 8.1103 1.05993 10.8003C17.2199 35.2703 30.2799 61.5503 42.5599 88.1303C55.0899 115.23 70.4199 144.28 65.4399 175.18C64.9299 178.33 69.7499 179.68 70.2599 176.51Z" fill="#20BEFF"/>
<path d="M15.8599 183.231C15.8799 188.561 15.7899 193.881 15.5999 199.201C15.5399 200.811 18.0399 200.811 18.0999 199.201C18.2899 193.881 18.3799 188.561 18.3599 183.231C18.3599 181.621 15.8499 181.621 15.8599 183.231Z" fill="#20BEFF"/>
<path d="M20.0499 188.75C19.9899 196.76 19.5599 204.73 18.7499 212.7C18.5899 214.3 21.0899 214.29 21.2499 212.7C22.0599 204.73 22.4899 196.76 22.5499 188.75C22.5599 187.14 20.0599 187.14 20.0499 188.75Z" fill="#20BEFF"/>
<path d="M23.2399 194.121C23.4399 203.631 23.1499 213.101 22.3699 222.581C22.2399 224.181 24.7399 224.171 24.8699 222.581C25.6499 213.101 25.9399 203.631 25.7399 194.121C25.7099 192.511 23.2099 192.511 23.2399 194.121Z" fill="#20BEFF"/>
<path d="M26.9899 201.231L26.1599 228.091C26.1099 229.701 28.6099 229.701 28.6599 228.091L29.4899 201.231C29.5399 199.621 27.0399 199.621 26.9899 201.231Z" fill="#20BEFF"/>
<path d="M30.4199 208.211C31.1499 216.251 31.1999 224.261 30.5799 232.311C30.4599 233.911 32.9599 233.911 33.0799 232.311C33.6999 224.261 33.6499 216.251 32.9199 208.211C32.7799 206.621 30.2699 206.611 30.4199 208.211Z" fill="#20BEFF"/>
<path d="M34.1599 219.381C34.4699 223.451 34.48 227.511 34.21 231.581C34.1 233.191 36.6 233.181 36.71 231.581C36.98 227.511 36.9699 223.451 36.6599 219.381C36.5399 217.791 34.0399 217.771 34.1599 219.381Z" fill="#20BEFF"/>
<path d="M37.7799 227.411C38.0099 228.551 38.1299 229.691 38.1499 230.861C38.1799 232.471 40.6799 232.471 40.6499 230.861C40.6199 229.481 40.4599 228.111 40.1899 226.751C39.8699 225.171 37.4599 225.841 37.7799 227.411Z" fill="#20BEFF"/>
</svg>
