<svg width="92" height="79" viewBox="0 0 92 79" fill="none" xmlns="http://www.w3.org/2000/svg">
<g clip-path="url(#clip0_833_20583)">
<rect x="37.9998" y="45" width="28" height="25" fill="white"/>
<path d="M33.7493 46.099C35.2793 54.089 35.9292 62.099 35.7792 70.229C35.7192 73.449 40.7192 73.449 40.7792 70.229C40.9392 61.649 40.1892 53.199 38.5792 44.769C37.9792 41.609 33.1593 42.949 33.7593 46.099H33.7493Z" fill="#3A3A3A"/>
<path d="M41.0893 51.7441C41.0893 56.5308 41.0893 61.3175 41.0893 66.1042C41.0893 66.2715 40.9791 69.3236 41.0893 68.9074C41.283 68.1757 41.3539 65.7379 41.416 64.9937C41.4555 64.5189 41.8202 61.1283 42.6394 62.7666C43.602 64.692 44.1894 67.054 44.1894 69.2162C44.1894 69.9307 44.0808 70.8791 43.2273 70.8791C42.7497 70.8791 42.1583 68.9859 42.1583 68.5273C42.1583 68.2536 42.2783 68.5011 42.3483 68.6342C42.5028 68.9277 42.7646 69.0777 43.0194 69.2815C43.8354 69.9343 44.5968 70.7074 45.4484 71.3067C45.8633 71.5986 46.0945 72.028 46.5471 72.3222C47.2542 72.7818 48.0965 73.1317 48.9167 73.314C50.2756 73.616 51.4644 73.3819 52.7413 73.017C52.9753 72.9502 53.5927 72.6926 53.2758 72.3757C52.9868 72.0866 52.5361 71.9268 52.1712 71.7699C50.8041 71.1822 49.4862 70.4835 48.1922 69.7507C46.0517 68.5386 43.524 66.9491 42.3483 64.6789C42.0108 64.0271 41.5053 62.6139 42.6394 62.4459C43.9542 62.2511 44.8372 63.0307 45.5791 64.0375C46.7168 65.5816 47.5774 67.2854 48.5841 68.9074C49.1465 69.8134 49.8782 70.6639 50.3064 71.6274C50.4487 71.9475 50.7094 72.0319 51.0369 71.8887C51.3961 71.7315 52.2267 71.6669 52.5038 71.3898C52.9895 70.9041 51.7152 70.0428 51.5179 69.8695C50.6313 69.0903 49.6226 68.2342 48.3822 68.2066C47.9481 68.1969 47.7171 68.1029 47.7171 68.5807C47.7171 69.1222 48.09 69.4324 48.2516 69.917" stroke="white" stroke-width="3" stroke-linecap="round"/>
<path d="M47.6102 55.4856C47.4615 55.2813 47.3541 54.8713 47.0638 55.0165C46.4779 55.3094 46.0157 55.7545 45.5553 56.2102C45.2762 56.4865 43.1777 58.4662 44.7714 57.7662C46.1868 57.1444 47.4756 55.9915 48.6494 55.0165C49.4039 54.3898 50.3814 53.7393 51.0072 52.9676C51.0422 52.9243 51.3615 52.5044 51.1735 52.5044C50.2214 52.5044 49.1036 53.8698 48.5247 54.4226C47.7626 55.1504 46.914 55.8994 46.3511 56.8041C46.202 57.0438 46.2072 57.2299 46.5768 57.1545C49.6902 56.5191 52.3126 54.1159 54.8555 52.3499C55.4023 51.9702 55.3206 51.9567 54.7843 52.4568C53.269 53.8697 51.7515 55.277 50.3004 56.7566C49.2143 57.864 48.1505 59.0159 47.2063 60.2486C46.859 60.7021 47.6407 60.396 47.8121 60.308C49.3143 59.5362 50.6272 58.3199 51.9099 57.2435C53.6985 55.7426 55.5539 54.3283 57.3974 52.8963C57.4758 52.8353 57.6967 52.6379 57.6111 52.6885C57.0941 52.994 56.6164 53.3944 56.1561 53.7753C53.8886 55.6518 51.7982 57.6942 49.9501 59.9873C49.5548 60.4777 48.3808 61.7024 48.4832 62.4697C48.5532 62.9949 50.9879 61.2419 51.0784 61.175C53.9077 59.0875 56.6325 56.6578 59.179 54.2326C61.1637 52.3424 54.9507 57.7649 53.1867 59.8626C52.5003 60.6788 51.762 61.5405 51.2685 62.4935C50.9802 63.0501 51.4128 62.7366 51.7198 62.5053C53.5854 61.0997 55.3505 59.5629 57.3142 58.2888C57.7395 58.0128 58.181 57.7699 58.6326 57.5405C58.8294 57.4405 59.328 57.0716 59.2384 57.2732C58.8864 58.0653 57.87 58.8438 57.3142 59.4884C55.9798 61.0361 54.6668 62.5975 53.4658 64.2514C53.2458 64.5545 52.1965 65.8835 53.2639 65.1719C55.0967 63.95 56.6978 62.3697 58.3951 60.9731C59.019 60.4597 59.6455 59.9451 60.2955 59.4647C60.4309 59.3646 60.8542 59.1608 60.7765 59.3103C60.6275 59.5968 60.366 59.8352 60.153 60.0704C59.4271 60.8721 58.734 61.7009 58.0387 62.5291C56.6043 64.2377 55.0333 65.8975 53.7806 67.7493C53.7367 67.8143 53.6686 68.0155 53.739 67.981C54.3557 67.6785 54.916 67.1384 55.4257 66.6982C56.9659 65.3677 58.391 63.8633 60.0461 62.6716C60.1702 62.5823 61.7709 61.3767 61.8574 61.7749C62.039 62.6101 60.9034 64.0599 60.4974 64.679C59.4806 66.2295 58.4116 67.7443 57.4092 69.3053C57.1003 69.7864 56.7974 70.2711 56.4828 70.7485C56.4823 70.7492 55.9292 71.5632 55.9958 71.5799C56.5616 71.7213 57.9158 70.0372 58.211 69.7388C59.7472 68.186 61.2973 66.6147 63.2174 65.5342C64.1751 64.9952 65.2878 64.5626 64.7318 66.0865C64.0838 67.8625 62.5389 69.4528 61.317 70.8554C60.756 71.4993 60.0166 72.0834 59.5235 72.7795C58.9136 73.6406 60.7994 71.0986 61.4417 70.2615C62.4495 68.9479 63.5505 67.7393 64.6665 66.52C64.7768 66.3995 65.8071 65.3951 65.6405 65.1659C65.2025 64.5637 63.4859 65.5568 63.1461 65.748C61.5953 66.6203 60.3044 67.6889 58.9593 68.8302C58.344 69.3523 57.7956 69.9717 57.1479 70.4515C56.7776 70.7258 57.843 69.8445 58.1635 69.5132C59.4571 68.1757 60.8532 66.8174 61.8574 65.2432C62.8966 63.6142 60.3753 64.5709 59.761 65.0828C58.1559 66.4204 56.433 68.9328 56.9341 71.1879C57.0887 71.8834 57.8807 71.8731 58.407 71.6749C59.5955 71.2274 60.683 70.4096 61.2101 69.2281C61.5514 68.4631 61.6399 67.5008 61.1744 66.7694C60.3668 65.5002 58.9208 65.4967 57.6824 66.1993C56.4981 66.8713 55.692 68.0206 55.1168 69.2222C54.5714 70.3617 54.1412 71.6238 54.9862 72.7439C55.6624 73.6403 56.9814 73.5136 57.9378 73.3081C59.718 72.9256 61.3377 72.0491 62.8254 71.0216C63.4406 70.5968 64.5674 69.8319 64.4586 68.9252C64.3043 67.6391 63.1898 67.3632 62.0772 67.4227C60.3489 67.5151 58.2085 69.7964 58.7989 71.6215C59.0764 72.4793 60.7395 72.4073 61.4239 72.3044C62.8541 72.0895 64.3005 71.1813 65.3376 70.208C65.7523 69.8188 66.4215 68.9791 65.9968 68.3967C65.5104 67.7297 64.5417 67.619 63.7757 67.7612C63.3069 67.8483 62.4233 68.2073 62.2791 68.7411C62.2077 69.0052 62.188 69.4591 62.4751 69.5904C63.4914 70.055 65.555 69.6526 65.7592 68.3135C65.9127 67.3076 65.0235 65.748 63.8826 65.748C62.9784 65.748 63.4247 67.1401 64.0726 67.3277C65.311 67.6862 64.8902 64.7727 64.7971 64.2751C64.649 63.4831 64.4101 62.6989 64.233 61.9115C64.2177 61.8435 63.8904 61.0064 63.8647 61.1216C63.7227 61.7609 64.1001 62.6417 64.1557 63.2893C64.2122 63.9461 64.2276 64.61 64.3398 65.261C64.3849 65.5222 64.3479 65.8151 64.4171 66.0687C64.579 66.6623 64.9142 65.1501 64.9278 65.0828C65.2297 63.59 65.2659 62.0518 65.2485 60.5337C65.2386 59.6763 65.2385 58.6645 64.9753 57.8374C64.7436 57.1093 64.7141 57.6382 64.7378 58.1581C64.8013 59.5573 64.9978 60.9312 65.2722 62.3034C65.7039 64.4616 65.8999 66.6673 66.9351 68.6342C67.0149 68.7858 67.0658 68.8648 67.0658 68.6283C67.0658 68.1516 67.1153 67.6843 67.1489 67.2089C67.2725 65.4629 66.9613 63.598 66.5847 61.8936C66.3388 60.7807 66.2476 59.7969 65.8364 58.7461C65.5627 58.0464 65.1716 57.4143 65.0347 56.6615C64.783 55.2771 64.3933 53.9385 64.3933 52.5162C64.3933 51.9442 64.6052 51.5175 64.6902 50.9603C64.714 50.8047 64.7125 50.2125 64.714 50.2476C64.7832 51.8389 65.1238 53.493 65.4623 55.0462C65.5327 55.3694 65.5933 55.7116 65.7295 56.0142C65.8273 56.2314 65.8587 56.8776 65.9908 56.6794C66.2256 56.3271 65.9968 55.0373 65.9968 54.6305C65.9968 53.506 66.051 52.3919 66.0977 51.2691C66.1085 51.012 66.1767 49.6369 66.2165 50.6336C66.2842 52.3244 66.3723 54.0037 66.5253 55.6876C66.5853 56.3475 66.8249 56.9024 66.3175 57.4098" stroke="white" stroke-width="3" stroke-linecap="round"/>
<path d="M65.2093 44.8689C65.9293 53.1189 66.6493 61.3689 67.3593 69.6189C67.6393 72.7989 72.6393 72.8289 72.3593 69.6189C71.6393 61.3689 70.9193 53.1189 70.2093 44.8689C69.9293 41.6889 64.9293 41.6589 65.2093 44.8689Z" fill="#3A3A3A"/>
<path d="M36.5093 73.0605C46.2893 80.9405 64.1493 81.1606 72.4493 70.8506C74.4493 68.3706 70.9292 64.8105 68.9092 67.3105C62.4592 75.3105 47.8492 75.8106 40.0392 69.5206C37.5592 67.5206 33.9993 71.0405 36.4993 73.0605H36.5093Z" fill="#3A3A3A"/>
<path d="M35.8192 48.1C44.5992 55.47 60.9492 53.06 68.9692 45.42C71.3092 43.2 67.7692 39.67 65.4292 41.88C59.6192 47.41 45.7792 49.95 39.3492 44.56C36.8992 42.5 33.3492 46.02 35.8092 48.1H35.8192Z" fill="#3A3A3A"/>
<path d="M39.2593 46.8994C47.2393 41.7994 56.5093 40.9193 65.3293 44.3093C68.3393 45.4593 69.6392 40.6293 66.6592 39.4893C56.6892 35.6593 45.7193 36.8393 36.7293 42.5793C34.0293 44.3093 36.5293 48.6394 39.2493 46.8994H39.2593Z" fill="#3A3A3A"/>
<path d="M42.6592 45.5605L44.0292 45.7905C45.3292 46.0105 46.7593 45.4605 47.1093 44.0405C48.1193 39.9305 48.4092 34.4505 43.5292 32.7005C40.2692 31.5305 37.2792 33.5805 36.1692 36.6805C34.9892 39.9805 36.7993 44.5605 40.8893 44.0005C44.3893 43.5305 45.6493 39.2705 45.4593 36.2505C45.2493 32.8805 43.1793 29.3105 39.7493 28.3505C36.7893 27.5205 33.1492 29.0705 33.4092 32.5705C33.6592 35.8605 37.2793 36.8505 39.6093 34.9705C42.8993 32.3205 44.1793 27.1005 41.6293 23.6905C40.2293 21.8205 36.9593 22.2705 36.9693 24.9505C36.9693 28.2805 39.0693 31.0205 42.5093 31.4705C45.9493 31.9205 48.5693 29.6105 50.3493 26.9605C51.8493 24.7305 48.9993 22.5205 46.9293 23.5405C41.0893 26.4305 39.7092 37.8605 46.9192 40.0405C52.8092 41.8305 56.7793 32.9606 50.6493 30.9006C43.7393 28.5706 40.6992 39.7705 45.5392 43.4405C50.7892 47.4105 58.8393 40.1705 57.4293 34.5505C57.2393 33.7805 56.4993 32.9405 55.6793 32.8005C49.7493 31.7905 45.9593 40.8105 51.3493 44.1205C56.7393 47.4305 63.6892 39.8606 60.7792 34.7806C60.3692 34.0606 59.4793 33.4805 58.6193 33.5405C50.2493 34.1105 54.2592 50.9305 62.7792 44.5805C65.9892 42.1905 70.4793 36.2506 69.2193 31.9006C68.1893 28.3206 63.5793 27.5305 61.6793 30.7905C60.0793 33.5505 61.8093 38.4905 65.1393 38.8905C69.6193 39.4305 72.0793 32.7906 72.2293 29.2806C72.3993 25.1206 69.9093 20.9805 65.6993 19.9505C62.3593 19.1405 57.3593 21.0205 58.0193 25.2105C58.5693 28.6905 62.7193 28.7605 64.9593 26.8605C68.0293 24.2705 68.2893 19.0905 65.8493 16.0405C59.3593 7.93045 48.0293 20.3806 55.3693 23.5206C58.3193 24.7806 61.5393 22.6805 61.7393 19.4905C62.0693 14.2405 56.0193 12.5705 51.8993 13.0405C47.9993 13.4905 43.4393 15.9005 42.0993 19.8505C40.7593 23.8005 43.6793 27.0205 47.7293 26.1705C51.3493 25.4105 55.6393 21.3305 53.5193 17.3905C51.1793 13.0405 44.3593 13.9805 41.3493 16.8905C38.1093 20.0305 37.4993 26.3905 41.4593 29.2405C46.1293 32.6005 54.2193 29.8305 58.8293 27.8205C61.7693 26.5405 59.2293 22.2305 56.3093 23.5005C53.7693 24.6005 50.6693 25.6505 47.8493 25.5405C46.2993 25.8305 44.9492 25.3705 43.7992 24.1705C43.7992 20.3405 45.4293 18.9905 48.6793 20.1105C47.0693 20.5205 47.2793 20.1605 49.3093 19.0105C50.5393 18.3305 51.8593 17.9705 53.2593 17.9205C55.5493 18.1705 57.8493 18.3205 60.1493 18.3805C62.7693 19.6705 63.1993 21.2305 61.4293 23.0505L63.1793 24.8005L64.3493 24.7706C66.1093 25.1906 66.8792 26.2805 66.6692 28.0505C66.8892 29.2205 67.0493 32.4706 66.1493 33.5306L64.1093 34.3705L63.0292 36.6905C62.4892 37.7005 61.8093 38.5905 61.0093 39.3805C60.0793 40.6805 59.6893 40.0005 59.8193 37.3405L57.6592 38.5805L58.6193 38.5105L56.4593 37.2706C56.3793 38.4406 55.6693 38.5505 54.3593 37.5905L52.6093 35.8405L51.9893 37.0805C50.7793 39.7305 49.7493 39.2505 48.8893 35.6405C47.4393 33.2105 45.5393 29.7605 49.4493 27.8305L46.0292 24.4104C44.6992 26.9604 43.3393 27.1305 41.9693 24.9205L37.3093 26.1805C38.0393 28.4705 37.5293 30.2005 35.7693 31.3805H38.2892C38.7792 31.6005 40.2693 36.1106 40.4993 36.7806L40.2792 38.3405C42.4492 39.4505 43.1192 40.9005 42.2892 42.6705L45.3693 40.9205L43.9993 40.6905C40.8493 40.1605 39.4992 44.9805 42.6692 45.5105L42.6592 45.5605Z" fill="#3A3A3A"/>
<path d="M39.5592 53.5909C38.8992 49.5409 34.0193 49.2509 30.7693 49.5009C27.1493 49.7809 23.9092 51.6708 23.1692 55.4308C21.6292 63.3108 30.9393 67.4208 36.8793 63.1608C39.4693 61.3008 36.9793 56.9609 34.3593 58.8409C32.2493 60.3609 28.0493 60.5608 28.0193 57.0408C28.0093 55.6308 28.8393 54.8609 30.1993 54.5809C31.0293 54.4109 34.6093 54.1008 34.7493 54.9208C35.2693 58.0908 40.0893 56.7409 39.5693 53.5909H39.5592Z" fill="#3A3A3A"/>
<path d="M71.1792 44.8496C69.7192 44.8496 68.6393 45.2896 67.6093 46.3396C65.6793 48.2996 68.2393 51.9297 70.6393 50.2697C73.0393 48.6097 78.1292 46.1396 78.5492 50.8596C78.8792 54.5396 74.8392 56.3596 71.7892 56.6896C68.7392 57.0196 68.5892 62.0396 71.7892 61.6896C78.0592 60.9996 84.7293 56.7496 83.3893 49.5396C82.8593 46.7096 80.9592 44.2697 78.1692 43.3897C74.6392 42.2897 70.9693 43.9696 68.1193 45.9596L71.1493 49.8897L71.1792 49.8697C74.3992 49.8697 74.3992 44.8597 71.1792 44.8697V44.8496Z" fill="#3A3A3A"/>
<path d="M47.2594 42.8998C42.9994 42.3098 40.6193 47.8197 45.0493 49.5997C48.6193 51.0297 53.4793 46.3997 51.8393 42.7997C49.9593 38.6597 44.3394 42.0797 46.2694 46.0697C48.7194 51.1297 54.4393 47.7098 55.5593 43.7698C56.2293 41.4098 53.0994 39.4897 51.3794 41.3397C46.8894 46.1597 54.8594 51.0997 58.3794 46.0497C60.0394 43.6597 60.3294 39.7097 59.2594 37.0497C58.3594 34.8197 55.6693 32.5898 53.1993 34.1498C51.1293 35.4598 51.1893 38.4297 52.9193 39.9897C55.2593 42.0797 58.3094 40.4797 59.8894 38.3297C65.1294 31.2397 57.5593 26.2697 50.7893 27.6797L52.1194 32.4998C54.7194 31.9098 57.0794 30.9697 59.3994 29.6697C62.2094 28.0897 59.6894 23.7697 56.8794 25.3497C54.9194 26.4497 52.9793 27.1797 50.7893 27.6697C47.6393 28.3897 48.9794 33.1397 52.1194 32.4897C53.4994 32.0797 54.8493 32.1997 56.1593 32.8297C56.5193 34.3797 56.3193 35.8797 55.5893 37.3297C55.0293 38.5397 54.7693 39.7897 54.8193 41.0897C54.4593 42.3397 54.4893 43.6098 54.9093 44.8798L50.7294 42.4497L50.7793 44.7397L48.6194 45.9797H49.2594C48.5394 45.5797 47.8193 45.1598 47.0993 44.7498C46.8993 43.1898 47.0693 43.9397 47.5993 46.9897L45.1693 47.6298L45.9093 47.7297C49.0593 48.1697 50.4194 43.3497 47.2394 42.9097L47.2594 42.8998Z" fill="#3A3A3A"/>
<path d="M62.2193 37.5591C68.2593 39.2991 73.3992 35.3991 74.0492 29.3191C74.3392 26.5491 69.5493 25.8691 69.1393 28.6591C68.6993 31.6291 70.5892 34.5091 73.9192 34.2991C77.2492 34.0891 79.9693 30.2792 81.1393 27.3692C82.3093 24.4592 82.1392 20.6492 79.4592 18.5092C77.3392 16.8092 73.9092 17.0491 72.6892 19.6691C71.7592 21.6591 73.8893 24.7492 76.1093 23.0892C77.5693 21.9992 78.6893 20.8592 79.6193 19.2692C81.2393 16.4792 76.9192 13.9592 75.2992 16.7492C74.9092 17.5792 74.3393 18.2592 73.5893 18.7792L77.0093 22.1991C76.4893 23.3091 76.9393 24.4492 76.3993 25.7292C75.7893 27.1892 74.2093 28.4092 73.9693 29.9992L69.0592 29.3392C68.7492 32.2592 66.1592 33.5092 63.5592 32.7592C60.4592 31.8692 59.1393 36.6891 62.2293 37.5791L62.2193 37.5591Z" fill="#3A3A3A"/>
<path d="M64.8838 24.5919C71.3879 26.2977 76.9228 22.4743 77.6228 16.5135C77.9351 13.7979 72.7771 13.1312 72.3356 15.8665C71.8618 18.7782 73.8969 21.6017 77.4828 21.3958C81.0686 21.1899 83.9977 17.4548 85.2576 14.6018C86.5175 11.7489 86.3344 8.01371 83.4485 5.91569C81.1656 4.24905 77.472 4.48425 76.1583 7.05285C75.1568 9.0038 77.4505 12.0332 79.8411 10.4058C81.4133 9.33718 82.6194 8.2196 83.6208 6.66079C85.3653 3.92553 80.7133 1.45495 78.9688 4.19021C78.5489 5.00393 77.9351 5.67062 77.1275 6.18041L80.8103 9.53324C80.2503 10.6215 80.7349 11.7391 80.1534 12.994C79.4966 14.4254 77.7951 15.6214 77.5367 17.1803L72.2494 16.5332C71.9155 19.3959 69.1265 20.6214 66.3268 19.8861C62.9886 19.0136 61.5672 23.739 64.8946 24.6115L64.8838 24.5919Z" fill="#3A3A3A"/>
<path d="M59.8838 45.5919C66.3879 47.2977 71.9228 43.4743 72.6228 37.5135C72.9351 34.7979 67.7771 34.1312 67.3356 36.8665C66.8618 39.7782 68.8969 42.6017 72.4828 42.3958C76.0686 42.1899 78.9977 38.4548 80.2576 35.6018C81.5175 32.7489 81.3344 29.0137 78.4485 26.9157C76.1656 25.249 72.472 25.4843 71.1583 28.0528C70.1568 30.0038 72.4505 33.0332 74.8411 31.4058C76.4133 30.3372 77.6194 29.2196 78.6208 27.6608C80.3653 24.9255 75.7133 22.455 73.9688 25.1902C73.5489 26.0039 72.9351 26.6706 72.1275 27.1804L75.8103 30.5332C75.2503 31.6215 75.7349 32.7391 75.1534 33.994C74.4966 35.4254 72.7951 36.6214 72.5367 38.1803L67.2494 37.5332C66.9155 40.3959 64.1265 41.6214 61.3268 40.8861C57.9886 40.0136 56.5672 44.739 59.8946 45.6115L59.8838 45.5919Z" fill="#3A3A3A"/>
<path d="M40.0592 34.3806C38.2392 37.0006 35.0692 34.4206 34.0292 32.6106C33.3092 31.3606 31.1192 24.2206 35.3092 25.6206L33.8192 21.9505C33.1692 22.9205 31.3193 22.7006 30.6093 22.0006C29.5993 21.7006 29.4992 21.2006 30.3092 20.4906C30.6092 19.6006 31.2393 19.0306 32.1993 18.7806C35.3493 19.3606 36.6892 14.5506 33.5292 13.9606C28.3692 13.0006 23.0693 19.0606 25.0793 24.1506C27.0893 29.2406 35.5193 28.3906 38.1393 24.4706C39.0793 23.0606 38.0893 21.2805 36.6493 20.8005C28.2593 17.9905 26.6593 28.6006 29.2093 34.1206C32.0193 40.1906 40.0293 43.1905 44.3793 36.9105C46.2193 34.2605 41.8892 31.7606 40.0592 34.3906V34.3806Z" fill="#3A3A3A"/>
<path d="M45.416 27.5212C43.596 30.1412 40.426 27.5612 39.386 25.7512C38.666 24.5012 36.476 17.3612 40.666 18.7612L39.1761 15.0912C38.5261 16.0612 36.6761 15.8412 35.9661 15.1412C34.9561 14.8412 34.856 14.3412 35.666 13.6312C35.966 12.7412 36.5961 12.1712 37.5561 11.9212C40.7061 12.5012 42.046 7.69118 38.886 7.10118C33.726 6.14118 28.4261 12.2012 30.4361 17.2912C32.4461 22.3812 40.8761 21.5312 43.4961 17.6112C44.4361 16.2012 43.4461 14.4211 42.0061 13.9411C33.6161 11.1311 32.0161 21.7412 34.5661 27.2612C37.3761 33.3312 45.3861 36.3311 49.7361 30.0511C51.5761 27.4011 47.246 24.9012 45.416 27.5312V27.5212Z" fill="#3A3A3A"/>
<path d="M35.416 39.5212C33.596 42.1412 30.426 39.5612 29.386 37.7512C28.666 36.5012 26.476 29.3612 30.666 30.7612L29.1761 27.0912C28.5261 28.0612 26.6761 27.8412 25.9661 27.1412C24.9561 26.8412 24.856 26.3412 25.666 25.6312C25.966 24.7412 26.5961 24.1712 27.5561 23.9212C30.7061 24.5012 32.046 19.6912 28.886 19.1012C23.726 18.1412 18.4261 24.2012 20.4361 29.2912C22.4461 34.3812 30.8761 33.5312 33.4961 29.6112C34.4361 28.2012 33.4461 26.4211 32.0061 25.9411C23.6161 23.1311 22.0161 33.7412 24.5661 39.2612C27.3761 45.3312 35.3861 48.3311 39.7361 42.0511C41.5761 39.4011 37.246 36.9012 35.416 39.5312V39.5212Z" fill="#3A3A3A"/>
<path d="M53.416 21.5212C51.596 24.1412 48.426 21.5612 47.386 19.7512C46.666 18.5012 44.476 11.3612 48.666 12.7612L47.1761 9.09117C46.5261 10.0612 44.6761 9.84122 43.9661 9.14122C42.9561 8.84122 42.856 8.34121 43.666 7.63121C43.966 6.74121 44.5961 6.17125 45.5561 5.92125C48.7061 6.50125 50.046 1.69118 46.886 1.10118C41.726 0.141177 36.4261 6.20124 38.4361 11.2912C40.4461 16.3812 48.8761 15.5312 51.4961 11.6112C52.4361 10.2012 51.4461 8.42114 50.0061 7.94114C41.6161 5.13114 40.0161 15.7412 42.5661 21.2612C45.3761 27.3312 53.3861 30.3311 57.7361 24.0511C59.5761 21.4011 55.246 18.9012 53.416 21.5312V21.5212Z" fill="#3A3A3A"/>
<path d="M64.416 21.5212C62.596 24.1412 59.426 21.5612 58.386 19.7512C57.666 18.5012 55.476 11.3612 59.666 12.7612L58.1761 9.09117C57.5261 10.0612 55.6761 9.84122 54.9661 9.14122C53.9561 8.84122 53.856 8.34121 54.666 7.63121C54.966 6.74121 55.5961 6.17125 56.5561 5.92125C59.7061 6.50125 61.046 1.69118 57.886 1.10118C52.726 0.141177 47.4261 6.20124 49.4361 11.2912C51.4461 16.3812 59.8761 15.5312 62.4961 11.6112C63.4361 10.2012 62.4461 8.42114 61.0061 7.94114C52.6161 5.13114 51.0161 15.7412 53.5661 21.2612C56.3761 27.3312 64.3861 30.3311 68.7361 24.0511C70.5761 21.4011 66.246 18.9012 64.416 21.5312V21.5212Z" fill="#3A3A3A"/>
<path d="M75.416 20.5212C73.596 23.1412 70.426 20.5612 69.386 18.7512C68.666 17.5012 66.476 10.3612 70.666 11.7612L69.1761 8.09117C68.5261 9.06117 66.6761 8.84122 65.9661 8.14122C64.9561 7.84122 64.856 7.34121 65.666 6.63121C65.966 5.74121 66.5961 5.17125 67.5561 4.92125C70.7061 5.50125 72.046 0.691177 68.886 0.101177C63.726 -0.858823 58.4261 5.20124 60.4361 10.2912C62.4461 15.3812 70.8761 14.5312 73.4961 10.6112C74.4361 9.20119 73.4461 7.42114 72.0061 6.94114C63.6161 4.13114 62.0161 14.7412 64.5661 20.2612C67.3761 26.3312 75.3861 29.3311 79.7361 23.0511C81.5761 20.4011 77.246 17.9012 75.416 20.5312V20.5212Z" fill="#3A3A3A"/>
<path d="M62.766 23.5212C64.586 26.1412 67.756 23.5612 68.796 21.7512C69.516 20.5012 71.706 13.3612 67.516 14.7612L69.0059 11.0912C69.6559 12.0612 71.5059 11.8412 72.2159 11.1412C73.2259 10.8412 73.326 10.3412 72.516 9.63121C72.216 8.74121 71.5859 8.17125 70.6259 7.92125C67.4759 8.50125 66.136 3.69118 69.296 3.10118C74.456 2.14118 79.7559 8.20124 77.7459 13.2912C75.7359 18.3812 67.3059 17.5312 64.6859 13.6112C63.7459 12.2012 64.7359 10.4211 66.1759 9.94114C74.5659 7.13114 76.1659 17.7412 73.6159 23.2612C70.8059 29.3312 62.7959 32.3311 58.4459 26.0511C56.6059 23.4011 60.936 20.9012 62.766 23.5312V23.5212Z" fill="#3A3A3A"/>
<path d="M43.8793 19.9006C42.9193 19.0006 42.1293 17.5806 43.5793 16.7506C44.1793 16.4106 44.9892 16.2705 45.6592 16.1805C46.0092 16.1305 46.3693 16.1105 46.7293 16.0905C47.6393 16.0405 47.8693 16.3705 47.8393 15.4405C47.9293 18.6505 52.9293 18.6605 52.8393 15.4405C52.6793 9.82051 44.9193 10.4906 41.3393 12.2806C36.7793 14.5606 36.9193 20.2005 40.3393 23.4305C42.6793 25.6405 46.2193 22.1106 43.8793 19.8906V19.9006Z" fill="#3A3A3A"/>
<path d="M25.0411 47.9006C24.0811 47.0006 23.291 45.5806 24.741 44.7506C25.341 44.4106 26.151 44.2705 26.821 44.1805C27.171 44.1305 27.531 44.1105 27.891 44.0905C28.801 44.0405 29.031 44.3705 29.001 43.4405C29.091 46.6505 34.091 46.6605 34.001 43.4405C33.841 37.8205 26.081 38.4906 22.501 40.2806C17.941 42.5606 18.081 48.2005 21.501 51.4305C23.841 53.6405 27.3811 50.1106 25.0411 47.8906V47.9006Z" fill="#3A3A3A"/>
<path d="M21.0411 41.9006C20.0811 41.0006 19.291 39.5806 20.741 38.7506C21.341 38.4106 22.151 38.2705 22.821 38.1805C23.171 38.1305 23.531 38.1105 23.891 38.0905C24.801 38.0405 25.031 38.3705 25.001 37.4405C25.091 40.6505 30.091 40.6605 30.001 37.4405C29.841 31.8205 22.081 32.4906 18.501 34.2806C13.941 36.5606 14.081 42.2005 17.501 45.4305C19.841 47.6405 23.3811 44.1106 21.0411 41.8906V41.9006Z" fill="#3A3A3A"/>
<path d="M14.4399 69.4458C14.5636 70.5309 14.301 71.8611 12.9391 71.631C12.3775 71.5336 11.7904 71.1969 11.3187 70.9017C11.0706 70.7494 10.8323 70.5725 10.5941 70.3956C9.99211 69.9482 10.0238 69.6146 9.54373 70.2289C11.2094 68.1158 8.05467 65.4742 6.38364 67.5938C3.46895 71.2947 8.733 74.9532 11.9562 75.6881C16.0617 76.6241 18.9997 72.921 18.5715 69.04C18.2785 66.3845 14.1469 66.7904 14.4345 69.4522L14.4399 69.4458Z" fill="#3A3A3A"/>
<path d="M19.0411 33.9006C18.0811 33.0006 17.291 31.5806 18.741 30.7506C19.341 30.4106 20.151 30.2705 20.821 30.1805C21.171 30.1305 21.531 30.1105 21.891 30.0905C22.801 30.0405 23.031 30.3705 23.001 29.4405C23.091 32.6505 28.091 32.6605 28.001 29.4405C27.841 23.8205 20.081 24.4906 16.501 26.2806C11.941 28.5606 12.081 34.2005 15.501 37.4305C17.841 39.6405 21.3811 36.1106 19.0411 33.8906V33.9006Z" fill="#3A3A3A"/>
<path d="M78.3163 38.6508C78.2104 37.3392 78.5798 35.7567 80.2113 36.1167C80.8841 36.2683 81.578 36.7089 82.1346 37.0926C82.4273 37.2908 82.7073 37.5181 82.9873 37.7452C83.6947 38.3198 83.6433 38.7187 84.2461 38.01C82.1552 40.4473 85.8507 43.8153 87.9483 41.3706C91.6072 37.1018 85.411 32.3823 81.5571 31.3015C76.6483 29.9248 72.9612 34.1949 73.3226 38.8852C73.5698 42.0943 78.5635 41.8599 78.323 38.6434L78.3163 38.6508Z" fill="#3A3A3A"/>
<path d="M81.3163 29.6508C81.2104 28.3392 81.5798 26.7567 83.2113 27.1167C83.8841 27.2683 84.578 27.7089 85.1346 28.0926C85.4273 28.2908 85.7073 28.5181 85.9873 28.7452C86.6947 29.3198 86.6433 29.7187 87.2461 29.01C85.1552 31.4473 88.8507 34.8153 90.9483 32.3706C94.6072 28.1018 88.411 23.3823 84.5571 22.3015C79.6483 20.9248 75.9612 25.1949 76.3226 29.8852C76.5698 33.0943 81.5635 32.8599 81.323 29.6434L81.3163 29.6508Z" fill="#3A3A3A"/>
<path d="M80.3163 24.6508C80.2104 23.3392 80.5798 21.7567 82.2113 22.1167C82.8841 22.2683 83.578 22.7089 84.1346 23.0926C84.4273 23.2908 84.7073 23.5181 84.9873 23.7452C85.6947 24.3198 85.6433 24.7187 86.2461 24.01C84.1552 26.4473 87.8507 29.8153 89.9483 27.3706C93.6072 23.1018 87.411 18.3823 83.5571 17.3015C78.6483 15.9248 74.9612 20.1949 75.3226 24.8852C75.5698 28.0943 80.5635 27.8599 80.323 24.6434L80.3163 24.6508Z" fill="#3A3A3A"/>
<path d="M50.9811 37.0655C51.6954 34.9442 53.4807 31.7657 49.9552 31.5699C48.1104 31.4674 46.0535 32.9293 45.1777 34.4862C44.8149 35.1311 44.2149 36.6579 45.2803 36.9776C47.1242 37.5307 51.7811 37.6562 53.3259 36.2302C56.2096 33.5682 52.7036 30.7361 50.0138 30.3242C45.4453 29.6245 39.0036 30.3322 35.8718 34.281C34.3328 36.2215 37.1419 37.8145 38.7002 38.3258C41.1267 39.122 45.0021 39.4926 45.5587 36.3914C46.0711 33.5369 44.9966 31.7901 42.2174 30.9983C39.4648 30.2141 34.1372 29.7769 32.1641 32.5957C31.6708 33.3003 31.6073 34.1394 31.9589 34.9259C33.099 37.476 36.7084 37.332 39.0519 37.0362C40.3927 36.867 41.1982 36.2162 40.9131 34.8379C40.6462 33.548 39.0046 32.9869 37.8942 32.7423C35.7433 32.2683 31.1393 31.9806 29.8779 34.3983C28.7431 36.5732 29.5587 38.941 32.0908 39.4836C33.5755 39.8017 38.2161 38.8733 35.8864 36.5965C32.9105 33.6882 25.6893 38.3298 29.6287 40.8904C30.314 41.3359 33.5399 42.2549 32.9261 40.3775C32.1484 37.9986 27.4244 38.0164 25.5693 38.912C24.6483 39.3566 23.4384 40.7738 24.2503 41.8723C25.1486 43.0876 29.4057 44.4393 30.9184 43.7775C32.4299 43.1162 30.6793 42.3413 29.8193 42.3413C28.1266 42.3413 26.4364 42.8523 25.8184 44.5689C24.9783 46.9027 29.1953 47.3352 30.6399 47.3533C31.092 47.359 34.1602 47.2654 33.5123 46.0344C32.4175 43.9543 26.6213 47.6215 30.8744 49.405C35.2463 51.2384 38.1366 44.5664 37.4692 41.081C37.072 39.007 34.3373 37.1279 32.3839 36.6991C31.1347 36.4249 28.5107 36.1147 27.5038 37.1827C25.8568 38.9295 30.5998 37.9014 31.1822 37.5931C33.4241 36.4062 35.1755 33.809 34.4649 31.2035C33.9736 29.402 30.9672 28.6324 29.4089 29.1518C28.2922 29.524 27.6765 31.1442 29.277 31.2475C31.7327 31.4059 33.5002 30.193 34.0985 27.8328C34.9077 24.6409 32.0831 23.2248 29.2184 22.982C26.9294 22.788 23.6162 23.6414 24.4555 26.7191C25.2366 29.583 30.279 29.7168 32.4865 29.1078C35.9169 28.1615 38.5161 24.8995 39.5209 21.5898C40.198 19.3594 40.0947 18.1562 37.645 17.7062C33.2051 16.8907 29.709 24.8374 34.5235 24.6234C38.0353 24.4673 40.5778 21.971 41.3088 18.6295C41.9237 15.8186 40.2065 14.854 37.6304 14.5261C35.5658 14.2633 32.1452 14.0021 30.6106 15.8157C29.2111 17.4697 29.9104 19.5582 32.0322 20.0071C34.5589 20.5416 37.8597 20.5183 38.3192 17.3985C38.8845 13.56 36.8903 10.5167 32.8089 10.3348C29.9933 10.2092 26.7417 10.9949 26.7417 14.277C26.7417 16.8202 28.0517 19.6154 30.552 20.5346C32.841 21.3762 33.1301 18.7917 32.9847 17.0468C32.7268 13.951 28.9886 12.914 26.4193 12.914C23.7595 12.914 21.8901 13.6254 20.6452 15.9769C19.7025 17.7577 18.8107 20.5622 21.2021 21.707C24.4521 23.2629 27.4717 20.711 27.24 17.2812C26.935 12.7678 20.1314 13.7577 17.4944 15.464C14.7322 17.2513 13.5454 23.2832 14.8418 26.1915C16.0079 28.8072 20.0651 30.7439 22.8728 30.163C24.6743 29.7902 24.8333 27.4356 24.5434 25.9863C24.0564 23.5509 19.9853 23.4914 18.447 24.8432C16.7023 26.3764 15.7455 29.6464 17.5384 31.4673C19.1864 33.1411 22.8888 34.0532 25.071 32.9621C25.5906 32.7023 25.8875 31.9542 26.0676 31.438C26.4563 30.3236 23.6683 31.1661 23.3124 31.2621C21.8224 31.6642 20.3012 32.5224 19.7659 34.0759C18.6494 37.3163 21.2282 40.0817 22.7555 42.6051" stroke="#3A3A3A" stroke-width="5" stroke-linecap="round"/>
<path d="M5.87294 69.7747C4.11763 69.8264 2.64755 71.2589 2.70746 73.1161C2.84744 77.4557 8.18548 76.9418 10.9143 75.6367C12.9467 74.6647 15.5475 72.3187 16.1021 70.0385C16.6839 67.6468 14.0249 67.4331 12.9953 69.2472C10.7561 73.1923 17.9925 75.7384 20.7038 73.9954C21.9243 73.2108 24.0581 72.9166 24.5434 71.2989C25.4223 68.3694 22.1807 67.2599 20.1176 66.873" stroke="#3A3A3A" stroke-width="5" stroke-linecap="round"/>
</g>
<defs>
<clipPath id="clip0_833_20583">
<rect width="92" height="79" fill="white"/>
</clipPath>
</defs>
</svg>
