<svg width="92" height="79" viewBox="0 0 92 79" fill="none" xmlns="http://www.w3.org/2000/svg">
<rect x="38" y="45" width="28" height="25" fill="white"/>
<path d="M33.7495 46.099C35.2795 54.089 35.9294 62.099 35.7794 70.229C35.7194 73.449 40.7194 73.449 40.7794 70.229C40.9394 61.649 40.1894 53.199 38.5794 44.769C37.9794 41.609 33.1595 42.949 33.7595 46.099H33.7495Z" fill="#3A3A3A"/>
<path d="M41.0895 51.7441C41.0895 56.5308 41.0895 61.3175 41.0895 66.1042C41.0895 66.2715 40.9793 69.3236 41.0895 68.9074C41.2831 68.1757 41.3541 65.7379 41.4161 64.9937C41.4557 64.5189 41.8204 61.1283 42.6395 62.7666C43.6022 64.692 44.1896 67.054 44.1896 69.2162C44.1896 69.9307 44.081 70.8791 43.2275 70.8791C42.7499 70.8791 42.1585 68.9859 42.1585 68.5273C42.1585 68.2536 42.2785 68.5011 42.3485 68.6342C42.503 68.9277 42.7648 69.0777 43.0196 69.2815C43.8355 69.9343 44.597 70.7074 45.4486 71.3067C45.8635 71.5986 46.0947 72.028 46.5473 72.3222C47.2544 72.7818 48.0967 73.1317 48.9169 73.314C50.2758 73.616 51.4646 73.3819 52.7415 73.017C52.9755 72.9502 53.5929 72.6926 53.276 72.3757C52.9869 72.0866 52.5363 71.9268 52.1714 71.7699C50.8043 71.1822 49.4864 70.4835 48.1923 69.7507C46.0519 68.5386 43.5241 66.9491 42.3485 64.6789C42.011 64.0271 41.5055 62.6139 42.6395 62.4459C43.9543 62.2511 44.8374 63.0307 45.5793 64.0375C46.717 65.5816 47.5776 67.2854 48.5843 68.9074C49.1466 69.8134 49.8784 70.6639 50.3066 71.6274C50.4489 71.9475 50.7096 72.0319 51.037 71.8887C51.3963 71.7315 52.2269 71.6669 52.5039 71.3898C52.9896 70.9041 51.7153 70.0428 51.5181 69.8695C50.6315 69.0903 49.6228 68.2342 48.3824 68.2066C47.9483 68.1969 47.7172 68.1029 47.7172 68.5807C47.7172 69.1222 48.0902 69.4324 48.2517 69.917" stroke="white" stroke-width="3" stroke-linecap="round"/>
<path d="M47.6103 55.4856C47.4617 55.2813 47.3543 54.8713 47.064 55.0165C46.4781 55.3094 46.0159 55.7545 45.5555 56.2102C45.2764 56.4865 43.1779 58.4662 44.7716 57.7662C46.187 57.1444 47.4758 55.9915 48.6496 55.0165C49.4041 54.3898 50.3816 53.7393 51.0073 52.9676C51.0424 52.9243 51.3617 52.5044 51.1736 52.5044C50.2216 52.5044 49.1038 53.8698 48.5249 54.4226C47.7628 55.1504 46.9142 55.8994 46.3513 56.8041C46.2022 57.0438 46.2073 57.2299 46.577 57.1545C49.6904 56.5191 52.3128 54.1159 54.8557 52.3499C55.4025 51.9702 55.3208 51.9567 54.7844 52.4568C53.2692 53.8697 51.7517 55.277 50.3006 56.7566C49.2144 57.864 48.1507 59.0159 47.2065 60.2486C46.8591 60.7021 47.6409 60.396 47.8123 60.308C49.3145 59.5362 50.6274 58.3199 51.9101 57.2435C53.6987 55.7426 55.5541 54.3283 57.3975 52.8963C57.476 52.8353 57.6969 52.6379 57.6113 52.6885C57.0943 52.994 56.6165 53.3944 56.1563 53.7753C53.8888 55.6518 51.7984 57.6942 49.9502 59.9873C49.555 60.4777 48.381 61.7024 48.4833 62.4697C48.5534 62.9949 50.9881 61.2419 51.0786 61.175C53.9079 59.0875 56.6327 56.6578 59.1792 54.2326C61.1639 52.3424 54.9508 57.7649 53.1869 59.8626C52.5005 60.6788 51.7622 61.5405 51.2687 62.4935C50.9804 63.0501 51.413 62.7366 51.72 62.5053C53.5856 61.0997 55.3507 59.5629 57.3144 58.2888C57.7397 58.0128 58.1812 57.7699 58.6328 57.5405C58.8296 57.4405 59.3282 57.0716 59.2386 57.2732C58.8865 58.0653 57.8702 58.8438 57.3144 59.4884C55.9799 61.0361 54.6669 62.5975 53.466 64.2514C53.2459 64.5545 52.1967 65.8835 53.2641 65.1719C55.0969 63.95 56.698 62.3697 58.3953 60.9731C59.0192 60.4597 59.6457 59.9451 60.2957 59.4647C60.4311 59.3646 60.8544 59.1608 60.7767 59.3103C60.6277 59.5968 60.3662 59.8352 60.1532 60.0704C59.4272 60.8721 58.7342 61.7009 58.0389 62.5291C56.6045 64.2377 55.0335 65.8975 53.7808 67.7493C53.7368 67.8143 53.6688 68.0155 53.7392 67.981C54.3559 67.6785 54.9162 67.1384 55.4258 66.6982C56.9661 65.3677 58.3912 63.8633 60.0463 62.6716C60.1704 62.5823 61.771 61.3767 61.8576 61.7749C62.0392 62.6101 60.9036 64.0599 60.4976 64.679C59.4807 66.2295 58.4117 67.7443 57.4094 69.3053C57.1005 69.7864 56.7976 70.2711 56.483 70.7485C56.4825 70.7492 55.9294 71.5632 55.996 71.5799C56.5618 71.7213 57.916 70.0372 58.2112 69.7388C59.7473 68.186 61.2974 66.6147 63.2176 65.5342C64.1753 64.9952 65.288 64.5626 64.732 66.0865C64.084 67.8625 62.539 69.4528 61.3172 70.8554C60.7562 71.4993 60.0168 72.0834 59.5236 72.7795C58.9137 73.6406 60.7996 71.0986 61.4419 70.2615C62.4497 68.9479 63.5507 67.7393 64.6667 66.52C64.777 66.3995 65.8073 65.3951 65.6406 65.1659C65.2026 64.5637 63.4861 65.5568 63.1463 65.748C61.5954 66.6203 60.3046 67.6889 58.9594 68.8302C58.3442 69.3523 57.7958 69.9717 57.1481 70.4515C56.7777 70.7258 57.8432 69.8445 58.1636 69.5132C59.4573 68.1757 60.8533 66.8174 61.8576 65.2432C62.8967 63.6142 60.3755 64.5709 59.7612 65.0828C58.1561 66.4204 56.4332 68.9328 56.9343 71.1879C57.0889 71.8834 57.8809 71.8731 58.4071 71.6749C59.5957 71.2274 60.6831 70.4096 61.2103 69.2281C61.5516 68.4631 61.64 67.5008 61.1746 66.7694C60.367 65.5002 58.921 65.4967 57.6826 66.1993C56.4982 66.8713 55.6921 68.0206 55.117 69.2222C54.5716 70.3617 54.1414 71.6238 54.9864 72.7439C55.6626 73.6403 56.9816 73.5136 57.938 73.3081C59.7182 72.9256 61.3379 72.0491 62.8256 71.0216C63.4408 70.5968 64.5676 69.8319 64.4588 68.9252C64.3045 67.6391 63.1899 67.3632 62.0773 67.4227C60.3491 67.5151 58.2086 69.7964 58.7991 71.6215C59.0766 72.4793 60.7397 72.4073 61.4241 72.3044C62.8543 72.0895 64.3006 71.1813 65.3378 70.208C65.7525 69.8188 66.4216 68.9791 65.997 68.3967C65.5106 67.7297 64.5419 67.619 63.7758 67.7612C63.3071 67.8483 62.4235 68.2073 62.2793 68.7411C62.2079 69.0052 62.1882 69.4591 62.4752 69.5904C63.4916 70.055 65.5551 69.6526 65.7594 68.3135C65.9129 67.3076 65.0236 65.748 63.8827 65.748C62.9786 65.748 63.4248 67.1401 64.0728 67.3277C65.3112 67.6862 64.8904 64.7727 64.7973 64.2751C64.6492 63.4831 64.4103 62.6989 64.2331 61.9115C64.2178 61.8435 63.8905 61.0064 63.8649 61.1216C63.7229 61.7609 64.1003 62.6417 64.1559 63.2893C64.2124 63.9461 64.2278 64.61 64.34 65.261C64.3851 65.5222 64.3481 65.8151 64.4172 66.0687C64.5791 66.6623 64.9144 65.1501 64.928 65.0828C65.2299 63.59 65.2661 62.0518 65.2487 60.5337C65.2388 59.6763 65.2386 58.6645 64.9755 57.8374C64.7438 57.1093 64.7143 57.6382 64.7379 58.1581C64.8015 59.5573 64.998 60.9312 65.2724 62.3034C65.7041 64.4616 65.9001 66.6673 66.9353 68.6342C67.0151 68.7858 67.066 68.8648 67.066 68.6283C67.066 68.1516 67.1154 67.6843 67.1491 67.2089C67.2727 65.4629 66.9615 63.598 66.5849 61.8936C66.339 60.7807 66.2478 59.7969 65.8366 58.7461C65.5628 58.0464 65.1717 57.4143 65.0349 56.6615C64.7832 55.2771 64.3935 53.9385 64.3935 52.5162C64.3935 51.9442 64.6054 51.5175 64.6904 50.9603C64.7142 50.8047 64.7127 50.2125 64.7142 50.2476C64.7834 51.8389 65.124 53.493 65.4625 55.0462C65.5329 55.3694 65.5935 55.7116 65.7297 56.0142C65.8275 56.2314 65.8589 56.8776 65.991 56.6794C66.2258 56.3271 65.997 55.0373 65.997 54.6305C65.997 53.506 66.0511 52.3919 66.0979 51.2691C66.1086 51.012 66.1768 49.6369 66.2167 50.6336C66.2843 52.3244 66.3724 54.0037 66.5255 55.6876C66.5855 56.3475 66.8251 56.9024 66.3177 57.4098" stroke="white" stroke-width="3" stroke-linecap="round"/>
<path d="M65.2095 44.8689C65.9295 53.1189 66.6495 61.3689 67.3595 69.6189C67.6395 72.7989 72.6395 72.8289 72.3595 69.6189C71.6395 61.3689 70.9195 53.1189 70.2095 44.8689C69.9295 41.6889 64.9295 41.6589 65.2095 44.8689Z" fill="#3A3A3A"/>
<path d="M36.5095 73.0605C46.2895 80.9405 64.1494 81.1606 72.4494 70.8506C74.4494 68.3706 70.9294 64.8105 68.9094 67.3105C62.4594 75.3105 47.8494 75.8106 40.0394 69.5206C37.5594 67.5206 33.9995 71.0405 36.4995 73.0605H36.5095Z" fill="#3A3A3A"/>
<path d="M35.8194 48.1C44.5994 55.47 60.9494 53.06 68.9694 45.42C71.3094 43.2 67.7694 39.67 65.4294 41.88C59.6194 47.41 45.7794 49.95 39.3494 44.56C36.8994 42.5 33.3494 46.02 35.8094 48.1H35.8194Z" fill="#3A3A3A"/>
<path d="M39.2595 46.8994C47.2395 41.7994 56.5094 40.9193 65.3294 44.3093C68.3394 45.4593 69.6394 40.6293 66.6594 39.4893C56.6894 35.6593 45.7195 36.8393 36.7295 42.5793C34.0295 44.3093 36.5295 48.6394 39.2495 46.8994H39.2595Z" fill="#3A3A3A"/>
<path d="M42.6594 45.5605L44.0294 45.7905C45.3294 46.0105 46.7595 45.4605 47.1095 44.0405C48.1195 39.9305 48.4094 34.4505 43.5294 32.7005C40.2694 31.5305 37.2794 33.5805 36.1694 36.6805C34.9894 39.9805 36.7995 44.5605 40.8895 44.0005C44.3895 43.5305 45.6495 39.2705 45.4595 36.2505C45.2495 32.8805 43.1795 29.3105 39.7495 28.3505C36.7895 27.5205 33.1494 29.0705 33.4094 32.5705C33.6594 35.8605 37.2795 36.8505 39.6095 34.9705C42.8995 32.3205 44.1795 27.1005 41.6295 23.6905C40.2295 21.8205 36.9595 22.2705 36.9695 24.9505C36.9695 28.2805 39.0695 31.0205 42.5095 31.4705C45.9495 31.9205 48.5695 29.6105 50.3495 26.9605C51.8495 24.7305 48.9994 22.5205 46.9294 23.5405C41.0894 26.4305 39.7094 37.8605 46.9194 40.0405C52.8094 41.8305 56.7795 32.9606 50.6495 30.9006C43.7395 28.5706 40.6994 39.7705 45.5394 43.4405C50.7894 47.4105 58.8394 40.1705 57.4294 34.5505C57.2394 33.7805 56.4994 32.9405 55.6794 32.8005C49.7494 31.7905 45.9595 40.8105 51.3495 44.1205C56.7395 47.4305 63.6894 39.8606 60.7794 34.7806C60.3694 34.0606 59.4795 33.4805 58.6195 33.5405C50.2495 34.1105 54.2594 50.9305 62.7794 44.5805C65.9894 42.1905 70.4795 36.2506 69.2195 31.9006C68.1895 28.3206 63.5794 27.5305 61.6794 30.7905C60.0794 33.5505 61.8095 38.4905 65.1395 38.8905C69.6195 39.4305 72.0795 32.7906 72.2295 29.2806C72.3995 25.1206 69.9095 20.9805 65.6995 19.9505C62.3595 19.1405 57.3595 21.0205 58.0195 25.2105C58.5695 28.6905 62.7195 28.7605 64.9595 26.8605C68.0295 24.2705 68.2895 19.0905 65.8495 16.0405C59.3595 7.93045 48.0295 20.3806 55.3695 23.5206C58.3195 24.7806 61.5395 22.6805 61.7395 19.4905C62.0695 14.2405 56.0195 12.5705 51.8995 13.0405C47.9995 13.4905 43.4395 15.9005 42.0995 19.8505C40.7595 23.8005 43.6795 27.0205 47.7295 26.1705C51.3495 25.4105 55.6395 21.3305 53.5195 17.3905C51.1795 13.0405 44.3595 13.9805 41.3495 16.8905C38.1095 20.0305 37.4995 26.3905 41.4595 29.2405C46.1295 32.6005 54.2195 29.8305 58.8295 27.8205C61.7695 26.5405 59.2294 22.2305 56.3094 23.5005C53.7694 24.6005 50.6695 25.6505 47.8495 25.5405C46.2995 25.8305 44.9494 25.3705 43.7994 24.1705C43.7994 20.3405 45.4294 18.9905 48.6794 20.1105C47.0694 20.5205 47.2794 20.1605 49.3094 19.0105C50.5394 18.3305 51.8595 17.9705 53.2595 17.9205C55.5495 18.1705 57.8495 18.3205 60.1495 18.3805C62.7695 19.6705 63.1994 21.2305 61.4294 23.0505L63.1794 24.8005L64.3495 24.7706C66.1095 25.1906 66.8794 26.2805 66.6694 28.0505C66.8894 29.2205 67.0495 32.4706 66.1495 33.5306L64.1095 34.3705L63.0294 36.6905C62.4894 37.7005 61.8095 38.5905 61.0095 39.3805C60.0795 40.6805 59.6894 40.0005 59.8194 37.3405L57.6594 38.5805L58.6195 38.5105L56.4595 37.2706C56.3795 38.4406 55.6695 38.5505 54.3595 37.5905L52.6095 35.8405L51.9895 37.0805C50.7795 39.7305 49.7495 39.2505 48.8895 35.6405C47.4395 33.2105 45.5395 29.7605 49.4495 27.8305L46.0294 24.4104C44.6994 26.9604 43.3395 27.1305 41.9695 24.9205L37.3094 26.1805C38.0394 28.4705 37.5295 30.2005 35.7695 31.3805H38.2894C38.7794 31.6005 40.2695 36.1106 40.4995 36.7806L40.2794 38.3405C42.4494 39.4505 43.1194 40.9005 42.2894 42.6705L45.3695 40.9205L43.9995 40.6905C40.8495 40.1605 39.4994 44.9805 42.6694 45.5105L42.6594 45.5605Z" fill="#3A3A3A"/>
<path d="M39.5594 53.5909C38.8994 49.5409 34.0195 49.2509 30.7695 49.5009C27.1495 49.7809 23.9094 51.6708 23.1694 55.4308C21.6294 63.3108 30.9395 67.4208 36.8795 63.1608C39.4695 61.3008 36.9795 56.9609 34.3595 58.8409C32.2495 60.3609 28.0495 60.5608 28.0195 57.0408C28.0095 55.6308 28.8394 54.8609 30.1994 54.5809C31.0294 54.4109 34.6095 54.1008 34.7495 54.9208C35.2695 58.0908 40.0894 56.7409 39.5694 53.5909H39.5594Z" fill="#3A3A3A"/>
<path d="M71.1794 44.8496C69.7194 44.8496 68.6394 45.2896 67.6094 46.3396C65.6794 48.2996 68.2395 51.9297 70.6395 50.2697C73.0395 48.6097 78.1294 46.1396 78.5494 50.8596C78.8794 54.5396 74.8394 56.3596 71.7894 56.6896C68.7394 57.0196 68.5894 62.0396 71.7894 61.6896C78.0594 60.9996 84.7295 56.7496 83.3895 49.5396C82.8595 46.7096 80.9594 44.2697 78.1694 43.3897C74.6394 42.2897 70.9695 43.9696 68.1195 45.9596L71.1495 49.8897L71.1794 49.8697C74.3994 49.8697 74.3994 44.8597 71.1794 44.8697V44.8496Z" fill="#3A3A3A"/>
<path d="M47.2596 42.8998C42.9996 42.3098 40.6195 47.8197 45.0495 49.5997C48.6195 51.0297 53.4795 46.3997 51.8395 42.7997C49.9595 38.6597 44.3396 42.0797 46.2696 46.0697C48.7196 51.1297 54.4395 47.7098 55.5595 43.7698C56.2295 41.4098 53.0996 39.4897 51.3796 41.3397C46.8896 46.1597 54.8596 51.0997 58.3796 46.0497C60.0396 43.6597 60.3296 39.7097 59.2596 37.0497C58.3596 34.8197 55.6695 32.5898 53.1995 34.1498C51.1295 35.4598 51.1895 38.4297 52.9195 39.9897C55.2595 42.0797 58.3096 40.4797 59.8896 38.3297C65.1296 31.2397 57.5595 26.2697 50.7895 27.6797L52.1196 32.4998C54.7196 31.9098 57.0796 30.9697 59.3996 29.6697C62.2096 28.0897 59.6896 23.7697 56.8796 25.3497C54.9196 26.4497 52.9795 27.1797 50.7895 27.6697C47.6395 28.3897 48.9796 33.1397 52.1196 32.4897C53.4996 32.0797 54.8495 32.1997 56.1595 32.8297C56.5195 34.3797 56.3195 35.8797 55.5895 37.3297C55.0295 38.5397 54.7695 39.7897 54.8195 41.0897C54.4595 42.3397 54.4895 43.6098 54.9095 44.8798L50.7295 42.4497L50.7795 44.7397L48.6196 45.9797H49.2596C48.5396 45.5797 47.8195 45.1598 47.0995 44.7498C46.8995 43.1898 47.0695 43.9397 47.5995 46.9897L45.1695 47.6298L45.9095 47.7297C49.0595 48.1697 50.4195 43.3497 47.2395 42.9097L47.2596 42.8998Z" fill="#3A3A3A"/>
<path d="M62.2194 37.5591C68.2594 39.2991 73.3994 35.3991 74.0494 29.3191C74.3394 26.5491 69.5495 25.8691 69.1395 28.6591C68.6995 31.6291 70.5894 34.5091 73.9194 34.2991C77.2494 34.0891 79.9695 30.2792 81.1395 27.3692C82.3095 24.4592 82.1394 20.6492 79.4594 18.5092C77.3394 16.8092 73.9094 17.0491 72.6894 19.6691C71.7594 21.6591 73.8895 24.7492 76.1095 23.0892C77.5695 21.9992 78.6895 20.8592 79.6195 19.2692C81.2395 16.4792 76.9194 13.9592 75.2994 16.7492C74.9094 17.5792 74.3394 18.2592 73.5894 18.7792L77.0095 22.1991C76.4895 23.3091 76.9395 24.4492 76.3995 25.7292C75.7895 27.1892 74.2094 28.4092 73.9694 29.9992L69.0594 29.3392C68.7494 32.2592 66.1594 33.5092 63.5594 32.7592C60.4594 31.8692 59.1394 36.6891 62.2294 37.5791L62.2194 37.5591Z" fill="#3A3A3A"/>
<path d="M40.0594 34.3806C38.2394 37.0006 35.0694 34.4206 34.0294 32.6106C33.3094 31.3606 31.1194 24.2206 35.3094 25.6206L33.8194 21.9505C33.1694 22.9205 31.3195 22.7006 30.6095 22.0006C29.5995 21.7006 29.4994 21.2006 30.3094 20.4906C30.6094 19.6006 31.2394 19.0306 32.1994 18.7806C35.3494 19.3606 36.6894 14.5506 33.5294 13.9606C28.3694 13.0006 23.0694 19.0606 25.0794 24.1506C27.0894 29.2406 35.5195 28.3906 38.1395 24.4706C39.0795 23.0606 38.0895 21.2805 36.6495 20.8005C28.2595 17.9905 26.6594 28.6006 29.2094 34.1206C32.0194 40.1906 40.0295 43.1905 44.3795 36.9105C46.2195 34.2605 41.8894 31.7606 40.0594 34.3906V34.3806Z" fill="#3A3A3A"/>
<path d="M43.8795 19.9006C42.9195 19.0006 42.1295 17.5806 43.5795 16.7506C44.1795 16.4106 44.9894 16.2705 45.6594 16.1805C46.0094 16.1305 46.3695 16.1105 46.7295 16.0905C47.6395 16.0405 47.8695 16.3705 47.8395 15.4405C47.9295 18.6505 52.9295 18.6605 52.8395 15.4405C52.6795 9.82051 44.9195 10.4906 41.3395 12.2806C36.7795 14.5606 36.9195 20.2005 40.3395 23.4305C42.6795 25.6405 46.2195 22.1106 43.8795 19.8906V19.9006Z" fill="#3A3A3A"/>
</svg>
