<svg width="125" height="147" viewBox="0 0 125 147" fill="none" xmlns="http://www.w3.org/2000/svg">
<path d="M21.0199 5.00267C22.8399 25.0027 21.9199 45.2327 21.7199 65.2827C21.5199 85.3327 21.3299 106.293 21.1299 126.793C21.0799 131.623 28.5799 131.623 28.6299 126.793C28.8299 106.293 29.0199 85.7827 29.2199 65.2827C29.4199 44.7827 30.3299 25.0027 28.5199 5.00267C28.0899 0.232672 20.5799 0.192672 21.0199 5.00267Z" fill="#53FF6E"/>
<path d="M115.95 5.47142C117.77 25.4714 116.85 45.7015 116.65 65.7514C116.45 85.8015 116.26 106.761 116.06 127.261C116.01 132.091 123.51 132.091 123.56 127.261C123.76 106.761 123.95 86.2514 124.15 65.7514C124.35 45.2514 125.26 25.4714 123.45 5.47142C123.02 0.701422 115.51 0.661422 115.95 5.47142Z" fill="#53FF6E"/>
<path d="M26.05 7.9518C41.86 7.8918 57.68 8.00188 73.49 8.28188C88.75 8.56188 104.3 10.0218 119.53 8.94179L116.29 7.0818L116.45 7.29189C119.3 11.1219 125.81 7.38185 122.93 3.50185C121 0.911846 118.92 1.53187 115.9 1.65187C112.25 1.79187 108.6 1.6918 104.96 1.5818C96.12 1.3218 87.28 1.06184 78.44 0.871841C60.98 0.511841 43.52 0.381788 26.06 0.441788C21.23 0.461788 21.23 7.96179 26.06 7.94179L26.05 7.9518Z" fill="#53FF6E"/>
<path d="M25.21 132.901C41.02 132.841 56.84 132.951 72.65 133.231C88.09 133.511 103.3 134.261 118.69 132.881C123.46 132.451 123.5 124.951 118.69 125.381C103.3 126.761 88.08 126.011 72.65 125.731C56.84 125.441 41.03 125.341 25.21 125.401C20.38 125.421 20.38 132.921 25.21 132.901Z" fill="#53FF6E"/>
<path d="M4.31998 18.7516C11.51 14.6116 18.53 10.2016 25.37 5.51163C28.01 3.70163 25.51 -0.628441 22.85 1.19156C16 5.88156 8.98997 10.2917 1.79997 14.4317C-0.990026 16.0417 1.52998 20.3616 4.31998 18.7516Z" fill="#53FF6E"/>
<path d="M6.45999 143.672C13.65 139.532 20.67 135.122 27.51 130.432C30.15 128.622 27.65 124.291 24.99 126.111C18.14 130.801 11.13 135.211 3.93999 139.351C1.14999 140.961 3.66999 145.282 6.45999 143.672Z" fill="#53FF6E"/>
<path d="M99.9099 145.652C107.1 141.512 114.12 137.102 120.96 132.412C123.6 130.602 121.1 126.272 118.44 128.092C111.59 132.782 104.58 137.192 97.3899 141.332C94.5999 142.942 97.1199 147.262 99.9099 145.652Z" fill="#53FF6E"/>
<path d="M0.989985 16.4523C2.07999 58.3523 2.05997 100.262 0.929972 142.162C0.839972 145.382 5.83997 145.382 5.92997 142.162C7.05997 100.262 7.07999 58.3523 5.98999 16.4523C5.90999 13.2423 0.909985 13.2323 0.989985 16.4523Z" fill="#53FF6E"/>
<path d="M4.43996 145.911C35.84 146.021 67.25 146.001 98.65 145.861C101.87 145.851 101.87 140.851 98.65 140.861C67.25 141.001 35.84 141.021 4.43996 140.911C1.21996 140.901 1.21996 145.901 4.43996 145.911Z" fill="#53FF6E"/>
<path d="M28.09 107.481C57.75 106.981 87.41 106.481 117.06 105.981C120.27 105.931 120.28 100.931 117.06 100.981C87.4 101.481 57.74 101.981 28.09 102.481C24.88 102.531 24.87 107.531 28.09 107.481Z" fill="#53FF6E"/>
<path d="M28.3 123.982C58.64 123.052 89 122.762 119.35 123.112C122.57 123.152 122.57 118.152 119.35 118.112C89 117.762 58.64 118.052 28.3 118.982C25.09 119.082 25.08 124.082 28.3 123.982Z" fill="#53FF6E"/>
<path d="M72.49 16.2413C74.11 26.6413 76.25 36.9313 78.9 47.1113L80.05 44.2914C76.49 46.4514 73.05 48.7813 69.78 51.3613C67.31 53.3013 64.86 54.9213 65.03 58.3413C65.25 62.7513 67.15 67.4413 68.08 71.7613C69.28 77.3513 70.16 82.9714 70.45 88.6814L74.72 86.9114C69.56 81.7314 66.76 74.6713 64.35 67.9013C63.22 64.7213 62.15 61.5213 61.06 58.3313C60.6 56.9713 59.19 54.2214 59.17 52.7914C59.13 50.4614 60.97 49.9213 62.6 48.7513C66.11 46.2313 71.45 43.2413 72.75 38.8413C73.78 35.3613 73.8 31.3413 74.29 27.7313C74.82 23.7813 75.36 19.8213 75.89 15.8713C76.31 12.7213 71.5 11.3614 71.07 14.5414C70.45 19.1514 69.83 23.7713 69.21 28.3813C68.75 31.8313 69.14 36.4914 66.69 39.1814C63.82 42.3314 59.72 44.4713 56.34 46.9913C54.45 48.4013 53.39 49.1713 53.64 51.6013C53.97 54.9013 55.81 58.3613 56.88 61.4913C58.22 65.4213 59.51 69.3713 61.02 73.2313C63.46 79.4613 66.42 85.6413 71.19 90.4413C72.66 91.9213 75.57 90.8814 75.46 88.6714C75.07 80.9314 73.64 73.3713 71.88 65.8413C71.03 62.2013 69.12 58.8113 72 55.9413C74.88 53.0713 79.08 50.7213 82.58 48.5913C83.54 48.0113 84.01 46.8513 83.73 45.7713C81.08 35.5913 78.94 25.3013 77.32 14.9013C76.83 11.7313 72.01 13.0813 72.5 16.2313L72.49 16.2413Z" fill="#3A3A3A"/>
<path d="M62.94 49.1127C59.88 49.9227 56.87 53.7727 59.18 56.8827C60.04 58.0427 61.26 58.4027 62.6 57.7827C66.26 56.0727 66.33 50.2927 63.84 47.6427C63.27 47.0327 62.21 46.7127 61.41 47.0027C56.98 48.5727 57.22 56.6027 61.83 57.8727C67.17 59.3427 68.46 51.8127 65.72 48.6727C64.75 47.5627 62.41 47.7327 61.79 49.1827C59.34 54.9627 60.52 61.5827 62.58 67.3427C63.46 69.8027 67.81 69.6727 67.49 66.6827C67.17 63.6927 66.43 60.9527 65.13 58.1427C64.11 55.9527 60.21 56.9727 60.47 59.4027C61.27 66.7727 63.62 73.5827 66.25 80.4727C67.17 82.8827 71.46 82.8427 71.16 79.8127L71.09 79.0427C70.78 75.8727 65.78 75.8327 66.09 79.0427L66.16 79.8127L71.07 79.1527C68.62 72.7327 66.21 66.2927 65.47 59.4127L60.81 60.6727C61.75 62.6927 62.25 64.4727 62.48 66.6827L67.39 66.0227C65.89 61.8427 64.26 56.0527 66.1 51.7227L62.17 52.2327L62.72 51.8527L60.29 51.2127L60.06 53.5027L63.48 54.4027L64.25 53.9727C67.36 53.1527 66.04 48.3227 62.92 49.1527L62.94 49.1127Z" fill="#3A3A3A"/>
<path d="M67.53 50.2108C68.3 48.4008 69.07 46.9408 70.32 45.3708L66.39 42.3408C65.2 44.1708 64.12 46.0308 63.14 47.9808C61.86 50.5108 64.93 52.9508 67.07 51.0108C68.99 49.2708 70.84 47.4808 72.64 45.6208L68.7099 42.5908C66.9299 45.7208 64.1099 49.3708 64.2599 53.1108C64.3499 55.2708 66.94 56.4208 68.53 54.8808C70.95 52.5408 74.9999 49.3408 73.9299 45.5808C73.4299 43.8308 71.05 43.0608 69.75 44.4808C67.63 46.7908 65.0499 49.6108 64.8699 52.8708C64.8099 53.8808 65.6799 55.0908 66.7099 55.2808C69.8899 55.8808 71.8899 52.7808 73.6199 50.5008C76.0499 47.2908 77.96 44.0108 75.7 40.2408C74.5 38.2308 71.92 38.9308 71.13 40.8408C69.67 44.3908 68.6699 50.4608 73.0199 52.2308C73.8599 52.5708 74.84 52.1308 75.45 51.5908C78.77 48.6608 80.79 38.5208 75.63 36.6408C74.52 36.2308 73.4299 36.9408 72.8099 37.7908C71.2599 39.9108 71.1999 43.7608 72.6199 45.9608C73.2399 46.9108 74.33 47.3908 75.44 47.1108C79.38 46.1308 80.21 37.1908 77.69 34.5308C73.4 30.0008 71.3799 39.0908 71.2999 41.5808C71.2099 44.4708 75.3799 44.8808 76.2099 42.2408C77.7899 37.2108 78.8699 32.5108 77.8399 27.2608C77.2199 24.1108 72.3999 25.4408 73.0199 28.5908C73.8599 32.8708 72.66 36.8508 71.39 40.9108L76.2999 41.5707C76.3499 40.4107 76.49 39.2708 76.73 38.1408H74.2099C73.8999 37.9308 73.2699 42.4908 74.1099 42.2808L76.9299 43.4309L77.1199 40.3109L74.2999 41.4608L74.94 41.6907L73.19 39.9407C73.92 42.0807 73.69 46.4808 71.91 48.0508L74.3399 47.4108C74.3399 47.4108 75.8 42.5208 75.94 42.1708L71.3699 42.7708C72.2099 44.1808 70.2 46.7408 69.45 47.7108C69.31 47.8908 66.88 50.2508 68.03 50.4708L69.8699 52.8808C69.9599 51.2108 72.25 49.1508 73.29 48.0208L69.1099 46.9208C69.3099 47.6108 65.52 50.8408 64.99 51.3508L69.26 53.1208C69.16 50.6708 71.84 47.2208 73.03 45.1308C74.41 42.6908 71.12 40.0308 69.1 42.1008C67.3 43.9608 65.44 45.7508 63.53 47.4908L67.4599 50.5208C68.4499 48.5708 69.5199 46.7108 70.7099 44.8808C72.2299 42.5408 68.57 39.6108 66.78 41.8508C65.3 43.7008 64.1299 45.5107 63.1999 47.7008C61.9599 50.6308 66.2599 53.1808 67.5199 50.2208L67.53 50.2108Z" fill="#3A3A3A"/>
<path d="M5.11994 23.8014C7.85994 22.9614 10.1399 21.3413 12.6099 19.9513C15.9099 18.0913 19.3199 16.5014 22.8399 15.1114C24.3199 14.5314 23.6799 12.1113 22.1799 12.7013C19.2699 13.8513 16.3999 15.1114 13.6199 16.5614C10.5899 18.1414 7.73994 20.3914 4.44994 21.4014C2.91994 21.8714 3.56995 24.2814 5.10995 23.8114L5.11994 23.8014Z" fill="#53FF6E"/>
<path d="M23.89 20.3521C17.54 22.4821 11.52 26.8921 5.66996 30.1421C4.25996 30.9221 5.51996 33.0821 6.92996 32.3021C9.85996 30.6721 12.79 29.0521 15.72 27.4221C18.65 25.7921 21.46 23.8021 24.56 22.7621C26.08 22.2521 25.43 19.8321 23.9 20.3521H23.89Z" fill="#53FF6E"/>
<path d="M21.59 28.062C16.11 31.752 10.5 35.2319 4.75999 38.4919C3.35999 39.2919 4.62 41.4519 6.02 40.6519C11.76 37.3819 17.37 33.9119 22.85 30.2219C24.18 29.3319 22.93 27.162 21.59 28.062Z" fill="#53FF6E"/>
<path d="M22.43 36.681C18.81 38.971 15.15 41.051 11.3 42.931C7.98997 44.541 4.91996 46.2609 2.50996 49.0909C1.46996 50.3109 3.22996 52.0909 4.27996 50.8609C6.82996 47.8709 10.17 46.2609 13.63 44.5809C17.09 42.9009 20.42 40.9209 23.69 38.8409C25.05 37.9809 23.79 35.821 22.43 36.681Z" fill="#53FF6E"/>
<path d="M23.06 46.4711L23.36 46.4212L22.4 44.1412C16.22 47.1512 10.09 50.2511 4.00999 53.4611C2.58999 54.2111 3.85 56.3712 5.27 55.6212C11.35 52.4212 17.48 49.3112 23.66 46.3012C25.04 45.6312 23.98 43.8212 22.7 44.0212L22.4 44.0711C20.81 44.3111 21.49 46.7212 23.06 46.4812V46.4711Z" fill="#53FF6E"/>
<path d="M23.99 52.3214C17.45 56.3014 10.73 59.9314 3.82996 63.2314C2.37996 63.9214 3.64995 66.0814 5.08995 65.3914C12 62.0914 18.71 58.4614 25.25 54.4814C26.62 53.6414 25.37 51.4814 23.99 52.3214Z" fill="#53FF6E"/>
<path d="M22.17 61.5412C15.92 63.4712 10.58 67.6212 4.36997 69.8112C2.85997 70.3412 3.50997 72.7611 5.02997 72.2211C11.22 70.0311 16.62 65.8711 22.83 63.9511C24.36 63.4811 23.71 61.0612 22.17 61.5412Z" fill="#53FF6E"/>
<path d="M23.49 69.762C20.05 72.152 16.48 74.312 12.7 76.132C9.6 77.622 5.89999 78.442 3.42999 80.932C2.29999 82.072 4.06 83.8419 5.2 82.7019C7.63 80.2419 12.14 79.232 15.22 77.672C18.54 75.992 21.7 74.042 24.76 71.912C26.07 71.002 24.82 68.832 23.5 69.752L23.49 69.762Z" fill="#53FF6E"/>
<path d="M24.97 78.5924C19.14 83.8524 11.2 85.8025 5.4 91.1325C4.21 92.2225 5.98 93.9925 7.17 92.9025C12.95 87.5825 20.9 85.6325 26.74 80.3625C27.94 79.2825 26.16 77.5224 24.97 78.5924Z" fill="#53FF6E"/>
<path d="M22.54 92.4613L22.67 92.4013C23.18 92.1713 23.36 91.4913 23.24 90.9913L23.2 90.8114C23.04 90.1314 22.3 89.7912 21.66 89.9412C19.01 90.5412 16.06 93.4213 13.84 94.9613C11.09 96.8813 8.39996 98.8713 5.78996 100.981C4.53996 101.991 6.31997 103.751 7.55997 102.751C9.99997 100.781 12.53 98.9113 15.11 97.1213C16.21 96.3613 17.31 95.6013 18.42 94.8613C19.53 94.1213 21.05 92.6513 22.33 92.3513L20.79 91.4813L20.83 91.6613L21.4 90.2513L21.27 90.3114C19.81 90.9814 21.08 93.1413 22.53 92.4713L22.54 92.4613Z" fill="#53FF6E"/>
<path d="M21.34 98.3811C17.28 101.941 12.88 104.571 8.20999 107.241C6.45999 108.241 2.19998 110.271 3.16998 112.871C3.72998 114.361 6.14998 113.721 5.57998 112.211C5.22998 111.261 13.59 107.131 14.56 106.541C17.6 104.671 20.43 102.501 23.11 100.151C24.32 99.0912 22.55 97.3211 21.34 98.3811Z" fill="#53FF6E"/>
<path d="M23.15 108.161C16.57 111.951 9.98998 115.731 3.39998 119.521C2.00998 120.321 3.25999 122.481 4.65999 121.681C11.24 117.891 17.82 114.111 24.41 110.321C25.8 109.521 24.55 107.361 23.15 108.161Z" fill="#53FF6E"/>
<path d="M21.27 117.131C15.23 122.031 8.05995 125.191 1.61995 129.491C0.28995 130.381 1.53996 132.551 2.87996 131.651C9.49996 127.221 16.82 123.941 23.03 118.901C24.28 117.891 22.4999 116.131 21.2599 117.131H21.27Z" fill="#53FF6E"/>
<path d="M29.47 131.191C25.98 134.261 22.5 137.331 19.01 140.411C17.8 141.481 19.57 143.241 20.78 142.181C24.27 139.111 27.75 136.041 31.24 132.961C32.45 131.891 30.68 130.131 29.47 131.191Z" fill="#53FF6E"/>
<path d="M38.9 130.882L31.17 139.582C30.1 140.782 31.87 142.552 32.94 141.352L40.67 132.652C41.74 131.452 39.97 129.682 38.9 130.882Z" fill="#53FF6E"/>
<path d="M45.43 134.172L46.08 133.742C46.35 133.562 46.57 133.312 46.65 132.992C46.73 132.692 46.7 132.292 46.52 132.032C46.34 131.772 46.09 131.532 45.77 131.462C45.45 131.392 45.09 131.402 44.81 131.592L44.16 132.022C43.89 132.202 43.67 132.452 43.59 132.772C43.51 133.072 43.54 133.472 43.72 133.732C43.9 133.992 44.15 134.232 44.47 134.302C44.79 134.372 45.15 134.362 45.43 134.172Z" fill="#53FF6E"/>
<path d="M43.97 132.262L35.91 142.172C34.9 143.412 36.66 145.192 37.68 143.942L45.74 134.032C46.75 132.792 44.99 131.012 43.97 132.262Z" fill="#53FF6E"/>
<path d="M52.17 130.953L46.81 137.863C45.75 139.223 43.61 140.993 43.49 142.803C43.46 143.213 43.74 143.703 44.11 143.883L44.3 143.983C44.78 144.223 45.43 144.213 45.81 143.783L45.93 143.653C47 142.463 45.24 140.683 44.16 141.883L44.04 142.013L45.55 141.813L45.36 141.713L45.98 142.793C46 142.443 47.52 140.973 47.8 140.603L49.84 137.973L53.93 132.713C54.91 131.453 53.15 129.673 52.16 130.943L52.17 130.953Z" fill="#53FF6E"/>
<path d="M59.8999 132.192C57.0499 135.572 54.3299 139.052 51.7399 142.642C50.7999 143.952 52.9599 145.202 53.8999 143.902C56.3699 140.492 58.9599 137.182 61.6699 133.962C62.6999 132.742 60.9399 130.962 59.8999 132.192Z" fill="#53FF6E"/>
<path d="M68.55 131.542C65.62 134.932 62.86 138.462 60.26 142.122C59.33 143.432 61.49 144.682 62.42 143.382C64.9 139.902 67.53 136.542 70.32 133.312C71.37 132.102 69.61 130.322 68.55 131.542Z" fill="#53FF6E"/>
<path d="M76.01 131.202L67.01 141.032C65.93 142.212 67.69 143.992 68.78 142.802L77.78 132.972C78.86 131.792 77.1 130.012 76.01 131.202Z" fill="#53FF6E"/>
<path d="M83.9799 133.911L84.0299 133.801L82.6199 134.371L82.7699 134.411L81.8999 132.871C81.6099 133.771 80.3299 134.821 79.7399 135.551C78.9499 136.521 78.1499 137.481 77.3599 138.451C75.7699 140.381 74.1899 142.311 72.5999 144.251C71.5899 145.481 73.3499 147.261 74.3699 146.021C76.2499 143.731 78.1299 141.431 80.0199 139.141C81.3699 137.501 83.6499 135.591 84.3099 133.551C84.5199 132.911 84.0699 132.181 83.4399 132.011L83.2899 131.971C82.7999 131.841 82.1099 132.051 81.8799 132.541L81.8299 132.651C81.1599 134.101 83.3099 135.371 83.9899 133.911H83.9799Z" fill="#53FF6E"/>
<path d="M92.73 130.611C88.52 134.191 84.3 137.771 80.09 141.351C78.86 142.391 80.64 144.151 81.86 143.121L94.5 132.381C95.73 131.341 93.95 129.581 92.73 130.611Z" fill="#53FF6E"/>
<path d="M100.95 132.341C96.91 135.801 92.87 139.261 88.83 142.711C87.61 143.761 89.38 145.521 90.6 144.481C94.64 141.021 98.68 137.561 102.72 134.111C103.94 133.061 102.17 131.301 100.95 132.341Z" fill="#53FF6E"/>
</svg>
