<svg width="72" height="86" viewBox="0 0 72 86" fill="none" xmlns="http://www.w3.org/2000/svg">
<path d="M11.8678 3.41266C12.9249 15.0284 12.3905 26.7777 12.2744 38.4225C12.1582 50.0673 12.0479 62.2406 11.9317 74.1467C11.9027 76.9519 16.2586 76.9519 16.2876 74.1467C16.4038 62.2406 16.5141 50.3286 16.6303 38.4225C16.7464 26.5164 17.2749 15.0284 16.2237 3.41266C15.974 0.642305 11.6123 0.619073 11.8678 3.41266Z" fill="#53FF6E"/>
<path d="M67.0019 3.68512C68.059 15.3009 67.5246 27.0502 67.4085 38.695C67.2923 50.3397 67.182 62.513 67.0658 74.4191C67.0368 77.2243 71.3927 77.2243 71.4217 74.4191C71.5379 62.513 71.6482 50.6011 71.7644 38.695C71.8805 26.7888 72.409 15.3009 71.3578 3.68512C71.1081 0.914766 66.7464 0.891534 67.0019 3.68512Z" fill="#53FF6E"/>
<path d="M14.7892 5.12573C23.9714 5.09089 33.1594 5.15482 42.3417 5.31744C51.2045 5.48006 60.2357 6.32796 69.0811 5.70071L67.1994 4.62045L67.2923 4.74247C68.9475 6.96688 72.7284 4.79471 71.0558 2.54126C69.9349 1.03703 68.7268 1.39713 66.9728 1.46682C64.853 1.54813 62.7331 1.49001 60.619 1.42613C55.4849 1.27512 50.3507 1.12414 45.2166 1.01379C35.076 0.804708 24.9355 0.729174 14.795 0.764021C11.9898 0.775637 11.9898 5.13154 14.795 5.11992L14.7892 5.12573Z" fill="#53FF6E"/>
<path d="M14.3013 77.6952C23.4835 77.6604 32.6716 77.7243 41.8538 77.8869C50.8211 78.0495 59.6549 78.4851 68.5932 77.6836C71.3636 77.4339 71.3868 73.078 68.5932 73.3277C59.6549 74.1292 50.8153 73.6936 41.8538 73.531C32.6716 73.3626 23.4893 73.3045 14.3013 73.3393C11.4961 73.351 11.4961 77.7069 14.3013 77.6952Z" fill="#53FF6E"/>
<path d="M2.16868 11.3981C6.34454 8.99369 10.4217 6.43242 14.3942 3.70853C15.9275 2.65731 14.4755 0.142464 12.9307 1.1995C8.95227 3.92338 4.88095 6.48472 0.705096 8.88917C-0.915299 9.82424 0.548286 12.3332 2.16868 11.3981Z" fill="#53FF6E"/>
<path d="M3.4116 83.9499C7.58746 81.5454 11.6646 78.9842 15.6372 76.2603C17.1704 75.2091 15.7185 72.6942 14.1736 73.7513C10.1952 76.4751 6.12387 79.0364 1.94802 81.4409C0.327621 82.3759 1.79121 84.885 3.4116 83.9499Z" fill="#53FF6E"/>
<path d="M57.6861 85.1003C61.8619 82.6958 65.939 80.1346 69.9116 77.4107C71.4449 76.3595 69.9929 73.8446 68.448 74.9016C64.4697 77.6255 60.3983 80.1868 56.2225 82.5913C54.6021 83.5263 56.0657 86.0354 57.6861 85.1003Z" fill="#53FF6E"/>
<path d="M0.234649 10.0625C0.867706 34.3975 0.856083 58.7383 0.199794 83.0733C0.147523 84.9434 3.05146 84.9434 3.10373 83.0733C3.76002 58.7383 3.77164 34.3975 3.13858 10.0625C3.09212 8.19821 0.188186 8.1924 0.234649 10.0625Z" fill="#53FF6E"/>
<path d="M2.23838 85.2504C20.4751 85.3143 38.7176 85.3026 56.9543 85.2213C58.8244 85.2155 58.8244 82.3116 56.9543 82.3174C38.7176 82.3987 20.4751 82.4103 2.23838 82.3465C0.368252 82.3407 0.368252 85.2446 2.23838 85.2504Z" fill="#53FF6E"/>
<path d="M15.974 62.9316C33.2001 62.6412 50.4262 62.3508 67.6466 62.0604C69.5109 62.0314 69.5167 59.1274 67.6466 59.1565C50.4204 59.4469 33.1943 59.7373 15.974 60.0276C14.1096 60.0567 14.1038 62.9606 15.974 62.9316Z" fill="#53FF6E"/>
<path d="M16.0959 72.5141C33.717 71.9739 51.3497 71.8055 68.9766 72.0088C70.8467 72.032 70.8467 69.1281 68.9766 69.1049C51.3497 68.9016 33.717 69.07 16.0959 69.6101C14.2316 69.6682 14.2258 72.5722 16.0959 72.5141Z" fill="#53FF6E"/>
<path d="M41.7609 9.9396C42.7018 15.9798 43.9447 21.9561 45.4838 27.8685L46.1517 26.2307C44.0841 27.4852 42.0862 28.8384 40.187 30.3368C38.7524 31.4636 37.3295 32.4044 37.4282 34.3907C37.556 36.952 38.6595 39.6759 39.1996 42.1849C39.8966 45.4315 40.4077 48.6955 40.5761 52.0118L43.0561 50.9838C40.0592 47.9753 38.433 43.875 37.0333 39.9431C36.377 38.0962 35.7556 36.2376 35.1225 34.3849C34.8554 33.595 34.0364 31.9979 34.0248 31.1674C34.0016 29.8141 35.0703 29.5005 36.0169 28.821C38.0555 27.3574 41.1569 25.6208 41.9119 23.0654C42.5101 21.0442 42.5217 18.7095 42.8063 16.6128C43.1142 14.3187 43.4278 12.0188 43.7356 9.72471C43.9795 7.89523 41.1859 7.10539 40.9362 8.95229C40.5761 11.6297 40.216 14.3129 39.8559 16.9904C39.5888 18.9941 39.8153 21.7006 38.3924 23.2629C36.7255 25.0924 34.3443 26.3352 32.3812 27.7988C31.2835 28.6177 30.6679 29.0649 30.8131 30.4762C31.0047 32.3928 32.0734 34.4023 32.6948 36.2202C33.4731 38.5027 34.2223 40.7968 35.0993 43.0386C36.5164 46.6569 38.2355 50.2462 41.0059 53.0339C41.8596 53.8935 43.5497 53.2895 43.4858 52.006C43.2593 47.5107 42.4288 43.1199 41.4066 38.7466C40.913 36.6325 39.8037 34.6637 41.4763 32.9968C43.149 31.3299 45.5883 29.9651 47.621 28.728C48.1786 28.3912 48.4516 27.7175 48.289 27.0902C46.7499 21.1778 45.507 15.2015 44.5661 9.16137C44.2815 7.32027 41.4821 8.10431 41.7667 9.93379L41.7609 9.9396Z" fill="#3A3A3A"/>
<path d="M36.2144 29.0314C34.4372 29.5019 32.689 31.7379 34.0306 33.5442C34.5301 34.2179 35.2387 34.427 36.0169 34.0669C38.1426 33.0737 38.1832 29.7168 36.7371 28.1777C36.406 27.8234 35.7904 27.6376 35.3258 27.806C32.7529 28.7178 32.8923 33.3815 35.5697 34.1191C38.6711 34.9729 39.4203 30.5996 37.829 28.7759C37.2656 28.1312 35.9066 28.23 35.5465 29.0721C34.1235 32.4291 34.8089 36.2738 36.0053 39.6192C36.5164 41.0479 39.0428 40.9724 38.857 39.2359C38.6711 37.4993 38.2413 35.908 37.4863 34.276C36.8939 33.004 34.6288 33.5964 34.7798 35.0078C35.2445 39.2881 36.6093 43.2433 38.1368 47.2449C38.6711 48.6446 41.1627 48.6214 40.9885 46.8616L40.9478 46.4144C40.7677 44.5733 37.8638 44.5501 38.0439 46.4144L38.0845 46.8616L40.9362 46.4783C39.5133 42.7496 38.1136 39.0094 37.6838 35.0136L34.9773 35.7454C35.5232 36.9185 35.8136 37.9524 35.9472 39.2359L38.7989 38.8526C37.9277 36.4249 36.981 33.0621 38.0497 30.5473L35.7672 30.8435L36.0866 30.6228L34.6753 30.2511L34.5417 31.5811L36.528 32.1038L36.9752 31.854C38.7815 31.3778 38.0148 28.5726 36.2028 29.0547L36.2144 29.0314Z" fill="#3A3A3A"/>
<path d="M38.8802 29.6693C39.3274 28.6181 39.7746 27.7701 40.5006 26.8583L38.2181 25.0985C37.527 26.1613 36.8997 27.2416 36.3305 28.3741C35.5871 29.8435 37.3701 31.2607 38.613 30.1339C39.7281 29.1234 40.8026 28.0838 41.848 27.0035L39.5655 25.2437C38.5317 27.0616 36.8939 29.1814 36.981 31.3536C37.0333 32.6081 38.5375 33.276 39.461 32.3816C40.8665 31.0225 43.2186 29.164 42.5972 26.9802C42.3068 25.9639 40.9245 25.5167 40.1695 26.3414C38.9383 27.683 37.4398 29.3208 37.3353 31.2142C37.3004 31.8008 37.8057 32.5036 38.4039 32.6139C40.2508 32.9624 41.4124 31.1619 42.4172 29.8377C43.8285 27.9734 44.9378 26.0684 43.6252 23.8789C42.9283 22.7115 41.4298 23.118 40.971 24.2273C40.1231 26.2891 39.5423 29.8145 42.0687 30.8425C42.5565 31.04 43.1257 30.7844 43.48 30.4708C45.4082 28.7691 46.5814 22.8799 43.5846 21.788C42.9399 21.5499 42.3068 21.9623 41.9467 22.456C41.0465 23.6872 41.0117 25.9232 41.8364 27.2009C42.1965 27.7527 42.8295 28.0315 43.4742 27.8689C45.7625 27.2997 46.2446 22.1075 44.781 20.5626C42.2894 17.9316 41.1162 23.2109 41.0697 24.6571C41.0175 26.3356 43.4393 26.5737 43.9214 25.0404C44.839 22.1191 45.4663 19.3894 44.8681 16.3403C44.508 14.5108 41.7086 15.2832 42.0687 17.1127C42.5565 19.5985 41.8596 21.91 41.122 24.268L43.9737 24.6513C44.0027 23.9776 44.084 23.3155 44.2234 22.6592H42.7598C42.5798 22.5373 42.2139 25.1857 42.7017 25.0637L44.3396 25.7316L44.4499 23.9196L42.8121 24.5874L43.1838 24.721L42.1674 23.7046C42.5914 24.9475 42.4578 27.503 41.424 28.4148L42.8353 28.0431C42.8353 28.0431 43.6833 25.2031 43.7646 24.9998L41.1104 25.3483C41.5983 26.1672 40.4309 27.654 39.9953 28.2173C39.914 28.3219 38.5027 29.6925 39.1706 29.8203L40.2392 31.22C40.2915 30.2501 41.6215 29.0537 42.2255 28.3974L39.7978 27.7585C39.914 28.1593 37.7128 30.0352 37.405 30.3314L39.8849 31.3594C39.8269 29.9365 41.3834 27.9328 42.0745 26.7189C42.876 25.3018 40.9652 23.7569 39.792 24.9591C38.7466 26.0394 37.6663 27.079 36.557 28.0896L38.8395 29.8494C39.4145 28.7168 40.0359 27.6366 40.7271 26.5737C41.6099 25.2147 39.4842 23.513 38.4446 24.8139C37.585 25.8884 36.9055 26.9396 36.3654 28.2115C35.6452 29.9132 38.1426 31.3942 38.8744 29.6751L38.8802 29.6693Z" fill="#3A3A3A"/>
<path d="M2.63332 14.3303C4.22468 13.8424 5.54887 12.9015 6.98341 12.0942C8.90001 11.0139 10.8805 10.0905 12.9249 9.2832C13.7844 8.94634 13.4127 7.54082 12.5415 7.88348C10.8514 8.55138 9.18459 9.28324 7.57001 10.1254C5.81022 11.043 4.15498 12.3498 2.24419 12.9364C1.35559 13.2093 1.7331 14.6091 2.62751 14.3361L2.63332 14.3303Z" fill="#53FF6E"/>
<path d="M13.5347 12.3274C9.84667 13.5645 6.35033 16.1258 2.95273 18.0133C2.13382 18.4664 2.86561 19.7209 3.68452 19.2679C5.38622 18.3212 7.08793 17.3803 8.78964 16.4336C10.4913 15.4869 12.1233 14.3312 13.9238 13.7271C14.8066 13.4309 14.4291 12.0254 13.5405 12.3274H13.5347Z" fill="#53FF6E"/>
<path d="M12.1989 16.8051C9.01616 18.9482 5.75794 20.9693 2.42423 22.8627C1.61113 23.3273 2.34292 24.5818 3.15602 24.1172C6.48974 22.218 9.74795 20.2027 12.9307 18.0596C13.7031 17.5427 12.9771 16.2824 12.1989 16.8051Z" fill="#53FF6E"/>
<path d="M12.6867 21.8116C10.5843 23.1416 8.45859 24.3497 6.22256 25.4415C4.30016 26.3766 2.51714 27.3755 1.11744 29.0191C0.513426 29.7277 1.53561 30.7615 2.14544 30.0471C3.62644 28.3106 5.56628 27.3755 7.5758 26.3998C9.58532 25.4241 11.5193 24.2741 13.4185 23.0661C14.2084 22.5666 13.4766 21.3121 12.6867 21.8116Z" fill="#53FF6E"/>
<path d="M13.0526 27.4982L13.2269 27.4692L12.6693 26.145C9.08005 27.8932 5.51983 29.6936 1.98865 31.5579C1.16393 31.9935 1.89573 33.248 2.72044 32.8124C6.25163 30.9539 9.81185 29.1477 13.4011 27.3995C14.2026 27.0104 13.587 25.9592 12.8435 26.0753L12.6693 26.1043C11.7459 26.2437 12.1408 27.6434 13.0526 27.504V27.4982Z" fill="#53FF6E"/>
<path d="M13.5928 30.8958C9.79441 33.2073 5.89153 35.3156 1.8841 37.2322C1.04196 37.633 1.77955 38.8875 2.61589 38.4867C6.62912 36.5701 10.5262 34.4619 14.3245 32.1503C15.1202 31.6625 14.3942 30.4079 13.5928 30.8958Z" fill="#53FF6E"/>
<path d="M12.5357 36.2503C8.90579 37.3712 5.80439 39.7815 2.1977 41.0534C1.32072 41.3612 1.69823 42.7667 2.58103 42.453C6.17609 41.1811 9.31234 38.765 12.919 37.6499C13.8076 37.3769 13.4301 35.9715 12.5357 36.2503Z" fill="#53FF6E"/>
<path d="M13.3024 41.0238C11.3044 42.4119 9.23104 43.6664 7.03566 44.7234C5.23522 45.5888 3.08631 46.0651 1.65177 47.5112C0.995479 48.1733 2.01767 49.2013 2.67976 48.5392C4.09107 47.1104 6.71042 46.5239 8.49925 45.6179C10.4275 44.6421 12.2627 43.5096 14.0399 42.2725C14.8008 41.744 14.0748 40.4837 13.3082 41.018L13.3024 41.0238Z" fill="#53FF6E"/>
<path d="M14.1619 46.1522C10.7759 49.2071 6.16449 50.3397 2.79593 53.4353C2.10479 54.0683 3.13278 55.0963 3.82392 54.4633C7.18087 51.3735 11.7981 50.2409 15.1899 47.1802C15.8869 46.5529 14.8531 45.5308 14.1619 46.1522Z" fill="#53FF6E"/>
<path d="M12.7506 54.2075L12.8261 54.1727C13.1223 54.0392 13.2269 53.6442 13.1572 53.3538L13.1339 53.2493C13.041 52.8544 12.6112 52.6568 12.2395 52.744C10.7004 53.0924 8.98711 54.7651 7.69776 55.6595C6.1006 56.7746 4.53828 57.9304 3.02243 59.1559C2.29644 59.7425 3.33025 60.7647 4.05042 60.1839C5.46754 59.0397 6.93693 57.9536 8.43536 56.914C9.07423 56.4726 9.71309 56.0312 10.3578 55.6014C11.0024 55.1717 11.8852 54.3179 12.6286 54.1437L11.7342 53.6384L11.7575 53.743L12.0885 52.924L12.013 52.9589C11.1651 53.348 11.9027 54.6025 12.7448 54.2134L12.7506 54.2075Z" fill="#53FF6E"/>
<path d="M12.0537 57.6466C9.69567 59.7142 7.14022 61.2417 4.42794 62.7924C3.41157 63.3732 0.937412 64.5522 1.50077 66.0622C1.82602 66.9276 3.23152 66.5559 2.90047 65.6789C2.6972 65.1271 7.55257 62.7285 8.11593 62.3859C9.88153 61.2998 11.5252 60.0395 13.0817 58.6746C13.7844 58.059 12.7564 57.031 12.0537 57.6466Z" fill="#53FF6E"/>
<path d="M13.1049 63.3261C9.28333 65.5273 5.46175 67.7227 1.63437 69.9239C0.827072 70.3885 1.55306 71.643 2.36616 71.1784C6.18774 68.9772 10.0093 66.7818 13.8367 64.5806C14.644 64.116 13.918 62.8615 13.1049 63.3261Z" fill="#53FF6E"/>
<path d="M12.013 68.536C8.50506 71.3818 4.34082 73.2171 0.600554 75.7145C-0.171893 76.2314 0.554096 77.4917 1.33235 76.969C5.17716 74.3961 9.42851 72.4912 13.0352 69.564C13.7612 68.9774 12.7274 67.9552 12.0072 68.536H12.013Z" fill="#53FF6E"/>
<path d="M16.7754 76.702C14.7485 78.485 12.7274 80.268 10.7004 82.0569C9.99766 82.6783 11.0257 83.7005 11.7284 83.0849C13.7554 81.3019 15.7765 79.5188 17.8034 77.73C18.5062 77.1085 17.4782 76.0863 16.7754 76.702Z" fill="#53FF6E"/>
<path d="M22.2523 76.5223L17.7628 81.5751C17.1414 82.272 18.1694 83.3 18.7908 82.6031L23.2803 77.5503C23.9017 76.8533 22.8737 75.8253 22.2523 76.5223Z" fill="#53FF6E"/>
<path d="M26.0448 78.4321L26.4223 78.1823C26.5791 78.0778 26.7069 77.9326 26.7534 77.7467C26.7998 77.5725 26.7824 77.3402 26.6779 77.1892C26.5733 77.0382 26.4281 76.8987 26.2423 76.8581C26.0564 76.8174 25.8473 76.8232 25.6847 76.9336L25.3072 77.1834C25.1504 77.2879 25.0226 77.4331 24.9762 77.619C24.9297 77.7932 24.9471 78.0255 25.0517 78.1765C25.1562 78.3275 25.3014 78.4669 25.4873 78.5076C25.6731 78.5482 25.8822 78.5424 26.0448 78.4321Z" fill="#53FF6E"/>
<path d="M25.1969 77.3235L20.5157 83.0791C19.9291 83.7992 20.9513 84.833 21.5437 84.107L26.2248 78.3515C26.8114 77.6313 25.7893 76.5975 25.1969 77.3235Z" fill="#53FF6E"/>
<path d="M29.9593 76.5622L26.8463 80.5755C26.2307 81.3653 24.9878 82.3934 24.9181 83.4446C24.9007 83.6827 25.0633 83.9673 25.2782 84.0718L25.3885 84.1299C25.6673 84.2693 26.0448 84.2635 26.2655 84.0137L26.3352 83.9382C26.9566 83.2471 25.9345 82.2133 25.3072 82.9102L25.2375 82.9857L26.1145 82.8696L26.0042 82.8115L26.3642 83.4388C26.3759 83.2355 27.2587 82.3817 27.4213 82.1668L28.6061 80.6393L30.9815 77.5844C31.5507 76.8526 30.5285 75.8188 29.9535 76.5564L29.9593 76.5622Z" fill="#53FF6E"/>
<path d="M34.4488 77.2829C32.7935 79.246 31.2138 81.2672 29.7096 83.3522C29.1636 84.113 30.4181 84.839 30.9641 84.084C32.3986 82.1035 33.9028 80.1811 35.4768 78.3109C36.075 77.6024 35.0528 76.5686 34.4488 77.2829Z" fill="#53FF6E"/>
<path d="M39.4726 76.9048C37.7709 78.8736 36.1679 80.9238 34.6579 83.0495C34.1177 83.8103 35.3722 84.5363 35.9124 83.7813C37.3527 81.7601 38.8802 79.8087 40.5006 77.9328C41.1104 77.23 40.0882 76.1962 39.4726 76.9048Z" fill="#53FF6E"/>
<path d="M43.8053 76.7079L38.5782 82.4171C37.951 83.1024 38.9731 84.1362 39.6062 83.4451L44.8333 77.7359C45.4605 77.0506 44.4384 76.0168 43.8053 76.7079Z" fill="#53FF6E"/>
<path d="M48.4341 78.2815L48.4632 78.2176L47.6443 78.5486L47.7314 78.5719L47.2261 77.6774C47.0577 78.2001 46.3143 78.81 45.9716 79.234C45.5128 79.7973 45.0481 80.3548 44.5893 80.9182C43.6659 82.0391 42.7482 83.1601 41.8248 84.2868C41.2382 85.0012 42.2604 86.035 42.8528 85.3148C43.9447 83.9848 45.0365 82.649 46.1342 81.319C46.9183 80.3665 48.2425 79.2572 48.6258 78.0724C48.7478 77.7007 48.4864 77.2767 48.1205 77.178L48.0334 77.1547C47.7488 77.0792 47.3481 77.2012 47.2145 77.4858L47.1854 77.5497C46.7963 78.3918 48.045 79.1294 48.4399 78.2815H48.4341Z" fill="#53FF6E"/>
<path d="M53.516 76.365C51.0709 78.4442 48.62 80.5234 46.1749 82.6026C45.4605 83.2067 46.4943 84.2289 47.2029 83.6306L54.544 77.393C55.2584 76.789 54.2246 75.7668 53.516 76.365Z" fill="#53FF6E"/>
<path d="M58.2901 77.3699C55.9437 79.3794 53.5973 81.3889 51.251 83.3926C50.5424 84.0025 51.5704 85.0247 52.279 84.4206C54.6253 82.4111 56.9717 80.4016 59.3181 78.3979C60.0266 77.7881 58.9987 76.7659 58.2901 77.3699Z" fill="#53FF6E"/>
</svg>
