<svg width="123" height="246" viewBox="0 0 123 246" fill="none" xmlns="http://www.w3.org/2000/svg">
<path d="M46.9783 71.0557C44.3283 75.8557 41.6883 80.6557 39.0383 85.4657C38.5683 86.3157 39.8683 87.0657 40.3383 86.2257L48.2783 71.8157C48.7483 70.9657 47.4483 70.2157 46.9783 71.0557Z" fill="#20BEFF"/>
<path d="M53.0408 199.367C50.3908 204.167 47.7508 208.967 45.1008 213.777C44.6308 214.627 45.9308 215.377 46.4008 214.537L54.3408 200.127C54.8108 199.277 53.5108 198.527 53.0408 199.367Z" fill="#20BEFF"/>
<path d="M45.2885 84.6761L33.7685 110.906C33.3885 111.786 34.6785 112.546 35.0685 111.666L46.5885 85.4361C46.9685 84.5561 45.6785 83.7961 45.2885 84.6761Z" fill="#20BEFF"/>
<path d="M45.5783 107.726C42.9983 114.216 39.9283 120.456 36.3883 126.476C35.8983 127.306 37.1983 128.066 37.6883 127.236C41.2883 121.106 44.3983 114.736 47.0283 108.126C47.3883 107.226 45.9383 106.836 45.5783 107.726Z" fill="#20BEFF"/>
<path d="M59.9487 70.936C62.5587 82.106 64.3486 93.396 65.3286 104.826C65.4086 105.776 66.9086 105.786 66.8286 104.826C65.8386 93.266 64.0287 81.836 61.3887 70.536C61.1687 69.596 59.7187 69.996 59.9387 70.936H59.9487Z" fill="#20BEFF"/>
<path d="M59.6385 102.016C61.9985 110.406 63.8585 118.896 65.2385 127.506C65.3885 128.456 66.8385 128.056 66.6885 127.106C65.3085 118.496 63.4485 110.006 61.0885 101.616C60.8285 100.686 59.3785 101.086 59.6385 102.016Z" fill="#20BEFF"/>
<path d="M66.5087 72.8658C69.4087 79.3358 72.3087 85.8058 75.2087 92.2758C75.5987 93.1558 76.8987 92.3957 76.5087 91.5157C73.6087 85.0457 70.7087 78.5758 67.8087 72.1058C67.4187 71.2258 66.1187 71.9858 66.5087 72.8658Z" fill="#20BEFF"/>
<path d="M69.3184 137.086C71.9384 145.716 74.6584 154.326 77.4584 162.896C77.7584 163.806 79.2084 163.416 78.9084 162.496C76.0984 153.926 73.3884 145.316 70.7684 136.686C70.4884 135.766 69.0384 136.156 69.3184 137.086Z" fill="#20BEFF"/>
<path d="M83.0357 174.924C85.6557 183.554 88.3757 192.164 91.1757 200.734C91.4757 201.644 92.9257 201.254 92.6257 200.334C89.8157 191.764 87.1057 183.154 84.4857 174.524C84.2057 173.604 82.7557 173.994 83.0357 174.924Z" fill="#20BEFF"/>
<path d="M56.6086 116.066C56.7686 127.596 56.4886 139.116 55.7586 150.636C55.6986 151.596 57.1986 151.596 57.2586 150.636C57.9886 139.126 58.2786 127.606 58.1086 116.066C58.0986 115.106 56.5986 115.096 56.6086 116.066Z" fill="#20BEFF"/>
<path d="M48.0287 127.966C45.1287 138.756 41.7987 149.406 38.0387 159.926C37.7087 160.836 39.1587 161.226 39.4887 160.326C43.2587 149.806 46.5887 139.156 49.4787 128.366C49.7287 127.436 48.2787 127.036 48.0287 127.966Z" fill="#20BEFF"/>
<path d="M59.0385 163.529C56.1385 174.319 52.8085 184.969 49.0485 195.489C48.7185 196.399 50.1685 196.789 50.4985 195.889C54.2685 185.369 57.5985 174.719 60.4885 163.929C60.7385 162.999 59.2885 162.599 59.0385 163.529Z" fill="#20BEFF"/>
<path d="M51.4486 160.366C49.7186 165.186 48.2786 170.076 47.1286 175.056C46.9086 175.996 48.3586 176.396 48.5786 175.456C49.7286 170.476 51.1686 165.586 52.8986 160.766C53.2286 159.856 51.7786 159.466 51.4486 160.366Z" fill="#20BEFF"/>
<path d="M62.4584 195.928C60.7284 200.748 59.2884 205.638 58.1384 210.618C57.9184 211.558 59.3684 211.958 59.5884 211.018C60.7384 206.038 62.1784 201.148 63.9084 196.328C64.2384 195.418 62.7884 195.028 62.4584 195.928Z" fill="#20BEFF"/>
<path d="M66.6485 159.446C68.6785 166.016 71.3985 172.276 74.8185 178.246C75.2985 179.086 76.5985 178.326 76.1185 177.486C72.7685 171.626 70.0985 165.496 68.0985 159.036C67.8185 158.116 66.3685 158.506 66.6485 159.436V159.446Z" fill="#20BEFF"/>
<path d="M77.6583 195.009C79.6883 201.579 82.4083 207.839 85.8283 213.809C86.3083 214.649 87.6083 213.889 87.1283 213.049C83.7783 207.189 81.1083 201.059 79.1083 194.599C78.8283 193.679 77.3783 194.069 77.6583 194.999V195.009Z" fill="#20BEFF"/>
<path d="M84.2283 148.686C86.3783 156.326 88.5183 163.956 90.6683 171.596C90.9283 172.526 92.3783 172.126 92.1183 171.196C89.9683 163.556 87.8283 155.926 85.6783 148.286C85.4183 147.356 83.9683 147.756 84.2283 148.686Z" fill="#20BEFF"/>
<path fill-rule="evenodd" clip-rule="evenodd" d="M122.086 0.527344C122.138 2.19358 122.191 3.85984 122.242 5.52613C87.3338 5.71429 52.4157 5.91213 17.5073 6.10996C14.2873 6.12996 14.2873 1.12996 17.5073 1.10996C52.3635 0.9223 87.2294 0.724884 122.086 0.527344Z" fill="#20BEFF"/>
<rect x="32.7773" y="6" width="8" height="6" fill="white"/>
<path d="M15.807 5.04977C14.977 84.3798 11.3971 164.43 19.6671 243.49C19.9971 246.66 24.9971 246.69 24.6671 243.49C16.3971 164.44 19.987 84.3798 20.807 5.04977C20.837 1.82977 15.837 1.82977 15.807 5.04977Z" fill="#20BEFF"/>
<path d="M7.55729 21.1095C12.2473 16.9395 15.9973 11.9096 18.6473 6.22957C19.9973 3.32957 15.6873 0.789547 14.3273 3.70955C11.8373 9.04955 8.41728 13.6595 4.01728 17.5795C1.60728 19.7195 5.15729 23.2496 7.55729 21.1196V21.1095Z" fill="#20BEFF"/>
<path d="M2.88709 19.3497C0.517092 93.3297 0.427113 167.38 2.59711 241.37C2.68711 244.58 7.68711 244.59 7.59711 241.37C5.41711 167.38 5.51709 93.3297 7.88709 19.3497C7.98709 16.1297 2.98709 16.1397 2.88709 19.3497Z" fill="#20BEFF"/>
<path d="M30.1771 14C29.2171 49.46 28.177 84.91 27.297 120.37C26.417 155.83 28.647 190.31 31.207 225.25C31.437 228.44 36.447 228.47 36.207 225.25C33.647 190.31 31.437 155.43 32.297 120.37C33.177 84.91 34.217 49.46 35.177 14C35.267 10.78 30.2671 10.78 30.1771 14Z" fill="#20BEFF"/>
<path d="M109.927 14C108.967 49.46 107.927 84.91 107.047 120.37C106.167 155.83 108.397 190.31 110.957 225.25C111.187 228.44 116.197 228.47 115.957 225.25C113.397 190.31 111.187 155.43 112.047 120.37C112.927 84.91 113.967 49.46 114.927 14C115.017 10.78 110.017 10.78 109.927 14Z" fill="#20BEFF"/>
<path d="M34.0773 16.37C60.2673 15.29 86.4773 14.83 112.687 14.99C115.907 15.01 115.907 10.01 112.687 9.98995C86.4773 9.82995 60.2673 10.29 34.0773 11.37C30.8673 11.5 30.8573 16.5 34.0773 16.37Z" fill="#20BEFF"/>
<path d="M34.0773 228.46C60.2673 227.38 86.4773 226.92 112.687 227.08C115.907 227.1 115.907 222.1 112.687 222.08C86.4773 221.92 60.2673 222.38 34.0773 223.46C30.8673 223.59 30.8573 228.59 34.0773 228.46Z" fill="#20BEFF"/>
<path d="M103.027 23.5402L112.217 16.7802C113.497 15.8402 112.257 13.6702 110.957 14.6202L101.767 21.3802C100.487 22.3202 101.727 24.4902 103.027 23.5402Z" fill="#20BEFF"/>
<path d="M32.0273 21.8804C55.5073 21.5404 78.9873 22.0904 102.427 23.5304C104.037 23.6304 104.027 21.1304 102.427 21.0304C78.9873 19.5804 55.5073 19.0304 32.0273 19.3804C30.4173 19.4004 30.4173 21.9004 32.0273 21.8804Z" fill="#20BEFF"/>
<path d="M101.707 22.6098C102.267 89.3698 97.3673 156.1 99.8273 222.86C99.8873 224.46 102.387 224.47 102.327 222.86C99.8673 156.1 104.767 89.3798 104.207 22.6098C104.197 20.9998 101.697 20.9998 101.707 22.6098Z" fill="#20BEFF"/>
<path d="M81.727 115.41H90.797C92.407 115.41 92.407 112.91 90.797 112.91H81.727C80.117 112.91 80.117 115.41 81.727 115.41Z" fill="#20BEFF"/>
<path d="M82.9571 113.73C82.9871 111 83.1671 96.2402 88.4571 100.03C90.5771 101.55 90.0772 104.75 90.0072 107.06C89.9372 109.37 89.8572 111.69 89.7872 114L92.2471 113.67C91.7471 110.91 91.2572 108.14 90.7572 105.38C90.5972 104.5 89.2372 104.12 88.6672 104.83C86.9072 107 86.3171 109.22 86.7071 111.97C86.8171 112.75 87.9271 113.12 88.5471 112.72C90.3871 111.49 92.5771 108.28 89.6271 106.71C86.6771 105.14 85.2271 109.61 85.4071 111.73C85.4671 112.5 86.1571 113.2 86.9871 112.94C91.1871 111.62 87.8871 105.29 83.9571 108.19C82.5571 109.22 81.6171 111.68 83.0571 113.1C84.7671 114.78 87.0771 112.62 87.5471 110.87C88.9971 105.47 79.5572 107.08 80.7572 111.82C81.2472 113.75 83.7171 114.12 85.1571 113.1C87.8671 111.17 87.0472 106.5 86.0372 103.96C85.6172 102.91 84.4172 102.77 83.7572 103.66C82.6672 105.11 82.9071 106.73 84.1071 108.02C84.6071 108.56 85.3571 108.42 85.8771 108.02C88.4071 106.02 88.9171 102.74 87.3071 99.9902C86.8671 99.2402 85.9571 99.2402 85.3471 99.7402C83.8571 100.94 82.9171 102.72 83.2071 104.69C83.4171 106.09 84.3171 107.52 85.9071 107.13C87.4971 106.74 88.7971 104.07 88.9671 102.61C89.1771 100.84 88.3471 99.2902 86.7671 98.5002C86.2971 98.2602 85.6272 98.2602 85.2572 98.7002C83.5872 100.6 81.4271 104.96 85.2471 106.06C88.7171 107.06 90.1472 103.08 88.6672 100.59C88.1872 99.7702 86.9972 99.7902 86.5072 100.59C85.3772 102.45 85.3771 104.23 86.4571 106.1C86.7871 106.66 87.5972 106.92 88.1672 106.55C90.1472 105.26 90.6971 103.2 89.6371 101.08C89.1071 100.03 87.6971 100.46 87.3571 101.38C86.7271 103.06 86.8671 104.32 87.6771 105.91C88.1271 106.81 89.3471 106.63 89.8371 105.91C91.0571 104.12 91.0572 102.08 89.7872 100.3C89.0672 99.2902 87.5271 99.6402 87.4571 100.93L87.3871 102.07C87.2971 103.68 89.7971 103.67 89.8871 102.07L89.9571 100.93L87.6271 101.56C88.4971 102.57 88.5171 103.6 87.6771 104.64H89.8371L89.7771 102.04L87.4971 102.34L86.9271 104.39L88.6371 104.84L88.6871 101.85H86.5271C85.8471 101.47 86.0171 101.01 87.0471 100.46L85.5372 100.66C85.7172 103.7 85.9571 104.4 86.2771 102.76C86.2771 102.16 86.5671 101.74 87.1371 101.51L85.1771 101.26C86.2671 103.11 85.7971 104.96 84.1371 106.26H85.9071L85.9571 104.93L83.6771 104.63C84.0971 105.69 84.5171 111.11 86.3771 110.53L87.9571 111.74L87.3371 110.58L89.1771 111.33C88.9171 109.51 89.3571 108.02 90.4971 106.62L88.4071 106.07C88.9071 108.83 89.3971 111.6 89.8971 114.36C90.1571 115.79 92.3071 115.38 92.3571 114.03C92.5071 109.45 94.8571 97.1402 87.3171 96.7602C79.7771 96.3802 80.5671 109.25 80.5271 113.77C80.5071 115.38 83.0071 115.38 83.0271 113.77L82.9571 113.73Z" fill="#20BEFF"/>
<path d="M89.7374 119.42C88.8674 116.28 84.9574 114.99 82.4274 117.15C79.8974 119.31 80.1174 123.21 82.2574 125.6C83.2274 126.68 84.9374 128.04 86.5074 127.7C88.0774 127.36 89.0074 125.59 89.4974 124.26C90.6574 121.07 88.7474 117.61 85.2174 117.41C82.0774 117.23 79.8274 120.09 80.2674 123.11C80.7474 126.4 84.3774 128.05 87.3274 126.74C90.2774 125.43 91.2474 121.39 88.6674 119.27C85.6074 116.75 82.3674 120.07 81.7174 123.08C81.0674 126.09 83.3674 130.13 86.8374 128.39C89.8674 126.87 90.4074 121.95 87.6274 119.96C84.5274 117.74 81.6174 120.38 80.7574 123.43C79.8974 126.48 82.3574 129.43 85.5174 127.55C88.3074 125.9 89.9474 122.01 87.0274 119.67C84.5974 117.72 81.1574 118.94 80.4574 121.97C79.7574 125 82.2874 127.7 85.3974 127.27C88.5074 126.84 90.3074 123.63 88.6974 120.91C86.9074 117.89 83.3574 119.54 82.0974 122.07C80.5974 125.08 81.4874 129.13 85.4674 128.97C88.9074 128.84 90.3574 125.08 89.5374 122.13C88.6374 118.91 84.8974 117.35 83.0574 120.71C81.5074 123.56 81.8174 127.87 85.7374 128.32C88.8674 128.68 91.3074 125.49 90.4574 122.51C89.6074 119.53 85.7374 118.48 83.3674 120.31C80.9974 122.14 80.6374 126.83 83.0474 128.88C88.7574 133.74 92.3674 118.82 85.9674 118.91C82.8174 118.96 81.7374 123.55 81.9474 126C82.2374 129.46 85.8674 130.72 88.3274 128.22C90.4474 126.05 90.4474 122.09 88.2074 120C87.1074 118.98 85.4374 118.41 84.0074 119.04C82.4174 119.74 81.9974 121.74 81.8274 123.29C81.4774 126.51 83.4974 129.66 87.0774 128.93C90.4674 128.24 91.8474 124.31 90.5774 121.31C89.1474 117.92 85.3974 117.43 83.3374 120.48C81.7574 122.83 81.2274 126.9 84.5174 128.08C87.8074 129.26 90.6474 126.04 90.1974 122.91C89.8474 120.47 86.9774 116.65 84.3474 119.05C82.1074 121.1 81.5874 126.82 85.3874 127.51C88.5974 128.09 90.8574 124.13 89.4574 121.44C87.9074 118.47 83.4574 118.32 81.9574 121.42C80.5574 124.3 83.4774 127.9 86.5774 126.52C89.6774 125.14 89.0474 121.32 86.2174 120.16C85.7874 119.98 85.3274 120.22 84.9974 120.48C83.1374 121.99 83.3174 125.35 86.0974 125.63C88.3974 125.86 89.6274 122.9 87.7374 121.5C86.0074 120.22 83.9074 122.11 84.6874 124.02C85.6874 126.47 88.7574 125.01 89.4374 123.15C89.9874 121.64 87.5774 120.98 87.0274 122.49L86.7674 122.25L85.5474 122.57L84.7074 124.2L84.2274 122.44C84.4274 121.53 85.9574 121.53 86.5474 121.89C87.0774 122.21 87.7874 123.67 87.1174 124.29L85.1174 123.07L85.3174 122.34C85.7674 120.38 87.1074 121.35 87.5574 122.66C88.0074 123.97 87.4474 125.87 85.7774 125.8C83.2074 125.69 85.0974 120.17 87.1874 120.99C89.6374 121.95 88.6374 126.96 85.8274 126.5C84.2874 126.25 84.1474 124.74 84.2974 123.48C84.4274 122.43 84.3274 122.44 85.4574 122.08C86.5874 121.72 86.5874 121.72 87.0574 122.71C87.4674 123.59 87.4874 124.57 87.1274 125.47C86.7374 126.46 86.6374 126.46 85.5274 126.47C84.2474 126.47 84.3674 126.27 84.3974 125.19C84.4274 124.11 85.7074 119.87 86.6274 122.46C87.0574 123.67 86.2374 128.81 84.3374 126.63C82.8074 124.87 84.6374 120.86 87.1274 122.17C88.1974 122.73 88.3374 124.1 87.7174 125.04C86.5074 126.87 84.3974 125.36 84.6474 123.58C84.7174 123.11 84.8074 122.3 85.1974 122C85.4574 121.8 86.3674 121.64 86.7574 122.01C87.4974 122.71 87.3674 124.66 86.9374 125.44C86.4374 126.34 84.9274 127 84.0774 126.08C83.1674 125.1 84.8174 120.61 86.5174 122.19C88.1174 123.68 83.6674 126.58 82.8274 123.46C82.5274 122.36 83.4074 121.08 84.6174 121.23C86.4774 121.47 86.0874 123.58 85.1874 124.57C84.6074 125.2 84.4174 125.56 83.5974 125.16C82.7274 124.74 82.9574 124.59 83.2674 123.72C83.6774 122.55 84.4574 121.22 85.9174 121.95C86.7374 122.36 86.9174 123.17 86.8574 124.03C86.7674 125.25 86.5474 125.38 85.3574 125.51C83.8974 125.68 83.9474 125.29 84.0774 123.93C84.1474 123.24 84.3874 122.52 84.7974 121.95C85.3974 121.11 86.5774 120.81 87.4274 121.65C88.2174 122.44 87.1274 123.98 86.4974 124.36C85.5074 124.95 84.1374 124.8 83.3374 124C81.1974 121.85 84.4174 118.46 86.6774 120.63C87.6174 121.53 87.5074 123.8 86.4274 124.64C85.7874 125.14 85.5074 125.07 84.7574 124.58C84.2174 124.23 83.7574 123.67 83.4474 123.11C82.8074 121.94 82.7874 120.34 83.7374 119.31C84.8474 118.11 86.8074 118.46 87.2674 120.1C87.6974 121.65 90.1074 120.99 89.6774 119.44L89.7374 119.42Z" fill="#20BEFF"/>
<path d="M88.0073 111.78L89.3173 112.7C89.7873 113.03 90.4372 112.85 90.8272 112.5C91.4472 111.96 91.7072 111.34 91.6372 110.51C91.5772 109.76 90.8873 109.02 90.0573 109.3C87.6573 110.12 86.7973 113.27 88.7473 115.05C89.1973 115.46 89.7273 115.48 90.2573 115.25C92.0473 114.46 91.9373 112.12 90.7573 110.85C89.8373 109.85 88.5073 109.48 87.7573 108.29C87.0073 107.1 86.7773 105.58 86.5273 104.2C86.3873 103.42 85.3173 103.04 84.6873 103.45C83.0473 104.53 82.4073 106.11 82.7473 108.03C82.8473 108.59 83.4372 108.91 83.9572 108.95C86.0972 109.1 86.7373 105.99 84.8173 105.16C83.8873 104.76 82.7872 105.1 82.1072 105.83C81.1572 106.84 81.3273 108.25 81.5373 109.5C81.8073 111.08 84.2173 110.41 83.9473 108.84C83.7973 108.05 83.7973 107.26 83.9473 106.46L85.1573 107.38C85.0173 106.6 85.2873 106.01 85.9473 105.63L84.1072 104.88C84.3972 106.49 84.7273 108.15 85.5873 109.57C85.9673 110.19 86.4272 110.75 86.9872 111.21C87.1572 111.35 89.4673 112.9 88.9773 113.11L90.4872 113.31C90.0072 112.88 89.9473 112 90.6873 111.74L89.1072 110.53L89.0273 110.75L90.5373 110.55L89.2273 109.63C87.9073 108.7 86.6573 110.87 87.9673 111.79L88.0073 111.78Z" fill="#20BEFF"/>
<path d="M45.4172 63.9504C50.5972 64.5204 56.0772 64.9004 61.2672 64.1704C63.2772 63.8804 65.5772 63.2204 65.6972 60.7704C65.8472 57.7104 62.4072 56.3904 60.7772 54.4704C58.1572 51.3804 60.2272 46.8804 58.2272 43.3704C55.8572 39.1904 49.6672 40.2004 48.9672 45.0304C48.5672 47.8004 50.4272 50.4704 48.3072 53.0604C47.1372 54.4904 45.1072 55.0804 43.8572 56.4804C42.1472 58.3904 41.5472 60.6604 42.9072 62.8604C43.3972 63.6504 44.5872 63.6904 45.0672 62.8604C45.9472 61.3304 46.8072 59.7904 47.6472 58.2404L45.3672 57.2804C44.8972 58.6304 44.6972 59.7904 44.6472 61.2004C44.6172 62.0904 45.7572 62.8304 46.5272 62.2804C51.8872 58.4304 44.6872 54.1804 43.7272 60.1904C43.4472 61.9304 44.1472 63.9104 46.2272 63.7304C49.3872 63.4604 51.3572 58.7204 51.9872 56.1904C52.1772 55.4204 51.6172 54.5904 50.7772 54.6104C47.0072 54.6704 43.7672 62.3804 48.3172 61.9404C51.6172 61.6204 57.1472 52.3504 52.0272 51.6604C48.8972 51.2404 44.6572 59.3304 48.5872 59.8804C51.8172 60.3304 58.0172 52.2604 54.4672 49.7504C54.0672 49.4704 53.2672 49.5404 52.9572 49.9504C50.8872 52.6104 47.9272 56.9104 48.4572 60.5004C48.7972 62.7904 50.5472 63.8104 52.5772 62.4804C54.6072 61.1504 56.6872 57.5304 55.4072 55.1404C54.3272 53.1304 52.3272 53.6604 51.0172 55.0804C49.7772 56.4204 47.6772 60.2604 49.5972 61.8704C51.7672 63.7004 55.4872 60.0004 56.4372 58.4304C57.3872 56.8604 57.6672 54.5204 55.2972 54.2604C52.4072 53.9404 50.9972 57.7004 50.7272 59.9004C50.6472 60.5504 51.3672 61.1804 51.9772 61.1504C54.5772 61.0304 57.3872 59.8104 58.3172 57.1504C58.9472 55.3504 58.1072 53.2304 55.8972 53.5204C50.6872 54.2204 51.3572 65.4204 56.8672 61.0004C60.7672 57.8804 57.3272 50.8604 53.8572 55.4604C50.0972 60.4404 59.0472 64.3404 59.3172 58.0404C59.3472 57.3304 58.7172 56.8304 58.0672 56.7904C55.2872 56.6004 52.6372 59.7904 55.3672 62.0304C58.0972 64.2704 60.7072 60.3804 59.4772 57.8304C59.0372 56.9104 57.8172 57.1404 57.3172 57.8304C56.7072 58.6804 56.1972 59.5104 55.6972 60.4404C55.2872 61.2204 55.6872 61.9604 56.4472 62.2804C58.7072 63.2104 60.7572 62.0304 61.3372 59.7104C61.5472 58.8604 60.9372 58.2104 60.1272 58.1304C58.1972 57.9204 56.9872 60.0604 58.3672 61.5304C60.2772 63.5804 62.4272 61.1404 62.9472 59.3004C63.2272 58.3104 62.0372 57.2504 61.1072 57.8904C59.8372 58.7704 59.2572 59.4804 58.9872 61.0604C58.8472 61.8804 59.3272 62.6004 60.1972 62.6404C62.2772 62.7404 64.9972 61.5204 63.4672 59.0004C62.3372 57.1604 60.0472 56.4504 58.8772 54.4004C57.4972 51.9704 57.0072 49.0604 56.5272 46.3404C56.3872 45.5404 55.3272 45.2104 54.6872 45.5904C52.3772 46.9804 49.9572 53.3804 53.5972 54.6304C56.7972 55.7304 58.6272 49.4004 57.2972 47.2804C54.4172 42.6804 51.4172 50.5704 51.8772 53.0904C52.6272 57.2104 56.2272 57.1704 57.7372 53.5504C58.8572 50.8804 58.7372 43.4604 54.4972 43.5204C51.0472 43.5704 50.3572 50.1304 53.5472 50.8904C56.7372 51.6504 57.7372 45.8204 55.6172 44.1904C52.3572 41.6804 49.3572 47.4604 51.1872 50.0404C53.8672 53.8304 58.1672 48.3204 56.3172 45.0804C54.1772 41.3504 48.4072 44.3304 50.9872 48.0104C51.2272 48.3504 51.6172 48.6704 52.0672 48.6304C55.7472 48.3004 56.4172 43.8504 52.6272 42.9404C51.6472 42.7104 50.9172 43.5404 51.0872 44.4804C51.2472 45.3604 51.4172 46.2304 51.5772 47.1104C51.8672 48.6904 54.2772 48.0204 53.9872 46.4504C53.8272 45.5704 53.6572 44.7004 53.4972 43.8204L51.9572 45.3604C53.2872 46.2704 54.5372 47.2804 55.7272 48.3704C56.4772 50.0704 55.9772 51.2204 54.2172 51.8304C53.7072 51.5604 55.6972 47.9104 55.9372 47.7604L54.0972 47.0104C54.5872 49.7904 55.1172 52.6404 56.4272 55.1704C56.9872 56.2504 57.6572 57.3004 58.5172 58.1804C58.6372 58.3004 61.2172 60.2004 60.1772 60.1504L61.3872 61.7304L62.3572 60.0604L60.5172 58.6504L60.1172 60.6504L58.9072 59.0704L57.0972 59.8904L57.8472 61.7304C58.3372 60.8004 58.8472 59.9704 59.4672 59.1204H57.3072L58.0572 59.3204L56.8072 58.0704C56.8072 58.0004 51.7272 58.6804 51.9472 58.6704L53.1972 59.9204L53.8772 57.6704C53.5172 58.3004 52.9972 58.6704 52.3072 58.7704C51.4372 59.2304 51.3572 59.0204 52.0472 58.1304C52.5972 56.7004 52.7272 57.0004 52.4172 59.0404C51.3272 59.9404 51.6472 57.1804 51.6672 57.0504C51.9072 55.4704 53.7772 52.9404 54.7072 51.7404L53.1972 51.9404C53.5772 52.2104 50.3472 56.1104 50.4872 55.8904C50.0572 56.5304 48.2372 59.1804 49.9272 57.0004C50.3572 56.4504 53.0572 53.4204 50.3472 57.3104L48.1972 59.3804C49.3972 59.7404 50.2572 59.0004 50.7672 57.1504L49.5572 55.5704C49.2172 56.9704 48.8272 58.5204 47.7272 59.5304C47.5472 60.1604 47.1872 60.4604 46.6272 60.4304C46.1472 60.5604 45.6872 60.4704 45.2572 60.1704L47.1372 61.2504C47.1072 60.1104 47.3172 59.0304 47.7672 58.0004C48.2272 56.6604 46.1472 55.8004 45.4872 57.0404C44.6472 58.5904 43.7872 60.1304 42.9072 61.6604H45.0672C43.2372 58.6804 51.3272 54.9104 51.8472 51.4104C52.0672 49.9104 51.0072 47.6104 51.4272 46.2504C54.8672 44.2404 56.6172 44.4004 56.6772 46.7104C56.8172 47.3504 56.8772 48.0104 56.8472 48.6704C56.8972 49.7004 56.8272 50.7304 56.9272 51.7704C57.0672 53.1904 57.3572 54.5704 58.1772 55.7704C59.0372 57.0304 60.7272 57.4404 61.5372 58.5504L62.0372 61.6204C60.9972 61.7604 59.9572 61.8604 58.9072 61.9104C57.5872 62.0004 56.2672 62.0404 54.9372 62.0504C51.7572 62.0704 48.5972 61.8604 45.4372 61.5104C43.8372 61.3304 43.8572 63.8304 45.4372 64.0104L45.4172 63.9504Z" fill="#20BEFF"/>
<path d="M51.7873 61.0705C48.8873 68.5905 51.0073 78.2105 51.4173 86.1005C51.8773 95.0305 51.9173 104.31 54.3773 112.98C56.1273 119.16 59.4273 125.41 65.6973 127.94C72.4373 130.66 79.8172 128.36 85.8272 124.94C88.6272 123.35 86.1072 119.03 83.3072 120.62C77.3272 124.02 69.2672 126.33 63.7972 120.68C59.0472 115.77 58.0173 107.62 57.3473 101.16C56.6773 94.7005 56.5473 88.6004 56.2273 82.3304C55.9073 76.0604 54.3072 68.3705 56.6172 62.3905C57.7772 59.3905 52.9472 58.0804 51.7972 61.0604L51.7873 61.0705Z" fill="#20BEFF"/>
<path d="M84.1471 120.75C83.7771 119.74 82.8271 118.68 81.5871 119.08C80.1271 119.56 79.4771 122.1 79.3171 123.41C78.9771 126.25 80.7571 131.34 84.4771 130.58C88.4671 129.77 87.8671 124.52 86.6471 121.83C86.1271 120.68 85.2771 118.48 83.6871 118.46C82.0971 118.44 81.1571 120.58 80.6171 121.72C79.0971 124.88 79.2571 129.6 83.0671 131.03C86.1871 132.21 89.9471 130.17 90.1671 126.74C90.3671 123.6 87.5571 120.3 84.2271 121.17C80.8971 122.04 80.3671 126.55 82.4971 128.91C84.8371 131.5 89.3471 130.71 90.8371 127.61C92.3271 124.51 90.4371 120.58 86.9571 119.94C83.7471 119.35 80.5571 121.52 80.4171 124.87C80.2771 128.22 83.1371 131.54 86.6071 130.63C90.0771 129.72 91.8971 124.54 90.0671 121.59C87.9471 118.17 83.9771 119.52 81.9571 122.25C79.9371 124.98 79.1171 129.62 83.0971 131.07C86.6671 132.37 89.9171 129.35 90.5871 125.98C91.2571 122.61 89.2271 118.92 85.4171 119.56C81.6071 120.2 78.7771 125.36 80.2571 128.82C81.5371 131.81 85.5971 132.45 88.0671 130.61C90.7671 128.59 91.8271 123.68 89.2471 121.13C86.2371 118.16 82.2471 122.05 82.0371 125.31C81.7971 128.89 85.8171 130.95 88.8371 129.43C92.6171 127.52 92.7371 122.21 90.3371 119.17C87.7571 115.9 84.5171 118.41 82.9671 121.21C81.2771 124.27 79.7871 129.59 83.9971 131.46C87.6471 133.08 90.9071 129.86 91.9371 126.61C93.0471 123.09 92.2971 117.7 87.7771 117.2C83.7871 116.76 80.3071 121.76 79.8171 125.24C79.3271 128.72 81.4571 132.56 85.1871 132.88C89.1771 133.21 92.0371 129.57 92.4471 125.94C92.8071 122.74 91.8471 117.49 87.7471 117.35C83.6471 117.21 80.6471 122.11 80.2071 125.58C79.7371 129.31 82.5371 132.33 86.3071 132.07C90.0771 131.81 92.5671 128.3 92.9371 124.79C93.2871 121.53 91.6271 117.49 88.0871 116.82C84.3571 116.11 81.4071 119.51 80.4271 122.75C79.4471 125.99 79.9071 130.6 83.4671 132.13C87.0271 133.66 90.8171 131.34 91.9571 127.98C93.0971 124.62 91.9571 119.37 88.4771 117.59C84.8071 115.72 80.7971 118.24 79.1871 121.6C77.7871 124.53 78.0171 128.55 81.1471 130.22C82.5671 130.97 83.8271 128.82 82.4071 128.06C79.5471 126.54 81.0571 122.25 82.9571 120.6C87.1271 117 90.6471 122.68 89.7571 126.57C88.8671 130.46 83.5471 131.67 82.5671 127.2C81.9671 124.45 83.5671 119.25 87.0371 119.21C90.2771 119.18 90.8871 123.55 90.1571 125.87C89.6871 127.36 88.6971 128.71 87.2071 129.28C84.4971 130.31 82.1671 128.29 82.7171 125.47C83.0071 124.01 83.8371 122.55 84.8471 121.47C86.6571 119.53 89.0271 119.66 89.7171 122.24C90.5171 125.25 89.2871 131.55 84.7871 130.26C80.6871 129.09 82.3471 123.73 84.3071 121.54C84.7571 121.03 85.4571 120.28 86.0171 120.03C88.0271 119.13 89.3571 120.46 89.8071 122.02C90.3871 124.03 89.4971 127.3 87.8071 128.57C85.2871 130.46 83.2771 128.05 83.8271 125.46C84.1171 124.13 85.0671 121.93 86.0771 120.92C87.9071 119.07 89.3971 121.99 89.4571 123.75C89.5071 125.07 89.0271 126.32 87.8271 126.96C85.8171 128.02 83.8871 126.46 84.8671 124.38C85.6371 122.75 87.5771 121.97 88.1071 124.2C88.2671 124.87 88.1671 125.81 87.9771 126.43C87.4671 128.16 85.7671 129.76 83.8471 128.91C81.5971 127.91 82.4471 125.42 83.4371 123.85C83.8171 123.24 84.8471 122.09 85.6871 122C88.2071 121.71 88.4571 124.15 88.1071 125.64C87.6971 127.38 85.6871 129.85 83.6171 128.56C81.5471 127.27 83.2471 124.48 84.2771 123.32C85.3071 122.16 87.1171 120.72 88.2271 123.5C88.5571 124.32 88.0271 125.83 87.6671 126.49C86.3271 128.92 82.8771 127.96 82.8971 125.16C82.9171 123.01 85.1171 121.77 87.0471 122.53C89.6871 123.57 89.3671 127.9 86.2071 127.97C85.0771 127.99 84.0371 127.26 83.7471 126.12C83.1671 123.89 86.0471 123.03 87.1471 124.61C88.2471 126.19 87.5471 128.37 85.5871 128.78C82.0271 129.54 81.8071 125.15 82.7871 122.95C83.0071 122.46 83.3071 121.98 83.5871 121.53C83.2671 120.8 83.2571 120.71 83.5571 121.26C83.7671 121.61 83.9671 121.96 84.1471 122.32C84.4571 122.94 84.7671 123.61 84.9471 124.29C85.2071 125.06 85.2571 125.84 85.1071 126.63L82.3671 126.75C80.7271 125.55 82.2171 121.99 83.0171 120.89L81.9371 121.51L81.7571 121.39C82.3071 122.89 84.7271 122.24 84.1671 120.73L84.1471 120.75Z" fill="#20BEFF"/>
<path d="M6.88719 27.2104C10.6872 23.5804 14.8172 20.3804 19.2872 17.6104C20.6472 16.7604 19.3972 14.6004 18.0272 15.4504C13.3772 18.3304 9.0672 21.6704 5.1172 25.4404C3.9472 26.5504 5.71719 28.3204 6.88719 27.2104Z" fill="#20BEFF"/>
<path d="M4.42711 35.9999C9.14711 32.0699 13.8671 28.1499 18.5971 24.2199C19.8371 23.1899 18.0571 21.4299 16.8271 22.4499C12.1071 26.3799 7.38712 30.2999 2.65712 34.2299C1.41712 35.2599 3.19711 37.0199 4.42711 35.9999Z" fill="#20BEFF"/>
<path d="M5.94726 40.5897L18.4572 32.3497C19.7972 31.4697 18.5473 29.2997 17.1973 30.1897L4.68725 38.4296C3.34725 39.3096 4.59726 41.4797 5.94726 40.5897Z" fill="#20BEFF"/>
<path d="M5.6772 49.3402C8.9972 46.2802 12.5172 43.4702 16.2572 40.9302C17.5772 40.0302 16.3272 37.8602 14.9972 38.7702C11.0872 41.4302 7.38721 44.3603 3.90721 47.5703C2.72721 48.6603 4.4972 50.4302 5.6772 49.3402Z" fill="#20BEFF"/>
<path d="M4.37717 58.8397C8.21717 55.0197 12.2572 51.4297 16.5172 48.0897C17.7772 47.0997 15.9972 45.3397 14.7472 46.3197C10.4872 49.6697 6.44716 53.2497 2.60716 57.0697C1.46716 58.2097 3.23717 59.9697 4.37717 58.8397Z" fill="#20BEFF"/>
<path d="M5.24703 66.1901C9.29703 62.6001 13.687 59.5301 18.417 56.9101C19.827 56.1301 18.567 53.9701 17.157 54.7501C12.237 57.4601 7.68702 60.7002 3.48702 64.4202C2.27702 65.4902 4.05704 67.2501 5.25704 66.1901H5.24703Z" fill="#20BEFF"/>
<path d="M3.57711 74.4695C7.74711 71.2095 12.1271 68.2495 16.6971 65.5695C18.0871 64.7595 16.8271 62.5895 15.4371 63.4095C10.6871 66.1995 6.15713 69.3095 1.81713 72.6995C0.547131 73.6895 2.32712 75.4495 3.58712 74.4695H3.57711Z" fill="#20BEFF"/>
<path d="M3.54725 86.1004C6.93725 82.3604 10.7273 79.1104 14.9473 76.3404C16.2873 75.4604 15.0373 73.3004 13.6873 74.1804C9.29726 77.0504 5.30726 80.4404 1.77726 84.3304C0.697261 85.5204 2.45725 87.2904 3.54725 86.1004Z" fill="#20BEFF"/>
<path d="M6.58704 89.57C9.95704 86.29 13.757 83.61 17.967 81.51C19.407 80.79 18.137 78.63 16.707 79.35C12.317 81.54 8.33703 84.38 4.82703 87.8C3.67703 88.92 5.43705 90.69 6.59705 89.57H6.58704Z" fill="#20BEFF"/>
<path d="M5.82701 96.6103C9.70701 93.4003 13.887 90.6603 18.357 88.3503C19.787 87.6103 18.527 85.4503 17.097 86.1903C12.427 88.6003 8.09702 91.4903 4.05702 94.8403C2.81702 95.8703 4.59701 97.6303 5.82701 96.6103Z" fill="#20BEFF"/>
<path d="M6.12713 103.8C8.82713 101.03 11.9371 98.8299 15.4271 97.1799C16.8771 96.4899 15.6171 94.3399 14.1671 95.0199C10.4871 96.7599 7.19711 99.1199 4.35711 102.03C3.23711 103.18 4.99713 104.95 6.12713 103.8Z" fill="#20BEFF"/>
<path d="M3.1472 113.35C6.9172 109.95 10.9672 106.93 15.2872 104.26C16.6572 103.42 15.3972 101.25 14.0272 102.1C9.5272 104.87 5.30719 108.04 1.38719 111.58C0.187189 112.66 1.95721 114.42 3.15721 113.35H3.1472Z" fill="#20BEFF"/>
<path d="M3.94736 121.48C8.27736 118.03 12.6074 114.59 16.9374 111.14C18.1974 110.14 16.4174 108.38 15.1674 109.37C10.8374 112.82 6.50734 116.26 2.17734 119.71C0.917345 120.71 2.69736 122.47 3.94736 121.48Z" fill="#20BEFF"/>
<path d="M4.96702 128.98C8.45702 125.12 12.467 121.91 17.007 119.35C18.407 118.56 17.147 116.4 15.747 117.19C11.037 119.84 6.82703 123.2 3.19703 127.21C2.11703 128.4 3.88702 130.17 4.96702 128.98Z" fill="#20BEFF"/>
<path d="M4.84707 139.24C7.85707 135.87 11.2271 132.9 14.9771 130.38C16.3071 129.49 15.0571 127.32 13.7171 128.22C9.78707 130.86 6.23706 133.94 3.08706 137.47C2.01706 138.67 3.77705 140.44 4.85705 139.24H4.84707Z" fill="#20BEFF"/>
<path d="M5.04739 145.96L14.5174 139.42C15.8374 138.51 14.5874 136.34 13.2574 137.26L3.78741 143.8C2.46741 144.71 3.71739 146.88 5.04739 145.96Z" fill="#20BEFF"/>
<path d="M4.01713 154.4C7.39713 150.78 11.1471 147.61 15.2971 144.9C16.6371 144.02 15.3872 141.86 14.0372 142.74C9.71715 145.56 5.77715 148.86 2.25715 152.63C1.15715 153.81 2.92714 155.58 4.02714 154.4H4.01713Z" fill="#20BEFF"/>
<path d="M3.98726 163.44C7.68726 159.76 11.6373 156.37 15.8573 153.3C17.1473 152.36 15.8973 150.19 14.5973 151.14C10.2073 154.34 6.07728 157.84 2.22728 161.67C1.08728 162.81 2.85727 164.57 3.99727 163.44H3.98726Z" fill="#20BEFF"/>
<path d="M5.25716 169.47C8.68716 165.9 12.4872 162.8 16.6872 160.18C18.0472 159.33 16.7971 157.17 15.4271 158.02C11.0571 160.75 7.05714 163.98 3.48714 167.7C2.37714 168.86 4.13716 170.63 5.25716 169.47Z" fill="#20BEFF"/>
<path d="M6.56709 177.26C9.87709 173.43 13.6771 170.18 17.9771 167.52C19.3471 166.68 18.0871 164.51 16.7171 165.36C12.2371 168.13 8.24707 171.51 4.79707 175.49C3.74707 176.7 5.50709 178.48 6.56709 177.26Z" fill="#20BEFF"/>
<path d="M4.02717 187.24C7.66717 182.89 11.8572 179.14 16.5972 176.03C17.9372 175.15 16.6872 172.99 15.3372 173.87C10.4172 177.09 6.03718 180.96 2.25718 185.47C1.22718 186.7 2.98717 188.47 4.02717 187.24Z" fill="#20BEFF"/>
<path d="M5.75722 193.72C8.93722 189.65 12.7272 186.24 17.1372 183.54C18.5072 182.7 17.2572 180.54 15.8772 181.38C11.2972 184.18 7.2972 187.72 3.9872 191.95C3.0072 193.2 4.76722 194.99 5.75722 193.72Z" fill="#20BEFF"/>
<path d="M6.35701 199.56C9.80701 196.81 13.177 193.97 16.477 191.05C17.687 189.98 15.907 188.22 14.707 189.28C11.407 192.2 8.02702 195.04 4.58702 197.79C3.32702 198.79 5.10701 200.55 6.35701 199.56Z" fill="#20BEFF"/>
<path d="M6.61708 210.14C10.2071 206.09 14.0771 202.33 18.2271 198.86C19.4671 197.83 17.6871 196.07 16.4571 197.09C12.3071 200.56 8.43709 204.32 4.84709 208.37C3.78709 209.57 5.54708 211.34 6.61708 210.14Z" fill="#20BEFF"/>
<path d="M7.57735 218.89C11.6573 215.12 15.9874 211.69 20.5874 208.57C21.9074 207.67 20.6673 205.51 19.3273 206.41C14.5573 209.64 10.0474 213.21 5.81737 217.12C4.63737 218.21 6.40736 219.98 7.58736 218.89H7.57735Z" fill="#20BEFF"/>
<path d="M4.93719 230.08C9.90719 225.68 14.8872 221.29 19.8572 216.89C21.0672 215.82 19.2872 214.06 18.0872 215.12C13.1172 219.52 8.1372 223.91 3.1672 228.31C1.9572 229.38 3.73719 231.14 4.93719 230.08Z" fill="#20BEFF"/>
<path d="M5.53722 240.14C9.54722 234.78 14.4872 230.3 20.1772 226.77C21.5472 225.92 20.2872 223.76 18.9172 224.61C12.8472 228.37 7.65722 233.16 3.37722 238.88C2.41722 240.17 4.57722 241.42 5.53722 240.14Z" fill="#20BEFF"/>
<path d="M14.1473 241.41C16.5873 237.85 19.5573 234.75 22.9673 232.1C24.2373 231.12 22.4573 229.36 21.1973 230.33C17.6073 233.11 14.5472 236.4 11.9872 240.14C11.0772 241.47 13.2373 242.72 14.1473 241.4V241.41Z" fill="#20BEFF"/>
<path d="M97.877 21.8296L107.817 15.3497C108.887 14.6497 107.887 12.9197 106.807 13.6197L96.867 20.0997C95.797 20.7997 96.797 22.5296 97.877 21.8296Z" fill="#20BEFF"/>
<path d="M89.9371 21.1503C92.8771 19.1703 95.9871 17.4903 99.2671 16.1603C100.447 15.6803 99.9271 13.7504 98.7371 14.2304C95.2871 15.6304 92.0171 17.3503 88.9271 19.4303C87.8671 20.1403 88.8671 21.8803 89.9371 21.1603V21.1503Z" fill="#20BEFF"/>
<path d="M81.417 20.94L95.617 14.34C96.787 13.8 95.767 12.07 94.607 12.61C89.877 14.81 85.137 17.01 80.407 19.21C79.237 19.75 80.257 21.48 81.417 20.94Z" fill="#20BEFF"/>
<path d="M72.7371 20.8397L84.7671 14.6497C85.9071 14.0597 84.8971 12.3297 83.7571 12.9197C79.7471 14.9797 75.7371 17.0497 71.7271 19.1097C70.5871 19.6997 71.5971 21.4297 72.7371 20.8397Z" fill="#20BEFF"/>
<path d="M62.3374 20.7905L74.8974 14.8005C76.0574 14.2505 75.0474 12.5205 73.8874 13.0705C69.6974 15.0705 65.5174 17.0705 61.3274 19.0605C60.1674 19.6105 61.1774 21.3405 62.3374 20.7905Z" fill="#20BEFF"/>
<path d="M53.0073 21.2604C57.1373 19.7004 61.0973 17.8104 64.8973 15.5504C66.0073 14.8904 64.9973 13.1604 63.8873 13.8204C60.2373 15.9904 56.4473 17.8304 52.4773 19.3204C51.2873 19.7704 51.7973 21.7004 53.0073 21.2504V21.2604Z" fill="#20BEFF"/>
<path d="M44.1973 21.2298C48.4273 19.0098 52.8073 17.1798 57.3673 15.7298C58.5873 15.3398 58.0673 13.4098 56.8373 13.7998C52.1173 15.2998 47.5773 17.1998 43.1973 19.4998C42.0573 20.0998 43.0673 21.8298 44.2073 21.2298H44.1973Z" fill="#20BEFF"/>
<path d="M37.0171 21.4798C39.6871 18.9598 42.6871 16.9098 45.9871 15.2898C47.1471 14.7198 46.1271 12.9998 44.9771 13.5598C41.5271 15.2498 38.3971 17.4298 35.6071 20.0598C34.6671 20.9398 36.0871 22.3598 37.0171 21.4698V21.4798Z" fill="#20BEFF"/>
<path d="M35.5673 19.1002L38.1573 17.8002C39.3073 17.2202 38.2972 15.5002 37.1472 16.0702L34.5573 17.3702C33.4073 17.9502 34.4173 19.6702 35.5673 19.1002Z" fill="#20BEFF"/>
<path d="M104.647 28.1002L112.497 22.5902C113.547 21.8602 112.547 20.1202 111.487 20.8602L103.637 26.3702C102.587 27.1002 103.587 28.8402 104.647 28.1002Z" fill="#20BEFF"/>
<path d="M103.157 34.4797C105.257 32.4997 107.727 31.1597 110.517 30.4597C111.767 30.1497 111.237 28.2197 109.987 28.5297C106.867 29.3197 104.087 30.8597 101.747 33.0697C100.807 33.9597 102.227 35.3697 103.157 34.4797Z" fill="#20BEFF"/>
<path d="M103.037 41.6495L111.197 35.9695C112.247 35.2395 111.247 33.5095 110.187 34.2395L102.027 39.9195C100.977 40.6495 101.977 42.3795 103.037 41.6495Z" fill="#20BEFF"/>
<path d="M104.337 47.2896L111.127 42.7796C112.197 42.0696 111.197 40.3395 110.117 41.0495L103.327 45.5596C102.257 46.2696 103.257 47.9996 104.337 47.2896Z" fill="#20BEFF"/>
<path d="M103.917 53.8098L111.137 49.6998C112.257 49.0598 111.247 47.3298 110.127 47.9698L102.907 52.0798C101.787 52.7198 102.797 54.4498 103.917 53.8098Z" fill="#20BEFF"/>
<path d="M103.637 60.4603L111.737 53.8403C112.737 53.0203 111.307 51.6203 110.327 52.4303L102.227 59.0503C101.227 59.8703 102.657 61.2703 103.637 60.4603Z" fill="#20BEFF"/>
<path d="M104.547 65.25C107.037 62.96 109.837 61.12 112.907 59.71C114.077 59.17 113.057 57.45 111.897 57.98C108.667 59.47 105.747 61.43 103.127 63.84C102.177 64.71 103.597 66.12 104.537 65.25H104.547Z" fill="#20BEFF"/>
<path d="M104.037 71.6597L112.257 65.1897C113.267 64.3897 111.847 62.9897 110.847 63.7797L102.627 70.2497C101.617 71.0497 103.037 72.4497 104.037 71.6597Z" fill="#20BEFF"/>
<path d="M103.567 78.5303L110.487 72.4903C111.457 71.6403 110.037 70.2303 109.077 71.0803L102.157 77.1203C101.187 77.9703 102.607 79.3803 103.567 78.5303Z" fill="#20BEFF"/>
<path d="M103.617 85.9304L110.547 80.3304C111.547 79.5204 110.127 78.1104 109.137 78.9204L102.207 84.5204C101.207 85.3304 102.627 86.7404 103.617 85.9304Z" fill="#20BEFF"/>
<path d="M103.217 92.8803L110.057 87.1803C111.047 86.3503 109.627 84.9503 108.647 85.7703L101.807 91.4703C100.817 92.3003 102.237 93.7003 103.217 92.8803Z" fill="#20BEFF"/>
<path d="M102.287 102.31L110.547 94.5799C111.487 93.6999 110.077 92.29 109.137 93.17L100.877 100.9C99.9374 101.78 101.347 103.19 102.287 102.31Z" fill="#20BEFF"/>
<path d="M102.277 110.94L110.987 102.37C111.907 101.47 110.487 100.05 109.577 100.96L100.867 109.53C99.947 110.43 101.367 111.85 102.277 110.94Z" fill="#20BEFF"/>
<path d="M103.187 118.77C104.667 116.96 106.457 115.56 108.567 114.56C109.727 114.01 108.717 112.28 107.557 112.83C105.307 113.9 103.347 115.43 101.767 117.36C100.957 118.35 102.367 119.77 103.177 118.77H103.187Z" fill="#20BEFF"/>
<path d="M103.147 128.66C105.297 126.58 107.757 124.929 110.527 123.779C111.697 123.289 111.187 121.36 109.997 121.85C106.907 123.13 104.147 124.909 101.737 127.239C100.807 128.139 102.227 129.549 103.147 128.649V128.66Z" fill="#20BEFF"/>
<path d="M102.297 139.05C104.597 136.24 107.267 133.84 110.327 131.88C111.407 131.19 110.407 129.46 109.317 130.15C106.117 132.19 103.287 134.69 100.887 137.63C100.077 138.62 101.487 140.04 102.297 139.04V139.05Z" fill="#20BEFF"/>
<path d="M100.987 149.4C103.497 147.08 106.167 144.98 109.027 143.11C110.097 142.41 109.097 140.68 108.017 141.38C105.017 143.34 102.197 145.54 99.5773 147.98C98.6273 148.86 100.047 150.27 100.987 149.39V149.4Z" fill="#20BEFF"/>
<path d="M103.387 153.02L109.917 148.33C110.957 147.59 109.957 145.85 108.907 146.6L102.377 151.29C101.337 152.03 102.337 153.77 103.387 153.02Z" fill="#20BEFF"/>
<path d="M101.037 163.27C103.597 160.28 106.687 158 110.297 156.43C111.477 155.92 110.457 154.19 109.287 154.7C105.547 156.33 102.277 158.75 99.6273 161.85C98.7973 162.82 100.207 164.24 101.037 163.26V163.27Z" fill="#20BEFF"/>
<path d="M102.767 169.75C104.567 167.48 106.647 165.49 109.017 163.83C110.067 163.1 109.067 161.36 108.007 162.1C105.487 163.86 103.257 165.92 101.347 168.33C100.557 169.33 101.957 170.75 102.757 169.74L102.767 169.75Z" fill="#20BEFF"/>
<path d="M101.527 179.78L110.057 173.15C111.077 172.36 109.647 170.95 108.647 171.74L100.117 178.37C99.097 179.16 100.527 180.57 101.527 179.78Z" fill="#20BEFF"/>
<path d="M101.007 187.88C103.677 185.13 106.617 182.71 109.837 180.63C110.917 179.93 109.917 178.2 108.827 178.9C105.467 181.07 102.377 183.6 99.5874 186.47C98.6874 187.39 100.107 188.81 100.997 187.88H101.007Z" fill="#20BEFF"/>
<path d="M102.857 194.05C105.567 191.49 108.457 189.17 111.547 187.07C112.607 186.35 111.607 184.62 110.537 185.34C107.317 187.53 104.287 189.96 101.447 192.63C100.507 193.51 101.927 194.93 102.857 194.04V194.05Z" fill="#20BEFF"/>
<path d="M102.137 202.45C105.027 198.7 108.637 195.7 112.807 193.46C113.947 192.85 112.937 191.12 111.797 191.73C107.307 194.13 103.517 197.4 100.407 201.43C99.6171 202.45 101.357 203.45 102.137 202.44V202.45Z" fill="#20BEFF"/>
<path d="M101.477 209.51C104.037 206.87 106.737 204.38 109.577 202.04C110.567 201.22 109.147 199.81 108.167 200.63C105.327 202.97 102.627 205.46 100.067 208.1C99.1674 209.02 100.587 210.44 101.477 209.51Z" fill="#20BEFF"/>
<path d="M101.487 216.43C104.437 213.31 107.797 210.74 111.587 208.72C112.727 208.11 111.717 206.39 110.577 206.99C106.647 209.09 103.127 211.77 100.067 215.01C99.1874 215.95 100.597 217.36 101.477 216.42L101.487 216.43Z" fill="#20BEFF"/>
<path d="M103.107 223.69C106.167 220.14 109.717 217.18 113.777 214.84C114.887 214.2 113.887 212.47 112.767 213.11C108.567 215.53 104.857 218.6 101.687 222.28C100.847 223.25 102.257 224.67 103.097 223.69H103.107Z" fill="#20BEFF"/>
</svg>
