<svg width="78" height="116" viewBox="0 0 78 116" fill="none" xmlns="http://www.w3.org/2000/svg">
<path d="M1.09 24.6598C4.68 28.6698 7.91001 32.9298 10.82 37.4698C12.55 40.1698 16.88 37.6699 15.14 34.9499C12.01 30.0599 8.50001 25.4499 4.63001 21.1299C2.48001 18.7299 -1.05 22.2699 1.09 24.6699V24.6598Z" fill="#20BEFF"/>
<path d="M4.24996 25.0701C27.61 25.2201 50.97 24.7701 74.31 23.7201C77.51 23.5801 77.53 18.5701 74.31 18.7201C50.97 19.7701 27.61 20.2201 4.24996 20.0701C1.02996 20.0501 1.02996 25.0501 4.24996 25.0701Z" fill="#20BEFF"/>
<path d="M73.22 20.0694C68.97 24.9894 64.92 30.0594 61.03 35.2694C59.1 37.8494 63.44 40.3494 65.35 37.7894C68.98 32.9194 72.79 28.1994 76.76 23.5994C78.85 21.1694 75.33 17.6194 73.22 20.0594V20.0694Z" fill="#20BEFF"/>
<path d="M14.0399 39.2397C30.4199 39.8497 46.8099 39.7797 63.1899 39.0297C66.3899 38.8797 66.4099 33.8797 63.1899 34.0297C46.8099 34.7797 30.4299 34.8497 14.0399 34.2397C10.8199 34.1197 10.8299 39.1197 14.0399 39.2397Z" fill="#20BEFF"/>
<path d="M14.9101 38.9497C19.8701 45.5497 27.3801 51.3097 35.9101 51.8897C45.2301 52.5197 52.8701 46.4597 58.4701 39.6697C60.5001 37.2097 56.9801 33.6497 54.9301 36.1297C50.5301 41.4697 44.8201 46.8497 37.4501 46.9397C30.0801 47.0297 23.3701 41.9497 19.2201 36.4297C17.3101 33.8897 12.9701 36.3797 14.9001 38.9497H14.9101Z" fill="#20BEFF"/>
<path d="M28.9801 51.1298C28.8001 71.5898 24.8701 91.8399 25.4301 112.33C25.5201 115.54 30.5201 115.55 30.4301 112.33C29.8701 91.8399 33.8001 71.5998 33.9801 51.1298C34.0101 47.9098 29.0101 47.9098 28.9801 51.1298Z" fill="#20BEFF"/>
<path d="M39.1899 51.9898C43.6499 72.4398 44.53 93.6099 51.13 113.59C52.13 116.63 56.9599 115.33 55.9499 112.26C49.3499 92.2799 48.4699 71.1199 44.0099 50.6599C43.3199 47.5199 38.4999 48.8498 39.1899 51.9898Z" fill="#20BEFF"/>
<path d="M26.85 5.68983L36.17 6.11982L33.67 3.61982C33.45 9.37982 33.63 15.1098 34.21 20.8498C34.53 24.0198 39.53 24.0498 39.21 20.8498C38.63 15.1198 38.45 9.37982 38.67 3.61982C38.72 2.21982 37.48 1.17982 36.17 1.11982L26.85 0.689832C23.63 0.539832 23.64 5.53983 26.85 5.68983Z" fill="#20BEFF"/>
<path d="M41.7799 12.3696C45.6799 13.0596 49.4799 13.0596 53.3799 12.3896C56.5399 11.8396 55.1999 7.0196 52.0499 7.5696C49.0899 8.0796 46.0599 8.06958 43.1099 7.54958C39.9599 6.99958 38.6099 11.8096 41.7799 12.3696Z" fill="#20BEFF"/>
<path d="M43.76 11.5096C44.39 13.9796 44.84 16.4696 45.08 18.9996C45.21 20.3396 46.14 21.4996 47.58 21.4996C48.83 21.4996 50.21 20.3496 50.08 18.9996C49.8 16.0196 49.31 13.0796 48.58 10.1796C47.79 7.05958 42.97 8.3796 43.76 11.5096Z" fill="#20BEFF"/>
<path d="M39.4499 21.4797L46.4299 21.6797C48.4799 21.7397 51.1799 21.3697 53.1699 21.9097L51.4199 20.1597C51.6699 20.7997 51.7099 21.4797 51.8099 22.1497C52.2699 25.3197 57.0899 23.9697 56.6299 20.8197C56.1699 17.6697 54.8699 16.9197 51.6499 16.8297L39.4399 16.4797C36.2199 16.3897 36.2199 21.3897 39.4399 21.4797H39.4499Z" fill="#20BEFF"/>
<path d="M18.51 21.3194C18.64 20.5694 32.77 21.2994 34.13 21.3194C37.35 21.3694 37.35 16.3694 34.13 16.3194C29.5 16.2494 24.86 16.1194 20.23 16.1094C17.37 16.1094 14.24 16.6994 13.69 19.9894C13.14 23.2794 17.98 24.4894 18.51 21.3194Z" fill="#20BEFF"/>
<path d="M24.99 17.9996L25.11 14.1896C25.15 12.8796 23.93 11.6296 22.61 11.6896C21.22 11.7496 20.15 12.7896 20.11 14.1896L19.99 17.9996C19.95 19.3096 21.17 20.5596 22.49 20.4996C23.88 20.4396 24.95 19.3996 24.99 17.9996Z" fill="#20BEFF"/>
<path d="M16.03 13.0303H28.32C31.54 13.0303 31.54 8.03027 28.32 8.03027H16.03C12.81 8.03027 12.81 13.0303 16.03 13.0303Z" fill="#20BEFF"/>
</svg>
