<?xml version="1.0" encoding="UTF-8"?>
<svg id="_Слой_2" data-name="Слой 2" xmlns="http://www.w3.org/2000/svg" viewBox="0 0 23.11 23.7">
  <defs>
    <style>
      .cls-1 {
        fill: #3a3a3a;
      }
    </style>
  </defs>
  <g id="_Слой_88" data-name="Слой 88">
    <path class="cls-1" d="M4,2.88c.16,3.58,.82,7.12,1.97,10.51,.2,.57,.77,.95,1.38,.79,.56-.15,.98-.81,.79-1.38-1.09-3.2-1.74-6.53-1.89-9.91-.03-.61-.5-1.12-1.12-1.12-.59,0-1.15,.52-1.12,1.12h0Z"/>
    <path class="cls-1" d="M13.28,1.12l1.19,9.94c.07,.6,.47,1.12,1.12,1.12,.55,0,1.2-.52,1.12-1.12L15.53,1.12c-.07-.6-.47-1.12-1.12-1.12-.55,0-1.2,.52-1.12,1.12h0Z"/>
    <path class="cls-1" d="M.5,20.15c3.97,2.79,9.05,4.51,13.85,2.96,4.13-1.33,7.44-4.66,8.71-8.81,.42-1.39-1.75-1.98-2.17-.6-1.07,3.48-3.93,6.29-7.42,7.32-4.17,1.23-8.42-.43-11.83-2.83-1.19-.83-2.31,1.12-1.14,1.94H.5Z"/>
  </g>
</svg>