<svg width="195" height="45" viewBox="0 0 195 45" fill="none" xmlns="http://www.w3.org/2000/svg">
<mask id="mask0_840_90991" style="mask-type:alpha" maskUnits="userSpaceOnUse" x="0" y="0" width="195" height="45">
<path fill-rule="evenodd" clip-rule="evenodd" d="M195 0H0V45H81.5966C81.7004 44.6026 81.9053 44.239 82.2301 43.9703C84.4719 42.1111 88.0308 42.3593 91.1736 42.5784C92.1384 42.6457 93.0639 42.7103 93.9001 42.7103C99.7401 42.7103 105.57 42.8003 111.41 42.9603C123.41 43.3003 135.39 43.9703 147.35 44.9403C147.488 44.9515 147.621 44.9717 147.747 45H153.384L166.07 44.8207C166.453 44.8147 166.79 44.8801 167.081 45H195V0Z" fill="#D9D9D9"/>
</mask>
<g mask="url(#mask0_840_90991)">
<path d="M116.36 49.0107C121.19 49.0107 121.19 41.5107 116.36 41.5107C111.53 41.5107 111.53 49.0107 116.36 49.0107Z" fill="#3A3A3A"/>
<path d="M146.8 48.4904C156.42 36.7804 160.9 18.8504 151 5.89045C149.76 4.27045 147.81 3.43045 145.87 4.54045C137.2 9.51045 134.32 21.0304 137.69 30.0905C141.58 40.5505 152.57 44.1004 162.77 40.6404C172.83 37.2304 179.04 27.1305 180.37 16.9305C180.92 12.6604 181.38 5.10045 178.04 1.83045C174.7 -1.43955 168.89 -1.20955 165.06 0.92045C157.56 5.08045 152.07 15.4205 154.12 23.9005C157.01 35.8605 170.65 34.2205 177.28 26.3305C183.89 18.4705 190.4 7.28045 188.63 -3.36955C186.86 -14.0196 176.53 -20.0996 166.25 -21.0596C155.14 -22.0996 143.83 -17.6096 135.23 -10.7796C127.57 -4.70955 121.96 7.40045 128.76 16.1805C135.56 24.9604 148.14 22.3904 152.32 12.6805C153.97 8.85045 154.83 3.42045 151.56 0.290451C148.29 -2.83955 144.1 -5.01955 139.82 -6.32955C130.89 -9.06955 120.96 -7.94955 112.45 -4.34955C104.76 -1.08955 95.7801 5.37045 93.1601 13.7705C90.1301 23.4604 99.73 33.4804 108.76 35.0904C117.02 36.5504 126.6 35.0805 133.53 30.1305C140.46 25.1805 142.87 17.4504 140.02 9.60045C136.71 0.490448 126.96 -2.27955 118.1 -1.55955C98.41 0.0304508 77.9301 20.8704 87.9101 41.3104C92.8901 51.5005 107.96 48.0204 115.42 43.1404C123.88 37.6105 131.78 28.5405 133.02 18.2205C134.31 7.49045 128.84 -2.25955 118.12 -4.94955C105.03 -8.22955 89.77 -5.28955 77.33 -0.649549C70.15 2.02045 56.8101 7.95045 58.0201 17.7804C58.5401 22.0104 64.2 23.9104 67.88 24.4505C73.53 25.2805 79.19 23.5305 84.25 21.1305C93.45 16.7705 103.25 8.65045 101.88 -2.61955C100.73 -12.0695 92.14 -18.3196 83.26 -19.6296C74.38 -20.9396 65.3801 -18.7196 57.7801 -14.4296C50.1801 -10.1396 42.0401 -1.50955 47.5301 7.68045C54.0201 18.5405 67.2 14.5504 74.84 7.39045C83.09 -0.33955 84.6501 -12.9296 77.6801 -22.1296C71.1901 -30.6896 55.34 -29.9796 46.2701 -26.8396C41.26 -25.0996 36.71 -22.4196 32.63 -19.0596C28.55 -15.6996 23.9601 -11.4595 20.7901 -6.96955C17.8301 -2.75955 14.09 1.55045 14.83 7.07045C15.5 12.0304 19.62 15.5804 24.21 17.1004C33.53 20.1805 45.8501 15.0204 52.1501 8.01045C58.4501 1.00045 58.73 -12.5896 50.32 -18.4896C40.45 -25.4096 28.03 -24.5596 17.35 -20.0796C8.40001 -16.3196 -2.12998 -7.95955 1.55002 3.11045C5.00002 13.4505 18.32 14.8605 27.51 14.3605C42.06 13.5605 56.3001 10.1204 70.5501 7.36045C75.2801 6.44045 73.2801 -0.789551 68.5601 0.130449C54.3601 2.89045 40.11 6.49045 25.59 6.96045C21.06 7.11045 14.15 6.82045 10.55 3.55045C5.02002 -1.45955 10.9901 -8.21955 15.6501 -10.9795C24.7601 -16.3895 41.3301 -19.9996 48.0201 -9.44955C54.4701 0.710449 39.7401 10.0005 30.9001 10.4804C28.3901 10.6204 25.17 10.1805 23.39 8.15045C20.96 5.38045 23.06 2.77045 24.75 0.32045C27.89 -4.24955 31.6201 -7.79955 35.5501 -11.6695C39.7801 -15.8396 45.4001 -19.0596 51.1701 -20.4696C56.4201 -21.7596 63.58 -21.9796 68.69 -19.9296C75.35 -17.2496 76.0101 -6.54955 72.5301 -1.38955C69.8401 2.59045 62.1101 9.23045 56.9101 6.54045C44.5201 0.140451 64.77 -10.0395 70.33 -11.4595C78.7 -13.5895 93.8601 -12.7495 94.5301 -1.06955C94.9201 5.75045 88.2901 10.4005 83.0501 13.3204C77.8101 16.2404 69.8601 19.4005 64.4201 15.1305L65.5201 17.7804C65.79 13.4604 70.2001 10.9404 73.6601 9.02045C78.8201 6.16045 85.05 4.79045 90.72 3.43045C100.28 1.13045 119.82 -2.71955 124.69 9.19045C128.79 19.2104 121.04 29.3804 113.54 35.2704C109.68 38.3004 104.95 40.5304 99.9301 40.3104C93.7601 40.0405 92.4901 33.8104 93.0201 28.4604C93.9901 18.5704 103.17 9.53045 112.47 6.93045C119.49 4.96045 131.08 4.48045 133.31 13.3605C135.31 21.3305 128.15 25.7505 121.35 27.3704C117.93 28.1805 114.24 28.4204 110.75 27.8704C105.72 27.0804 98.46 21.4704 100.48 15.6704C103.26 7.69045 113.48 2.52045 121.05 0.67045C130.16 -1.55955 140.15 -0.189552 147.11 6.44045L146.01 3.79045C146.36 6.83045 146.1 10.0005 143.77 12.2705C140.99 14.9705 136.71 14.6504 134.46 11.3904C130.3 5.37045 136.25 -2.27955 140.92 -5.73955C150.42 -12.7696 164.29 -16.9095 175.19 -10.5896C187.47 -3.46955 178.81 14.6105 171.12 22.1305C168.68 24.5205 163.76 27.0405 161.7 23.1404C160.6 21.0604 161.21 18.1604 161.97 16.1204C163.68 11.5405 168.48 4.50045 173.88 8.02045L172.16 5.78045C175.29 17.4204 169.89 33.3405 156.18 34.4005C143.43 35.3904 139.08 17.0905 149.67 11.0205L144.54 9.67045C152.31 19.8504 149.19 33.8305 141.51 43.1805C138.47 46.8804 143.75 52.2205 146.81 48.4805L146.8 48.4904Z" fill="#3A3A3A"/>
<path d="M135.27 46.8608C139.55 41.4908 151.72 24.4508 140.41 20.1308C126.31 14.7408 123.15 36.4408 125.31 45.4508C126.44 50.1408 133.67 48.1508 132.54 43.4608C131.72 40.0708 131.93 36.2108 132.74 32.8308C133.12 31.2308 133.65 29.1108 134.91 27.9308C135.52 27.3508 135.88 27.3908 136.54 27.0508C137.08 26.7708 138.12 27.4708 137.61 27.0108C137.05 26.5008 137.64 26.5908 137.45 27.2208C137.24 27.9408 137.18 28.7408 136.94 29.4808C136.39 31.2108 135.53 32.8308 134.65 34.4108C133.31 36.8208 131.41 39.7808 129.97 41.5808C126.99 45.3208 132.26 50.6608 135.27 46.8808V46.8608Z" fill="#3A3A3A"/>
<path d="M114.92 37.6402C113.39 39.6202 112.23 41.6002 111.4 43.9702C110.75 45.8202 112.14 48.1502 114.02 48.5802C116.12 49.0602 117.94 47.9502 118.63 45.9602C118.7 45.7602 118.77 45.5602 118.84 45.3702C118.66 45.7802 118.65 45.7902 118.83 45.4002C118.99 45.0702 119.15 44.7402 119.33 44.4202C119.51 44.1002 119.69 43.7802 119.89 43.4702C119.97 43.3402 120.75 42.2602 120.22 42.9502C120.86 42.1302 121.32 41.3902 121.32 40.3002C121.32 39.3802 120.91 38.2802 120.22 37.6502C118.88 36.4202 116.2 35.9902 114.92 37.6502V37.6402Z" fill="#3A3A3A"/>
</g>
</svg>
