<svg width="195" height="45" viewBox="0 0 195 45" fill="none" xmlns="http://www.w3.org/2000/svg">
<mask id="mask0_840_90992" style="mask-type:alpha" maskUnits="userSpaceOnUse" x="0" y="0" width="195" height="45">
<path fill-rule="evenodd" clip-rule="evenodd" d="M195 0H0V45H81.5966C81.7004 44.6026 81.9053 44.239 82.2301 43.9703C84.4719 42.1111 88.0308 42.3593 91.1736 42.5784C92.1384 42.6457 93.0639 42.7103 93.9001 42.7103C99.7401 42.7103 105.57 42.8003 111.41 42.9603C123.41 43.3003 135.39 43.9703 147.35 44.9403C147.488 44.9515 147.621 44.9717 147.747 45H153.384L166.07 44.8207C166.453 44.8147 166.79 44.8801 167.081 45H195V0Z" fill="#D9D9D9"/>
</mask>
<g mask="url(#mask0_840_90992)">
<path d="M116.36 49.0107C121.19 49.0107 121.19 41.5107 116.36 41.5107C111.53 41.5107 111.53 49.0107 116.36 49.0107Z" fill="#3A3A3A"/>
<path d="M146.8 48.4904C156.42 36.7804 160.9 18.8504 151 5.89045C149.76 4.27045 147.81 3.43045 145.87 4.54045C137.2 9.51045 134.32 21.0304 137.69 30.0905C141.58 40.5505 152.57 44.1004 162.77 40.6404C172.83 37.2304 179.04 27.1305 180.37 16.9305C180.92 12.6605 181.38 5.10045 178.04 1.83045C174.7 -1.43955 168.89 -1.20955 165.06 0.92045C157.56 5.08045 152.07 15.4205 154.12 23.9005C157.01 35.8605 170.65 34.2205 177.28 26.3305C183.89 18.4705 190.4 7.28045 188.63 -3.36955C186.86 -14.0196 176.53 -20.0996 166.25 -21.0596C155.14 -22.0996 143.83 -17.6096 135.23 -10.7796C127.57 -4.70955 121.96 7.40045 128.76 16.1805C135.56 24.9605 148.14 22.3905 152.32 12.6805C153.97 8.85045 154.83 3.42045 151.56 0.290451C148.29 -2.83955 144.1 -5.01955 139.82 -6.32955C130.89 -9.06955 120.96 -7.94955 112.45 -4.34955C104.76 -1.08955 95.7801 5.37045 93.1601 13.7705C90.1301 23.4605 99.73 33.4804 108.76 35.0904C117.02 36.5504 126.6 35.0805 133.53 30.1305C140.46 25.1805 142.87 17.4504 140.02 9.60045C136.71 0.490449 126.96 -2.27955 118.1 -1.55955C98.41 0.0304507 77.9301 20.8704 87.9101 41.3104C92.8901 51.5004 107.96 48.0204 115.42 43.1404C123.88 37.6104 131.78 28.5405 133.02 18.2205C134.31 7.49045 128.84 -2.25955 118.12 -4.94955C105.03 -8.22955 89.77 -5.28955 77.33 -0.649549C70.15 2.02045 56.8101 7.95045 58.0201 17.7804C58.5401 22.0104 64.2 23.9105 67.88 24.4505C73.53 25.2805 79.19 23.5305 84.25 21.1305C93.45 16.7705 103.25 8.65045 101.88 -2.61955C100.73 -12.0696 92.14 -18.3196 83.26 -19.6296C74.38 -20.9396 65.3801 -18.7196 57.7801 -14.4296C50.1801 -10.1396 42.0401 -1.50955 47.5301 7.68045C54.0201 18.5405 67.2 14.5504 74.84 7.39045C83.09 -0.33955 84.6501 -12.9296 77.6801 -22.1296C71.1901 -30.6896 55.34 -29.9796 46.2701 -26.8396C41.26 -25.0996 36.71 -22.4196 32.63 -19.0596C28.55 -15.6996 23.9601 -11.4595 20.7901 -6.96955C17.8301 -2.75955 14.09 1.55045 14.83 7.07045C15.5 12.0304 19.62 15.5804 24.21 17.1004C33.53 20.1804 45.8501 15.0204 52.1501 8.01045C58.4501 1.00045 58.73 -12.5896 50.32 -18.4896C40.45 -25.4096 28.03 -24.5596 17.35 -20.0796C8.40001 -16.3196 -2.12998 -7.95955 1.55002 3.11045C5.00002 13.4505 18.32 14.8605 27.51 14.3605C42.06 13.5605 56.3001 10.1205 70.5501 7.36045C75.2801 6.44045 73.2801 -0.789551 68.5601 0.130449C54.3601 2.89045 40.11 6.49045 25.59 6.96045C21.06 7.11045 14.15 6.82045 10.55 3.55045C5.02002 -1.45955 10.9901 -8.21955 15.6501 -10.9795C24.7601 -16.3895 41.33 -19.9996 48.0201 -9.44955C54.47 0.710449 39.7401 10.0004 30.9001 10.4804C28.3901 10.6204 25.17 10.1805 23.39 8.15045C20.96 5.38045 23.06 2.77045 24.75 0.32045C27.89 -4.24955 31.6201 -7.79955 35.5501 -11.6695C39.7801 -15.8396 45.4001 -19.0596 51.1701 -20.4696C56.4201 -21.7596 63.58 -21.9796 68.69 -19.9296C75.35 -17.2496 76.0101 -6.54955 72.5301 -1.38955C69.8401 2.59045 62.1101 9.23045 56.9101 6.54045C44.5201 0.140451 64.77 -10.0395 70.33 -11.4595C78.7 -13.5895 93.8601 -12.7495 94.5301 -1.06955C94.9201 5.75045 88.2901 10.4004 83.0501 13.3204C77.8101 16.2404 69.8601 19.4005 64.4201 15.1305L65.5201 17.7804C65.7901 13.4604 70.2001 10.9405 73.6601 9.02045C78.8201 6.16045 85.05 4.79045 90.72 3.43045C100.28 1.13045 119.82 -2.71955 124.69 9.19045C128.79 19.2104 121.04 29.3804 113.54 35.2704C109.68 38.3004 104.95 40.5304 99.9301 40.3104C93.7601 40.0404 92.4901 33.8104 93.0201 28.4604C93.9901 18.5704 103.17 9.53045 112.47 6.93045C119.49 4.96045 131.08 4.48045 133.31 13.3605C135.31 21.3305 128.15 25.7504 121.35 27.3704C117.93 28.1804 114.24 28.4204 110.75 27.8704C105.72 27.0804 98.46 21.4704 100.48 15.6704C103.26 7.69045 113.48 2.52045 121.05 0.67045C130.16 -1.55955 140.15 -0.189551 147.11 6.44045L146.01 3.79045C146.36 6.83045 146.1 10.0005 143.77 12.2705C140.99 14.9705 136.71 14.6504 134.46 11.3904C130.3 5.37045 136.25 -2.27955 140.92 -5.73955C150.42 -12.7695 164.29 -16.9096 175.19 -10.5896C187.47 -3.46955 178.81 14.6105 171.12 22.1305C168.68 24.5205 163.76 27.0404 161.7 23.1404C160.6 21.0604 161.21 18.1604 161.97 16.1204C163.68 11.5404 168.48 4.50045 173.88 8.02045L172.16 5.78045C175.29 17.4204 169.89 33.3405 156.18 34.4005C143.43 35.3905 139.08 17.0905 149.67 11.0205L144.54 9.67045C152.31 19.8504 149.19 33.8305 141.51 43.1805C138.47 46.8805 143.75 52.2205 146.81 48.4805L146.8 48.4904Z" fill="#3A3A3A"/>
<path d="M135.27 46.8608C139.55 41.4908 151.72 24.4508 140.41 20.1308C126.31 14.7408 123.15 36.4408 125.31 45.4508C126.44 50.1408 133.67 48.1508 132.54 43.4608C131.72 40.0708 131.93 36.2108 132.74 32.8308C133.12 31.2308 133.65 29.1108 134.91 27.9308C135.52 27.3508 135.88 27.3908 136.54 27.0508C137.08 26.7708 138.12 27.4708 137.61 27.0108C137.05 26.5008 137.64 26.5908 137.45 27.2208C137.24 27.9408 137.18 28.7408 136.94 29.4808C136.39 31.2108 135.53 32.8308 134.65 34.4108C133.31 36.8208 131.41 39.7808 129.97 41.5808C126.99 45.3208 132.26 50.6608 135.27 46.8808V46.8608Z" fill="#3A3A3A"/>
<path d="M114.92 37.6402C113.39 39.6202 112.23 41.6002 111.4 43.9702C110.75 45.8202 112.14 48.1502 114.02 48.5802C116.12 49.0602 117.94 47.9502 118.63 45.9602C118.7 45.7602 118.77 45.5602 118.84 45.3702C118.66 45.7802 118.65 45.7902 118.83 45.4002C118.99 45.0702 119.15 44.7402 119.33 44.4202C119.51 44.1002 119.69 43.7802 119.89 43.4702C119.97 43.3402 120.75 42.2602 120.22 42.9502C120.86 42.1302 121.32 41.3902 121.32 40.3002C121.32 39.3802 120.91 38.2802 120.22 37.6502C118.88 36.4202 116.2 35.9902 114.92 37.6502V37.6402Z" fill="#3A3A3A"/>
<path d="M107.12 1.53733C105.172 3.72919 104.546 7.25511 104.546 10.1206C104.546 14.8352 108.582 15.2657 111.937 16.2243C119.296 18.3271 128.362 13.1125 126.838 4.73222C126.49 2.81576 122.529 0.915237 120.83 0.702841C117.184 0.247153 114.844 0.861712 111.412 1.87112C109.697 2.37568 107.432 3.61048 106.167 4.87528C104.76 6.28168 107.992 7.11647 106.048 7.11647C102.07 7.11647 96.7529 4.34307 93.0534 2.92019C89.1503 1.41901 86.0248 0.678999 81.7998 0.678999C80.8248 0.678999 77.5556 1.73278 77.5081 2.92019C77.402 5.57406 80.3481 6.44913 82.7058 6.66347C84.3018 6.80856 87.3799 7.38527 87.7842 5.16139C88.3494 2.0528 84.8731 0.517528 82.372 0.154464C78.1207 -0.462664 74.816 0.0138164 70.7368 1.01279C66.9676 1.93588 62.219 3.68772 59.0779 6.04356C57.2141 7.44136 61.0118 8.53392 62.0582 7.54564C63.8458 5.85729 63.2948 3.52938 61.8436 1.96649C59.4325 -0.630063 53.0061 -1.03766 49.6124 -1.03766C46.3201 -1.03766 43.2535 -1.56472 40.9337 1.01279C38.8385 3.34085 43.8476 3.42172 42.2212 1.6327C40.246 -0.540073 33.4506 0.541057 31.1821 1.10816C30.157 1.36444 27.7568 3.25399 30.0854 3.25399C31.8159 3.25399 34.4184 1.89319 33.6379 -0.274701C32.9126 -2.28949 26.8833 -2.59348 25.1023 -2.73048C22.3614 -2.94132 20 -2.79658 20 0.249834" stroke="#3A3A3A" stroke-width="5" stroke-linecap="round"/>
<path d="M42.3167 5.8291C37.9192 5.8291 35.4817 12.0436 36.9521 15.8668C38.7279 20.4837 43.9561 23.1454 48.778 22.5427C55.3818 21.7172 58.0179 13.8698 51.7345 10.3353C49.6325 9.15295 43.8228 8.07109 42.8412 11.4082C41.7526 15.1095 45.2925 17.5602 48.5634 17.8219C52.2124 18.1138 58.4354 17.9423 61.4384 15.4853C62.0919 14.9506 64.2076 13.8838 63.6796 12.6957C62.9777 11.1165 60.1397 13.9244 59.674 14.317C56.9128 16.6451 52.7358 24.0757 57.3613 26.6198C62.3334 29.3544 71.4036 29.0708 75.9823 25.2846C79.2296 22.5993 80.8838 17.4243 76.6737 15.0561C72.7678 12.859 68.5563 15.3596 67.2083 19.5624C63.3355 31.6363 81.4567 36.557 86.5207 26.429" stroke="#3A3A3A" stroke-width="5" stroke-linecap="round"/>
<path d="M140.595 -1.89545C143.815 -1.99605 140.271 -3.11595 139.761 -0.822541C138.955 2.80429 145.491 3.94206 147.891 4.54202" stroke="#3A3A3A" stroke-width="5" stroke-linecap="round"/>
<path d="M149.608 -0.608085C153.96 -3.7729 161.164 -4.83299 160.313 2.82524C159.955 6.05018 156.195 8.83354 153.041 8.83354C150.905 8.83354 147.889 6.3972 150.943 5.20949C153.439 4.23898 156.841 4.54189 159.479 4.54189C161.655 4.54189 164.827 3.98275 166.751 5.23333C170.789 7.85818 166.284 15.0369 163.913 17.1784C160.187 20.5446 157.025 22.996 151.754 22.996C146.764 22.996 142.137 21.5412 137.162 21.2793" stroke="#3A3A3A" stroke-width="5" stroke-linecap="round"/>
<path d="M158.191 27.287C153.749 30.5849 148.904 32.0569 143.361 32.0079C138.023 31.9606 127.065 32.6915 124.716 26.4287" stroke="#3A3A3A" stroke-width="5" stroke-linecap="round"/>
<path d="M133.729 35.4411C129.763 34.1191 124.911 31.9593 122.618 28.3122C119.144 22.7847 123.169 17.9056 126.433 13.5537" stroke="#3A3A3A" stroke-width="5" stroke-linecap="round"/>
<path d="M118.279 33.2957C111.013 33.0939 98.585 25.7652 98.585 17.7981C98.585 7.32965 106.64 2.72199 115.704 0.25" stroke="#3A3A3A" stroke-width="5" stroke-linecap="round"/>
<path d="M111.841 29.4336C111.841 23.2439 111.578 17.1985 113.773 11.2895C116.106 5.00842 124.393 4.75651 129.866 5.40039" stroke="#3A3A3A" stroke-width="5" stroke-linecap="round"/>
<path d="M106.691 37.5874C99.7172 35.6854 100.254 25.0634 100.254 19.5625" stroke="#3A3A3A" stroke-width="5" stroke-linecap="round"/>
</g>
</svg>
