<svg width="157" height="126" viewBox="0 0 157 126" fill="none" xmlns="http://www.w3.org/2000/svg">
<mask id="mask0_635_156" style="mask-type:alpha" maskUnits="userSpaceOnUse" x="0" y="0" width="157" height="126">
<path fill-rule="evenodd" clip-rule="evenodd" d="M130.447 125.091C130.931 89.7003 130.534 54.3097 129.25 18.9376C129.244 18.7676 129.252 18.6075 129.272 18.4551C129.035 17.293 129.508 15.9786 130.97 15.5469C135.315 14.2637 139.188 11.7071 143.054 9.15436L143.068 9.14265L143.095 9.12507L143.112 9.11343C143.801 8.65833 144.489 8.20329 145.18 7.75593C149.035 5.26234 152.827 2.66815 156.561 0H29.5L29.3411 0.0996545C31.6008 0.109832 33.0963 3.44624 30.6598 4.72858C21.1123 9.74811 11.4986 14.6446 1.81876 19.4141C4.58724 40.6796 3.30505 61.9705 2.02204 83.275L2.02201 83.2755L2.02198 83.2759C1.20428 96.8539 0.386272 110.437 0.616454 124.021C43.8942 124.36 87.1705 124.722 130.447 125.091Z" fill="#D9D9D9"/>
</mask>
<g mask="url(#mask0_635_156)">
<path d="M27.7999 5.96713L93.5999 5.67709C114.98 5.58709 136.48 6.14714 157.82 4.72714C161.01 4.51714 161.04 -0.482864 157.82 -0.272864C136.48 1.13714 114.97 0.577087 93.5999 0.677087L27.7999 0.967126C24.5799 0.977126 24.5799 5.97713 27.7999 5.96713Z" fill="#20BEFF"/>
<path d="M1.34991 20.8778C23.7799 20.1478 46.21 19.4277 68.64 18.6977C91.07 17.9677 111.75 19.0377 133.38 20.0677C136.6 20.2177 136.59 15.2177 133.38 15.0677C111.75 14.0477 90.3 12.9977 68.64 13.6977C46.98 14.3977 23.7799 15.1478 1.34991 15.8778C-1.86009 15.9778 -1.87009 20.9778 1.34991 20.8778Z" fill="#20BEFF"/>
<path d="M13.07 59.997C13.26 83.737 13.44 107.477 13.63 131.207C13.66 134.427 18.66 134.427 18.63 131.207C18.44 107.467 18.26 83.727 18.07 59.997C18.04 56.777 13.04 56.777 13.07 59.997Z" fill="#20BEFF"/>
<path d="M16.43 60.6166C49.73 59.8866 83.04 59.7865 116.34 60.3265C119.56 60.3765 119.56 55.3765 116.34 55.3265C83.04 54.7965 49.73 54.8866 16.43 55.6166C13.22 55.6866 13.21 60.6866 16.43 60.6166Z" fill="#20BEFF"/>
<path d="M114.7 58.3779C114.03 83.8279 114.42 109.288 115.88 134.708C116.06 137.908 121.06 137.928 120.88 134.708C119.42 109.288 119.03 83.8379 119.7 58.3779C119.78 55.1579 114.78 55.1579 114.7 58.3779Z" fill="#20BEFF"/>
<path d="M18.17 68.6365H17.77C16.69 68.6065 15.63 69.4166 15.36 70.4666L15.23 70.9466C14.93 72.0866 15.45 73.1266 16.38 73.7666C18.55 75.2566 22.1601 74.4066 24.5701 74.3566C28.5201 74.2766 32.47 74.1766 36.41 74.0666C44.97 73.8266 53.5201 73.5567 62.0801 73.3767C79.1701 73.0267 96.2701 73.1166 113.31 74.6066C116.51 74.8866 116.5 69.8866 113.31 69.6066C97.2501 68.2066 81.15 68.0366 65.04 68.3166C57.14 68.4566 49.24 68.6966 41.35 68.9266C37.4 69.0366 33.45 69.1567 29.5 69.2467C27.39 69.2967 19.98 70.1866 18.9 69.4466L20.05 72.2666L20.18 71.7866L17.77 73.6267H18.17C21.39 73.6967 21.39 68.6965 18.17 68.6365Z" fill="#20BEFF"/>
<path d="M45.65 67.0574C59.83 66.3574 74.01 66.3375 88.18 66.9875C91.4 67.1375 91.39 62.1375 88.18 61.9875C74 61.3375 59.82 61.3574 45.65 62.0574C42.45 62.2174 42.43 67.2174 45.65 67.0574Z" fill="#20BEFF"/>
<path d="M12.8999 16.1973C16.1199 16.1973 16.1199 11.1973 12.8999 11.1973C9.67992 11.1973 9.67992 16.1973 12.8999 16.1973Z" fill="#20BEFF"/>
<path d="M14.5912 16.48C18.3375 13.9507 22.0739 11.4313 25.8202 8.902C28.4606 7.1236 26.1689 3.14202 23.3094 4.6339C18.3774 7.2027 11.15 11.2831 8.40997 16.0947C7.43353 17.8039 12.5187 20.1652 14.6409 19.3254C20.4597 17.0234 25.1426 13.358 29.8654 9.35656C32.0076 7.53865 29.2078 3.95215 26.8464 5.47367C23.12 7.87451 20.1907 10.8385 17.8891 14.6028C16.6337 16.6479 19.1944 19.3749 21.2967 17.9818C25.8102 14.998 29.9053 11.6092 33.6417 7.70656C35.4949 5.77008 32.9741 2.06503 30.6227 3.82367C26.2685 7.08407 22.9706 10.9669 20.7686 15.9464C20.0213 17.6458 21.3167 20.4814 23.5784 19.5724C29.5865 17.1716 34.2394 13.516 37.926 8.22034C39.3607 6.1653 36.561 3.5767 34.5185 4.84134C29.7858 7.76582 26.6073 11.8166 24.8437 17.053C24.0765 19.3155 26.687 20.6197 28.5004 19.8392C34.927 17.0728 40.0184 12.7355 43.954 7.01501C45.4486 4.85129 42.5989 2.56897 40.5464 3.63601C36.0229 5.97757 30.4433 10.3741 29.4768 15.6797C29.2775 16.7566 29.6064 17.9027 30.6227 18.4659C36.5411 21.7658 44.6515 11.2435 47.521 7.15322C48.896 5.19699 46.6343 3.2013 44.7113 3.52734C40.2575 4.26834 36.6108 6.42219 33.8409 9.95923C32.3962 11.8068 33.6417 14.751 36.2621 14.089C39.6697 13.2294 49.1849 9.3861 46.0564 4.18923C43.2566 -0.464251 36.7901 3.52731 34.7974 6.69878C34.0003 7.96342 34.7178 10.0383 36.2821 10.3248C45.4387 11.9846 54.2166 10.2062 63.1341 8.06223C66.3225 7.29159 64.8977 2.83576 61.809 3.30012C56.6577 4.07076 51.4966 4.85126 46.3453 5.6219C43.5954 6.03686 44.213 10.8188 47.0029 10.473C54.4158 9.56405 61.8288 8.66497 69.2418 7.75601L68.5842 2.9049C62.2672 4.6339 55.9005 5.69101 49.3544 6.06645V11.0064C55.6514 10.5223 61.9285 10.4729 68.2355 10.8681L67.5778 6.01712C60.1151 7.99312 52.5727 9.32683 44.8707 9.99867L45.5283 14.8498C51.8851 13.9507 58.2519 13.4765 64.6685 13.3579V8.41789C57.4847 9.32685 50.291 10.2358 43.1072 11.1448C39.9985 11.54 39.869 16.3911 43.1072 16.0848C52.4132 15.2153 61.6794 15.2944 70.9655 16.3318V11.3918C62.3868 12.034 53.8281 12.1229 45.2394 11.6586L45.8969 16.5097C58.0027 13.9508 70.2382 12.8343 82.6031 13.1208C85.8313 13.1998 85.7716 8.39814 82.6031 8.18078C78.0198 7.86462 73.6158 7.08415 69.182 5.87879V10.6409C77.9799 9.41577 86.8178 9.05023 95.6854 9.42567V4.48567C89.4581 4.83147 83.2308 5.18721 76.9936 5.53301L77.6511 10.384C87.6745 8.41788 97.7579 8.13136 107.891 9.396L107.233 4.54501C98.8538 6.66921 90.3947 7.80539 81.7463 7.98323L82.4038 12.8342C91.4309 11.5103 100.498 10.3148 109.575 11.866V7.1039C101.933 9.63318 94.1409 11.2338 86.1102 11.8365L86.7679 16.6874C91.929 15.3833 97.0703 14.7312 102.391 14.6917L101.733 9.84068C94.2904 10.8583 86.8276 10.7694 79.4147 9.59368L78.7572 14.4447C93.5931 12.9725 110.511 19.6812 122.896 8.37846C124.5 6.91622 123.235 4.13992 121.133 4.15968C115.314 4.20908 109.674 4.9599 104.045 6.44189C101.404 7.13349 101.843 11.54 104.702 11.293C110.661 10.7792 116.489 9.7912 122.268 8.27956C125.058 7.54844 124.361 3.56689 121.611 3.42857C116.788 3.19145 112.076 3.55692 107.343 4.44612C104.543 4.96976 105.251 9.30711 108 9.29723C114.387 9.27747 120.764 9.03045 127.141 8.53645L126.483 3.68546C119.469 5.48362 113.331 8.72423 107.851 13.4172C105.818 15.1561 108.04 17.9916 110.272 17.547C118.133 15.9761 125.507 13.2394 132.511 9.35656C134.593 8.20061 133.757 4.58449 131.256 4.75245C124.959 5.18717 119.568 7.69672 115.413 12.4391C114.108 13.931 114.865 16.7961 117.177 16.6578C125.218 16.1539 132.641 13.6741 139.227 9.04034C141.14 7.69666 140.611 4.40659 137.971 4.43623C131.804 4.50539 126.623 7.48924 123.554 12.8047C122.707 14.2669 123.743 16.7764 125.706 16.5196C133.767 15.4723 140.811 12.2513 146.699 6.679C148.582 4.90061 146.61 2.03547 144.278 2.54923C137.852 3.96207 132.75 7.56822 129.123 12.9923C127.898 14.8201 129.921 17.1815 131.933 16.6183C138.609 14.7609 144.378 11.3621 149.21 6.42212C150.725 4.87096 149.619 2.24298 147.447 2.20346C143.73 2.14418 140.233 2.54916 136.626 3.45812C133.517 4.23864 134.833 9.00086 137.951 8.22034C141.07 7.43982 144.198 7.08418 147.447 7.14346L145.683 2.92468C141.419 7.28176 136.506 10.2062 130.608 11.8561L133.418 15.4821C136.337 11.1152 140.472 8.43766 145.593 7.31134L143.172 3.18157C138.3 7.78565 132.392 10.7101 125.696 11.5796L127.848 15.2945C130.07 11.461 133.497 9.42573 137.961 9.36645L136.706 4.76234C130.837 8.8823 124.361 11.2535 117.167 11.708L118.931 15.9267C122.199 12.192 126.254 10.0284 131.256 9.68256L130 5.07845C123.364 8.75381 116.4 11.2831 108.957 12.775L111.378 16.9048C116.211 12.7749 121.641 10.0185 127.808 8.44756C130.459 7.76584 130 3.37909 127.151 3.59645C120.774 4.08057 114.407 4.33747 108.01 4.35723L108.668 9.20834C113.002 8.39818 117.227 8.15121 121.621 8.36857L120.963 3.51745C115.613 4.92041 110.242 5.86889 104.722 6.35301L105.38 11.2041C110.581 9.8308 115.762 9.1392 121.142 9.09968L119.379 4.8809C108.548 14.7708 91.7696 8.21039 78.767 9.50467C76.2263 9.76155 75.1005 13.8815 78.1095 14.3558C86.479 15.6896 94.679 15.7587 103.078 14.6028C105.898 14.2175 105.161 9.73191 102.421 9.75167C96.6619 9.79119 91.0523 10.5125 85.4727 11.9253C82.8124 12.5972 83.2806 16.9938 86.1302 16.7765C94.6092 16.1441 102.849 14.5435 110.92 11.8759C113.042 11.1744 113.52 7.55839 110.92 7.11379C100.906 5.40455 91.0523 6.62965 81.0986 8.08201C78.2988 8.49697 79.0061 12.9924 81.7561 12.9331C90.843 12.7553 99.7605 11.5499 108.568 9.3269C111.508 8.5859 110.511 4.80182 107.911 4.47579C97.3293 3.16175 86.8078 3.58664 76.3459 5.64168C73.6059 6.1752 74.2038 10.6507 77.0035 10.4927C83.2308 10.1469 89.4581 9.79125 95.6954 9.44545C98.8937 9.26761 98.9136 4.64377 95.6954 4.50545C86.3495 4.11025 77.1231 4.60429 67.8668 5.89857C65.3161 6.25425 65.6748 10.0679 67.8668 10.6607C72.7092 11.9846 77.6014 12.7948 82.6131 13.1406V8.20056C69.8098 7.90416 57.1061 9.1095 44.5818 11.7573C41.7222 12.36 42.5492 16.4602 45.2394 16.6084C53.8281 17.0728 62.3868 16.9839 70.9655 16.3417C74.2137 16.0947 74.124 11.7574 70.9655 11.4017C61.6694 10.3643 52.4132 10.2754 43.1072 11.1547V16.0947C50.291 15.1857 57.4847 14.2767 64.6685 13.3678C67.7473 12.9825 67.9665 8.3685 64.6685 8.42778C57.8036 8.55622 50.9983 9.13921 44.2031 10.0976C41.4432 10.4829 42.0709 15.1956 44.8608 14.9486C53.0011 14.2372 60.9919 12.8738 68.8931 10.7891C71.7029 10.0481 70.9655 6.10596 68.2355 5.938C61.9285 5.5428 55.6614 5.59222 49.3544 6.07634C46.1859 6.32334 46.1361 11.2041 49.3544 11.0163C56.3389 10.6211 63.164 9.52445 69.9094 7.67689C72.5199 6.96553 72.1114 2.4701 69.2518 2.82578C61.8388 3.73474 54.4258 4.63382 47.0128 5.54278L47.6705 10.3939C52.8217 9.62325 57.9829 8.84276 63.1341 8.07212L61.809 3.31001C53.848 5.22673 45.8073 7.05445 37.5972 5.57245L39.0818 9.19845L43.1072 7.52867L41.3635 5.79967C41.9314 7.38047 35.9533 9.07003 34.9171 9.33679L37.3382 13.4666C39.6099 10.552 42.3299 8.9119 46.0065 8.29934L43.1968 4.67346C41.8118 6.65934 40.2775 8.49692 38.484 10.137C37.9858 10.5915 33.6715 14.5237 33.1136 14.2174L34.2594 17.0037C35.0067 12.9035 39.6298 9.68252 43.0373 7.914L39.6298 4.53512C36.1625 9.56404 31.5692 13.1603 25.9596 15.5809L29.6163 18.3671C30.9714 14.3558 33.3826 11.3523 36.9994 9.09968L33.5918 5.72067C30.7223 9.85051 26.9262 12.9231 22.2134 14.8102L25.0231 18.4362C26.8564 14.2965 29.427 10.8188 33.0936 8.08201L30.0746 4.19912C26.6272 7.80531 22.9107 10.9471 18.736 13.7037L22.1436 17.0827C24.0167 14.0298 26.2784 11.6784 29.3174 9.72212L26.2985 5.83923C22.2831 9.24783 18.2378 12.5774 13.2759 14.5436L16.0857 18.1694C18.4371 14.0495 21.5458 11.0757 25.7704 8.87246L23.2595 4.60423C19.5132 7.13351 15.7768 9.65295 12.0304 12.1822C9.40004 13.9606 11.881 18.2386 14.5413 16.4503L14.5912 16.48Z" fill="#20BEFF"/>
<path d="M71.51 15.8371C76.15 15.1771 80.8001 14.7071 85.4701 14.3971C88.6601 14.1871 88.6901 9.18706 85.4701 9.39706C80.3501 9.73706 75.26 10.2871 70.18 11.0171C67.01 11.4671 68.36 16.2871 71.51 15.8371Z" fill="#20BEFF"/>
<path d="M23.76 75.6764C23.81 74.2464 23.6001 73.6064 22.9701 72.3264C22.1401 70.6364 19.52 70.7564 18.65 72.3264C16.55 76.1064 15.98 79.7864 16.56 84.0464C16.88 86.3764 20.07 86.2064 21.13 84.6464C23.15 81.6764 24.9599 78.6164 26.5999 75.4264C28.0599 72.5764 23.8 70.0464 22.28 72.9064C19.18 78.7464 17.4501 84.8464 16.9701 91.4364C16.8001 93.7064 19.76 94.5964 21.24 93.2064C25.29 89.3964 27.41 84.8264 28.04 79.3364C28.33 76.8164 24.51 76.0164 23.38 78.0764C18.74 86.5564 16.49 95.7964 16.77 105.466C16.84 107.906 20.15 108.916 21.43 106.726C25.24 100.196 27.4 93.2864 28.13 85.7664C28.42 82.7464 24.1601 82.6865 23.2201 85.1065C19.6701 94.2565 18.04 103.826 18.31 113.636C18.38 115.996 21.7801 117.186 22.9701 114.896C26.6101 107.896 29.04 100.556 30.19 92.7365C30.56 90.2265 26.9 87.9764 25.62 90.8064C21.1 100.876 18.81 111.476 18.95 122.526C18.98 124.866 22.49 126.116 23.61 123.786C27.1 116.546 27.8701 108.906 25.7201 101.156C25.3801 99.9164 23.93 98.9664 22.64 99.4064C18.4 100.866 18.37 105.896 17.83 109.776C16.86 116.786 16.9 123.766 17.81 130.776C18.15 133.436 21.8301 134.326 22.7201 131.436C24.3601 126.126 25.5 120.726 26.04 115.196C26.35 112.046 27.22 108.086 24.05 106.226C22.58 105.366 20.9 106.216 20.38 107.716C18.18 114.076 17.88 120.506 19.32 127.066C19.82 129.326 22.75 129.306 23.89 127.666C28.42 121.146 30.59 113.756 30.38 105.826C30.31 103.036 26.2301 102.396 25.4701 105.166C24.0701 110.216 23.34 115.416 23.63 120.666C23.82 124.036 23.91 127.516 27.04 129.406C28.46 130.266 30.2501 129.426 30.7101 127.916C32.5201 122.046 32.64 116.196 31.16 110.236C30.57 107.846 26.9401 107.856 26.3401 110.236C24.5701 117.246 24.28 124.176 25.32 131.326C25.63 133.436 28.99 133.756 29.89 131.926C31.78 128.066 38.32 109.986 30.27 109.206C26.68 108.856 25.31 113.026 24.4 115.786C22.62 121.206 22.4899 126.786 23.3499 132.376C23.6999 134.646 26.88 134.616 27.92 132.976C31.82 126.846 33.07 120.196 32.03 113.036C31.64 110.386 27.9201 110.956 27.2101 113.036C26.1501 116.136 21.97 136.036 30.4 132.856C33.58 131.656 35.0099 126.106 35.9799 123.176C37.7599 117.826 38.39 112.246 38.14 106.626C38.02 103.866 33.9899 103.156 33.2299 105.966C30.8399 114.726 30.4601 123.526 31.9701 132.476C32.1901 133.756 33.86 134.626 35.05 134.226C39.61 132.676 40.57 126.756 41.49 122.576C42.85 116.366 43.0401 110.056 42.2101 103.766C41.8701 101.186 38.06 100.116 37.3 103.106C36.14 107.666 30.2 135.926 40.24 133.826C44.68 132.896 46.78 125.616 47.86 121.926C49.64 115.866 49.75 109.646 48.65 103.456C48.2 100.956 44.43 101.196 43.83 103.456C42.55 108.296 38.3101 131.066 48.0901 130.486C51.9501 130.256 53.49 125.046 54.53 122.116C56.67 116.106 57.2 109.726 56.41 103.416C56.07 100.676 52.49 99.9564 51.5 102.756C48.59 110.996 47.39 119.466 47.87 128.196C48.03 131.006 51.9 131.596 52.78 128.856C55.48 120.526 55.9799 112.056 54.4799 103.446C54.2099 101.886 52.07 101.126 50.81 101.956C46.99 104.456 45.9601 108.946 44.7101 113.126C43.0501 118.706 41.99 124.386 41.26 130.156C40.88 133.176 45.23 133.206 46.17 130.816C48.65 124.536 50.42 118.086 51.36 111.406C51.83 108.086 53.81 101.046 49.93 98.9664C41.86 94.6464 35.99 117.776 35.15 122.276C34.66 124.906 38.2901 126.856 39.7201 124.206C45.4701 113.536 48.78 102.036 49.63 89.9464C49.78 87.8664 47.44 87.0864 45.87 87.7864C39.61 90.5964 37.97 99.9064 36.69 105.886C34.87 114.346 34.47 122.986 35.32 131.576C35.52 133.596 37.26 134.516 39.08 133.736C44.37 131.466 44.7 122.316 45.68 117.606C47.36 109.546 48.63 101.416 49.61 93.2465C49.96 90.3265 45.54 90.0464 44.7 92.5864C41.69 101.676 39.92 110.986 39.32 120.536C39.14 123.426 43.4299 123.816 44.2299 121.196C46.91 112.486 48.68 103.636 49.63 94.5664C49.94 91.6464 45.5501 91.3464 44.7201 93.9064C41.0901 105.076 38.7801 116.526 37.7201 128.226C37.4701 131.026 42.05 131.636 42.63 128.886C44.28 121.026 45.55 113.096 46.37 105.106C46.78 101.076 47.13 97.0164 47.25 92.9664C47.32 90.6264 47.5201 88.7164 45.7201 87.0064C44.4901 85.8364 42.71 86.1664 41.79 87.5164C36.96 94.5864 35.27 102.826 33.83 111.126C33.39 113.676 37.16 115.846 38.4 113.056C42.79 103.136 44.73 92.7164 43.94 81.8864C43.84 80.4664 42.39 78.7965 40.78 79.4765C36.55 81.2465 35.26 85.1064 33.74 89.1864C31.39 95.5064 29.7301 102.026 28.5901 108.666C28.1201 111.426 31.52 113.036 33.16 110.596C38.96 101.936 41.5899 91.8264 40.7299 81.4364C40.5499 79.2264 38.1501 78.1964 36.4601 79.6664C28.5501 86.5464 27.49 101.246 27.58 110.996C27.6 113.336 31.13 114.586 32.24 112.256C36.79 102.716 38.62 92.5065 37.39 81.9865C37.13 79.7565 33.9999 78.2965 32.7299 80.7265C28.4599 88.8965 25.9401 97.5464 25.0901 106.716C24.8101 109.726 29.07 109.816 30 107.376C33.01 99.5165 34.72 91.4364 35.28 83.0364C35.45 80.4764 31.84 79.7564 30.62 81.7764C28.22 85.7664 26.99 89.9164 26.74 94.5564C26.61 96.9564 30.34 98.0664 31.4 95.8164C33.23 91.9164 38.0401 79.0464 30.9601 77.5664C29.8101 77.3264 28.79 77.7464 28.14 78.7164C26.15 81.6864 25.57 88.0864 31.03 87.6764C36.9 87.2464 34.38 77.5965 33.43 74.3565C32.89 72.5165 30.63 71.9564 29.25 73.2564C26.49 75.8564 25.22 78.9964 25.49 82.7764C25.59 84.1964 27.04 85.8664 28.65 85.1864C32.3 83.6564 38.5 77.9565 34.55 73.7365C30.4 69.2965 26.65 75.6264 26.62 79.4064C26.62 81.0864 28.22 82.1764 29.78 81.8164C31.5 81.4264 33.23 81.0264 34.95 80.6364C38.09 79.9164 36.76 75.0964 33.62 75.8164C31.9 76.2064 30.17 76.6065 28.45 76.9965L31.61 79.4064C30.09 77.6164 28.66 77.9365 27.31 80.3665L30.4701 82.7764C30.3001 80.3564 30.98 78.4764 32.77 76.7864L28.5901 75.6864C29.0901 77.3764 29.8 85.1865 32.44 81.2365L29.62 82.3864C30.7 82.6164 27.44 92.5164 27.07 93.2864L31.73 94.5464C31.94 90.7464 32.97 87.5464 34.93 84.2864L30.27 83.0264C29.74 90.9864 28.01 98.5964 25.17 106.036L30.08 106.696C30.85 98.4164 33.19 90.5965 37.04 83.2365L32.38 81.9765C33.51 91.6065 32.1 100.946 27.91 109.726L32.57 110.986C32.49 102.786 33.2699 89.0164 39.9799 83.1864L35.7101 81.4164C36.5001 91.0264 34.18 100.036 28.82 108.056L33.39 109.986C34.17 105.456 35.16 100.986 36.49 96.5864C37.43 93.4864 38.78 85.6664 42.08 84.2764L38.92 81.8665C39.64 91.7865 38.09 101.406 34.06 110.516L38.63 112.446C40 104.556 41.48 96.7664 46.08 90.0264L42.15 90.5364C43.15 91.4864 41.98 97.3564 41.9 98.5764C41.68 101.686 41.39 104.796 41.04 107.906C40.28 114.516 39.15 121.056 37.78 127.566L42.69 128.226C43.71 116.976 46.02 105.976 49.51 95.2365L44.5999 94.5764C43.6999 103.186 41.93 111.596 39.38 119.876L44.29 120.536C44.87 111.416 46.62 102.586 49.49 93.9164L44.58 93.2564C43.81 99.7164 42.8201 106.136 41.5901 112.516C41.0401 115.346 40.45 118.166 39.81 120.976C39.28 123.286 39.08 128.326 36.53 129.426L40.29 131.586C39.6 124.636 39.65 117.646 40.8 110.756C41.67 105.516 42.97 94.5265 48.36 92.1165L44.5999 89.9564C43.8099 101.156 40.69 111.816 35.37 121.696L39.94 123.626C40.65 119.816 41.65 116.146 43.18 112.576C44.03 110.596 45.28 108.786 46.11 106.826C46.61 105.646 47.3499 101.126 46.9799 105.306C46.2399 113.706 44.42 121.676 41.33 129.526L46.24 130.186C46.75 126.096 47.5 122.056 48.52 118.066C49.32 114.936 50.41 108.206 53.31 106.306L49.64 104.816C50.99 112.546 50.36 120.116 47.94 127.566L52.8499 128.226C52.3899 119.926 53.53 111.956 56.3 104.116L51.39 103.456C51.85 107.096 51.94 110.746 51.36 114.386C51.04 116.346 50 123.156 48.31 124.046C48.05 125.046 47.82 125.046 47.64 124.026L47.2299 121.276C47.0399 119.566 46.9699 117.826 46.9799 116.106C47.0099 112.256 47.63 108.536 48.62 104.836H43.8C44.5 108.746 44.6201 112.706 43.9601 116.636C43.7601 117.836 41.0001 127.576 40.2101 127.066C39.1001 126.356 39.83 118.936 39.95 117.246C40.25 112.906 41.0201 108.696 42.0901 104.496L37.18 103.836C37.71 107.876 37.9 111.916 37.5 115.976C37.25 118.486 36.34 128.576 33.69 129.476L36.77 131.226C35.42 123.176 35.88 115.236 38.03 107.366L33.12 106.706C33.28 110.466 33.08 114.156 32.28 117.846C31.91 119.536 30.14 127.966 28.04 128.256L30.4701 128.896C29.8201 128.116 30.15 123.726 30.24 122.456C30.43 119.656 31.11 117.076 32.01 114.446H27.19C28.03 120.216 26.6901 125.646 23.5901 130.526L28.16 131.126C27.76 128.516 27.63 125.866 27.9 123.236C28.05 121.756 28.35 120.276 28.73 118.836C28.93 118.056 30.9401 113.076 29.4701 114.716C28.6901 114.596 28.45 114.916 28.74 115.666C28.77 116.216 28.77 116.766 28.74 117.316C28.68 118.736 28.54 120.156 28.29 121.556C27.79 124.326 26.82 126.966 25.58 129.486L30.15 130.086C29.25 123.856 29.63 117.746 31.17 111.656H26.3499C27.6299 116.796 27.46 121.616 25.9 126.686L29.57 125.196C27.96 124.226 28.55 117.526 28.64 116.086C28.83 112.836 29.44 109.736 30.3 106.606L25.39 105.946C25.58 113.076 23.65 119.406 19.58 125.266L24.15 125.866C22.9 120.156 23.3101 114.676 25.2101 109.176L21.54 110.666C21.93 110.896 20.49 119.656 20.39 120.226C19.8 123.626 18.93 126.936 17.91 130.226L22.82 130.886C22.25 126.446 21.96 121.996 22.14 117.516C22.22 115.606 22.3601 113.686 22.5901 111.786C22.6301 111.436 23.25 104.586 23.98 104.336L20.9 102.586C22.67 108.996 22.19 115.366 19.29 121.366L23.95 122.626C23.82 112.496 25.78 102.686 29.94 93.4364L25.37 91.5064C24.29 98.8964 22.1 105.846 18.65 112.476L23.31 113.736C23.05 104.316 24.63 95.3164 28.04 86.5364L23.13 85.8765C22.49 92.4865 20.46 98.5764 17.11 104.316L21.77 105.576C21.51 96.7464 23.46 88.4664 27.7 80.7064L23.04 79.4464C22.57 83.6064 20.7401 86.9264 17.7101 89.7864L21.98 91.5564C22.4 85.8664 23.94 80.5864 26.61 75.5464L22.29 73.0264C20.65 76.2264 18.84 79.2765 16.82 82.2465L21.39 82.8464C21 79.9464 21.58 77.5065 22.98 74.9765H18.66L18.77 75.7964C18.67 79.0164 23.67 79.0064 23.77 75.7964L23.76 75.6764Z" fill="#20BEFF"/>
<path d="M25.89 77.7071C44.4599 76.9371 63.02 76.167 81.59 75.387C84.86 75.247 84.75 70.707 81.59 70.387C67.75 68.977 53.95 69.7071 40.32 72.4471C37.58 72.9971 38.1599 77.5671 40.9799 77.3571C54.3199 76.3571 67.6499 75.457 80.9999 76.787L80.34 71.8771C66.02 73.9571 51.64 75.6071 37.22 76.8471L37.8799 81.757C52.2099 78.617 66.82 78.517 81.42 78.507V73.507C65.58 74.027 49.74 74.737 33.92 75.657V80.657C42.25 80.017 50.59 79.6771 58.95 79.7071C66.88 79.7371 75.27 79.4071 82.77 82.3271L83.43 77.417C68.84 78.447 54.25 79.4671 39.66 80.4971V85.4971C53.89 83.6471 68.22 83.2171 82.55 82.8571C85.76 82.7771 85.78 77.8071 82.55 77.8571C68.51 78.0771 54.5299 79.1171 40.6099 80.9671C37.5199 81.3771 37.3399 86.2271 40.6099 85.9671C55.3999 84.7771 70.21 84.667 85.02 85.647V80.647C70.5 80.677 55.9899 81.217 41.5099 82.267V87.267C56.7499 85.557 72.0499 85.227 87.3499 86.287V81.287C71.9799 82.187 56.62 83.307 41.29 84.647C38.13 84.927 38.05 89.847 41.29 89.647C55.54 88.767 69.81 88.6271 84.07 89.2171V84.2171C70.73 85.4571 57.3699 86.4471 43.9899 87.1871L44.65 92.0971C59.05 90.0371 73.65 88.4971 88.07 91.2071L88.7299 86.297C72.3099 87.587 55.88 88.6471 39.44 89.4671L40.0999 94.3771C53.8299 91.8471 67.7999 91.627 81.5999 93.777L82.2599 88.8671C68.9899 88.9471 55.72 89.0271 42.45 89.1071V94.1071C55.54 92.8871 68.56 93.617 81.42 96.397L82.08 91.4871C69.71 91.5371 57.3499 91.587 44.9799 91.637V96.637C56.4499 95.697 67.9199 95.707 79.3899 96.667V91.667C66.41 92.107 53.45 93.017 40.53 94.387C37.38 94.717 37.3 99.667 40.53 99.387C56.1 98.027 71.7 97.657 87.32 98.287V93.287C73.58 94.467 59.8899 96.1271 46.2599 98.2471L47.59 103.067C61.2 100.407 74.96 99.6071 88.79 100.577V95.5771C76.1 96.9171 63.4199 98.2471 50.7299 99.5871C47.5999 99.9171 47.4599 104.757 50.7299 104.587C64.8599 103.847 78.9899 103.207 93.1099 104.567V99.5671C78.2099 100.257 63.32 100.957 48.42 101.647V106.647C62.27 104.827 76.1799 104.357 90.1099 105.217V100.217C76.1799 101.317 62.25 102.427 48.32 103.527C45.15 103.777 45.07 108.657 48.32 108.527C60.82 108.027 73.2999 108.337 85.7599 109.447V104.447C70.6899 104.447 55.7099 105.787 40.8699 108.407C38.1099 108.897 38.73 113.487 41.53 113.317C57.79 112.337 74.0699 112.117 90.3499 112.667V107.667C78.5899 108.647 66.8099 109.387 55.0099 109.907V114.907C69.1999 113.037 83.4699 112.627 97.7399 113.677L97.08 108.767C82.47 111.067 67.7699 112.617 52.9999 113.457L53.66 118.367C66.76 116.407 79.95 115.467 93.18 116.557L92.52 111.647C80.16 113.417 67.7699 114.907 55.3499 116.157C52.2099 116.467 52.0999 121.357 55.3499 121.157C67.4399 120.427 79.53 120.267 91.64 120.667V115.667C78.75 116.647 65.9099 118.047 53.1099 119.827C50.3499 120.217 50.97 124.997 53.77 124.737C65.57 123.637 77.3899 123.327 89.2299 123.817V118.817C77.6699 120.237 66.12 121.657 54.56 123.077C51.45 123.457 51.3 128.337 54.56 128.077C67.1 127.097 79.6599 126.357 92.2299 125.867V120.867C81.5899 121.667 70.95 122.467 60.31 123.277C57.14 123.517 57.05 128.347 60.31 128.277C71.33 128.047 82.3599 127.807 93.3799 127.577V122.577C80.3799 123.267 67.3799 123.967 54.3699 124.657V129.657C62.3899 129.007 70.41 128.857 78.45 129.217V124.217C69.55 124.787 60.68 125.447 51.92 127.207C49.1 127.777 49.83 132.077 52.58 132.117C63.54 132.267 74.5 131.967 85.44 131.217L84.78 126.307C78.76 127.157 72.72 127.587 66.65 127.667V132.667C77.64 131.317 88.67 130.277 99.72 129.557C102.37 129.387 103.31 125.217 100.38 124.647C94.9599 123.587 89.8199 123.877 84.6099 125.757C82.7799 126.417 81.9099 129.317 84.0099 130.327C88.3999 132.437 97.2699 133.777 100.76 129.377C103.83 125.517 100.55 120.187 95.7499 121.587C91.8799 122.717 87.69 127.927 92.34 130.847C96.05 133.177 106.98 132.187 107.7 126.627C108.36 121.557 101.99 121.357 98.78 122.987C94.87 124.967 92.58 131.517 98.09 133.297C102.71 134.797 109.07 130.297 109.47 125.597C109.87 120.897 104.66 117.127 100.5 120.217C95.6899 123.787 98.03 131.367 103.56 132.507C110.14 133.857 113.85 127.687 113 121.897C112.73 120.077 109.96 119.447 108.82 120.797C106.6 123.427 101.55 132.917 107.89 134.337C114.23 135.757 117.45 125.657 117.85 121.417C118.03 119.547 115.59 118.277 114.09 119.257C110.73 121.457 106.53 127.527 109.86 131.537C113.79 136.277 117.49 129.287 117.26 125.757C117.13 123.807 114.48 122.187 112.99 123.987C111.05 126.327 110.37 128.817 111.37 131.747C112.1 133.867 115.73 134.367 116.19 131.747C117.17 126.197 118.21 120.617 118.86 115.027C119.24 111.817 119.16 109.267 117 106.747C116.07 105.657 114.44 105.937 113.46 106.747C110.25 109.417 106.99 114.577 111.33 117.977C115.01 120.857 118.85 117.537 119.41 113.597C119.93 109.947 117.48 106.407 113.53 108.217C108.81 110.377 108.38 116.337 110.24 120.477C111.07 122.317 113.62 121.877 114.56 120.477C116.92 116.967 117.28 109.997 111.22 110.627C105.99 111.167 103.28 117.667 103.8 122.207C104.05 124.427 106.32 125.417 108.07 123.977C110.98 121.577 118.11 112.187 112.64 109.037C110.2 107.627 106.8 109.527 104.59 110.617C100.79 112.487 97.54 115.177 94.8 118.397C93.53 119.897 94.07 121.897 95.9 122.577C100.24 124.177 105.02 123.737 108.88 121.097C111.51 119.307 114.91 115.417 112.77 112.027C107.79 104.157 94.2299 118.087 91.5099 121.957C90.2899 123.697 92.33 126.367 94.33 125.627C99.84 123.607 109.2 117.677 108.86 110.707C108.44 102.087 97.97 110.167 95.47 112.897C93.29 115.267 85.8199 125.597 93.6199 125.997C96.5199 126.147 100.63 123.647 103.15 122.267C106.64 120.357 109.49 117.857 111.54 114.427C112.56 112.717 111.22 110.787 109.38 110.667C101.61 110.167 94.57 112.677 88.69 117.727C87.12 119.077 88.33 122.207 90.46 121.997C95.66 121.477 100.45 119.887 104.69 116.777C107.16 114.967 112.89 110.517 111.31 106.717C109.82 103.127 104.67 104.707 101.92 105.427C96.34 106.887 91.41 109.697 87.03 113.397C85.84 114.397 86.17 116.647 87.54 117.327C95.94 121.507 105.73 112.627 109.08 105.507C109.65 104.287 109.44 102.817 108.18 102.087C100.53 97.6571 88.86 104.567 82.07 108.247C79.8 109.477 80.95 112.807 83.33 112.907C91.7 113.237 99.48 109.827 104.84 103.377C105.77 102.247 105.76 100.977 104.84 99.8371C102.3 96.6771 98.26 97.9271 94.95 99.0671C89.54 100.927 84.38 103.357 79.45 106.237C77.45 107.397 78.14 111.187 80.71 110.897C86.89 110.197 92.82 108.437 98.14 105.137C101.52 103.037 107.35 99.617 104.71 95.027C104.31 94.337 103.39 93.687 102.55 93.787C94.59 94.787 87.4299 97.4171 80.8699 102.067C78.4899 103.747 79.98 107.077 82.8 106.637C92.18 105.157 100.47 100.407 106.49 93.0671C107.49 91.8471 107.49 90.007 105.98 89.137C102.68 87.227 99.6799 88.3271 96.3799 89.7171C91.4999 91.7671 86.78 94.1371 82.15 96.6971C79.49 98.1671 81.45 101.667 84.08 101.267C92.87 99.917 100.69 96.037 107.23 90.037C108.74 88.657 107.64 85.547 105.46 85.767C95.67 86.757 86.5899 90.0371 77.4799 93.5971C74.5499 94.7371 75.63 99.267 78.81 98.417C87.29 96.147 95.35 92.9271 103.06 88.7371C105.19 87.5771 104.28 83.9371 101.8 84.0771C93.57 84.5371 85.8099 86.8171 77.9999 89.3071C74.9199 90.2971 76.18 94.7571 79.33 94.1271C86.31 92.7371 93.0399 90.6871 99.6099 87.9671C101.94 87.0071 102.03 82.7271 98.95 83.0571C92.84 83.7171 86.7299 84.377 80.6299 85.037L81.29 89.9471C87.64 88.0971 93.8 85.7871 99.83 83.0671C102.56 81.8371 100.51 77.9871 97.9 78.4971C92.2 79.6071 86.5 80.7171 80.81 81.8371L82.1399 86.657C88.65 85.097 95.17 83.5471 101.68 81.9871C104.36 81.3471 103.86 76.7771 101.02 77.0771C93.81 77.8271 86.61 78.5871 79.4 79.3371L80.06 84.2471C86.19 82.8371 92.32 81.417 98.45 80.007C100.72 79.487 100.95 75.5271 98.45 75.1871C92.53 74.3871 86.6999 74.1771 80.7499 74.7071L81.41 79.6171C85.65 78.8071 89.8899 77.9971 94.1299 77.1871C96.8999 76.6571 96.26 72.167 93.47 72.277L80.42 72.797L81.08 77.7071C88.5 76.6271 95.94 76.317 103.42 76.647L102.76 71.7371C100.59 72.2171 98.9399 73.177 97.5099 74.897C96.0799 76.617 96.99 79.107 99.28 79.167C103.02 79.257 106.03 78.047 108.78 75.537C110.3 74.147 109.18 71.067 107.01 71.267C102.79 71.657 92.67 75.6771 96.27 81.7371C100.05 88.0971 109.39 79.7871 112.15 76.4971C113.59 74.7871 112.28 71.3671 109.72 72.3171C104.17 74.3771 99.9499 77.9371 97.2299 83.2271C96.2499 85.1371 97.87 87.477 100.05 86.897C105.39 85.477 109.47 82.5171 112.64 77.9971C113.93 76.1571 111.8 73.7771 109.82 74.3271C106.17 75.3371 93.16 81.3171 97.16 86.9571C101.3 92.7871 111.66 81.9671 113.87 78.8071C115.07 77.0971 113.05 74.357 111.05 75.137C104.33 77.757 99.5599 82.4971 96.8799 89.1871C96.1899 90.9171 98.27 92.877 99.96 92.267C106.41 89.907 110.46 85.0471 114.5 79.7071C116.04 77.6771 113.08 75.007 111.08 76.287C105.58 79.807 101.36 84.4671 98.55 90.3771C97.87 91.7971 98.38 93.607 100.04 94.047C106.46 95.737 112.58 85.1571 115.22 80.5671C116.69 78.0071 113.4 75.737 111.29 77.537C106.11 81.977 102.56 87.507 100.57 94.027C99.84 96.407 103.04 98.2471 104.75 96.4571C107.82 93.2471 110.42 89.7571 112.57 85.8671C113.96 83.3671 110.73 80.8971 108.64 82.8371C103.87 87.2771 100.5 92.5071 98.28 98.6171C97.34 101.207 100.73 102.447 102.46 101.047C106.74 97.577 110.32 93.577 113.39 89.017C114.98 86.657 111.4 83.9371 109.46 85.9871C105.64 90.0171 102.9 94.5071 100.98 99.7071C100.03 102.277 103.44 103.567 105.16 102.137C109.19 98.787 112.22 94.817 114.37 90.037C115.48 87.577 112.6 84.877 110.44 87.007C106.38 91.017 103.81 95.8271 102.87 101.467C102.39 104.317 105.72 105.707 107.44 103.397C109.86 100.147 111.92 96.777 113.71 93.137C115.16 90.187 111.32 88.0971 109.39 90.6171C106.25 94.7271 104.73 99.2971 104.55 104.437C104.47 106.627 107.33 107.707 108.82 106.207C111.91 103.097 114 99.597 115.31 95.417C116.29 92.287 111.63 91.1571 110.49 94.0871C109.26 97.2271 108.8 100.187 108.98 103.557C109.1 105.847 112.47 107.197 113.64 104.817C114.81 102.437 115.45 100.167 115.76 97.517C116.07 94.867 112.25 94.247 111.1 96.257C109.03 99.887 108.53 103.447 109.4 107.517C109.89 109.767 112.84 109.767 113.97 108.117C115.21 106.297 115.64 104.767 115.75 102.587C115.89 99.8671 112.43 99.5171 111.09 101.327C109.05 104.067 108.65 106.787 109.3 110.077C109.7 112.067 113.02 112.637 113.87 110.677C118.13 100.857 118.15 90.5171 117.77 79.9971C117.69 77.7571 114.15 76.2871 113.11 78.7371C112.24 80.7871 111.54 82.7871 111.05 84.9571L115.96 85.6171C116.31 82.2771 116.66 78.9471 117.01 75.6071C117.23 73.5171 114.07 72.2171 112.74 73.8371C111.14 75.2471 111.01 75.647 112.34 75.047L114.84 77.547L114.79 77.1171L112.95 79.527L113.26 79.4871L110.1 77.0771C109.9 78.8371 110.45 80.047 111.67 81.297C113.91 83.617 117.45 80.077 115.21 77.757L115.11 77.0671C115.32 75.2671 113.35 74.457 111.95 74.657L111.64 74.6971C110.67 74.8371 109.69 76.1271 109.8 77.1071L109.85 77.537C109.99 78.747 110.89 80.217 112.35 80.037C114.36 79.787 114.96 78.9671 116.28 77.3671L112.01 75.5971C111.66 78.9371 111.31 82.2671 110.96 85.6071C110.66 88.4171 115.25 88.997 115.87 86.267C116.27 84.517 116.72 82.9171 117.43 81.2471L112.77 79.9871C113.11 89.4871 113.42 99.237 109.55 108.147L114.12 108.747C113.7 106.777 114.12 105.147 115.4 103.847L110.74 102.587L109.64 105.597L114.21 106.197C113.61 103.397 113.98 101.267 115.4 98.797L110.74 97.537C110.61 99.237 110.13 100.827 109.3 102.317L113.96 103.577C113.8 100.637 114.23 98.1571 115.29 95.4371L110.47 94.1071C109.4 97.5071 107.76 100.177 105.26 102.697L109.53 104.467C109.68 100.127 111.07 96.587 113.68 93.167L109.36 90.647C107.57 94.287 105.51 97.657 103.09 100.907L107.66 102.837C108.47 97.9971 110.44 94.0471 113.94 90.5871L110.01 87.5571C108.02 91.9671 105.31 95.547 101.58 98.647L105.76 101.077C107.38 96.6571 109.71 92.9771 112.95 89.5671L109.02 86.537C106.18 90.757 102.81 94.3571 98.8699 97.5571L103.05 99.9871C104.97 94.6871 108.01 90.237 112.12 86.407L108.19 83.3771C106.23 86.9171 103.95 90.0271 101.15 92.9471L105.33 95.3771C107.09 89.6371 110.21 84.9971 114.77 81.0971L110.84 78.0671C109.54 80.3271 108.16 82.4671 106.47 84.4571C105.81 85.2371 102.43 89.5471 101.3 89.2471L102.79 92.917C105.23 87.777 108.72 83.6971 113.53 80.6171L110.11 77.1971C106.96 81.3571 103.62 85.6071 98.56 87.4671L101.64 90.547C103.61 85.647 107.4 81.9071 112.32 79.9971L109.5 76.3271C108.62 77.5871 102.57 84.5571 100.33 83.3271L101.57 85.4871C101.45 82.5571 109.17 79.7271 111.09 79.1971L108.27 75.527C105.86 78.967 102.72 81.0471 98.67 82.1271L101.49 85.797C103.6 81.687 106.62 78.8071 110.99 77.1871L108.56 73.007C106.93 74.947 105.23 76.5871 102.99 77.8471C102.56 78.0871 100.01 79.5671 102.1 78.0871C103.61 77.0171 105.07 76.4871 106.95 76.3071L105.18 72.037C103.45 73.627 101.53 74.2571 99.22 74.2071L100.99 78.4771C101.69 77.3371 102.7 76.7071 104.04 76.6071C106.89 75.9771 106.1 71.8171 103.38 71.6971C95.4299 71.3371 87.58 71.7871 79.71 72.9371C76.92 73.3471 77.5899 77.9571 80.3699 77.8471L93.42 77.3271L92.7599 72.417C88.5199 73.227 84.28 74.0371 80.04 74.8471C77.3 75.3671 77.89 80.007 80.7 79.757C86.18 79.267 91.61 79.3171 97.08 80.0571V75.2371C90.95 76.6471 84.82 78.0671 78.69 79.4771C76 80.0971 76.5099 84.687 79.3499 84.387C86.5599 83.637 93.76 82.8771 100.97 82.1271L100.31 77.2171C93.8 78.7771 87.28 80.327 80.77 81.887C77.62 82.637 78.9699 87.3171 82.0999 86.7071C87.7999 85.5971 93.5 84.4871 99.19 83.3671L97.2599 78.797C91.6199 81.347 85.85 83.4471 79.92 85.1771C77.33 85.9371 77.68 90.3971 80.58 90.0871C86.69 89.4271 92.8 88.7671 98.9 88.1071L98.2399 83.1971C91.6699 85.9171 84.93 87.9671 77.96 89.3571L79.29 94.1771C86.65 91.8271 93.9999 89.5571 101.76 89.1171L100.5 84.4571C93.1599 88.4371 85.51 91.4771 77.44 93.6271L78.77 98.4471C87.41 95.0771 96.12 91.737 105.42 90.797L103.65 86.527C97.71 91.987 90.67 95.2471 82.71 96.4771L84.6399 101.047C87.4099 99.507 90.21 98.037 93.07 96.667C95.53 95.497 100.66 91.8971 103.41 93.4871L102.9 89.5571C97.33 96.3471 90.08 100.477 81.41 101.837L83.34 106.407C89.11 102.317 95.4599 99.6871 102.5 98.8071L100.34 97.5671C100.52 97.8871 92.8699 102.357 92.1299 102.707C88.4999 104.437 84.64 105.467 80.65 105.917L81.91 110.577C84.61 109.007 98.7999 100.357 101.24 103.397V99.8571C96.6599 105.377 90.45 108.207 83.27 107.927L84.53 112.587C87.84 110.787 91.2199 109.187 94.7599 107.877C97.8499 106.737 102.43 104.587 105.6 106.417L104.7 102.997C102.77 107.107 95.6899 115.857 89.9999 113.027L90.5099 116.957C92.7699 115.047 95.1999 113.417 97.8799 112.167C99.5799 111.367 101.38 110.747 103.2 110.277L104.73 109.917C105.99 110.207 106.51 109.867 106.29 108.907C106.46 107.837 106.21 107.907 105.53 109.117C104.98 109.837 104.36 110.507 103.69 111.127C102.55 112.207 101.28 113.127 99.94 113.937C97.01 115.707 93.8 116.687 90.4 117.027L92.17 121.297C97.06 117.097 102.93 115.287 109.33 115.707L107.17 111.947C105.28 115.107 102.56 117.037 99.31 118.647C97.73 119.427 95.4299 119.867 93.9999 120.877L95.52 121.497C95.97 120.607 96.47 119.737 97.02 118.907C98.02 117.427 99.21 116.077 100.53 114.887C101.48 114.017 102.51 113.247 103.61 112.587L103.04 112.657C103.36 113.597 100.46 116.117 99.6299 116.887C97.6599 118.707 95.44 119.947 92.94 120.867L95.7599 124.537C98.1699 121.107 102.1 116.837 106.37 115.817C109.75 115.007 104.65 117.857 103.86 118.127C101.57 118.917 99.39 118.637 97.17 117.817L98.27 121.997C100.28 119.637 107.35 112.367 110.94 113.797L109.19 112.047C110.37 114.877 106.31 118.977 104.46 120.507L108.73 122.277C108.5 120.267 108.68 118.617 110.05 116.927C111.9 114.637 111.19 116.537 110.18 118.027H114.5C113.92 116.737 114.45 112.497 114.45 112.477C114.2 112.907 116.58 110.647 116.93 110.367H113.39C115.26 112.557 113.39 117.777 113 120.297C112.47 123.707 111.89 127.107 111.29 130.507H116.11L116.44 127.607L112.17 125.837L111.42 128.447H113.94C112.25 127.547 116.55 123.627 116.52 123.647L112.76 121.487C112.52 124.077 111.65 125.747 110.17 127.847C108.31 130.487 112.21 124.467 112.26 124.417L108.08 123.317C108.6 126.477 107.09 127.637 103.57 126.787C102.64 127.607 101.58 128.197 100.38 128.547C102.21 127.737 102.36 127.047 100.84 126.487C99.43 126.937 98 127.047 96.57 126.837C95.22 126.257 94.72 126.647 95.08 127.997C97.68 126.287 97.1499 125.997 93.4799 127.107C91.0899 127.277 88.64 127.157 86.45 126.097L85.8499 130.667C90.1999 129.097 94.39 128.667 98.96 129.557L99.6199 124.647C88.5699 125.367 77.55 126.397 66.55 127.757C63.45 128.137 63.24 132.807 66.55 132.757C73.08 132.667 79.5399 132.127 86.0099 131.217C88.7899 130.827 88.1499 126.117 85.3499 126.307C74.4099 127.057 63.4599 127.357 52.4899 127.207L53.15 132.117C61.47 130.447 69.8999 129.847 78.3499 129.307C81.5499 129.107 81.5799 124.447 78.3499 124.307C70.3099 123.947 62.29 124.097 54.27 124.747C51.1 125.007 51.03 129.917 54.27 129.747C67.27 129.057 80.27 128.357 93.28 127.667C96.47 127.497 96.52 122.597 93.28 122.667C82.26 122.897 71.23 123.137 60.21 123.367V128.367C70.85 127.567 81.4899 126.767 92.1299 125.957C95.2999 125.717 95.3799 120.827 92.1299 120.957C79.5599 121.447 67 122.177 54.46 123.167V128.167C66.02 126.747 77.5699 125.327 89.1299 123.907C92.2499 123.527 92.4299 119.047 89.1299 118.907C77.2899 118.417 65.47 118.727 53.67 119.827L54.33 124.737C66.69 123.017 79.09 121.697 91.53 120.757C94.71 120.517 94.78 115.867 91.53 115.757C79.43 115.357 67.3299 115.527 55.2399 116.247V121.247C68.1099 119.957 80.9399 118.387 93.7399 116.567C96.6999 116.147 95.68 111.867 93.08 111.657C79.39 110.537 65.7899 111.617 52.2399 113.647C49.4599 114.067 50.11 118.717 52.9 118.557C68.11 117.697 83.26 116.057 98.31 113.697C101.25 113.237 100.28 108.977 97.65 108.787C83.37 107.727 69.11 108.137 54.92 110.017C51.84 110.427 51.61 115.157 54.92 115.017C66.71 114.507 78.4899 113.757 90.2599 112.777C93.4299 112.517 93.5199 107.887 90.2599 107.777C73.9799 107.227 57.7 107.447 41.44 108.427L42.0999 113.337C56.4999 110.787 71.04 109.547 85.66 109.547C88.93 109.547 88.82 104.827 85.66 104.547C73.2 103.437 60.72 103.127 48.22 103.627V108.627C62.15 107.527 76.0799 106.417 90.0099 105.317C93.2099 105.067 93.2499 100.517 90.0099 100.317C76.0699 99.4571 62.16 99.9271 48.32 101.747C45.24 102.147 45.02 106.897 48.32 106.747C63.22 106.057 78.1099 105.357 93.0099 104.667C96.2699 104.517 96.1799 99.977 93.0099 99.667C78.8999 98.307 64.7599 98.9471 50.6299 99.6871V104.687C63.3199 103.347 76 102.017 88.69 100.677C91.86 100.347 91.95 95.9071 88.69 95.6771C74.42 94.6771 60.2 95.5971 46.16 98.3471C42.97 98.9771 44.3699 103.657 47.4899 103.167C60.6799 101.117 73.92 99.527 87.22 98.387C90.39 98.117 90.48 93.517 87.22 93.387C71.61 92.767 56 93.1271 40.43 94.4871V99.4871C53.35 98.1171 66.3 97.217 79.29 96.767C82.54 96.657 82.47 92.037 79.29 91.767C67.82 90.807 56.3499 90.7971 44.8799 91.7371C41.7199 91.9971 41.6199 96.7471 44.8799 96.7371C57.2499 96.6871 69.6099 96.6371 81.9799 96.5871C84.7299 96.5771 85.4699 92.2871 82.6399 91.6771C69.36 88.8071 55.8799 87.9471 42.3499 89.2071C39.1999 89.4971 39.0699 94.2271 42.3499 94.2071C55.6199 94.1271 68.89 94.0471 82.16 93.9671C84.87 93.9471 85.69 89.5071 82.82 89.0571C68.08 86.7671 53.33 86.947 38.67 89.657C35.9 90.167 36.53 94.7071 39.33 94.5671C55.78 93.7471 72.2099 92.687 88.6199 91.397C91.2299 91.187 92.24 87.0371 89.28 86.4871C73.92 83.6071 58.54 85.1871 43.21 87.3771C40.43 87.7771 41.0799 92.447 43.8699 92.287C57.2499 91.547 70.61 90.5471 83.95 89.3171C87.11 89.0271 87.21 84.4571 83.95 84.3171C69.68 83.7271 55.42 83.8671 41.17 84.7471V89.7471C56.51 88.3971 71.8599 87.277 87.2299 86.387C90.4499 86.197 90.4399 81.607 87.2299 81.387C71.9299 80.327 56.6299 80.6571 41.3899 82.3671C38.2599 82.7171 38.1299 87.6071 41.3899 87.3671C55.8699 86.3171 70.38 85.7771 84.9 85.7471C88.15 85.7471 88.09 80.9571 84.9 80.7471C70.09 79.7671 55.2799 79.8671 40.4899 81.0671V86.0671C54.4099 84.2171 68.39 83.1771 82.43 82.9571V77.9571C68.1 78.3171 53.77 78.7471 39.54 80.5971C36.45 80.9971 36.26 85.8271 39.54 85.5971C54.13 84.5671 68.72 83.547 83.31 82.517C86.21 82.317 86.6 78.6271 83.97 77.6071C76.63 74.7371 68.5099 74.8971 60.7399 74.8171C51.7399 74.7271 42.76 75.067 33.79 75.757C30.61 75.997 30.56 80.947 33.79 80.757C49.62 79.847 65.45 79.1271 81.29 78.6071C84.5 78.5071 84.52 73.6071 81.29 73.6071C66.24 73.6071 51.18 73.797 36.42 77.037C33.71 77.627 34.25 82.1971 37.08 81.9471C51.95 80.6671 66.76 78.937 81.53 76.797C84.52 76.367 83.4399 72.147 80.8699 71.887C67.5199 70.557 54.1799 71.4571 40.8499 72.4571L41.5099 77.3671C54.7099 74.7071 68.07 74.1271 81.45 75.4871V70.4871C62.88 71.2571 44.3199 72.0271 25.7499 72.8071C22.5399 72.9371 22.5299 77.9371 25.7499 77.8071L25.89 77.7071Z" fill="#20BEFF"/>
<path d="M15.17 30.9676C14.23 33.7876 15.9599 36.8875 18.8799 37.5175C21.5599 38.0975 24.36 36.7676 25.79 34.4676C27.29 32.0476 27.0999 28.7776 24.8899 26.8576C22.8299 25.0676 19.73 24.9176 17.71 26.8776C15.95 28.5776 14.42 32.2476 15.92 34.4676C17.42 36.6876 20.7899 36.7375 22.8599 35.2975C25.0799 33.7575 26.37 29.9176 23.47 28.3176C20.57 26.7176 16.9499 29.1776 17.1099 32.3376C17.3099 36.3276 23.2399 37.2776 24.2699 33.2476C25.2099 29.5776 19.8 27.4676 18.06 30.8276C16.58 33.6776 20.8899 36.2076 22.3799 33.3476L22.2699 33.4976L21.17 34.1375C20.77 34.1075 20.3899 33.9976 20.0299 33.8076L19.3899 32.7076L19.3499 32.2076L19.9899 31.1076C22.1099 31.4576 22.6499 32.0475 21.5999 32.8875C21.7499 32.8475 21.91 32.8575 22.06 32.9175L20.8 32.5776L20.8599 32.5976L20.22 31.4976C19.88 30.1276 20.5599 31.3076 20.1099 31.2276C19.7999 31.1776 22.03 30.6576 19.84 31.3276C19.68 31.3776 19.6699 31.2876 19.3799 31.0576L20.2799 31.9576C20.2799 32.5176 20.3299 32.6275 20.3999 32.2975C20.4299 32.1775 20.4699 32.0676 20.4999 31.9476C20.5599 31.7476 20.61 31.5376 20.69 31.3476C20.77 31.1576 21.04 30.4375 21.33 30.4075C21.47 30.3875 21.8 30.7676 21.84 30.9976C21.96 31.6576 21.24 32.4076 20.67 32.5976C20.42 32.6776 20.1199 32.7276 19.8999 32.6076C19.9999 32.6576 19.85 32.8676 20.04 32.3076C21.06 29.2476 16.23 27.9376 15.22 30.9776L15.17 30.9676Z" fill="#20BEFF"/>
<path d="M39.97 26.3077C36.62 25.9677 33.42 28.9577 33.59 32.3377C33.76 35.7177 37.03 38.4377 40.38 37.8577C43.73 37.2777 46.08 33.6077 44.8 30.3477C43.61 27.3177 39.76 25.7277 36.93 27.5877C34.24 29.3477 33.55 33.4677 36.02 35.7277C39.42 38.8277 44.22 34.3077 43.02 30.4577C41.93 26.9677 36.5 26.2878 35.56 30.2478C35.15 31.9878 36.01 33.9277 37.79 34.4777C39.57 35.0277 41.43 34.0677 42.42 32.5277C43.63 30.6477 43.25 28.1277 41.32 26.9177C39.7 25.8877 37.54 26.2177 36.15 27.4777C34.76 28.7377 33.8599 31.0677 34.3599 32.9877C34.9199 35.1077 37.1199 36.4477 39.2399 35.7977C42.2999 34.8477 41 30.0177 37.91 30.9777C38.52 30.7877 39.31 32.4576 39.42 31.2576C39.44 31.0276 39.21 31.4277 39.16 31.2977C38.12 30.7777 37.81 30.2877 38.22 29.8477C38.5 29.5077 38.9199 29.4776 39.4899 29.7576L40.39 30.6577C40.66 31.6577 40.05 32.2177 38.55 32.3277C38.39 32.2277 38.29 32.0777 38.27 31.8977C38.24 31.6377 38.1899 31.6378 38.1099 31.8778C37.6299 32.2678 38.07 32.3377 39.45 32.1077C39.3 32.1877 39.65 31.8877 39.5 31.9377C40 31.7577 39.4699 31.6677 39.8599 31.8477C40.0999 31.9577 40.2 32.1377 40.16 32.3577C40.03 33.2077 38.95 33.0076 38.67 32.3876C38.29 31.5476 39.32 31.2377 39.97 31.2977C41.32 31.4377 42.47 30.0477 42.47 28.7977C42.47 27.3277 41.32 26.4377 39.97 26.2977V26.3077Z" fill="#20BEFF"/>
<path d="M61.7799 29.2975C61.0399 27.0275 58.81 25.7675 56.47 26.1875C54.13 26.6075 52.6199 28.6876 52.2299 30.8676C51.7699 33.4176 52.6599 36.1075 55.2699 37.0275C57.6099 37.8475 60.0599 36.7975 61.4299 34.8175C62.6899 32.9975 62.9099 30.4775 61.7799 28.5375C60.5399 26.4175 57.8299 25.7575 55.8099 27.1875C53.7899 28.6175 52.93 31.6175 53.95 33.8875C54.97 36.1575 57.71 37.0875 59.84 35.7575C62.59 34.0375 61.6199 30.2675 58.9199 29.1375C57.6399 28.5975 56.2099 28.6776 54.9999 29.3776C53.5099 30.2376 53.0899 31.6975 53.3099 33.2975C53.4999 34.6375 55.1999 35.3675 56.3899 35.0475C57.8299 34.6475 58.3299 33.3176 58.1399 31.9676L58.0999 31.7076V33.0375C57.9999 33.5275 57.42 33.9076 56.96 33.7176C56.52 33.3976 56.52 32.9776 56.96 32.4576C56.87 31.7276 57.1499 31.3676 57.7799 31.3676C57.9599 31.3876 58.6499 31.9076 58.5199 31.9576C58.4799 31.9776 58.5999 31.1875 58.6599 31.2775C58.7599 31.4575 57.4499 31.0675 57.4799 31.0675C57.5499 31.0575 57.5899 31.4876 57.4799 31.7276C57.4299 31.8476 56.82 32.5975 56.83 32.3175C56.83 32.2575 56.9699 32.3476 56.9799 32.3476C57.1799 32.5776 57.2199 32.6475 57.0999 32.5675C57.0799 32.3375 57.0899 32.0976 57.0999 31.8676C57.1099 31.7976 57.5099 30.7676 57.6299 30.9676C57.6499 30.9976 57.3199 31.1575 57.2599 31.0575C57.0799 30.9375 57.1199 30.9576 57.3799 31.1076C57.1699 30.9876 57.03 30.8276 56.96 30.6176C57.95 33.6676 62.7799 32.3575 61.7799 29.2875V29.2975Z" fill="#20BEFF"/>
<path d="M75.6099 26.3975C72.2599 26.0575 69.0599 29.0476 69.2299 32.4276C69.3999 35.8076 72.67 38.5276 76.02 37.9476C79.37 37.3676 81.72 33.6976 80.44 30.4376C79.25 27.4076 75.4 25.8176 72.57 27.6776C69.88 29.4376 69.19 33.5576 71.66 35.8176C75.06 38.9176 79.86 34.3976 78.66 30.5476C77.57 27.0576 72.14 26.3776 71.2 30.3376C70.79 32.0776 71.65 34.0176 73.43 34.5676C75.21 35.1176 77.07 34.1576 78.06 32.6176C79.27 30.7376 78.89 28.2175 76.96 27.0075C75.34 25.9775 73.18 26.3076 71.79 27.5676C70.4 28.8276 69.5 31.1576 70 33.0776C70.56 35.1976 72.76 36.5375 74.88 35.8875C77.94 34.9375 76.64 30.1076 73.55 31.0676C74.16 30.8776 74.95 32.5476 75.06 31.3476C75.08 31.1176 74.85 31.5175 74.8 31.3875C73.76 30.8675 73.4499 30.3776 73.8599 29.9376C74.1399 29.5976 74.56 29.5676 75.13 29.8476L76.03 30.7476C76.3 31.7476 75.69 32.3076 74.19 32.4176C74.03 32.3176 73.93 32.1676 73.91 31.9876C73.88 31.7276 73.83 31.7276 73.75 31.9676C73.27 32.3576 73.71 32.4276 75.09 32.1976C74.94 32.2776 75.29 31.9775 75.14 32.0275C75.64 31.8475 75.11 31.7576 75.5 31.9376C75.74 32.0476 75.84 32.2276 75.8 32.4476C75.67 33.2976 74.59 33.0976 74.31 32.4776C73.93 31.6376 74.9599 31.3275 75.6099 31.3875C76.9599 31.5275 78.1099 30.1375 78.1099 28.8875C78.1099 27.4175 76.9599 26.5275 75.6099 26.3875V26.3975Z" fill="#20BEFF"/>
<path d="M97.4199 29.3874C96.6799 27.1174 94.4499 25.8574 92.1099 26.2774C89.7699 26.6974 88.2599 28.7774 87.8699 30.9574C87.4099 33.5074 88.2999 36.1975 90.9099 37.1175C93.2499 37.9375 95.6999 36.8874 97.0699 34.9074C98.3299 33.0874 98.5499 30.5675 97.4199 28.6275C96.1799 26.5075 93.47 25.8474 91.45 27.2774C89.43 28.7074 88.57 31.7074 89.59 33.9774C90.61 36.2474 93.3499 37.1774 95.4799 35.8474C98.2299 34.1274 97.2599 30.3574 94.5599 29.2274C93.2799 28.6874 91.8499 28.7674 90.6399 29.4674C89.1499 30.3274 88.73 31.7874 88.95 33.3874C89.14 34.7274 90.8399 35.4574 92.0299 35.1374C93.4699 34.7374 93.9699 33.4074 93.7799 32.0574L93.7399 31.7974V33.1275C93.6399 33.6175 93.0599 33.9974 92.5999 33.8074C92.1599 33.4874 92.1599 33.0674 92.5999 32.5474C92.5099 31.8174 92.7899 31.4574 93.4199 31.4574C93.5999 31.4774 94.2899 31.9974 94.1599 32.0474C94.1199 32.0674 94.2399 31.2775 94.2999 31.3675C94.3999 31.5475 93.0899 31.1574 93.1199 31.1574C93.1899 31.1474 93.2299 31.5774 93.1199 31.8174C93.0699 31.9374 92.46 32.6874 92.47 32.4074C92.47 32.3474 92.6099 32.4374 92.6199 32.4374C92.8199 32.6674 92.8599 32.7374 92.7399 32.6574C92.7199 32.4274 92.7299 32.1874 92.7399 31.9574C92.7499 31.8874 93.1499 30.8574 93.2699 31.0574C93.2899 31.0874 92.9599 31.2474 92.8999 31.1474C92.7199 31.0274 92.7599 31.0474 93.0199 31.1974C92.8099 31.0774 92.6699 30.9174 92.5999 30.7074C93.5899 33.7574 98.4199 32.4475 97.4199 29.3775V29.3874Z" fill="#20BEFF"/>
<path d="M115.11 30.7965C114.82 26.6065 109.55 24.7466 106.99 28.3466C104.68 31.5966 107.39 36.1765 111.32 35.8965C114.93 35.6365 117.26 31.6565 115.21 28.5165C113.03 25.1665 107.94 25.8765 106.87 29.7665C105.89 33.3165 109.7 36.6366 113.11 35.4466C115.02 34.7766 115.95 32.7065 115.33 30.7965C114.74 29.0065 113.06 27.7866 111.21 27.6266C107.31 27.2866 104.57 32.1965 107.44 35.1365C110.31 38.0765 114.94 35.9966 114.83 32.0566C114.72 28.1166 109.83 26.5466 107.18 29.2166C104.29 32.1266 106.63 37.0666 110.54 37.2266C114.45 37.3866 116.93 33.2666 115.6 29.8066C114.18 26.1166 109.06 25.8366 107.23 29.3566C105.4 32.8766 107.77 37.4366 111.81 37.1966C116.33 36.9366 117.02 31.3665 114.16 28.6365C111.46 26.0765 107.03 26.9166 105.73 30.4566C104.43 33.9966 107.91 37.4466 111.55 36.6866C115.62 35.8366 117.18 31.0265 114.51 27.9065C111.84 24.7865 107.22 25.6166 105.49 29.1166C103.62 32.9166 106.58 37.1365 110.71 37.1465C114.51 37.1465 117.25 32.8566 115.87 29.3766C115.37 28.1166 114.2 27.2466 112.79 27.6266C111.59 27.9566 110.55 29.4366 111.04 30.7066C111.32 31.4166 111.1 32.3565 110.44 32.1365C109.73 31.8965 109.74 31.0666 110.3 30.9566C110.55 30.9066 110.73 31.1866 110.89 31.4466C110.82 31.3366 111.01 31.3766 110.87 31.6066C110.9 31.5566 110.63 31.7666 110.46 31.8366C110.52 31.8066 110.53 31.8366 110.59 31.8066C109.54 32.1666 110.41 31.7166 110.38 31.8266C110.38 31.8466 110.38 31.9466 110.42 32.2466C110.36 31.6666 110.5 32.0465 110.4 32.1465C110.48 32.0765 110.5 32.0866 110.56 32.1166C110.66 32.1766 110.79 32.3766 110.89 32.4366C111.21 32.6366 110.64 32.6566 111.2 32.4466C111.47 32.3466 111.55 32.1965 111.62 32.0265C111.8 31.6065 111.51 31.6965 111.58 31.7565C111.69 31.8565 110.59 31.5166 110.91 31.4466C111.07 31.4066 110.97 31.9565 110.94 32.1365C110.93 32.2165 110.94 32.3266 110.94 32.3466C110.77 32.8566 110.1 33.0466 109.9 32.3666C109.65 31.5166 111.33 31.0366 111.26 32.1066C111.24 32.4566 111.26 32.2665 110.98 32.5365C110.95 32.5665 110.92 32.5666 110.89 32.5866C110.84 32.6466 110.79 32.6066 110.75 32.4966C110.19 32.0166 110.47 31.4166 111.59 30.6966C111.59 30.6666 111.86 30.6966 111.84 30.6966C111.61 30.7866 111.65 30.5166 111.65 30.6166C111.65 30.5166 111.79 31.0166 111.71 31.1266C111.61 31.2666 111.2 31.2766 111.15 31.2466C111.05 31.1966 111.19 30.9965 111.08 30.8965C111.06 30.8765 111.15 30.8266 111.15 30.8066C111.16 30.7066 111 31.0465 110.98 30.8965C110.99 30.9865 111.11 30.8466 111.1 30.8766C111.1 30.8766 111.18 31.1765 110.97 31.2965C110.57 31.5265 110.18 31.1565 110.15 30.7665C110.24 32.1165 111.23 33.2665 112.65 33.2665C113.93 33.2665 115.24 32.1165 115.15 30.7665L115.11 30.7965Z" fill="#20BEFF"/>
<path d="M0.189983 24.6462C22.02 24.0262 43.85 23.3963 65.69 23.4263C86.94 23.4463 108.25 25.3063 129.49 24.6963C131.1 24.6463 131.1 22.1463 129.49 22.1963C108.25 22.8063 86.94 20.9463 65.69 20.9263C43.85 20.9063 22.02 21.5262 0.189983 22.1462C-1.42002 22.1962 -1.42002 24.6962 0.189983 24.6462Z" fill="#20BEFF"/>
<path d="M0.720012 42.9062C44.22 43.1562 87.7299 43.4163 131.23 43.6663C132.84 43.6663 132.84 41.1763 131.23 41.1663C87.7299 40.9163 44.22 40.6562 0.720012 40.4062C-0.889988 40.4062 -0.889988 42.8963 0.720012 42.9062Z" fill="#20BEFF"/>
<path d="M2.03993 48.7078C12.1199 50.0378 22.44 49.6778 32.59 49.7878C43.57 49.9078 54.5499 49.9779 65.5399 49.9879C87.1699 50.0279 108.8 49.8578 130.43 49.5078C132.04 49.4778 132.04 46.9778 130.43 47.0078C108.8 47.3578 87.1699 47.5179 65.5399 47.4879C54.8899 47.4679 44.24 47.4078 33.59 47.2978C23.12 47.1878 12.4499 47.5778 2.04994 46.2078C0.459941 45.9978 0.479941 48.4978 2.04994 48.7078H2.03993Z" fill="#20BEFF"/>
</g>
</svg>
