<svg width="283" height="207" viewBox="0 0 283 207" fill="none" xmlns="http://www.w3.org/2000/svg">
<path d="M206.72 76.3705C230.43 75.8305 254.14 74.9104 277.82 73.6004C281.02 73.4204 281.04 68.4204 277.82 68.6004C254.14 69.9104 230.43 70.8305 206.72 71.3705C203.51 71.4405 203.5 76.4405 206.72 76.3705Z" fill="#20BEFF"/>
<path d="M16.59 76.1102C52.56 71.5002 88.62 77.1702 124.68 76.6002C127.89 76.5502 127.9 71.5502 124.68 71.6002C88.62 72.1702 52.56 66.5002 16.59 71.1102C13.44 71.5102 13.4 76.5202 16.59 76.1102Z" fill="#20BEFF"/>
<path d="M275.75 72.4209C275.77 112.471 276.2 152.521 277.04 192.561C277.11 195.771 282.11 195.781 282.04 192.561C281.2 152.521 280.77 112.471 280.75 72.4209C280.75 69.2009 275.75 69.2009 275.75 72.4209Z" fill="#20BEFF"/>
<path d="M13.55 75.5809C14.7 116.661 15.38 157.791 17.41 198.841L22.32 198.181L21.93 196.461C21.22 193.321 16.4 194.651 17.11 197.791L17.5 199.511C18.12 202.241 22.55 201.671 22.41 198.851C20.38 157.801 19.7 116.671 18.55 75.5909C18.46 72.3809 13.46 72.3709 13.55 75.5909V75.5809Z" fill="#20BEFF"/>
<path d="M5.13 91.6409C10.53 87.4009 14.97 82.1808 18.35 76.2008C19.94 73.4008 15.62 70.8709 14.03 73.6809C10.84 79.3209 6.67999 84.1109 1.58999 88.1009C-0.940009 90.0909 2.62 93.6009 5.13 91.6409Z" fill="#20BEFF"/>
<path d="M1.11999 90.3409C2.01999 126.821 -1.35001 163.311 1.14999 199.761C1.36999 202.951 6.36999 202.981 6.14999 199.761C3.64999 163.311 7.02999 126.821 6.11999 90.3409C6.03999 87.1309 1.03999 87.1209 1.11999 90.3409Z" fill="#20BEFF"/>
<path d="M89.09 88.7809C87.64 107.941 87.66 127.121 89.1 146.271C89.8 155.621 90.14 164.821 89.72 174.191C89.3 183.561 88.71 193.261 89.6 202.811C89.9 206.051 94.23 206.001 94.6 202.811L94.79 201.161C95.16 197.971 90.15 198.001 89.79 201.161L89.6 202.811H94.6C93.71 193.261 94.3 183.741 94.72 174.191C95.14 164.641 94.8 155.621 94.1 146.271C92.66 127.111 92.64 107.931 94.09 88.7809C94.33 85.5709 89.33 85.5909 89.09 88.7809Z" fill="#20BEFF"/>
<path d="M207.39 89.5608C221.97 89.0108 236.54 88.3508 251.11 87.7408C254.32 87.6108 254.33 82.6108 251.11 82.7408C236.54 83.3508 221.97 84.0108 207.39 84.5608C204.18 84.6808 204.17 89.6808 207.39 89.5608Z" fill="#20BEFF"/>
<path d="M92.31 90.8404C102.96 89.2404 113.74 90.2705 124.44 90.5105C127.66 90.5805 127.66 85.5805 124.44 85.5105C113.24 85.2605 102.12 84.3505 90.98 86.0205C87.81 86.5005 89.16 91.3104 92.31 90.8404Z" fill="#20BEFF"/>
<path d="M248.28 86.4707C248.36 125.601 249.74 164.711 252.42 203.741C252.64 206.931 257.64 206.961 257.42 203.741C254.74 164.701 253.36 125.591 253.28 86.4707C253.28 83.2507 248.27 83.2507 248.28 86.4707Z" fill="#20BEFF"/>
<path d="M230.86 98.9505L230.84 99.0905L233.25 97.2505L233.05 97.2305L235.55 99.7305L235.58 99.4905L234.85 101.261C236.86 99.0005 239.68 97.1305 242.03 95.2105C244.68 93.0405 247.35 90.9106 250.04 88.8006C252.57 86.8206 249.01 83.3005 246.5 85.2605C243.21 87.8405 239.95 90.4505 236.73 93.1205C234.65 94.8405 230.87 96.8105 230.56 99.7305C230.4 101.181 231.84 102.091 233.06 102.231L233.26 102.251C234.23 102.361 235.52 101.401 235.67 100.411L235.69 100.271C236.16 97.1206 231.34 95.7605 230.87 98.9405L230.86 98.9505Z" fill="#20BEFF"/>
<path d="M230.16 101.391C232.14 133.951 232.72 166.571 231.9 199.171C231.82 202.391 236.82 202.391 236.9 199.171C237.72 166.561 237.14 133.941 235.16 101.391C234.97 98.1909 229.96 98.1709 230.16 101.391Z" fill="#20BEFF"/>
<path d="M205.16 102.25C214.6 102.32 224.03 102.26 233.44 101.44C236.62 101.16 236.65 96.16 233.44 96.44C224.03 97.27 214.6 97.3301 205.16 97.2501C201.94 97.2301 201.94 102.23 205.16 102.25Z" fill="#20BEFF"/>
<path d="M92 102.93C102.93 102.91 113.86 102.88 124.79 102.86C128.01 102.86 128.01 97.8504 124.79 97.8604C113.86 97.8804 102.93 97.9104 92 97.9304C88.78 97.9304 88.78 102.94 92 102.93Z" fill="#20BEFF"/>
<path d="M17.96 88.6303C44.86 87.8803 71.76 87.6803 98.67 88.0303C100.28 88.0503 100.28 85.5503 98.67 85.5303C71.77 85.1803 44.86 85.3803 17.96 86.1303C16.35 86.1703 16.35 88.6803 17.96 88.6303Z" fill="#20BEFF"/>
<path d="M17.77 112.21C42.17 112.94 66.59 112.78 90.98 111.75C92.58 111.68 92.59 109.18 90.98 109.25C66.59 110.29 42.17 110.44 17.77 109.71C16.16 109.66 16.16 112.16 17.77 112.21Z" fill="#20BEFF"/>
<path d="M20.3 133.71C44.08 133.04 67.87 132.72 91.65 132.76C93.26 132.76 93.26 130.26 91.65 130.26C67.86 130.22 44.08 130.54 20.3 131.21C18.69 131.26 18.69 133.76 20.3 133.71Z" fill="#20BEFF"/>
<path d="M20.73 152.481C44.36 154.261 68.05 154.081 91.65 151.951C93.24 151.811 93.25 149.301 91.65 149.451C68.05 151.591 44.36 151.771 20.73 149.981C19.13 149.861 19.13 152.361 20.73 152.481Z" fill="#20BEFF"/>
<path d="M21.08 173.271C44.57 171.511 68.12 171.941 91.65 171.721C93.26 171.711 93.26 169.211 91.65 169.221C68.12 169.441 44.57 169.011 21.08 170.771C19.49 170.891 19.47 173.391 21.08 173.271Z" fill="#20BEFF"/>
<path d="M49.16 102.77C53.31 103.19 57.46 103.33 61.63 103.19C64.84 103.08 64.85 98.0804 61.63 98.1904C57.46 98.3304 53.31 98.1905 49.16 97.7705C45.96 97.4405 45.98 102.45 49.16 102.77Z" fill="#20BEFF"/>
<path d="M48.37 123.86H61.63C64.85 123.86 64.85 118.86 61.63 118.86H48.37C45.15 118.86 45.15 123.86 48.37 123.86Z" fill="#20BEFF"/>
<path d="M48.37 142.971C51.59 142.971 51.59 137.971 48.37 137.971C45.15 137.971 45.15 142.971 48.37 142.971Z" fill="#20BEFF"/>
<path d="M48.37 142.971H61.63C64.85 142.971 64.85 137.971 61.63 137.971H48.37C45.15 137.971 45.15 142.971 48.37 142.971Z" fill="#20BEFF"/>
<path d="M47.98 164.841C52.15 164.691 56.31 164.741 60.47 164.971C63.69 165.151 63.68 160.151 60.47 159.971C56.31 159.741 52.15 159.701 47.98 159.841C44.77 159.951 44.76 164.951 47.98 164.841Z" fill="#20BEFF"/>
<path d="M49.93 183.881C53.57 183.701 57.22 183.531 60.86 183.351C64.06 183.201 64.08 178.201 60.86 178.351C57.22 178.531 53.57 178.701 49.93 178.881C46.73 179.031 46.71 184.031 49.93 183.881Z" fill="#20BEFF"/>
<path d="M17.11 87.9407C16.41 85.6507 14.13 85.7708 12.46 86.9308C8.99997 89.3208 5.86997 92.4208 2.63997 95.1208C1.39997 96.1508 3.17997 97.9108 4.40997 96.8908C6.07997 95.4908 7.74996 94.1007 9.41996 92.7007C10.03 92.1907 14.7 88.6108 14.7 88.6108C15.17 90.1408 17.58 89.4907 17.11 87.9507V87.9407Z" fill="#20BEFF"/>
<path d="M13.95 93.181C10.27 96.781 6.59999 100.381 2.91999 103.981C1.76999 105.111 3.54 106.881 4.69 105.751C8.37 102.151 12.04 98.5509 15.72 94.9509C16.87 93.8209 15.1 92.051 13.95 93.181Z" fill="#20BEFF"/>
<path d="M16.29 97.4707C12.05 102.141 8.07 107.031 4.35 112.121C3.4 113.421 5.56999 114.671 6.50999 113.381C10.11 108.461 13.96 103.751 18.06 99.2407C19.14 98.0507 17.38 96.2807 16.29 97.4707Z" fill="#20BEFF"/>
<path d="M15.88 104.451C12.27 109.881 6.93998 114.401 2.42997 119.091C1.30997 120.251 3.07998 122.021 4.19998 120.861C8.86998 116.011 14.3 111.351 18.04 105.721C18.93 104.381 16.77 103.121 15.88 104.461V104.451Z" fill="#20BEFF"/>
<path d="M14.74 114.24C10.59 118.61 6.69999 123.2 3.04999 128C2.07999 129.28 4.24999 130.53 5.20999 129.26C8.72999 124.64 12.51 120.23 16.51 116.01C17.62 114.84 15.85 113.07 14.74 114.24Z" fill="#20BEFF"/>
<path d="M15.77 118.821C11.64 124.991 7.12001 130.851 2.22001 136.421C1.16001 137.621 2.92001 139.401 3.99001 138.191C9.04001 132.461 13.68 126.421 17.93 120.081C18.83 118.741 16.66 117.491 15.77 118.821Z" fill="#20BEFF"/>
<path d="M14.37 130.251C9.67998 136.221 4.97998 142.181 0.289978 148.151C-0.690022 149.401 1.05998 151.181 2.05998 149.921C6.74998 143.951 11.45 137.991 16.14 132.021C17.12 130.771 15.37 128.991 14.37 130.251Z" fill="#20BEFF"/>
<path d="M15.21 137.741C10.8 141.261 6.84002 145.231 3.33002 149.641C2.34002 150.891 4.10002 152.671 5.10002 151.411C8.61002 147.001 12.57 143.031 16.98 139.511C18.24 138.511 16.46 136.751 15.21 137.741Z" fill="#20BEFF"/>
<path d="M15 145.741C11.44 150.641 7.88998 155.551 4.32998 160.451C3.37998 161.751 5.54998 163.001 6.48998 161.711L17.16 147.001C18.11 145.701 15.94 144.451 15 145.741Z" fill="#20BEFF"/>
<path d="M17.71 154.211C12.83 159.991 7.76999 165.591 2.50999 171.021C1.38999 172.181 3.16 173.951 4.28 172.791C9.53 167.361 14.6 161.751 19.48 155.981C20.51 154.761 18.75 152.981 17.71 154.211Z" fill="#20BEFF"/>
<path d="M15.27 167.031C10.84 171.191 7.03999 175.891 3.89999 181.091C3.06999 182.471 5.22999 183.731 6.05999 182.351C9.08999 177.321 12.76 172.811 17.04 168.791C18.22 167.691 16.45 165.921 15.27 167.021V167.031Z" fill="#20BEFF"/>
<path d="M17.08 175.071C13.31 180.091 9.25996 184.881 4.94996 189.451C3.84996 190.621 5.60996 192.391 6.71996 191.221C11.17 186.491 15.34 181.531 19.24 176.341C20.21 175.051 18.04 173.811 17.08 175.081V175.071Z" fill="#20BEFF"/>
<path d="M16.09 183.89C12.56 189.46 8.57001 194.68 4.11001 199.54C3.02001 200.72 4.79002 202.5 5.88002 201.31C10.48 196.29 14.6 190.9 18.25 185.15C19.11 183.79 16.95 182.53 16.09 183.89Z" fill="#20BEFF"/>
<path d="M16.99 192.921C15.35 195.521 13.54 197.991 11.54 200.321C10.5 201.541 12.26 203.311 13.31 202.091C15.45 199.591 17.4 196.961 19.16 194.181C20.02 192.821 17.86 191.561 17 192.921H16.99Z" fill="#20BEFF"/>
<path d="M95.12 90.1808C94.8 92.9408 95.0499 95.6607 95.8299 98.3207C96.2799 99.8607 98.6999 99.2008 98.2399 97.6608C97.5199 95.1908 97.32 92.7308 97.62 90.1808C97.8 88.5808 95.3 88.6008 95.12 90.1808Z" fill="#20BEFF"/>
<path d="M100.14 89.7807L100.01 97.9707C99.98 99.5807 102.48 99.5807 102.51 97.9707L102.64 89.7807C102.67 88.1707 100.17 88.1707 100.14 89.7807Z" fill="#20BEFF"/>
<path d="M104.98 89.3706L106.28 99.1506C106.49 100.721 108.99 100.741 108.78 99.1506L107.48 89.3706C107.27 87.8006 104.77 87.7806 104.98 89.3706Z" fill="#20BEFF"/>
<path d="M110.74 89.0105C110.41 93.0005 110.85 96.9005 112.02 100.721C112.49 102.251 114.91 101.601 114.43 100.061C113.32 96.4406 112.93 92.7905 113.24 89.0105C113.37 87.4105 110.87 87.4105 110.74 89.0105Z" fill="#20BEFF"/>
<path d="M115.32 90.5701C115.59 93.7201 116.09 96.8202 116.85 99.8902C117.23 101.45 119.65 100.79 119.26 99.2302C118.56 96.3802 118.07 93.5001 117.82 90.5701C117.68 88.9801 115.18 88.9601 115.32 90.5701Z" fill="#20BEFF"/>
<path d="M121.16 89.7504C121.86 92.4604 122.13 95.1803 121.98 97.9703C121.9 99.5803 124.4 99.5703 124.48 97.9703C124.63 94.9603 124.32 92.0003 123.57 89.0803C123.17 87.5203 120.76 88.1804 121.16 89.7404V89.7504Z" fill="#20BEFF"/>
<path d="M208.97 89.4506C208.06 93.1506 207.51 96.8906 207.33 100.701C207.25 102.311 209.75 102.301 209.83 100.701C210 97.1206 210.52 93.6007 211.38 90.1207C211.77 88.5607 209.36 87.8906 208.97 89.4606V89.4506Z" fill="#20BEFF"/>
<path d="M218.09 88.0003C216.3 91.5503 215.05 95.2703 214.39 99.1903C214.12 100.76 216.53 101.44 216.8 99.8503C217.43 96.1403 218.55 92.6203 220.25 89.2503C220.97 87.8203 218.82 86.5503 218.09 87.9903V88.0003Z" fill="#20BEFF"/>
<path d="M223.24 88.0409L219.08 97.2809C218.42 98.7409 220.58 100.011 221.24 98.5409L225.4 89.3009C226.06 87.8409 223.9 86.5709 223.24 88.0409Z" fill="#20BEFF"/>
<path d="M228.49 89.5001L223.98 98.5502C223.26 99.9902 225.42 101.25 226.14 99.8102C227.64 96.7902 229.15 93.7802 230.65 90.7602C231.37 89.3202 229.21 88.0601 228.49 89.5001Z" fill="#20BEFF"/>
<path d="M235.41 88.4901C233.91 91.1301 232.27 93.6801 230.48 96.1401C229.53 97.4401 231.7 98.6901 232.64 97.4001C234.43 94.9401 236.07 92.4001 237.57 89.7501C238.37 88.3501 236.21 87.0901 235.41 88.4901Z" fill="#20BEFF"/>
<path d="M229.36 86.8105L228.19 89.5405C227.92 90.1605 228.01 90.8805 228.64 91.2505C229.17 91.5605 230.08 91.4305 230.35 90.8005L231.52 88.0704C231.79 87.4504 231.7 86.7305 231.07 86.3605C230.54 86.0505 229.63 86.1805 229.36 86.8105Z" fill="#20BEFF"/>
<path d="M246.48 95.5906C241.83 99.0106 237.19 102.441 232.54 105.861C231.26 106.801 232.5 108.981 233.8 108.021C238.45 104.601 243.09 101.171 247.74 97.7506C249.02 96.8106 247.78 94.6306 246.48 95.5906Z" fill="#20BEFF"/>
<path d="M246.48 103.78L236 111.26C234.7 112.19 235.95 114.36 237.26 113.42L247.74 105.94C249.04 105.01 247.79 102.84 246.48 103.78Z" fill="#20BEFF"/>
<path d="M246.59 110.18C242.34 113.48 238.1 116.79 233.85 120.09C232.58 121.08 234.36 122.83 235.62 121.86C239.87 118.56 244.11 115.25 248.36 111.95C249.63 110.96 247.85 109.21 246.59 110.18Z" fill="#20BEFF"/>
<path d="M250.94 116.12C245.02 119.69 239.44 123.72 234.17 128.2C232.94 129.24 234.72 131.01 235.94 129.97C241.04 125.63 246.46 121.74 252.2 118.28C253.58 117.45 252.32 115.29 250.94 116.12Z" fill="#20BEFF"/>
<path d="M248.67 123.21C243.99 126.98 239.01 130.31 233.76 133.23C232.35 134.01 233.61 136.171 235.02 135.391C240.46 132.361 245.59 128.89 250.44 124.98C251.69 123.97 249.91 122.21 248.67 123.21Z" fill="#20BEFF"/>
<path d="M250.21 129.421C245.35 133.121 240.49 136.831 235.64 140.531C234.38 141.491 235.62 143.661 236.9 142.691C241.76 138.991 246.62 135.281 251.47 131.581C252.73 130.621 251.49 128.451 250.21 129.421Z" fill="#20BEFF"/>
<path d="M248.77 136.991L239.24 144.481C236.81 146.391 233.65 148.171 232.36 151.101C231.72 152.561 233.87 153.831 234.52 152.361C235.8 149.441 239.52 147.411 241.96 145.491C244.82 143.241 247.68 141.001 250.54 138.751C251.8 137.761 250.02 136.001 248.77 136.981V136.991Z" fill="#20BEFF"/>
<path d="M248.89 146.38C244.29 149.82 239.91 153.51 235.75 157.48C234.58 158.59 236.35 160.36 237.52 159.25C241.52 155.43 245.73 151.86 250.15 148.54C251.42 147.59 250.18 145.42 248.89 146.38Z" fill="#20BEFF"/>
<path d="M250.18 154.33C246.78 156.91 243.38 159.5 239.98 162.08C238.63 163.1 234.88 164.96 236.36 167.19C237.25 168.52 239.41 167.27 238.52 165.93C238.75 166.27 250.33 157.33 251.44 156.49C252.7 155.53 251.46 153.36 250.18 154.33Z" fill="#20BEFF"/>
<path d="M250.01 160.331C245.37 163.511 240.73 166.681 236.09 169.861C234.77 170.761 236.02 172.931 237.35 172.021C241.99 168.841 246.63 165.671 251.27 162.491C252.59 161.591 251.34 159.421 250.01 160.331Z" fill="#20BEFF"/>
<path d="M250.15 168.33C244.6 172.08 239.29 176.12 234.19 180.46C232.96 181.51 234.74 183.27 235.96 182.23C240.89 178.03 246.04 174.12 251.41 170.49C252.74 169.59 251.49 167.43 250.15 168.33Z" fill="#20BEFF"/>
<path d="M251.42 173.931C245.74 178.101 240.07 182.271 234.39 186.441C233.11 187.381 234.35 189.551 235.65 188.601C241.33 184.431 247 180.261 252.68 176.091C253.96 175.151 252.72 172.981 251.42 173.931Z" fill="#20BEFF"/>
<path d="M251.48 180.631C246.65 184.671 241.61 188.421 236.37 191.921C235.04 192.811 236.29 194.971 237.63 194.081C243.05 190.471 248.25 186.571 253.25 182.401C254.49 181.371 252.71 179.611 251.48 180.631Z" fill="#20BEFF"/>
<path d="M251.31 187.461C249.52 190.761 247.19 193.621 244.33 196.051C243.1 197.091 244.88 198.861 246.1 197.821C249.11 195.261 251.59 192.191 253.48 188.721C254.25 187.311 252.09 186.041 251.32 187.461H251.31Z" fill="#20BEFF"/>
<path d="M88.1 60.6697L121.42 60.6396C124.64 60.6396 124.64 55.6396 121.42 55.6396L88.1 55.6697C84.88 55.6697 84.88 60.6697 88.1 60.6697Z" fill="#20BEFF"/>
<path d="M86.09 6.26004C87.17 23.73 86.76 41.21 84.85 58.61C84.5 61.8 89.5 61.78 89.85 58.61C91.76 41.21 92.17 23.73 91.09 6.26004C90.89 3.06004 85.89 3.04004 86.09 6.26004Z" fill="#20BEFF"/>
<path d="M89.83 7.69985C107.56 8.69985 125.23 7.00984 142.93 6.06984C151.59 5.60984 160.27 5.32985 168.94 5.70986C177.61 6.08986 186.54 8.08993 195.36 7.78993C198.57 7.67993 198.58 2.67993 195.36 2.78993C186.54 3.08993 177.75 1.09986 168.94 0.709855C160.13 0.319855 151.59 0.59984 142.93 1.06984C125.23 2.01984 107.57 3.70985 89.83 2.69985C86.62 2.51985 86.63 7.51985 89.83 7.69985Z" fill="#20BEFF"/>
<path d="M194.31 5.20958C194.07 8.05958 194.41 10.9096 195.26 13.6496C196.21 16.7096 201.04 15.4096 200.08 12.3196C199.35 9.96956 199.1 7.66958 199.31 5.20958C199.58 1.99958 194.58 2.01958 194.31 5.20958Z" fill="#20BEFF"/>
</svg>
