<svg width="92" height="84" viewBox="0 0 92 84" fill="none" xmlns="http://www.w3.org/2000/svg">
<path d="M28.9327 45.343C28.3284 36.9454 31.6874 28.7675 40.1635 25.9892C44.6527 24.5138 50.17 23.4072 54.1177 26.5622C57.4689 29.2463 60.5454 32.8721 61.5107 37.1337C63.4178 45.602 57.7671 53.7406 49.4715 55.632C40.6266 57.649 32.1976 52.0453 29.2388 43.7498C28.399 41.3875 24.6005 42.4077 25.4559 44.7936C29.0818 54.9414 39.0805 61.7457 49.9659 59.5404C60.2471 57.4528 67.2634 47.6111 65.5054 37.1887C64.5794 31.6871 60.9535 27.0644 56.7154 23.5955C52.2027 19.899 46.9444 20.3071 41.5762 21.5471C30.157 24.1842 24.1845 33.8846 25.0086 45.343C25.1891 47.8466 29.1132 47.8701 28.9327 45.343Z" fill="#20BEFF"/>
<path d="M46.4343 42.244C47.6978 41.9772 48.3885 40.5096 48.0118 39.3323C47.5252 37.8412 45.775 37.3075 44.4565 38.0531C42.4709 39.1754 42.4317 42.2283 44.3309 43.437C46.2302 44.6456 48.8751 43.2094 48.8751 40.9805C48.8751 38.4455 45.4297 37.2368 43.8836 39.2381C43.1302 40.2113 43.1145 41.6554 43.8051 42.6678C44.5743 43.798 45.775 44.1669 47.07 44.3238C48.5376 44.4965 49.5343 42.5266 48.7652 41.3729C47.9961 40.2192 46.8267 39.5286 45.4219 39.4736C44.3937 39.4265 43.4127 40.4076 43.4598 41.4357C43.5069 42.5344 44.3231 43.3507 45.4219 43.3977C45.6652 43.4056 45.5003 43.3977 45.3512 43.382C45.6887 43.4213 45.2178 43.28 45.3748 43.382C45.5945 43.5233 45.1707 43.1466 45.3434 43.3428C45.4219 43.4291 45.6024 43.696 45.3748 43.3507L47.07 40.3997C47.5095 40.4468 47.1249 40.3997 47.0229 40.3761C46.9444 40.3604 46.8659 40.3369 46.7874 40.3055L46.9601 40.3761C46.7953 40.2741 46.7796 40.2663 46.8973 40.3448C46.9915 40.3997 47.0621 40.4782 47.1171 40.5802C47.172 40.6822 47.2348 40.9098 47.172 40.6665C47.3996 41.5691 46.4735 42.2676 45.6338 42.0792C45.7907 42.1263 45.7829 42.1185 45.6181 42.0635C45.4846 42.0321 45.3748 41.9615 45.2806 41.8595C45.0373 41.624 45.0059 41.3729 44.998 41.0511C44.9902 40.7293 45.0137 40.486 45.257 40.227L45.4611 40.0622C45.7358 39.9681 45.7986 39.9366 45.6494 39.9759C45.5474 39.9994 45.571 39.9994 45.7358 39.9759C45.8771 39.9366 46.0183 39.9524 46.1596 39.9994C46.3872 40.0701 46.5049 40.2427 46.6776 40.384C46.7561 40.5017 46.7717 40.5174 46.7168 40.4311C46.6462 40.2977 46.6697 40.3604 46.7953 40.6116L46.8267 40.8784C46.8267 40.7058 46.8267 40.7058 46.811 40.8784C46.7796 41.0511 46.7874 41.059 46.8267 40.8863L46.7325 41.1217C46.5049 41.522 45.877 41.7574 45.4532 41.6083L44.5899 41.106C44.1426 40.5253 44.0641 39.9288 44.3623 39.3009L45.0687 38.5946L45.3826 38.4612C44.378 38.6731 43.7031 39.9131 44.0092 40.8784C44.3545 41.9458 45.3434 42.4716 46.4264 42.2519L46.4343 42.244Z" fill="#20BEFF"/>
<path d="M47.9725 39.0949C47.5252 36.1125 47.0778 33.1302 46.6305 30.1401C46.2537 27.6522 42.4788 28.7117 42.8476 31.1839C43.295 34.1662 43.7423 37.1485 44.1897 40.1387C44.5664 42.6266 48.3414 41.5671 47.9725 39.0949Z" fill="#20BEFF"/>
<path d="M48.3021 42.9001C50.9156 42.076 53.5997 41.7699 56.3152 42.1623C58.7873 42.5233 59.8547 38.7405 57.359 38.3795C53.9214 37.8772 50.5781 38.0655 47.2583 39.1172C44.8567 39.8785 45.8848 43.6692 48.3021 42.9001Z" fill="#20BEFF"/>
<g clip-path="url(#clip0_747_353)">
<path d="M49.1091 15.964L49.1685 2.05162C49.177 -0.679966 44.9354 -0.679966 44.9269 2.05162L44.8675 15.964C44.859 18.6956 49.1006 18.6956 49.1091 15.964Z" fill="#FF46A0"/>
<path d="M66.05 24.101C70.2746 20.8859 74.3296 17.4672 78.1725 13.7939C80.149 11.9022 77.146 8.90764 75.1694 10.7909C71.5895 14.2096 67.8484 17.4417 63.9122 20.4363C61.766 22.065 63.8783 25.7552 66.05 24.101Z" fill="#FF46A0"/>
<path d="M70.8175 41.475C77.1969 41.475 83.5762 41.475 89.9556 41.475C92.6872 41.475 92.6872 37.2334 89.9556 37.2334C83.5762 37.2334 77.1969 37.2334 70.8175 37.2334C68.086 37.2334 68.086 41.475 70.8175 41.475Z" fill="#FF46A0"/>
<path d="M65.541 61.155C70.2152 61.8167 74.2956 64.7943 78.3082 67.1017C80.675 68.4675 82.8127 64.8027 80.4459 63.437C76.1195 60.9429 71.7167 57.7787 66.6608 57.0661C63.9886 56.6928 62.8349 60.7732 65.5325 61.155H65.541Z" fill="#FF46A0"/>
<path d="M44.0107 66.8975C43.7308 71.6312 43.6035 76.3732 43.646 81.1153C43.6714 83.8469 47.913 83.8469 47.8875 81.1153C47.8536 76.3732 47.9724 71.6312 48.2523 66.8975C48.4135 64.1744 44.1719 64.1829 44.0107 66.8975Z" fill="#FF46A0"/>
<path d="M18.4339 37.1801C12.9708 37.265 7.50761 37.2395 2.05293 37.1207C-0.678654 37.0614 -0.678654 41.3029 2.05293 41.3623C7.51609 41.4896 12.9708 41.5065 18.4339 41.4217C21.157 41.3793 21.1655 37.1377 18.4339 37.1801Z" fill="#FF46A0"/>
<path d="M26.6965 17.3469C24.8811 17.084 23.0572 15.3279 21.5812 14.293C19.9185 13.1308 18.2897 11.9262 16.6694 10.6961C14.4977 9.04191 12.3854 12.7236 14.5317 14.3609C16.364 15.7521 18.2134 17.1094 20.1051 18.4243C21.7508 19.5695 23.5323 21.1474 25.5683 21.4358C28.2405 21.8176 29.3942 17.7287 26.6965 17.3469Z" fill="#FF46A0"/>
<path d="M24.5503 56.7591C18.943 58.4472 15.134 62.4767 11.5456 66.9049C9.84051 69.0088 12.8266 72.0288 14.5487 69.908C17.6281 66.1075 20.8347 62.3155 25.6786 60.8564C28.2829 60.0675 27.1716 55.9786 24.5503 56.7675V56.7591Z" fill="#FF46A0"/>
</g>
<defs>
<clipPath id="clip0_747_353">
<rect width="92" height="83.169" fill="white"/>
</clipPath>
</defs>
</svg>
