<svg width="163" height="133" viewBox="0 0 163 133" fill="none" xmlns="http://www.w3.org/2000/svg">
<path d="M9.32343 65.7051C9.32343 66.7347 8.80247 69.7194 9.51892 70.4359C9.92037 70.8373 10.3971 71.1968 10.8091 71.6088C11.1933 71.993 11.2076 72.7721 11.6106 73.0945C11.9999 73.4059 12.0619 74.191 12.4121 74.5802C12.9374 75.1639 13.7927 75.5142 14.2497 76.0855C15.3144 77.4163 16.0571 78.8109 16.8888 80.308C17.1351 80.7514 17.1993 81.5768 17.5926 81.8915C18.056 82.2622 17.1585 81.086 16.9866 80.914C15.9111 79.8386 14.6519 79.0653 13.546 78.0208C12.3062 76.85 10.5364 76.7032 9.32343 75.5577C8.18434 74.4819 7.68394 73.1023 7.21216 71.687" stroke="white" stroke-width="5" stroke-linecap="round"/>
<path d="M13.1941 75.5566C13.1941 78.6794 15.4846 82.3857 17.9444 84.3536C18.8976 85.1161 19.3819 86.4836 19.958 87.5205C20.5149 88.5231 22.0263 89.843 22.3234 90.8829C23.0283 93.3501 25.7388 96.0784 27.6993 97.6468C30.7549 100.091 36.227 99.4844 39.9368 99.4844" stroke="white" stroke-width="5" stroke-linecap="round"/>
<path d="M44.1593 117.782C43.3311 117.678 43.8801 115.443 44.2375 115.045C46.2915 112.754 47.9015 109.949 49.6329 107.382C50.5077 106.085 51.4287 104.829 52.272 103.511C52.7564 102.754 53.8694 101.794 54.0119 100.891C54.1937 99.7401 54.7053 100.477 54.2073 101.615C53.1045 104.136 50.4931 107.575 50.4931 110.392C50.4931 110.829 50.2645 114.861 49.4374 113.207" stroke="white" stroke-width="5" stroke-linecap="round"/>
<path d="M33.9548 100.189C32.3709 101.773 34.3067 102.527 34.3067 100.892C34.3067 100.182 33.347 100.744 33.7984 100.873C34.4608 101.062 35.0105 100.674 35.0105 101.596C35.0105 102.149 34.7993 103.172 35.5383 103.336C36.0501 103.45 36.6674 103.467 36.848 102.925C37.2123 101.833 36.2702 102.926 36.4375 103.512C36.5739 103.989 37.9257 104.135 38.3533 104.04C39.9821 103.678 39.2532 102.236 38.3533 104.216C37.4342 106.238 41.2814 103.999 41.8525 103.531C42.9194 102.659 43.9305 100.975 45.2345 100.541C46.8087 100.016 49.2314 98.1064 50.063 96.6699C50.9123 95.2029 52.3791 93.7474 50.7668 96.3962C48.786 99.6503 46.9773 102.982 45.0781 106.288C44.3463 107.562 43.7793 109.149 42.7518 110.237C39.6022 113.572 48.0126 102.718 50.4931 98.8593C51.0779 97.9496 48.5343 101.141 48.3623 101.401C46.2467 104.596 44.2271 107.852 42.0089 110.98C41.7627 111.327 41.0834 112.097 41.3834 112.622C41.9757 113.658 43.3695 111.272 44.2179 110.432C48.4864 106.206 52.2935 101.557 56.3968 97.1781C58.654 94.7695 61.4882 92.811 63.493 90.1797C65.1514 88.0031 61.5739 91.5045 61.2449 91.8999C57.9436 95.869 54.87 100.075 52.1352 104.45C47.5752 111.746 62.8596 90.9922 68.087 84.1586C69.2612 82.6236 72.9742 78.765 72.9742 76.4759C72.9742 75.9762 70.24 78.4861 70.1983 78.5286C67.6545 81.1144 65.5583 84.1368 63.3367 86.9932C60.1865 91.0434 56.3456 95.4121 54.1683 100.11C53.4767 101.603 52.8978 103.25 55.1262 102.398C56.641 101.818 57.7683 100.525 58.8404 99.3676C61.4243 96.5786 63.8505 93.6486 66.3276 90.7661C68.5363 88.196 70.7587 85.633 73.0133 83.103C73.7083 82.3231 75.3983 80.0253 75.3983 81.0699C75.3983 81.5707 74.2018 82.7679 73.9712 83.0834C71.8698 85.9591 69.6285 88.7224 67.4615 91.5481C65.106 94.6194 62.8337 97.7306 60.7758 101.01C59.9317 102.355 58.7193 103.724 58.1367 105.213C57.8945 105.832 58.2587 105.908 58.7818 105.662C61.5647 104.353 63.9581 101.862 66.0539 99.6804C71.0739 94.4561 75.5494 88.7515 80.9501 83.8849C81.8951 83.0334 84.97 80.7722 84.0193 81.6173C80.7326 84.5388 77.8433 88.6076 75.2028 92.0954C72.4637 95.7135 69.9294 99.3362 67.9697 103.434C66.9733 105.517 69.0253 104.247 69.8464 103.473C76.3282 97.3614 81.8128 90.2225 88.4178 84.2368C88.7251 83.9583 90.9448 81.4308 89.4343 82.7902C85.0985 86.6924 81.556 91.7053 78.1937 96.4353C77.8735 96.8858 73.3387 104.847 73.4238 104.861C73.8907 104.939 75.1725 103.297 75.3787 103.082C77.6579 100.701 79.8835 98.2696 82.1621 95.8879C86.4173 91.4404 91.0072 87.8051 95.8463 84.0413C97.4148 82.8214 92.6156 86.5698 92.3666 86.8173C88.857 90.3052 84.4927 94.2007 82.0253 98.5661C81.6136 99.2946 80.0457 101.249 80.6373 100.658C83.1323 98.1628 85.825 95.8857 88.2809 93.3466C89.5141 92.0716 90.6668 90.7148 91.9756 89.515C92.3629 89.16 93.9026 88.2021 93.9696 87.5992C93.9716 87.5818 92.6086 88.5404 92.523 88.6158C91.1658 89.8101 90.0959 91.362 88.9651 92.7601C87.2552 94.8742 85.5018 96.9724 83.902 99.1721C82.773 100.724 82.536 101.588 84.3516 100.032C86.8917 97.8551 89.0044 95.2962 91.4478 93.0338C91.9847 92.5367 93.9586 89.8388 92.3666 91.4308C91.013 92.7843 89.7173 94.423 88.6523 96.0052C87.4435 97.8012 89.6426 95.9679 90.1576 95.536C92.064 93.9371 93.9222 91.9553 95.4553 89.9842C96.2285 88.9901 96.5133 88.4814 95.1816 89.2804" stroke="white" stroke-width="5" stroke-linecap="round"/>
<path d="M94.478 91.7422C96.2334 91.9294 99.7371 92.7647 101.516 92.0159C101.962 91.8279 98.8224 92.573 98.3487 92.7196C97.8404 92.877 94.8669 93.8535 95.26 93.8535C97.186 93.8535 99.0662 93.5016 100.968 93.5016C104.276 93.5016 99.2884 94.1134 98.1727 94.7332C97.2325 95.2555 100.04 94.6504 100.46 94.5572C101.526 94.3204 102.604 94.1945 103.627 93.8535" stroke="white" stroke-width="5" stroke-linecap="round"/>
<path d="M106.794 93.5022C108.576 93.5022 110.504 93.309 112.267 93.5804C114.813 93.9719 111.006 93.9277 110.352 94.03C110.048 94.0774 107.162 94.2059 108.553 94.2059C110.547 94.2059 112.541 94.2059 114.535 94.2059" stroke="white" stroke-width="5" stroke-linecap="round"/>
<path d="M114.535 93.5017C118.816 93.5017 123.076 93.7066 127.398 93.1303C129.967 92.7878 132.482 92.1721 135.022 91.6641C136.448 91.379 137.886 91.2106 139.323 91.019C140.059 90.9209 140.794 90.3348 141.454 90.3348C142.149 90.3348 143.109 90.1709 143.741 89.9047C144.048 89.7753 145.345 89.51 145.246 89.4551C144.175 88.86 142.137 89.0285 140.926 88.8491C139.148 88.5858 137.369 88.5088 135.569 88.5754C134.091 88.6302 132.726 89.4235 131.249 89.6506C129.727 89.8848 127.848 90.3639 126.499 91.0386" stroke="white" stroke-width="5" stroke-linecap="round"/>
<path d="M144.093 89.2792C144.093 91.9111 146.672 94.1047 149.293 94.2055C149.972 94.2316 151.703 94.5013 152.108 93.8536C152.787 92.7664 153.156 92.4082 151.834 91.8205C149.936 90.9768 149.889 96.6057 153.242 94.831C154.359 94.2394 153.175 93.0855 152.186 93.5799C151.485 93.9305 150.414 95.6731 151.482 96.2386C152.5 96.7773 153.849 96.731 154.375 95.613C154.533 95.2771 154.016 97.4346 155.705 96.5904C158.119 95.3834 155.427 92.2283 154.727 91.0386C153.439 88.8482 152.93 88.1436 150.427 87.0897C146.688 85.5157 142.857 87.1294 139.518 88.9273" stroke="white" stroke-width="5" stroke-linecap="round"/>
<path d="M79.699 81.5384C80.4498 81.0302 85.7618 78.3907 85.3095 76.8075C85.0454 75.8833 82.3544 77.2909 82.0839 77.4722C79.0986 79.4741 76.1678 82.0061 73.7561 84.6857C73.4733 85 71.694 87.4753 72.3486 87.2075C75.5632 85.8924 78.2887 82.319 80.5396 79.8181C81.2545 79.0237 84.2692 76.7304 84.117 75.3609C84.0146 74.439 78.2254 79.1904 77.9396 79.4466C75.7783 81.3843 72.3425 84.0578 71.4494 86.9925C70.8655 88.9108 73.1901 88.1462 74.2253 87.7158C78.696 85.8572 82.6711 82.0459 86.0328 78.6842C87.259 77.458 88.1574 76.1518 89.1215 74.7745C90.5856 72.6829 85.196 78.092 83.6087 80.0917C83.3722 80.3898 76.6943 90.2619 81.8884 87.9895C84.9928 86.6313 87.8893 83.53 89.8448 80.8541C91.0847 79.1575 93.3831 76.2794 93.3831 74.0121C93.3831 72.9653 91.9732 73.6437 91.6628 74.0316C89.2379 77.0627 87.4517 81.7906 86.5997 85.5263C86.4984 85.9706 84.6665 94.4084 86.8147 92.6421C89.7061 90.2647 91.7514 85.8966 93.3831 82.6331C94.0123 81.3747 96.5544 76.8996 95.4553 75.3609C95.0222 74.7546 92.8242 81.0318 92.738 81.382C91.8562 84.9643 91.311 88.6987 91.311 92.3879C91.311 92.5891 91.1796 94.1262 91.5455 93.9714C93.6705 93.0724 94.6155 87.6879 95.338 85.7804C96.0098 84.007 97.2002 81.726 97.2929 79.779C97.3856 77.8317 96.4958 80.7098 96.3154 81.2647C95.4328 83.9805 94.8688 87.4213 94.8688 90.2767C94.8688 90.7763 95.0681 94.1501 96.1982 92.7985C98.2926 90.2934 99.3244 86.452 100.264 83.3759C100.558 82.4147 100.812 81.6899 100.812 80.6978C100.812 78.0569 99.3943 85.7908 98.8763 88.3804C98.775 88.887 98.7261 91.4225 99.756 90.3353C100.825 89.2071 101.415 87.15 102.043 85.7609C102.213 85.386 102.957 82.4741 102.923 83.6496C102.886 84.9462 102.571 86.192 102.571 87.5007C102.571 90.4641 104.195 87.3374 104.604 86.191C104.781 85.6955 104.847 84.5801 105.21 84.2165C105.405 84.0216 105.034 84.9009 104.956 84.9789C104.287 85.6479 103.362 81.61 103.099 81.0301C101.902 78.3973 101.597 74.1877 101.515 71.3339C101.498 70.7067 100.495 67.3405 100.46 68.2452C100.416 69.3745 100.38 70.5853 100.655 71.6858C100.965 72.9262 101.515 73.7882 101.515 72.0181C101.515 70.1983 100.456 67.7415 98.3681 69.4376C96.8067 70.7062 94.5812 78.1218 96.5891 79.3489C98.4844 80.5071 100.138 73.9822 100.382 73.1715C100.614 72.3969 99.9983 72.1032 99.5605 72.8196C98.7301 74.1784 98.2135 75.7178 98.0162 77.2963C97.5857 80.7398 100.596 74.9117 100.949 74.0121C101.085 73.6638 101.54 71.6217 100.655 72.2722C98.897 73.5651 97.428 75.4213 95.8854 76.9639" stroke="white" stroke-width="5" stroke-linecap="round"/>
<path d="M85.3291 48.4613C86.216 48.3504 84.873 48.1094 84.6254 48.1094C82.8362 48.1094 81.1925 48.7547 79.7773 49.8688C77.3422 51.7858 79.2666 53.4429 81.6735 52.977C83.2639 52.6692 87.5386 48.7304 84.078 48.1876C81.5864 47.7967 78.4514 51.791 80.8329 53.7394C82.897 55.4282 85.6367 55.1929 86.893 52.8597C88.3106 50.227 82.7666 51.724 81.8885 52.3319C80.7246 53.1377 82.3777 53.7487 83.1397 53.6612C84.6664 53.486 86.3789 52.8431 87.7532 52.156C89.2626 51.4012 87.6934 51.5438 86.9126 51.8041C84.9285 52.4655 83.0289 53.2674 81.1066 54.0913" stroke="white" stroke-width="5" stroke-linecap="round"/>
<path d="M65.9757 35.4417C65.3872 35.2991 64.8103 35.1888 64.2163 35.0898" stroke="white" stroke-width="5" stroke-linecap="round"/>
<path d="M68.0872 38.6105C72.6644 41.9394 77.871 42.612 83.3743 43.7127C86.8403 44.4059 89.4387 43.8789 92.1713 41.7969C94.0861 40.338 94.4593 38.6707 91.663 38.3368C89.1855 38.041 85.1958 39.4728 86.1111 42.6766C86.8136 45.1352 92.6795 42.9862 92.6795 40.5654C92.6795 38.5772 86.3848 40.0803 86.3848 42.4811C86.3848 43.8573 88.5744 43.8022 89.5517 43.6736C91.5001 43.4173 92.6715 42.8257 93.4224 41.0736" stroke="white" stroke-width="5" stroke-linecap="round"/>
<path d="M114.535 38.6091C117.469 39.548 116.241 34.7599 115.161 33.4091C113.971 31.9214 114.666 28.0527 112.424 28.0527" stroke="white" stroke-width="5" stroke-linecap="round"/>
<path d="M70.2652 122C71.3713 119.924 71.7908 117.952 72.5314 115.795C72.6496 115.451 73.4825 113.21 73.0544 113.538C71.4773 114.747 70.2465 116.382 68.89 117.754C68.2932 118.357 67.2278 120.227 68.89 118.882C70.858 117.29 72.1413 115.241 73.403 113.256C73.9161 112.449 74.5995 111.389 73.9066 112.99C73.1793 114.671 73.0675 116.486 72.7832 118.239C72.6176 119.261 72.3222 121.567 73.4805 119.618C74.8775 117.267 76.0247 114.702 76.1921 112.128C76.3277 110.045 78.2592 108.165 79.8335 106.66C82.4354 104.172 82.4824 100.365 87 100" stroke="white" stroke-width="5" stroke-linecap="round"/>
<path d="M37.7901 70.5672L37.9201 69.4072C38.2601 66.4172 33.9301 66.3072 33.0101 68.7472C31.4001 73.0372 29.42 80.0472 31.46 84.4772C33.28 88.4272 37.5301 86.6972 39.8701 84.3972C43.3001 81.0272 47.37 75.6972 48.02 70.7772C48.51 67.0372 45.65 63.0272 41.59 64.2172C37.53 65.4072 35.2101 71.7972 34.1901 75.5972C33.2501 79.1272 32.0901 84.9272 35.5401 87.5472C43.4701 93.5672 48.27 72.6272 47.59 67.9472C47 63.8372 42.8801 63.7472 40.6701 66.7972C36.9301 71.9472 36.3 79.0272 37.15 85.1172C37.53 87.8472 41.2 87.0972 41.97 85.1172C43.97 79.9972 45.01 74.7672 45.22 69.2772C45.32 66.7272 41.8101 65.9772 40.5601 68.0172C38.0601 72.0872 36.89 76.4372 37.02 81.2172C37.08 83.5772 40.5001 84.7772 41.6801 82.4772C43.7201 78.5072 44.6601 74.4472 44.4401 69.9872C44.3401 67.9472 41.7101 66.5272 40.1701 68.2172C35.4601 73.4072 34.64 81.3072 29.09 85.7172C26.57 87.7172 30.1301 91.2372 32.6301 89.2572C38.3501 84.7172 38.97 76.9872 43.71 71.7572L39.4401 69.9872C39.6201 73.5772 39.0101 76.7472 37.3601 79.9572L42.02 81.2172C41.92 77.2572 42.8101 73.9172 44.8801 70.5372L40.22 69.2772C40.03 74.3272 38.99 79.0872 37.15 83.7872H41.97C41.5 80.4472 41.7601 77.0772 42.8201 73.8672C42.9701 73.4072 45.9701 67.1572 42.6101 68.2272C42.5001 68.2572 42.4001 71.7972 42.3601 72.0672C41.9701 74.9672 41.1201 77.8272 39.8001 80.4472C39.8501 80.3372 38.3001 83.0272 38.3701 83.0772C37.7701 82.6272 38.6301 78.4972 38.6801 78.2872C39.0501 76.4772 40.0501 71.4672 41.8001 70.4572C43.5501 69.4472 42.4 72.0972 41.91 73.0672C41.3 74.2872 40.5901 75.4672 39.8201 76.5972C38.9501 77.8572 37.9601 79.3472 36.8001 80.3672C35.3701 81.6372 35.7901 81.1272 35.8501 79.2072C35.9601 76.0172 36.7001 73.0372 37.8201 70.0672L32.91 69.4072L32.78 70.5672C32.41 73.7572 37.42 73.7272 37.78 70.5672H37.7901Z" fill="white"/>
<path d="M34.6 62.978C33.26 74.918 32.35 89.128 46.15 94.088C59.57 98.908 71.88 82.148 73.44 70.518C74.36 63.688 73.03 56.928 67.95 51.918C61.83 45.878 51.65 44.748 44.75 50.068C33.78 58.548 29.98 78.608 43.19 86.998C54.35 94.078 68.42 88.108 75.02 77.708C81.28 67.848 81.8 48.058 67.41 44.778C58.59 42.768 50.59 47.538 47.61 55.958C45.93 60.718 45.54 66.818 45.92 71.868C46.35 77.658 47.97 82.978 52.34 87.048C59.34 93.568 69.64 92.738 76.58 86.658C87.31 77.258 92.73 57.578 78.66 48.508C69.5 42.598 58.81 48.728 53.77 56.748C50.09 62.598 48.45 69.488 48.26 76.338C48.04 84.188 55.32 91.698 63.26 91.338C71.2 90.978 78.02 84.748 78.26 76.338C78.36 74.468 78.34 74.228 78.2 75.608C78.36 74.828 78.57 74.068 78.83 73.318C79.15 72.328 79.16 72.318 78.87 73.258C80.32 71.028 79.84 71.358 77.41 74.268L69.84 76.318L71.09 76.468L60.48 72.078L61.2 72.858L57.34 66.238C57.29 65.408 57.27 64.568 57.27 63.738C57.59 62.718 57.5 62.668 57.01 63.598C56.42 64.438 56.43 64.478 57.03 63.738C55.88 64.988 56 64.968 57.4 63.658L64.97 61.608L66.93 61.988L73.55 65.848C74.05 66.268 76.81 70.998 75.92 71.888C76.32 71.488 75.86 68.498 75.88 67.928C75.88 67.648 76.11 64.818 75.97 65.978C75.83 67.068 76.43 64.248 76.55 63.948L72.69 70.568L73.28 69.898C69.74 71.358 66.21 72.828 62.67 74.288L63.42 74.248L52.81 69.858L53.22 70.298L49.36 63.678C49.79 64.958 49.52 62.018 49.59 61.428C49.28 64.078 50.1 60.648 49.44 62.028C48.87 63.228 50.17 61.178 50.83 60.788C52.78 59.638 56.81 60.068 58.32 61.108L63.7 66.488L64.37 73.178C64.89 71.648 64.94 71.328 64.54 72.208C64.21 72.858 64.25 72.788 64.67 71.998C65.21 70.988 65.13 71.138 64.44 72.458L57.82 76.318L55.93 76.708L48.36 74.658C45.25 72.218 43.75 69.338 43.87 65.998C44.37 64.728 44.2 64.898 43.34 66.508C44.58 65.068 41.55 68.618 41.12 69.028L47.74 65.168L46.91 65.458H54.89L54.13 65.148L60.75 69.008L63.6 75.308V73.998C63.94 72.878 63.78 71.428 63.88 70.268C64.09 67.838 64.34 65.408 64.61 62.978C65.49 55.148 57.08 47.648 49.61 47.978C40.73 48.378 35.55 54.598 34.61 62.978H34.6Z" fill="white"/>
<path d="M33.93 65.0679C23.44 67.958 17.66 80.138 23.17 89.898C27.89 98.278 38.77 100.738 46.92 96.088C56.68 90.518 56.63 75.768 46.92 70.188C41.36 66.988 34.43 66.668 28.8 70.048C22.36 73.908 19.02 81.768 21.03 89.078C23.04 96.388 29.91 100.928 37.14 100.788C43.56 100.658 49.37 96.728 52.23 91.038C54.68 86.158 55.07 80.748 52.23 75.898C49.78 71.718 44.37 67.908 39.28 68.468C32.64 69.198 27.46 71.608 24.03 77.568C21.25 82.418 20.48 88.168 22.67 93.368C25.73 100.628 33.82 104.408 41.43 102.438C46.85 101.038 50.72 97.938 53.76 93.298C57.34 87.828 55.99 79.588 51.41 75.118C44.24 68.108 31.53 68.928 26.3 77.978C21.85 85.668 24.27 96.338 32.37 100.618C43.5 106.508 54.49 99.168 61.87 90.948C67.11 85.108 68.06 75.418 61.87 69.738C56.15 64.488 46.25 63.498 40.66 69.738C39.41 71.128 38.04 72.368 36.74 73.698C36.12 74.218 36.24 74.148 37.08 73.468C38.08 72.718 38.04 72.718 36.96 73.458L36.09 73.958C37.42 73.288 38.83 72.918 40.33 72.848L47.9 74.898L49.64 76.248L54.03 86.858L53.93 86.0679L51.88 93.638L52.2 93.128L46.82 98.508L47.38 98.248L39.81 100.298L40.4 100.338C36.86 98.878 33.33 97.408 29.79 95.948L30.19 96.338L27.84 78.158C30.18 74.888 33.17 73.138 36.81 72.928L44.38 74.978L43.92 74.638L50.81 83.598L50.73 83.158V91.138C50.93 90.318 50.81 90.508 50.36 91.698C49.58 93.748 48.16 95.348 46.09 96.508L38.52 98.558L39.25 98.478C34.93 90.958 30.62 83.428 26.3 75.908C25.55 77.308 25.82 76.988 27.12 74.958L33.74 71.098H39.85C42.06 72.398 44.26 73.688 46.47 74.968L46.07 74.498L50.46 85.108L50.4 84.308L48.35 91.878L44.63 95.658L37.06 97.708L31.74 96.118V70.218L40.9 68.828L47.52 72.688L50.43 77.628V85.608L47.76 90.378L41.14 94.238L41.87 94.038C49.43 91.958 54.84 83.298 52.35 75.588C49.86 67.878 42 62.878 33.9 65.108L33.93 65.0679Z" fill="white"/>
<path d="M54.9799 71.9086L52.24 91.6486C51.07 100.099 48.6999 108.619 55.5199 115.439C61.9099 121.829 74.8199 121.229 79.0799 112.399C83.3399 103.569 85.5799 94.6486 84.5199 85.0686C83.3599 74.6286 75.9099 68.9686 65.5299 70.6086C52.3499 72.6886 51.1699 89.9186 49.7099 100.359C48.6299 108.099 51.59 116.849 60.19 118.809C67.26 120.419 77.4799 116.639 78.6399 108.329C79.4699 102.359 80.12 95.7586 82.25 90.0986L78.3899 96.7186L79.13 95.8286L72.51 99.6886L73.5 99.5286C67.17 94.7086 60.84 89.8886 54.51 85.0686C54.67 86.4786 54.79 87.8786 54.8 89.2986C54.8 89.6186 54.65 92.9486 54.86 91.2186C54.72 92.3286 54.42 93.4586 54.12 94.5286C54.09 94.6286 52.5799 98.4786 53.1699 97.2586L76.7299 94.2186L76.25 93.7386L80.6399 104.349C80.2199 106.199 80.21 105.929 80.61 103.569L81.1599 99.6186L81.9799 93.6986L83.8999 79.8786C84.9699 72.1386 82.0299 63.3886 73.4199 61.4286C66.3599 59.8186 56.1199 63.5886 54.9699 71.9086H54.9799Z" fill="white"/>
<path d="M73.1298 56.8571L71.7998 58.1871C70.3398 59.5471 69.2998 61.157 68.6998 63.017C67.7598 64.807 67.3298 66.7271 67.4098 68.7971C67.3298 70.8671 67.7598 72.787 68.6998 74.577C69.2998 76.437 70.3398 78.047 71.7998 79.407L74.8398 81.757C77.1798 83.117 79.6998 83.7971 82.4098 83.8071L86.3998 83.267C88.9398 82.557 91.1498 81.267 93.0198 79.407L94.3498 78.077C95.8098 76.717 96.8498 75.1071 97.4498 73.2471C98.3898 71.4571 98.8198 69.537 98.7398 67.467C98.8198 65.397 98.3898 63.4771 97.4498 61.6871C96.8498 59.8271 95.8098 58.2171 94.3498 56.8571L91.3098 54.507C88.9698 53.147 86.4498 52.467 83.7398 52.457L79.7498 52.9971C77.2098 53.7071 74.9998 54.9971 73.1298 56.8571Z" fill="white"/>
<path d="M78.8498 87.7969C86.6998 87.7969 94.2098 80.8969 93.8498 72.7969C93.4898 64.6969 87.2598 57.7969 78.8498 57.7969C70.9998 57.7969 63.4898 64.6969 63.8498 72.7969C64.2098 80.8969 70.4398 87.7969 78.8498 87.7969Z" fill="white"/>
<path d="M93.8999 86.9584L94.3399 86.5184C95.7999 85.1584 96.84 83.5485 97.44 81.6885C98.38 79.8985 98.8099 77.9784 98.7299 75.9084C98.8099 73.8384 98.38 71.9185 97.44 70.1285C96.84 68.2685 95.7999 66.6585 94.3399 65.2985L91.2999 62.9484C88.9599 61.5884 86.4399 60.9084 83.7299 60.8984L79.7399 61.4385C77.1999 62.1485 74.9899 63.4385 73.1199 65.2985L72.6799 65.7385C71.2199 67.0985 70.1799 68.7084 69.5799 70.5684C68.6399 72.3584 68.2099 74.2784 68.2899 76.3484C68.2099 78.4184 68.6399 80.3385 69.5799 82.1285C70.1799 83.9885 71.2199 85.5984 72.6799 86.9584L75.7199 89.3085C78.0599 90.6685 80.5799 91.3485 83.2899 91.3585L87.2799 90.8184C89.8199 90.1084 92.0299 88.8184 93.8999 86.9584Z" fill="white"/>
<path d="M12.6799 75.8679C13.8499 78.2479 15.5399 80.3579 17.2299 82.3779C18.9199 84.3979 21.0999 85.9279 23.2399 87.5679C24.9599 88.6679 26.8199 89.2579 28.8199 89.3479C30.8099 89.7979 32.8099 89.7079 34.7999 89.0779C38.2799 88.1179 42.0499 85.4279 43.7599 82.1879C45.5999 78.7079 46.5198 74.4879 45.2698 70.6279L43.7599 67.0479C42.4299 64.7979 40.6299 62.9979 38.3799 61.6679L38.0499 61.4179L41.0898 63.7679C40.0098 62.8979 39.0499 61.9379 38.1799 60.8479L40.5298 63.8879C39.7798 62.8979 39.1298 61.8479 38.5798 60.7379C36.9998 57.5079 32.9899 54.7679 29.6199 53.8479C26.0299 52.8579 21.2499 53.3079 18.0599 55.3579C14.8699 57.4079 12.0399 60.4979 11.1699 64.3179L10.6299 68.3079C10.6299 71.0179 11.3199 73.5379 12.6799 75.8779V75.8679Z" fill="white"/>
<path d="M13.6799 76.3487C15.4299 81.9187 18.9999 86.8687 24.1799 89.7287C27.6399 91.6387 31.8899 92.2987 35.7399 91.2387C37.6899 90.7787 39.3898 89.8787 40.8398 88.5587C42.4698 87.4987 43.7599 86.0987 44.6999 84.3487C46.5399 80.8687 47.4598 76.6487 46.2098 72.7887C44.9598 68.9287 42.7699 65.7387 39.3199 63.8287C38.9299 63.6087 38.5598 63.3687 38.2098 63.0987L41.2499 65.4487C40.7699 65.0487 40.3399 64.6187 39.9499 64.1187L42.2999 67.1587C41.9299 66.6487 41.6199 66.1287 41.3699 65.5487L42.8799 69.1287C42.7799 68.8787 42.6899 68.6287 42.6099 68.3787C41.4499 64.6987 39.0899 61.3887 35.7199 59.4187C33.9999 58.3187 32.1398 57.7287 30.1398 57.6387C28.1498 57.1887 26.1499 57.2787 24.1599 57.9087C20.5299 59.0787 17.0299 61.3287 15.1999 64.7987C13.3699 68.2687 12.4699 72.4687 13.6899 76.3587L13.6799 76.3487Z" fill="white"/>
<path d="M16.9699 85.2684C18.3199 88.3084 21.1299 90.6184 23.7899 92.4484C26.7999 94.5184 29.9999 94.9384 33.5199 95.3084C35.5899 95.3884 37.5099 94.9584 39.2999 94.0184C41.1599 93.4184 42.7699 92.3784 44.1299 90.9184C45.5899 89.5584 46.6299 87.9484 47.2299 86.0884C48.1699 84.2984 48.5999 82.3784 48.5199 80.3084L47.9799 76.3184C47.2699 73.7784 45.9799 71.5684 44.1199 69.6984L41.0799 67.3484C38.7399 65.9884 36.2199 65.3084 33.5099 65.2984L33.3099 65.2784L37.2999 65.8184C36.8899 65.7584 36.5099 65.6484 36.1299 65.4884L39.7099 66.9984C39.3999 66.8484 39.1199 66.6784 38.8399 66.4784L41.8799 68.8284C41.5599 68.5684 41.2799 68.2884 41.0199 67.9684L43.3699 71.0084C43.1699 70.7284 43.0099 70.4484 42.8699 70.1284C41.9299 68.3784 40.6399 66.9784 39.0099 65.9184C37.5599 64.5884 35.8599 63.6984 33.9099 63.2384C31.9199 62.6084 29.9199 62.5284 27.9299 62.9684C25.9299 63.0584 24.0699 63.6484 22.3499 64.7484L19.3099 67.0984C17.4499 68.9684 16.17 71.1784 15.45 73.7184L14.9099 77.7084C14.9099 80.4184 15.5999 82.9384 16.9599 85.2784L16.9699 85.2684Z" fill="white"/>
<path d="M12.9699 68.0369C12.1499 63.2069 16.7199 58.9469 19.6999 55.8369C24.1499 51.1869 17.0899 44.1069 12.6299 48.7669C6.67992 54.9769 1.79987 61.6669 3.32987 70.6969C4.39987 77.0269 14.0399 74.3469 12.9699 68.0369Z" fill="white"/>
<path d="M15.7298 62.4287C18.0098 56.2887 21.8598 51.2887 26.8798 47.1287L19.0298 41.0686C16.7998 45.5286 15.5398 49.9687 14.8798 54.8987C14.2198 59.8287 20.5598 60.9687 23.4198 58.4387C27.7598 54.5987 31.5098 50.3587 34.9898 45.7287L26.3598 40.6787C23.3598 45.0287 21.8898 49.6787 21.3098 54.8987C20.8598 58.9487 25.8098 60.7487 28.8298 59.2187C35.1198 56.0387 39.4398 50.5887 41.4198 43.8587C42.7998 39.1387 36.4798 35.3187 33.0598 38.9987C28.2398 44.1887 25.8098 55.2487 34.1998 58.5187C41.1198 61.2187 48.7598 55.0187 50.8598 48.6887C53.1598 41.7787 48.2698 34.5087 40.5298 36.9387C33.5198 39.1387 33.0798 48.0286 38.1798 52.4486C44.5198 57.9386 54.1598 53.3787 56.6198 46.0987C58.8798 39.4087 52.4898 31.4887 45.5198 35.6287C38.1198 40.0287 44.1398 48.7287 50.6798 49.4587C57.2198 50.1887 69.0298 44.8387 64.8798 36.6887C60.7298 28.5387 48.8198 34.7587 51.6298 43.1087C54.4398 51.4587 66.2798 51.5887 71.4998 46.0287L63.6498 45.0187C66.9598 51.6386 74.3498 51.4287 80.3998 49.1887C86.3798 46.9787 83.7998 37.3087 77.7398 39.5487C76.3598 40.0587 73.2198 41.8587 72.2798 39.9687C70.8598 37.1287 66.5298 36.7187 64.4298 38.9587C63.8298 39.5987 55.4898 41.1787 57.7898 42.9287L55.4898 39.9387C55.9098 38.2787 55.3898 38.0787 53.9098 39.3387L52.2098 39.5686C49.7998 41.0386 47.5698 42.7486 45.5498 44.6986C43.0998 43.4086 41.7098 43.6287 41.3898 45.3787C40.2498 46.5587 40.0498 47.9286 38.3498 48.8186C37.4298 49.1086 37.5198 49.2287 38.6098 49.1787C38.6798 47.9187 39.1898 46.8787 40.1398 46.0587C37.3498 44.4387 34.5698 42.8186 31.7798 41.1986C30.4998 45.5486 27.7998 48.5586 23.7898 50.5786L31.3098 54.8987C31.6898 51.4587 33.0498 48.5487 34.9998 45.7287C38.7098 40.3487 30.1498 35.6487 26.3698 40.6787C23.4198 44.6087 20.0298 48.1087 16.3598 51.3587L24.8998 54.8987C25.3098 51.8187 26.2998 48.8887 27.6798 46.1187C30.2798 40.9087 24.1998 36.4387 19.8298 40.0587C13.4398 45.3487 8.98978 52.0287 6.10978 59.7687C3.85978 65.8087 13.5198 68.4187 15.7498 62.4287H15.7298Z" fill="white"/>
<path d="M32.36 44.9077C39.38 40.8277 47.28 39.1777 55.33 40.5477C61.62 41.6177 64.33 31.9777 57.99 30.9077C47.24 29.0877 36.77 30.7777 27.31 36.2777C21.75 39.5077 26.78 48.1577 32.36 44.9077Z" fill="white"/>
<path d="M81.0899 46.4371L82.4299 46.8671C83.0899 47.0771 83.7599 47.107 84.4199 46.957C85.0899 46.927 85.7099 46.7271 86.2799 46.3671C86.8599 46.0571 87.3299 45.627 87.6799 45.077C88.1199 44.597 88.4199 44.0271 88.5699 43.3771L88.7499 42.047C88.7499 41.147 88.5199 40.307 88.0699 39.527L87.2899 38.517C86.6699 37.897 85.9299 37.467 85.0799 37.227L83.7399 36.797C83.0799 36.587 82.4099 36.557 81.7499 36.707C81.0799 36.737 80.4599 36.937 79.8899 37.297C79.3099 37.607 78.8399 38.037 78.4899 38.587C78.0499 39.067 77.7499 39.637 77.5999 40.287L77.4199 41.6171C77.4199 42.5171 77.6499 43.357 78.0999 44.137L78.8799 45.147C79.4999 45.767 80.2399 46.1971 81.0899 46.4371Z" fill="white"/>
<path d="M71.33 47.9383C73.9 46.8683 76.55 46.2982 79.32 46.8282C82.09 47.3582 84.71 46.0882 85.47 43.3382C86.14 40.8982 84.64 37.6883 81.98 37.1883C77.49 36.3383 72.92 36.5283 68.67 38.2983C66.18 39.3383 64.4 41.6082 65.18 44.4482C65.83 46.7982 68.82 48.9883 71.33 47.9383Z" fill="white"/>
<path d="M99.7998 28.1273C92.6098 28.3373 84.0799 39.2872 85.4499 46.4472C87.3899 56.6172 99.2698 49.0473 102.24 43.9273C103.98 40.9273 105.51 36.3873 103.98 33.0173C102.19 29.0773 97.1398 28.4073 93.8998 30.8573C88.4198 35.0073 84.5098 47.7473 88.8598 53.7073C94.5998 61.5673 104.6 54.6373 108.11 48.3573C109.78 45.3673 110.9 41.7373 109.37 38.4873C107.84 35.2373 103.59 33.9473 100.42 35.8773C94.3798 39.5573 90.8698 53.2573 96.0998 58.7073C102.45 65.3173 110.5 55.3273 110.49 48.9373C110.49 44.8873 106.98 41.3573 102.78 42.6473C98.5798 43.9373 96.2698 49.2173 94.9798 53.0173C93.6898 56.8173 93.9698 61.6172 98.1198 63.6372C101.88 65.4672 106.52 63.2673 107.27 59.1173C107.87 55.8073 105.01 51.4173 101.12 52.9673C97.3998 54.4473 94.7498 56.8472 93.8998 60.8872C93.3998 63.2772 94.5898 66.6373 97.3898 67.0373C102.95 67.8373 105.87 63.3673 108.9 59.2673C112.4 54.5373 114.53 49.3472 114.74 43.4472C114.91 38.8672 109.28 37.1873 106.2 39.9073C102.14 43.4973 99.4198 51.6573 105.04 55.2873C110.66 58.9173 116.24 52.6773 117.84 47.7273C119.44 42.7773 117.42 34.9872 110.61 37.2572C105.96 38.8072 102.4 46.9972 104.96 51.3872C108.23 56.9772 115.12 53.6973 117.01 48.9573C119.06 43.8073 115.59 36.6073 109.18 38.9673C104.4 40.7273 102.27 50.3073 104 54.7073C106.35 60.6873 113.87 59.7373 115.99 54.2773L107.63 56.4873L107.27 59.7165C109.53 62.3965 114.68 58.9472 116.4 56.5672C120.26 51.2272 118.99 44.2373 116.91 38.4173C115.04 33.1873 111.66 24.9273 106.18 22.5973C100.25 20.0773 95.5899 25.9873 95.4399 31.5273C95.2599 38.0473 102.38 41.3073 107.42 37.3673C112.46 33.4273 111.61 26.2473 106.8 22.7373C102.33 19.4773 95.3098 20.6673 93.7398 26.4773C92.1698 32.2873 97.4198 37.3372 103.1 35.8172C109.53 34.0972 109.87 27.0973 106.36 22.5773C102.42 17.4973 95.3898 24.6173 99.2898 29.6473L102.48 28.9673L105.47 31.2673C105.61 31.6373 105.45 31.7972 104.99 31.7572L101.14 31.2572C104.07 32.5672 106.24 38.2473 107.27 41.0973C108.46 44.3773 109.98 48.4573 107.76 51.5373L115.61 50.5273L114.69 49.4373C112.02 46.2773 107.56 48.4773 106.33 51.6473L106.08 52.2873L108.38 49.2973L111.33 49.0873L113.63 52.0773C113.19 50.9473 114.3 47.4673 114.82 46.3373L111.83 48.6372L112.7 48.3673L108.85 47.8673L108.73 44.5473L112.58 45.0473L111.8 44.5773L114.28 48.8973C114.15 47.6373 115.16 46.6573 114.21 46.7973L109.35 45.5072L109.96 46.2173L108.5 42.6773C108.66 44.1873 106.78 46.5072 108.07 46.3872L111.61 47.8473C112.33 48.1973 112.89 47.9172 113.27 47.0072L104.73 43.4673C104.55 48.4573 101.11 55.0673 96.9598 58.0373L100.81 57.5373L100.03 57.4273L103.52 63.5773L103.75 62.6372L97.5998 56.4873L98.0099 55.7373L101.55 54.2773C103.65 56.4973 104.89 56.4573 105.26 54.1473C106.38 53.0773 106.23 52.5073 104.82 52.4373L101.28 50.9773L101.82 51.5973L100.36 48.0573C100.57 48.8373 100.45 49.5773 99.9898 50.2873C102.99 52.7073 104.25 52.6072 103.78 50.0072C104.3 49.2372 105.08 44.7573 105.14 44.7273L101.29 44.2273C100.74 41.5073 100.24 40.9472 99.7798 42.5672C99.5098 43.3072 99.1298 43.9972 98.6598 44.6372C98.1798 45.3272 97.6099 45.9273 96.9399 46.4273C96.0999 46.8273 96.1698 47.1073 97.1498 47.2873C97.2398 45.4973 97.6398 43.6773 98.2798 42.0173L99.1598 40.1273C100.83 38.1273 100.07 37.8473 96.8698 39.2973L94.3898 34.9773C94.5298 35.9873 93.0298 41.7273 91.9098 41.3673L95.3998 44.8573C95.1898 45.9573 95.4198 45.5173 96.0998 43.5373C96.4598 42.8073 96.8699 42.1073 97.3199 41.4373C97.7999 40.6373 98.3599 39.9073 98.9999 39.2273C100.36 38.2073 100.62 37.8573 99.7898 38.1673C106.21 37.9773 106.24 27.9773 99.7898 28.1673L99.7998 28.1273Z" fill="white"/>
<path d="M105.43 28.3277C105.82 27.8977 105.81 27.8478 105.39 28.1778C104.88 28.3478 104.9 28.3577 105.47 28.1977C105.21 28.3177 104.95 28.3177 104.69 28.1977C105.23 28.3677 105.3 28.3577 104.9 28.1977C105.99 28.6377 106.69 29.6177 107.66 30.6977C109.47 32.7077 112.89 32.5377 114.73 30.6977C116.73 28.6977 116.54 25.6378 114.73 23.6278C112.71 21.3878 110.37 19.2678 107.34 18.5578C104.31 17.8478 100.39 18.6278 98.34 21.2478C96.68 23.3778 96.26 26.2377 98.34 28.3177C100.07 30.0477 103.74 30.4577 105.41 28.3177L105.43 28.3277Z" fill="white"/>
<path d="M115.73 45.3477C122.16 45.3477 122.18 35.3477 115.73 35.3477C109.28 35.3477 109.28 45.3477 115.73 45.3477Z" fill="white"/>
<path d="M48.3799 122.168C48.2499 120.438 48.3199 119.038 48.9099 117.728C50.0199 115.268 49.6199 112.348 47.1199 110.888C44.6199 109.428 41.8999 110.508 40.2799 112.678C38.5299 115.018 37.2899 117.688 36.4599 120.488C35.7499 122.848 37.1099 125.488 39.3499 126.388C41.7399 127.348 44.1699 126.458 45.5899 124.338C46.3899 123.148 47.1899 121.958 47.9899 120.758L39.3599 115.708C38.5299 117.588 37.7099 119.468 36.8799 121.348C35.0699 125.458 38.0199 129.488 42.5299 128.688C43.9999 128.428 45.3499 127.598 46.3599 126.528C48.2099 124.558 48.3099 121.408 46.3599 119.458C44.4099 117.508 41.1399 117.478 39.2899 119.458C40.5099 118.998 40.7099 118.858 39.8699 119.048C41.7499 121.498 43.6299 123.948 45.5199 126.388C46.3499 124.508 47.1699 122.628 47.9999 120.748C49.0899 118.278 48.7199 115.378 46.2099 113.908C43.6999 112.438 40.8799 113.458 39.3699 115.698C38.5699 116.888 37.7699 118.078 36.9699 119.278C40.0199 120.558 43.0599 121.848 46.1099 123.128C46.6799 121.238 47.5399 119.568 48.9299 117.708L40.2999 112.658C38.9399 115.688 38.1399 118.798 38.3999 122.148C38.6099 124.838 40.5499 127.148 43.3999 127.148C45.9399 127.148 48.6099 124.858 48.3999 122.148L48.3799 122.168Z" fill="white"/>
<path d="M41.6798 111.319C41.3898 114.869 40.3697 119.149 42.4397 122.349C44.8097 126.029 49.4897 126.009 52.7597 123.659C57.9797 119.919 64.3197 109.139 57.2197 104.379C54.9497 102.859 51.7097 103.97 50.3797 106.17C47.4297 111.04 44.5797 124.97 51.0697 128C57.5597 131.03 64.7898 119.589 65.8098 113.619C66.3098 110.669 65.8097 107.479 63.3797 105.499C60.6797 103.309 56.9498 103.899 54.8098 106.559C50.6798 111.699 51.3397 120.839 53.7097 126.509C54.7497 128.989 57.0198 130.799 59.8598 129.999C62.1998 129.339 67.55 126.01 66.5 123.5C65.67 121.52 70.53 122.66 70.5 120.5C70.48 119.26 61.9797 113.359 62.8197 112.679L59.2797 114.139L59.8598 114.11L57.3397 113.429C56.4297 111.019 55.9898 110.51 55.9998 111.92C55.9498 112.37 55.8097 112.779 55.5697 113.149C55.3097 113.649 54.8198 114.259 54.5598 114.239L57.0797 114.92C57.6097 116.21 63.3497 117.719 57.6897 115.36C57.6397 114.9 57.6898 114.459 57.8098 114.019C58.0098 112.949 58.4597 112.119 59.0097 111.209L52.1697 112.999L51.0697 112.05L50.3897 109.529C50.4897 110.889 48.5798 115.169 46.7398 115.569H49.3997C50.7197 118.099 51.3197 118.549 51.2197 116.909L51.3597 115.229L51.6798 111.3C52.1998 104.89 42.1998 104.92 41.6798 111.3V111.319Z" fill="white"/>
<path d="M104.65 95.3179L105.97 95.7879C106.63 95.9979 107.3 96.0279 107.96 95.8779C108.63 95.8479 109.25 95.6479 109.82 95.2879C110.4 94.9779 110.87 94.5479 111.22 93.9979C111.66 93.5179 111.96 92.9479 112.11 92.2979L112.29 90.9679C112.29 90.0679 112.06 89.2279 111.61 88.4479L110.83 87.4379C110.21 86.8179 109.47 86.3879 108.62 86.1479L107.3 85.6779C106.64 85.4679 105.97 85.4379 105.31 85.5879C104.64 85.6179 104.02 85.8179 103.45 86.1779C102.87 86.4879 102.4 86.9179 102.05 87.4679C101.61 87.9479 101.31 88.5179 101.16 89.1679L100.98 90.4979C100.98 91.3979 101.21 92.2379 101.66 93.0179L102.44 94.0279C103.06 94.6479 103.8 95.0779 104.65 95.3179Z" fill="white"/>
<path d="M119.587 97.286C121.008 96.8853 120.992 96.8617 122.509 96.6851C123.756 96.5343 125.001 96.4854 126.255 96.4994C128.873 96.53 131.199 93.7227 130.917 91.1831C130.6 88.3197 128.413 86.5503 125.601 86.5205C122.475 86.4768 119.391 86.9728 116.391 87.8027C113.866 88.5062 112.316 91.7087 113.253 94.1387C114.27 96.7792 116.89 98.0355 119.589 97.2762L119.587 97.286Z" fill="white"/>
<path d="M144.63 92.807C145.8 92.917 143.82 92.587 144.87 92.837C145.32 92.947 145.77 93.027 146.22 93.157C146.6 93.267 146.97 93.417 147.35 93.527C147.69 93.657 147.6 93.617 147.07 93.397C147.31 93.507 147.55 93.617 147.78 93.747C150.11 94.917 153.31 94.447 154.62 91.957C155.82 89.687 155.32 86.367 152.83 85.117C150.19 83.787 147.58 83.077 144.64 82.807C142.03 82.557 139.53 85.287 139.64 87.807C139.77 90.727 141.84 92.547 144.64 92.807H144.63Z" fill="white"/>
<path d="M85.3199 40.5467L89.3999 38.6967C89.7899 39.1567 90.1799 39.6068 90.5799 40.0568C91.1399 40.4368 91.5799 41.0767 92.1699 41.4667C93.2899 42.2067 94.5799 42.6467 95.9299 42.4767C98.3699 42.1767 99.9999 40.0368 100.3 37.6868C100.92 32.6968 95.6999 27.9567 100.41 23.4167C102.55 21.3567 106.64 20.7167 109.46 21.3367C112.84 22.0767 113.87 24.9667 114.55 27.9867C115.51 32.2267 116.87 34.6168 119.11 38.1868C119.93 39.4968 120.77 41.1667 120.18 42.4767C119.86 43.1867 118.56 43.8667 118.03 44.5767C117.1 45.8267 116.62 47.1967 116.33 48.7267C115.99 50.5367 116.46 52.4867 116.1 54.2267C115.77 55.8767 115.48 56.6567 113.68 57.6567C112.64 58.2367 111.23 58.4867 110.11 58.9667C106.57 60.4967 104 62.8667 102.95 66.6167H107.77C106.72 63.9467 105.32 63.5667 102.88 62.4467C101.02 61.5967 101.38 63.1868 100.18 60.8068C99.4999 59.4568 99.4999 57.3568 98.9399 55.8768C97.9199 53.1668 96.3999 50.6567 94.4699 48.5067C91.9699 45.7267 87.4899 43.9167 86.3699 40.1667C85.4499 37.0867 80.6299 38.3968 81.5499 41.4968C83.4299 47.8268 90.5199 49.9967 93.4499 55.7867C94.9199 58.6767 94.4699 62.4067 96.0899 65.0367C97.4299 67.2067 102.33 66.3767 102.95 67.9467C103.81 70.1267 107.06 70.5067 107.77 67.9467C109.62 61.3167 119.65 64.0667 121.03 57.2267C121.71 53.8367 119.94 50.1167 122.39 47.0967C123.74 45.4267 125.42 44.8367 125.91 42.5367C126.31 40.6267 125.64 38.6667 124.64 37.0667C122.84 34.1767 120.63 32.1567 119.81 28.6967C118.64 23.7967 117.67 19.0867 112.47 17.0267C103.38 13.4267 92.0499 19.9467 93.4999 30.2667C93.7199 31.8367 94.4099 33.0867 94.7199 34.5967C95.3599 35.2767 95.4099 35.8968 94.8499 36.4368C94.5399 37.2668 94.1599 37.1468 93.7199 36.0568C91.6399 34.9768 91.1199 33.1367 88.3999 32.7967C83.5999 32.2067 80.4099 36.0167 80.3299 40.5267C80.2699 43.7467 85.2699 43.7467 85.3299 40.5267L85.3199 40.5467Z" fill="#3A3A3A"/>
<path d="M83.6499 36.0172C77.8299 32.8372 78.56 26.9672 81.98 22.3672C82.91 21.1172 83.81 19.8972 84.35 18.4172C85.18 16.1272 84.8699 13.6072 85.8899 11.3672C88.6199 5.34723 95.71 3.91722 101.55 5.78722C104.77 6.81722 108.08 8.51719 109.2 11.8872C109.9 13.9972 110.13 16.0772 111.08 18.1372C112.43 21.0572 116.74 18.5172 115.4 15.6172C113.74 12.0272 114.13 8.30723 111.04 5.42723C108.62 3.16723 105.29 1.63719 102.14 0.757188C95.2099 -1.17281 87.43 0.5372 82.97 6.4572C80.81 9.3272 80.71 12.0972 79.94 15.4272C79.06 19.2072 75.53 21.6072 74.51 25.4172C72.95 31.2772 75.91 37.4772 81.13 40.3272C83.95 41.8672 86.4799 37.5572 83.6499 36.0072V36.0172Z" fill="#3A3A3A"/>
<path d="M80.6199 20.3874C78.7399 23.7574 77.8199 27.0974 77.6799 30.9574C77.5999 33.1774 80.4399 34.1775 81.9499 32.7275C85.3999 29.4075 87.5799 25.5075 88.5499 20.8075C89.1499 17.8975 85.6699 16.6675 83.9799 18.8775C81.3799 22.2775 77.2599 29.3975 80.9699 33.2475C81.5899 33.8875 82.5498 34.1174 83.3998 33.8874C86.8698 32.9674 90.2799 26.9474 89.7899 23.4474C89.2499 19.6274 85.4499 19.4174 83.2199 22.0174C80.9899 24.6174 77.9899 31.8574 81.1599 34.9474C84.3299 38.0374 88.0899 33.6975 89.0599 30.7375C90.0299 27.7775 89.1899 22.6875 84.9799 23.6675C81.5699 24.4675 78.0799 31.7275 78.9699 34.9275C81.0299 42.3075 96.0698 28.5874 90.2098 22.2574C89.1698 21.1274 86.9899 21.3474 86.2799 22.7674C84.8699 25.6074 82.9598 31.8475 87.1398 33.4675C92.0698 35.3775 94.3298 28.2275 94.1498 24.8375C93.9898 21.9075 90.2599 21.5875 89.2399 24.1775C88.1299 26.9775 86.8899 33.3275 91.2899 34.0575C95.6899 34.7875 96.3399 30.1675 95.4299 27.1575C94.6599 24.6275 91.4999 24.9575 90.6099 27.1575C89.3299 30.3075 89.3199 33.0875 90.5599 36.2475C91.2699 38.0775 94.0599 38.9375 95.1299 36.8475C96.7199 33.7375 97.0999 30.9675 96.5899 27.5375C96.1799 24.7775 92.5798 25.5975 91.7698 27.5375C90.5598 30.4375 90.4599 33.0374 91.1599 36.0774C91.7999 38.8574 96.0699 38.2075 96.0699 35.4175C96.0699 30.8375 95.6799 20.9074 91.3099 18.0174C86.9399 15.1274 84.5698 22.1275 84.6498 25.2175C84.6998 27.2875 87.3999 28.6375 88.9199 26.9875C92.1399 23.4575 95.4499 14.3375 92.0399 9.96746C87.3599 3.98746 83.0999 14.6875 83.1699 18.4275C83.2099 20.6075 85.8699 21.7074 87.4399 20.1974C91.0099 16.7574 92.8299 12.7274 93.3199 7.82745C93.5499 5.48745 90.5199 4.77749 89.0499 6.05749C85.9499 8.75749 80.0799 19.2775 86.1099 21.8375C93.1599 24.8375 96.8199 11.0774 97.0699 6.69744C97.2099 4.16744 93.6099 3.36749 92.4099 5.43749C90.5699 8.60749 84.5198 20.7174 90.5798 22.7574C96.9798 24.9174 99.5699 11.8275 99.8599 7.98748C100.07 5.22748 96.5299 4.97747 95.1999 6.72747C92.3699 10.4475 87.3998 21.1874 93.0798 24.4474C94.1098 25.0374 95.2499 24.7875 96.1099 24.0575C99.3999 21.2275 100.31 15.7575 100.68 11.6875C100.87 9.64749 97.7199 8.22747 96.4099 9.91747C93.6399 13.4975 91.8199 17.2175 90.9899 21.6875C90.4799 24.4175 93.9799 26.0975 95.5599 23.6175C97.9199 19.8875 102.79 10.5575 99.3799 6.21746C95.9699 1.87746 91.3699 6.17747 92.3199 10.3575C92.5999 11.6075 94.1598 12.5375 95.3998 12.1075C98.9498 10.8675 100.54 8.08745 99.7599 4.39745C99.3499 2.44745 96.8898 2.11748 95.5798 3.29748C92.5798 5.98748 93.0399 11.3775 97.4199 12.3575C101.12 13.1875 105.44 9.44746 103.03 5.77746C102.35 4.73746 101.37 4.46749 100.21 4.62749C95.8498 5.23749 92.5799 15.0975 96.2499 18.0275C101.49 22.2075 105.57 11.7774 106.09 8.26745C106.43 5.91745 103.86 3.95745 101.91 5.83745C99.1199 8.52745 96.0499 15.7374 101.35 17.7674C106.65 19.7974 108.82 11.9975 108.51 8.29748C108.31 5.90748 105.2 4.78747 103.85 7.03747C102.16 9.83747 100.64 15.5675 104.97 16.9675C108.7 18.1675 110.93 14.7074 111.54 11.5674C112.05 8.96744 108.28 6.91744 106.97 9.63744C106.37 10.8874 105.93 12.0575 106.3 13.4675C106.42 13.9475 108.27 16.7474 108.46 15.7574C107.88 18.9074 112.69 20.2475 113.28 17.0875C113.48 16.0375 113.6 15.3475 113.18 14.3475C113.08 14.0975 111.36 12.0375 111.29 12.1675L106.72 10.2375C106.16 12.0475 106.65 11.8174 108.17 9.56744L103.51 8.30749C103.64 9.18749 103.68 10.0775 103.62 10.9675C103.38 13.0375 103.98 12.5075 105.44 9.37749L101.26 6.94744C101.04 8.42744 100.06 13.6975 98.0099 13.7775L100.17 15.0174C99.5799 14.1974 100.4 9.62746 101.53 9.46746L98.7098 8.31744L99.1199 6.84746L94.9399 5.74749L94.0798 7.30749L97.1599 9.05749C95.1999 9.28749 94.4499 10.4374 94.9199 12.5174C94.7599 13.3374 94.5398 14.1474 94.2698 14.9474C93.5598 17.1874 92.5099 19.1575 91.2599 21.1275L95.8298 23.0575C96.4998 19.4875 97.7299 16.3875 99.9699 13.4975L95.6999 11.7275C95.4499 14.4975 94.8599 18.6174 92.5899 20.5674L95.6199 20.1775C95.2899 19.9875 96.3799 15.2775 96.5099 14.8475C97.1499 12.7475 98.2199 11.0275 99.5299 9.29748L94.8699 8.03747C94.7499 9.66747 93.5399 17.7375 91.2599 17.8975L93.4199 19.1374C91.8299 16.8174 95.6499 9.91745 96.7499 8.01745L92.0899 6.75744C91.9499 9.17744 90.4299 16.1475 88.4399 16.9375C89.0699 16.6875 89.1499 15.5274 89.5399 14.3874C90.1899 12.4874 91.0899 10.9775 92.6099 9.64745L88.3399 7.87749C87.9799 11.4675 86.4899 14.2575 83.9299 16.7175L88.1999 18.4875C88.1699 17.0375 89.2599 15.3275 89.1599 14.1075L88.1599 13.7375C88.1499 14.4375 88.1199 15.1374 88.0699 15.8274C87.8599 18.6674 87.3999 21.3274 85.4099 23.5074L89.6799 25.2775L90.0699 22.7375L88.3998 22.2275C88.1698 23.1075 89.8699 26.1175 90.1299 27.0975C90.8599 29.8575 91.1099 32.6375 91.1099 35.4875L96.0198 34.8274C95.5098 32.6074 95.7799 30.9874 96.6299 28.9474H91.8099C92.1899 30.9074 91.8699 32.7275 90.8599 34.4075L95.4299 35.0074C94.5799 32.8374 94.5999 30.7374 95.4799 28.5774H90.6599L91.8799 29.0375L93.6299 30.7875C92.9499 28.9475 93.4399 27.3375 94.1199 25.6075L89.2098 24.9474C89.6298 26.5274 89.1799 27.7575 87.8699 28.6575L90.0299 29.8975C89.5399 28.2875 89.7499 26.7875 90.6599 25.3975L86.7299 25.9075C87.3999 26.6275 82.3598 32.4675 81.7698 32.4275L83.9299 33.6675C83.0499 32.2375 88.8998 28.1975 82.5198 31.4975H85.0399C83.7099 30.8975 87.0399 26.1774 86.7599 25.8274C84.2199 22.6974 83.4299 28.8375 82.1299 29.1775L84.5599 29.8174C83.3399 28.5474 87.5399 22.5774 88.3499 21.5074L83.7799 19.5774C82.9799 23.4774 81.3499 26.5175 78.4699 29.2875L82.7399 31.0575C82.8499 28.1075 83.5599 25.5874 84.9999 23.0074C86.5699 20.1974 82.2499 17.6675 80.6799 20.4875L80.6199 20.3874Z" fill="#3A3A3A"/>
<path d="M15.2399 80.6881C13.3799 77.5581 10.5799 75.7481 8.11989 73.1681C4.14989 68.9981 4.32987 63.5081 6.84987 58.5781C8.98987 54.3881 12.4899 51.0881 15.6899 47.7281C18.8899 44.3681 21.8099 40.8081 26.0599 38.7781C30.6399 36.5781 35.9099 35.4581 40.7799 34.0881C46.0099 32.6181 50.4199 32.4481 55.7099 33.9081C59.9799 35.0881 64.0899 36.6681 68.4799 37.4281C72.6199 38.1481 77.0599 38.2481 80.3499 41.2281C82.7299 43.3881 86.2798 39.8581 83.8898 37.6881C80.2398 34.3781 75.9699 33.5681 71.2299 32.8281C65.5099 31.9281 60.2299 29.7281 54.6099 28.4681C49.3099 27.2781 44.6399 27.7981 39.4599 29.2681C33.6599 30.9081 27.3199 32.2081 22.0499 35.2381C17.4699 37.8681 14.0599 42.1981 10.4599 45.9681C6.85986 49.7381 3.55985 53.3481 1.63985 57.9981C-0.11015 62.2381 -0.690115 67.1581 1.04988 71.4981C3.07988 76.5681 8.23989 78.6981 10.9299 83.2181C12.5699 85.9781 16.8999 83.4681 15.2499 80.6981L15.2399 80.6881Z" fill="#3A3A3A"/>
<path d="M11.6298 83.7472C14.6798 87.7472 14.7697 93.0272 18.2097 96.8872C21.6497 100.747 26.3497 104.717 31.0897 106.867C42.4897 112.037 49.4797 103.277 55.8397 94.9672C59.7297 89.8772 61.9998 84.4472 64.6898 78.7072C67.0498 73.6672 70.6698 69.4872 72.9298 64.3772C74.3798 61.1072 75.7898 58.3572 80.1698 59.7472C82.9198 60.6272 83.5897 64.2172 82.4697 66.5172C81.8797 67.7372 80.6198 68.9472 79.8098 69.9872C75.6098 75.3672 71.8198 81.0172 68.3598 86.8972C66.9698 89.2772 70.4198 92.1572 72.2898 89.9272C74.8898 86.8272 77.7397 84.0072 81.0297 81.6572C83.7497 79.7172 86.8197 78.2072 89.0797 75.6772C89.8397 74.8272 90.3598 73.7472 91.1298 72.9172C94.5998 69.1372 97.4698 70.5572 101.17 72.7872C103.35 74.1072 105.9 75.0272 102.98 78.4372C101.93 79.6572 98.3598 80.4372 96.8498 81.0972C89.7198 84.1872 82.2998 86.9872 75.6298 91.0272C72.9698 92.6372 69.8997 96.2172 67.0897 97.2472C60.3597 99.7072 61.9098 86.7272 62.2498 84.0972C62.6598 80.9172 57.6498 80.9472 57.2498 84.0972C56.6198 89.0172 56.2698 96.2272 59.4498 100.457C62.3498 104.317 67.2698 103.207 70.6998 100.807C76.0698 97.0572 80.9298 93.5772 86.9498 90.8472C93.3598 87.9372 100.93 85.8672 106.87 82.0972C117.05 75.6472 101.45 65.3072 94.7697 65.4072C88.9397 65.4872 87.4097 70.9072 83.4697 74.0072C78.2497 78.1072 73.1098 81.2172 68.7598 86.4072L72.6898 89.4372C76.5598 82.8472 80.9798 76.8272 85.5698 70.7272C88.1598 67.2872 90.1098 62.9972 87.3798 58.9972C85.0898 55.6472 80.2098 53.7972 76.2498 54.3972C71.5598 55.1172 69.8598 59.1972 68.1298 63.0472C65.4798 68.9072 61.3698 73.7872 58.8598 79.7672C55.8498 86.9272 51.4797 92.8772 46.3297 98.6672C43.0697 102.337 39.6398 104.507 34.5698 102.887C31.0898 101.777 28.1698 99.2172 25.4898 96.8672C22.8098 94.5172 20.6298 92.4072 19.3798 88.8572C18.4098 86.1072 17.7598 83.5772 15.9698 81.2172C14.0398 78.6972 9.69974 81.1772 11.6497 83.7372L11.6298 83.7472Z" fill="#3A3A3A"/>
<path d="M95.3098 84.9079C97.9398 90.8779 92.0998 94.9278 90.6098 100.258C90.0798 102.158 91.8598 103.758 93.6898 103.338C98.3098 102.268 102.95 100.958 107.62 100.158C110.52 99.6579 115.57 101.588 117.82 99.1779C120.07 96.7679 117.91 94.1179 116.41 92.1779C113.33 88.2079 110.93 83.8078 108.54 79.3978C107.01 76.5678 102.69 79.0879 104.22 81.9179C105.92 85.0679 107.62 88.2279 109.59 91.2279C110.3 92.3179 111.36 94.4978 112.46 95.2178C114.38 96.4678 116.16 95.2978 112.85 94.9578C106.1 94.2778 98.8398 97.0078 92.3598 98.5078L95.4398 101.588C96.4598 97.9578 99.4798 95.3878 100.56 91.7678C101.54 88.5078 100.97 85.4278 99.6298 82.3878C98.2898 79.3478 94.0298 81.9879 95.3098 84.9079Z" fill="#3A3A3A"/>
<path d="M85.5599 88.6973C90.4099 102.487 73.1999 110.807 76.5099 124.257C77.2799 127.377 82.0999 126.057 81.3299 122.927C79.5199 115.557 86.9899 109.137 89.5799 102.687C91.5999 97.6874 92.1899 92.5074 90.3799 87.3674C89.3199 84.3474 84.4899 85.6473 85.5599 88.6973Z" fill="#3A3A3A"/>
<path d="M37.88 127.496C37.57 122.566 37.61 118.246 40.21 113.866C42.59 109.846 45.11 105.886 48.93 103.076C51.49 101.186 49 96.8464 46.41 98.7564C41.85 102.116 38.75 106.506 35.9 111.336C32.86 116.486 32.5199 121.596 32.8899 127.496C33.0899 130.696 38.0899 130.716 37.8899 127.496H37.88Z" fill="#3A3A3A"/>
<path d="M36.7398 129.267C41.7698 128.577 46.6098 129.067 51.4398 130.537C54.6198 131.507 57.8398 132.907 61.2098 131.827C63.9498 130.947 65.3298 128.767 67.5198 127.117C71.0098 124.507 75.7098 125.667 79.8498 125.897C83.0698 126.077 83.0498 121.077 79.8498 120.897C76.2598 120.697 71.8998 119.757 68.3798 120.827C65.7198 121.637 64.0698 123.717 62.0498 125.467C58.0798 128.907 52.0698 125.187 47.5198 124.427C43.4498 123.747 39.4798 123.887 35.4098 124.437C32.2398 124.867 33.5898 129.687 36.7398 129.257V129.267Z" fill="#3A3A3A"/>
<path d="M88.7599 102.427C90.1999 102.877 91.7499 103.057 93.2499 102.897C94.5499 102.757 95.8099 101.847 95.7499 100.397C95.6899 99.1671 94.6399 97.7471 93.2499 97.8971C91.8599 98.0471 91.2599 97.9771 90.0899 97.6071C88.8399 97.2171 87.3099 98.0671 87.0099 99.3571C86.6999 100.717 87.4199 102.007 88.7599 102.437V102.427Z" fill="#3A3A3A"/>
<path d="M116.78 101.738C121.38 101.498 124.97 99.4379 129.16 97.7579C135.19 95.3479 141 96.628 146.86 98.908C150.35 100.268 155.49 104.008 159.38 101.898C162.19 100.378 162.52 96.738 161.96 93.958C160.51 86.668 153.68 81.158 146.28 81.168C140.61 81.168 135.41 84.008 129.83 84.698C123.68 85.458 117.35 85.408 111.17 85.698C107.97 85.848 107.95 90.848 111.17 90.698C119.29 90.308 127.88 90.658 135.8 88.608C140.1 87.498 144.57 85.268 149.09 86.488C152.33 87.368 156.32 90.468 156.83 93.998C157.55 98.978 154.51 96.748 151.99 95.658C150.73 95.118 149.46 94.5679 148.19 94.0679C144.82 92.7479 141.3 91.678 137.67 91.388C129.8 90.768 124.24 96.318 116.78 96.708C113.58 96.878 113.56 101.878 116.78 101.708V101.738Z" fill="#3A3A3A"/>
</svg>
