<svg width="207" height="244" viewBox="0 0 207 244" fill="none" xmlns="http://www.w3.org/2000/svg">
<mask id="mask0_387_5838" style="mask-type:alpha" maskUnits="userSpaceOnUse" x="0" y="0" width="207" height="244">
<path fill-rule="evenodd" clip-rule="evenodd" d="M202.486 0.459122C203.081 0.448029 203.62 0.352562 204.105 0.188499C204.37 8.49801 204.632 16.8079 204.876 25.119C205.576 48.829 206.156 72.549 206.376 96.279C206.492 108.794 206.301 121.306 206.109 133.818V133.819C205.937 145.091 205.764 156.364 205.816 167.639C205.845 173.868 205.937 180.095 206.029 186.322C206.127 193.01 206.226 199.698 206.246 206.389C206.266 213.189 206.206 219.989 205.986 226.789C205.869 230.512 205.231 233.91 204.58 237.38L204.579 237.384C204.457 238.033 204.335 238.685 204.215 239.342C203.424 239.358 202.632 239.376 201.839 239.394L200.767 239.418C200.133 239.433 199.499 239.446 198.866 239.459L184.986 239.759L157.226 240.359L101.706 241.559L46.1865 242.759C41.7479 242.855 37.2465 243.055 32.7164 243.257H32.7156C21.8189 243.742 10.7558 244.235 0 243.295C0.580206 225.516 1.162 207.738 1.7438 189.96L1.74486 189.927L1.74592 189.895L1.74645 189.879L1.74684 189.867C2.42421 169.168 3.10158 148.47 3.77645 127.769C3.86974 124.907 3.96442 122.042 4.0592 119.174L4.05934 119.17L4.05942 119.167L4.0595 119.164C5.33617 80.5301 6.63155 41.3297 4.81644 2.45852C4.77528 1.57898 4.64279 0.759453 4.43192 0C70.4397 1.51745 136.467 1.67274 202.486 0.459122Z" fill="#D9D9D9"/>
</mask>
<g mask="url(#mask0_387_5838)">
<path d="M24.9901 175.429C24.7601 201.059 24.5201 226.699 24.2901 252.329C24.2801 253.619 26.2801 253.619 26.2901 252.329C26.5201 226.699 26.7601 201.059 26.9901 175.429C27.0001 174.139 25.0001 174.139 24.9901 175.429Z" fill="#20BEFF"/>
<path d="M25.85 123.569C25.7 133.639 25.49 143.699 25.19 153.759C25.15 155.049 27.15 155.049 27.19 153.759C27.49 143.699 27.7 133.629 27.85 123.569C27.87 122.279 25.87 122.279 25.85 123.569Z" fill="#20BEFF"/>
<path d="M26.62 -3.53055C26.45 6.81945 26.36 17.1595 26.29 27.5095C26.29 28.7995 28.28 28.7995 28.29 27.5095C28.35 17.1595 28.45 6.80945 28.62 -3.53055C28.64 -4.82055 26.64 -4.82055 26.62 -3.53055Z" fill="#20BEFF"/>
<path d="M56.63 176.09C56.4 201.72 56.16 227.36 55.93 252.99C55.92 254.28 57.92 254.28 57.93 252.99C58.16 227.36 58.4 201.72 58.63 176.09C58.64 174.8 56.64 174.8 56.63 176.09Z" fill="#20BEFF"/>
<path d="M56.9801 123.8C56.8901 133.07 56.8401 142.35 56.8501 151.62C56.8501 152.91 58.8501 152.91 58.8501 151.62C58.8401 142.35 58.8901 133.07 58.9801 123.8C58.9901 122.51 56.9901 122.51 56.9801 123.8Z" fill="#20BEFF"/>
<path d="M58.26 -2.87039C58.35 7.52961 58.3601 17.9296 58.3001 28.3296C58.3001 29.6196 60.2901 29.6196 60.3001 28.3296C60.3601 17.9296 60.36 7.52961 60.26 -2.87039C60.25 -4.16039 58.25 -4.16039 58.26 -2.87039Z" fill="#20BEFF"/>
<path d="M86.1201 -3.61063C85.3401 81.6794 84.5601 166.959 83.7901 252.249C83.7801 253.539 85.7801 253.539 85.7901 252.249C86.5701 166.959 87.3501 81.6794 88.1201 -3.61063C88.1301 -4.90062 86.1301 -4.90062 86.1201 -3.61063Z" fill="#20BEFF"/>
<path d="M117.76 -2.95047C116.77 75.5795 115.77 154.1 115.61 232.64C115.61 233.93 117.61 233.93 117.61 232.64C117.77 154.11 118.77 75.5795 119.76 -2.95047C119.78 -4.24047 117.78 -4.24047 117.76 -2.95047Z" fill="#20BEFF"/>
<path d="M145.21 28.6394C144.75 95.9294 142.79 163.209 143.47 230.499C143.48 231.789 145.48 231.789 145.47 230.499C144.78 163.209 146.74 95.9294 147.21 28.6394C147.21 27.3494 145.22 27.3494 145.21 28.6394Z" fill="#20BEFF"/>
<path d="M145.61 -3.6907C145.56 0.499297 145.52 4.6893 145.47 8.8793C145.46 10.1693 147.46 10.1693 147.47 8.8793C147.52 4.6893 147.56 0.499297 147.61 -3.6907C147.62 -4.9807 145.62 -4.9807 145.61 -3.6907Z" fill="#20BEFF"/>
<path d="M177.01 30.779C176.76 97.809 175.77 164.829 175.11 231.859C175.1 233.149 177.1 233.149 177.11 231.859C177.77 164.839 178.76 97.809 179.01 30.779C179.01 29.489 177.01 29.489 177.01 30.779Z" fill="#20BEFF"/>
<path d="M177.25 -3.03055C177.23 0.189453 177.21 3.39945 177.19 6.61945C177.19 7.90945 179.18 7.90945 179.19 6.61945C179.21 3.39945 179.23 0.189453 179.25 -3.03055C179.25 -4.32055 177.26 -4.32055 177.25 -3.03055Z" fill="#20BEFF"/>
<path d="M114.48 61.2894C138.37 61.7894 162.25 62.4494 186.14 62.2794C187.43 62.2794 187.43 60.2694 186.14 60.2794C162.25 60.4494 138.36 59.7894 114.48 59.2894C113.19 59.2594 113.19 61.2594 114.48 61.2894Z" fill="#20BEFF"/>
<path d="M75.6001 60.8193C78.6101 60.8193 81.6201 60.8193 84.6301 60.8493C85.9201 60.8493 85.9201 58.8593 84.6301 58.8493C81.6201 58.8293 78.6101 58.8193 75.6001 58.8193C74.3101 58.8193 74.3101 60.8193 75.6001 60.8193Z" fill="#20BEFF"/>
<path d="M-4.13992 59.8791C0.990078 59.9391 6.12008 59.999 11.2501 60.059C12.5401 60.079 12.5401 58.079 11.2501 58.059C6.12008 57.999 0.990078 57.9391 -4.13992 57.8791C-5.42992 57.8591 -5.42992 59.8591 -4.13992 59.8791Z" fill="#20BEFF"/>
<path d="M114.57 29.6388L185.91 30.4888C187.2 30.5088 187.2 28.5088 185.91 28.4888L114.57 27.6388C113.28 27.6188 113.28 29.6188 114.57 29.6388Z" fill="#20BEFF"/>
<path d="M-3.62984 28.239C26.0002 30.609 55.6802 27.879 85.3402 29.039C86.6302 29.089 86.6202 27.089 85.3402 27.039C55.6802 25.879 26.0002 28.609 -3.62984 26.239C-4.90984 26.139 -4.90984 28.139 -3.62984 28.239Z" fill="#20BEFF"/>
<path d="M112.29 125.219C136.54 125.509 160.78 125.799 185.03 126.079C186.32 126.099 186.32 124.099 185.03 124.079C160.78 123.789 136.54 123.499 112.29 123.219C111 123.199 111 125.199 112.29 125.219Z" fill="#20BEFF"/>
<path d="M-11.51 123.749C20.9 123.819 53.2999 125.739 85.7099 124.899C86.9899 124.869 86.9999 122.869 85.7099 122.899C53.2999 123.729 20.9 121.819 -11.51 121.749C-12.8 121.749 -12.8 123.749 -11.51 123.749Z" fill="#20BEFF"/>
<path d="M113.92 93.839C137.8 93.819 161.68 93.4091 185.54 94.4491C186.83 94.5091 186.82 92.5091 185.54 92.4491C161.68 91.4191 137.8 91.819 113.92 91.839C112.63 91.839 112.63 93.839 113.92 93.839Z" fill="#20BEFF"/>
<path d="M75.0299 93.139C78.2699 93.279 81.4999 93.399 84.7399 93.499C86.0299 93.539 86.0299 91.539 84.7399 91.499C81.4999 91.399 78.2699 91.289 75.0299 91.139C73.7399 91.079 73.7499 93.079 75.0299 93.139Z" fill="#20BEFF"/>
<path d="M-11 92.1193C-3.77003 92.2093 3.45996 92.2893 10.68 92.3793C11.97 92.3993 11.97 90.3993 10.68 90.3793C3.44996 90.2893 -3.78003 90.2093 -11 90.1193C-12.29 90.0993 -12.29 92.0993 -11 92.1193Z" fill="#20BEFF"/>
<path d="M114.22 189.18C136.37 189.44 158.52 189.71 180.67 189.97C181.96 189.99 181.96 187.99 180.67 187.97C158.52 187.71 136.37 187.44 114.22 187.18C112.93 187.16 112.93 189.16 114.22 189.18Z" fill="#20BEFF"/>
<path d="M53.1201 188.36C63.6901 188.61 74.2701 188.8 84.8501 188.83C86.1401 188.83 86.1401 186.83 84.8501 186.83C74.2701 186.8 63.7001 186.61 53.1201 186.36C51.8301 186.33 51.8301 188.33 53.1201 188.36Z" fill="#20BEFF"/>
<path d="M-15.88 187.629C1.88 187.209 19.63 187.539 37.39 187.969C38.68 187.999 38.68 185.999 37.39 185.969C19.64 185.539 1.88 185.219 -15.88 185.629C-17.16 185.659 -17.17 187.659 -15.88 187.629Z" fill="#20BEFF"/>
<path d="M112.85 157.629C135.63 157.329 158.42 156.809 181.17 158.329C182.45 158.419 182.45 156.419 181.17 156.329C158.42 154.809 135.63 155.329 112.85 155.629C111.56 155.649 111.56 157.649 112.85 157.629Z" fill="#20BEFF"/>
<path d="M73.9301 157.31C77.5701 157.46 81.2201 157.56 84.8601 157.63C86.1501 157.66 86.1501 155.66 84.8601 155.63C81.2101 155.56 77.5701 155.45 73.9301 155.31C72.6401 155.26 72.6501 157.26 73.9301 157.31Z" fill="#20BEFF"/>
<path d="M-15.3699 155.989C-2.7799 156.139 9.81009 156.289 22.4001 156.439C23.6901 156.459 23.6901 154.459 22.4001 154.439C9.81009 154.289 -2.7799 154.139 -15.3699 153.989C-16.6599 153.969 -16.6599 155.969 -15.3699 155.989Z" fill="#20BEFF"/>
<path d="M57.4499 221.16C66.8899 221.27 76.3299 221.27 85.7799 221.1C87.0699 221.08 87.0699 219.08 85.7799 219.1C76.3399 219.27 66.8999 219.27 57.4499 219.16C56.1599 219.15 56.1599 221.15 57.4499 221.16Z" fill="#20BEFF"/>
<path d="M-17.74 219.87C-0.43002 219.85 16.87 220.31 34.17 220.72C35.46 220.75 35.46 218.75 34.17 218.72C16.87 218.31 -0.43002 217.85 -17.74 217.87C-19.03 217.87 -19.03 219.87 -17.74 219.87Z" fill="#20BEFF"/>
</g>
</svg>
