<svg width="187" height="173" viewBox="0 0 187 173" fill="none" xmlns="http://www.w3.org/2000/svg">
<path d="M8.92061 10.0046C65.7106 12.1746 122.561 12.6446 179.381 11.4246C185.811 11.2846 185.831 1.28459 179.381 1.42459C122.561 2.64459 65.7106 2.17461 8.92061 0.00461011C2.48061 -0.24539 2.49061 9.75461 8.92061 10.0046Z" fill="#53FF6E"/>
<path d="M11.9506 171.325C68.3006 170.075 124.681 170.335 181.011 172.135C187.451 172.345 187.441 162.335 181.011 162.135C124.671 160.345 68.3006 160.075 11.9506 161.325C5.52061 161.465 5.50061 171.465 11.9506 171.325Z" fill="#53FF6E"/>
<path d="M88.7906 11.5243C89.5106 62.5243 90.0006 113.514 90.2706 164.514C90.3006 169.954 99.1206 171.564 100.091 165.844C100.271 164.804 100.441 163.774 100.621 162.734C101.691 156.444 92.0606 153.734 90.9806 160.074C90.8006 161.114 90.6306 162.144 90.4506 163.184L100.271 164.514C100.001 113.514 99.5106 62.5143 98.7906 11.5243C98.7006 5.09434 88.7006 5.07434 88.7906 11.5243Z" fill="#53FF6E"/>
<path d="M0.000603867 5.2343C0.720604 58.7843 1.21058 112.334 1.48058 165.884C1.51058 171.314 10.3706 172.944 11.3006 167.214C11.4806 166.124 11.6506 165.034 11.8306 163.954C12.8506 157.654 3.22061 154.954 2.19061 161.294C2.01061 162.384 1.84061 163.474 1.66061 164.554L11.4806 165.884C11.2106 112.334 10.7206 58.7843 10.0006 5.2343C9.9106 -1.1957 -0.0893961 -1.2157 0.000603867 5.2343Z" fill="#53FF6E"/>
<path d="M175.001 8.2343C175.721 61.1943 176.211 114.164 176.481 167.124C176.511 172.554 185.361 174.184 186.301 168.454C186.481 167.374 186.651 166.304 186.831 165.224C187.861 158.924 178.231 156.224 177.191 162.564C177.011 163.644 176.841 164.714 176.661 165.794L186.481 167.124C186.211 114.154 185.721 61.1943 185.001 8.2343C184.911 1.8043 174.911 1.7843 175.001 8.2343Z" fill="#53FF6E"/>
</svg>
