<svg width="344" height="186" viewBox="0 0 344 186" fill="none" xmlns="http://www.w3.org/2000/svg">
<path d="M32.9599 11.5904C81.6599 11.3504 130.36 11.1104 179.06 10.8604C185.49 10.8304 185.51 0.830419 179.06 0.860419C130.36 1.10042 81.6599 1.34041 32.9599 1.59041C26.5299 1.62041 26.5099 11.6204 32.9599 11.5904Z" fill="#FF46A0"/>
<path d="M65.4298 45.3608C112.75 43.0908 160.09 40.4708 207.48 41.2508C213.92 41.3608 213.92 31.3608 207.48 31.2508C160.09 30.4708 112.75 33.0908 65.4298 35.3608C59.0198 35.6708 58.9898 45.6708 65.4298 45.3608Z" fill="#FF46A0"/>
<path d="M91.56 76.3803C139.64 75.3303 187.71 74.1603 235.78 72.8703C242.2 72.7003 242.23 62.7003 235.78 62.8703C187.71 64.1603 139.64 65.3303 91.56 66.3803C85.13 66.5203 85.11 76.5203 91.56 76.3803Z" fill="#FF46A0"/>
<path d="M125.02 109.651C172.03 107.401 219.04 105.141 266.06 102.891C272.47 102.581 272.5 92.5808 266.06 92.8908C219.05 95.1408 172.04 97.4008 125.02 99.6508C118.61 99.9608 118.58 109.961 125.02 109.651Z" fill="#FF46A0"/>
<path d="M152.64 137.84C200.63 136.13 248.62 134.42 296.62 132.71C303.04 132.48 303.07 122.48 296.62 122.71C248.63 124.42 200.64 126.13 152.64 127.84C146.22 128.07 146.19 138.07 152.64 137.84Z" fill="#FF46A0"/>
<path d="M106.08 11.7905C119.11 25.1905 131.98 38.7505 145.48 51.6705C158.98 64.5905 170.17 77.4205 181.62 91.2905C193.22 105.35 205.45 118.36 218.2 131.36C230.06 143.45 241.69 155.66 254.51 166.76C259.35 170.96 266.46 163.91 261.58 159.69C248.76 148.59 237.13 136.37 225.27 124.29C212.52 111.3 200.29 98.2805 188.69 84.2205C177.09 70.1605 165.55 57.0405 152.55 44.6005C139.55 32.1605 126.17 18.1205 113.15 4.72047C108.66 0.100468 101.59 7.17046 106.08 11.7905Z" fill="#FF46A0"/>
<path d="M101.31 11.4706C114.16 24.7406 126.86 38.1706 140.19 50.9706C153.52 63.7706 164.6 76.5306 175.91 90.2906C187.22 104.051 199.39 117.061 211.94 129.911C223.64 141.881 235.11 153.981 247.76 164.981C252.6 169.191 259.7 162.141 254.83 157.911C242.18 146.911 230.71 134.811 219.01 122.841C206.46 109.991 194.4 97.1106 182.98 83.2206C171.67 69.4606 160.12 56.2406 147.26 43.9006C133.93 31.1006 121.23 17.6706 108.38 4.40058C103.89 -0.229423 96.83 6.84058 101.31 11.4706Z" fill="#FF46A0"/>
<path d="M175.53 9.5205C200.28 35.9305 224.93 62.2505 251.07 87.3005C278.09 113.19 305.11 139.081 332.13 164.971C336.78 169.421 343.86 162.361 339.2 157.9C312.18 132.01 285.16 106.12 258.14 80.2305C231.12 54.3405 207.35 28.8605 182.6 2.4505C178.19 -2.2595 171.13 4.8305 175.53 9.5205Z" fill="#FF46A0"/>
<path d="M179.07 168.54C230.08 169.93 281.13 169.44 332.1 167.06C338.51 166.76 338.54 156.76 332.1 157.06C281.12 159.43 230.08 159.92 179.07 158.54C172.63 158.36 172.64 168.36 179.07 168.54Z" fill="#FF46A0"/>
<path d="M30.1099 10.4606C45.8599 32.3906 64.7199 52.0106 83.5899 71.2406C104.51 92.5606 126.03 113.301 146.7 134.861C156.67 145.261 166.47 155.861 175.53 167.071C179.57 172.081 186.61 164.961 182.6 160.001C147.43 116.431 104.15 79.9406 66.3999 38.6906C56.6599 28.0506 47.1599 17.1306 38.7399 5.41059C35.0199 0.230591 26.3399 5.22059 30.1099 10.4606Z" fill="#FF46A0"/>
<path d="M3.01989 7.09086C16.6499 7.67086 30.2699 7.42087 43.8699 6.35087C47.0599 6.10087 47.0799 1.10087 43.8699 1.35087C30.2699 2.42087 16.6499 2.66086 3.01989 2.09086C-0.200106 1.95086 -0.190106 6.95086 3.01989 7.09086Z" fill="#FF46A0"/>
<path d="M179.37 164.84C175.26 170.16 171.5 175.71 168.09 181.5C166.45 184.28 170.77 186.8 172.41 184.02C175.82 178.23 179.58 172.68 183.69 167.36C185.66 164.82 181.31 162.32 179.37 164.84Z" fill="#FF46A0"/>
<path d="M331.55 165.551C333.98 165.531 336.28 165.871 338.61 166.581C341.69 167.521 343.01 162.691 339.94 161.761C337.22 160.931 334.4 160.531 331.55 160.551C328.33 160.571 328.33 165.571 331.55 165.551Z" fill="#FF46A0"/>
<path d="M333.38 162.411C335.44 163.371 337.22 164.631 338.77 166.301C340.98 168.651 344.51 165.111 342.31 162.761C340.49 160.821 338.31 159.221 335.9 158.091C334.68 157.521 333.21 157.751 332.48 158.991C331.85 160.071 332.15 161.841 333.38 162.411Z" fill="#FF46A0"/>
<path d="M335.2 160.591C341.04 164.741 338.63 174.971 338.45 181.191C338.36 184.411 343.36 184.411 343.45 181.191C343.7 172.291 345.99 162.151 337.73 156.271C335.1 154.401 332.6 158.741 335.21 160.591H335.2Z" fill="#FF46A0"/>
<path d="M172.76 180.181L172.43 180.091C171.44 179.811 170.07 180.251 169.61 181.241L169.43 181.631C168.99 182.561 168.93 183.931 169.82 184.661C171.28 185.861 172.54 185.751 174.43 185.811C178.03 185.921 181.63 185.921 185.23 185.901C192.43 185.871 199.63 185.681 206.82 185.391C221.55 184.801 236.26 183.841 250.98 183.171C265.7 182.501 279.76 182.231 294.16 182.691C309.18 183.171 324.18 184.061 339.2 183.301C342.4 183.141 342.42 178.141 339.2 178.301C311.46 179.701 283.68 176.851 255.89 177.971C242.14 178.521 228.42 179.401 214.67 180.051C207.8 180.381 200.93 180.651 194.06 180.791C190.79 180.861 187.52 180.901 184.25 180.911C182.29 180.911 180.32 180.911 178.36 180.881C177.44 180.871 173.66 181.371 173.36 181.121L173.75 184.151L173.93 183.761L171.11 184.911L171.44 185.001C174.54 185.871 175.87 181.041 172.77 180.181H172.76Z" fill="#FF46A0"/>
<path d="M1.03994 8.17032C28.8199 38.9303 56.58 69.7103 84.39 100.44C110.89 129.72 137.8 158.74 167.91 184.38C170.35 186.46 173.9 182.93 171.45 180.84C141.34 155.2 114.43 126.18 87.93 96.9003C60.12 66.1703 32.36 35.3903 4.57998 4.63033C2.41998 2.24033 -1.11006 5.78032 1.03994 8.17032Z" fill="#FF46A0"/>
<path d="M172.85 162.02C168.9 166.92 164.67 171.571 160.17 175.981C159.02 177.111 160.79 178.871 161.94 177.751C166.44 173.351 170.67 168.691 174.62 163.791C175.62 162.551 173.86 160.77 172.85 162.02Z" fill="#FF46A0"/>
<path d="M168.39 155.71C163.8 159.76 159.35 163.95 155.05 168.31C153.92 169.46 155.68 171.22 156.82 170.08C161.12 165.73 165.57 161.53 170.16 157.48C171.37 156.41 169.6 154.65 168.39 155.71Z" fill="#FF46A0"/>
<path d="M165.49 149.531L151.03 163.181C149.86 164.291 151.63 166.051 152.8 164.951L167.26 151.301C168.43 150.191 166.66 148.431 165.49 149.531Z" fill="#FF46A0"/>
<path d="M158.46 143.69C154.29 149.2 149.45 154.09 144.04 158.37C142.78 159.37 144.56 161.13 145.81 160.14C151.41 155.72 156.32 150.64 160.63 144.95C161.6 143.67 159.43 142.42 158.47 143.69H158.46Z" fill="#FF46A0"/>
<path d="M152.78 139.01L137.18 152.62C135.97 153.68 137.74 155.44 138.95 154.39C144.15 149.85 149.35 145.31 154.55 140.78C155.76 139.72 153.99 137.96 152.78 139.01Z" fill="#FF46A0"/>
<path d="M149.47 133.15C143.91 138.29 138.34 143.44 132.78 148.58C131.6 149.67 133.37 151.44 134.55 150.35C140.11 145.21 145.68 140.06 151.24 134.92C152.42 133.83 150.65 132.06 149.47 133.15Z" fill="#FF46A0"/>
<path d="M146.58 127.71C140.87 132.98 134.9 137.94 128.65 142.56C127.37 143.51 128.62 145.68 129.91 144.72C136.33 139.97 142.48 134.89 148.35 129.48C149.54 128.39 147.76 126.62 146.58 127.71Z" fill="#FF46A0"/>
<path d="M143.11 123.761C136.26 128.961 129.53 134.321 122.93 139.851C121.7 140.881 123.47 142.641 124.7 141.621C131.13 136.231 137.69 131.001 144.37 125.921C145.63 124.961 144.39 122.791 143.11 123.761Z" fill="#FF46A0"/>
<path d="M134.92 118.601C130.42 122.981 125.92 127.361 121.41 131.741C120.25 132.861 122.02 134.631 123.18 133.511L136.69 120.371C137.85 119.251 136.08 117.481 134.92 118.601Z" fill="#FF46A0"/>
<path d="M131.36 113.42C124.89 117.87 118.8 122.79 113.1 128.18C111.93 129.29 113.7 131.05 114.87 129.95C120.42 124.71 126.34 119.91 132.63 115.58C133.95 114.67 132.7 112.51 131.37 113.42H131.36Z" fill="#FF46A0"/>
<path d="M125.8 109.12C120.71 113.53 115.63 117.94 110.54 122.34C109.32 123.4 111.1 125.16 112.31 124.11C117.4 119.7 122.48 115.29 127.57 110.89C128.79 109.83 127.01 108.07 125.8 109.12Z" fill="#FF46A0"/>
<path d="M122.66 106.22C117.01 110.44 111.35 114.67 105.7 118.89C104.43 119.84 105.67 122.01 106.96 121.05C112.61 116.83 118.27 112.6 123.92 108.38C125.19 107.43 123.95 105.26 122.66 106.22Z" fill="#FF46A0"/>
<path d="M117.01 101.781L102.07 114.951C100.86 116.021 102.63 117.781 103.84 116.721C108.82 112.331 113.8 107.941 118.78 103.551C119.99 102.481 118.22 100.721 117.01 101.781Z" fill="#FF46A0"/>
<path d="M111.94 97.8206C107.76 101.481 103.36 104.831 98.71 107.881C97.37 108.761 98.6199 110.921 99.9699 110.041C104.79 106.881 109.37 103.391 113.71 99.5906C114.92 98.5306 113.15 96.7606 111.94 97.8206Z" fill="#FF46A0"/>
<path d="M107.92 91.6105C103.33 96.2705 98.62 100.811 93.79 105.231C92.6 106.321 94.37 108.08 95.56 107C100.39 102.58 105.1 98.0405 109.69 93.3805C110.82 92.2305 109.05 90.4605 107.92 91.6105Z" fill="#FF46A0"/>
<path d="M102.38 87.4503C97.1901 91.2303 92.34 95.4103 87.86 100.01C86.74 101.16 88.5001 102.93 89.6301 101.78C93.9601 97.3303 98.6301 93.2703 103.65 89.6103C104.94 88.6703 103.69 86.5003 102.39 87.4503H102.38Z" fill="#FF46A0"/>
<path d="M96.6299 83.9701C91.9999 87.6101 87.3698 91.2601 82.7398 94.9001C81.4798 95.8901 83.2599 97.6501 84.5099 96.6701C89.1399 93.0301 93.7699 89.3801 98.3999 85.7401C99.6599 84.7501 97.8799 82.9901 96.6299 83.9701Z" fill="#FF46A0"/>
<path d="M92.1298 79.1108C88.5898 82.9008 84.7098 86.2908 80.4598 89.2608C79.1498 90.1708 80.3998 92.3408 81.7198 91.4208C86.1398 88.3308 90.2098 84.8208 93.8998 80.8808C94.9998 79.7008 93.2298 77.9308 92.1298 79.1108Z" fill="#FF46A0"/>
<path d="M87.9001 73.7705C83.4001 77.9305 78.7501 81.9105 73.9601 85.7305C72.7001 86.7305 74.48 88.4905 75.73 87.5005C80.52 83.6805 85.17 79.7005 89.67 75.5405C90.85 74.4505 89.0801 72.6805 87.9001 73.7705Z" fill="#FF46A0"/>
<path d="M83.1501 68.3005C78.9601 72.5105 74.7801 76.7205 70.5901 80.9205C69.4501 82.0605 71.22 83.8305 72.36 82.6905C76.55 78.4805 80.73 74.2705 84.92 70.0705C86.06 68.9305 84.2901 67.1605 83.1501 68.3005Z" fill="#FF46A0"/>
<path d="M78.0998 64.7106C73.9198 68.6806 69.7398 72.6506 65.5498 76.6106C64.3798 77.7206 66.1498 79.4906 67.3198 78.3806C71.4998 74.4106 75.6798 70.4406 79.8698 66.4806C81.0398 65.3706 79.2698 63.6006 78.0998 64.7106Z" fill="#FF46A0"/>
<path d="M75.2 58.3907C70.49 61.8207 66.07 65.5907 61.96 69.7307C60.83 70.8707 62.59 72.6407 63.73 71.5007C67.69 67.5107 71.93 63.8607 76.47 60.5507C77.76 59.6107 76.51 57.4407 75.21 58.3907H75.2Z" fill="#FF46A0"/>
<path d="M70.7699 54.4407C67.0499 58.7307 62.7499 62.3407 57.8699 65.2407C56.4899 66.0607 57.7399 68.2207 59.1299 67.4007C64.1899 64.4007 68.6799 60.6607 72.5399 56.2107C73.5899 55.0007 71.8299 53.2207 70.7699 54.4407Z" fill="#FF46A0"/>
<path d="M65.5 49.1806C61.67 52.6806 57.65 55.9206 53.41 58.9006C52.1 59.8206 53.35 61.9906 54.67 61.0606C59.08 57.9606 63.2901 54.5906 67.2701 50.9506C68.4601 49.8606 66.69 48.1006 65.5 49.1806Z" fill="#FF46A0"/>
<path d="M60.8598 44.5507C56.5498 48.2107 52.0298 51.5807 47.2898 54.6607C45.9498 55.5307 47.1998 57.7007 48.5498 56.8207C53.4698 53.6207 58.1598 50.1207 62.6198 46.3207C63.8498 45.2807 62.0698 43.5107 60.8498 44.5507H60.8598Z" fill="#FF46A0"/>
<path d="M56.8401 40.1606C52.7101 43.4506 48.58 46.7406 44.44 50.0306C43.18 51.0306 44.9601 52.7906 46.2101 51.8006C50.3401 48.5106 54.47 45.2206 58.61 41.9306C59.87 40.9306 58.0901 39.1706 56.8401 40.1606Z" fill="#FF46A0"/>
<path d="M52.5499 36.4506C48.1799 39.3806 43.8999 42.4506 39.7199 45.6506C38.4599 46.6206 39.6999 48.7906 40.9799 47.8106C45.1599 44.6106 49.4299 41.5406 53.8099 38.6106C55.1399 37.7206 53.8899 35.5506 52.5499 36.4506Z" fill="#FF46A0"/>
<path d="M47.2898 32.7608L35.5398 39.9408C34.1698 40.7808 35.4198 42.9408 36.7998 42.1008L48.5498 34.9208C49.9198 34.0808 48.6698 31.9208 47.2898 32.7608Z" fill="#FF46A0"/>
<path d="M45.7298 27.13C41.6098 30.13 37.2199 32.65 32.5199 34.62C31.0599 35.23 31.6998 37.65 33.1798 37.03C38.0898 34.98 42.6898 32.43 46.9898 29.29C48.2798 28.35 47.0298 26.18 45.7298 27.13Z" fill="#FF46A0"/>
<path d="M39.2301 23.2106C35.7301 25.8806 32.0801 28.3206 28.2801 30.5306C26.8901 31.3406 28.1501 33.5006 29.5401 32.6906C33.3401 30.4806 36.9901 28.0406 40.4901 25.3705C41.7501 24.4105 40.5101 22.2306 39.2301 23.2106Z" fill="#FF46A0"/>
<path d="M40.16 18.1503C33.5599 20.9203 27.48 24.4903 21.85 28.9203C20.59 29.9103 22.37 31.6703 23.62 30.6903C28.89 26.5503 34.65 23.1603 40.83 20.5703C42.29 19.9603 41.65 17.5403 40.17 18.1603L40.16 18.1503Z" fill="#FF46A0"/>
<path d="M35.88 14.7199C31.06 17.7099 26.09 20.4099 20.96 22.8399C19.51 23.5299 20.7699 25.6899 22.2199 24.9999C27.3499 22.5699 32.31 19.8599 37.14 16.8799C38.51 16.0299 37.25 13.8699 35.88 14.7199Z" fill="#FF46A0"/>
<path d="M33.5199 10.6808C26.7499 13.4508 20.1399 16.5408 13.6899 19.9808C12.2699 20.7408 13.5299 22.9008 14.9499 22.1408C21.2099 18.8008 27.6099 15.7808 34.1799 13.0908C35.6499 12.4908 35.0099 10.0708 33.5199 10.6808Z" fill="#FF46A0"/>
<path d="M31.0699 6.53997C24.1399 8.97997 17.1999 11.41 10.2699 13.85C8.75994 14.38 9.40991 16.8 10.9299 16.26L31.7299 8.94997C33.2399 8.41997 32.5899 5.99997 31.0699 6.53997Z" fill="#FF46A0"/>
<path d="M20.83 4.27998C15.44 5.79998 9.98994 6.92998 4.43994 7.68998C2.84994 7.90998 3.52992 10.32 5.09992 10.1C10.6499 9.33998 16.0999 8.20998 21.4899 6.68998C23.0399 6.24998 22.38 3.83998 20.83 4.27998Z" fill="#FF46A0"/>
<path d="M185.4 166.23C183.81 171.61 181.91 176.87 179.67 182.02C179.04 183.48 181.19 184.76 181.83 183.28C184.15 177.93 186.15 172.49 187.81 166.9C188.27 165.35 185.86 164.69 185.4 166.24V166.23Z" fill="#FF46A0"/>
<path d="M190.51 166.42C189.67 171.68 188.68 176.91 187.53 182.11C187.18 183.68 189.59 184.35 189.94 182.77C191.09 177.57 192.09 172.34 192.92 167.08C193.17 165.51 190.76 164.83 190.51 166.42Z" fill="#FF46A0"/>
<path d="M196.05 167.18C195.24 172.24 194.43 177.3 193.63 182.36C193.38 183.93 195.79 184.61 196.04 183.02C196.85 177.96 197.66 172.9 198.46 167.84C198.71 166.27 196.3 165.59 196.05 167.18Z" fill="#FF46A0"/>
<path d="M202.38 168.52C202.19 172.65 201.76 176.74 201.07 180.82C200.8 182.39 203.21 183.07 203.48 181.48C204.21 177.18 204.68 172.87 204.88 168.52C204.95 166.91 202.45 166.92 202.38 168.52Z" fill="#FF46A0"/>
<path d="M208.13 167.26C208.35 171.93 207.96 176.52 206.93 181.09C206.58 182.66 208.98 183.33 209.34 181.75C210.42 176.97 210.86 172.16 210.63 167.26C210.55 165.66 208.05 165.65 208.13 167.26Z" fill="#FF46A0"/>
<path d="M213.2 167.26C213.25 171.65 213.08 176.03 212.68 180.41C212.53 182.01 215.04 182 215.18 180.41C215.58 176.04 215.75 171.66 215.7 167.26C215.68 165.65 213.18 165.65 213.2 167.26Z" fill="#FF46A0"/>
<path d="M221.26 167C221.37 171.89 221.33 176.78 221.13 181.67C221.06 183.28 223.56 183.28 223.63 181.67C223.83 176.78 223.87 171.89 223.76 167C223.72 165.39 221.22 165.39 221.26 167Z" fill="#FF46A0"/>
<path d="M229.15 165.501C229.33 170.571 229.22 175.621 228.82 180.681C228.69 182.281 231.19 182.281 231.32 180.681C231.72 175.621 231.83 170.571 231.65 165.501C231.59 163.901 229.09 163.891 229.15 165.501Z" fill="#FF46A0"/>
<path d="M235.68 166.75C235.79 171.3 235.72 175.85 235.47 180.4C235.38 182.01 237.88 182 237.97 180.4C238.22 175.85 238.29 171.3 238.18 166.75C238.14 165.14 235.64 165.14 235.68 166.75Z" fill="#FF46A0"/>
<path d="M243.72 166.5C243.59 171.05 243.46 175.6 243.32 180.15C243.27 181.76 245.77 181.76 245.82 180.15C245.95 175.6 246.08 171.05 246.22 166.5C246.27 164.89 243.77 164.89 243.72 166.5Z" fill="#FF46A0"/>
<path d="M251.43 166C250.95 170.54 250.81 175.08 251.02 179.65C251.09 181.25 253.59 181.26 253.52 179.65C253.31 175.09 253.45 170.54 253.93 166C254.1 164.4 251.6 164.41 251.43 166Z" fill="#FF46A0"/>
<path d="M257.64 167.01L257.94 179.65C257.98 181.26 260.48 181.26 260.44 179.65L260.14 167.01C260.1 165.4 257.6 165.4 257.64 167.01Z" fill="#FF46A0"/>
<path d="M266.27 165.741C266.39 169.791 266.32 173.831 266.08 177.881C265.98 179.491 268.48 179.481 268.58 177.881C268.83 173.841 268.89 169.791 268.77 165.741C268.72 164.131 266.22 164.131 266.27 165.741Z" fill="#FF46A0"/>
<path d="M272.61 167.001L271.78 180.651C271.68 182.261 274.18 182.251 274.28 180.651L275.11 167.001C275.21 165.391 272.71 165.401 272.61 167.001Z" fill="#FF46A0"/>
<path d="M282.47 166.25C281.98 170.12 281.86 173.99 282.08 177.89C282.17 179.49 284.67 179.5 284.58 177.89C284.35 173.99 284.48 170.13 284.97 166.25C285.17 164.66 282.67 164.67 282.47 166.25Z" fill="#FF46A0"/>
<path d="M289.05 167.51C289.61 171.81 289.69 176.09 289.28 180.41C289.13 182.01 291.63 182 291.78 180.41C292.18 176.09 292.11 171.81 291.55 167.51C291.34 165.94 288.84 165.92 289.05 167.51Z" fill="#FF46A0"/>
<path d="M298.11 166.751C298.29 170.981 298.16 175.191 297.71 179.401C297.54 181.001 300.04 180.991 300.21 179.401C300.66 175.191 300.79 170.981 300.61 166.751C300.54 165.151 298.04 165.141 298.11 166.751Z" fill="#FF46A0"/>
<path d="M305.99 167C305.87 171.3 305.94 175.6 306.19 179.89C306.28 181.49 308.78 181.5 308.69 179.89C308.44 175.59 308.37 171.3 308.49 167C308.53 165.39 306.03 165.39 305.99 167Z" fill="#FF46A0"/>
<path d="M314.07 165.991L314.35 179.891C314.38 181.501 316.88 181.501 316.85 179.891L316.57 165.991C316.54 164.381 314.04 164.381 314.07 165.991Z" fill="#FF46A0"/>
<path d="M323.67 165.49C323.41 170.29 322.94 175.07 322.22 179.82C321.98 181.39 324.39 182.07 324.63 180.48C325.38 175.5 325.9 170.51 326.17 165.48C326.26 163.87 323.76 163.88 323.67 165.48V165.49Z" fill="#FF46A0"/>
<path d="M331.51 164.98C331.02 170.11 330.79 175.25 330.81 180.4C330.81 182.01 333.32 182.01 333.31 180.4C333.28 175.25 333.52 170.11 334.01 164.98C334.16 163.38 331.66 163.39 331.51 164.98Z" fill="#FF46A0"/>
<path d="M337.46 164.22C337.43 169.37 337.21 174.51 336.82 179.64C336.7 181.24 339.2 181.24 339.32 179.64C339.72 174.51 339.93 169.37 339.96 164.22C339.97 162.61 337.47 162.61 337.46 164.22Z" fill="#FF46A0"/>
</svg>
